%TF.GenerationSoftware,KiCad,Pcbnew,(6.0.5-0)*%
%TF.CreationDate,2022-08-11T13:14:41+02:00*%
%TF.ProjectId,tiny-fan,74696e79-2d66-4616-9e2e-6b696361645f,rev?*%
%TF.SameCoordinates,Original*%
%TF.FileFunction,Legend,Top*%
%TF.FilePolarity,Positive*%
%FSLAX46Y46*%
G04 Gerber Fmt 4.6, Leading zero omitted, Abs format (unit mm)*
G04 Created by KiCad (PCBNEW (6.0.5-0)) date 2022-08-11 13:14:41*
%MOMM*%
%LPD*%
G01*
G04 APERTURE LIST*
G04 Aperture macros list*
%AMRoundRect*
0 Rectangle with rounded corners*
0 $1 Rounding radius*
0 $2 $3 $4 $5 $6 $7 $8 $9 X,Y pos of 4 corners*
0 Add a 4 corners polygon primitive as box body*
4,1,4,$2,$3,$4,$5,$6,$7,$8,$9,$2,$3,0*
0 Add four circle primitives for the rounded corners*
1,1,$1+$1,$2,$3*
1,1,$1+$1,$4,$5*
1,1,$1+$1,$6,$7*
1,1,$1+$1,$8,$9*
0 Add four rect primitives between the rounded corners*
20,1,$1+$1,$2,$3,$4,$5,0*
20,1,$1+$1,$4,$5,$6,$7,0*
20,1,$1+$1,$6,$7,$8,$9,0*
20,1,$1+$1,$8,$9,$2,$3,0*%
G04 Aperture macros list end*
%ADD10C,0.150000*%
%ADD11C,0.200000*%
%ADD12C,0.120000*%
%ADD13C,0.127000*%
%ADD14C,0.300000*%
%ADD15C,1.955800*%
%ADD16C,2.600000*%
%ADD17R,2.600000X2.600000*%
%ADD18C,5.700000*%
%ADD19R,1.700000X1.700000*%
%ADD20O,1.700000X1.700000*%
%ADD21C,1.200000*%
%ADD22RoundRect,0.250000X-0.600000X-0.725000X0.600000X-0.725000X0.600000X0.725000X-0.600000X0.725000X0*%
%ADD23O,1.700000X1.950000*%
%ADD24C,1.100000*%
%ADD25R,1.730000X2.030000*%
%ADD26O,1.730000X2.030000*%
%ADD27R,1.910000X1.910000*%
%ADD28C,1.910000*%
%ADD29C,0.800000*%
G04 APERTURE END LIST*
D10*
%TO.C,U2*%
X36699857Y-30950647D02*
X36699857Y-30466838D01*
X36276523Y-30769219D02*
X37365095Y-30769219D01*
X37486047Y-30708742D01*
X37546523Y-30587790D01*
X37546523Y-30466838D01*
X37546523Y-30043504D02*
X36699857Y-30043504D01*
X36276523Y-30043504D02*
X36337000Y-30103981D01*
X36397476Y-30043504D01*
X36337000Y-29983028D01*
X36276523Y-30043504D01*
X36397476Y-30043504D01*
X36699857Y-29438742D02*
X37546523Y-29438742D01*
X36820809Y-29438742D02*
X36760333Y-29378266D01*
X36699857Y-29257314D01*
X36699857Y-29075885D01*
X36760333Y-28954933D01*
X36881285Y-28894457D01*
X37546523Y-28894457D01*
X36699857Y-28410647D02*
X37546523Y-28108266D01*
X36699857Y-27805885D02*
X37546523Y-28108266D01*
X37848904Y-28229219D01*
X37909380Y-28289695D01*
X37969857Y-28410647D01*
X36397476Y-27382552D02*
X36337000Y-27322076D01*
X36276523Y-27201123D01*
X36276523Y-26898742D01*
X36337000Y-26777790D01*
X36397476Y-26717314D01*
X36518428Y-26656838D01*
X36639380Y-26656838D01*
X36820809Y-26717314D01*
X37546523Y-27443028D01*
X37546523Y-26656838D01*
X36276523Y-25870647D02*
X36276523Y-25749695D01*
X36337000Y-25628742D01*
X36397476Y-25568266D01*
X36518428Y-25507790D01*
X36760333Y-25447314D01*
X37062714Y-25447314D01*
X37304619Y-25507790D01*
X37425571Y-25568266D01*
X37486047Y-25628742D01*
X37546523Y-25749695D01*
X37546523Y-25870647D01*
X37486047Y-25991600D01*
X37425571Y-26052076D01*
X37304619Y-26112552D01*
X37062714Y-26173028D01*
X36760333Y-26173028D01*
X36518428Y-26112552D01*
X36397476Y-26052076D01*
X36337000Y-25991600D01*
X36276523Y-25870647D01*
X36699857Y-24358742D02*
X37546523Y-24358742D01*
X36216047Y-24661123D02*
X37123190Y-24963504D01*
X37123190Y-24177314D01*
X36276523Y-23451600D02*
X36276523Y-23330647D01*
X36337000Y-23209695D01*
X36397476Y-23149219D01*
X36518428Y-23088742D01*
X36760333Y-23028266D01*
X37062714Y-23028266D01*
X37304619Y-23088742D01*
X37425571Y-23149219D01*
X37486047Y-23209695D01*
X37546523Y-23330647D01*
X37546523Y-23451600D01*
X37486047Y-23572552D01*
X37425571Y-23633028D01*
X37304619Y-23693504D01*
X37062714Y-23753981D01*
X36760333Y-23753981D01*
X36518428Y-23693504D01*
X36397476Y-23633028D01*
X36337000Y-23572552D01*
X36276523Y-23451600D01*
%TO.C,kibuzzard-62F4E44F*%
G36*
X38874700Y-58343800D02*
G01*
X38677850Y-58343800D01*
X38677850Y-56972200D01*
X38874700Y-56972200D01*
X38874700Y-58343800D01*
G37*
G36*
X42049700Y-58343800D02*
G01*
X41852850Y-58343800D01*
X41852850Y-56972200D01*
X42049700Y-56972200D01*
X42049700Y-58343800D01*
G37*
G36*
X44430950Y-58343800D02*
G01*
X44234100Y-58343800D01*
X44234100Y-56972200D01*
X44430950Y-56972200D01*
X44430950Y-58343800D01*
G37*
G36*
X36567269Y-57085706D02*
G01*
X36645850Y-57105550D01*
X36700619Y-57129362D01*
X36733162Y-57148412D01*
X36682362Y-57303987D01*
X36596637Y-57264300D01*
X36491862Y-57246837D01*
X36374387Y-57272237D01*
X36295806Y-57342881D01*
X36251356Y-57450831D01*
X36241236Y-57516911D01*
X36237862Y-57589737D01*
X36244036Y-57696894D01*
X36262557Y-57783413D01*
X36293425Y-57849294D01*
X36362084Y-57911802D01*
X36456937Y-57932638D01*
X36495037Y-57931050D01*
X36533137Y-57926288D01*
X36533137Y-57567512D01*
X36728400Y-57567512D01*
X36728400Y-58058050D01*
X36619656Y-58086625D01*
X36538098Y-58098531D01*
X36441062Y-58102500D01*
X36353552Y-58094364D01*
X36275169Y-58069956D01*
X36206708Y-58029475D01*
X36148962Y-57973119D01*
X36102528Y-57900888D01*
X36068000Y-57812781D01*
X36046569Y-57708998D01*
X36039425Y-57589737D01*
X36047759Y-57471667D01*
X36072762Y-57368281D01*
X36112053Y-57279977D01*
X36163250Y-57207150D01*
X36225559Y-57150198D01*
X36298187Y-57109519D01*
X36378753Y-57085111D01*
X36464875Y-57076975D01*
X36567269Y-57085706D01*
G37*
G36*
X42917269Y-57085706D02*
G01*
X42995850Y-57105550D01*
X43050619Y-57129362D01*
X43083163Y-57148412D01*
X43032363Y-57303987D01*
X42946638Y-57264300D01*
X42841863Y-57246837D01*
X42724388Y-57272237D01*
X42645806Y-57342881D01*
X42601356Y-57450831D01*
X42591236Y-57516911D01*
X42587863Y-57589737D01*
X42594036Y-57696894D01*
X42612557Y-57783413D01*
X42643425Y-57849294D01*
X42712084Y-57911802D01*
X42806938Y-57932638D01*
X42845038Y-57931050D01*
X42883138Y-57926288D01*
X42883138Y-57567512D01*
X43078400Y-57567512D01*
X43078400Y-58058050D01*
X42969656Y-58086625D01*
X42888098Y-58098531D01*
X42791063Y-58102500D01*
X42703552Y-58094364D01*
X42625169Y-58069956D01*
X42556708Y-58029475D01*
X42498963Y-57973119D01*
X42452528Y-57900888D01*
X42418000Y-57812781D01*
X42396569Y-57708998D01*
X42389425Y-57589737D01*
X42397759Y-57471667D01*
X42422763Y-57368281D01*
X42462053Y-57279977D01*
X42513250Y-57207150D01*
X42575559Y-57150198D01*
X42648188Y-57109519D01*
X42728753Y-57085111D01*
X42814875Y-57076975D01*
X42917269Y-57085706D01*
G37*
G36*
X45298519Y-57085706D02*
G01*
X45377100Y-57105550D01*
X45431869Y-57129362D01*
X45464413Y-57148412D01*
X45413613Y-57303987D01*
X45327888Y-57264300D01*
X45223113Y-57246837D01*
X45105638Y-57272237D01*
X45027056Y-57342881D01*
X44982606Y-57450831D01*
X44972486Y-57516911D01*
X44969113Y-57589737D01*
X44975286Y-57696894D01*
X44993807Y-57783413D01*
X45024675Y-57849294D01*
X45093334Y-57911802D01*
X45188188Y-57932638D01*
X45226288Y-57931050D01*
X45264388Y-57926288D01*
X45264388Y-57567512D01*
X45459650Y-57567512D01*
X45459650Y-58058050D01*
X45350906Y-58086625D01*
X45269348Y-58098531D01*
X45172312Y-58102500D01*
X45084802Y-58094364D01*
X45006419Y-58069956D01*
X44937958Y-58029475D01*
X44880213Y-57973119D01*
X44833778Y-57900888D01*
X44799250Y-57812781D01*
X44777819Y-57708998D01*
X44770675Y-57589737D01*
X44779009Y-57471667D01*
X44804013Y-57368281D01*
X44843303Y-57279977D01*
X44894500Y-57207150D01*
X44956809Y-57150198D01*
X45029438Y-57109519D01*
X45110003Y-57085111D01*
X45196125Y-57076975D01*
X45298519Y-57085706D01*
G37*
G36*
X46196250Y-57466706D02*
G01*
X46153388Y-57527230D01*
X46091475Y-57577037D01*
X46168667Y-57631806D01*
X46219269Y-57691338D01*
X46247248Y-57756425D01*
X46256575Y-57827863D01*
X46238319Y-57924700D01*
X46179581Y-58012806D01*
X46074013Y-58077100D01*
X46001384Y-58096150D01*
X45913675Y-58102500D01*
X45842436Y-58097936D01*
X45777944Y-58084244D01*
X45673169Y-58031856D01*
X45605700Y-57947719D01*
X45581888Y-57835800D01*
X45584758Y-57811988D01*
X45764450Y-57811988D01*
X45809694Y-57908031D01*
X45916850Y-57940575D01*
X46030356Y-57906444D01*
X46072425Y-57824688D01*
X46060519Y-57769125D01*
X46022419Y-57725469D01*
X45954950Y-57685781D01*
X45856525Y-57643712D01*
X45788263Y-57725469D01*
X45764450Y-57811988D01*
X45584758Y-57811988D01*
X45590619Y-57763370D01*
X45616813Y-57695306D01*
X45661659Y-57633195D01*
X45726350Y-57578625D01*
X45667613Y-57529412D01*
X45631100Y-57477025D01*
X45605700Y-57362725D01*
X45607834Y-57350025D01*
X45789850Y-57350025D01*
X45826363Y-57440512D01*
X45876766Y-57476231D01*
X45954950Y-57513537D01*
X46024800Y-57433369D01*
X46045438Y-57348437D01*
X46008131Y-57265094D01*
X45918438Y-57237312D01*
X45828744Y-57265887D01*
X45789850Y-57350025D01*
X45607834Y-57350025D01*
X45622369Y-57263506D01*
X45675550Y-57170637D01*
X45772388Y-57102375D01*
X45839856Y-57082134D01*
X45921613Y-57075387D01*
X46048414Y-57092850D01*
X46146244Y-57145237D01*
X46208752Y-57226994D01*
X46229588Y-57332562D01*
X46221253Y-57400230D01*
X46196250Y-57466706D01*
G37*
G36*
X40181212Y-57194450D02*
G01*
X40179625Y-57292875D01*
X40178037Y-57392689D01*
X40176450Y-57492106D01*
X40174862Y-57590134D01*
X40173275Y-57685781D01*
X40172084Y-57777261D01*
X40171687Y-57862788D01*
X40204231Y-57751663D01*
X40239156Y-57632600D01*
X40270112Y-57524650D01*
X40292337Y-57446862D01*
X40435212Y-57446862D01*
X40454262Y-57521475D01*
X40482044Y-57619900D01*
X40515381Y-57735788D01*
X40551100Y-57862788D01*
X40550703Y-57777261D01*
X40549512Y-57685781D01*
X40547925Y-57590333D01*
X40546337Y-57492900D01*
X40544750Y-57393880D01*
X40543162Y-57293669D01*
X40541972Y-57194648D01*
X40541575Y-57099200D01*
X40722550Y-57099200D01*
X40717787Y-57221636D01*
X40713025Y-57347644D01*
X40707866Y-57475041D01*
X40701912Y-57601644D01*
X40694967Y-57726858D01*
X40686831Y-57850088D01*
X40677505Y-57969150D01*
X40666987Y-58081863D01*
X40505062Y-58081863D01*
X40470137Y-57978080D01*
X40435212Y-57866756D01*
X40400287Y-57754242D01*
X40365362Y-57646887D01*
X40329644Y-57751266D01*
X40292337Y-57864375D01*
X40255825Y-57977484D01*
X40222487Y-58081863D01*
X40060562Y-58081863D01*
X40048656Y-57968952D01*
X40038337Y-57849294D01*
X40029408Y-57725469D01*
X40021669Y-57600056D01*
X40015120Y-57473453D01*
X40009762Y-57346056D01*
X40005397Y-57220445D01*
X40001825Y-57099200D01*
X40182800Y-57099200D01*
X40181212Y-57194450D01*
G37*
G36*
X41178956Y-57092850D02*
G01*
X41251188Y-57107137D01*
X41314688Y-57131347D01*
X41368663Y-57165875D01*
X41444069Y-57266681D01*
X41463714Y-57333158D01*
X41470263Y-57410350D01*
X41461531Y-57492106D01*
X41435338Y-57565925D01*
X41388903Y-57627441D01*
X41319450Y-57672288D01*
X41376600Y-57763569D01*
X41435338Y-57868344D01*
X41490106Y-57977881D01*
X41535350Y-58081863D01*
X41330563Y-58081863D01*
X41291073Y-57988398D01*
X41245631Y-57898506D01*
X41195427Y-57809805D01*
X41141650Y-57719913D01*
X41040050Y-57719913D01*
X41040050Y-58081863D01*
X40844787Y-58081863D01*
X40844787Y-57557987D01*
X41040050Y-57557987D01*
X41082912Y-57557987D01*
X41169034Y-57548264D01*
X41227375Y-57519094D01*
X41271825Y-57408762D01*
X41259919Y-57341294D01*
X41224200Y-57294462D01*
X41169034Y-57267078D01*
X41098787Y-57257950D01*
X41071800Y-57258744D01*
X41040050Y-57262712D01*
X41040050Y-57557987D01*
X40844787Y-57557987D01*
X40844787Y-57113487D01*
X40907494Y-57101581D01*
X40976550Y-57093644D01*
X41043225Y-57089675D01*
X41098787Y-57088087D01*
X41178956Y-57092850D01*
G37*
G36*
X37997408Y-57095231D02*
G01*
X38081744Y-57116662D01*
X38155761Y-57153373D01*
X38217475Y-57206356D01*
X38266886Y-57275809D01*
X38303994Y-57361931D01*
X38327211Y-57466111D01*
X38334950Y-57589737D01*
X38326417Y-57716142D01*
X38300819Y-57822306D01*
X38260139Y-57909420D01*
X38206362Y-57978675D01*
X38140283Y-58030864D01*
X38062694Y-58066781D01*
X37975183Y-58087617D01*
X37879337Y-58094563D01*
X37776944Y-58089006D01*
X37669787Y-58070750D01*
X37669787Y-57923113D01*
X37865050Y-57923113D01*
X37882512Y-57924700D01*
X37899975Y-57924700D01*
X38011894Y-57899300D01*
X38084919Y-57829450D01*
X38124606Y-57723881D01*
X38133536Y-57659786D01*
X38136512Y-57589737D01*
X38126987Y-57465912D01*
X38093650Y-57359550D01*
X38028562Y-57285731D01*
X37922200Y-57257950D01*
X37893625Y-57258744D01*
X37865050Y-57262712D01*
X37865050Y-57923113D01*
X37669787Y-57923113D01*
X37669787Y-57111900D01*
X37795200Y-57092850D01*
X37904737Y-57088087D01*
X37997408Y-57095231D01*
G37*
G36*
X43693556Y-57478612D02*
G01*
X43791188Y-57546875D01*
X43845956Y-57646887D01*
X43862625Y-57767538D01*
X43844369Y-57883425D01*
X43788013Y-57991375D01*
X43691175Y-58071544D01*
X43626881Y-58094761D01*
X43551475Y-58102500D01*
X43450140Y-58091123D01*
X43366267Y-58056992D01*
X43299856Y-58000106D01*
X43251790Y-57919056D01*
X43222951Y-57812428D01*
X43214608Y-57697688D01*
X43405425Y-57697688D01*
X43411775Y-57785794D01*
X43434000Y-57861200D01*
X43477656Y-57914381D01*
X43546713Y-57934225D01*
X43603863Y-57918350D01*
X43642756Y-57878663D01*
X43664981Y-57826275D01*
X43672125Y-57770713D01*
X43638788Y-57655619D01*
X43593147Y-57625258D01*
X43522900Y-57615137D01*
X43460988Y-57621487D01*
X43408600Y-57638950D01*
X43406219Y-57667525D01*
X43405425Y-57697688D01*
X43214608Y-57697688D01*
X43213338Y-57680225D01*
X43223855Y-57545684D01*
X43255406Y-57427812D01*
X43306405Y-57327006D01*
X43375263Y-57243662D01*
X43460988Y-57178178D01*
X43562588Y-57130950D01*
X43678078Y-57102375D01*
X43805475Y-57092850D01*
X43816588Y-57259537D01*
X43692763Y-57272237D01*
X43581638Y-57309544D01*
X43493531Y-57377012D01*
X43438763Y-57480200D01*
X43497500Y-57460356D01*
X43548300Y-57453212D01*
X43627477Y-57459562D01*
X43693556Y-57478612D01*
G37*
G36*
X39739535Y-57122307D02*
G01*
X39817675Y-57165081D01*
X39875001Y-57227258D01*
X39909397Y-57311131D01*
X39920862Y-57416700D01*
X39909309Y-57523327D01*
X39874649Y-57608258D01*
X39816881Y-57671494D01*
X39737947Y-57715150D01*
X39639787Y-57741344D01*
X39522400Y-57750075D01*
X39452550Y-57750075D01*
X39452550Y-58081863D01*
X39257287Y-58081863D01*
X39257287Y-57580212D01*
X39452550Y-57580212D01*
X39531925Y-57580212D01*
X39614078Y-57570886D01*
X39673212Y-57542906D01*
X39708931Y-57492305D01*
X39720837Y-57415112D01*
X39709130Y-57341889D01*
X39674006Y-57293669D01*
X39619436Y-57266880D01*
X39549387Y-57257950D01*
X39500969Y-57258744D01*
X39452550Y-57262712D01*
X39452550Y-57580212D01*
X39257287Y-57580212D01*
X39257287Y-57111900D01*
X39321581Y-57100787D01*
X39393812Y-57093644D01*
X39465250Y-57089675D01*
X39527162Y-57088087D01*
X39642697Y-57096642D01*
X39739535Y-57122307D01*
G37*
G36*
X37064950Y-57172027D02*
G01*
X37109400Y-57250806D01*
X37153255Y-57332364D01*
X37195919Y-57413525D01*
X37236400Y-57493297D01*
X37273706Y-57570687D01*
X37306845Y-57642125D01*
X37334825Y-57704038D01*
X37334825Y-57099200D01*
X37511037Y-57099200D01*
X37511037Y-58081863D01*
X37353875Y-58081863D01*
X37308102Y-57972942D01*
X37259683Y-57864199D01*
X37208619Y-57755631D01*
X37154908Y-57647064D01*
X37098552Y-57538320D01*
X37039550Y-57429400D01*
X37039550Y-58081863D01*
X36863337Y-58081863D01*
X36863337Y-57099200D01*
X37020500Y-57099200D01*
X37064950Y-57172027D01*
G37*
%TO.C,kibuzzard-62F4E43D*%
G36*
X38874700Y-50215800D02*
G01*
X38677850Y-50215800D01*
X38677850Y-48844200D01*
X38874700Y-48844200D01*
X38874700Y-50215800D01*
G37*
G36*
X42049700Y-50215800D02*
G01*
X41852850Y-50215800D01*
X41852850Y-48844200D01*
X42049700Y-48844200D01*
X42049700Y-50215800D01*
G37*
G36*
X44430950Y-50215800D02*
G01*
X44234100Y-50215800D01*
X44234100Y-48844200D01*
X44430950Y-48844200D01*
X44430950Y-50215800D01*
G37*
G36*
X36567269Y-48957706D02*
G01*
X36645850Y-48977550D01*
X36700619Y-49001362D01*
X36733162Y-49020412D01*
X36682362Y-49175987D01*
X36596637Y-49136300D01*
X36491862Y-49118837D01*
X36374387Y-49144237D01*
X36295806Y-49214881D01*
X36251356Y-49322831D01*
X36241236Y-49388911D01*
X36237862Y-49461737D01*
X36244036Y-49568894D01*
X36262557Y-49655413D01*
X36293425Y-49721294D01*
X36362084Y-49783802D01*
X36456937Y-49804638D01*
X36495037Y-49803050D01*
X36533137Y-49798288D01*
X36533137Y-49439512D01*
X36728400Y-49439512D01*
X36728400Y-49930050D01*
X36619656Y-49958625D01*
X36538098Y-49970531D01*
X36441062Y-49974500D01*
X36353552Y-49966364D01*
X36275169Y-49941956D01*
X36206708Y-49901475D01*
X36148962Y-49845119D01*
X36102528Y-49772888D01*
X36068000Y-49684781D01*
X36046569Y-49580998D01*
X36039425Y-49461737D01*
X36047759Y-49343667D01*
X36072762Y-49240281D01*
X36112053Y-49151977D01*
X36163250Y-49079150D01*
X36225559Y-49022198D01*
X36298187Y-48981519D01*
X36378753Y-48957111D01*
X36464875Y-48948975D01*
X36567269Y-48957706D01*
G37*
G36*
X42917269Y-48957706D02*
G01*
X42995850Y-48977550D01*
X43050619Y-49001362D01*
X43083163Y-49020412D01*
X43032363Y-49175987D01*
X42946638Y-49136300D01*
X42841863Y-49118837D01*
X42724388Y-49144237D01*
X42645806Y-49214881D01*
X42601356Y-49322831D01*
X42591236Y-49388911D01*
X42587863Y-49461737D01*
X42594036Y-49568894D01*
X42612557Y-49655413D01*
X42643425Y-49721294D01*
X42712084Y-49783802D01*
X42806938Y-49804638D01*
X42845038Y-49803050D01*
X42883138Y-49798288D01*
X42883138Y-49439512D01*
X43078400Y-49439512D01*
X43078400Y-49930050D01*
X42969656Y-49958625D01*
X42888098Y-49970531D01*
X42791063Y-49974500D01*
X42703552Y-49966364D01*
X42625169Y-49941956D01*
X42556708Y-49901475D01*
X42498963Y-49845119D01*
X42452528Y-49772888D01*
X42418000Y-49684781D01*
X42396569Y-49580998D01*
X42389425Y-49461737D01*
X42397759Y-49343667D01*
X42422763Y-49240281D01*
X42462053Y-49151977D01*
X42513250Y-49079150D01*
X42575559Y-49022198D01*
X42648188Y-48981519D01*
X42728753Y-48957111D01*
X42814875Y-48948975D01*
X42917269Y-48957706D01*
G37*
G36*
X45298519Y-48957706D02*
G01*
X45377100Y-48977550D01*
X45431869Y-49001362D01*
X45464413Y-49020412D01*
X45413613Y-49175987D01*
X45327888Y-49136300D01*
X45223113Y-49118837D01*
X45105638Y-49144237D01*
X45027056Y-49214881D01*
X44982606Y-49322831D01*
X44972486Y-49388911D01*
X44969113Y-49461737D01*
X44975286Y-49568894D01*
X44993807Y-49655413D01*
X45024675Y-49721294D01*
X45093334Y-49783802D01*
X45188188Y-49804638D01*
X45226288Y-49803050D01*
X45264388Y-49798288D01*
X45264388Y-49439512D01*
X45459650Y-49439512D01*
X45459650Y-49930050D01*
X45350906Y-49958625D01*
X45269348Y-49970531D01*
X45172313Y-49974500D01*
X45084802Y-49966364D01*
X45006419Y-49941956D01*
X44937958Y-49901475D01*
X44880213Y-49845119D01*
X44833778Y-49772888D01*
X44799250Y-49684781D01*
X44777819Y-49580998D01*
X44770675Y-49461737D01*
X44779009Y-49343667D01*
X44804013Y-49240281D01*
X44843303Y-49151977D01*
X44894500Y-49079150D01*
X44956809Y-49022198D01*
X45029438Y-48981519D01*
X45110003Y-48957111D01*
X45196125Y-48948975D01*
X45298519Y-48957706D01*
G37*
G36*
X40181212Y-49066450D02*
G01*
X40179625Y-49164875D01*
X40178037Y-49264689D01*
X40176450Y-49364106D01*
X40174862Y-49462134D01*
X40173275Y-49557781D01*
X40172084Y-49649261D01*
X40171687Y-49734788D01*
X40204231Y-49623663D01*
X40239156Y-49504600D01*
X40270112Y-49396650D01*
X40292337Y-49318862D01*
X40435212Y-49318862D01*
X40454262Y-49393475D01*
X40482044Y-49491900D01*
X40515381Y-49607788D01*
X40551100Y-49734788D01*
X40550703Y-49649261D01*
X40549512Y-49557781D01*
X40547925Y-49462333D01*
X40546337Y-49364900D01*
X40544750Y-49265880D01*
X40543162Y-49165669D01*
X40541972Y-49066648D01*
X40541575Y-48971200D01*
X40722550Y-48971200D01*
X40717787Y-49093636D01*
X40713025Y-49219644D01*
X40707866Y-49347041D01*
X40701912Y-49473644D01*
X40694967Y-49598858D01*
X40686831Y-49722088D01*
X40677505Y-49841150D01*
X40666987Y-49953863D01*
X40505062Y-49953863D01*
X40470137Y-49850080D01*
X40435212Y-49738756D01*
X40400287Y-49626242D01*
X40365362Y-49518887D01*
X40329644Y-49623266D01*
X40292337Y-49736375D01*
X40255825Y-49849484D01*
X40222487Y-49953863D01*
X40060562Y-49953863D01*
X40048656Y-49840952D01*
X40038337Y-49721294D01*
X40029408Y-49597469D01*
X40021669Y-49472056D01*
X40015120Y-49345453D01*
X40009762Y-49218056D01*
X40005397Y-49092445D01*
X40001825Y-48971200D01*
X40182800Y-48971200D01*
X40181212Y-49066450D01*
G37*
G36*
X46748105Y-48954134D02*
G01*
X46814581Y-48969612D01*
X46915388Y-49027556D01*
X46974125Y-49115662D01*
X46993175Y-49225200D01*
X46959838Y-49337912D01*
X46870938Y-49420462D01*
X46938605Y-49459753D01*
X46989206Y-49514125D01*
X47020758Y-49581991D01*
X47031275Y-49661763D01*
X47009050Y-49787175D01*
X46940788Y-49886394D01*
X46888400Y-49923700D01*
X46823313Y-49951481D01*
X46745128Y-49968745D01*
X46653450Y-49974500D01*
X46576456Y-49968944D01*
X46498669Y-49955450D01*
X46429613Y-49937988D01*
X46380400Y-49920525D01*
X46418500Y-49757013D01*
X46512956Y-49790350D01*
X46576655Y-49803447D01*
X46651863Y-49807813D01*
X46736992Y-49797097D01*
X46792356Y-49764950D01*
X46832838Y-49658588D01*
X46817359Y-49592508D01*
X46770925Y-49549844D01*
X46700678Y-49526627D01*
X46613763Y-49518887D01*
X46553438Y-49518887D01*
X46553438Y-49356962D01*
X46626463Y-49356962D01*
X46686788Y-49350612D01*
X46740763Y-49329975D01*
X46779656Y-49291875D01*
X46794738Y-49231550D01*
X46762194Y-49146619D01*
X46672500Y-49115662D01*
X46562169Y-49133919D01*
X46467713Y-49179162D01*
X46397863Y-49036287D01*
X46511369Y-48978344D01*
X46586577Y-48956317D01*
X46670913Y-48948975D01*
X46748105Y-48954134D01*
G37*
G36*
X41178956Y-48964850D02*
G01*
X41251187Y-48979137D01*
X41314687Y-49003347D01*
X41368662Y-49037875D01*
X41444069Y-49138681D01*
X41463714Y-49205158D01*
X41470262Y-49282350D01*
X41461531Y-49364106D01*
X41435337Y-49437925D01*
X41388903Y-49499441D01*
X41319450Y-49544288D01*
X41376600Y-49635569D01*
X41435337Y-49740344D01*
X41490106Y-49849881D01*
X41535350Y-49953863D01*
X41330562Y-49953863D01*
X41291073Y-49860398D01*
X41245631Y-49770506D01*
X41195427Y-49681805D01*
X41141650Y-49591913D01*
X41040050Y-49591913D01*
X41040050Y-49953863D01*
X40844787Y-49953863D01*
X40844787Y-49429987D01*
X41040050Y-49429987D01*
X41082912Y-49429987D01*
X41169034Y-49420264D01*
X41227375Y-49391094D01*
X41271825Y-49280762D01*
X41259919Y-49213294D01*
X41224200Y-49166462D01*
X41169034Y-49139078D01*
X41098787Y-49129950D01*
X41071800Y-49130744D01*
X41040050Y-49134712D01*
X41040050Y-49429987D01*
X40844787Y-49429987D01*
X40844787Y-48985487D01*
X40907494Y-48973581D01*
X40976550Y-48965644D01*
X41043225Y-48961675D01*
X41098787Y-48960087D01*
X41178956Y-48964850D01*
G37*
G36*
X37997408Y-48967231D02*
G01*
X38081744Y-48988662D01*
X38155761Y-49025373D01*
X38217475Y-49078356D01*
X38266886Y-49147809D01*
X38303994Y-49233931D01*
X38327211Y-49338111D01*
X38334950Y-49461737D01*
X38326417Y-49588142D01*
X38300819Y-49694306D01*
X38260139Y-49781420D01*
X38206362Y-49850675D01*
X38140283Y-49902864D01*
X38062694Y-49938781D01*
X37975183Y-49959617D01*
X37879337Y-49966563D01*
X37776944Y-49961006D01*
X37669787Y-49942750D01*
X37669787Y-49795113D01*
X37865050Y-49795113D01*
X37882512Y-49796700D01*
X37899975Y-49796700D01*
X38011894Y-49771300D01*
X38084919Y-49701450D01*
X38124606Y-49595881D01*
X38133536Y-49531786D01*
X38136512Y-49461737D01*
X38126987Y-49337912D01*
X38093650Y-49231550D01*
X38028562Y-49157731D01*
X37922200Y-49129950D01*
X37893625Y-49130744D01*
X37865050Y-49134712D01*
X37865050Y-49795113D01*
X37669787Y-49795113D01*
X37669787Y-48983900D01*
X37795200Y-48964850D01*
X37904737Y-48960087D01*
X37997408Y-48967231D01*
G37*
G36*
X43813413Y-49133125D02*
G01*
X43475275Y-49133125D01*
X43467338Y-49239487D01*
X43459400Y-49329975D01*
X43579521Y-49346203D01*
X43677417Y-49377953D01*
X43753088Y-49425225D01*
X43806886Y-49487667D01*
X43839165Y-49564925D01*
X43849925Y-49657000D01*
X43826113Y-49783206D01*
X43753088Y-49884013D01*
X43697922Y-49922113D01*
X43630850Y-49950688D01*
X43551872Y-49968547D01*
X43460988Y-49974500D01*
X43383200Y-49969738D01*
X43307000Y-49957831D01*
X43241119Y-49941163D01*
X43195875Y-49923700D01*
X43235563Y-49761775D01*
X43324463Y-49793525D01*
X43385184Y-49804241D01*
X43459400Y-49807813D01*
X43553856Y-49795113D01*
X43612594Y-49762569D01*
X43641963Y-49717325D01*
X43649900Y-49664938D01*
X43636406Y-49589531D01*
X43582431Y-49530794D01*
X43467338Y-49492694D01*
X43381216Y-49482573D01*
X43272075Y-49479200D01*
X43286363Y-49347239D01*
X43297475Y-49218056D01*
X43305809Y-49092445D01*
X43311763Y-48971200D01*
X43813413Y-48971200D01*
X43813413Y-49133125D01*
G37*
G36*
X39739535Y-48994307D02*
G01*
X39817675Y-49037081D01*
X39875001Y-49099258D01*
X39909397Y-49183131D01*
X39920862Y-49288700D01*
X39909309Y-49395327D01*
X39874649Y-49480258D01*
X39816881Y-49543494D01*
X39737947Y-49587150D01*
X39639787Y-49613344D01*
X39522400Y-49622075D01*
X39452550Y-49622075D01*
X39452550Y-49953863D01*
X39257287Y-49953863D01*
X39257287Y-49452212D01*
X39452550Y-49452212D01*
X39531925Y-49452212D01*
X39614078Y-49442886D01*
X39673212Y-49414906D01*
X39708931Y-49364305D01*
X39720837Y-49287112D01*
X39709130Y-49213889D01*
X39674006Y-49165669D01*
X39619436Y-49138880D01*
X39549387Y-49129950D01*
X39500969Y-49130744D01*
X39452550Y-49134712D01*
X39452550Y-49452212D01*
X39257287Y-49452212D01*
X39257287Y-48983900D01*
X39321581Y-48972787D01*
X39393812Y-48965644D01*
X39465250Y-48961675D01*
X39527162Y-48960087D01*
X39642697Y-48968642D01*
X39739535Y-48994307D01*
G37*
G36*
X46054963Y-49791938D02*
G01*
X46250225Y-49791938D01*
X46250225Y-49953863D01*
X45653325Y-49953863D01*
X45653325Y-49791938D01*
X45859700Y-49791938D01*
X45859700Y-49242662D01*
X45758100Y-49299019D01*
X45661263Y-49337912D01*
X45597762Y-49175987D01*
X45680313Y-49139475D01*
X45769213Y-49090262D01*
X45853350Y-49033112D01*
X45921613Y-48971200D01*
X46054963Y-48971200D01*
X46054963Y-49791938D01*
G37*
G36*
X37064950Y-49044027D02*
G01*
X37109400Y-49122806D01*
X37153255Y-49204364D01*
X37195919Y-49285525D01*
X37236400Y-49365297D01*
X37273706Y-49442687D01*
X37306845Y-49514125D01*
X37334825Y-49576038D01*
X37334825Y-48971200D01*
X37511038Y-48971200D01*
X37511038Y-49953863D01*
X37353875Y-49953863D01*
X37308102Y-49844942D01*
X37259683Y-49736199D01*
X37208619Y-49627631D01*
X37154908Y-49519064D01*
X37098552Y-49410320D01*
X37039550Y-49301400D01*
X37039550Y-49953863D01*
X36863337Y-49953863D01*
X36863337Y-48971200D01*
X37020500Y-48971200D01*
X37064950Y-49044027D01*
G37*
%TO.C,kibuzzard-62F4E423*%
G36*
X38874700Y-42341800D02*
G01*
X38677850Y-42341800D01*
X38677850Y-40970200D01*
X38874700Y-40970200D01*
X38874700Y-42341800D01*
G37*
G36*
X42049700Y-42341800D02*
G01*
X41852850Y-42341800D01*
X41852850Y-40970200D01*
X42049700Y-40970200D01*
X42049700Y-42341800D01*
G37*
G36*
X44430950Y-42341800D02*
G01*
X44234100Y-42341800D01*
X44234100Y-40970200D01*
X44430950Y-40970200D01*
X44430950Y-42341800D01*
G37*
G36*
X36567268Y-41083706D02*
G01*
X36645850Y-41103550D01*
X36700618Y-41127362D01*
X36733162Y-41146412D01*
X36682362Y-41301987D01*
X36596637Y-41262300D01*
X36491862Y-41244837D01*
X36374387Y-41270237D01*
X36295806Y-41340881D01*
X36251356Y-41448831D01*
X36241236Y-41514911D01*
X36237862Y-41587737D01*
X36244036Y-41694894D01*
X36262557Y-41781413D01*
X36293425Y-41847294D01*
X36362084Y-41909802D01*
X36456937Y-41930638D01*
X36495037Y-41929050D01*
X36533137Y-41924288D01*
X36533137Y-41565512D01*
X36728400Y-41565512D01*
X36728400Y-42056050D01*
X36619656Y-42084625D01*
X36538098Y-42096531D01*
X36441062Y-42100500D01*
X36353551Y-42092364D01*
X36275168Y-42067956D01*
X36206708Y-42027475D01*
X36148962Y-41971119D01*
X36102528Y-41898888D01*
X36068000Y-41810781D01*
X36046568Y-41706998D01*
X36039425Y-41587737D01*
X36047759Y-41469667D01*
X36072762Y-41366281D01*
X36112053Y-41277977D01*
X36163250Y-41205150D01*
X36225559Y-41148198D01*
X36298187Y-41107519D01*
X36378753Y-41083111D01*
X36464875Y-41074975D01*
X36567268Y-41083706D01*
G37*
G36*
X42917269Y-41083706D02*
G01*
X42995850Y-41103550D01*
X43050619Y-41127362D01*
X43083162Y-41146412D01*
X43032362Y-41301987D01*
X42946637Y-41262300D01*
X42841862Y-41244837D01*
X42724387Y-41270237D01*
X42645806Y-41340881D01*
X42601356Y-41448831D01*
X42591236Y-41514911D01*
X42587862Y-41587737D01*
X42594036Y-41694894D01*
X42612557Y-41781413D01*
X42643425Y-41847294D01*
X42712084Y-41909802D01*
X42806937Y-41930638D01*
X42845037Y-41929050D01*
X42883137Y-41924288D01*
X42883137Y-41565512D01*
X43078400Y-41565512D01*
X43078400Y-42056050D01*
X42969656Y-42084625D01*
X42888098Y-42096531D01*
X42791062Y-42100500D01*
X42703551Y-42092364D01*
X42625169Y-42067956D01*
X42556708Y-42027475D01*
X42498962Y-41971119D01*
X42452528Y-41898888D01*
X42418000Y-41810781D01*
X42396569Y-41706998D01*
X42389425Y-41587737D01*
X42397759Y-41469667D01*
X42422762Y-41366281D01*
X42462053Y-41277977D01*
X42513250Y-41205150D01*
X42575559Y-41148198D01*
X42648187Y-41107519D01*
X42728753Y-41083111D01*
X42814875Y-41074975D01*
X42917269Y-41083706D01*
G37*
G36*
X45298519Y-41083706D02*
G01*
X45377100Y-41103550D01*
X45431869Y-41127362D01*
X45464412Y-41146412D01*
X45413612Y-41301987D01*
X45327887Y-41262300D01*
X45223112Y-41244837D01*
X45105637Y-41270237D01*
X45027056Y-41340881D01*
X44982606Y-41448831D01*
X44972486Y-41514911D01*
X44969112Y-41587737D01*
X44975286Y-41694894D01*
X44993807Y-41781413D01*
X45024675Y-41847294D01*
X45093334Y-41909802D01*
X45188187Y-41930638D01*
X45226287Y-41929050D01*
X45264387Y-41924288D01*
X45264387Y-41565512D01*
X45459650Y-41565512D01*
X45459650Y-42056050D01*
X45350906Y-42084625D01*
X45269348Y-42096531D01*
X45172312Y-42100500D01*
X45084801Y-42092364D01*
X45006419Y-42067956D01*
X44937958Y-42027475D01*
X44880212Y-41971119D01*
X44833778Y-41898888D01*
X44799250Y-41810781D01*
X44777819Y-41706998D01*
X44770675Y-41587737D01*
X44779009Y-41469667D01*
X44804012Y-41366281D01*
X44843303Y-41277977D01*
X44894500Y-41205150D01*
X44956809Y-41148198D01*
X45029437Y-41107519D01*
X45110003Y-41083111D01*
X45196125Y-41074975D01*
X45298519Y-41083706D01*
G37*
G36*
X40181212Y-41192450D02*
G01*
X40179625Y-41290875D01*
X40178037Y-41390689D01*
X40176450Y-41490106D01*
X40174862Y-41588134D01*
X40173275Y-41683781D01*
X40172084Y-41775261D01*
X40171687Y-41860788D01*
X40204231Y-41749663D01*
X40239156Y-41630600D01*
X40270112Y-41522650D01*
X40292337Y-41444862D01*
X40435212Y-41444862D01*
X40454262Y-41519475D01*
X40482043Y-41617900D01*
X40515381Y-41733788D01*
X40551100Y-41860788D01*
X40550703Y-41775261D01*
X40549512Y-41683781D01*
X40547925Y-41588333D01*
X40546337Y-41490900D01*
X40544750Y-41391880D01*
X40543162Y-41291669D01*
X40541972Y-41192648D01*
X40541575Y-41097200D01*
X40722550Y-41097200D01*
X40717787Y-41219636D01*
X40713025Y-41345644D01*
X40707865Y-41473041D01*
X40701912Y-41599644D01*
X40694967Y-41724858D01*
X40686831Y-41848088D01*
X40677504Y-41967150D01*
X40666987Y-42079863D01*
X40505062Y-42079863D01*
X40470137Y-41976080D01*
X40435212Y-41864756D01*
X40400287Y-41752242D01*
X40365362Y-41644887D01*
X40329643Y-41749266D01*
X40292337Y-41862375D01*
X40255825Y-41975484D01*
X40222487Y-42079863D01*
X40060562Y-42079863D01*
X40048656Y-41966952D01*
X40038337Y-41847294D01*
X40029408Y-41723469D01*
X40021668Y-41598056D01*
X40015120Y-41471453D01*
X40009762Y-41344056D01*
X40005397Y-41218445D01*
X40001825Y-41097200D01*
X40182800Y-41097200D01*
X40181212Y-41192450D01*
G37*
G36*
X43894375Y-41687750D02*
G01*
X43894375Y-41848088D01*
X43788012Y-41848088D01*
X43788012Y-42079863D01*
X43592750Y-42079863D01*
X43592750Y-41848088D01*
X43183175Y-41848088D01*
X43183175Y-41705213D01*
X43192300Y-41687750D01*
X43370500Y-41687750D01*
X43592750Y-41687750D01*
X43592750Y-41341675D01*
X43534012Y-41419462D01*
X43474481Y-41505981D01*
X43418125Y-41597262D01*
X43370500Y-41687750D01*
X43192300Y-41687750D01*
X43217703Y-41639133D01*
X43260962Y-41564719D01*
X43310969Y-41485145D01*
X43365737Y-41403588D01*
X43424475Y-41321633D01*
X43486387Y-41240869D01*
X43549887Y-41164867D01*
X43613387Y-41097200D01*
X43788012Y-41097200D01*
X43788012Y-41687750D01*
X43894375Y-41687750D01*
G37*
G36*
X41178956Y-41090850D02*
G01*
X41251187Y-41105137D01*
X41314687Y-41129347D01*
X41368662Y-41163875D01*
X41444068Y-41264681D01*
X41463714Y-41331158D01*
X41470262Y-41408350D01*
X41461531Y-41490106D01*
X41435337Y-41563925D01*
X41388903Y-41625441D01*
X41319450Y-41670288D01*
X41376600Y-41761569D01*
X41435337Y-41866344D01*
X41490106Y-41975881D01*
X41535350Y-42079863D01*
X41330562Y-42079863D01*
X41291073Y-41986398D01*
X41245631Y-41896506D01*
X41195426Y-41807805D01*
X41141650Y-41717913D01*
X41040050Y-41717913D01*
X41040050Y-42079863D01*
X40844787Y-42079863D01*
X40844787Y-41555987D01*
X41040050Y-41555987D01*
X41082912Y-41555987D01*
X41169034Y-41546264D01*
X41227375Y-41517094D01*
X41271825Y-41406762D01*
X41259918Y-41339294D01*
X41224200Y-41292462D01*
X41169034Y-41265078D01*
X41098787Y-41255950D01*
X41071800Y-41256744D01*
X41040050Y-41260712D01*
X41040050Y-41555987D01*
X40844787Y-41555987D01*
X40844787Y-41111487D01*
X40907493Y-41099581D01*
X40976550Y-41091644D01*
X41043225Y-41087675D01*
X41098787Y-41086087D01*
X41178956Y-41090850D01*
G37*
G36*
X37997408Y-41093231D02*
G01*
X38081743Y-41114662D01*
X38155761Y-41151373D01*
X38217475Y-41204356D01*
X38266886Y-41273809D01*
X38303993Y-41359931D01*
X38327211Y-41464111D01*
X38334950Y-41587737D01*
X38326417Y-41714142D01*
X38300818Y-41820306D01*
X38260139Y-41907420D01*
X38206362Y-41976675D01*
X38140283Y-42028864D01*
X38062693Y-42064781D01*
X37975183Y-42085617D01*
X37879337Y-42092563D01*
X37776943Y-42087006D01*
X37669787Y-42068750D01*
X37669787Y-41921113D01*
X37865050Y-41921113D01*
X37882512Y-41922700D01*
X37899975Y-41922700D01*
X38011893Y-41897300D01*
X38084918Y-41827450D01*
X38124606Y-41721881D01*
X38133536Y-41657786D01*
X38136512Y-41587737D01*
X38126987Y-41463912D01*
X38093650Y-41357550D01*
X38028562Y-41283731D01*
X37922200Y-41255950D01*
X37893625Y-41256744D01*
X37865050Y-41260712D01*
X37865050Y-41921113D01*
X37669787Y-41921113D01*
X37669787Y-41109900D01*
X37795200Y-41090850D01*
X37904737Y-41086087D01*
X37997408Y-41093231D01*
G37*
G36*
X46812200Y-41092437D02*
G01*
X46910625Y-41144825D01*
X46978887Y-41232931D01*
X47004287Y-41355962D01*
X46985237Y-41453594D01*
X46934437Y-41544875D01*
X46863000Y-41630600D01*
X46782037Y-41709975D01*
X46734412Y-41755219D01*
X46683612Y-41809194D01*
X46643131Y-41865550D01*
X46626462Y-41917938D01*
X47048737Y-41917938D01*
X47048737Y-42079863D01*
X46407387Y-42079863D01*
X46403419Y-42040175D01*
X46404212Y-42006838D01*
X46411554Y-41930638D01*
X46433581Y-41860788D01*
X46466919Y-41796692D01*
X46508194Y-41737756D01*
X46555025Y-41683384D01*
X46605031Y-41632981D01*
X46655037Y-41585555D01*
X46701869Y-41540112D01*
X46776481Y-41454387D01*
X46805850Y-41370250D01*
X46769337Y-41277381D01*
X46677262Y-41244837D01*
X46580425Y-41267062D01*
X46480412Y-41341675D01*
X46383575Y-41205150D01*
X46452036Y-41147206D01*
X46530419Y-41106725D01*
X46613564Y-41082912D01*
X46696312Y-41074975D01*
X46812200Y-41092437D01*
G37*
G36*
X39739534Y-41120307D02*
G01*
X39817675Y-41163081D01*
X39875001Y-41225258D01*
X39909397Y-41309131D01*
X39920862Y-41414700D01*
X39909309Y-41521327D01*
X39874648Y-41606258D01*
X39816881Y-41669494D01*
X39737947Y-41713150D01*
X39639787Y-41739344D01*
X39522400Y-41748075D01*
X39452550Y-41748075D01*
X39452550Y-42079863D01*
X39257287Y-42079863D01*
X39257287Y-41578212D01*
X39452550Y-41578212D01*
X39531925Y-41578212D01*
X39614078Y-41568886D01*
X39673212Y-41540906D01*
X39708931Y-41490305D01*
X39720837Y-41413112D01*
X39709129Y-41339889D01*
X39674006Y-41291669D01*
X39619436Y-41264880D01*
X39549387Y-41255950D01*
X39500968Y-41256744D01*
X39452550Y-41260712D01*
X39452550Y-41578212D01*
X39257287Y-41578212D01*
X39257287Y-41109900D01*
X39321581Y-41098787D01*
X39393812Y-41091644D01*
X39465250Y-41087675D01*
X39527162Y-41086087D01*
X39642697Y-41094642D01*
X39739534Y-41120307D01*
G37*
G36*
X46054962Y-41917938D02*
G01*
X46250225Y-41917938D01*
X46250225Y-42079863D01*
X45653325Y-42079863D01*
X45653325Y-41917938D01*
X45859700Y-41917938D01*
X45859700Y-41368662D01*
X45758100Y-41425019D01*
X45661262Y-41463912D01*
X45597762Y-41301987D01*
X45680312Y-41265475D01*
X45769212Y-41216262D01*
X45853350Y-41159112D01*
X45921612Y-41097200D01*
X46054962Y-41097200D01*
X46054962Y-41917938D01*
G37*
G36*
X37064950Y-41170027D02*
G01*
X37109400Y-41248806D01*
X37153254Y-41330364D01*
X37195918Y-41411525D01*
X37236400Y-41491297D01*
X37273706Y-41568687D01*
X37306845Y-41640125D01*
X37334825Y-41702038D01*
X37334825Y-41097200D01*
X37511037Y-41097200D01*
X37511037Y-42079863D01*
X37353875Y-42079863D01*
X37308102Y-41970942D01*
X37259683Y-41862199D01*
X37208618Y-41753631D01*
X37154908Y-41645064D01*
X37098552Y-41536320D01*
X37039550Y-41427400D01*
X37039550Y-42079863D01*
X36863337Y-42079863D01*
X36863337Y-41097200D01*
X37020500Y-41097200D01*
X37064950Y-41170027D01*
G37*
%TO.C,kibuzzard-62F4AAD2*%
G36*
X33765331Y-22585362D02*
G01*
X33781405Y-22661364D01*
X33786763Y-22748081D01*
X33771946Y-22875787D01*
X33727496Y-22981620D01*
X33653413Y-23065581D01*
X33579693Y-23113504D01*
X33491884Y-23147734D01*
X33389987Y-23168273D01*
X33274000Y-23175119D01*
X33158509Y-23166784D01*
X33056512Y-23141781D01*
X32968605Y-23101895D01*
X32895381Y-23048912D01*
X32837437Y-22983825D01*
X32795369Y-22907625D01*
X32769770Y-22822098D01*
X32761237Y-22729031D01*
X32769969Y-22634575D01*
X32789812Y-22560756D01*
X32813625Y-22507575D01*
X32832675Y-22475031D01*
X32988250Y-22525831D01*
X32947769Y-22613937D01*
X32931100Y-22732206D01*
X32947769Y-22821900D01*
X33003331Y-22899687D01*
X33107312Y-22955250D01*
X33180337Y-22971323D01*
X33269237Y-22976681D01*
X33372690Y-22970243D01*
X33458679Y-22950928D01*
X33527206Y-22918737D01*
X33594477Y-22842339D01*
X33616900Y-22729031D01*
X33599438Y-22602825D01*
X33564513Y-22522656D01*
X33718500Y-22473444D01*
X33765331Y-22585362D01*
G37*
G36*
X33765331Y-29729113D02*
G01*
X33781405Y-29805114D01*
X33786763Y-29891831D01*
X33771946Y-30019537D01*
X33727496Y-30125370D01*
X33653413Y-30209331D01*
X33579693Y-30257254D01*
X33491884Y-30291484D01*
X33389987Y-30312023D01*
X33274000Y-30318869D01*
X33158509Y-30310534D01*
X33056512Y-30285531D01*
X32968605Y-30245645D01*
X32895381Y-30192663D01*
X32837437Y-30127575D01*
X32795369Y-30051375D01*
X32769770Y-29965848D01*
X32761237Y-29872781D01*
X32769969Y-29778325D01*
X32789812Y-29704506D01*
X32813625Y-29651325D01*
X32832675Y-29618781D01*
X32988250Y-29669581D01*
X32947769Y-29757688D01*
X32931100Y-29875956D01*
X32947769Y-29965650D01*
X33003331Y-30043438D01*
X33107312Y-30099000D01*
X33180337Y-30115073D01*
X33269237Y-30120431D01*
X33372690Y-30113993D01*
X33458679Y-30094678D01*
X33527206Y-30062488D01*
X33594477Y-29986089D01*
X33616900Y-29872781D01*
X33599438Y-29746575D01*
X33564513Y-29666406D01*
X33718500Y-29617194D01*
X33765331Y-29729113D01*
G37*
G36*
X33765331Y-27347863D02*
G01*
X33781405Y-27423864D01*
X33786763Y-27510581D01*
X33771946Y-27638287D01*
X33727496Y-27744120D01*
X33653413Y-27828081D01*
X33579693Y-27876004D01*
X33491884Y-27910234D01*
X33389987Y-27930773D01*
X33274000Y-27937619D01*
X33158509Y-27929284D01*
X33056512Y-27904281D01*
X32968605Y-27864395D01*
X32895381Y-27811413D01*
X32837437Y-27746325D01*
X32795369Y-27670125D01*
X32769770Y-27584598D01*
X32761237Y-27491531D01*
X32769969Y-27397075D01*
X32789812Y-27323256D01*
X32813625Y-27270075D01*
X32832675Y-27237531D01*
X32988250Y-27288331D01*
X32947769Y-27376438D01*
X32931100Y-27494706D01*
X32947769Y-27584400D01*
X33003331Y-27662188D01*
X33107312Y-27717750D01*
X33180337Y-27733823D01*
X33269237Y-27739181D01*
X33372690Y-27732743D01*
X33458679Y-27713428D01*
X33527206Y-27681238D01*
X33594477Y-27604839D01*
X33616900Y-27491531D01*
X33599438Y-27365325D01*
X33564513Y-27285156D01*
X33718500Y-27235944D01*
X33765331Y-27347863D01*
G37*
G36*
X33765331Y-24966612D02*
G01*
X33781405Y-25042614D01*
X33786763Y-25129331D01*
X33771946Y-25257037D01*
X33727496Y-25362870D01*
X33653413Y-25446831D01*
X33579693Y-25494754D01*
X33491884Y-25528984D01*
X33389987Y-25549523D01*
X33274000Y-25556369D01*
X33158509Y-25548034D01*
X33056512Y-25523031D01*
X32968605Y-25483145D01*
X32895381Y-25430162D01*
X32837437Y-25365075D01*
X32795369Y-25288875D01*
X32769770Y-25203348D01*
X32761237Y-25110281D01*
X32769969Y-25015825D01*
X32789812Y-24942006D01*
X32813625Y-24888825D01*
X32832675Y-24856281D01*
X32988250Y-24907081D01*
X32947769Y-24995187D01*
X32931100Y-25113456D01*
X32947769Y-25203150D01*
X33003331Y-25280937D01*
X33107312Y-25336500D01*
X33180337Y-25352573D01*
X33269237Y-25357931D01*
X33372690Y-25351493D01*
X33458679Y-25332178D01*
X33527206Y-25299987D01*
X33594477Y-25223589D01*
X33616900Y-25110281D01*
X33599438Y-24984075D01*
X33564513Y-24903906D01*
X33718500Y-24854694D01*
X33765331Y-24966612D01*
G37*
G36*
X33506966Y-31258470D02*
G01*
X33572450Y-31272163D01*
X33683575Y-31332488D01*
X33726239Y-31380708D01*
X33758981Y-31441231D01*
X33779817Y-31515050D01*
X33786763Y-31603156D01*
X33780413Y-31694834D01*
X33761363Y-31769844D01*
X33699450Y-31882556D01*
X33543875Y-31807944D01*
X33593088Y-31719838D01*
X33616900Y-31620619D01*
X33606780Y-31551761D01*
X33576419Y-31497588D01*
X33518673Y-31462464D01*
X33426400Y-31450756D01*
X32945387Y-31450756D01*
X32945387Y-31779369D01*
X32783462Y-31779369D01*
X32783462Y-31253906D01*
X33437513Y-31253906D01*
X33506966Y-31258470D01*
G37*
G36*
X33506966Y-26495970D02*
G01*
X33572450Y-26509662D01*
X33683575Y-26569987D01*
X33726239Y-26618208D01*
X33758981Y-26678731D01*
X33779817Y-26752550D01*
X33786763Y-26840656D01*
X33780413Y-26932334D01*
X33761363Y-27007344D01*
X33699450Y-27120056D01*
X33543875Y-27045444D01*
X33593088Y-26957337D01*
X33616900Y-26858119D01*
X33606780Y-26789261D01*
X33576419Y-26735087D01*
X33518673Y-26699964D01*
X33426400Y-26688256D01*
X32945387Y-26688256D01*
X32945387Y-27016869D01*
X32783462Y-27016869D01*
X32783462Y-26491406D01*
X33437513Y-26491406D01*
X33506966Y-26495970D01*
G37*
G36*
X33506966Y-24114720D02*
G01*
X33572450Y-24128412D01*
X33683575Y-24188737D01*
X33726239Y-24236958D01*
X33758981Y-24297481D01*
X33779817Y-24371300D01*
X33786763Y-24459406D01*
X33780413Y-24551084D01*
X33761363Y-24626094D01*
X33699450Y-24738806D01*
X33543875Y-24664194D01*
X33593088Y-24576087D01*
X33616900Y-24476869D01*
X33606780Y-24408011D01*
X33576419Y-24353837D01*
X33518673Y-24318714D01*
X33426400Y-24307006D01*
X32945387Y-24307006D01*
X32945387Y-24635619D01*
X32783462Y-24635619D01*
X32783462Y-24110156D01*
X33437513Y-24110156D01*
X33506966Y-24114720D01*
G37*
G36*
X33506966Y-28877220D02*
G01*
X33572450Y-28890913D01*
X33683575Y-28951238D01*
X33726239Y-28999458D01*
X33758981Y-29059981D01*
X33779817Y-29133800D01*
X33786763Y-29221906D01*
X33780413Y-29313584D01*
X33761363Y-29388594D01*
X33699450Y-29501306D01*
X33543875Y-29426694D01*
X33593088Y-29338588D01*
X33616900Y-29239369D01*
X33606780Y-29170511D01*
X33576419Y-29116338D01*
X33518673Y-29081214D01*
X33426400Y-29069506D01*
X32945387Y-29069506D01*
X32945387Y-29398119D01*
X32783462Y-29398119D01*
X32783462Y-28872656D01*
X33437513Y-28872656D01*
X33506966Y-28877220D01*
G37*
G36*
X33766125Y-31042769D02*
G01*
X32783462Y-31042769D01*
X32783462Y-30845919D01*
X33604200Y-30845919D01*
X33604200Y-30425231D01*
X33766125Y-30425231D01*
X33766125Y-31042769D01*
G37*
G36*
X33766125Y-28661519D02*
G01*
X32783462Y-28661519D01*
X32783462Y-28464669D01*
X33604200Y-28464669D01*
X33604200Y-28043981D01*
X33766125Y-28043981D01*
X33766125Y-28661519D01*
G37*
G36*
X33766125Y-26280269D02*
G01*
X32783462Y-26280269D01*
X32783462Y-26083419D01*
X33604200Y-26083419D01*
X33604200Y-25662731D01*
X33766125Y-25662731D01*
X33766125Y-26280269D01*
G37*
G36*
X33766125Y-23899019D02*
G01*
X32783462Y-23899019D01*
X32783462Y-23702169D01*
X33604200Y-23702169D01*
X33604200Y-23281481D01*
X33766125Y-23281481D01*
X33766125Y-23899019D01*
G37*
D11*
%TO.C,U2*%
X28046999Y-36748581D02*
G75*
G03*
X28447000Y-37148581I400001J1D01*
G01*
X46047019Y-17228581D02*
G75*
G03*
X45647000Y-16828581I-400019J-19D01*
G01*
X31312788Y-16828577D02*
G75*
G03*
X32019893Y-16535688I12J999977D01*
G01*
X42054104Y-16535690D02*
G75*
G03*
X42761211Y-16828581I707096J707090D01*
G01*
X28447000Y-16828580D02*
G75*
G03*
X28047000Y-17228581I0J-400000D01*
G01*
X33121213Y-15848597D02*
G75*
G03*
X32414107Y-16141475I-13J-1000003D01*
G01*
X45647000Y-37148600D02*
G75*
G03*
X46047000Y-36748581I0J400000D01*
G01*
X41659904Y-16141463D02*
G75*
G03*
X40952787Y-15848581I-707104J-707137D01*
G01*
X32019894Y-16535688D02*
X32414107Y-16141475D01*
X46047000Y-17228581D02*
X46047000Y-36748581D01*
X41659893Y-16141475D02*
X42054106Y-16535688D01*
X28447000Y-37148581D02*
X45647000Y-37148581D01*
X28047000Y-36748581D02*
X28047000Y-17228581D01*
X42761212Y-16828581D02*
X45647000Y-16828581D01*
X33121213Y-15848581D02*
X40952787Y-15848581D01*
X28447000Y-16828581D02*
X31312788Y-16828581D01*
D12*
%TO.C,5VIN1*%
X21431000Y-35062000D02*
G75*
G03*
X21431000Y-35062000I-1680000J0D01*
G01*
X20435000Y-38606999D02*
G75*
G03*
X19067958Y-38606573I-684000J-1535001D01*
G01*
X19067000Y-41677000D02*
G75*
G03*
X20434042Y-41677427I684001J1534993D01*
G01*
X18216000Y-39458000D02*
G75*
G03*
X18215573Y-40825042I1534993J-684001D01*
G01*
X21431000Y-40142000D02*
G75*
G03*
X21285756Y-39458682I-1680000J0D01*
G01*
X21286000Y-40826000D02*
G75*
G03*
X21431253Y-40113195I-1535001J683999D01*
G01*
X14490000Y-42742000D02*
X14490000Y-32462000D01*
X14490000Y-42742000D02*
X24411000Y-42742000D01*
X20774000Y-36289000D02*
X20820000Y-36336000D01*
X23911000Y-42982000D02*
X24651000Y-42982000D01*
X23851000Y-42742000D02*
X23851000Y-32462000D01*
X18682000Y-33787000D02*
X18728000Y-33834000D01*
X20990000Y-36096000D02*
X21025000Y-36131000D01*
X24651000Y-42982000D02*
X24651000Y-42482000D01*
X17450000Y-42742000D02*
X17450000Y-32462000D01*
X24411000Y-42742000D02*
X24411000Y-32462000D01*
X14490000Y-32462000D02*
X24411000Y-32462000D01*
X22351000Y-42742000D02*
X22351000Y-32462000D01*
X18476000Y-33992000D02*
X18512000Y-34027000D01*
%TO.C,kibuzzard-62F42BB7*%
G36*
X61598055Y-56440926D02*
G01*
X61553605Y-56667938D01*
X61350405Y-56667938D01*
X61378409Y-56553797D01*
X61406539Y-56443783D01*
X61434797Y-56337897D01*
X61451225Y-56279001D01*
X61634568Y-56279001D01*
X61826655Y-56279001D01*
X61807605Y-56177401D01*
X61786174Y-56079769D01*
X61760774Y-55981344D01*
X61731405Y-55875776D01*
X61702036Y-55981344D01*
X61676636Y-56079769D01*
X61654411Y-56177401D01*
X61634568Y-56279001D01*
X61451225Y-56279001D01*
X61463181Y-56236138D01*
X61491693Y-56138507D01*
X61527114Y-56020585D01*
X61561940Y-55905740D01*
X61596170Y-55793970D01*
X61629805Y-55685276D01*
X61842530Y-55685276D01*
X61877406Y-55794863D01*
X61912182Y-55907724D01*
X61946859Y-56023860D01*
X61981436Y-56143269D01*
X62008900Y-56241726D01*
X62036046Y-56343421D01*
X62062875Y-56448355D01*
X62089386Y-56556527D01*
X62115580Y-56667938D01*
X61906030Y-56667938D01*
X61859993Y-56440926D01*
X61598055Y-56440926D01*
G37*
G36*
X66081804Y-57947909D02*
G01*
X66110641Y-57861153D01*
X66151013Y-57789745D01*
X66220526Y-57718929D01*
X66306027Y-57676439D01*
X66407516Y-57662276D01*
X66512132Y-57676439D01*
X66598676Y-57718929D01*
X66667146Y-57789745D01*
X66706149Y-57861153D01*
X66734009Y-57947909D01*
X66750724Y-58050011D01*
X66756296Y-58167461D01*
X66750627Y-58284910D01*
X66733618Y-58387013D01*
X66705270Y-58473768D01*
X66665582Y-58545176D01*
X66596764Y-58615993D01*
X66511263Y-58658482D01*
X66409080Y-58672646D01*
X66304376Y-58658482D01*
X66217572Y-58615993D01*
X66148667Y-58545176D01*
X66109322Y-58473768D01*
X66081218Y-58387013D01*
X66064355Y-58284910D01*
X66058735Y-58167461D01*
X66254240Y-58167461D01*
X66255608Y-58235692D01*
X66259714Y-58299622D01*
X66281610Y-58406759D01*
X66327749Y-58478705D01*
X66407516Y-58505293D01*
X66486499Y-58478705D01*
X66533421Y-58405977D01*
X66555317Y-58298840D01*
X66560791Y-58167461D01*
X66559423Y-58099230D01*
X66555317Y-58035299D01*
X66533421Y-57928163D01*
X66487282Y-57856217D01*
X66407516Y-57829628D01*
X66327749Y-57856217D01*
X66281610Y-57928945D01*
X66259714Y-58036082D01*
X66254240Y-58167461D01*
X66058735Y-58167461D01*
X66064502Y-58050011D01*
X66081804Y-57947909D01*
G37*
G36*
X64232719Y-57670878D02*
G01*
X64310139Y-57690429D01*
X64364098Y-57713889D01*
X64396161Y-57732658D01*
X64346112Y-57885934D01*
X64261653Y-57846833D01*
X64158427Y-57829628D01*
X64042688Y-57854653D01*
X63965268Y-57924253D01*
X63921475Y-58030607D01*
X63911504Y-58095711D01*
X63908181Y-58167461D01*
X63914263Y-58273033D01*
X63932510Y-58358274D01*
X63962922Y-58423181D01*
X64030567Y-58484765D01*
X64124018Y-58505293D01*
X64161555Y-58503729D01*
X64199092Y-58499037D01*
X64199092Y-58145564D01*
X64391469Y-58145564D01*
X64391469Y-58628852D01*
X64284332Y-58657005D01*
X64203979Y-58668735D01*
X64108378Y-58672646D01*
X64022160Y-58664630D01*
X63944935Y-58640583D01*
X63877486Y-58600700D01*
X63820594Y-58545176D01*
X63774846Y-58474013D01*
X63740828Y-58387208D01*
X63719714Y-58284959D01*
X63712676Y-58167461D01*
X63720887Y-58051135D01*
X63745520Y-57949277D01*
X63784230Y-57862278D01*
X63834671Y-57790527D01*
X63896059Y-57734417D01*
X63967614Y-57694339D01*
X64046989Y-57670292D01*
X64131838Y-57662276D01*
X64232719Y-57670878D01*
G37*
G36*
X63677680Y-56275826D02*
G01*
X63677680Y-56436163D01*
X63571318Y-56436163D01*
X63571318Y-56667938D01*
X63376055Y-56667938D01*
X63376055Y-56436163D01*
X62966480Y-56436163D01*
X62966480Y-56293288D01*
X62975604Y-56275826D01*
X63153805Y-56275826D01*
X63376055Y-56275826D01*
X63376055Y-55929751D01*
X63317318Y-56007538D01*
X63257786Y-56094057D01*
X63201430Y-56185338D01*
X63153805Y-56275826D01*
X62975604Y-56275826D01*
X63001008Y-56227208D01*
X63044268Y-56152794D01*
X63094274Y-56073221D01*
X63149043Y-55991663D01*
X63207780Y-55909708D01*
X63269693Y-55828944D01*
X63333193Y-55752943D01*
X63396693Y-55685276D01*
X63571318Y-55685276D01*
X63571318Y-56275826D01*
X63677680Y-56275826D01*
G37*
G36*
X66001133Y-59942542D02*
G01*
X66029550Y-59857050D01*
X66069334Y-59786682D01*
X66137834Y-59716897D01*
X66222090Y-59675026D01*
X66322101Y-59661069D01*
X66425194Y-59675026D01*
X66510477Y-59716897D01*
X66577950Y-59786682D01*
X66616385Y-59857050D01*
X66643839Y-59942542D01*
X66660311Y-60043158D01*
X66665802Y-60158897D01*
X66660215Y-60274636D01*
X66643454Y-60375251D01*
X66615519Y-60460743D01*
X66576409Y-60531112D01*
X66508593Y-60600897D01*
X66424338Y-60642767D01*
X66323642Y-60656724D01*
X66220463Y-60642767D01*
X66134923Y-60600897D01*
X66067022Y-60531112D01*
X66028249Y-60460743D01*
X66000555Y-60375251D01*
X65983938Y-60274636D01*
X65978399Y-60158897D01*
X66171057Y-60158897D01*
X66176451Y-60289133D01*
X66198029Y-60394710D01*
X66243496Y-60465608D01*
X66322101Y-60491809D01*
X66399934Y-60465608D01*
X66446172Y-60393939D01*
X66467750Y-60288363D01*
X66473144Y-60158897D01*
X66467750Y-60028660D01*
X66446172Y-59923084D01*
X66400705Y-59852186D01*
X66322101Y-59825984D01*
X66243496Y-59852186D01*
X66198029Y-59923854D01*
X66176451Y-60029431D01*
X66171057Y-60158897D01*
X65978399Y-60158897D01*
X65984083Y-60043158D01*
X66001133Y-59942542D01*
G37*
G36*
X64178976Y-59669546D02*
G01*
X64255268Y-59688812D01*
X64308442Y-59711931D01*
X64340038Y-59730426D01*
X64290717Y-59881470D01*
X64207489Y-59842938D01*
X64105766Y-59825984D01*
X63991712Y-59850644D01*
X63915420Y-59919231D01*
X63872265Y-60024036D01*
X63862439Y-60088191D01*
X63859164Y-60158897D01*
X63865158Y-60262932D01*
X63883139Y-60346931D01*
X63913108Y-60410893D01*
X63979768Y-60471580D01*
X64071858Y-60491809D01*
X64108848Y-60490268D01*
X64145839Y-60485644D01*
X64145839Y-60137319D01*
X64335414Y-60137319D01*
X64335414Y-60613569D01*
X64229837Y-60641312D01*
X64150655Y-60652871D01*
X64056445Y-60656724D01*
X63971483Y-60648825D01*
X63895383Y-60625129D01*
X63828917Y-60585826D01*
X63772853Y-60531112D01*
X63727771Y-60460984D01*
X63694249Y-60375444D01*
X63673442Y-60274684D01*
X63666506Y-60158897D01*
X63674598Y-60044265D01*
X63698873Y-59943891D01*
X63737019Y-59858158D01*
X63786725Y-59787453D01*
X63847219Y-59732160D01*
X63917732Y-59692665D01*
X63995951Y-59668968D01*
X64079564Y-59661069D01*
X64178976Y-59669546D01*
G37*
G36*
X61537097Y-57778015D02*
G01*
X61535533Y-57874985D01*
X61533969Y-57973324D01*
X61532405Y-58071272D01*
X61530841Y-58167852D01*
X61529277Y-58262085D01*
X61528104Y-58352213D01*
X61527713Y-58436476D01*
X61559775Y-58326993D01*
X61594184Y-58209690D01*
X61624683Y-58103335D01*
X61646580Y-58026697D01*
X61787343Y-58026697D01*
X61806112Y-58100207D01*
X61833482Y-58197178D01*
X61866327Y-58311352D01*
X61901518Y-58436476D01*
X61901127Y-58352213D01*
X61899954Y-58262085D01*
X61898390Y-58168047D01*
X61896826Y-58072054D01*
X61895262Y-57974497D01*
X61893698Y-57875767D01*
X61892525Y-57778211D01*
X61892134Y-57684173D01*
X62070434Y-57684173D01*
X62065742Y-57804799D01*
X62061050Y-57928945D01*
X62055967Y-58054459D01*
X62050102Y-58179191D01*
X62043259Y-58302555D01*
X62035243Y-58423963D01*
X62026055Y-58541266D01*
X62015693Y-58652313D01*
X61856161Y-58652313D01*
X61821752Y-58550064D01*
X61787343Y-58440386D01*
X61752934Y-58329534D01*
X61718525Y-58223766D01*
X61683334Y-58326602D01*
X61646580Y-58438040D01*
X61610607Y-58549477D01*
X61577762Y-58652313D01*
X61418230Y-58652313D01*
X61406499Y-58541071D01*
X61396333Y-58423181D01*
X61387536Y-58301186D01*
X61379911Y-58177627D01*
X61373459Y-58052895D01*
X61368181Y-57927381D01*
X61363879Y-57803626D01*
X61360360Y-57684173D01*
X61538661Y-57684173D01*
X61537097Y-57778015D01*
G37*
G36*
X62385588Y-57768631D02*
G01*
X62420779Y-57879678D01*
X62458316Y-58000109D01*
X62494289Y-58112719D01*
X62533390Y-57993070D01*
X62572491Y-57874203D01*
X62606900Y-57767067D01*
X62635052Y-57684173D01*
X62794584Y-57684173D01*
X62805337Y-57809296D01*
X62815699Y-57931291D01*
X62825083Y-58051135D01*
X62832903Y-58169807D01*
X62839355Y-58288283D01*
X62844634Y-58407541D01*
X62848935Y-58528558D01*
X62852454Y-58652313D01*
X62675717Y-58652313D01*
X62685102Y-57900010D01*
X62566235Y-58309788D01*
X62425471Y-58309788D01*
X62311296Y-57900010D01*
X62319116Y-58652313D01*
X62142380Y-58652313D01*
X62147268Y-58531100D01*
X62152546Y-58405195D01*
X62158216Y-58277335D01*
X62164277Y-58150256D01*
X62171119Y-58025524D01*
X62179135Y-57904702D01*
X62188324Y-57790136D01*
X62198685Y-57684173D01*
X62358217Y-57684173D01*
X62385588Y-57768631D01*
G37*
G36*
X67224922Y-57667359D02*
G01*
X67290416Y-57682609D01*
X67389732Y-57739696D01*
X67447602Y-57826500D01*
X67466370Y-57934419D01*
X67433525Y-58045466D01*
X67345939Y-58126796D01*
X67412606Y-58165506D01*
X67462460Y-58219074D01*
X67493545Y-58285937D01*
X67503907Y-58364530D01*
X67482011Y-58488089D01*
X67414757Y-58585841D01*
X67363144Y-58622596D01*
X67299018Y-58649967D01*
X67221989Y-58666976D01*
X67131666Y-58672646D01*
X67055810Y-58667171D01*
X66979172Y-58653877D01*
X66911136Y-58636673D01*
X66862651Y-58619468D01*
X66900188Y-58458372D01*
X66993248Y-58491217D01*
X67056005Y-58504120D01*
X67130102Y-58508421D01*
X67213973Y-58497864D01*
X67268519Y-58466192D01*
X67308402Y-58361402D01*
X67293153Y-58296299D01*
X67247405Y-58254265D01*
X67178196Y-58231391D01*
X67092565Y-58223766D01*
X67033131Y-58223766D01*
X67033131Y-58064234D01*
X67105077Y-58064234D01*
X67164511Y-58057978D01*
X67217688Y-58037646D01*
X67256007Y-58000109D01*
X67270865Y-57940675D01*
X67238802Y-57856999D01*
X67150434Y-57826500D01*
X67041733Y-57844487D01*
X66948673Y-57889062D01*
X66879855Y-57748298D01*
X66991684Y-57691211D01*
X67065781Y-57669510D01*
X67148870Y-57662276D01*
X67224922Y-57667359D01*
G37*
G36*
X62358745Y-59765875D02*
G01*
X62393424Y-59875305D01*
X62430414Y-59993982D01*
X62465863Y-60104953D01*
X62504394Y-59987046D01*
X62542926Y-59869910D01*
X62576834Y-59764334D01*
X62604576Y-59682647D01*
X62761785Y-59682647D01*
X62772381Y-59805948D01*
X62782592Y-59926166D01*
X62791840Y-60044265D01*
X62799546Y-60161209D01*
X62805904Y-60277959D01*
X62811106Y-60395481D01*
X62815344Y-60514736D01*
X62818812Y-60636688D01*
X62644649Y-60636688D01*
X62653897Y-59895341D01*
X62536761Y-60299152D01*
X62398047Y-60299152D01*
X62285535Y-59895341D01*
X62293242Y-60636688D01*
X62119079Y-60636688D01*
X62123895Y-60517240D01*
X62129097Y-60393169D01*
X62134684Y-60267170D01*
X62140657Y-60141943D01*
X62147400Y-60019027D01*
X62155299Y-59899965D01*
X62164353Y-59787067D01*
X62174564Y-59682647D01*
X62331773Y-59682647D01*
X62358745Y-59765875D01*
G37*
G36*
X61101946Y-57706938D02*
G01*
X61178932Y-57749080D01*
X61235411Y-57810338D01*
X61269298Y-57892972D01*
X61280594Y-57996981D01*
X61269212Y-58102032D01*
X61235063Y-58185708D01*
X61178150Y-58248009D01*
X61100382Y-58291020D01*
X61003672Y-58316827D01*
X60888020Y-58325429D01*
X60819203Y-58325429D01*
X60819203Y-58652313D01*
X60626826Y-58652313D01*
X60626826Y-58158077D01*
X60819203Y-58158077D01*
X60897405Y-58158077D01*
X60978344Y-58148888D01*
X61036604Y-58121322D01*
X61071795Y-58071468D01*
X61083525Y-57995416D01*
X61071991Y-57923275D01*
X61037386Y-57875767D01*
X60983622Y-57849374D01*
X60914609Y-57840577D01*
X60866906Y-57841359D01*
X60819203Y-57845269D01*
X60819203Y-58158077D01*
X60626826Y-58158077D01*
X60626826Y-57696685D01*
X60690169Y-57685737D01*
X60761333Y-57678699D01*
X60831715Y-57674788D01*
X60892713Y-57673224D01*
X61006540Y-57681653D01*
X61101946Y-57706938D01*
G37*
G36*
X65012045Y-57706938D02*
G01*
X65089030Y-57749080D01*
X65145509Y-57810338D01*
X65179397Y-57892972D01*
X65190693Y-57996981D01*
X65179310Y-58102032D01*
X65145162Y-58185708D01*
X65088248Y-58248009D01*
X65010481Y-58291020D01*
X64913771Y-58316827D01*
X64798119Y-58325429D01*
X64729301Y-58325429D01*
X64729301Y-58652313D01*
X64536924Y-58652313D01*
X64536924Y-58158077D01*
X64729301Y-58158077D01*
X64807503Y-58158077D01*
X64888442Y-58148888D01*
X64946703Y-58121322D01*
X64981894Y-58071468D01*
X64993624Y-57995416D01*
X64982089Y-57923275D01*
X64947485Y-57875767D01*
X64893721Y-57849374D01*
X64824708Y-57840577D01*
X64777004Y-57841359D01*
X64729301Y-57845269D01*
X64729301Y-58158077D01*
X64536924Y-58158077D01*
X64536924Y-57696685D01*
X64600268Y-57685737D01*
X64671432Y-57678699D01*
X64741814Y-57674788D01*
X64802811Y-57673224D01*
X64916638Y-57681653D01*
X65012045Y-57706938D01*
G37*
G36*
X62404505Y-55758102D02*
G01*
X62448955Y-55836882D01*
X62492810Y-55918440D01*
X62535474Y-55999601D01*
X62575955Y-56079372D01*
X62613261Y-56156763D01*
X62646401Y-56228201D01*
X62674380Y-56290113D01*
X62674380Y-55685276D01*
X62850593Y-55685276D01*
X62850593Y-56667938D01*
X62693430Y-56667938D01*
X62647657Y-56559018D01*
X62599239Y-56450274D01*
X62548174Y-56341707D01*
X62494464Y-56233139D01*
X62438107Y-56124396D01*
X62379105Y-56015476D01*
X62379105Y-56667938D01*
X62202893Y-56667938D01*
X62202893Y-55685276D01*
X62360055Y-55685276D01*
X62404505Y-55758102D01*
G37*
G36*
X60950032Y-59676482D02*
G01*
X61020159Y-59690353D01*
X61134212Y-59747380D01*
X61207422Y-59845250D01*
X61226495Y-59909790D01*
X61232853Y-59984734D01*
X61224376Y-60064109D01*
X61198945Y-60135778D01*
X61153863Y-60195502D01*
X61086433Y-60239042D01*
X61141919Y-60327665D01*
X61198945Y-60429388D01*
X61252119Y-60535735D01*
X61296045Y-60636688D01*
X61097222Y-60636688D01*
X61058883Y-60545946D01*
X61014765Y-60458672D01*
X60966022Y-60372554D01*
X60913812Y-60285280D01*
X60815171Y-60285280D01*
X60815171Y-60636688D01*
X60625596Y-60636688D01*
X60625596Y-60128072D01*
X60815171Y-60128072D01*
X60856785Y-60128072D01*
X60940399Y-60118631D01*
X60997040Y-60090311D01*
X61040195Y-59983193D01*
X61028636Y-59917689D01*
X60993958Y-59872222D01*
X60940399Y-59845635D01*
X60872198Y-59836773D01*
X60845996Y-59837544D01*
X60815171Y-59841397D01*
X60815171Y-60128072D01*
X60625596Y-60128072D01*
X60625596Y-59696518D01*
X60686476Y-59684959D01*
X60753521Y-59677252D01*
X60818254Y-59673399D01*
X60872198Y-59671858D01*
X60950032Y-59676482D01*
G37*
G36*
X67189831Y-59678023D02*
G01*
X67285390Y-59728885D01*
X67351664Y-59814425D01*
X67376324Y-59933873D01*
X67357829Y-60028660D01*
X67308508Y-60117283D01*
X67239152Y-60200511D01*
X67160547Y-60277574D01*
X67114309Y-60321500D01*
X67064989Y-60373903D01*
X67025687Y-60428618D01*
X67009504Y-60479479D01*
X67419479Y-60479479D01*
X67419479Y-60636688D01*
X66796809Y-60636688D01*
X66792956Y-60598156D01*
X66793727Y-60565790D01*
X66800855Y-60491809D01*
X66822240Y-60423994D01*
X66854607Y-60361765D01*
X66894680Y-60304546D01*
X66940147Y-60251758D01*
X66988697Y-60202823D01*
X67082714Y-60112659D01*
X67155153Y-60029431D01*
X67183666Y-59947744D01*
X67148217Y-59857580D01*
X67058824Y-59825984D01*
X66964807Y-59847562D01*
X66867708Y-59920001D01*
X66773691Y-59787453D01*
X66840157Y-59731197D01*
X66916257Y-59691894D01*
X66996981Y-59668775D01*
X67077319Y-59661069D01*
X67189831Y-59678023D01*
G37*
G36*
X67713860Y-60262932D02*
G01*
X67618302Y-60197428D01*
X67564358Y-60101099D01*
X67547404Y-59983193D01*
X67547928Y-59980110D01*
X67732356Y-59980110D01*
X67766263Y-60091081D01*
X67880317Y-60129613D01*
X67941967Y-60123448D01*
X67994370Y-60106494D01*
X67996682Y-60076439D01*
X67997453Y-60041761D01*
X67990517Y-59963927D01*
X67967398Y-59892258D01*
X67924243Y-59839856D01*
X67857198Y-59819819D01*
X67799400Y-59832920D01*
X67760869Y-59867598D01*
X67739291Y-59918460D01*
X67732356Y-59980110D01*
X67547928Y-59980110D01*
X67566670Y-59869910D01*
X67623697Y-59765104D01*
X67718484Y-59688041D01*
X67780520Y-59665500D01*
X67852574Y-59657987D01*
X67951044Y-59669974D01*
X68032730Y-59705937D01*
X68097635Y-59765875D01*
X68144729Y-59847219D01*
X68172985Y-59947401D01*
X68182404Y-60066421D01*
X68172386Y-60197236D01*
X68142331Y-60312252D01*
X68093589Y-60410700D01*
X68027507Y-60491809D01*
X67945050Y-60555579D01*
X67847180Y-60602010D01*
X67735631Y-60630330D01*
X67612137Y-60639771D01*
X67605972Y-60476397D01*
X67722723Y-60462333D01*
X67826373Y-60423223D01*
X67909215Y-60356756D01*
X67963545Y-60260620D01*
X67855657Y-60286822D01*
X67778593Y-60280849D01*
X67713860Y-60262932D01*
G37*
G36*
X61864428Y-59705081D02*
G01*
X61940292Y-59746609D01*
X61995949Y-59806975D01*
X62029343Y-59888405D01*
X62040475Y-59990899D01*
X62029258Y-60094421D01*
X61995607Y-60176878D01*
X61939522Y-60238272D01*
X61862887Y-60280656D01*
X61767585Y-60306087D01*
X61653618Y-60314564D01*
X61585802Y-60314564D01*
X61585802Y-60636688D01*
X61396227Y-60636688D01*
X61396227Y-60149649D01*
X61585802Y-60149649D01*
X61662865Y-60149649D01*
X61742626Y-60140594D01*
X61800038Y-60113430D01*
X61834716Y-60064302D01*
X61846275Y-59989358D01*
X61834909Y-59918267D01*
X61800808Y-59871451D01*
X61747827Y-59845443D01*
X61679819Y-59836773D01*
X61632811Y-59837544D01*
X61585802Y-59841397D01*
X61585802Y-60149649D01*
X61396227Y-60149649D01*
X61396227Y-59694977D01*
X61458648Y-59684188D01*
X61528775Y-59677252D01*
X61598132Y-59673399D01*
X61658242Y-59671858D01*
X61770411Y-59680164D01*
X61864428Y-59705081D01*
G37*
G36*
X64946952Y-59705081D02*
G01*
X65022817Y-59746609D01*
X65078473Y-59806975D01*
X65111867Y-59888405D01*
X65122999Y-59990899D01*
X65111782Y-60094421D01*
X65078131Y-60176878D01*
X65022046Y-60238272D01*
X64945411Y-60280656D01*
X64850110Y-60306087D01*
X64736142Y-60314564D01*
X64668326Y-60314564D01*
X64668326Y-60636688D01*
X64478751Y-60636688D01*
X64478751Y-60149649D01*
X64668326Y-60149649D01*
X64745390Y-60149649D01*
X64825150Y-60140594D01*
X64882562Y-60113430D01*
X64917240Y-60064302D01*
X64928800Y-59989358D01*
X64917433Y-59918267D01*
X64883333Y-59871451D01*
X64830352Y-59845443D01*
X64762343Y-59836773D01*
X64715335Y-59837544D01*
X64668326Y-59841397D01*
X64668326Y-60149649D01*
X64478751Y-60149649D01*
X64478751Y-59694977D01*
X64541172Y-59684188D01*
X64611300Y-59677252D01*
X64680657Y-59673399D01*
X64740766Y-59671858D01*
X64852935Y-59680164D01*
X64946952Y-59705081D01*
G37*
G36*
X61244043Y-55847201D02*
G01*
X60837643Y-55847201D01*
X60837643Y-56085326D01*
X61193243Y-56085326D01*
X61193243Y-56247251D01*
X60837643Y-56247251D01*
X60837643Y-56667938D01*
X60642380Y-56667938D01*
X60642380Y-55685276D01*
X61244043Y-55685276D01*
X61244043Y-55847201D01*
G37*
G36*
X65933612Y-57843705D02*
G01*
X65724030Y-57843705D01*
X65724030Y-58492781D01*
X65933612Y-58492781D01*
X65933612Y-58652313D01*
X65318944Y-58652313D01*
X65318944Y-58492781D01*
X65530089Y-58492781D01*
X65530089Y-57843705D01*
X65318944Y-57843705D01*
X65318944Y-57684173D01*
X65933612Y-57684173D01*
X65933612Y-57843705D01*
G37*
G36*
X65855098Y-59839856D02*
G01*
X65648569Y-59839856D01*
X65648569Y-60479479D01*
X65855098Y-60479479D01*
X65855098Y-60636688D01*
X65249382Y-60636688D01*
X65249382Y-60479479D01*
X65457453Y-60479479D01*
X65457453Y-59839856D01*
X65249382Y-59839856D01*
X65249382Y-59682647D01*
X65855098Y-59682647D01*
X65855098Y-59839856D01*
G37*
%TO.C,kibuzzard-62F42B98*%
G36*
X61593431Y-43752038D02*
G01*
X61548981Y-43979051D01*
X61345781Y-43979051D01*
X61373785Y-43864909D01*
X61401915Y-43754896D01*
X61430173Y-43649009D01*
X61446601Y-43590113D01*
X61629944Y-43590113D01*
X61822031Y-43590113D01*
X61802981Y-43488513D01*
X61781550Y-43390882D01*
X61756150Y-43292457D01*
X61726781Y-43186888D01*
X61697413Y-43292457D01*
X61672013Y-43390882D01*
X61649788Y-43488513D01*
X61629944Y-43590113D01*
X61446601Y-43590113D01*
X61458557Y-43547251D01*
X61487069Y-43449619D01*
X61522490Y-43331698D01*
X61557316Y-43216852D01*
X61591546Y-43105082D01*
X61625181Y-42996388D01*
X61837906Y-42996388D01*
X61872782Y-43105975D01*
X61907558Y-43218836D01*
X61942235Y-43334972D01*
X61976813Y-43454382D01*
X62004276Y-43552839D01*
X62031423Y-43654534D01*
X62058251Y-43759468D01*
X62084763Y-43867640D01*
X62110956Y-43979051D01*
X61901406Y-43979051D01*
X61855369Y-43752038D01*
X61593431Y-43752038D01*
G37*
G36*
X66077181Y-45259021D02*
G01*
X66106017Y-45172266D01*
X66146389Y-45100858D01*
X66215902Y-45030042D01*
X66301403Y-44987552D01*
X66402892Y-44973389D01*
X66507509Y-44987552D01*
X66594052Y-45030042D01*
X66662522Y-45100858D01*
X66701525Y-45172266D01*
X66729385Y-45259021D01*
X66746101Y-45361124D01*
X66751673Y-45478573D01*
X66746003Y-45596023D01*
X66728994Y-45698125D01*
X66700646Y-45784881D01*
X66660958Y-45856289D01*
X66592140Y-45927105D01*
X66506640Y-45969595D01*
X66404456Y-45983758D01*
X66299752Y-45969595D01*
X66212948Y-45927105D01*
X66144043Y-45856289D01*
X66104698Y-45784881D01*
X66076594Y-45698125D01*
X66059732Y-45596023D01*
X66054111Y-45478573D01*
X66249616Y-45478573D01*
X66250984Y-45546805D01*
X66255090Y-45610735D01*
X66276987Y-45717871D01*
X66323126Y-45789817D01*
X66402892Y-45816406D01*
X66481876Y-45789817D01*
X66528797Y-45717089D01*
X66550693Y-45609953D01*
X66556168Y-45478573D01*
X66554799Y-45410342D01*
X66550693Y-45346412D01*
X66528797Y-45239275D01*
X66482658Y-45167329D01*
X66402892Y-45140741D01*
X66323126Y-45167329D01*
X66276987Y-45240057D01*
X66255090Y-45347194D01*
X66249616Y-45478573D01*
X66054111Y-45478573D01*
X66059878Y-45361124D01*
X66077181Y-45259021D01*
G37*
G36*
X64228095Y-44981991D02*
G01*
X64305515Y-45001541D01*
X64359474Y-45025002D01*
X64391537Y-45043770D01*
X64341488Y-45197046D01*
X64257030Y-45157945D01*
X64153803Y-45140741D01*
X64038064Y-45165765D01*
X63960644Y-45235365D01*
X63916851Y-45341720D01*
X63906880Y-45406823D01*
X63903557Y-45478573D01*
X63909639Y-45584146D01*
X63927886Y-45669386D01*
X63958298Y-45734294D01*
X64025943Y-45795878D01*
X64119394Y-45816406D01*
X64156931Y-45814842D01*
X64194468Y-45810150D01*
X64194468Y-45456677D01*
X64386845Y-45456677D01*
X64386845Y-45939965D01*
X64279708Y-45968118D01*
X64199356Y-45979848D01*
X64103754Y-45983758D01*
X64017536Y-45975742D01*
X63940312Y-45951695D01*
X63872862Y-45911812D01*
X63815971Y-45856289D01*
X63770222Y-45785125D01*
X63736205Y-45698321D01*
X63715090Y-45596072D01*
X63708052Y-45478573D01*
X63716263Y-45362248D01*
X63740897Y-45260390D01*
X63779607Y-45173390D01*
X63830047Y-45101640D01*
X63891435Y-45045530D01*
X63962990Y-45005451D01*
X64042365Y-44981404D01*
X64127214Y-44973389D01*
X64228095Y-44981991D01*
G37*
G36*
X63351786Y-42979322D02*
G01*
X63418263Y-42994801D01*
X63519069Y-43052744D01*
X63577806Y-43140851D01*
X63596856Y-43250388D01*
X63563519Y-43363101D01*
X63474619Y-43445651D01*
X63542286Y-43484941D01*
X63592888Y-43539313D01*
X63624439Y-43607179D01*
X63634956Y-43686951D01*
X63612731Y-43812363D01*
X63544469Y-43911582D01*
X63492081Y-43948888D01*
X63426994Y-43976669D01*
X63348810Y-43993933D01*
X63257131Y-43999688D01*
X63180138Y-43994132D01*
X63102350Y-43980638D01*
X63033294Y-43963176D01*
X62984081Y-43945713D01*
X63022181Y-43782201D01*
X63116638Y-43815538D01*
X63180336Y-43828635D01*
X63255544Y-43833001D01*
X63340674Y-43822285D01*
X63396038Y-43790138D01*
X63436519Y-43683776D01*
X63421041Y-43617696D01*
X63374606Y-43575032D01*
X63304360Y-43551815D01*
X63217444Y-43544076D01*
X63157119Y-43544076D01*
X63157119Y-43382151D01*
X63230144Y-43382151D01*
X63290469Y-43375801D01*
X63344444Y-43355163D01*
X63383338Y-43317063D01*
X63398419Y-43256738D01*
X63365875Y-43171807D01*
X63276181Y-43140851D01*
X63165850Y-43159107D01*
X63071394Y-43204351D01*
X63001544Y-43061476D01*
X63115050Y-43003532D01*
X63190258Y-42981505D01*
X63274594Y-42974163D01*
X63351786Y-42979322D01*
G37*
G36*
X65996509Y-47253655D02*
G01*
X66024926Y-47168163D01*
X66064710Y-47097794D01*
X66133210Y-47028010D01*
X66217466Y-46986139D01*
X66317477Y-46972182D01*
X66420570Y-46986139D01*
X66505853Y-47028010D01*
X66573326Y-47097794D01*
X66611762Y-47168163D01*
X66639215Y-47253655D01*
X66655688Y-47354270D01*
X66661178Y-47470009D01*
X66655591Y-47585748D01*
X66638830Y-47686364D01*
X66610895Y-47771856D01*
X66571785Y-47842224D01*
X66503970Y-47912009D01*
X66419714Y-47953880D01*
X66319018Y-47967837D01*
X66215839Y-47953880D01*
X66130299Y-47912009D01*
X66062398Y-47842224D01*
X66023626Y-47771856D01*
X65995931Y-47686364D01*
X65979314Y-47585748D01*
X65973775Y-47470009D01*
X66166433Y-47470009D01*
X66171828Y-47600246D01*
X66193405Y-47705822D01*
X66238873Y-47776720D01*
X66317477Y-47802922D01*
X66395311Y-47776720D01*
X66441549Y-47705052D01*
X66463126Y-47599475D01*
X66468521Y-47470009D01*
X66463126Y-47339773D01*
X66441549Y-47234196D01*
X66396081Y-47163298D01*
X66317477Y-47137097D01*
X66238873Y-47163298D01*
X66193405Y-47234967D01*
X66171828Y-47340543D01*
X66166433Y-47470009D01*
X65973775Y-47470009D01*
X65979459Y-47354270D01*
X65996509Y-47253655D01*
G37*
G36*
X64174352Y-46980659D02*
G01*
X64250644Y-46999924D01*
X64303818Y-47023043D01*
X64335414Y-47041538D01*
X64286093Y-47192582D01*
X64202865Y-47154051D01*
X64101142Y-47137097D01*
X63987089Y-47161757D01*
X63910796Y-47230343D01*
X63867641Y-47335149D01*
X63857815Y-47399304D01*
X63854540Y-47470009D01*
X63860534Y-47574044D01*
X63878515Y-47658043D01*
X63908484Y-47722006D01*
X63975144Y-47782693D01*
X64067234Y-47802922D01*
X64104225Y-47801381D01*
X64141215Y-47796757D01*
X64141215Y-47448432D01*
X64330790Y-47448432D01*
X64330790Y-47924682D01*
X64225214Y-47952424D01*
X64146031Y-47963984D01*
X64051822Y-47967837D01*
X63966860Y-47959938D01*
X63890760Y-47936241D01*
X63824293Y-47896939D01*
X63768229Y-47842224D01*
X63723147Y-47772097D01*
X63689625Y-47686557D01*
X63668818Y-47585797D01*
X63661882Y-47470009D01*
X63669974Y-47355378D01*
X63694249Y-47255003D01*
X63732395Y-47169271D01*
X63782101Y-47098565D01*
X63842595Y-47043272D01*
X63913108Y-47003777D01*
X63991327Y-46980081D01*
X64074941Y-46972182D01*
X64174352Y-46980659D01*
G37*
G36*
X61532473Y-45089128D02*
G01*
X61530909Y-45186098D01*
X61529345Y-45284437D01*
X61527781Y-45382385D01*
X61526217Y-45478964D01*
X61524653Y-45573198D01*
X61523480Y-45663325D01*
X61523089Y-45747588D01*
X61555152Y-45638105D01*
X61589560Y-45520802D01*
X61620059Y-45414448D01*
X61641956Y-45337810D01*
X61782719Y-45337810D01*
X61801488Y-45411320D01*
X61828858Y-45508290D01*
X61861703Y-45622465D01*
X61896894Y-45747588D01*
X61896503Y-45663325D01*
X61895330Y-45573198D01*
X61893766Y-45479160D01*
X61892202Y-45383167D01*
X61890638Y-45285610D01*
X61889074Y-45186880D01*
X61887901Y-45089323D01*
X61887510Y-44995285D01*
X62065810Y-44995285D01*
X62061118Y-45115912D01*
X62056426Y-45240057D01*
X62051343Y-45365571D01*
X62045478Y-45490304D01*
X62038635Y-45613667D01*
X62030620Y-45735076D01*
X62021431Y-45852379D01*
X62011069Y-45963426D01*
X61851537Y-45963426D01*
X61817128Y-45861176D01*
X61782719Y-45751498D01*
X61748310Y-45640647D01*
X61713902Y-45534879D01*
X61678711Y-45637714D01*
X61641956Y-45749152D01*
X61605983Y-45860590D01*
X61573138Y-45963426D01*
X61413606Y-45963426D01*
X61401876Y-45852183D01*
X61391709Y-45734294D01*
X61382912Y-45612299D01*
X61375287Y-45488740D01*
X61368835Y-45364007D01*
X61363557Y-45238493D01*
X61359256Y-45114739D01*
X61355737Y-44995285D01*
X61534037Y-44995285D01*
X61532473Y-45089128D01*
G37*
G36*
X62380964Y-45079743D02*
G01*
X62416155Y-45190790D01*
X62453692Y-45311221D01*
X62489665Y-45423832D01*
X62528766Y-45304183D01*
X62567867Y-45185316D01*
X62602276Y-45078179D01*
X62630429Y-44995285D01*
X62789961Y-44995285D01*
X62800713Y-45120408D01*
X62811075Y-45242403D01*
X62820459Y-45362248D01*
X62828280Y-45480919D01*
X62834731Y-45599395D01*
X62840010Y-45718653D01*
X62844311Y-45839671D01*
X62847830Y-45963426D01*
X62671094Y-45963426D01*
X62680478Y-45211123D01*
X62561611Y-45620901D01*
X62420847Y-45620901D01*
X62306673Y-45211123D01*
X62314493Y-45963426D01*
X62137756Y-45963426D01*
X62142644Y-45842212D01*
X62147923Y-45716307D01*
X62153592Y-45588447D01*
X62159653Y-45461369D01*
X62166495Y-45336637D01*
X62174511Y-45215815D01*
X62183700Y-45101249D01*
X62194062Y-44995285D01*
X62353594Y-44995285D01*
X62380964Y-45079743D01*
G37*
G36*
X68128460Y-47350561D02*
G01*
X68086846Y-47409322D01*
X68026737Y-47457679D01*
X68101681Y-47510853D01*
X68150808Y-47568650D01*
X68177973Y-47631842D01*
X68187028Y-47701199D01*
X68169303Y-47795216D01*
X68112277Y-47880756D01*
X68009783Y-47943177D01*
X67939270Y-47961672D01*
X67854115Y-47967837D01*
X67784951Y-47963406D01*
X67722337Y-47950112D01*
X67620614Y-47899251D01*
X67555110Y-47817564D01*
X67531992Y-47708905D01*
X67534779Y-47685786D01*
X67709237Y-47685786D01*
X67753163Y-47779032D01*
X67857198Y-47810628D01*
X67967398Y-47777491D01*
X68008242Y-47698116D01*
X67996682Y-47644172D01*
X67959692Y-47601787D01*
X67894188Y-47563256D01*
X67798630Y-47522412D01*
X67732356Y-47601787D01*
X67709237Y-47685786D01*
X67534779Y-47685786D01*
X67540468Y-47638585D01*
X67565899Y-47572503D01*
X67609440Y-47512201D01*
X67672246Y-47459220D01*
X67615220Y-47411441D01*
X67579771Y-47360580D01*
X67555110Y-47249609D01*
X67557182Y-47237279D01*
X67733897Y-47237279D01*
X67769346Y-47325131D01*
X67818281Y-47359809D01*
X67894188Y-47396029D01*
X67962004Y-47318195D01*
X67982040Y-47235737D01*
X67945820Y-47154821D01*
X67858739Y-47127849D01*
X67771658Y-47155592D01*
X67733897Y-47237279D01*
X67557182Y-47237279D01*
X67571294Y-47153280D01*
X67622926Y-47063116D01*
X67716943Y-46996842D01*
X67782447Y-46977191D01*
X67861822Y-46970640D01*
X67984930Y-46987594D01*
X68079910Y-47038456D01*
X68140597Y-47117831D01*
X68160826Y-47220325D01*
X68152735Y-47286021D01*
X68128460Y-47350561D01*
G37*
G36*
X67283446Y-44990593D02*
G01*
X67380416Y-45042206D01*
X67447670Y-45129011D01*
X67472695Y-45250224D01*
X67453926Y-45346412D01*
X67403877Y-45436344D01*
X67333495Y-45520802D01*
X67253729Y-45599004D01*
X67206808Y-45643579D01*
X67156759Y-45696757D01*
X67116876Y-45752280D01*
X67100453Y-45803894D01*
X67516488Y-45803894D01*
X67516488Y-45963426D01*
X66884616Y-45963426D01*
X66880706Y-45924325D01*
X66881488Y-45891480D01*
X66888721Y-45816406D01*
X66910423Y-45747588D01*
X66943267Y-45684440D01*
X66983932Y-45626375D01*
X67030072Y-45572807D01*
X67079339Y-45523148D01*
X67174745Y-45431652D01*
X67248255Y-45347194D01*
X67277190Y-45264300D01*
X67241217Y-45172804D01*
X67150503Y-45140741D01*
X67055096Y-45162637D01*
X66956562Y-45236147D01*
X66861155Y-45101640D01*
X66928604Y-45044552D01*
X67005829Y-45004669D01*
X67087745Y-44981209D01*
X67169271Y-44973389D01*
X67283446Y-44990593D01*
G37*
G36*
X62354121Y-47076987D02*
G01*
X62388800Y-47186417D01*
X62425790Y-47305094D01*
X62461239Y-47416065D01*
X62499771Y-47298159D01*
X62538302Y-47181023D01*
X62572210Y-47075446D01*
X62599953Y-46993759D01*
X62757161Y-46993759D01*
X62767758Y-47117060D01*
X62777968Y-47237279D01*
X62787216Y-47355378D01*
X62794922Y-47472321D01*
X62801280Y-47589072D01*
X62806482Y-47706593D01*
X62810720Y-47825848D01*
X62814188Y-47947801D01*
X62640025Y-47947801D01*
X62649273Y-47206453D01*
X62532137Y-47610264D01*
X62393424Y-47610264D01*
X62280911Y-47206453D01*
X62288618Y-47947801D01*
X62114455Y-47947801D01*
X62119272Y-47828353D01*
X62124473Y-47704281D01*
X62130060Y-47578283D01*
X62136033Y-47453055D01*
X62142776Y-47330140D01*
X62150675Y-47211077D01*
X62159730Y-47098180D01*
X62169941Y-46993759D01*
X62327149Y-46993759D01*
X62354121Y-47076987D01*
G37*
G36*
X61097322Y-45018051D02*
G01*
X61174308Y-45060193D01*
X61230787Y-45121451D01*
X61264675Y-45204084D01*
X61275971Y-45308093D01*
X61264588Y-45413144D01*
X61230440Y-45496820D01*
X61173526Y-45559121D01*
X61095758Y-45602132D01*
X60999049Y-45627939D01*
X60883397Y-45636541D01*
X60814579Y-45636541D01*
X60814579Y-45963426D01*
X60622202Y-45963426D01*
X60622202Y-45469189D01*
X60814579Y-45469189D01*
X60892781Y-45469189D01*
X60973720Y-45460000D01*
X61031980Y-45432434D01*
X61067171Y-45382580D01*
X61078902Y-45306529D01*
X61067367Y-45234388D01*
X61032762Y-45186880D01*
X60978999Y-45160487D01*
X60909985Y-45151689D01*
X60862282Y-45152471D01*
X60814579Y-45156381D01*
X60814579Y-45469189D01*
X60622202Y-45469189D01*
X60622202Y-45007797D01*
X60685546Y-44996849D01*
X60756709Y-44989811D01*
X60827091Y-44985901D01*
X60888089Y-44984337D01*
X61001916Y-44992765D01*
X61097322Y-45018051D01*
G37*
G36*
X65007421Y-45018051D02*
G01*
X65084406Y-45060193D01*
X65140886Y-45121451D01*
X65174773Y-45204084D01*
X65186069Y-45308093D01*
X65174686Y-45413144D01*
X65140538Y-45496820D01*
X65083624Y-45559121D01*
X65005857Y-45602132D01*
X64909147Y-45627939D01*
X64793495Y-45636541D01*
X64724677Y-45636541D01*
X64724677Y-45963426D01*
X64532301Y-45963426D01*
X64532301Y-45469189D01*
X64724677Y-45469189D01*
X64802879Y-45469189D01*
X64883818Y-45460000D01*
X64942079Y-45432434D01*
X64977270Y-45382580D01*
X64989000Y-45306529D01*
X64977465Y-45234388D01*
X64942861Y-45186880D01*
X64889097Y-45160487D01*
X64820084Y-45151689D01*
X64772381Y-45152471D01*
X64724677Y-45156381D01*
X64724677Y-45469189D01*
X64532301Y-45469189D01*
X64532301Y-45007797D01*
X64595644Y-44996849D01*
X64666808Y-44989811D01*
X64737190Y-44985901D01*
X64798187Y-44984337D01*
X64912015Y-44992765D01*
X65007421Y-45018051D01*
G37*
G36*
X62399881Y-43069215D02*
G01*
X62444331Y-43147994D01*
X62488186Y-43229552D01*
X62530850Y-43310713D01*
X62571331Y-43390485D01*
X62608638Y-43467876D01*
X62641777Y-43539313D01*
X62669756Y-43601226D01*
X62669756Y-42996388D01*
X62845969Y-42996388D01*
X62845969Y-43979051D01*
X62688806Y-43979051D01*
X62643034Y-43870130D01*
X62594615Y-43761387D01*
X62543550Y-43652819D01*
X62489840Y-43544252D01*
X62433484Y-43435508D01*
X62374481Y-43326588D01*
X62374481Y-43979051D01*
X62198269Y-43979051D01*
X62198269Y-42996388D01*
X62355431Y-42996388D01*
X62399881Y-43069215D01*
G37*
G36*
X60945408Y-46987594D02*
G01*
X61015535Y-47001466D01*
X61129589Y-47058492D01*
X61202799Y-47156362D01*
X61221872Y-47220903D01*
X61228229Y-47295847D01*
X61219752Y-47375222D01*
X61194322Y-47446890D01*
X61149240Y-47506614D01*
X61081809Y-47550155D01*
X61137295Y-47638777D01*
X61194322Y-47740501D01*
X61247495Y-47846848D01*
X61291421Y-47947801D01*
X61092598Y-47947801D01*
X61054259Y-47857059D01*
X61010141Y-47769785D01*
X60961398Y-47683667D01*
X60909188Y-47596393D01*
X60810547Y-47596393D01*
X60810547Y-47947801D01*
X60620972Y-47947801D01*
X60620972Y-47439184D01*
X60810547Y-47439184D01*
X60852161Y-47439184D01*
X60935775Y-47429744D01*
X60992416Y-47401423D01*
X61035572Y-47294305D01*
X61024012Y-47228802D01*
X60989334Y-47183335D01*
X60935775Y-47156748D01*
X60867574Y-47147885D01*
X60841373Y-47148656D01*
X60810547Y-47152509D01*
X60810547Y-47439184D01*
X60620972Y-47439184D01*
X60620972Y-47007631D01*
X60681852Y-46996071D01*
X60748897Y-46988365D01*
X60813630Y-46984512D01*
X60867574Y-46982970D01*
X60945408Y-46987594D01*
G37*
G36*
X67185208Y-46989135D02*
G01*
X67280766Y-47039997D01*
X67347040Y-47125537D01*
X67371700Y-47244985D01*
X67353205Y-47339773D01*
X67303885Y-47428395D01*
X67234528Y-47511623D01*
X67155924Y-47588686D01*
X67109686Y-47632612D01*
X67060365Y-47685015D01*
X67021063Y-47739730D01*
X67004880Y-47790592D01*
X67414856Y-47790592D01*
X67414856Y-47947801D01*
X66792186Y-47947801D01*
X66788333Y-47909269D01*
X66789103Y-47876902D01*
X66796231Y-47802922D01*
X66817617Y-47735106D01*
X66849983Y-47672878D01*
X66890056Y-47615659D01*
X66935523Y-47562870D01*
X66984073Y-47513935D01*
X67078090Y-47423771D01*
X67150529Y-47340543D01*
X67179042Y-47258856D01*
X67143593Y-47168693D01*
X67054200Y-47137097D01*
X66960183Y-47158674D01*
X66863084Y-47231114D01*
X66769067Y-47098565D01*
X66835534Y-47042309D01*
X66911633Y-47003007D01*
X66992357Y-46979888D01*
X67072695Y-46972182D01*
X67185208Y-46989135D01*
G37*
G36*
X61859804Y-47016193D02*
G01*
X61935669Y-47057722D01*
X61991325Y-47118088D01*
X62024719Y-47199518D01*
X62035851Y-47302012D01*
X62024634Y-47405533D01*
X61990983Y-47487991D01*
X61934898Y-47549384D01*
X61858263Y-47591769D01*
X61762962Y-47617200D01*
X61648994Y-47625677D01*
X61581178Y-47625677D01*
X61581178Y-47947801D01*
X61391603Y-47947801D01*
X61391603Y-47460762D01*
X61581178Y-47460762D01*
X61658242Y-47460762D01*
X61738002Y-47451707D01*
X61795414Y-47424542D01*
X61830092Y-47375414D01*
X61841652Y-47300470D01*
X61830285Y-47229380D01*
X61796184Y-47182564D01*
X61743204Y-47156555D01*
X61675195Y-47147885D01*
X61628187Y-47148656D01*
X61581178Y-47152509D01*
X61581178Y-47460762D01*
X61391603Y-47460762D01*
X61391603Y-47006089D01*
X61454024Y-46995301D01*
X61524152Y-46988365D01*
X61593508Y-46984512D01*
X61653618Y-46982970D01*
X61765787Y-46991276D01*
X61859804Y-47016193D01*
G37*
G36*
X64942329Y-47016193D02*
G01*
X65018193Y-47057722D01*
X65073850Y-47118088D01*
X65107244Y-47199518D01*
X65118375Y-47302012D01*
X65107158Y-47405533D01*
X65073507Y-47487991D01*
X65017422Y-47549384D01*
X64940787Y-47591769D01*
X64845486Y-47617200D01*
X64731518Y-47625677D01*
X64663703Y-47625677D01*
X64663703Y-47947801D01*
X64474127Y-47947801D01*
X64474127Y-47460762D01*
X64663703Y-47460762D01*
X64740766Y-47460762D01*
X64820526Y-47451707D01*
X64877938Y-47424542D01*
X64912617Y-47375414D01*
X64924176Y-47300470D01*
X64912809Y-47229380D01*
X64878709Y-47182564D01*
X64825728Y-47156555D01*
X64757720Y-47147885D01*
X64710711Y-47148656D01*
X64663703Y-47152509D01*
X64663703Y-47460762D01*
X64474127Y-47460762D01*
X64474127Y-47006089D01*
X64536549Y-46995301D01*
X64606676Y-46988365D01*
X64676033Y-46984512D01*
X64736142Y-46982970D01*
X64848312Y-46991276D01*
X64942329Y-47016193D01*
G37*
G36*
X61239419Y-43158313D02*
G01*
X60833019Y-43158313D01*
X60833019Y-43396438D01*
X61188619Y-43396438D01*
X61188619Y-43558363D01*
X60833019Y-43558363D01*
X60833019Y-43979051D01*
X60637756Y-43979051D01*
X60637756Y-42996388D01*
X61239419Y-42996388D01*
X61239419Y-43158313D01*
G37*
G36*
X65928988Y-45154817D02*
G01*
X65719406Y-45154817D01*
X65719406Y-45803894D01*
X65928988Y-45803894D01*
X65928988Y-45963426D01*
X65314320Y-45963426D01*
X65314320Y-45803894D01*
X65525466Y-45803894D01*
X65525466Y-45154817D01*
X65314320Y-45154817D01*
X65314320Y-44995285D01*
X65928988Y-44995285D01*
X65928988Y-45154817D01*
G37*
G36*
X65850475Y-47150968D02*
G01*
X65643945Y-47150968D01*
X65643945Y-47790592D01*
X65850475Y-47790592D01*
X65850475Y-47947801D01*
X65244758Y-47947801D01*
X65244758Y-47790592D01*
X65452829Y-47790592D01*
X65452829Y-47150968D01*
X65244758Y-47150968D01*
X65244758Y-46993759D01*
X65850475Y-46993759D01*
X65850475Y-47150968D01*
G37*
%TO.C,kibuzzard-62F42B83*%
G36*
X61601138Y-31052038D02*
G01*
X61556688Y-31279051D01*
X61353488Y-31279051D01*
X61381491Y-31164909D01*
X61409622Y-31054896D01*
X61437879Y-30949009D01*
X61454308Y-30890113D01*
X61637650Y-30890113D01*
X61829738Y-30890113D01*
X61810688Y-30788513D01*
X61789256Y-30690882D01*
X61763856Y-30592457D01*
X61734488Y-30486888D01*
X61705119Y-30592457D01*
X61679719Y-30690882D01*
X61657494Y-30788513D01*
X61637650Y-30890113D01*
X61454308Y-30890113D01*
X61466264Y-30847251D01*
X61494775Y-30749619D01*
X61530196Y-30631698D01*
X61565022Y-30516852D01*
X61599253Y-30405082D01*
X61632888Y-30296388D01*
X61845613Y-30296388D01*
X61880488Y-30405975D01*
X61915264Y-30518836D01*
X61949941Y-30634972D01*
X61984519Y-30754382D01*
X62011983Y-30852839D01*
X62039129Y-30954534D01*
X62065958Y-31059468D01*
X62092469Y-31167640D01*
X62118663Y-31279051D01*
X61909113Y-31279051D01*
X61863075Y-31052038D01*
X61601138Y-31052038D01*
G37*
G36*
X66084887Y-32559021D02*
G01*
X66113724Y-32472266D01*
X66154096Y-32400858D01*
X66223608Y-32330042D01*
X66309109Y-32287552D01*
X66410598Y-32273389D01*
X66515215Y-32287552D01*
X66601758Y-32330042D01*
X66670229Y-32400858D01*
X66709232Y-32472266D01*
X66737091Y-32559021D01*
X66753807Y-32661124D01*
X66759379Y-32778573D01*
X66753709Y-32896023D01*
X66736700Y-32998125D01*
X66708352Y-33084881D01*
X66668665Y-33156289D01*
X66599847Y-33227105D01*
X66514346Y-33269595D01*
X66412162Y-33283758D01*
X66307458Y-33269595D01*
X66220654Y-33227105D01*
X66151750Y-33156289D01*
X66112404Y-33084881D01*
X66084300Y-32998125D01*
X66067438Y-32896023D01*
X66061817Y-32778573D01*
X66257322Y-32778573D01*
X66258691Y-32846805D01*
X66262796Y-32910735D01*
X66284693Y-33017871D01*
X66330832Y-33089817D01*
X66410598Y-33116406D01*
X66489582Y-33089817D01*
X66536503Y-33017089D01*
X66558400Y-32909953D01*
X66563874Y-32778573D01*
X66562505Y-32710342D01*
X66558400Y-32646412D01*
X66536503Y-32539275D01*
X66490364Y-32467329D01*
X66410598Y-32440741D01*
X66330832Y-32467329D01*
X66284693Y-32540057D01*
X66262796Y-32647194D01*
X66257322Y-32778573D01*
X66061817Y-32778573D01*
X66067585Y-32661124D01*
X66084887Y-32559021D01*
G37*
G36*
X64235801Y-32281991D02*
G01*
X64313221Y-32301541D01*
X64367181Y-32325002D01*
X64399243Y-32343770D01*
X64349194Y-32497046D01*
X64264736Y-32457945D01*
X64161509Y-32440741D01*
X64045770Y-32465765D01*
X63968350Y-32535365D01*
X63924557Y-32641720D01*
X63914587Y-32706823D01*
X63911263Y-32778573D01*
X63917345Y-32884146D01*
X63935593Y-32969386D01*
X63966004Y-33034294D01*
X64033649Y-33095878D01*
X64127100Y-33116406D01*
X64164637Y-33114842D01*
X64202174Y-33110150D01*
X64202174Y-32756677D01*
X64394551Y-32756677D01*
X64394551Y-33239965D01*
X64287415Y-33268118D01*
X64207062Y-33279848D01*
X64111460Y-33283758D01*
X64025242Y-33275742D01*
X63948018Y-33251695D01*
X63880569Y-33211812D01*
X63823677Y-33156289D01*
X63777929Y-33085125D01*
X63743911Y-32998321D01*
X63722796Y-32896072D01*
X63715758Y-32778573D01*
X63723969Y-32662248D01*
X63748603Y-32560390D01*
X63787313Y-32473390D01*
X63837753Y-32401640D01*
X63899142Y-32345530D01*
X63970697Y-32305451D01*
X64050072Y-32281404D01*
X64134921Y-32273389D01*
X64235801Y-32281991D01*
G37*
G36*
X66004215Y-34553655D02*
G01*
X66032632Y-34468163D01*
X66072416Y-34397794D01*
X66140917Y-34328010D01*
X66225172Y-34286139D01*
X66325183Y-34272182D01*
X66428277Y-34286139D01*
X66513560Y-34328010D01*
X66581033Y-34397794D01*
X66619468Y-34468163D01*
X66646922Y-34553655D01*
X66663394Y-34654270D01*
X66668885Y-34770009D01*
X66663298Y-34885748D01*
X66646536Y-34986364D01*
X66618601Y-35071856D01*
X66579492Y-35142224D01*
X66511676Y-35212009D01*
X66427420Y-35253880D01*
X66326725Y-35267837D01*
X66223546Y-35253880D01*
X66138006Y-35212009D01*
X66070104Y-35142224D01*
X66031332Y-35071856D01*
X66003637Y-34986364D01*
X65987021Y-34885748D01*
X65981482Y-34770009D01*
X66174140Y-34770009D01*
X66179534Y-34900246D01*
X66201112Y-35005822D01*
X66246579Y-35076720D01*
X66325183Y-35102922D01*
X66403017Y-35076720D01*
X66449255Y-35005052D01*
X66470833Y-34899475D01*
X66476227Y-34770009D01*
X66470833Y-34639773D01*
X66449255Y-34534196D01*
X66403788Y-34463298D01*
X66325183Y-34437097D01*
X66246579Y-34463298D01*
X66201112Y-34534967D01*
X66179534Y-34640543D01*
X66174140Y-34770009D01*
X65981482Y-34770009D01*
X65987165Y-34654270D01*
X66004215Y-34553655D01*
G37*
G36*
X63423588Y-30291626D02*
G01*
X63522013Y-30344013D01*
X63590275Y-30432119D01*
X63615675Y-30555151D01*
X63596625Y-30652782D01*
X63545825Y-30744063D01*
X63474388Y-30829788D01*
X63393425Y-30909163D01*
X63345800Y-30954407D01*
X63295000Y-31008382D01*
X63254519Y-31064738D01*
X63237850Y-31117126D01*
X63660125Y-31117126D01*
X63660125Y-31279051D01*
X63018775Y-31279051D01*
X63014806Y-31239363D01*
X63015600Y-31206026D01*
X63022942Y-31129826D01*
X63044969Y-31059976D01*
X63078306Y-30995880D01*
X63119581Y-30936944D01*
X63166413Y-30882572D01*
X63216419Y-30832169D01*
X63266425Y-30784743D01*
X63313256Y-30739301D01*
X63387869Y-30653576D01*
X63417238Y-30569438D01*
X63380725Y-30476569D01*
X63288650Y-30444026D01*
X63191813Y-30466251D01*
X63091800Y-30540863D01*
X62994963Y-30404338D01*
X63063424Y-30346394D01*
X63141806Y-30305913D01*
X63224952Y-30282101D01*
X63307700Y-30274163D01*
X63423588Y-30291626D01*
G37*
G36*
X64182058Y-34280659D02*
G01*
X64258351Y-34299924D01*
X64311524Y-34323043D01*
X64343120Y-34341538D01*
X64293800Y-34492582D01*
X64210572Y-34454051D01*
X64108848Y-34437097D01*
X63994795Y-34461757D01*
X63918502Y-34530343D01*
X63875347Y-34635149D01*
X63865522Y-34699304D01*
X63862246Y-34770009D01*
X63868240Y-34874044D01*
X63886222Y-34958043D01*
X63916191Y-35022006D01*
X63982850Y-35082693D01*
X64074941Y-35102922D01*
X64111931Y-35101381D01*
X64148921Y-35096757D01*
X64148921Y-34748432D01*
X64338496Y-34748432D01*
X64338496Y-35224682D01*
X64232920Y-35252424D01*
X64153738Y-35263984D01*
X64059528Y-35267837D01*
X63974566Y-35259938D01*
X63898466Y-35236241D01*
X63831999Y-35196939D01*
X63775936Y-35142224D01*
X63730854Y-35072097D01*
X63697331Y-34986557D01*
X63676524Y-34885797D01*
X63669589Y-34770009D01*
X63677680Y-34655378D01*
X63701955Y-34555003D01*
X63740101Y-34469271D01*
X63789807Y-34398565D01*
X63850302Y-34343272D01*
X63920814Y-34303777D01*
X63999033Y-34280081D01*
X64082647Y-34272182D01*
X64182058Y-34280659D01*
G37*
G36*
X61540179Y-32389128D02*
G01*
X61538615Y-32486098D01*
X61537051Y-32584437D01*
X61535487Y-32682385D01*
X61533923Y-32778964D01*
X61532359Y-32873198D01*
X61531186Y-32963325D01*
X61530795Y-33047588D01*
X61562858Y-32938105D01*
X61597267Y-32820802D01*
X61627766Y-32714448D01*
X61649662Y-32637810D01*
X61790426Y-32637810D01*
X61809194Y-32711320D01*
X61836565Y-32808290D01*
X61869410Y-32922465D01*
X61904600Y-33047588D01*
X61904209Y-32963325D01*
X61903036Y-32873198D01*
X61901472Y-32779160D01*
X61899908Y-32683167D01*
X61898344Y-32585610D01*
X61896780Y-32486880D01*
X61895607Y-32389323D01*
X61895216Y-32295285D01*
X62073517Y-32295285D01*
X62068825Y-32415912D01*
X62064133Y-32540057D01*
X62059049Y-32665571D01*
X62053184Y-32790304D01*
X62046342Y-32913667D01*
X62038326Y-33035076D01*
X62029137Y-33152379D01*
X62018775Y-33263426D01*
X61859243Y-33263426D01*
X61824834Y-33161176D01*
X61790426Y-33051498D01*
X61756017Y-32940647D01*
X61721608Y-32834879D01*
X61686417Y-32937714D01*
X61649662Y-33049152D01*
X61613689Y-33160590D01*
X61580844Y-33263426D01*
X61421312Y-33263426D01*
X61409582Y-33152183D01*
X61399416Y-33034294D01*
X61390618Y-32912299D01*
X61382993Y-32788740D01*
X61376542Y-32664007D01*
X61371263Y-32538493D01*
X61366962Y-32414739D01*
X61363443Y-32295285D01*
X61541743Y-32295285D01*
X61540179Y-32389128D01*
G37*
G36*
X62388671Y-32379743D02*
G01*
X62423862Y-32490790D01*
X62461399Y-32611221D01*
X62497371Y-32723832D01*
X62536472Y-32604183D01*
X62575573Y-32485316D01*
X62609982Y-32378179D01*
X62638135Y-32295285D01*
X62797667Y-32295285D01*
X62808420Y-32420408D01*
X62818782Y-32542403D01*
X62828166Y-32662248D01*
X62835986Y-32780919D01*
X62842438Y-32899395D01*
X62847716Y-33018653D01*
X62852017Y-33139671D01*
X62855536Y-33263426D01*
X62678800Y-33263426D01*
X62688184Y-32511123D01*
X62569317Y-32920901D01*
X62428554Y-32920901D01*
X62314379Y-32511123D01*
X62322199Y-33263426D01*
X62145463Y-33263426D01*
X62150350Y-33142212D01*
X62155629Y-33016307D01*
X62161298Y-32888447D01*
X62167359Y-32761369D01*
X62174202Y-32636637D01*
X62182217Y-32515815D01*
X62191406Y-32401249D01*
X62201768Y-32295285D01*
X62361300Y-32295285D01*
X62388671Y-32379743D01*
G37*
G36*
X62361828Y-34376987D02*
G01*
X62396506Y-34486417D01*
X62433496Y-34605094D01*
X62468945Y-34716065D01*
X62507477Y-34598159D01*
X62546008Y-34481023D01*
X62579916Y-34375446D01*
X62607659Y-34293759D01*
X62764868Y-34293759D01*
X62775464Y-34417060D01*
X62785675Y-34537279D01*
X62794922Y-34655378D01*
X62802629Y-34772321D01*
X62808986Y-34889072D01*
X62814188Y-35006593D01*
X62818427Y-35125848D01*
X62821894Y-35247801D01*
X62647732Y-35247801D01*
X62656979Y-34506453D01*
X62539843Y-34910264D01*
X62401130Y-34910264D01*
X62288618Y-34506453D01*
X62296324Y-35247801D01*
X62122161Y-35247801D01*
X62126978Y-35128353D01*
X62132180Y-35004281D01*
X62137767Y-34878283D01*
X62143739Y-34753055D01*
X62150482Y-34630140D01*
X62158381Y-34511077D01*
X62167436Y-34398180D01*
X62177647Y-34293759D01*
X62334856Y-34293759D01*
X62361828Y-34376987D01*
G37*
G36*
X65015127Y-32318051D02*
G01*
X65092113Y-32360193D01*
X65148592Y-32421451D01*
X65182480Y-32504084D01*
X65193775Y-32608093D01*
X65182393Y-32713144D01*
X65148244Y-32796820D01*
X65091331Y-32859121D01*
X65013563Y-32902132D01*
X64916853Y-32927939D01*
X64801201Y-32936541D01*
X64732384Y-32936541D01*
X64732384Y-33263426D01*
X64540007Y-33263426D01*
X64540007Y-32769189D01*
X64732384Y-32769189D01*
X64810586Y-32769189D01*
X64891525Y-32760000D01*
X64949785Y-32732434D01*
X64984976Y-32682580D01*
X64996706Y-32606529D01*
X64985172Y-32534388D01*
X64950567Y-32486880D01*
X64896803Y-32460487D01*
X64827790Y-32451689D01*
X64780087Y-32452471D01*
X64732384Y-32456381D01*
X64732384Y-32769189D01*
X64540007Y-32769189D01*
X64540007Y-32307797D01*
X64603350Y-32296849D01*
X64674514Y-32289811D01*
X64744896Y-32285901D01*
X64805894Y-32284337D01*
X64919721Y-32292765D01*
X65015127Y-32318051D01*
G37*
G36*
X61105029Y-32318051D02*
G01*
X61182014Y-32360193D01*
X61238493Y-32421451D01*
X61272381Y-32504084D01*
X61283677Y-32608093D01*
X61272294Y-32713144D01*
X61238146Y-32796820D01*
X61181232Y-32859121D01*
X61103465Y-32902132D01*
X61006755Y-32927939D01*
X60891103Y-32936541D01*
X60822285Y-32936541D01*
X60822285Y-33263426D01*
X60629908Y-33263426D01*
X60629908Y-32769189D01*
X60822285Y-32769189D01*
X60900487Y-32769189D01*
X60981426Y-32760000D01*
X61039687Y-32732434D01*
X61074878Y-32682580D01*
X61086608Y-32606529D01*
X61075073Y-32534388D01*
X61040469Y-32486880D01*
X60986705Y-32460487D01*
X60917692Y-32451689D01*
X60869988Y-32452471D01*
X60822285Y-32456381D01*
X60822285Y-32769189D01*
X60629908Y-32769189D01*
X60629908Y-32307797D01*
X60693252Y-32296849D01*
X60764416Y-32289811D01*
X60834798Y-32285901D01*
X60895795Y-32284337D01*
X61009622Y-32292765D01*
X61105029Y-32318051D01*
G37*
G36*
X62407588Y-30369215D02*
G01*
X62452038Y-30447994D01*
X62495892Y-30529552D01*
X62538556Y-30610713D01*
X62579038Y-30690485D01*
X62616344Y-30767876D01*
X62649483Y-30839313D01*
X62677463Y-30901226D01*
X62677463Y-30296388D01*
X62853675Y-30296388D01*
X62853675Y-31279051D01*
X62696513Y-31279051D01*
X62650740Y-31170130D01*
X62602321Y-31061387D01*
X62551256Y-30952819D01*
X62497546Y-30844252D01*
X62441190Y-30735508D01*
X62382188Y-30626588D01*
X62382188Y-31279051D01*
X62205975Y-31279051D01*
X62205975Y-30296388D01*
X62363138Y-30296388D01*
X62407588Y-30369215D01*
G37*
G36*
X60953114Y-34287594D02*
G01*
X61023242Y-34301466D01*
X61137295Y-34358492D01*
X61210505Y-34456362D01*
X61229578Y-34520903D01*
X61235936Y-34595847D01*
X61227459Y-34675222D01*
X61202028Y-34746890D01*
X61156946Y-34806614D01*
X61089516Y-34850155D01*
X61145001Y-34938777D01*
X61202028Y-35040501D01*
X61255201Y-35146848D01*
X61299127Y-35247801D01*
X61100305Y-35247801D01*
X61061966Y-35157059D01*
X61017847Y-35069785D01*
X60969105Y-34983667D01*
X60916894Y-34896393D01*
X60818254Y-34896393D01*
X60818254Y-35247801D01*
X60628678Y-35247801D01*
X60628678Y-34739184D01*
X60818254Y-34739184D01*
X60859868Y-34739184D01*
X60943481Y-34729744D01*
X61000123Y-34701423D01*
X61043278Y-34594305D01*
X61031718Y-34528802D01*
X60997040Y-34483335D01*
X60943481Y-34456748D01*
X60875280Y-34447885D01*
X60849079Y-34448656D01*
X60818254Y-34452509D01*
X60818254Y-34739184D01*
X60628678Y-34739184D01*
X60628678Y-34307631D01*
X60689558Y-34296071D01*
X60756603Y-34288365D01*
X60821336Y-34284512D01*
X60875280Y-34282970D01*
X60953114Y-34287594D01*
G37*
G36*
X67192914Y-34289135D02*
G01*
X67288472Y-34339997D01*
X67354746Y-34425537D01*
X67379407Y-34544985D01*
X67360911Y-34639773D01*
X67311591Y-34728395D01*
X67242234Y-34811623D01*
X67163630Y-34888686D01*
X67117392Y-34932612D01*
X67068072Y-34985015D01*
X67028769Y-35039730D01*
X67012586Y-35090592D01*
X67422562Y-35090592D01*
X67422562Y-35247801D01*
X66799892Y-35247801D01*
X66796039Y-35209269D01*
X66796809Y-35176902D01*
X66803938Y-35102922D01*
X66825323Y-35035106D01*
X66857689Y-34972878D01*
X66897762Y-34915659D01*
X66943229Y-34862870D01*
X66991779Y-34813935D01*
X67085796Y-34723771D01*
X67158235Y-34640543D01*
X67186749Y-34558856D01*
X67151300Y-34468693D01*
X67061907Y-34437097D01*
X66967890Y-34458674D01*
X66870790Y-34531114D01*
X66776773Y-34398565D01*
X66843240Y-34342309D01*
X66919340Y-34303007D01*
X67000063Y-34279888D01*
X67080402Y-34272182D01*
X67192914Y-34289135D01*
G37*
G36*
X67327125Y-33103894D02*
G01*
X67519502Y-33103894D01*
X67519502Y-33263426D01*
X66931423Y-33263426D01*
X66931423Y-33103894D01*
X67134748Y-33103894D01*
X67134748Y-32562736D01*
X67034650Y-32618259D01*
X66939243Y-32656578D01*
X66876682Y-32497046D01*
X66958012Y-32461073D01*
X67045598Y-32412588D01*
X67128492Y-32356283D01*
X67195746Y-32295285D01*
X67327125Y-32295285D01*
X67327125Y-33103894D01*
G37*
G36*
X61867511Y-34316193D02*
G01*
X61943375Y-34357722D01*
X61999032Y-34418088D01*
X62032426Y-34499518D01*
X62043557Y-34602012D01*
X62032340Y-34705533D01*
X61998689Y-34787991D01*
X61942604Y-34849384D01*
X61865969Y-34891769D01*
X61770668Y-34917200D01*
X61656700Y-34925677D01*
X61588885Y-34925677D01*
X61588885Y-35247801D01*
X61399309Y-35247801D01*
X61399309Y-34760762D01*
X61588885Y-34760762D01*
X61665948Y-34760762D01*
X61745708Y-34751707D01*
X61803120Y-34724542D01*
X61837799Y-34675414D01*
X61849358Y-34600470D01*
X61837991Y-34529380D01*
X61803891Y-34482564D01*
X61750910Y-34456555D01*
X61682902Y-34447885D01*
X61635893Y-34448656D01*
X61588885Y-34452509D01*
X61588885Y-34760762D01*
X61399309Y-34760762D01*
X61399309Y-34306089D01*
X61461731Y-34295301D01*
X61531858Y-34288365D01*
X61601215Y-34284512D01*
X61661324Y-34282970D01*
X61773494Y-34291276D01*
X61867511Y-34316193D01*
G37*
G36*
X64950035Y-34316193D02*
G01*
X65025899Y-34357722D01*
X65081556Y-34418088D01*
X65114950Y-34499518D01*
X65126081Y-34602012D01*
X65114864Y-34705533D01*
X65081213Y-34787991D01*
X65025129Y-34849384D01*
X64948494Y-34891769D01*
X64853192Y-34917200D01*
X64739225Y-34925677D01*
X64671409Y-34925677D01*
X64671409Y-35247801D01*
X64481834Y-35247801D01*
X64481834Y-34760762D01*
X64671409Y-34760762D01*
X64748472Y-34760762D01*
X64828232Y-34751707D01*
X64885644Y-34724542D01*
X64920323Y-34675414D01*
X64931882Y-34600470D01*
X64920515Y-34529380D01*
X64886415Y-34482564D01*
X64833434Y-34456555D01*
X64765426Y-34447885D01*
X64718417Y-34448656D01*
X64671409Y-34452509D01*
X64671409Y-34760762D01*
X64481834Y-34760762D01*
X64481834Y-34306089D01*
X64544255Y-34295301D01*
X64614382Y-34288365D01*
X64683739Y-34284512D01*
X64743848Y-34282970D01*
X64856018Y-34291276D01*
X64950035Y-34316193D01*
G37*
G36*
X61247125Y-30458313D02*
G01*
X60840725Y-30458313D01*
X60840725Y-30696438D01*
X61196325Y-30696438D01*
X61196325Y-30858363D01*
X60840725Y-30858363D01*
X60840725Y-31279051D01*
X60645463Y-31279051D01*
X60645463Y-30296388D01*
X61247125Y-30296388D01*
X61247125Y-30458313D01*
G37*
G36*
X65936694Y-32454817D02*
G01*
X65727113Y-32454817D01*
X65727113Y-33103894D01*
X65936694Y-33103894D01*
X65936694Y-33263426D01*
X65322027Y-33263426D01*
X65322027Y-33103894D01*
X65533172Y-33103894D01*
X65533172Y-32454817D01*
X65322027Y-32454817D01*
X65322027Y-32295285D01*
X65936694Y-32295285D01*
X65936694Y-32454817D01*
G37*
G36*
X68179322Y-34437097D02*
G01*
X68135781Y-34494509D01*
X68088387Y-34571186D01*
X68040415Y-34663277D01*
X67995141Y-34766927D01*
X67953912Y-34880017D01*
X67918078Y-35000428D01*
X67891298Y-35124307D01*
X67877234Y-35247801D01*
X67684576Y-35247801D01*
X67694980Y-35146270D01*
X67716943Y-35038960D01*
X67747576Y-34929337D01*
X67783988Y-34820871D01*
X67825024Y-34715872D01*
X67869528Y-34616654D01*
X67914610Y-34527068D01*
X67957380Y-34450968D01*
X67556652Y-34450968D01*
X67556652Y-34293759D01*
X68179322Y-34293759D01*
X68179322Y-34437097D01*
G37*
G36*
X65858181Y-34450968D02*
G01*
X65651652Y-34450968D01*
X65651652Y-35090592D01*
X65858181Y-35090592D01*
X65858181Y-35247801D01*
X65252465Y-35247801D01*
X65252465Y-35090592D01*
X65460535Y-35090592D01*
X65460535Y-34450968D01*
X65252465Y-34450968D01*
X65252465Y-34293759D01*
X65858181Y-34293759D01*
X65858181Y-34450968D01*
G37*
%TO.C,kibuzzard-62F4287AC*%
G36*
X52819219Y-60821133D02*
G01*
X52835888Y-60915787D01*
X52855930Y-61018181D01*
X52877956Y-61123750D01*
X52901769Y-61230113D01*
X52927169Y-61334888D01*
X52953164Y-61433511D01*
X52978763Y-61521419D01*
X53004163Y-61434702D01*
X53029563Y-61336475D01*
X53054169Y-61231700D01*
X53077188Y-61125337D01*
X53098619Y-61019570D01*
X53118463Y-60916581D01*
X53135925Y-60821331D01*
X53150213Y-60738781D01*
X53355000Y-60738781D01*
X53333767Y-60839587D01*
X53308169Y-60951506D01*
X53278403Y-61071958D01*
X53244669Y-61198362D01*
X53220063Y-61285146D01*
X53193869Y-61372988D01*
X53166088Y-61461888D01*
X53137160Y-61550347D01*
X53107526Y-61636865D01*
X53077188Y-61721444D01*
X52875575Y-61721444D01*
X52836284Y-61604763D01*
X52794613Y-61473794D01*
X52766567Y-61381807D01*
X52739579Y-61289997D01*
X52713650Y-61198362D01*
X52689132Y-61108492D01*
X52666378Y-61021974D01*
X52645388Y-60938806D01*
X52619194Y-60827681D01*
X52600938Y-60738781D01*
X52807313Y-60738781D01*
X52819219Y-60821133D01*
G37*
G36*
X51526200Y-61559519D02*
G01*
X51721462Y-61559519D01*
X51721462Y-61721444D01*
X51124562Y-61721444D01*
X51124562Y-61559519D01*
X51330937Y-61559519D01*
X51330937Y-61010244D01*
X51229337Y-61066600D01*
X51132500Y-61105494D01*
X51069000Y-60943569D01*
X51151550Y-60907056D01*
X51240450Y-60857844D01*
X51324587Y-60800694D01*
X51392850Y-60738781D01*
X51526200Y-60738781D01*
X51526200Y-61559519D01*
G37*
G36*
X52283438Y-60734019D02*
G01*
X52381863Y-60786406D01*
X52450125Y-60874512D01*
X52475525Y-60997544D01*
X52456475Y-61095175D01*
X52405675Y-61186456D01*
X52334238Y-61272181D01*
X52253275Y-61351556D01*
X52205650Y-61396800D01*
X52154850Y-61450775D01*
X52114369Y-61507131D01*
X52097700Y-61559519D01*
X52519975Y-61559519D01*
X52519975Y-61721444D01*
X51878625Y-61721444D01*
X51874656Y-61681756D01*
X51875450Y-61648419D01*
X51882792Y-61572219D01*
X51904819Y-61502369D01*
X51938156Y-61438273D01*
X51979431Y-61379338D01*
X52026262Y-61324966D01*
X52076269Y-61274563D01*
X52126275Y-61227136D01*
X52173106Y-61181694D01*
X52247719Y-61095969D01*
X52277088Y-61011831D01*
X52240575Y-60918962D01*
X52148500Y-60886419D01*
X52051662Y-60908644D01*
X51951650Y-60983256D01*
X51854812Y-60846731D01*
X51923273Y-60788787D01*
X52001656Y-60748306D01*
X52084802Y-60724494D01*
X52167550Y-60716556D01*
X52283438Y-60734019D01*
G37*
%TO.C,kibuzzard-62F4288845*%
G36*
X57649188Y-60821133D02*
G01*
X57665856Y-60915787D01*
X57685898Y-61018181D01*
X57707925Y-61123750D01*
X57731738Y-61230113D01*
X57757138Y-61334888D01*
X57783133Y-61433511D01*
X57808731Y-61521419D01*
X57834131Y-61434702D01*
X57859531Y-61336475D01*
X57884138Y-61231700D01*
X57907156Y-61125337D01*
X57928588Y-61019570D01*
X57948431Y-60916581D01*
X57965894Y-60821331D01*
X57980181Y-60738781D01*
X58184969Y-60738781D01*
X58163736Y-60839587D01*
X58138138Y-60951506D01*
X58108372Y-61071958D01*
X58074638Y-61198362D01*
X58050031Y-61285146D01*
X58023838Y-61372988D01*
X57996056Y-61461888D01*
X57967128Y-61550347D01*
X57937495Y-61636865D01*
X57907156Y-61721444D01*
X57705544Y-61721444D01*
X57666253Y-61604763D01*
X57624581Y-61473794D01*
X57596535Y-61381807D01*
X57569548Y-61289997D01*
X57543619Y-61198362D01*
X57519101Y-61108492D01*
X57496347Y-61021974D01*
X57475356Y-60938806D01*
X57449163Y-60827681D01*
X57430906Y-60738781D01*
X57637281Y-60738781D01*
X57649188Y-60821133D01*
G37*
G36*
X56319656Y-60734019D02*
G01*
X56418081Y-60786406D01*
X56486344Y-60874512D01*
X56511744Y-60997544D01*
X56492694Y-61095175D01*
X56441894Y-61186456D01*
X56370456Y-61272181D01*
X56289494Y-61351556D01*
X56241869Y-61396800D01*
X56191069Y-61450775D01*
X56150587Y-61507131D01*
X56133919Y-61559519D01*
X56556194Y-61559519D01*
X56556194Y-61721444D01*
X55914844Y-61721444D01*
X55910875Y-61681756D01*
X55911669Y-61648419D01*
X55919011Y-61572219D01*
X55941037Y-61502369D01*
X55974375Y-61438273D01*
X56015650Y-61379338D01*
X56062481Y-61324966D01*
X56112487Y-61274563D01*
X56162494Y-61227136D01*
X56209325Y-61181694D01*
X56283937Y-61095969D01*
X56313306Y-61011831D01*
X56276794Y-60918962D01*
X56184719Y-60886419D01*
X56087881Y-60908644D01*
X55987869Y-60983256D01*
X55891031Y-60846731D01*
X55959492Y-60788787D01*
X56037875Y-60748306D01*
X56121020Y-60724494D01*
X56203769Y-60716556D01*
X56319656Y-60734019D01*
G37*
G36*
X57370581Y-61329331D02*
G01*
X57370581Y-61489669D01*
X57264219Y-61489669D01*
X57264219Y-61721444D01*
X57068956Y-61721444D01*
X57068956Y-61489669D01*
X56659381Y-61489669D01*
X56659381Y-61346794D01*
X56668506Y-61329331D01*
X56846706Y-61329331D01*
X57068956Y-61329331D01*
X57068956Y-60983256D01*
X57010219Y-61061044D01*
X56950687Y-61147562D01*
X56894331Y-61238844D01*
X56846706Y-61329331D01*
X56668506Y-61329331D01*
X56693909Y-61280714D01*
X56737169Y-61206300D01*
X56787175Y-61126727D01*
X56841944Y-61045169D01*
X56900681Y-60963214D01*
X56962594Y-60882450D01*
X57026094Y-60806448D01*
X57089594Y-60738781D01*
X57264219Y-60738781D01*
X57264219Y-61329331D01*
X57370581Y-61329331D01*
G37*
%TO.C,kibuzzard-62F4287AB*%
G36*
X52819219Y-48375133D02*
G01*
X52835888Y-48469787D01*
X52855930Y-48572181D01*
X52877956Y-48677750D01*
X52901769Y-48784113D01*
X52927169Y-48888888D01*
X52953164Y-48987511D01*
X52978763Y-49075419D01*
X53004163Y-48988702D01*
X53029563Y-48890475D01*
X53054169Y-48785700D01*
X53077188Y-48679337D01*
X53098619Y-48573570D01*
X53118463Y-48470581D01*
X53135925Y-48375331D01*
X53150213Y-48292781D01*
X53355000Y-48292781D01*
X53333767Y-48393587D01*
X53308169Y-48505506D01*
X53278403Y-48625958D01*
X53244669Y-48752362D01*
X53220063Y-48839146D01*
X53193869Y-48926988D01*
X53166088Y-49015888D01*
X53137160Y-49104347D01*
X53107526Y-49190865D01*
X53077188Y-49275444D01*
X52875575Y-49275444D01*
X52836284Y-49158763D01*
X52794613Y-49027794D01*
X52766567Y-48935807D01*
X52739579Y-48843997D01*
X52713650Y-48752362D01*
X52689132Y-48662492D01*
X52666378Y-48575974D01*
X52645388Y-48492806D01*
X52619194Y-48381681D01*
X52600938Y-48292781D01*
X52807313Y-48292781D01*
X52819219Y-48375133D01*
G37*
G36*
X51526200Y-49113519D02*
G01*
X51721462Y-49113519D01*
X51721462Y-49275444D01*
X51124562Y-49275444D01*
X51124562Y-49113519D01*
X51330937Y-49113519D01*
X51330937Y-48564244D01*
X51229337Y-48620600D01*
X51132500Y-48659494D01*
X51069000Y-48497569D01*
X51151550Y-48461056D01*
X51240450Y-48411844D01*
X51324587Y-48354694D01*
X51392850Y-48292781D01*
X51526200Y-48292781D01*
X51526200Y-49113519D01*
G37*
G36*
X52283438Y-48288019D02*
G01*
X52381863Y-48340406D01*
X52450125Y-48428512D01*
X52475525Y-48551544D01*
X52456475Y-48649175D01*
X52405675Y-48740456D01*
X52334238Y-48826181D01*
X52253275Y-48905556D01*
X52205650Y-48950800D01*
X52154850Y-49004775D01*
X52114369Y-49061131D01*
X52097700Y-49113519D01*
X52519975Y-49113519D01*
X52519975Y-49275444D01*
X51878625Y-49275444D01*
X51874656Y-49235756D01*
X51875450Y-49202419D01*
X51882792Y-49126219D01*
X51904819Y-49056369D01*
X51938156Y-48992273D01*
X51979431Y-48933338D01*
X52026262Y-48878966D01*
X52076269Y-48828563D01*
X52126275Y-48781136D01*
X52173106Y-48735694D01*
X52247719Y-48649969D01*
X52277088Y-48565831D01*
X52240575Y-48472962D01*
X52148500Y-48440419D01*
X52051662Y-48462644D01*
X51951650Y-48537256D01*
X51854812Y-48400731D01*
X51923273Y-48342787D01*
X52001656Y-48302306D01*
X52084802Y-48278494D01*
X52167550Y-48270556D01*
X52283438Y-48288019D01*
G37*
%TO.C,kibuzzard-62F428881*%
G36*
X57649188Y-48375133D02*
G01*
X57665856Y-48469787D01*
X57685898Y-48572181D01*
X57707925Y-48677750D01*
X57731738Y-48784113D01*
X57757138Y-48888888D01*
X57783133Y-48987511D01*
X57808731Y-49075419D01*
X57834131Y-48988702D01*
X57859531Y-48890475D01*
X57884138Y-48785700D01*
X57907156Y-48679337D01*
X57928588Y-48573570D01*
X57948431Y-48470581D01*
X57965894Y-48375331D01*
X57980181Y-48292781D01*
X58184969Y-48292781D01*
X58163736Y-48393587D01*
X58138138Y-48505506D01*
X58108372Y-48625958D01*
X58074638Y-48752362D01*
X58050031Y-48839146D01*
X58023838Y-48926988D01*
X57996056Y-49015888D01*
X57967128Y-49104347D01*
X57937495Y-49190865D01*
X57907156Y-49275444D01*
X57705544Y-49275444D01*
X57666253Y-49158763D01*
X57624581Y-49027794D01*
X57596535Y-48935807D01*
X57569548Y-48843997D01*
X57543619Y-48752362D01*
X57519101Y-48662492D01*
X57496347Y-48575974D01*
X57475356Y-48492806D01*
X57449163Y-48381681D01*
X57430906Y-48292781D01*
X57637281Y-48292781D01*
X57649188Y-48375133D01*
G37*
G36*
X56319656Y-48288019D02*
G01*
X56418081Y-48340406D01*
X56486344Y-48428512D01*
X56511744Y-48551544D01*
X56492694Y-48649175D01*
X56441894Y-48740456D01*
X56370456Y-48826181D01*
X56289494Y-48905556D01*
X56241869Y-48950800D01*
X56191069Y-49004775D01*
X56150587Y-49061131D01*
X56133919Y-49113519D01*
X56556194Y-49113519D01*
X56556194Y-49275444D01*
X55914844Y-49275444D01*
X55910875Y-49235756D01*
X55911669Y-49202419D01*
X55919011Y-49126219D01*
X55941037Y-49056369D01*
X55974375Y-48992273D01*
X56015650Y-48933338D01*
X56062481Y-48878966D01*
X56112487Y-48828563D01*
X56162494Y-48781136D01*
X56209325Y-48735694D01*
X56283937Y-48649969D01*
X56313306Y-48565831D01*
X56276794Y-48472962D01*
X56184719Y-48440419D01*
X56087881Y-48462644D01*
X55987869Y-48537256D01*
X55891031Y-48400731D01*
X55959492Y-48342787D01*
X56037875Y-48302306D01*
X56121020Y-48278494D01*
X56203769Y-48270556D01*
X56319656Y-48288019D01*
G37*
G36*
X57370581Y-48883331D02*
G01*
X57370581Y-49043669D01*
X57264219Y-49043669D01*
X57264219Y-49275444D01*
X57068956Y-49275444D01*
X57068956Y-49043669D01*
X56659381Y-49043669D01*
X56659381Y-48900794D01*
X56668506Y-48883331D01*
X56846706Y-48883331D01*
X57068956Y-48883331D01*
X57068956Y-48537256D01*
X57010219Y-48615044D01*
X56950687Y-48701562D01*
X56894331Y-48792844D01*
X56846706Y-48883331D01*
X56668506Y-48883331D01*
X56693909Y-48834714D01*
X56737169Y-48760300D01*
X56787175Y-48680727D01*
X56841944Y-48599169D01*
X56900681Y-48517214D01*
X56962594Y-48436450D01*
X57026094Y-48360448D01*
X57089594Y-48292781D01*
X57264219Y-48292781D01*
X57264219Y-48883331D01*
X57370581Y-48883331D01*
G37*
%TO.C,kibuzzard-62F428884*%
G36*
X57649188Y-35675133D02*
G01*
X57665856Y-35769787D01*
X57685898Y-35872181D01*
X57707925Y-35977750D01*
X57731738Y-36084113D01*
X57757138Y-36188888D01*
X57783133Y-36287511D01*
X57808731Y-36375419D01*
X57834131Y-36288702D01*
X57859531Y-36190475D01*
X57884138Y-36085700D01*
X57907156Y-35979337D01*
X57928588Y-35873570D01*
X57948431Y-35770581D01*
X57965894Y-35675331D01*
X57980181Y-35592781D01*
X58184969Y-35592781D01*
X58163736Y-35693587D01*
X58138138Y-35805506D01*
X58108372Y-35925958D01*
X58074638Y-36052362D01*
X58050031Y-36139146D01*
X58023838Y-36226988D01*
X57996056Y-36315888D01*
X57967128Y-36404347D01*
X57937495Y-36490865D01*
X57907156Y-36575444D01*
X57705544Y-36575444D01*
X57666253Y-36458763D01*
X57624581Y-36327794D01*
X57596535Y-36235807D01*
X57569548Y-36143997D01*
X57543619Y-36052362D01*
X57519101Y-35962492D01*
X57496347Y-35875974D01*
X57475356Y-35792806D01*
X57449163Y-35681681D01*
X57430906Y-35592781D01*
X57637281Y-35592781D01*
X57649188Y-35675133D01*
G37*
G36*
X56319656Y-35588019D02*
G01*
X56418081Y-35640406D01*
X56486344Y-35728512D01*
X56511744Y-35851544D01*
X56492694Y-35949175D01*
X56441894Y-36040456D01*
X56370456Y-36126181D01*
X56289494Y-36205556D01*
X56241869Y-36250800D01*
X56191069Y-36304775D01*
X56150587Y-36361131D01*
X56133919Y-36413519D01*
X56556194Y-36413519D01*
X56556194Y-36575444D01*
X55914844Y-36575444D01*
X55910875Y-36535756D01*
X55911669Y-36502419D01*
X55919011Y-36426219D01*
X55941037Y-36356369D01*
X55974375Y-36292273D01*
X56015650Y-36233338D01*
X56062481Y-36178966D01*
X56112487Y-36128563D01*
X56162494Y-36081136D01*
X56209325Y-36035694D01*
X56283937Y-35949969D01*
X56313306Y-35865831D01*
X56276794Y-35772962D01*
X56184719Y-35740419D01*
X56087881Y-35762644D01*
X55987869Y-35837256D01*
X55891031Y-35700731D01*
X55959492Y-35642787D01*
X56037875Y-35602306D01*
X56121020Y-35578494D01*
X56203769Y-35570556D01*
X56319656Y-35588019D01*
G37*
G36*
X57370581Y-36183331D02*
G01*
X57370581Y-36343669D01*
X57264219Y-36343669D01*
X57264219Y-36575444D01*
X57068956Y-36575444D01*
X57068956Y-36343669D01*
X56659381Y-36343669D01*
X56659381Y-36200794D01*
X56668506Y-36183331D01*
X56846706Y-36183331D01*
X57068956Y-36183331D01*
X57068956Y-35837256D01*
X57010219Y-35915044D01*
X56950687Y-36001562D01*
X56894331Y-36092844D01*
X56846706Y-36183331D01*
X56668506Y-36183331D01*
X56693909Y-36134714D01*
X56737169Y-36060300D01*
X56787175Y-35980727D01*
X56841944Y-35899169D01*
X56900681Y-35817214D01*
X56962594Y-35736450D01*
X57026094Y-35660448D01*
X57089594Y-35592781D01*
X57264219Y-35592781D01*
X57264219Y-36183331D01*
X57370581Y-36183331D01*
G37*
%TO.C,kibuzzard-62F4287AA*%
G36*
X52819219Y-35675133D02*
G01*
X52835888Y-35769787D01*
X52855930Y-35872181D01*
X52877956Y-35977750D01*
X52901769Y-36084113D01*
X52927169Y-36188888D01*
X52953164Y-36287511D01*
X52978763Y-36375419D01*
X53004163Y-36288702D01*
X53029563Y-36190475D01*
X53054169Y-36085700D01*
X53077188Y-35979337D01*
X53098619Y-35873570D01*
X53118463Y-35770581D01*
X53135925Y-35675331D01*
X53150213Y-35592781D01*
X53355000Y-35592781D01*
X53333767Y-35693587D01*
X53308169Y-35805506D01*
X53278403Y-35925958D01*
X53244669Y-36052362D01*
X53220063Y-36139146D01*
X53193869Y-36226988D01*
X53166088Y-36315888D01*
X53137160Y-36404347D01*
X53107526Y-36490865D01*
X53077188Y-36575444D01*
X52875575Y-36575444D01*
X52836284Y-36458763D01*
X52794613Y-36327794D01*
X52766567Y-36235807D01*
X52739579Y-36143997D01*
X52713650Y-36052362D01*
X52689132Y-35962492D01*
X52666378Y-35875974D01*
X52645388Y-35792806D01*
X52619194Y-35681681D01*
X52600938Y-35592781D01*
X52807313Y-35592781D01*
X52819219Y-35675133D01*
G37*
G36*
X51526200Y-36413519D02*
G01*
X51721462Y-36413519D01*
X51721462Y-36575444D01*
X51124562Y-36575444D01*
X51124562Y-36413519D01*
X51330937Y-36413519D01*
X51330937Y-35864244D01*
X51229337Y-35920600D01*
X51132500Y-35959494D01*
X51069000Y-35797569D01*
X51151550Y-35761056D01*
X51240450Y-35711844D01*
X51324587Y-35654694D01*
X51392850Y-35592781D01*
X51526200Y-35592781D01*
X51526200Y-36413519D01*
G37*
G36*
X52283438Y-35588019D02*
G01*
X52381863Y-35640406D01*
X52450125Y-35728512D01*
X52475525Y-35851544D01*
X52456475Y-35949175D01*
X52405675Y-36040456D01*
X52334238Y-36126181D01*
X52253275Y-36205556D01*
X52205650Y-36250800D01*
X52154850Y-36304775D01*
X52114369Y-36361131D01*
X52097700Y-36413519D01*
X52519975Y-36413519D01*
X52519975Y-36575444D01*
X51878625Y-36575444D01*
X51874656Y-36535756D01*
X51875450Y-36502419D01*
X51882792Y-36426219D01*
X51904819Y-36356369D01*
X51938156Y-36292273D01*
X51979431Y-36233338D01*
X52026262Y-36178966D01*
X52076269Y-36128563D01*
X52126275Y-36081136D01*
X52173106Y-36035694D01*
X52247719Y-35949969D01*
X52277088Y-35865831D01*
X52240575Y-35772962D01*
X52148500Y-35740419D01*
X52051662Y-35762644D01*
X51951650Y-35837256D01*
X51854812Y-35700731D01*
X51923273Y-35642787D01*
X52001656Y-35602306D01*
X52084802Y-35578494D01*
X52167550Y-35570556D01*
X52283438Y-35588019D01*
G37*
%TO.C,kibuzzard-62F42A54*%
G36*
X61345596Y-18340926D02*
G01*
X61301146Y-18567938D01*
X61097946Y-18567938D01*
X61125950Y-18453797D01*
X61154080Y-18343783D01*
X61182338Y-18237897D01*
X61198766Y-18179001D01*
X61382109Y-18179001D01*
X61574196Y-18179001D01*
X61555146Y-18077401D01*
X61533715Y-17979769D01*
X61508315Y-17881344D01*
X61478946Y-17775776D01*
X61449578Y-17881344D01*
X61424178Y-17979769D01*
X61401953Y-18077401D01*
X61382109Y-18179001D01*
X61198766Y-18179001D01*
X61210722Y-18136138D01*
X61239234Y-18038507D01*
X61274655Y-17920585D01*
X61309481Y-17805740D01*
X61343711Y-17693970D01*
X61377346Y-17585276D01*
X61590071Y-17585276D01*
X61624947Y-17694863D01*
X61659723Y-17807724D01*
X61694400Y-17923860D01*
X61728978Y-18043269D01*
X61756441Y-18141726D01*
X61783588Y-18243421D01*
X61810416Y-18348355D01*
X61836928Y-18456527D01*
X61863121Y-18567938D01*
X61653571Y-18567938D01*
X61607534Y-18340926D01*
X61345596Y-18340926D01*
G37*
G36*
X65829346Y-19847909D02*
G01*
X65858183Y-19761153D01*
X65898554Y-19689745D01*
X65968067Y-19618929D01*
X66053568Y-19576439D01*
X66155057Y-19562276D01*
X66259674Y-19576439D01*
X66346217Y-19618929D01*
X66414687Y-19689745D01*
X66453691Y-19761153D01*
X66481550Y-19847909D01*
X66498266Y-19950011D01*
X66503838Y-20067461D01*
X66498168Y-20184910D01*
X66481159Y-20287013D01*
X66452811Y-20373768D01*
X66413123Y-20445176D01*
X66344306Y-20515993D01*
X66258805Y-20558482D01*
X66156621Y-20572646D01*
X66051917Y-20558482D01*
X65965113Y-20515993D01*
X65896208Y-20445176D01*
X65856863Y-20373768D01*
X65828759Y-20287013D01*
X65811897Y-20184910D01*
X65806276Y-20067461D01*
X66001781Y-20067461D01*
X66003149Y-20135692D01*
X66007255Y-20199622D01*
X66029152Y-20306759D01*
X66075291Y-20378705D01*
X66155057Y-20405293D01*
X66234041Y-20378705D01*
X66280962Y-20305977D01*
X66302858Y-20198840D01*
X66308333Y-20067461D01*
X66306964Y-19999230D01*
X66302858Y-19935299D01*
X66280962Y-19828163D01*
X66234823Y-19756217D01*
X66155057Y-19729628D01*
X66075291Y-19756217D01*
X66029152Y-19828945D01*
X66007255Y-19936082D01*
X66001781Y-20067461D01*
X65806276Y-20067461D01*
X65812043Y-19950011D01*
X65829346Y-19847909D01*
G37*
G36*
X63980260Y-19570878D02*
G01*
X64057680Y-19590429D01*
X64111639Y-19613889D01*
X64143702Y-19632658D01*
X64093653Y-19785934D01*
X64009195Y-19746833D01*
X63905968Y-19729628D01*
X63790229Y-19754653D01*
X63712809Y-19824253D01*
X63669016Y-19930607D01*
X63659045Y-19995711D01*
X63655722Y-20067461D01*
X63661804Y-20173033D01*
X63680051Y-20258274D01*
X63710463Y-20323181D01*
X63778108Y-20384765D01*
X63871559Y-20405293D01*
X63909096Y-20403729D01*
X63946633Y-20399037D01*
X63946633Y-20045564D01*
X64139010Y-20045564D01*
X64139010Y-20528852D01*
X64031873Y-20557005D01*
X63951521Y-20568735D01*
X63855919Y-20572646D01*
X63769701Y-20564630D01*
X63692477Y-20540583D01*
X63625028Y-20500700D01*
X63568136Y-20445176D01*
X63522387Y-20374013D01*
X63488370Y-20287208D01*
X63467255Y-20184959D01*
X63460217Y-20067461D01*
X63468428Y-19951135D01*
X63493062Y-19849277D01*
X63531772Y-19762278D01*
X63582212Y-19690527D01*
X63643600Y-19634417D01*
X63715155Y-19594339D01*
X63794530Y-19570292D01*
X63879379Y-19562276D01*
X63980260Y-19570878D01*
G37*
G36*
X67251839Y-20289554D02*
G01*
X67224957Y-20376750D01*
X67187323Y-20447522D01*
X67121286Y-20517035D01*
X67037870Y-20558743D01*
X66937076Y-20572646D01*
X66836283Y-20558743D01*
X66752867Y-20517035D01*
X66686830Y-20447522D01*
X66649195Y-20376750D01*
X66622314Y-20289554D01*
X66606184Y-20185937D01*
X66600808Y-20065897D01*
X66774416Y-20065897D01*
X66784974Y-20213112D01*
X66816645Y-20320053D01*
X66867868Y-20385156D01*
X66937076Y-20406857D01*
X67007263Y-20385156D01*
X67058290Y-20320053D01*
X67089375Y-20213112D01*
X67099737Y-20065897D01*
X67089375Y-19919855D01*
X67058290Y-19813304D01*
X67007263Y-19748201D01*
X66937076Y-19726500D01*
X66867868Y-19748201D01*
X66816645Y-19813304D01*
X66784974Y-19919855D01*
X66774416Y-20065897D01*
X66600808Y-20065897D01*
X66606282Y-19947225D01*
X66622705Y-19844585D01*
X66650075Y-19757977D01*
X66688394Y-19687399D01*
X66754953Y-19617886D01*
X66837847Y-19576179D01*
X66937076Y-19562276D01*
X67037870Y-19576092D01*
X67121286Y-19617539D01*
X67187323Y-19686617D01*
X67224957Y-19756950D01*
X67251839Y-19843608D01*
X67267969Y-19946590D01*
X67273345Y-20065897D01*
X67267969Y-20185937D01*
X67251839Y-20289554D01*
G37*
G36*
X65748674Y-21842542D02*
G01*
X65777091Y-21757050D01*
X65816875Y-21686682D01*
X65885376Y-21616897D01*
X65969631Y-21575026D01*
X66069642Y-21561069D01*
X66172735Y-21575026D01*
X66258018Y-21616897D01*
X66325492Y-21686682D01*
X66363927Y-21757050D01*
X66391380Y-21842542D01*
X66407853Y-21943158D01*
X66413343Y-22058897D01*
X66407756Y-22174636D01*
X66390995Y-22275251D01*
X66363060Y-22360743D01*
X66323950Y-22431112D01*
X66256135Y-22500897D01*
X66171879Y-22542767D01*
X66071183Y-22556724D01*
X65968004Y-22542767D01*
X65882464Y-22500897D01*
X65814563Y-22431112D01*
X65775791Y-22360743D01*
X65748096Y-22275251D01*
X65731479Y-22174636D01*
X65725941Y-22058897D01*
X65918598Y-22058897D01*
X65923993Y-22189133D01*
X65945570Y-22294710D01*
X65991038Y-22365608D01*
X66069642Y-22391809D01*
X66147476Y-22365608D01*
X66193714Y-22293939D01*
X66215291Y-22188363D01*
X66220686Y-22058897D01*
X66215291Y-21928660D01*
X66193714Y-21823084D01*
X66148246Y-21752186D01*
X66069642Y-21725984D01*
X65991038Y-21752186D01*
X65945570Y-21823854D01*
X65923993Y-21929431D01*
X65918598Y-22058897D01*
X65725941Y-22058897D01*
X65731624Y-21943158D01*
X65748674Y-21842542D01*
G37*
G36*
X63926517Y-21569546D02*
G01*
X64002809Y-21588812D01*
X64055983Y-21611931D01*
X64087579Y-21630426D01*
X64038258Y-21781470D01*
X63955030Y-21742938D01*
X63853307Y-21725984D01*
X63739254Y-21750644D01*
X63662961Y-21819231D01*
X63619806Y-21924036D01*
X63609980Y-21988191D01*
X63606705Y-22058897D01*
X63612699Y-22162932D01*
X63630680Y-22246931D01*
X63660649Y-22310893D01*
X63727309Y-22371580D01*
X63819399Y-22391809D01*
X63856390Y-22390268D01*
X63893380Y-22385644D01*
X63893380Y-22037319D01*
X64082955Y-22037319D01*
X64082955Y-22513569D01*
X63977379Y-22541312D01*
X63898196Y-22552871D01*
X63803987Y-22556724D01*
X63719025Y-22548825D01*
X63642925Y-22525129D01*
X63576458Y-22485826D01*
X63520394Y-22431112D01*
X63475312Y-22360984D01*
X63441790Y-22275444D01*
X63420983Y-22174684D01*
X63414047Y-22058897D01*
X63422139Y-21944265D01*
X63446414Y-21843891D01*
X63484560Y-21758158D01*
X63534266Y-21687453D01*
X63594760Y-21632160D01*
X63665273Y-21592665D01*
X63743492Y-21568968D01*
X63827106Y-21561069D01*
X63926517Y-21569546D01*
G37*
G36*
X61284638Y-19678015D02*
G01*
X61283074Y-19774985D01*
X61281510Y-19873324D01*
X61279946Y-19971272D01*
X61278382Y-20067852D01*
X61276818Y-20162085D01*
X61275645Y-20252213D01*
X61275254Y-20336476D01*
X61307317Y-20226993D01*
X61341725Y-20109690D01*
X61372224Y-20003335D01*
X61394121Y-19926697D01*
X61534884Y-19926697D01*
X61553653Y-20000207D01*
X61581024Y-20097178D01*
X61613868Y-20211352D01*
X61649059Y-20336476D01*
X61648668Y-20252213D01*
X61647495Y-20162085D01*
X61645931Y-20068047D01*
X61644367Y-19972054D01*
X61642803Y-19874497D01*
X61641239Y-19775767D01*
X61640066Y-19678211D01*
X61639675Y-19584173D01*
X61817975Y-19584173D01*
X61813283Y-19704799D01*
X61808591Y-19828945D01*
X61803508Y-19954459D01*
X61797643Y-20079191D01*
X61790800Y-20202555D01*
X61782785Y-20323963D01*
X61773596Y-20441266D01*
X61763234Y-20552313D01*
X61603702Y-20552313D01*
X61569293Y-20450064D01*
X61534884Y-20340386D01*
X61500475Y-20229534D01*
X61466067Y-20123766D01*
X61430876Y-20226602D01*
X61394121Y-20338040D01*
X61358148Y-20449477D01*
X61325303Y-20552313D01*
X61165771Y-20552313D01*
X61154041Y-20441071D01*
X61143874Y-20323181D01*
X61135077Y-20201186D01*
X61127452Y-20077627D01*
X61121000Y-19952895D01*
X61115722Y-19827381D01*
X61111421Y-19703626D01*
X61107902Y-19584173D01*
X61286202Y-19584173D01*
X61284638Y-19678015D01*
G37*
G36*
X62133129Y-19668631D02*
G01*
X62168320Y-19779678D01*
X62205857Y-19900109D01*
X62241830Y-20012719D01*
X62280931Y-19893070D01*
X62320032Y-19774203D01*
X62354441Y-19667067D01*
X62382594Y-19584173D01*
X62542126Y-19584173D01*
X62552879Y-19709296D01*
X62563240Y-19831291D01*
X62572624Y-19951135D01*
X62580445Y-20069807D01*
X62586896Y-20188283D01*
X62592175Y-20307541D01*
X62596476Y-20428558D01*
X62599995Y-20552313D01*
X62423259Y-20552313D01*
X62432643Y-19800010D01*
X62313776Y-20209788D01*
X62173012Y-20209788D01*
X62058838Y-19800010D01*
X62066658Y-20552313D01*
X61889921Y-20552313D01*
X61894809Y-20431100D01*
X61900088Y-20305195D01*
X61905757Y-20177335D01*
X61911818Y-20050256D01*
X61918661Y-19925524D01*
X61926676Y-19804702D01*
X61935865Y-19690136D01*
X61946227Y-19584173D01*
X62105759Y-19584173D01*
X62133129Y-19668631D01*
G37*
G36*
X62106286Y-21665875D02*
G01*
X62140965Y-21775305D01*
X62177955Y-21893982D01*
X62213404Y-22004953D01*
X62251936Y-21887046D01*
X62290467Y-21769910D01*
X62324375Y-21664334D01*
X62352118Y-21582647D01*
X62509326Y-21582647D01*
X62519923Y-21705948D01*
X62530133Y-21826166D01*
X62539381Y-21944265D01*
X62547087Y-22061209D01*
X62553445Y-22177959D01*
X62558647Y-22295481D01*
X62562885Y-22414736D01*
X62566353Y-22536688D01*
X62392191Y-22536688D01*
X62401438Y-21795341D01*
X62284302Y-22199152D01*
X62145589Y-22199152D01*
X62033076Y-21795341D01*
X62040783Y-22536688D01*
X61866620Y-22536688D01*
X61871437Y-22417240D01*
X61876638Y-22293169D01*
X61882225Y-22167170D01*
X61888198Y-22041943D01*
X61894941Y-21919027D01*
X61902840Y-21799965D01*
X61911895Y-21687067D01*
X61922106Y-21582647D01*
X62079314Y-21582647D01*
X62106286Y-21665875D01*
G37*
G36*
X63204559Y-18406013D02*
G01*
X63399821Y-18406013D01*
X63399821Y-18567938D01*
X62802921Y-18567938D01*
X62802921Y-18406013D01*
X63009296Y-18406013D01*
X63009296Y-17856738D01*
X62907696Y-17913094D01*
X62810859Y-17951988D01*
X62747359Y-17790063D01*
X62829909Y-17753551D01*
X62918809Y-17704338D01*
X63002946Y-17647188D01*
X63071209Y-17585276D01*
X63204559Y-17585276D01*
X63204559Y-18406013D01*
G37*
G36*
X64759586Y-19606938D02*
G01*
X64836572Y-19649080D01*
X64893051Y-19710338D01*
X64926938Y-19792972D01*
X64938234Y-19896981D01*
X64926851Y-20002032D01*
X64892703Y-20085708D01*
X64835790Y-20148009D01*
X64758022Y-20191020D01*
X64661312Y-20216827D01*
X64545660Y-20225429D01*
X64476842Y-20225429D01*
X64476842Y-20552313D01*
X64284466Y-20552313D01*
X64284466Y-20058077D01*
X64476842Y-20058077D01*
X64555044Y-20058077D01*
X64635983Y-20048888D01*
X64694244Y-20021322D01*
X64729435Y-19971468D01*
X64741165Y-19895416D01*
X64729630Y-19823275D01*
X64695026Y-19775767D01*
X64641262Y-19749374D01*
X64572249Y-19740577D01*
X64524546Y-19741359D01*
X64476842Y-19745269D01*
X64476842Y-20058077D01*
X64284466Y-20058077D01*
X64284466Y-19596685D01*
X64347809Y-19585737D01*
X64418973Y-19578699D01*
X64489355Y-19574788D01*
X64550352Y-19573224D01*
X64664180Y-19581653D01*
X64759586Y-19606938D01*
G37*
G36*
X60849488Y-19606938D02*
G01*
X60926473Y-19649080D01*
X60982952Y-19710338D01*
X61016840Y-19792972D01*
X61028136Y-19896981D01*
X61016753Y-20002032D01*
X60982605Y-20085708D01*
X60925691Y-20148009D01*
X60847923Y-20191020D01*
X60751214Y-20216827D01*
X60635562Y-20225429D01*
X60566744Y-20225429D01*
X60566744Y-20552313D01*
X60374367Y-20552313D01*
X60374367Y-20058077D01*
X60566744Y-20058077D01*
X60644946Y-20058077D01*
X60725885Y-20048888D01*
X60784145Y-20021322D01*
X60819336Y-19971468D01*
X60831067Y-19895416D01*
X60819532Y-19823275D01*
X60784927Y-19775767D01*
X60731164Y-19749374D01*
X60662150Y-19740577D01*
X60614447Y-19741359D01*
X60566744Y-19745269D01*
X60566744Y-20058077D01*
X60374367Y-20058077D01*
X60374367Y-19596685D01*
X60437711Y-19585737D01*
X60508874Y-19578699D01*
X60579256Y-19574788D01*
X60640254Y-19573224D01*
X60754081Y-19581653D01*
X60849488Y-19606938D01*
G37*
G36*
X62152046Y-17658102D02*
G01*
X62196496Y-17736882D01*
X62240351Y-17818440D01*
X62283015Y-17899601D01*
X62323496Y-17979372D01*
X62360803Y-18056763D01*
X62393942Y-18128201D01*
X62421921Y-18190113D01*
X62421921Y-17585276D01*
X62598134Y-17585276D01*
X62598134Y-18567938D01*
X62440971Y-18567938D01*
X62395199Y-18459018D01*
X62346780Y-18350274D01*
X62295715Y-18241707D01*
X62242005Y-18133139D01*
X62185649Y-18024396D01*
X62126646Y-17915476D01*
X62126646Y-18567938D01*
X61950434Y-18567938D01*
X61950434Y-17585276D01*
X62107596Y-17585276D01*
X62152046Y-17658102D01*
G37*
G36*
X60697573Y-21576482D02*
G01*
X60767700Y-21590353D01*
X60881754Y-21647380D01*
X60954964Y-21745250D01*
X60974037Y-21809790D01*
X60980394Y-21884734D01*
X60971917Y-21964109D01*
X60946487Y-22035778D01*
X60901405Y-22095502D01*
X60833975Y-22139042D01*
X60889460Y-22227665D01*
X60946487Y-22329388D01*
X60999660Y-22435735D01*
X61043586Y-22536688D01*
X60844763Y-22536688D01*
X60806424Y-22445946D01*
X60762306Y-22358672D01*
X60713563Y-22272554D01*
X60661353Y-22185280D01*
X60562712Y-22185280D01*
X60562712Y-22536688D01*
X60373137Y-22536688D01*
X60373137Y-22028072D01*
X60562712Y-22028072D01*
X60604326Y-22028072D01*
X60687940Y-22018631D01*
X60744581Y-21990311D01*
X60787737Y-21883193D01*
X60776177Y-21817689D01*
X60741499Y-21772222D01*
X60687940Y-21745635D01*
X60619739Y-21736773D01*
X60593538Y-21737544D01*
X60562712Y-21741397D01*
X60562712Y-22028072D01*
X60373137Y-22028072D01*
X60373137Y-21596518D01*
X60434017Y-21584959D01*
X60501062Y-21577252D01*
X60565795Y-21573399D01*
X60619739Y-21571858D01*
X60697573Y-21576482D01*
G37*
G36*
X66937373Y-21578023D02*
G01*
X67032931Y-21628885D01*
X67099205Y-21714425D01*
X67123865Y-21833873D01*
X67105370Y-21928660D01*
X67056050Y-22017283D01*
X66986693Y-22100511D01*
X66908089Y-22177574D01*
X66861851Y-22221500D01*
X66812530Y-22273903D01*
X66773228Y-22328618D01*
X66757045Y-22379479D01*
X67167021Y-22379479D01*
X67167021Y-22536688D01*
X66544351Y-22536688D01*
X66540498Y-22498156D01*
X66541268Y-22465790D01*
X66548397Y-22391809D01*
X66569782Y-22323994D01*
X66602148Y-22261765D01*
X66642221Y-22204546D01*
X66687688Y-22151758D01*
X66736238Y-22102823D01*
X66830255Y-22012659D01*
X66902694Y-21929431D01*
X66931208Y-21847744D01*
X66895758Y-21757580D01*
X66806365Y-21725984D01*
X66712348Y-21747562D01*
X66615249Y-21820001D01*
X66521232Y-21687453D01*
X66587699Y-21631197D01*
X66663799Y-21591894D01*
X66744522Y-21568775D01*
X66824860Y-21561069D01*
X66937373Y-21578023D01*
G37*
G36*
X67762718Y-21951008D02*
G01*
X67857506Y-22017283D01*
X67910680Y-22114382D01*
X67926863Y-22231518D01*
X67909138Y-22344030D01*
X67854424Y-22448836D01*
X67760407Y-22526670D01*
X67697985Y-22549211D01*
X67624775Y-22556724D01*
X67526392Y-22545679D01*
X67444962Y-22512542D01*
X67380485Y-22457313D01*
X67333819Y-22378623D01*
X67305820Y-22275102D01*
X67297720Y-22163703D01*
X67482979Y-22163703D01*
X67489144Y-22249243D01*
X67510722Y-22322453D01*
X67553107Y-22374085D01*
X67620152Y-22393351D01*
X67675637Y-22377938D01*
X67713398Y-22339406D01*
X67734976Y-22288545D01*
X67741911Y-22234601D01*
X67709545Y-22122859D01*
X67597033Y-22083557D01*
X67536924Y-22089722D01*
X67486062Y-22106676D01*
X67483750Y-22134419D01*
X67482979Y-22163703D01*
X67297720Y-22163703D01*
X67296487Y-22146749D01*
X67306698Y-22016127D01*
X67337330Y-21901688D01*
X67386843Y-21803818D01*
X67453695Y-21722902D01*
X67536924Y-21659325D01*
X67635564Y-21613472D01*
X67747691Y-21585729D01*
X67871377Y-21576482D01*
X67882166Y-21738314D01*
X67761948Y-21750644D01*
X67654059Y-21786864D01*
X67568519Y-21852368D01*
X67515346Y-21952550D01*
X67572373Y-21933284D01*
X67621693Y-21926348D01*
X67698563Y-21932513D01*
X67762718Y-21951008D01*
G37*
G36*
X61611969Y-21605081D02*
G01*
X61687834Y-21646609D01*
X61743490Y-21706975D01*
X61776884Y-21788405D01*
X61788016Y-21890899D01*
X61776799Y-21994421D01*
X61743148Y-22076878D01*
X61687063Y-22138272D01*
X61610428Y-22180656D01*
X61515127Y-22206087D01*
X61401159Y-22214564D01*
X61333343Y-22214564D01*
X61333343Y-22536688D01*
X61143768Y-22536688D01*
X61143768Y-22049649D01*
X61333343Y-22049649D01*
X61410407Y-22049649D01*
X61490167Y-22040594D01*
X61547579Y-22013430D01*
X61582257Y-21964302D01*
X61593817Y-21889358D01*
X61582450Y-21818267D01*
X61548350Y-21771451D01*
X61495369Y-21745443D01*
X61427360Y-21736773D01*
X61380352Y-21737544D01*
X61333343Y-21741397D01*
X61333343Y-22049649D01*
X61143768Y-22049649D01*
X61143768Y-21594977D01*
X61206189Y-21584188D01*
X61276317Y-21577252D01*
X61345674Y-21573399D01*
X61405783Y-21571858D01*
X61517952Y-21580164D01*
X61611969Y-21605081D01*
G37*
G36*
X64694494Y-21605081D02*
G01*
X64770358Y-21646609D01*
X64826015Y-21706975D01*
X64859409Y-21788405D01*
X64870540Y-21890899D01*
X64859323Y-21994421D01*
X64825672Y-22076878D01*
X64769587Y-22138272D01*
X64692952Y-22180656D01*
X64597651Y-22206087D01*
X64483683Y-22214564D01*
X64415868Y-22214564D01*
X64415868Y-22536688D01*
X64226292Y-22536688D01*
X64226292Y-22049649D01*
X64415868Y-22049649D01*
X64492931Y-22049649D01*
X64572691Y-22040594D01*
X64630103Y-22013430D01*
X64664782Y-21964302D01*
X64676341Y-21889358D01*
X64664974Y-21818267D01*
X64630874Y-21771451D01*
X64577893Y-21745443D01*
X64509885Y-21736773D01*
X64462876Y-21737544D01*
X64415868Y-21741397D01*
X64415868Y-22049649D01*
X64226292Y-22049649D01*
X64226292Y-21594977D01*
X64288714Y-21584188D01*
X64358841Y-21577252D01*
X64428198Y-21573399D01*
X64488307Y-21571858D01*
X64600477Y-21580164D01*
X64694494Y-21605081D01*
G37*
G36*
X60991584Y-17747201D02*
G01*
X60585184Y-17747201D01*
X60585184Y-17985326D01*
X60940784Y-17985326D01*
X60940784Y-18147251D01*
X60585184Y-18147251D01*
X60585184Y-18567938D01*
X60389921Y-18567938D01*
X60389921Y-17585276D01*
X60991584Y-17585276D01*
X60991584Y-17747201D01*
G37*
G36*
X65681153Y-19743705D02*
G01*
X65471572Y-19743705D01*
X65471572Y-20392781D01*
X65681153Y-20392781D01*
X65681153Y-20552313D01*
X65066485Y-20552313D01*
X65066485Y-20392781D01*
X65277631Y-20392781D01*
X65277631Y-19743705D01*
X65066485Y-19743705D01*
X65066485Y-19584173D01*
X65681153Y-19584173D01*
X65681153Y-19743705D01*
G37*
G36*
X65602640Y-21739856D02*
G01*
X65396110Y-21739856D01*
X65396110Y-22379479D01*
X65602640Y-22379479D01*
X65602640Y-22536688D01*
X64996924Y-22536688D01*
X64996924Y-22379479D01*
X65204994Y-22379479D01*
X65204994Y-21739856D01*
X64996924Y-21739856D01*
X64996924Y-21582647D01*
X65602640Y-21582647D01*
X65602640Y-21739856D01*
G37*
G36*
X67000420Y-19976747D02*
G01*
X67024663Y-20050256D01*
X67000420Y-20122984D01*
X66938641Y-20153483D01*
X66874515Y-20122984D01*
X66851054Y-20050256D01*
X66874515Y-19976747D01*
X66938641Y-19945466D01*
X67000420Y-19976747D01*
G37*
%TO.C,kibuzzard-62F42888*%
G36*
X57649188Y-22975133D02*
G01*
X57665856Y-23069787D01*
X57685898Y-23172181D01*
X57707925Y-23277750D01*
X57731738Y-23384113D01*
X57757138Y-23488888D01*
X57783133Y-23587511D01*
X57808731Y-23675419D01*
X57834131Y-23588702D01*
X57859531Y-23490475D01*
X57884138Y-23385700D01*
X57907156Y-23279337D01*
X57928588Y-23173570D01*
X57948431Y-23070581D01*
X57965894Y-22975331D01*
X57980181Y-22892781D01*
X58184969Y-22892781D01*
X58163736Y-22993587D01*
X58138138Y-23105506D01*
X58108372Y-23225958D01*
X58074638Y-23352362D01*
X58050031Y-23439146D01*
X58023838Y-23526988D01*
X57996056Y-23615888D01*
X57967128Y-23704347D01*
X57937495Y-23790865D01*
X57907156Y-23875444D01*
X57705544Y-23875444D01*
X57666253Y-23758763D01*
X57624581Y-23627794D01*
X57596535Y-23535807D01*
X57569548Y-23443997D01*
X57543619Y-23352362D01*
X57519101Y-23262492D01*
X57496347Y-23175974D01*
X57475356Y-23092806D01*
X57449163Y-22981681D01*
X57430906Y-22892781D01*
X57637281Y-22892781D01*
X57649188Y-22975133D01*
G37*
G36*
X57370581Y-23483331D02*
G01*
X57370581Y-23643669D01*
X57264219Y-23643669D01*
X57264219Y-23875444D01*
X57068956Y-23875444D01*
X57068956Y-23643669D01*
X56659381Y-23643669D01*
X56659381Y-23500794D01*
X56668506Y-23483331D01*
X56846706Y-23483331D01*
X57068956Y-23483331D01*
X57068956Y-23137256D01*
X57010219Y-23215044D01*
X56950687Y-23301562D01*
X56894331Y-23392844D01*
X56846706Y-23483331D01*
X56668506Y-23483331D01*
X56693909Y-23434714D01*
X56737169Y-23360300D01*
X56787175Y-23280727D01*
X56841944Y-23199169D01*
X56900681Y-23117214D01*
X56962594Y-23036450D01*
X57026094Y-22960448D01*
X57089594Y-22892781D01*
X57264219Y-22892781D01*
X57264219Y-23483331D01*
X57370581Y-23483331D01*
G37*
G36*
X56319656Y-22888019D02*
G01*
X56418081Y-22940406D01*
X56486344Y-23028512D01*
X56511744Y-23151544D01*
X56492694Y-23249175D01*
X56441894Y-23340456D01*
X56370456Y-23426181D01*
X56289494Y-23505556D01*
X56241869Y-23550800D01*
X56191069Y-23604775D01*
X56150587Y-23661131D01*
X56133919Y-23713519D01*
X56556194Y-23713519D01*
X56556194Y-23875444D01*
X55914844Y-23875444D01*
X55910875Y-23835756D01*
X55911669Y-23802419D01*
X55919011Y-23726219D01*
X55941037Y-23656369D01*
X55974375Y-23592273D01*
X56015650Y-23533338D01*
X56062481Y-23478966D01*
X56112487Y-23428563D01*
X56162494Y-23381136D01*
X56209325Y-23335694D01*
X56283937Y-23249969D01*
X56313306Y-23165831D01*
X56276794Y-23072962D01*
X56184719Y-23040419D01*
X56087881Y-23062644D01*
X55987869Y-23137256D01*
X55891031Y-23000731D01*
X55959492Y-22942787D01*
X56037875Y-22902306D01*
X56121020Y-22878494D01*
X56203769Y-22870556D01*
X56319656Y-22888019D01*
G37*
%TO.C,kibuzzard-62F4287A*%
G36*
X52819219Y-22975133D02*
G01*
X52835888Y-23069787D01*
X52855930Y-23172181D01*
X52877956Y-23277750D01*
X52901769Y-23384113D01*
X52927169Y-23488888D01*
X52953164Y-23587511D01*
X52978763Y-23675419D01*
X53004163Y-23588702D01*
X53029563Y-23490475D01*
X53054169Y-23385700D01*
X53077188Y-23279337D01*
X53098619Y-23173570D01*
X53118463Y-23070581D01*
X53135925Y-22975331D01*
X53150213Y-22892781D01*
X53355000Y-22892781D01*
X53333767Y-22993587D01*
X53308169Y-23105506D01*
X53278403Y-23225958D01*
X53244669Y-23352362D01*
X53220063Y-23439146D01*
X53193869Y-23526988D01*
X53166088Y-23615888D01*
X53137160Y-23704347D01*
X53107526Y-23790865D01*
X53077188Y-23875444D01*
X52875575Y-23875444D01*
X52836284Y-23758763D01*
X52794613Y-23627794D01*
X52766567Y-23535807D01*
X52739579Y-23443997D01*
X52713650Y-23352362D01*
X52689132Y-23262492D01*
X52666378Y-23175974D01*
X52645388Y-23092806D01*
X52619194Y-22981681D01*
X52600938Y-22892781D01*
X52807313Y-22892781D01*
X52819219Y-22975133D01*
G37*
G36*
X52283438Y-22888019D02*
G01*
X52381863Y-22940406D01*
X52450125Y-23028512D01*
X52475525Y-23151544D01*
X52456475Y-23249175D01*
X52405675Y-23340456D01*
X52334238Y-23426181D01*
X52253275Y-23505556D01*
X52205650Y-23550800D01*
X52154850Y-23604775D01*
X52114369Y-23661131D01*
X52097700Y-23713519D01*
X52519975Y-23713519D01*
X52519975Y-23875444D01*
X51878625Y-23875444D01*
X51874656Y-23835756D01*
X51875450Y-23802419D01*
X51882792Y-23726219D01*
X51904819Y-23656369D01*
X51938156Y-23592273D01*
X51979431Y-23533338D01*
X52026262Y-23478966D01*
X52076269Y-23428563D01*
X52126275Y-23381136D01*
X52173106Y-23335694D01*
X52247719Y-23249969D01*
X52277088Y-23165831D01*
X52240575Y-23072962D01*
X52148500Y-23040419D01*
X52051662Y-23062644D01*
X51951650Y-23137256D01*
X51854812Y-23000731D01*
X51923273Y-22942787D01*
X52001656Y-22902306D01*
X52084802Y-22878494D01*
X52167550Y-22870556D01*
X52283438Y-22888019D01*
G37*
G36*
X51526200Y-23713519D02*
G01*
X51721462Y-23713519D01*
X51721462Y-23875444D01*
X51124562Y-23875444D01*
X51124562Y-23713519D01*
X51330937Y-23713519D01*
X51330937Y-23164244D01*
X51229337Y-23220600D01*
X51132500Y-23259494D01*
X51069000Y-23097569D01*
X51151550Y-23061056D01*
X51240450Y-23011844D01*
X51324587Y-22954694D01*
X51392850Y-22892781D01*
X51526200Y-22892781D01*
X51526200Y-23713519D01*
G37*
%TO.C,kibuzzard-62F426613*%
G36*
X29910881Y-57805437D02*
G01*
X30009306Y-57857825D01*
X30077569Y-57945931D01*
X30102969Y-58068962D01*
X30083919Y-58166594D01*
X30033119Y-58257875D01*
X29961681Y-58343600D01*
X29880719Y-58422975D01*
X29833094Y-58468219D01*
X29782294Y-58522194D01*
X29741812Y-58578550D01*
X29725144Y-58630938D01*
X30147419Y-58630938D01*
X30147419Y-58792863D01*
X29506069Y-58792863D01*
X29502100Y-58753175D01*
X29502894Y-58719838D01*
X29510236Y-58643638D01*
X29532262Y-58573788D01*
X29565600Y-58509692D01*
X29606875Y-58450756D01*
X29653706Y-58396384D01*
X29703712Y-58345981D01*
X29753719Y-58298555D01*
X29800550Y-58253112D01*
X29875162Y-58167387D01*
X29904531Y-58083250D01*
X29868019Y-57990381D01*
X29775944Y-57957837D01*
X29679106Y-57980062D01*
X29579094Y-58054675D01*
X29482256Y-57918150D01*
X29550717Y-57860206D01*
X29629100Y-57819725D01*
X29712245Y-57795912D01*
X29794994Y-57787975D01*
X29910881Y-57805437D01*
G37*
G36*
X27271662Y-57892552D02*
G01*
X27288331Y-57987206D01*
X27308373Y-58089600D01*
X27330400Y-58195169D01*
X27354212Y-58301531D01*
X27379612Y-58406306D01*
X27405608Y-58504930D01*
X27431206Y-58592838D01*
X27456606Y-58506120D01*
X27482006Y-58407894D01*
X27506612Y-58303119D01*
X27529631Y-58196756D01*
X27551062Y-58090989D01*
X27570906Y-57988000D01*
X27588369Y-57892750D01*
X27602656Y-57810200D01*
X27807444Y-57810200D01*
X27786211Y-57911006D01*
X27760612Y-58022925D01*
X27730847Y-58143377D01*
X27697112Y-58269781D01*
X27672506Y-58356565D01*
X27646312Y-58444406D01*
X27618531Y-58533306D01*
X27589603Y-58621765D01*
X27559970Y-58708284D01*
X27529631Y-58792863D01*
X27328019Y-58792863D01*
X27288728Y-58676181D01*
X27247056Y-58545213D01*
X27219010Y-58453226D01*
X27192023Y-58361415D01*
X27166094Y-58269781D01*
X27141576Y-58179911D01*
X27118822Y-58093392D01*
X27097831Y-58010225D01*
X27071637Y-57899100D01*
X27053381Y-57810200D01*
X27259756Y-57810200D01*
X27271662Y-57892552D01*
G37*
G36*
X26912094Y-57972125D02*
G01*
X26573956Y-57972125D01*
X26566019Y-58078487D01*
X26558081Y-58168975D01*
X26678202Y-58185203D01*
X26776098Y-58216953D01*
X26851769Y-58264225D01*
X26905567Y-58326667D01*
X26937847Y-58403925D01*
X26948606Y-58496000D01*
X26924794Y-58622206D01*
X26851769Y-58723013D01*
X26796603Y-58761113D01*
X26729531Y-58789688D01*
X26650553Y-58807547D01*
X26559669Y-58813500D01*
X26481881Y-58808738D01*
X26405681Y-58796831D01*
X26339800Y-58780163D01*
X26294556Y-58762700D01*
X26334244Y-58600775D01*
X26423144Y-58632525D01*
X26483866Y-58643241D01*
X26558081Y-58646813D01*
X26652537Y-58634113D01*
X26711275Y-58601569D01*
X26740644Y-58556325D01*
X26748581Y-58503938D01*
X26735087Y-58428531D01*
X26681112Y-58369794D01*
X26566019Y-58331694D01*
X26479897Y-58321573D01*
X26370756Y-58318200D01*
X26385044Y-58186239D01*
X26396156Y-58057056D01*
X26404491Y-57931445D01*
X26410444Y-57810200D01*
X26912094Y-57810200D01*
X26912094Y-57972125D01*
G37*
G36*
X33343056Y-58400750D02*
G01*
X33343056Y-58561088D01*
X33236694Y-58561088D01*
X33236694Y-58792863D01*
X33041431Y-58792863D01*
X33041431Y-58561088D01*
X32631856Y-58561088D01*
X32631856Y-58418213D01*
X32640981Y-58400750D01*
X32819181Y-58400750D01*
X33041431Y-58400750D01*
X33041431Y-58054675D01*
X32982694Y-58132462D01*
X32923163Y-58218981D01*
X32866806Y-58310262D01*
X32819181Y-58400750D01*
X32640981Y-58400750D01*
X32666384Y-58352133D01*
X32709644Y-58277719D01*
X32759650Y-58198145D01*
X32814419Y-58116588D01*
X32873156Y-58034633D01*
X32935069Y-57953869D01*
X32998569Y-57877867D01*
X33062069Y-57810200D01*
X33236694Y-57810200D01*
X33236694Y-58400750D01*
X33343056Y-58400750D01*
G37*
G36*
X31498381Y-59054800D02*
G01*
X31301531Y-59054800D01*
X31301531Y-57683200D01*
X31498381Y-57683200D01*
X31498381Y-59054800D01*
G37*
G36*
X28323381Y-59054800D02*
G01*
X28126531Y-59054800D01*
X28126531Y-57683200D01*
X28323381Y-57683200D01*
X28323381Y-59054800D01*
G37*
G36*
X30446663Y-57892552D02*
G01*
X30463331Y-57987206D01*
X30483373Y-58089600D01*
X30505400Y-58195169D01*
X30529213Y-58301531D01*
X30554613Y-58406306D01*
X30580608Y-58504930D01*
X30606206Y-58592838D01*
X30631606Y-58506120D01*
X30657006Y-58407894D01*
X30681613Y-58303119D01*
X30704631Y-58196756D01*
X30726062Y-58090989D01*
X30745906Y-57988000D01*
X30763369Y-57892750D01*
X30777656Y-57810200D01*
X30982444Y-57810200D01*
X30961211Y-57911006D01*
X30935613Y-58022925D01*
X30905847Y-58143377D01*
X30872113Y-58269781D01*
X30847506Y-58356565D01*
X30821313Y-58444406D01*
X30793531Y-58533306D01*
X30764603Y-58621765D01*
X30734970Y-58708284D01*
X30704631Y-58792863D01*
X30503019Y-58792863D01*
X30463728Y-58676181D01*
X30422056Y-58545213D01*
X30394010Y-58453226D01*
X30367023Y-58361415D01*
X30341094Y-58269781D01*
X30316576Y-58179911D01*
X30293822Y-58093392D01*
X30272831Y-58010225D01*
X30246638Y-57899100D01*
X30228381Y-57810200D01*
X30434756Y-57810200D01*
X30446663Y-57892552D01*
G37*
G36*
X33621663Y-57892552D02*
G01*
X33638331Y-57987206D01*
X33658373Y-58089600D01*
X33680400Y-58195169D01*
X33704213Y-58301531D01*
X33729613Y-58406306D01*
X33755608Y-58504930D01*
X33781206Y-58592838D01*
X33806606Y-58506120D01*
X33832006Y-58407894D01*
X33856613Y-58303119D01*
X33879631Y-58196756D01*
X33901063Y-58090989D01*
X33920906Y-57988000D01*
X33938369Y-57892750D01*
X33952656Y-57810200D01*
X34157444Y-57810200D01*
X34136211Y-57911006D01*
X34110613Y-58022925D01*
X34080847Y-58143377D01*
X34047113Y-58269781D01*
X34022506Y-58356565D01*
X33996313Y-58444406D01*
X33968531Y-58533306D01*
X33939603Y-58621765D01*
X33909970Y-58708284D01*
X33879631Y-58792863D01*
X33678019Y-58792863D01*
X33638728Y-58676181D01*
X33597056Y-58545213D01*
X33569010Y-58453226D01*
X33542023Y-58361415D01*
X33516094Y-58269781D01*
X33491576Y-58179911D01*
X33468822Y-58093392D01*
X33447831Y-58010225D01*
X33421638Y-57899100D01*
X33403381Y-57810200D01*
X33609756Y-57810200D01*
X33621663Y-57892552D01*
G37*
G36*
X29153644Y-58630938D02*
G01*
X29348906Y-58630938D01*
X29348906Y-58792863D01*
X28752006Y-58792863D01*
X28752006Y-58630938D01*
X28958381Y-58630938D01*
X28958381Y-58081662D01*
X28856781Y-58138019D01*
X28759944Y-58176912D01*
X28696444Y-58014987D01*
X28778994Y-57978475D01*
X28867894Y-57929262D01*
X28952031Y-57872112D01*
X29020294Y-57810200D01*
X29153644Y-57810200D01*
X29153644Y-58630938D01*
G37*
G36*
X32292131Y-57805437D02*
G01*
X32390556Y-57857825D01*
X32458819Y-57945931D01*
X32484219Y-58068962D01*
X32465169Y-58166594D01*
X32414369Y-58257875D01*
X32342931Y-58343600D01*
X32261969Y-58422975D01*
X32214344Y-58468219D01*
X32163544Y-58522194D01*
X32123063Y-58578550D01*
X32106394Y-58630938D01*
X32528669Y-58630938D01*
X32528669Y-58792863D01*
X31887319Y-58792863D01*
X31883350Y-58753175D01*
X31884144Y-58719838D01*
X31891486Y-58643638D01*
X31913513Y-58573788D01*
X31946850Y-58509692D01*
X31988125Y-58450756D01*
X32034956Y-58396384D01*
X32084963Y-58345981D01*
X32134969Y-58298555D01*
X32181800Y-58253112D01*
X32256413Y-58167387D01*
X32285781Y-58083250D01*
X32249269Y-57990381D01*
X32157194Y-57957837D01*
X32060356Y-57980062D01*
X31960344Y-58054675D01*
X31863506Y-57918150D01*
X31931967Y-57860206D01*
X32010350Y-57819725D01*
X32093495Y-57795912D01*
X32176244Y-57787975D01*
X32292131Y-57805437D01*
G37*
%TO.C,kibuzzard-62F426612*%
G36*
X29910881Y-49931437D02*
G01*
X30009306Y-49983825D01*
X30077569Y-50071931D01*
X30102969Y-50194962D01*
X30083919Y-50292594D01*
X30033119Y-50383875D01*
X29961681Y-50469600D01*
X29880719Y-50548975D01*
X29833094Y-50594219D01*
X29782294Y-50648194D01*
X29741812Y-50704550D01*
X29725144Y-50756938D01*
X30147419Y-50756938D01*
X30147419Y-50918863D01*
X29506069Y-50918863D01*
X29502100Y-50879175D01*
X29502894Y-50845838D01*
X29510236Y-50769638D01*
X29532262Y-50699788D01*
X29565600Y-50635692D01*
X29606875Y-50576756D01*
X29653706Y-50522384D01*
X29703712Y-50471981D01*
X29753719Y-50424555D01*
X29800550Y-50379112D01*
X29875162Y-50293387D01*
X29904531Y-50209250D01*
X29868019Y-50116381D01*
X29775944Y-50083837D01*
X29679106Y-50106062D01*
X29579094Y-50180675D01*
X29482256Y-50044150D01*
X29550717Y-49986206D01*
X29629100Y-49945725D01*
X29712245Y-49921912D01*
X29794994Y-49913975D01*
X29910881Y-49931437D01*
G37*
G36*
X27271662Y-50018552D02*
G01*
X27288331Y-50113206D01*
X27308373Y-50215600D01*
X27330400Y-50321169D01*
X27354212Y-50427531D01*
X27379612Y-50532306D01*
X27405608Y-50630930D01*
X27431206Y-50718838D01*
X27456606Y-50632120D01*
X27482006Y-50533894D01*
X27506612Y-50429119D01*
X27529631Y-50322756D01*
X27551062Y-50216989D01*
X27570906Y-50114000D01*
X27588369Y-50018750D01*
X27602656Y-49936200D01*
X27807444Y-49936200D01*
X27786211Y-50037006D01*
X27760612Y-50148925D01*
X27730847Y-50269377D01*
X27697112Y-50395781D01*
X27672506Y-50482565D01*
X27646312Y-50570406D01*
X27618531Y-50659306D01*
X27589603Y-50747765D01*
X27559970Y-50834284D01*
X27529631Y-50918863D01*
X27328019Y-50918863D01*
X27288728Y-50802181D01*
X27247056Y-50671213D01*
X27219010Y-50579226D01*
X27192023Y-50487415D01*
X27166094Y-50395781D01*
X27141576Y-50305911D01*
X27118822Y-50219392D01*
X27097831Y-50136225D01*
X27071637Y-50025100D01*
X27053381Y-49936200D01*
X27259756Y-49936200D01*
X27271662Y-50018552D01*
G37*
G36*
X26912094Y-50098125D02*
G01*
X26573956Y-50098125D01*
X26566019Y-50204487D01*
X26558081Y-50294975D01*
X26678202Y-50311203D01*
X26776098Y-50342953D01*
X26851769Y-50390225D01*
X26905567Y-50452667D01*
X26937847Y-50529925D01*
X26948606Y-50622000D01*
X26924794Y-50748206D01*
X26851769Y-50849013D01*
X26796603Y-50887113D01*
X26729531Y-50915688D01*
X26650553Y-50933547D01*
X26559669Y-50939500D01*
X26481881Y-50934738D01*
X26405681Y-50922831D01*
X26339800Y-50906163D01*
X26294556Y-50888700D01*
X26334244Y-50726775D01*
X26423144Y-50758525D01*
X26483866Y-50769241D01*
X26558081Y-50772813D01*
X26652537Y-50760113D01*
X26711275Y-50727569D01*
X26740644Y-50682325D01*
X26748581Y-50629938D01*
X26735087Y-50554531D01*
X26681112Y-50495794D01*
X26566019Y-50457694D01*
X26479897Y-50447573D01*
X26370756Y-50444200D01*
X26385044Y-50312239D01*
X26396156Y-50183056D01*
X26404491Y-50057445D01*
X26410444Y-49936200D01*
X26912094Y-49936200D01*
X26912094Y-50098125D01*
G37*
G36*
X33343056Y-50526750D02*
G01*
X33343056Y-50687088D01*
X33236694Y-50687088D01*
X33236694Y-50918863D01*
X33041431Y-50918863D01*
X33041431Y-50687088D01*
X32631856Y-50687088D01*
X32631856Y-50544213D01*
X32640981Y-50526750D01*
X32819181Y-50526750D01*
X33041431Y-50526750D01*
X33041431Y-50180675D01*
X32982694Y-50258462D01*
X32923163Y-50344981D01*
X32866806Y-50436262D01*
X32819181Y-50526750D01*
X32640981Y-50526750D01*
X32666384Y-50478133D01*
X32709644Y-50403719D01*
X32759650Y-50324145D01*
X32814419Y-50242588D01*
X32873156Y-50160633D01*
X32935069Y-50079869D01*
X32998569Y-50003867D01*
X33062069Y-49936200D01*
X33236694Y-49936200D01*
X33236694Y-50526750D01*
X33343056Y-50526750D01*
G37*
G36*
X31498381Y-51180800D02*
G01*
X31301531Y-51180800D01*
X31301531Y-49809200D01*
X31498381Y-49809200D01*
X31498381Y-51180800D01*
G37*
G36*
X28323381Y-51180800D02*
G01*
X28126531Y-51180800D01*
X28126531Y-49809200D01*
X28323381Y-49809200D01*
X28323381Y-51180800D01*
G37*
G36*
X30446663Y-50018552D02*
G01*
X30463331Y-50113206D01*
X30483373Y-50215600D01*
X30505400Y-50321169D01*
X30529213Y-50427531D01*
X30554613Y-50532306D01*
X30580608Y-50630930D01*
X30606206Y-50718838D01*
X30631606Y-50632120D01*
X30657006Y-50533894D01*
X30681613Y-50429119D01*
X30704631Y-50322756D01*
X30726062Y-50216989D01*
X30745906Y-50114000D01*
X30763369Y-50018750D01*
X30777656Y-49936200D01*
X30982444Y-49936200D01*
X30961211Y-50037006D01*
X30935613Y-50148925D01*
X30905847Y-50269377D01*
X30872113Y-50395781D01*
X30847506Y-50482565D01*
X30821313Y-50570406D01*
X30793531Y-50659306D01*
X30764603Y-50747765D01*
X30734970Y-50834284D01*
X30704631Y-50918863D01*
X30503019Y-50918863D01*
X30463728Y-50802181D01*
X30422056Y-50671213D01*
X30394010Y-50579226D01*
X30367023Y-50487415D01*
X30341094Y-50395781D01*
X30316576Y-50305911D01*
X30293822Y-50219392D01*
X30272831Y-50136225D01*
X30246638Y-50025100D01*
X30228381Y-49936200D01*
X30434756Y-49936200D01*
X30446663Y-50018552D01*
G37*
G36*
X33621663Y-50018552D02*
G01*
X33638331Y-50113206D01*
X33658373Y-50215600D01*
X33680400Y-50321169D01*
X33704213Y-50427531D01*
X33729613Y-50532306D01*
X33755608Y-50630930D01*
X33781206Y-50718838D01*
X33806606Y-50632120D01*
X33832006Y-50533894D01*
X33856613Y-50429119D01*
X33879631Y-50322756D01*
X33901063Y-50216989D01*
X33920906Y-50114000D01*
X33938369Y-50018750D01*
X33952656Y-49936200D01*
X34157444Y-49936200D01*
X34136211Y-50037006D01*
X34110613Y-50148925D01*
X34080847Y-50269377D01*
X34047113Y-50395781D01*
X34022506Y-50482565D01*
X33996313Y-50570406D01*
X33968531Y-50659306D01*
X33939603Y-50747765D01*
X33909970Y-50834284D01*
X33879631Y-50918863D01*
X33678019Y-50918863D01*
X33638728Y-50802181D01*
X33597056Y-50671213D01*
X33569010Y-50579226D01*
X33542023Y-50487415D01*
X33516094Y-50395781D01*
X33491576Y-50305911D01*
X33468822Y-50219392D01*
X33447831Y-50136225D01*
X33421638Y-50025100D01*
X33403381Y-49936200D01*
X33609756Y-49936200D01*
X33621663Y-50018552D01*
G37*
G36*
X29153644Y-50756938D02*
G01*
X29348906Y-50756938D01*
X29348906Y-50918863D01*
X28752006Y-50918863D01*
X28752006Y-50756938D01*
X28958381Y-50756938D01*
X28958381Y-50207662D01*
X28856781Y-50264019D01*
X28759944Y-50302912D01*
X28696444Y-50140987D01*
X28778994Y-50104475D01*
X28867894Y-50055262D01*
X28952031Y-49998112D01*
X29020294Y-49936200D01*
X29153644Y-49936200D01*
X29153644Y-50756938D01*
G37*
G36*
X32292131Y-49931437D02*
G01*
X32390556Y-49983825D01*
X32458819Y-50071931D01*
X32484219Y-50194962D01*
X32465169Y-50292594D01*
X32414369Y-50383875D01*
X32342931Y-50469600D01*
X32261969Y-50548975D01*
X32214344Y-50594219D01*
X32163544Y-50648194D01*
X32123063Y-50704550D01*
X32106394Y-50756938D01*
X32528669Y-50756938D01*
X32528669Y-50918863D01*
X31887319Y-50918863D01*
X31883350Y-50879175D01*
X31884144Y-50845838D01*
X31891486Y-50769638D01*
X31913513Y-50699788D01*
X31946850Y-50635692D01*
X31988125Y-50576756D01*
X32034956Y-50522384D01*
X32084963Y-50471981D01*
X32134969Y-50424555D01*
X32181800Y-50379112D01*
X32256413Y-50293387D01*
X32285781Y-50209250D01*
X32249269Y-50116381D01*
X32157194Y-50083837D01*
X32060356Y-50106062D01*
X31960344Y-50180675D01*
X31863506Y-50044150D01*
X31931967Y-49986206D01*
X32010350Y-49945725D01*
X32093495Y-49921912D01*
X32176244Y-49913975D01*
X32292131Y-49931437D01*
G37*
%TO.C,kibuzzard-62F42661*%
G36*
X29153644Y-42425938D02*
G01*
X29348906Y-42425938D01*
X29348906Y-42587863D01*
X28752006Y-42587863D01*
X28752006Y-42425938D01*
X28958381Y-42425938D01*
X28958381Y-41876662D01*
X28856781Y-41933019D01*
X28759944Y-41971912D01*
X28696444Y-41809987D01*
X28778994Y-41773475D01*
X28867894Y-41724262D01*
X28952031Y-41667112D01*
X29020294Y-41605200D01*
X29153644Y-41605200D01*
X29153644Y-42425938D01*
G37*
G36*
X26912094Y-41767125D02*
G01*
X26573956Y-41767125D01*
X26566019Y-41873487D01*
X26558081Y-41963975D01*
X26678202Y-41980203D01*
X26776098Y-42011953D01*
X26851769Y-42059225D01*
X26905567Y-42121667D01*
X26937847Y-42198925D01*
X26948606Y-42291000D01*
X26924794Y-42417206D01*
X26851769Y-42518013D01*
X26796603Y-42556113D01*
X26729531Y-42584688D01*
X26650553Y-42602547D01*
X26559669Y-42608500D01*
X26481881Y-42603738D01*
X26405681Y-42591831D01*
X26339800Y-42575163D01*
X26294556Y-42557700D01*
X26334244Y-42395775D01*
X26423144Y-42427525D01*
X26483866Y-42438241D01*
X26558081Y-42441813D01*
X26652537Y-42429113D01*
X26711275Y-42396569D01*
X26740644Y-42351325D01*
X26748581Y-42298938D01*
X26735087Y-42223531D01*
X26681112Y-42164794D01*
X26566019Y-42126694D01*
X26479897Y-42116573D01*
X26370756Y-42113200D01*
X26385044Y-41981239D01*
X26396156Y-41852056D01*
X26404491Y-41726445D01*
X26410444Y-41605200D01*
X26912094Y-41605200D01*
X26912094Y-41767125D01*
G37*
G36*
X32292131Y-41600437D02*
G01*
X32390556Y-41652825D01*
X32458819Y-41740931D01*
X32484219Y-41863962D01*
X32465169Y-41961594D01*
X32414369Y-42052875D01*
X32342931Y-42138600D01*
X32261969Y-42217975D01*
X32214344Y-42263219D01*
X32163544Y-42317194D01*
X32123063Y-42373550D01*
X32106394Y-42425938D01*
X32528669Y-42425938D01*
X32528669Y-42587863D01*
X31887319Y-42587863D01*
X31883350Y-42548175D01*
X31884144Y-42514838D01*
X31891486Y-42438638D01*
X31913513Y-42368788D01*
X31946850Y-42304692D01*
X31988125Y-42245756D01*
X32034956Y-42191384D01*
X32084963Y-42140981D01*
X32134969Y-42093555D01*
X32181800Y-42048112D01*
X32256413Y-41962387D01*
X32285781Y-41878250D01*
X32249269Y-41785381D01*
X32157194Y-41752837D01*
X32060356Y-41775062D01*
X31960344Y-41849675D01*
X31863506Y-41713150D01*
X31931967Y-41655206D01*
X32010350Y-41614725D01*
X32093495Y-41590912D01*
X32176244Y-41582975D01*
X32292131Y-41600437D01*
G37*
G36*
X29910881Y-41600437D02*
G01*
X30009306Y-41652825D01*
X30077569Y-41740931D01*
X30102969Y-41863962D01*
X30083919Y-41961594D01*
X30033119Y-42052875D01*
X29961681Y-42138600D01*
X29880719Y-42217975D01*
X29833094Y-42263219D01*
X29782294Y-42317194D01*
X29741812Y-42373550D01*
X29725144Y-42425938D01*
X30147419Y-42425938D01*
X30147419Y-42587863D01*
X29506069Y-42587863D01*
X29502100Y-42548175D01*
X29502894Y-42514838D01*
X29510236Y-42438638D01*
X29532262Y-42368788D01*
X29565600Y-42304692D01*
X29606875Y-42245756D01*
X29653706Y-42191384D01*
X29703712Y-42140981D01*
X29753719Y-42093555D01*
X29800550Y-42048112D01*
X29875162Y-41962387D01*
X29904531Y-41878250D01*
X29868019Y-41785381D01*
X29775944Y-41752837D01*
X29679106Y-41775062D01*
X29579094Y-41849675D01*
X29482256Y-41713150D01*
X29550717Y-41655206D01*
X29629100Y-41614725D01*
X29712245Y-41590912D01*
X29794994Y-41582975D01*
X29910881Y-41600437D01*
G37*
G36*
X33343056Y-42195750D02*
G01*
X33343056Y-42356088D01*
X33236694Y-42356088D01*
X33236694Y-42587863D01*
X33041431Y-42587863D01*
X33041431Y-42356088D01*
X32631856Y-42356088D01*
X32631856Y-42213213D01*
X32640981Y-42195750D01*
X32819181Y-42195750D01*
X33041431Y-42195750D01*
X33041431Y-41849675D01*
X32982694Y-41927462D01*
X32923163Y-42013981D01*
X32866806Y-42105262D01*
X32819181Y-42195750D01*
X32640981Y-42195750D01*
X32666384Y-42147133D01*
X32709644Y-42072719D01*
X32759650Y-41993145D01*
X32814419Y-41911588D01*
X32873156Y-41829633D01*
X32935069Y-41748869D01*
X32998569Y-41672867D01*
X33062069Y-41605200D01*
X33236694Y-41605200D01*
X33236694Y-42195750D01*
X33343056Y-42195750D01*
G37*
G36*
X27271662Y-41687552D02*
G01*
X27288331Y-41782206D01*
X27308373Y-41884600D01*
X27330400Y-41990169D01*
X27354212Y-42096531D01*
X27379612Y-42201306D01*
X27405608Y-42299930D01*
X27431206Y-42387838D01*
X27456606Y-42301120D01*
X27482006Y-42202894D01*
X27506612Y-42098119D01*
X27529631Y-41991756D01*
X27551062Y-41885989D01*
X27570906Y-41783000D01*
X27588369Y-41687750D01*
X27602656Y-41605200D01*
X27807444Y-41605200D01*
X27786211Y-41706006D01*
X27760612Y-41817925D01*
X27730847Y-41938377D01*
X27697112Y-42064781D01*
X27672506Y-42151565D01*
X27646312Y-42239406D01*
X27618531Y-42328306D01*
X27589603Y-42416765D01*
X27559970Y-42503284D01*
X27529631Y-42587863D01*
X27328019Y-42587863D01*
X27288728Y-42471181D01*
X27247056Y-42340213D01*
X27219010Y-42248226D01*
X27192023Y-42156415D01*
X27166094Y-42064781D01*
X27141576Y-41974911D01*
X27118822Y-41888392D01*
X27097831Y-41805225D01*
X27071637Y-41694100D01*
X27053381Y-41605200D01*
X27259756Y-41605200D01*
X27271662Y-41687552D01*
G37*
G36*
X33621663Y-41687552D02*
G01*
X33638331Y-41782206D01*
X33658373Y-41884600D01*
X33680400Y-41990169D01*
X33704213Y-42096531D01*
X33729613Y-42201306D01*
X33755608Y-42299930D01*
X33781206Y-42387838D01*
X33806606Y-42301120D01*
X33832006Y-42202894D01*
X33856613Y-42098119D01*
X33879631Y-41991756D01*
X33901063Y-41885989D01*
X33920906Y-41783000D01*
X33938369Y-41687750D01*
X33952656Y-41605200D01*
X34157444Y-41605200D01*
X34136211Y-41706006D01*
X34110613Y-41817925D01*
X34080847Y-41938377D01*
X34047113Y-42064781D01*
X34022506Y-42151565D01*
X33996313Y-42239406D01*
X33968531Y-42328306D01*
X33939603Y-42416765D01*
X33909970Y-42503284D01*
X33879631Y-42587863D01*
X33678019Y-42587863D01*
X33638728Y-42471181D01*
X33597056Y-42340213D01*
X33569010Y-42248226D01*
X33542023Y-42156415D01*
X33516094Y-42064781D01*
X33491576Y-41974911D01*
X33468822Y-41888392D01*
X33447831Y-41805225D01*
X33421638Y-41694100D01*
X33403381Y-41605200D01*
X33609756Y-41605200D01*
X33621663Y-41687552D01*
G37*
G36*
X30446663Y-41687552D02*
G01*
X30463331Y-41782206D01*
X30483373Y-41884600D01*
X30505400Y-41990169D01*
X30529213Y-42096531D01*
X30554613Y-42201306D01*
X30580608Y-42299930D01*
X30606206Y-42387838D01*
X30631606Y-42301120D01*
X30657006Y-42202894D01*
X30681613Y-42098119D01*
X30704631Y-41991756D01*
X30726062Y-41885989D01*
X30745906Y-41783000D01*
X30763369Y-41687750D01*
X30777656Y-41605200D01*
X30982444Y-41605200D01*
X30961211Y-41706006D01*
X30935613Y-41817925D01*
X30905847Y-41938377D01*
X30872113Y-42064781D01*
X30847506Y-42151565D01*
X30821313Y-42239406D01*
X30793531Y-42328306D01*
X30764603Y-42416765D01*
X30734970Y-42503284D01*
X30704631Y-42587863D01*
X30503019Y-42587863D01*
X30463728Y-42471181D01*
X30422056Y-42340213D01*
X30394010Y-42248226D01*
X30367023Y-42156415D01*
X30341094Y-42064781D01*
X30316576Y-41974911D01*
X30293822Y-41888392D01*
X30272831Y-41805225D01*
X30246638Y-41694100D01*
X30228381Y-41605200D01*
X30434756Y-41605200D01*
X30446663Y-41687552D01*
G37*
G36*
X31498381Y-42849800D02*
G01*
X31301531Y-42849800D01*
X31301531Y-41478200D01*
X31498381Y-41478200D01*
X31498381Y-42849800D01*
G37*
G36*
X28323381Y-42849800D02*
G01*
X28126531Y-42849800D01*
X28126531Y-41478200D01*
X28323381Y-41478200D01*
X28323381Y-42849800D01*
G37*
%TO.C,kibuzzard-62F425BF*%
G36*
X25521363Y-24385825D02*
G01*
X25481675Y-24471550D01*
X25464213Y-24576325D01*
X25489613Y-24693800D01*
X25560257Y-24772381D01*
X25668207Y-24816831D01*
X25734286Y-24826952D01*
X25807113Y-24830325D01*
X25914269Y-24824151D01*
X26000788Y-24805631D01*
X26066669Y-24774763D01*
X26129177Y-24706103D01*
X26150013Y-24611250D01*
X26148426Y-24573150D01*
X26143663Y-24535050D01*
X25784888Y-24535050D01*
X25784888Y-24339788D01*
X26275426Y-24339788D01*
X26304001Y-24448531D01*
X26315907Y-24530089D01*
X26319876Y-24627125D01*
X26311740Y-24714636D01*
X26287332Y-24793019D01*
X26246851Y-24861480D01*
X26190494Y-24919225D01*
X26118263Y-24965659D01*
X26030157Y-25000188D01*
X25926374Y-25021619D01*
X25807113Y-25028763D01*
X25689043Y-25020428D01*
X25585657Y-24995425D01*
X25497352Y-24956134D01*
X25424525Y-24904938D01*
X25367574Y-24842628D01*
X25326894Y-24770000D01*
X25302486Y-24689434D01*
X25294350Y-24603313D01*
X25303082Y-24500919D01*
X25322925Y-24422338D01*
X25346738Y-24367569D01*
X25365788Y-24335025D01*
X25521363Y-24385825D01*
G37*
G36*
X25933518Y-22741770D02*
G01*
X26039682Y-22767369D01*
X26126796Y-22808048D01*
X26196051Y-22861825D01*
X26248240Y-22927905D01*
X26284157Y-23005494D01*
X26304993Y-23093005D01*
X26311938Y-23188850D01*
X26306382Y-23291244D01*
X26288126Y-23398400D01*
X25329275Y-23398400D01*
X25310225Y-23272987D01*
X25305463Y-23163450D01*
X25306809Y-23145987D01*
X25475325Y-23145987D01*
X25476119Y-23174562D01*
X25480088Y-23203137D01*
X26140488Y-23203137D01*
X26142076Y-23185675D01*
X26142076Y-23168212D01*
X26116676Y-23056294D01*
X26046826Y-22983269D01*
X25941257Y-22943581D01*
X25877161Y-22934652D01*
X25807113Y-22931675D01*
X25683288Y-22941200D01*
X25576925Y-22974537D01*
X25503107Y-23039625D01*
X25475325Y-23145987D01*
X25306809Y-23145987D01*
X25312607Y-23070780D01*
X25334038Y-22986444D01*
X25370749Y-22912427D01*
X25423732Y-22850712D01*
X25493185Y-22801302D01*
X25579307Y-22764194D01*
X25683486Y-22740977D01*
X25807113Y-22733237D01*
X25933518Y-22741770D01*
G37*
G36*
X26299238Y-23714312D02*
G01*
X26190318Y-23760085D01*
X26081574Y-23808504D01*
X25973007Y-23859569D01*
X25864439Y-23913279D01*
X25755696Y-23969635D01*
X25646775Y-24028638D01*
X26299238Y-24028638D01*
X26299238Y-24204850D01*
X25316575Y-24204850D01*
X25316575Y-24047688D01*
X25389402Y-24003238D01*
X25468182Y-23958788D01*
X25549740Y-23914933D01*
X25630900Y-23872269D01*
X25710672Y-23831787D01*
X25788063Y-23794481D01*
X25859501Y-23761342D01*
X25921413Y-23733362D01*
X25316575Y-23733362D01*
X25316575Y-23557150D01*
X26299238Y-23557150D01*
X26299238Y-23714312D01*
G37*
%TO.C,kibuzzard-62F425B31*%
G36*
X25521363Y-35307825D02*
G01*
X25481675Y-35393550D01*
X25464213Y-35498325D01*
X25489613Y-35615800D01*
X25560257Y-35694381D01*
X25668207Y-35738831D01*
X25734286Y-35748952D01*
X25807113Y-35752325D01*
X25914269Y-35746151D01*
X26000788Y-35727631D01*
X26066669Y-35696763D01*
X26129177Y-35628103D01*
X26150013Y-35533250D01*
X26148426Y-35495150D01*
X26143663Y-35457050D01*
X25784888Y-35457050D01*
X25784888Y-35261788D01*
X26275426Y-35261788D01*
X26304001Y-35370531D01*
X26315907Y-35452089D01*
X26319876Y-35549125D01*
X26311740Y-35636636D01*
X26287332Y-35715019D01*
X26246851Y-35783480D01*
X26190494Y-35841225D01*
X26118263Y-35887659D01*
X26030157Y-35922188D01*
X25926374Y-35943619D01*
X25807113Y-35950763D01*
X25689043Y-35942428D01*
X25585657Y-35917425D01*
X25497352Y-35878134D01*
X25424525Y-35826938D01*
X25367574Y-35764628D01*
X25326894Y-35692000D01*
X25302486Y-35611434D01*
X25294350Y-35525313D01*
X25303082Y-35422919D01*
X25322925Y-35344338D01*
X25346738Y-35289569D01*
X25365788Y-35257025D01*
X25521363Y-35307825D01*
G37*
G36*
X25933518Y-33663770D02*
G01*
X26039682Y-33689369D01*
X26126796Y-33730048D01*
X26196051Y-33783825D01*
X26248240Y-33849905D01*
X26284157Y-33927494D01*
X26304993Y-34015005D01*
X26311938Y-34110850D01*
X26306382Y-34213244D01*
X26288126Y-34320400D01*
X25329275Y-34320400D01*
X25310225Y-34194987D01*
X25305463Y-34085450D01*
X25306809Y-34067987D01*
X25475325Y-34067987D01*
X25476119Y-34096562D01*
X25480088Y-34125137D01*
X26140488Y-34125137D01*
X26142076Y-34107675D01*
X26142076Y-34090212D01*
X26116676Y-33978294D01*
X26046826Y-33905269D01*
X25941257Y-33865581D01*
X25877161Y-33856652D01*
X25807113Y-33853675D01*
X25683288Y-33863200D01*
X25576925Y-33896537D01*
X25503107Y-33961625D01*
X25475325Y-34067987D01*
X25306809Y-34067987D01*
X25312607Y-33992780D01*
X25334038Y-33908444D01*
X25370749Y-33834427D01*
X25423732Y-33772712D01*
X25493185Y-33723302D01*
X25579307Y-33686194D01*
X25683486Y-33662977D01*
X25807113Y-33655237D01*
X25933518Y-33663770D01*
G37*
G36*
X26299238Y-34636312D02*
G01*
X26190318Y-34682085D01*
X26081574Y-34730504D01*
X25973007Y-34781569D01*
X25864439Y-34835279D01*
X25755696Y-34891635D01*
X25646775Y-34950638D01*
X26299238Y-34950638D01*
X26299238Y-35126850D01*
X25316575Y-35126850D01*
X25316575Y-34969688D01*
X25389402Y-34925238D01*
X25468182Y-34880788D01*
X25549740Y-34836933D01*
X25630900Y-34794269D01*
X25710672Y-34753787D01*
X25788063Y-34716481D01*
X25859501Y-34683342D01*
X25921413Y-34655362D01*
X25316575Y-34655362D01*
X25316575Y-34479150D01*
X26299238Y-34479150D01*
X26299238Y-34636312D01*
G37*
%TO.C,kibuzzard-62F425A2*%
G36*
X25395156Y-39262883D02*
G01*
X25507075Y-39288481D01*
X25627527Y-39318247D01*
X25753931Y-39351981D01*
X25840715Y-39376588D01*
X25928556Y-39402781D01*
X26017456Y-39430562D01*
X26105915Y-39459490D01*
X26192434Y-39489124D01*
X26277013Y-39519462D01*
X26277013Y-39721075D01*
X26160331Y-39760366D01*
X26029363Y-39802037D01*
X25937376Y-39830083D01*
X25845565Y-39857071D01*
X25753931Y-39883000D01*
X25664061Y-39907518D01*
X25577542Y-39930272D01*
X25494375Y-39951262D01*
X25383250Y-39977456D01*
X25294350Y-39995712D01*
X25294350Y-39789337D01*
X25376702Y-39777431D01*
X25471356Y-39760762D01*
X25573750Y-39740720D01*
X25679319Y-39718694D01*
X25785681Y-39694881D01*
X25890456Y-39669481D01*
X25989080Y-39643486D01*
X26076988Y-39617887D01*
X25990270Y-39592487D01*
X25892044Y-39567087D01*
X25787269Y-39542481D01*
X25680906Y-39519462D01*
X25575139Y-39498031D01*
X25472150Y-39478187D01*
X25376900Y-39460725D01*
X25294350Y-39446437D01*
X25294350Y-39241650D01*
X25395156Y-39262883D01*
G37*
G36*
X26106356Y-40124300D02*
G01*
X26207163Y-40197325D01*
X26245263Y-40252491D01*
X26273838Y-40319562D01*
X26291697Y-40398541D01*
X26297650Y-40489425D01*
X26292888Y-40567213D01*
X26280981Y-40643412D01*
X26264313Y-40709294D01*
X26246850Y-40754538D01*
X26084925Y-40714850D01*
X26116675Y-40625950D01*
X26127391Y-40565228D01*
X26130963Y-40491013D01*
X26118263Y-40396556D01*
X26085719Y-40337819D01*
X26040475Y-40308450D01*
X25988088Y-40300512D01*
X25912681Y-40314006D01*
X25853944Y-40367981D01*
X25815844Y-40483075D01*
X25805723Y-40569197D01*
X25802350Y-40678338D01*
X25670389Y-40664050D01*
X25541206Y-40652938D01*
X25415595Y-40644603D01*
X25294350Y-40638650D01*
X25294350Y-40137000D01*
X25456275Y-40137000D01*
X25456275Y-40475138D01*
X25562637Y-40483075D01*
X25653125Y-40491013D01*
X25669353Y-40370892D01*
X25701103Y-40272996D01*
X25748375Y-40197325D01*
X25810817Y-40143526D01*
X25888075Y-40111247D01*
X25980150Y-40100487D01*
X26106356Y-40124300D01*
G37*
G36*
X25940463Y-41122838D02*
G01*
X26216688Y-41122838D01*
X26216688Y-41291113D01*
X25940463Y-41291113D01*
X25940463Y-41540350D01*
X25780125Y-41540350D01*
X25780125Y-41291113D01*
X25503900Y-41291113D01*
X25503900Y-41122838D01*
X25780125Y-41122838D01*
X25780125Y-40873600D01*
X25940463Y-40873600D01*
X25940463Y-41122838D01*
G37*
%TO.C,kibuzzard-62F42591*%
G36*
X25417381Y-27436008D02*
G01*
X25529300Y-27461606D01*
X25649752Y-27491372D01*
X25776156Y-27525106D01*
X25862940Y-27549712D01*
X25950782Y-27575906D01*
X26039682Y-27603687D01*
X26128141Y-27632615D01*
X26214659Y-27662249D01*
X26299238Y-27692587D01*
X26299238Y-27894200D01*
X26182557Y-27933491D01*
X26051588Y-27975162D01*
X25959601Y-28003208D01*
X25867791Y-28030196D01*
X25776156Y-28056125D01*
X25686286Y-28080643D01*
X25599768Y-28103397D01*
X25516600Y-28124387D01*
X25405475Y-28150581D01*
X25316575Y-28168837D01*
X25316575Y-27962462D01*
X25398927Y-27950556D01*
X25493581Y-27933887D01*
X25595975Y-27913845D01*
X25701544Y-27891819D01*
X25807907Y-27868006D01*
X25912682Y-27842606D01*
X26011305Y-27816611D01*
X26099213Y-27791012D01*
X26012496Y-27765612D01*
X25914269Y-27740212D01*
X25809494Y-27715606D01*
X25703131Y-27692587D01*
X25597364Y-27671156D01*
X25494375Y-27651312D01*
X25399125Y-27633850D01*
X25316575Y-27619562D01*
X25316575Y-27414775D01*
X25417381Y-27436008D01*
G37*
G36*
X26067463Y-28335525D02*
G01*
X26299238Y-28335525D01*
X26299238Y-28530787D01*
X26067463Y-28530787D01*
X26067463Y-28940362D01*
X25924588Y-28940362D01*
X25858508Y-28905834D01*
X25784094Y-28862575D01*
X25704521Y-28812569D01*
X25622963Y-28757800D01*
X25541008Y-28699062D01*
X25460244Y-28637150D01*
X25384242Y-28573650D01*
X25338566Y-28530787D01*
X25561050Y-28530787D01*
X25638838Y-28589525D01*
X25725356Y-28649056D01*
X25816638Y-28705412D01*
X25907125Y-28753037D01*
X25907125Y-28530787D01*
X25561050Y-28530787D01*
X25338566Y-28530787D01*
X25316575Y-28510150D01*
X25316575Y-28335525D01*
X25907125Y-28335525D01*
X25907125Y-28229162D01*
X26067463Y-28229162D01*
X26067463Y-28335525D01*
G37*
G36*
X26299238Y-29684900D02*
G01*
X26259550Y-29688869D01*
X26226213Y-29688075D01*
X26150013Y-29680733D01*
X26080163Y-29658706D01*
X26016067Y-29625369D01*
X25957132Y-29584094D01*
X25902760Y-29537263D01*
X25852357Y-29487256D01*
X25804930Y-29437250D01*
X25759488Y-29390419D01*
X25673763Y-29315806D01*
X25589625Y-29286438D01*
X25496756Y-29322950D01*
X25464213Y-29415025D01*
X25486438Y-29511863D01*
X25561050Y-29611875D01*
X25424525Y-29708713D01*
X25366581Y-29640252D01*
X25326100Y-29561869D01*
X25302288Y-29478723D01*
X25294350Y-29395975D01*
X25311813Y-29280088D01*
X25364200Y-29181663D01*
X25452306Y-29113400D01*
X25575338Y-29088000D01*
X25672969Y-29107050D01*
X25764250Y-29157850D01*
X25849975Y-29229288D01*
X25929350Y-29310250D01*
X25974594Y-29357875D01*
X26028569Y-29408675D01*
X26084925Y-29449156D01*
X26137313Y-29465825D01*
X26137313Y-29043550D01*
X26299238Y-29043550D01*
X26299238Y-29684900D01*
G37*
G36*
X25962688Y-30089713D02*
G01*
X26238913Y-30089713D01*
X26238913Y-30257988D01*
X25962688Y-30257988D01*
X25962688Y-30507225D01*
X25802350Y-30507225D01*
X25802350Y-30257988D01*
X25526125Y-30257988D01*
X25526125Y-30089713D01*
X25802350Y-30089713D01*
X25802350Y-29840475D01*
X25962688Y-29840475D01*
X25962688Y-30089713D01*
G37*
%TO.C,AUX3PWR1*%
X28844000Y-61981000D02*
X26244000Y-61981000D01*
X33984000Y-64581000D02*
X33984000Y-59381000D01*
X26244000Y-59381000D02*
X33984000Y-59381000D01*
X26244000Y-64581000D02*
X26244000Y-63251000D01*
X28844000Y-64581000D02*
X33984000Y-64581000D01*
X28844000Y-64581000D02*
X28844000Y-61981000D01*
X27574000Y-64581000D02*
X26244000Y-64581000D01*
X26244000Y-61981000D02*
X26244000Y-59381000D01*
%TO.C,AUX2PWR1*%
X28844000Y-53878500D02*
X26244000Y-53878500D01*
X33984000Y-56478500D02*
X33984000Y-51278500D01*
X26244000Y-51278500D02*
X33984000Y-51278500D01*
X26244000Y-56478500D02*
X26244000Y-55148500D01*
X28844000Y-56478500D02*
X33984000Y-56478500D01*
X28844000Y-56478500D02*
X28844000Y-53878500D01*
X27574000Y-56478500D02*
X26244000Y-56478500D01*
X26244000Y-53878500D02*
X26244000Y-51278500D01*
%TO.C,AUX1PWR1*%
X28844000Y-45776000D02*
X26244000Y-45776000D01*
X33984000Y-48376000D02*
X33984000Y-43176000D01*
X26244000Y-43176000D02*
X33984000Y-43176000D01*
X26244000Y-48376000D02*
X26244000Y-47046000D01*
X28844000Y-48376000D02*
X33984000Y-48376000D01*
X28844000Y-48376000D02*
X28844000Y-45776000D01*
X27574000Y-48376000D02*
X26244000Y-48376000D01*
X26244000Y-45776000D02*
X26244000Y-43176000D01*
%TO.C,AUX3*%
X46952000Y-63901000D02*
X41402000Y-63901000D01*
X35852000Y-60951000D02*
X35852000Y-62291000D01*
X47702000Y-59451000D02*
X47702000Y-58701000D01*
X35102000Y-60951000D02*
X35852000Y-60951000D01*
X41402000Y-63901000D02*
X36912000Y-63901000D01*
X47712000Y-64661000D02*
X47712000Y-58691000D01*
X46952000Y-60951000D02*
X46952000Y-63901000D01*
X34802000Y-58401000D02*
X34802000Y-59651000D01*
X45902000Y-59451000D02*
X47702000Y-59451000D01*
X38402000Y-58701000D02*
X38402000Y-59451000D01*
X47702000Y-58701000D02*
X45902000Y-58701000D01*
X35092000Y-64661000D02*
X47712000Y-64661000D01*
X44402000Y-58701000D02*
X38402000Y-58701000D01*
X47702000Y-60951000D02*
X46952000Y-60951000D01*
X35102000Y-58701000D02*
X35102000Y-59451000D01*
X36902000Y-58701000D02*
X35102000Y-58701000D01*
X44402000Y-59451000D02*
X44402000Y-58701000D01*
X36902000Y-59451000D02*
X36902000Y-58701000D01*
X35092000Y-58691000D02*
X35092000Y-64661000D01*
X38402000Y-59451000D02*
X44402000Y-59451000D01*
X36052000Y-58401000D02*
X34802000Y-58401000D01*
X45902000Y-58701000D02*
X45902000Y-59451000D01*
X35102000Y-59451000D02*
X36902000Y-59451000D01*
X47712000Y-58691000D02*
X35092000Y-58691000D01*
%TO.C,AUX2*%
X47712000Y-50588500D02*
X35092000Y-50588500D01*
X35102000Y-51348500D02*
X36902000Y-51348500D01*
X45902000Y-50598500D02*
X45902000Y-51348500D01*
X36052000Y-50298500D02*
X34802000Y-50298500D01*
X38402000Y-51348500D02*
X44402000Y-51348500D01*
X35092000Y-50588500D02*
X35092000Y-56558500D01*
X36902000Y-51348500D02*
X36902000Y-50598500D01*
X44402000Y-51348500D02*
X44402000Y-50598500D01*
X36902000Y-50598500D02*
X35102000Y-50598500D01*
X35102000Y-50598500D02*
X35102000Y-51348500D01*
X47702000Y-52848500D02*
X46952000Y-52848500D01*
X44402000Y-50598500D02*
X38402000Y-50598500D01*
X35092000Y-56558500D02*
X47712000Y-56558500D01*
X47702000Y-50598500D02*
X45902000Y-50598500D01*
X38402000Y-50598500D02*
X38402000Y-51348500D01*
X45902000Y-51348500D02*
X47702000Y-51348500D01*
X34802000Y-50298500D02*
X34802000Y-51548500D01*
X46952000Y-52848500D02*
X46952000Y-55798500D01*
X47712000Y-56558500D02*
X47712000Y-50588500D01*
X41402000Y-55798500D02*
X36912000Y-55798500D01*
X35102000Y-52848500D02*
X35852000Y-52848500D01*
X47702000Y-51348500D02*
X47702000Y-50598500D01*
X35852000Y-52848500D02*
X35852000Y-54188500D01*
X46952000Y-55798500D02*
X41402000Y-55798500D01*
%TO.C,AUX1*%
X47712000Y-42486000D02*
X35092000Y-42486000D01*
X35102000Y-43246000D02*
X36902000Y-43246000D01*
X45902000Y-42496000D02*
X45902000Y-43246000D01*
X36052000Y-42196000D02*
X34802000Y-42196000D01*
X38402000Y-43246000D02*
X44402000Y-43246000D01*
X35092000Y-42486000D02*
X35092000Y-48456000D01*
X36902000Y-43246000D02*
X36902000Y-42496000D01*
X44402000Y-43246000D02*
X44402000Y-42496000D01*
X36902000Y-42496000D02*
X35102000Y-42496000D01*
X35102000Y-42496000D02*
X35102000Y-43246000D01*
X47702000Y-44746000D02*
X46952000Y-44746000D01*
X44402000Y-42496000D02*
X38402000Y-42496000D01*
X35092000Y-48456000D02*
X47712000Y-48456000D01*
X47702000Y-42496000D02*
X45902000Y-42496000D01*
X38402000Y-42496000D02*
X38402000Y-43246000D01*
X45902000Y-43246000D02*
X47702000Y-43246000D01*
X34802000Y-42196000D02*
X34802000Y-43446000D01*
X46952000Y-44746000D02*
X46952000Y-47696000D01*
X47712000Y-48456000D02*
X47712000Y-42486000D01*
X41402000Y-47696000D02*
X36912000Y-47696000D01*
X35102000Y-44746000D02*
X35852000Y-44746000D01*
X47702000Y-43246000D02*
X47702000Y-42496000D01*
X35852000Y-44746000D02*
X35852000Y-46086000D01*
X46952000Y-47696000D02*
X41402000Y-47696000D01*
%TO.C,FAN4*%
X59638000Y-60301000D02*
X49338000Y-60301000D01*
X50688000Y-59191000D02*
X55768000Y-59191000D01*
X56438000Y-54351000D02*
X59638000Y-54351000D01*
X50688000Y-60201000D02*
X50688000Y-59191000D01*
X55768000Y-59191000D02*
X55768000Y-60201000D01*
X59638000Y-54351000D02*
X59638000Y-60301000D01*
X49338000Y-60301000D02*
X49338000Y-54301000D01*
X49338000Y-54301000D02*
X55088000Y-54301000D01*
%TO.C,FAN3*%
X59648000Y-47601000D02*
X49348000Y-47601000D01*
X50698000Y-46491000D02*
X55778000Y-46491000D01*
X56448000Y-41651000D02*
X59648000Y-41651000D01*
X50698000Y-47501000D02*
X50698000Y-46491000D01*
X55778000Y-46491000D02*
X55778000Y-47501000D01*
X59648000Y-41651000D02*
X59648000Y-47601000D01*
X49348000Y-47601000D02*
X49348000Y-41601000D01*
X49348000Y-41601000D02*
X55098000Y-41601000D01*
%TO.C,FAN2*%
X59648000Y-34901000D02*
X49348000Y-34901000D01*
X50698000Y-33791000D02*
X55778000Y-33791000D01*
X56448000Y-28951000D02*
X59648000Y-28951000D01*
X50698000Y-34801000D02*
X50698000Y-33791000D01*
X55778000Y-33791000D02*
X55778000Y-34801000D01*
X59648000Y-28951000D02*
X59648000Y-34901000D01*
X49348000Y-34901000D02*
X49348000Y-28901000D01*
X49348000Y-28901000D02*
X55098000Y-28901000D01*
%TO.C,FAN1*%
X59648000Y-22201000D02*
X49348000Y-22201000D01*
X50698000Y-21091000D02*
X55778000Y-21091000D01*
X56448000Y-16251000D02*
X59648000Y-16251000D01*
X50698000Y-22101000D02*
X50698000Y-21091000D01*
X55778000Y-21091000D02*
X55778000Y-22101000D01*
X59648000Y-16251000D02*
X59648000Y-22201000D01*
X49348000Y-22201000D02*
X49348000Y-16201000D01*
X49348000Y-16201000D02*
X55098000Y-16201000D01*
%TO.C,FAN4PWR1*%
X58622000Y-65089000D02*
X58622000Y-62429000D01*
X53482000Y-65089000D02*
X58622000Y-65089000D01*
X52212000Y-65089000D02*
X50882000Y-65089000D01*
X53482000Y-62429000D02*
X58622000Y-62429000D01*
X50882000Y-65089000D02*
X50882000Y-63759000D01*
X53482000Y-65089000D02*
X53482000Y-62429000D01*
%TO.C,FAN3PWR1*%
X58622000Y-52473700D02*
X58622000Y-49813700D01*
X53482000Y-52473700D02*
X58622000Y-52473700D01*
X52212000Y-52473700D02*
X50882000Y-52473700D01*
X53482000Y-49813700D02*
X58622000Y-49813700D01*
X50882000Y-52473700D02*
X50882000Y-51143700D01*
X53482000Y-52473700D02*
X53482000Y-49813700D01*
%TO.C,FAN2PWR1*%
X58622000Y-39858300D02*
X58622000Y-37198300D01*
X53482000Y-39858300D02*
X58622000Y-39858300D01*
X52212000Y-39858300D02*
X50882000Y-39858300D01*
X53482000Y-37198300D02*
X58622000Y-37198300D01*
X50882000Y-39858300D02*
X50882000Y-38528300D01*
X53482000Y-39858300D02*
X53482000Y-37198300D01*
%TO.C,FAN1PWR1*%
X53482000Y-27243000D02*
X53482000Y-24583000D01*
X50882000Y-27243000D02*
X50882000Y-25913000D01*
X53482000Y-24583000D02*
X58622000Y-24583000D01*
X52212000Y-27243000D02*
X50882000Y-27243000D01*
X53482000Y-27243000D02*
X58622000Y-27243000D01*
X58622000Y-27243000D02*
X58622000Y-24583000D01*
D13*
%TO.C,U1*%
X19714000Y-45524500D02*
X15114000Y-45524500D01*
X15114000Y-45524500D02*
X15114000Y-55924500D01*
X15114000Y-55924500D02*
X19714000Y-55924500D01*
X19714000Y-45524500D02*
X19714000Y-55924500D01*
D14*
X17404000Y-44684500D02*
G75*
G03*
X17404000Y-44684500I-150000J0D01*
G01*
D12*
%TO.C,24VIN1*%
X21431000Y-23886000D02*
G75*
G03*
X21431000Y-23886000I-1680000J0D01*
G01*
X20435000Y-27430999D02*
G75*
G03*
X19067958Y-27430573I-684000J-1535001D01*
G01*
X19067000Y-30501000D02*
G75*
G03*
X20434042Y-30501427I684001J1534993D01*
G01*
X18216000Y-28282000D02*
G75*
G03*
X18215573Y-29649042I1534993J-684001D01*
G01*
X21431000Y-28966000D02*
G75*
G03*
X21285756Y-28282682I-1680000J0D01*
G01*
X21286000Y-29650000D02*
G75*
G03*
X21431253Y-28937195I-1535001J683999D01*
G01*
X14490000Y-31566000D02*
X14490000Y-21286000D01*
X14490000Y-31566000D02*
X24411000Y-31566000D01*
X20774000Y-25113000D02*
X20820000Y-25160000D01*
X23911000Y-31806000D02*
X24651000Y-31806000D01*
X23851000Y-31566000D02*
X23851000Y-21286000D01*
X18682000Y-22611000D02*
X18728000Y-22658000D01*
X20990000Y-24920000D02*
X21025000Y-24955000D01*
X24651000Y-31806000D02*
X24651000Y-31306000D01*
X17450000Y-31566000D02*
X17450000Y-21286000D01*
X24411000Y-31566000D02*
X24411000Y-21286000D01*
X14490000Y-21286000D02*
X24411000Y-21286000D01*
X22351000Y-31566000D02*
X22351000Y-21286000D01*
X18476000Y-22816000D02*
X18512000Y-22851000D01*
%TD*%
%LPC*%
D15*
%TO.C,U2*%
X39587000Y-35768581D03*
X37047000Y-35768581D03*
X34507000Y-35768581D03*
X44667000Y-18098581D03*
X44667000Y-20638581D03*
X44667000Y-23178581D03*
X44667000Y-25718581D03*
X44667000Y-28258581D03*
X44667000Y-30798581D03*
X44667000Y-33338581D03*
X44667000Y-35878581D03*
X29427000Y-35878581D03*
X29427000Y-33338581D03*
X29427000Y-30798581D03*
X29427000Y-28258581D03*
X29427000Y-25718581D03*
X29427000Y-23178581D03*
X29427000Y-20638581D03*
X29427000Y-18098581D03*
%TD*%
D16*
%TO.C,5VIN1*%
X19751000Y-35062000D03*
D17*
X19751000Y-40142000D03*
%TD*%
D18*
%TO.C,REF4*%
X66436000Y-52583000D03*
%TD*%
%TO.C,REF3*%
X66436000Y-26675000D03*
%TD*%
%TO.C,REF2*%
X17668000Y-61727000D03*
%TD*%
%TO.C,REF1*%
X17668000Y-17531000D03*
%TD*%
D19*
%TO.C,AUX3PWR1*%
X27574000Y-63251000D03*
D20*
X27574000Y-60711000D03*
X30114000Y-63251000D03*
X30114000Y-60711000D03*
X32654000Y-63251000D03*
X32654000Y-60711000D03*
%TD*%
D19*
%TO.C,AUX2PWR1*%
X27574000Y-55148500D03*
D20*
X27574000Y-52608500D03*
X30114000Y-55148500D03*
X30114000Y-52608500D03*
X32654000Y-55148500D03*
X32654000Y-52608500D03*
%TD*%
D19*
%TO.C,AUX1PWR1*%
X27574000Y-47046000D03*
D20*
X27574000Y-44506000D03*
X30114000Y-47046000D03*
X30114000Y-44506000D03*
X32654000Y-47046000D03*
X32654000Y-44506000D03*
%TD*%
D21*
%TO.C,AUX3*%
X36052000Y-63151000D03*
D22*
X37652000Y-61151000D03*
D23*
X40152000Y-61151000D03*
X42652000Y-61151000D03*
X45152000Y-61151000D03*
%TD*%
%TO.C,AUX2*%
X45152000Y-53048500D03*
X42652000Y-53048500D03*
X40152000Y-53048500D03*
D22*
X37652000Y-53048500D03*
D21*
X36052000Y-55048500D03*
%TD*%
D23*
%TO.C,AUX1*%
X45152000Y-44946000D03*
X42652000Y-44946000D03*
X40152000Y-44946000D03*
D22*
X37652000Y-44946000D03*
D21*
X36052000Y-46946000D03*
%TD*%
D24*
%TO.C,FAN4*%
X55768000Y-54741000D03*
D25*
X50688000Y-56901000D03*
D26*
X53228000Y-56901000D03*
X55768000Y-56901000D03*
X58308000Y-56901000D03*
%TD*%
D24*
%TO.C,FAN3*%
X55778000Y-42041000D03*
D25*
X50698000Y-44201000D03*
D26*
X53238000Y-44201000D03*
X55778000Y-44201000D03*
X58318000Y-44201000D03*
%TD*%
D24*
%TO.C,FAN2*%
X55778000Y-29341000D03*
D25*
X50698000Y-31501000D03*
D26*
X53238000Y-31501000D03*
X55778000Y-31501000D03*
X58318000Y-31501000D03*
%TD*%
D24*
%TO.C,FAN1*%
X55778000Y-16641000D03*
D25*
X50698000Y-18801000D03*
D26*
X53238000Y-18801000D03*
X55778000Y-18801000D03*
X58318000Y-18801000D03*
%TD*%
D19*
%TO.C,FAN4PWR1*%
X52212000Y-63759000D03*
D20*
X54752000Y-63759000D03*
X57292000Y-63759000D03*
%TD*%
D19*
%TO.C,FAN3PWR1*%
X52212000Y-51143700D03*
D20*
X54752000Y-51143700D03*
X57292000Y-51143700D03*
%TD*%
D19*
%TO.C,FAN2PWR1*%
X52212000Y-38528300D03*
D20*
X54752000Y-38528300D03*
X57292000Y-38528300D03*
%TD*%
%TO.C,FAN1PWR1*%
X57292000Y-25913000D03*
X54752000Y-25913000D03*
D19*
X52212000Y-25913000D03*
%TD*%
D27*
%TO.C,U1*%
X17154000Y-48174500D03*
D28*
X17154000Y-50724500D03*
X17154000Y-53274500D03*
%TD*%
D16*
%TO.C,24VIN1*%
X19751000Y-23886000D03*
D17*
X19751000Y-28966000D03*
%TD*%
D29*
X47821200Y-44213409D03*
X47244000Y-46482000D03*
X38608000Y-50748400D03*
X38100000Y-56896000D03*
X36322000Y-61214000D03*
X23622000Y-54864000D03*
X22860000Y-45212000D03*
X26998900Y-22606000D03*
X49881800Y-59890300D03*
X50755900Y-47812500D03*
X50464800Y-38062200D03*
X25772900Y-44061500D03*
X32189000Y-37634100D03*
X29885100Y-40808700D03*
X49969100Y-21840300D03*
X30864200Y-29098600D03*
X50544300Y-26073700D03*
X60123400Y-33964600D03*
X46670800Y-61424700D03*
X59270200Y-59698700D03*
X21478000Y-48249700D03*
M02*
