%TF.GenerationSoftware,KiCad,Pcbnew,(6.0.5-0)*%
%TF.CreationDate,2022-09-01T07:50:41+02:00*%
%TF.ProjectId,tiny-fan,74696e79-2d66-4616-9e2e-6b696361645f,rev?*%
%TF.SameCoordinates,Original*%
%TF.FileFunction,Paste,Bot*%
%TF.FilePolarity,Positive*%
%FSLAX46Y46*%
G04 Gerber Fmt 4.6, Leading zero omitted, Abs format (unit mm)*
G04 Created by KiCad (PCBNEW (6.0.5-0)) date 2022-09-01 07:50:41*
%MOMM*%
%LPD*%
G01*
G04 APERTURE LIST*
G04 Aperture macros list*
%AMRoundRect*
0 Rectangle with rounded corners*
0 $1 Rounding radius*
0 $2 $3 $4 $5 $6 $7 $8 $9 X,Y pos of 4 corners*
0 Add a 4 corners polygon primitive as box body*
4,1,4,$2,$3,$4,$5,$6,$7,$8,$9,$2,$3,0*
0 Add four circle primitives for the rounded corners*
1,1,$1+$1,$2,$3*
1,1,$1+$1,$4,$5*
1,1,$1+$1,$6,$7*
1,1,$1+$1,$8,$9*
0 Add four rect primitives between the rounded corners*
20,1,$1+$1,$2,$3,$4,$5,0*
20,1,$1+$1,$4,$5,$6,$7,0*
20,1,$1+$1,$6,$7,$8,$9,0*
20,1,$1+$1,$8,$9,$2,$3,0*%
G04 Aperture macros list end*
%ADD10RoundRect,0.250000X0.312500X0.625000X-0.312500X0.625000X-0.312500X-0.625000X0.312500X-0.625000X0*%
%ADD11R,2.200000X1.200000*%
%ADD12R,3.050000X2.750000*%
%ADD13RoundRect,0.150000X-0.587500X-0.150000X0.587500X-0.150000X0.587500X0.150000X-0.587500X0.150000X0*%
%ADD14RoundRect,0.250000X-0.650000X0.325000X-0.650000X-0.325000X0.650000X-0.325000X0.650000X0.325000X0*%
%ADD15RoundRect,0.250000X0.650000X-0.325000X0.650000X0.325000X-0.650000X0.325000X-0.650000X-0.325000X0*%
G04 APERTURE END LIST*
D10*
%TO.C,R8*%
X52526500Y-66756000D03*
X49601500Y-66756000D03*
%TD*%
%TO.C,R17*%
X68248900Y-19050000D03*
X65323900Y-19050000D03*
%TD*%
D11*
%TO.C,Q8*%
X70875000Y-39618000D03*
X70875000Y-35058000D03*
D12*
X66250000Y-38863000D03*
X62900000Y-35813000D03*
X62900000Y-38863000D03*
X66250000Y-35813000D03*
%TD*%
D13*
%TO.C,Q3*%
X48465500Y-56676000D03*
X48465500Y-54776000D03*
X50340500Y-55726000D03*
%TD*%
D11*
%TO.C,Q10*%
X70875000Y-57906000D03*
X70875000Y-53346000D03*
D12*
X66250000Y-54101000D03*
X66250000Y-57151000D03*
X62900000Y-57151000D03*
X62900000Y-54101000D03*
%TD*%
D11*
%TO.C,Q9*%
X70875000Y-48762000D03*
X70875000Y-44202000D03*
D12*
X66250000Y-44957000D03*
X62900000Y-44957000D03*
X62900000Y-48007000D03*
X66250000Y-48007000D03*
%TD*%
D10*
%TO.C,R5*%
X59130500Y-66756000D03*
X56205500Y-66756000D03*
%TD*%
%TO.C,R1*%
X59262500Y-38054000D03*
X56337500Y-38054000D03*
%TD*%
D13*
%TO.C,Q4*%
X48465500Y-70773000D03*
X48465500Y-68873000D03*
X50340500Y-69823000D03*
%TD*%
D10*
%TO.C,R7*%
X52658500Y-52578000D03*
X49733500Y-52578000D03*
%TD*%
D13*
%TO.C,Q1*%
X48465500Y-27625000D03*
X48465500Y-25725000D03*
X50340500Y-26675000D03*
%TD*%
D10*
%TO.C,R4*%
X59262500Y-52578000D03*
X56337500Y-52578000D03*
%TD*%
%TO.C,R16*%
X68248900Y-21590000D03*
X65323900Y-21590000D03*
%TD*%
D14*
%TO.C,C1*%
X20828000Y-46482000D03*
X20828000Y-49432000D03*
%TD*%
D10*
%TO.C,R2*%
X59262500Y-23627000D03*
X56337500Y-23627000D03*
%TD*%
%TO.C,R15*%
X68248900Y-16510000D03*
X65323900Y-16510000D03*
%TD*%
D15*
%TO.C,C2*%
X20828000Y-54766000D03*
X20828000Y-51816000D03*
%TD*%
D10*
%TO.C,R6*%
X52658500Y-38054000D03*
X49733500Y-38054000D03*
%TD*%
%TO.C,R3*%
X52658500Y-23627000D03*
X49733500Y-23627000D03*
%TD*%
D13*
%TO.C,Q2*%
X48465500Y-42071000D03*
X48465500Y-40171000D03*
X50340500Y-41121000D03*
%TD*%
M02*
