%TF.GenerationSoftware,KiCad,Pcbnew,(6.0.5-0)*%
%TF.CreationDate,2022-08-11T13:14:41+02:00*%
%TF.ProjectId,tiny-fan,74696e79-2d66-4616-9e2e-6b696361645f,rev?*%
%TF.SameCoordinates,Original*%
%TF.FileFunction,Copper,L1,Top*%
%TF.FilePolarity,Positive*%
%FSLAX46Y46*%
G04 Gerber Fmt 4.6, Leading zero omitted, Abs format (unit mm)*
G04 Created by KiCad (PCBNEW (6.0.5-0)) date 2022-08-11 13:14:41*
%MOMM*%
%LPD*%
G01*
G04 APERTURE LIST*
G04 Aperture macros list*
%AMRoundRect*
0 Rectangle with rounded corners*
0 $1 Rounding radius*
0 $2 $3 $4 $5 $6 $7 $8 $9 X,Y pos of 4 corners*
0 Add a 4 corners polygon primitive as box body*
4,1,4,$2,$3,$4,$5,$6,$7,$8,$9,$2,$3,0*
0 Add four circle primitives for the rounded corners*
1,1,$1+$1,$2,$3*
1,1,$1+$1,$4,$5*
1,1,$1+$1,$6,$7*
1,1,$1+$1,$8,$9*
0 Add four rect primitives between the rounded corners*
20,1,$1+$1,$2,$3,$4,$5,0*
20,1,$1+$1,$4,$5,$6,$7,0*
20,1,$1+$1,$6,$7,$8,$9,0*
20,1,$1+$1,$8,$9,$2,$3,0*%
G04 Aperture macros list end*
%TA.AperFunction,ComponentPad*%
%ADD10C,1.752600*%
%TD*%
%TA.AperFunction,ComponentPad*%
%ADD11C,2.600000*%
%TD*%
%TA.AperFunction,ComponentPad*%
%ADD12R,2.600000X2.600000*%
%TD*%
%TA.AperFunction,ComponentPad*%
%ADD13C,5.700000*%
%TD*%
%TA.AperFunction,ComponentPad*%
%ADD14R,1.700000X1.700000*%
%TD*%
%TA.AperFunction,ComponentPad*%
%ADD15O,1.700000X1.700000*%
%TD*%
%TA.AperFunction,ComponentPad*%
%ADD16RoundRect,0.250000X-0.600000X-0.725000X0.600000X-0.725000X0.600000X0.725000X-0.600000X0.725000X0*%
%TD*%
%TA.AperFunction,ComponentPad*%
%ADD17O,1.700000X1.950000*%
%TD*%
%TA.AperFunction,ComponentPad*%
%ADD18R,1.730000X2.030000*%
%TD*%
%TA.AperFunction,ComponentPad*%
%ADD19O,1.730000X2.030000*%
%TD*%
%TA.AperFunction,ComponentPad*%
%ADD20R,1.910000X1.910000*%
%TD*%
%TA.AperFunction,ComponentPad*%
%ADD21C,1.910000*%
%TD*%
%TA.AperFunction,ViaPad*%
%ADD22C,0.800000*%
%TD*%
%TA.AperFunction,Conductor*%
%ADD23C,0.500000*%
%TD*%
%TA.AperFunction,Conductor*%
%ADD24C,0.250000*%
%TD*%
G04 APERTURE END LIST*
D10*
%TO.P,U2,19,DIO*%
%TO.N,AUX2RPM*%
X39587000Y-35768581D03*
%TO.P,U2,18,GND*%
%TO.N,GND*%
X37047000Y-35768581D03*
%TO.P,U2,17,CLK*%
%TO.N,AUX1RPM*%
X34507000Y-35768581D03*
%TO.P,U2,16,GP0*%
%TO.N,FAN1PWM*%
X44667000Y-18098581D03*
%TO.P,U2,15,GP1*%
%TO.N,FAN2PWM*%
X44667000Y-20638581D03*
%TO.P,U2,14,GP2*%
%TO.N,FAN3PWM*%
X44667000Y-23178581D03*
%TO.P,U2,13,GP3*%
%TO.N,FAN4PWM*%
X44667000Y-25718581D03*
%TO.P,U2,12,GP4*%
%TO.N,AUX1PWM*%
X44667000Y-28258581D03*
%TO.P,U2,11,GP5*%
%TO.N,AUX2PWM*%
X44667000Y-30798581D03*
%TO.P,U2,10,GP6*%
%TO.N,AUX3PWM*%
X44667000Y-33338581D03*
%TO.P,U2,9,GP7*%
%TO.N,AUX3RPM*%
X44667000Y-35878581D03*
%TO.P,U2,8,GND*%
%TO.N,GND*%
X29427000Y-35878581D03*
%TO.P,U2,7,GP26*%
%TO.N,FAN1RPM*%
X29427000Y-33338581D03*
%TO.P,U2,6,GP27*%
%TO.N,FAN2RPM*%
X29427000Y-30798581D03*
%TO.P,U2,5,GP28*%
%TO.N,FAN3RPM*%
X29427000Y-28258581D03*
%TO.P,U2,4,GP29*%
%TO.N,FAN4RPM*%
X29427000Y-25718581D03*
%TO.P,U2,3,3V3*%
%TO.N,+3V3*%
X29427000Y-23178581D03*
%TO.P,U2,2,GND*%
%TO.N,GND*%
X29427000Y-20638581D03*
%TO.P,U2,1,VBUS*%
%TO.N,+5VA*%
X29427000Y-18098581D03*
%TD*%
D11*
%TO.P,5VIN1,2,Pin_2*%
%TO.N,GND*%
X19751000Y-35062000D03*
D12*
%TO.P,5VIN1,1,Pin_1*%
%TO.N,+5V*%
X19751000Y-40142000D03*
%TD*%
D13*
%TO.P,REF4,1*%
%TO.N,GND*%
X66436000Y-52583000D03*
%TD*%
%TO.P,REF3,1*%
%TO.N,GND*%
X66436000Y-26675000D03*
%TD*%
%TO.P,REF2,1*%
%TO.N,GND*%
X17668000Y-61727000D03*
%TD*%
%TO.P,REF1,1*%
%TO.N,GND*%
X17668000Y-17531000D03*
%TD*%
D14*
%TO.P,AUX3PWR1,1,Pin_1*%
%TO.N,+5V*%
X27574000Y-63251000D03*
D15*
%TO.P,AUX3PWR1,2,Pin_2*%
%TO.N,AUX3PWR*%
X27574000Y-60711000D03*
%TO.P,AUX3PWR1,3,Pin_3*%
%TO.N,+12V*%
X30114000Y-63251000D03*
%TO.P,AUX3PWR1,4,Pin_4*%
%TO.N,AUX3PWR*%
X30114000Y-60711000D03*
%TO.P,AUX3PWR1,5,Pin_5*%
%TO.N,+24V*%
X32654000Y-63251000D03*
%TO.P,AUX3PWR1,6,Pin_6*%
%TO.N,AUX3PWR*%
X32654000Y-60711000D03*
%TD*%
D14*
%TO.P,AUX2PWR1,1,Pin_1*%
%TO.N,+5V*%
X27574000Y-55148500D03*
D15*
%TO.P,AUX2PWR1,2,Pin_2*%
%TO.N,AUX2PWR*%
X27574000Y-52608500D03*
%TO.P,AUX2PWR1,3,Pin_3*%
%TO.N,+12V*%
X30114000Y-55148500D03*
%TO.P,AUX2PWR1,4,Pin_4*%
%TO.N,AUX2PWR*%
X30114000Y-52608500D03*
%TO.P,AUX2PWR1,5,Pin_5*%
%TO.N,+24V*%
X32654000Y-55148500D03*
%TO.P,AUX2PWR1,6,Pin_6*%
%TO.N,AUX2PWR*%
X32654000Y-52608500D03*
%TD*%
D14*
%TO.P,AUX1PWR1,1,Pin_1*%
%TO.N,+5V*%
X27574000Y-47046000D03*
D15*
%TO.P,AUX1PWR1,2,Pin_2*%
%TO.N,AUX1PWR*%
X27574000Y-44506000D03*
%TO.P,AUX1PWR1,3,Pin_3*%
%TO.N,+12V*%
X30114000Y-47046000D03*
%TO.P,AUX1PWR1,4,Pin_4*%
%TO.N,AUX1PWR*%
X30114000Y-44506000D03*
%TO.P,AUX1PWR1,5,Pin_5*%
%TO.N,+24V*%
X32654000Y-47046000D03*
%TO.P,AUX1PWR1,6,Pin_6*%
%TO.N,AUX1PWR*%
X32654000Y-44506000D03*
%TD*%
D16*
%TO.P,AUX3,1,Pin_1*%
%TO.N,GND*%
X37652000Y-61151000D03*
D17*
%TO.P,AUX3,2,Pin_2*%
%TO.N,AUX3PWR*%
X40152000Y-61151000D03*
%TO.P,AUX3,3,Pin_3*%
%TO.N,AUX3RPM*%
X42652000Y-61151000D03*
%TO.P,AUX3,4,Pin_4*%
%TO.N,Net-(AUX3-Pad4)*%
X45152000Y-61151000D03*
%TD*%
%TO.P,AUX2,4,Pin_4*%
%TO.N,Net-(AUX2-Pad4)*%
X45152000Y-53048500D03*
%TO.P,AUX2,3,Pin_3*%
%TO.N,AUX2RPM*%
X42652000Y-53048500D03*
%TO.P,AUX2,2,Pin_2*%
%TO.N,AUX2PWR*%
X40152000Y-53048500D03*
D16*
%TO.P,AUX2,1,Pin_1*%
%TO.N,GND*%
X37652000Y-53048500D03*
%TD*%
D17*
%TO.P,AUX1,4,Pin_4*%
%TO.N,Net-(AUX1-Pad4)*%
X45152000Y-44946000D03*
%TO.P,AUX1,3,Pin_3*%
%TO.N,AUX1RPM*%
X42652000Y-44946000D03*
%TO.P,AUX1,2,Pin_2*%
%TO.N,AUX1PWR*%
X40152000Y-44946000D03*
D16*
%TO.P,AUX1,1,Pin_1*%
%TO.N,GND*%
X37652000Y-44946000D03*
%TD*%
D18*
%TO.P,FAN4,1,Pin_1*%
%TO.N,GND*%
X50688000Y-56901000D03*
D19*
%TO.P,FAN4,2,Pin_2*%
%TO.N,FAN4PWR*%
X53228000Y-56901000D03*
%TO.P,FAN4,3,Pin_3*%
%TO.N,FAN4RPM*%
X55768000Y-56901000D03*
%TO.P,FAN4,4,Pin_4*%
%TO.N,Net-(FAN4-Pad4)*%
X58308000Y-56901000D03*
%TD*%
D18*
%TO.P,FAN3,1,Pin_1*%
%TO.N,GND*%
X50698000Y-44201000D03*
D19*
%TO.P,FAN3,2,Pin_2*%
%TO.N,FAN3PWR*%
X53238000Y-44201000D03*
%TO.P,FAN3,3,Pin_3*%
%TO.N,FAN3RPM*%
X55778000Y-44201000D03*
%TO.P,FAN3,4,Pin_4*%
%TO.N,Net-(FAN3-Pad4)*%
X58318000Y-44201000D03*
%TD*%
D18*
%TO.P,FAN2,1,Pin_1*%
%TO.N,GND*%
X50698000Y-31501000D03*
D19*
%TO.P,FAN2,2,Pin_2*%
%TO.N,FAN2PWR*%
X53238000Y-31501000D03*
%TO.P,FAN2,3,Pin_3*%
%TO.N,FAN2RPM*%
X55778000Y-31501000D03*
%TO.P,FAN2,4,Pin_4*%
%TO.N,Net-(FAN2-Pad4)*%
X58318000Y-31501000D03*
%TD*%
D18*
%TO.P,FAN1,1,Pin_1*%
%TO.N,GND*%
X50698000Y-18801000D03*
D19*
%TO.P,FAN1,2,Pin_2*%
%TO.N,FAN1PWR*%
X53238000Y-18801000D03*
%TO.P,FAN1,3,Pin_3*%
%TO.N,FAN1RPM*%
X55778000Y-18801000D03*
%TO.P,FAN1,4,Pin_4*%
%TO.N,Net-(FAN1-Pad4)*%
X58318000Y-18801000D03*
%TD*%
D14*
%TO.P,FAN4PWR1,1,Pin_1*%
%TO.N,+12V*%
X52212000Y-63759000D03*
D15*
%TO.P,FAN4PWR1,2,Pin_2*%
%TO.N,FAN4PWR*%
X54752000Y-63759000D03*
%TO.P,FAN4PWR1,3,Pin_3*%
%TO.N,+24V*%
X57292000Y-63759000D03*
%TD*%
D14*
%TO.P,FAN3PWR1,1,Pin_1*%
%TO.N,+12V*%
X52212000Y-51143700D03*
D15*
%TO.P,FAN3PWR1,2,Pin_2*%
%TO.N,FAN3PWR*%
X54752000Y-51143700D03*
%TO.P,FAN3PWR1,3,Pin_3*%
%TO.N,+24V*%
X57292000Y-51143700D03*
%TD*%
D14*
%TO.P,FAN2PWR1,1,Pin_1*%
%TO.N,+12V*%
X52212000Y-38528300D03*
D15*
%TO.P,FAN2PWR1,2,Pin_2*%
%TO.N,FAN2PWR*%
X54752000Y-38528300D03*
%TO.P,FAN2PWR1,3,Pin_3*%
%TO.N,+24V*%
X57292000Y-38528300D03*
%TD*%
%TO.P,FAN1PWR1,3,Pin_3*%
%TO.N,+24V*%
X57292000Y-25913000D03*
%TO.P,FAN1PWR1,2,Pin_2*%
%TO.N,FAN1PWR*%
X54752000Y-25913000D03*
D14*
%TO.P,FAN1PWR1,1,Pin_1*%
%TO.N,+12V*%
X52212000Y-25913000D03*
%TD*%
D20*
%TO.P,U1,1,IN*%
%TO.N,+24V*%
X17154000Y-48174500D03*
D21*
%TO.P,U1,2,GND*%
%TO.N,GND*%
X17154000Y-50724500D03*
%TO.P,U1,3,OUT*%
%TO.N,+12V*%
X17154000Y-53274500D03*
%TD*%
D11*
%TO.P,24VIN1,2,Pin_2*%
%TO.N,GND*%
X19751000Y-23886000D03*
D12*
%TO.P,24VIN1,1,Pin_1*%
%TO.N,+24V*%
X19751000Y-28966000D03*
%TD*%
D22*
%TO.N,GND*%
X47821200Y-44213409D03*
X47244000Y-46482000D03*
X38608000Y-50748400D03*
X38100000Y-56896000D03*
X36322000Y-61214000D03*
X23622000Y-54864000D03*
X22860000Y-45212000D03*
X26998900Y-22606000D03*
%TO.N,Net-(FAN4-Pad4)*%
X49881800Y-59890300D03*
%TO.N,Net-(FAN3-Pad4)*%
X50755900Y-47812500D03*
%TO.N,Net-(FAN2-Pad4)*%
X50464800Y-38062200D03*
%TO.N,Net-(AUX3-Pad4)*%
X25772900Y-44061500D03*
X32189000Y-37634100D03*
%TO.N,Net-(AUX1-Pad4)*%
X29885100Y-40808700D03*
%TO.N,+5VA*%
X49969100Y-21840300D03*
%TO.N,AUX1PWM*%
X30864200Y-29098600D03*
%TO.N,FAN2PWM*%
X50544300Y-26073700D03*
X60123400Y-33964600D03*
%TO.N,FAN4PWM*%
X46670800Y-61424700D03*
X59270200Y-59698700D03*
%TO.N,GND*%
X21478000Y-48249700D03*
%TD*%
D23*
%TO.N,GND*%
X50685591Y-44213409D02*
X50698000Y-44201000D01*
X46887380Y-46838620D02*
X47244000Y-46482000D01*
X39544620Y-46838620D02*
X46887380Y-46838620D01*
X37652000Y-44946000D02*
X39544620Y-46838620D01*
X47821200Y-44213409D02*
X50685591Y-44213409D01*
X37652000Y-51704400D02*
X38608000Y-50748400D01*
X37652000Y-53048500D02*
X37652000Y-51704400D01*
%TO.N,+12V*%
X34757300Y-51143700D02*
X34757300Y-51094700D01*
X47752000Y-49022000D02*
X49873700Y-51143700D01*
X34757300Y-51094700D02*
X36830000Y-49022000D01*
X36830000Y-49022000D02*
X47752000Y-49022000D01*
X49873700Y-51143700D02*
X52212000Y-51143700D01*
%TO.N,GND*%
X37652000Y-61151000D02*
X36385000Y-61151000D01*
X36385000Y-61151000D02*
X36322000Y-61214000D01*
X38100000Y-56896000D02*
X38100000Y-53496500D01*
X38100000Y-53496500D02*
X37652000Y-53048500D01*
X23622000Y-54864000D02*
X23622000Y-55773000D01*
X23622000Y-55773000D02*
X17668000Y-61727000D01*
X21321978Y-45212000D02*
X22860000Y-45212000D01*
X18001489Y-41891511D02*
X21321978Y-45212000D01*
X18001489Y-36811511D02*
X18001489Y-41891511D01*
X19751000Y-35062000D02*
X18001489Y-36811511D01*
X31431419Y-35878581D02*
X33528000Y-33782000D01*
X29427000Y-35878581D02*
X31431419Y-35878581D01*
X33528000Y-33782000D02*
X35060419Y-33782000D01*
X35060419Y-33782000D02*
X37047000Y-35768581D01*
X19751000Y-35062000D02*
X28610419Y-35062000D01*
X28610419Y-35062000D02*
X29427000Y-35878581D01*
X25718900Y-23886000D02*
X26998900Y-22606000D01*
X19751000Y-23886000D02*
X25718900Y-23886000D01*
X17668000Y-17531000D02*
X17668000Y-21803000D01*
X17668000Y-21803000D02*
X19751000Y-23886000D01*
D24*
%TO.N,Net-(FAN4-Pad4)*%
X54649200Y-59890300D02*
X49881800Y-59890300D01*
X57117700Y-57421800D02*
X54649200Y-59890300D01*
X57117700Y-56901000D02*
X57117700Y-57421800D01*
X58308000Y-56901000D02*
X57117700Y-56901000D01*
%TO.N,Net-(FAN3-Pad4)*%
X54037000Y-47812500D02*
X50755900Y-47812500D01*
X57127700Y-44721800D02*
X54037000Y-47812500D01*
X57127700Y-44201000D02*
X57127700Y-44721800D01*
X58318000Y-44201000D02*
X57127700Y-44201000D01*
%TO.N,Net-(FAN2-Pad4)*%
X58318000Y-31501000D02*
X57127700Y-31501000D01*
X52106100Y-36420900D02*
X50464800Y-38062200D01*
X52728600Y-36420900D02*
X52106100Y-36420900D01*
X57127700Y-32021800D02*
X52728600Y-36420900D01*
X57127700Y-31501000D02*
X57127700Y-32021800D01*
%TO.N,Net-(AUX3-Pad4)*%
X32033900Y-37634100D02*
X32189000Y-37634100D01*
X25772900Y-43895100D02*
X32033900Y-37634100D01*
X25772900Y-44061500D02*
X25772900Y-43895100D01*
%TO.N,Net-(AUX1-Pad4)*%
X37814800Y-40808700D02*
X29885100Y-40808700D01*
X41402000Y-44395900D02*
X37814800Y-40808700D01*
X41402000Y-45546100D02*
X41402000Y-44395900D01*
X42120000Y-46264100D02*
X41402000Y-45546100D01*
X43172800Y-46264100D02*
X42120000Y-46264100D01*
X43976700Y-45460200D02*
X43172800Y-46264100D01*
X43976700Y-44946000D02*
X43976700Y-45460200D01*
X45152000Y-44946000D02*
X43976700Y-44946000D01*
%TO.N,+5VA*%
X33168700Y-21840300D02*
X49969100Y-21840300D01*
X29427000Y-18098600D02*
X33168700Y-21840300D01*
%TO.N,AUX1PWM*%
X31704200Y-28258600D02*
X30864200Y-29098600D01*
X44667000Y-28258600D02*
X31704200Y-28258600D01*
%TO.N,AUX3RPM*%
X42652000Y-61151000D02*
X43827300Y-61151000D01*
X43827300Y-60636800D02*
X43827300Y-61151000D01*
X52060500Y-52403600D02*
X43827300Y-60636800D01*
X53138900Y-52403600D02*
X52060500Y-52403600D01*
X53387400Y-52155100D02*
X53138900Y-52403600D01*
X53387400Y-50095300D02*
X53387400Y-52155100D01*
X51829900Y-48537800D02*
X53387400Y-50095300D01*
X50455500Y-48537800D02*
X51829900Y-48537800D01*
X50030600Y-48112900D02*
X50455500Y-48537800D01*
X50030600Y-47832000D02*
X50030600Y-48112900D01*
X44667000Y-42468400D02*
X50030600Y-47832000D01*
X44667000Y-35878600D02*
X44667000Y-42468400D01*
%TO.N,AUX1RPM*%
X42384100Y-43645700D02*
X34507000Y-35768600D01*
X42652000Y-43645700D02*
X42384100Y-43645700D01*
X42652000Y-44946000D02*
X42652000Y-43645700D01*
D23*
%TO.N,AUX3PWR*%
X34959800Y-59705500D02*
X33954300Y-60711000D01*
X38706500Y-59705500D02*
X34959800Y-59705500D01*
X40152000Y-61151000D02*
X38706500Y-59705500D01*
X33304200Y-60711000D02*
X33954300Y-60711000D01*
X33304200Y-60711000D02*
X32654000Y-60711000D01*
X32654000Y-60711000D02*
X30114000Y-60711000D01*
X30114000Y-60711000D02*
X27574000Y-60711000D01*
%TO.N,AUX2PWR*%
X32654000Y-52608500D02*
X30114000Y-52608500D01*
X30114000Y-52608500D02*
X27574000Y-52608500D01*
%TO.N,AUX1PWR*%
X34983600Y-43476700D02*
X33954300Y-44506000D01*
X38682700Y-43476700D02*
X34983600Y-43476700D01*
X40152000Y-44946000D02*
X38682700Y-43476700D01*
X33304200Y-44506000D02*
X33954300Y-44506000D01*
X33304200Y-44506000D02*
X32654000Y-44506000D01*
X32654000Y-44506000D02*
X30114000Y-44506000D01*
X30114000Y-44506000D02*
X27574000Y-44506000D01*
%TO.N,+12V*%
X31484500Y-56519000D02*
X30114000Y-55148500D01*
X33138800Y-56519000D02*
X31484500Y-56519000D01*
X34757300Y-54900500D02*
X33138800Y-56519000D01*
X34757300Y-51143700D02*
X34757300Y-54900500D01*
X34211700Y-51143700D02*
X30114000Y-47046000D01*
X34757300Y-51143700D02*
X34211700Y-51143700D01*
%TO.N,+24V*%
X35769500Y-65066200D02*
X33954300Y-63251000D01*
X55984800Y-65066200D02*
X35769500Y-65066200D01*
X57292000Y-63759000D02*
X55984800Y-65066200D01*
X32654000Y-63251000D02*
X33954300Y-63251000D01*
X19703900Y-49319100D02*
X18559300Y-48174500D01*
X31203800Y-49319100D02*
X19703900Y-49319100D01*
X34002300Y-52117600D02*
X31203800Y-49319100D01*
X34002300Y-53800200D02*
X34002300Y-52117600D01*
X32654000Y-55148500D02*
X34002300Y-53800200D01*
X17154000Y-48174500D02*
X18559300Y-48174500D01*
D24*
%TO.N,FAN2PWM*%
X49793200Y-20638600D02*
X44667000Y-20638600D01*
X53387400Y-24232800D02*
X49793200Y-20638600D01*
X53387400Y-27088400D02*
X53387400Y-24232800D01*
X51161900Y-27088400D02*
X53387400Y-27088400D01*
X50544300Y-26470800D02*
X51161900Y-27088400D01*
X50544300Y-26073700D02*
X50544300Y-26470800D01*
X60123400Y-30738000D02*
X60123400Y-33964600D01*
X56473800Y-27088400D02*
X60123400Y-30738000D01*
X53387400Y-27088400D02*
X56473800Y-27088400D01*
%TO.N,FAN4PWM*%
X57544200Y-61424700D02*
X59270200Y-59698700D01*
X46670800Y-61424700D02*
X57544200Y-61424700D01*
%TO.N,FAN1RPM*%
X27723400Y-31635000D02*
X29427000Y-33338600D01*
X27723400Y-18079500D02*
X27723400Y-31635000D01*
X28911100Y-16891800D02*
X27723400Y-18079500D01*
X53199300Y-16891800D02*
X28911100Y-16891800D01*
X54587700Y-18280200D02*
X53199300Y-16891800D01*
X54587700Y-18801000D02*
X54587700Y-18280200D01*
X55778000Y-18801000D02*
X54587700Y-18801000D01*
%TO.N,FAN2RPM*%
X30704600Y-30798600D02*
X29427000Y-30798600D01*
X31920000Y-29583200D02*
X30704600Y-30798600D01*
X53190700Y-29583200D02*
X31920000Y-29583200D01*
X54587700Y-30980200D02*
X53190700Y-29583200D01*
X54587700Y-31501000D02*
X54587700Y-30980200D01*
X55778000Y-31501000D02*
X54587700Y-31501000D01*
%TO.N,FAN3RPM*%
X28219500Y-29466100D02*
X29427000Y-28258600D01*
X28219500Y-31299700D02*
X28219500Y-29466100D01*
X28988400Y-32068600D02*
X28219500Y-31299700D01*
X45125400Y-32068600D02*
X28988400Y-32068600D01*
X46632100Y-33575300D02*
X45125400Y-32068600D01*
X46632100Y-35281200D02*
X46632100Y-33575300D01*
X54587700Y-43236800D02*
X46632100Y-35281200D01*
X54587700Y-44201000D02*
X54587700Y-43236800D01*
X55778000Y-44201000D02*
X54587700Y-44201000D01*
%TO.N,FAN4RPM*%
X59530000Y-53139000D02*
X55768000Y-56901000D01*
X59530000Y-34396900D02*
X59530000Y-53139000D01*
X59398100Y-34265000D02*
X59530000Y-34396900D01*
X59398100Y-33664200D02*
X59398100Y-34265000D01*
X59530000Y-33532300D02*
X59398100Y-33664200D01*
X59530000Y-30866300D02*
X59530000Y-33532300D01*
X56591200Y-27927500D02*
X59530000Y-30866300D01*
X49848000Y-27927500D02*
X56591200Y-27927500D01*
X46384400Y-24463900D02*
X49848000Y-27927500D01*
X30681700Y-24463900D02*
X46384400Y-24463900D01*
X29427000Y-25718600D02*
X30681700Y-24463900D01*
D23*
%TO.N,+5V*%
X21120000Y-41892300D02*
X19751000Y-41892300D01*
X26273700Y-47046000D02*
X21120000Y-41892300D01*
X27574000Y-47046000D02*
X26273700Y-47046000D01*
X19751000Y-40142000D02*
X19751000Y-41892300D01*
X26255600Y-61932600D02*
X27574000Y-63251000D01*
X26255600Y-57767200D02*
X26255600Y-61932600D01*
X27574000Y-56448800D02*
X26255600Y-57767200D01*
X27574000Y-55148500D02*
X27574000Y-56448800D01*
%TD*%
%TA.AperFunction,Conductor*%
%TO.N,GND*%
G36*
X15833305Y-14503502D02*
G01*
X15879798Y-14557158D01*
X15889902Y-14627432D01*
X15860408Y-14692012D01*
X15829891Y-14717616D01*
X15790397Y-14741253D01*
X15784744Y-14745066D01*
X15500094Y-14960346D01*
X15494891Y-14964742D01*
X15490601Y-14968785D01*
X15482580Y-14982492D01*
X15482615Y-14983333D01*
X15487667Y-14991457D01*
X17655188Y-17158978D01*
X17669132Y-17166592D01*
X17670965Y-17166461D01*
X17677580Y-17162210D01*
X19846166Y-14993624D01*
X19853780Y-14979680D01*
X19853712Y-14978723D01*
X19848771Y-14971251D01*
X19844870Y-14967931D01*
X19560958Y-14751649D01*
X19555333Y-14747825D01*
X19504879Y-14717390D01*
X19456881Y-14665076D01*
X19444786Y-14595118D01*
X19472433Y-14529725D01*
X19531044Y-14489661D01*
X19569962Y-14483500D01*
X69357500Y-14483500D01*
X69425621Y-14503502D01*
X69472114Y-14557158D01*
X69483500Y-14609500D01*
X69483500Y-24775681D01*
X69463498Y-24843802D01*
X69409842Y-24890295D01*
X69339568Y-24900399D01*
X69274988Y-24870905D01*
X69253164Y-24846321D01*
X69116588Y-24644598D01*
X69112467Y-24639170D01*
X68995041Y-24500704D01*
X68982215Y-24492267D01*
X68971890Y-24498320D01*
X66808022Y-26662188D01*
X66800408Y-26676132D01*
X66800539Y-26677965D01*
X66804790Y-26684580D01*
X68970463Y-28850253D01*
X68984060Y-28857678D01*
X68993669Y-28850981D01*
X69098197Y-28729457D01*
X69102346Y-28724069D01*
X69253660Y-28503905D01*
X69308728Y-28459094D01*
X69379281Y-28451169D01*
X69442919Y-28482646D01*
X69479436Y-28543530D01*
X69483500Y-28575272D01*
X69483500Y-50683681D01*
X69463498Y-50751802D01*
X69409842Y-50798295D01*
X69339568Y-50808399D01*
X69274988Y-50778905D01*
X69253164Y-50754321D01*
X69116588Y-50552598D01*
X69112467Y-50547170D01*
X68995041Y-50408704D01*
X68982215Y-50400267D01*
X68971890Y-50406320D01*
X66808022Y-52570188D01*
X66800408Y-52584132D01*
X66800539Y-52585965D01*
X66804790Y-52592580D01*
X68970463Y-54758253D01*
X68984060Y-54765678D01*
X68993669Y-54758981D01*
X69098197Y-54637457D01*
X69102346Y-54632069D01*
X69253660Y-54411905D01*
X69308728Y-54367094D01*
X69379281Y-54359169D01*
X69442919Y-54390646D01*
X69479436Y-54451530D01*
X69483500Y-54483272D01*
X69483500Y-65156500D01*
X69463498Y-65224621D01*
X69409842Y-65271114D01*
X69357500Y-65282500D01*
X57800127Y-65282500D01*
X57732006Y-65262498D01*
X57685513Y-65208842D01*
X57675409Y-65138568D01*
X57704903Y-65073988D01*
X57763919Y-65035815D01*
X57784418Y-65029665D01*
X57784430Y-65029660D01*
X57789384Y-65028174D01*
X57989994Y-64929896D01*
X58171860Y-64800173D01*
X58330096Y-64642489D01*
X58351464Y-64612753D01*
X58457435Y-64465277D01*
X58460453Y-64461077D01*
X58479818Y-64421896D01*
X58557136Y-64265453D01*
X58557137Y-64265451D01*
X58559430Y-64260811D01*
X58624370Y-64047069D01*
X58653529Y-63825590D01*
X58654339Y-63792447D01*
X58655074Y-63762365D01*
X58655074Y-63762361D01*
X58655156Y-63759000D01*
X58636852Y-63536361D01*
X58582431Y-63319702D01*
X58493354Y-63114840D01*
X58453906Y-63053862D01*
X58374822Y-62931617D01*
X58374820Y-62931614D01*
X58372014Y-62927277D01*
X58221670Y-62762051D01*
X58217619Y-62758852D01*
X58217615Y-62758848D01*
X58050414Y-62626800D01*
X58050410Y-62626798D01*
X58046359Y-62623598D01*
X58005905Y-62601266D01*
X57972819Y-62583002D01*
X57850789Y-62515638D01*
X57845920Y-62513914D01*
X57845916Y-62513912D01*
X57645087Y-62442795D01*
X57645083Y-62442794D01*
X57640212Y-62441069D01*
X57635119Y-62440162D01*
X57635116Y-62440161D01*
X57425373Y-62402800D01*
X57425367Y-62402799D01*
X57420284Y-62401894D01*
X57346452Y-62400992D01*
X57202081Y-62399228D01*
X57202079Y-62399228D01*
X57196911Y-62399165D01*
X56976091Y-62432955D01*
X56763756Y-62502357D01*
X56733443Y-62518137D01*
X56608839Y-62583002D01*
X56565607Y-62605507D01*
X56561474Y-62608610D01*
X56561471Y-62608612D01*
X56405871Y-62725440D01*
X56386965Y-62739635D01*
X56365205Y-62762406D01*
X56245881Y-62887271D01*
X56232629Y-62901138D01*
X56125201Y-63058621D01*
X56070293Y-63103621D01*
X55999768Y-63111792D01*
X55936021Y-63080538D01*
X55915324Y-63056054D01*
X55834822Y-62931617D01*
X55834820Y-62931614D01*
X55832014Y-62927277D01*
X55681670Y-62762051D01*
X55677619Y-62758852D01*
X55677615Y-62758848D01*
X55510414Y-62626800D01*
X55510410Y-62626798D01*
X55506359Y-62623598D01*
X55465905Y-62601266D01*
X55432819Y-62583002D01*
X55310789Y-62515638D01*
X55305920Y-62513914D01*
X55305916Y-62513912D01*
X55105087Y-62442795D01*
X55105083Y-62442794D01*
X55100212Y-62441069D01*
X55095119Y-62440162D01*
X55095116Y-62440161D01*
X54885373Y-62402800D01*
X54885367Y-62402799D01*
X54880284Y-62401894D01*
X54806452Y-62400992D01*
X54662081Y-62399228D01*
X54662079Y-62399228D01*
X54656911Y-62399165D01*
X54436091Y-62432955D01*
X54223756Y-62502357D01*
X54193443Y-62518137D01*
X54068839Y-62583002D01*
X54025607Y-62605507D01*
X54021474Y-62608610D01*
X54021471Y-62608612D01*
X53865871Y-62725440D01*
X53846965Y-62739635D01*
X53790537Y-62798684D01*
X53766283Y-62824064D01*
X53704759Y-62859494D01*
X53633846Y-62856037D01*
X53576060Y-62814791D01*
X53557207Y-62781243D01*
X53515767Y-62670703D01*
X53512615Y-62662295D01*
X53425261Y-62545739D01*
X53308705Y-62458385D01*
X53172316Y-62407255D01*
X53110134Y-62400500D01*
X51313866Y-62400500D01*
X51251684Y-62407255D01*
X51115295Y-62458385D01*
X50998739Y-62545739D01*
X50911385Y-62662295D01*
X50860255Y-62798684D01*
X50853500Y-62860866D01*
X50853500Y-64181700D01*
X50833498Y-64249821D01*
X50779842Y-64296314D01*
X50727500Y-64307700D01*
X36738344Y-64307700D01*
X36670223Y-64287698D01*
X36623730Y-64234042D01*
X36613626Y-64163768D01*
X36643120Y-64099188D01*
X36660511Y-64082614D01*
X36815202Y-63961102D01*
X36819920Y-63957396D01*
X36823852Y-63952865D01*
X36823855Y-63952862D01*
X36954621Y-63802167D01*
X36958552Y-63797637D01*
X36961552Y-63792451D01*
X36961555Y-63792447D01*
X37061467Y-63619742D01*
X37064473Y-63614546D01*
X37133861Y-63414729D01*
X37146912Y-63324720D01*
X37163352Y-63211336D01*
X37163352Y-63211333D01*
X37164213Y-63205396D01*
X37154433Y-62994101D01*
X37105129Y-62789520D01*
X37108614Y-62718610D01*
X37149883Y-62660840D01*
X37215834Y-62634553D01*
X37227622Y-62634000D01*
X37379885Y-62634000D01*
X37395124Y-62629525D01*
X37396329Y-62628135D01*
X37398000Y-62620452D01*
X37398000Y-61423115D01*
X37393525Y-61407876D01*
X37392135Y-61406671D01*
X37384452Y-61405000D01*
X36312116Y-61405000D01*
X36296877Y-61409475D01*
X36295672Y-61410865D01*
X36294001Y-61418548D01*
X36294001Y-61917066D01*
X36273999Y-61985187D01*
X36220343Y-62031680D01*
X36160754Y-62040910D01*
X36160663Y-62042772D01*
X36156643Y-62042575D01*
X36156626Y-62042575D01*
X36155101Y-62042500D01*
X35999154Y-62042500D01*
X35841434Y-62057548D01*
X35638466Y-62117092D01*
X35633139Y-62119836D01*
X35633138Y-62119836D01*
X35455751Y-62211196D01*
X35455748Y-62211198D01*
X35450420Y-62213942D01*
X35284080Y-62344604D01*
X35280148Y-62349135D01*
X35280145Y-62349138D01*
X35205689Y-62434941D01*
X35145448Y-62504363D01*
X35142448Y-62509549D01*
X35142445Y-62509553D01*
X35070451Y-62634000D01*
X35039527Y-62687454D01*
X34970139Y-62887271D01*
X34969278Y-62893206D01*
X34969278Y-62893208D01*
X34967343Y-62906555D01*
X34937774Y-62971101D01*
X34878003Y-63009414D01*
X34807006Y-63009330D01*
X34753552Y-62977571D01*
X34538070Y-62762089D01*
X34525684Y-62747677D01*
X34517151Y-62736082D01*
X34517146Y-62736077D01*
X34512808Y-62730182D01*
X34507230Y-62725443D01*
X34507227Y-62725440D01*
X34472532Y-62695965D01*
X34465016Y-62689035D01*
X34459321Y-62683340D01*
X34443348Y-62670703D01*
X34437049Y-62665719D01*
X34433645Y-62662928D01*
X34383597Y-62620409D01*
X34383595Y-62620408D01*
X34378015Y-62615667D01*
X34371499Y-62612339D01*
X34366450Y-62608972D01*
X34361321Y-62605805D01*
X34355584Y-62601266D01*
X34289425Y-62570345D01*
X34285525Y-62568439D01*
X34220492Y-62535231D01*
X34213384Y-62533492D01*
X34207741Y-62531393D01*
X34201978Y-62529476D01*
X34195350Y-62526378D01*
X34123883Y-62511513D01*
X34119599Y-62510543D01*
X34115553Y-62509553D01*
X34048690Y-62493192D01*
X34043088Y-62492844D01*
X34043085Y-62492844D01*
X34037536Y-62492500D01*
X34037538Y-62492464D01*
X34033545Y-62492225D01*
X34029353Y-62491851D01*
X34022185Y-62490360D01*
X33955975Y-62492151D01*
X33944779Y-62492454D01*
X33941372Y-62492500D01*
X33849939Y-62492500D01*
X33781818Y-62472498D01*
X33744147Y-62434941D01*
X33744027Y-62434754D01*
X33734014Y-62419277D01*
X33583670Y-62254051D01*
X33579619Y-62250852D01*
X33579615Y-62250848D01*
X33412414Y-62118800D01*
X33412410Y-62118798D01*
X33408359Y-62115598D01*
X33367053Y-62092796D01*
X33317084Y-62042364D01*
X33302312Y-61972921D01*
X33327428Y-61906516D01*
X33354780Y-61879909D01*
X33400474Y-61847316D01*
X33533860Y-61752173D01*
X33560935Y-61725193D01*
X33688435Y-61598137D01*
X33692096Y-61594489D01*
X33744203Y-61521974D01*
X33800198Y-61478326D01*
X33846526Y-61469500D01*
X33887230Y-61469500D01*
X33906180Y-61470933D01*
X33920415Y-61473099D01*
X33920419Y-61473099D01*
X33927649Y-61474199D01*
X33934941Y-61473606D01*
X33934944Y-61473606D01*
X33980318Y-61469915D01*
X33990533Y-61469500D01*
X33998593Y-61469500D01*
X34011883Y-61467951D01*
X34026807Y-61466211D01*
X34031182Y-61465778D01*
X34096639Y-61460454D01*
X34096642Y-61460453D01*
X34103937Y-61459860D01*
X34110901Y-61457604D01*
X34116860Y-61456413D01*
X34122715Y-61455029D01*
X34129981Y-61454182D01*
X34198627Y-61429265D01*
X34202755Y-61427848D01*
X34265236Y-61407607D01*
X34265238Y-61407606D01*
X34272199Y-61405351D01*
X34278454Y-61401555D01*
X34283928Y-61399049D01*
X34289358Y-61396330D01*
X34296237Y-61393833D01*
X34344087Y-61362461D01*
X34357276Y-61353814D01*
X34360980Y-61351477D01*
X34423407Y-61313595D01*
X34431784Y-61306197D01*
X34431808Y-61306224D01*
X34434800Y-61303571D01*
X34438033Y-61300868D01*
X34444152Y-61296856D01*
X34497428Y-61240617D01*
X34499806Y-61238175D01*
X35237076Y-60500905D01*
X35299388Y-60466879D01*
X35326171Y-60464000D01*
X36168000Y-60464000D01*
X36236121Y-60484002D01*
X36282614Y-60537658D01*
X36294000Y-60590000D01*
X36294000Y-60878885D01*
X36298475Y-60894124D01*
X36299865Y-60895329D01*
X36307548Y-60897000D01*
X37780000Y-60897000D01*
X37848121Y-60917002D01*
X37894614Y-60970658D01*
X37906000Y-61023000D01*
X37906000Y-62615884D01*
X37910475Y-62631123D01*
X37911865Y-62632328D01*
X37919548Y-62633999D01*
X38299095Y-62633999D01*
X38305614Y-62633662D01*
X38401206Y-62623743D01*
X38414600Y-62620851D01*
X38568784Y-62569412D01*
X38581962Y-62563239D01*
X38719807Y-62477937D01*
X38731208Y-62468901D01*
X38845739Y-62354171D01*
X38854753Y-62342757D01*
X38940723Y-62203287D01*
X38993495Y-62155793D01*
X39063566Y-62144369D01*
X39128690Y-62172643D01*
X39139149Y-62182426D01*
X39248576Y-62297135D01*
X39433542Y-62434754D01*
X39438293Y-62437170D01*
X39438297Y-62437172D01*
X39490614Y-62463771D01*
X39639051Y-62539240D01*
X39644145Y-62540822D01*
X39644148Y-62540823D01*
X39820626Y-62595621D01*
X39859227Y-62607607D01*
X39864516Y-62608308D01*
X40082489Y-62637198D01*
X40082494Y-62637198D01*
X40087774Y-62637898D01*
X40093103Y-62637698D01*
X40093105Y-62637698D01*
X40202966Y-62633574D01*
X40318158Y-62629249D01*
X40323468Y-62628135D01*
X40538572Y-62583002D01*
X40543791Y-62581907D01*
X40548750Y-62579949D01*
X40548752Y-62579948D01*
X40753256Y-62499185D01*
X40753258Y-62499184D01*
X40758221Y-62497224D01*
X40766066Y-62492464D01*
X40950757Y-62380390D01*
X40950756Y-62380390D01*
X40955317Y-62377623D01*
X41036944Y-62306791D01*
X41125412Y-62230023D01*
X41125414Y-62230021D01*
X41129445Y-62226523D01*
X41187440Y-62155793D01*
X41272240Y-62052373D01*
X41272244Y-62052367D01*
X41275624Y-62048245D01*
X41293552Y-62016750D01*
X41344632Y-61967445D01*
X41414262Y-61953583D01*
X41480333Y-61979566D01*
X41507573Y-62008716D01*
X41589441Y-62130319D01*
X41593120Y-62134176D01*
X41593122Y-62134178D01*
X41659049Y-62203287D01*
X41748576Y-62297135D01*
X41933542Y-62434754D01*
X41938293Y-62437170D01*
X41938297Y-62437172D01*
X41990614Y-62463771D01*
X42139051Y-62539240D01*
X42144145Y-62540822D01*
X42144148Y-62540823D01*
X42320626Y-62595621D01*
X42359227Y-62607607D01*
X42364516Y-62608308D01*
X42582489Y-62637198D01*
X42582494Y-62637198D01*
X42587774Y-62637898D01*
X42593103Y-62637698D01*
X42593105Y-62637698D01*
X42702966Y-62633574D01*
X42818158Y-62629249D01*
X42823468Y-62628135D01*
X43038572Y-62583002D01*
X43043791Y-62581907D01*
X43048750Y-62579949D01*
X43048752Y-62579948D01*
X43253256Y-62499185D01*
X43253258Y-62499184D01*
X43258221Y-62497224D01*
X43266066Y-62492464D01*
X43450757Y-62380390D01*
X43450756Y-62380390D01*
X43455317Y-62377623D01*
X43536944Y-62306791D01*
X43625412Y-62230023D01*
X43625414Y-62230021D01*
X43629445Y-62226523D01*
X43687440Y-62155793D01*
X43772240Y-62052373D01*
X43772244Y-62052367D01*
X43775624Y-62048245D01*
X43793552Y-62016750D01*
X43844632Y-61967445D01*
X43914262Y-61953583D01*
X43980333Y-61979566D01*
X44007573Y-62008716D01*
X44089441Y-62130319D01*
X44093120Y-62134176D01*
X44093122Y-62134178D01*
X44159049Y-62203287D01*
X44248576Y-62297135D01*
X44433542Y-62434754D01*
X44438293Y-62437170D01*
X44438297Y-62437172D01*
X44490614Y-62463771D01*
X44639051Y-62539240D01*
X44644145Y-62540822D01*
X44644148Y-62540823D01*
X44820626Y-62595621D01*
X44859227Y-62607607D01*
X44864516Y-62608308D01*
X45082489Y-62637198D01*
X45082494Y-62637198D01*
X45087774Y-62637898D01*
X45093103Y-62637698D01*
X45093105Y-62637698D01*
X45202966Y-62633574D01*
X45318158Y-62629249D01*
X45323468Y-62628135D01*
X45538572Y-62583002D01*
X45543791Y-62581907D01*
X45548750Y-62579949D01*
X45548752Y-62579948D01*
X45753256Y-62499185D01*
X45753258Y-62499184D01*
X45758221Y-62497224D01*
X45766066Y-62492464D01*
X45950757Y-62380390D01*
X45950756Y-62380390D01*
X45955317Y-62377623D01*
X46105718Y-62247112D01*
X46170277Y-62217573D01*
X46239547Y-62227171D01*
X46382481Y-62290809D01*
X46388512Y-62293494D01*
X46461843Y-62309081D01*
X46568856Y-62331828D01*
X46568861Y-62331828D01*
X46575313Y-62333200D01*
X46766287Y-62333200D01*
X46772739Y-62331828D01*
X46772744Y-62331828D01*
X46879757Y-62309081D01*
X46953088Y-62293494D01*
X46959119Y-62290809D01*
X47121522Y-62218503D01*
X47121524Y-62218502D01*
X47127552Y-62215818D01*
X47144800Y-62203287D01*
X47276714Y-62107445D01*
X47282053Y-62103566D01*
X47286468Y-62098663D01*
X47291380Y-62094240D01*
X47292505Y-62095489D01*
X47345814Y-62062649D01*
X47379000Y-62058200D01*
X57465433Y-62058200D01*
X57476616Y-62058727D01*
X57484109Y-62060402D01*
X57492035Y-62060153D01*
X57492036Y-62060153D01*
X57552186Y-62058262D01*
X57556145Y-62058200D01*
X57584056Y-62058200D01*
X57587991Y-62057703D01*
X57588056Y-62057695D01*
X57599893Y-62056762D01*
X57632151Y-62055748D01*
X57636170Y-62055622D01*
X57644089Y-62055373D01*
X57663543Y-62049721D01*
X57682900Y-62045713D01*
X57695130Y-62044168D01*
X57695131Y-62044168D01*
X57702997Y-62043174D01*
X57710368Y-62040255D01*
X57710370Y-62040255D01*
X57744112Y-62026896D01*
X57755342Y-62023051D01*
X57790183Y-62012929D01*
X57790184Y-62012929D01*
X57797793Y-62010718D01*
X57804612Y-62006685D01*
X57804617Y-62006683D01*
X57815228Y-62000407D01*
X57832976Y-61991712D01*
X57851817Y-61984252D01*
X57887587Y-61958264D01*
X57897507Y-61951748D01*
X57928735Y-61933280D01*
X57928738Y-61933278D01*
X57935562Y-61929242D01*
X57949883Y-61914921D01*
X57964917Y-61902080D01*
X57968805Y-61899255D01*
X57981307Y-61890172D01*
X58009498Y-61856095D01*
X58017488Y-61847316D01*
X59220699Y-60644105D01*
X59283011Y-60610079D01*
X59309794Y-60607200D01*
X59365687Y-60607200D01*
X59372139Y-60605828D01*
X59372144Y-60605828D01*
X59481006Y-60582688D01*
X59552488Y-60567494D01*
X59566874Y-60561089D01*
X59720922Y-60492503D01*
X59720924Y-60492502D01*
X59726952Y-60489818D01*
X59742569Y-60478472D01*
X59813077Y-60427244D01*
X59881453Y-60377566D01*
X59890259Y-60367786D01*
X60004821Y-60240552D01*
X60004822Y-60240551D01*
X60009240Y-60235644D01*
X60104727Y-60070256D01*
X60163742Y-59888628D01*
X60165127Y-59875457D01*
X60183014Y-59705265D01*
X60183704Y-59698700D01*
X60168613Y-59555118D01*
X60164432Y-59515335D01*
X60164432Y-59515333D01*
X60163742Y-59508772D01*
X60104727Y-59327144D01*
X60009240Y-59161756D01*
X59990044Y-59140436D01*
X59885875Y-59024745D01*
X59885874Y-59024744D01*
X59881453Y-59019834D01*
X59726952Y-58907582D01*
X59720924Y-58904898D01*
X59720922Y-58904897D01*
X59558519Y-58832591D01*
X59558518Y-58832591D01*
X59552488Y-58829906D01*
X59459087Y-58810053D01*
X59372144Y-58791572D01*
X59372139Y-58791572D01*
X59365687Y-58790200D01*
X59174713Y-58790200D01*
X59168261Y-58791572D01*
X59168256Y-58791572D01*
X59081313Y-58810053D01*
X58987912Y-58829906D01*
X58981882Y-58832591D01*
X58981881Y-58832591D01*
X58819478Y-58904897D01*
X58819476Y-58904898D01*
X58813448Y-58907582D01*
X58658947Y-59019834D01*
X58654526Y-59024744D01*
X58654525Y-59024745D01*
X58550357Y-59140436D01*
X58531160Y-59161756D01*
X58435673Y-59327144D01*
X58376658Y-59508772D01*
X58359424Y-59672751D01*
X58359293Y-59673993D01*
X58332280Y-59739650D01*
X58323078Y-59749918D01*
X57318700Y-60754295D01*
X57256388Y-60788321D01*
X57229605Y-60791200D01*
X50573669Y-60791200D01*
X50505548Y-60771198D01*
X50459055Y-60717542D01*
X50448951Y-60647268D01*
X50478445Y-60582688D01*
X50488382Y-60572559D01*
X50493053Y-60569166D01*
X50497468Y-60564263D01*
X50502380Y-60559840D01*
X50503505Y-60561089D01*
X50556814Y-60528249D01*
X50590000Y-60523800D01*
X54570433Y-60523800D01*
X54581616Y-60524327D01*
X54589109Y-60526002D01*
X54597035Y-60525753D01*
X54597036Y-60525753D01*
X54657186Y-60523862D01*
X54661145Y-60523800D01*
X54689056Y-60523800D01*
X54692991Y-60523303D01*
X54693056Y-60523295D01*
X54704893Y-60522362D01*
X54739038Y-60521289D01*
X54741170Y-60521222D01*
X54749089Y-60520973D01*
X54768543Y-60515321D01*
X54787900Y-60511313D01*
X54800130Y-60509768D01*
X54800131Y-60509768D01*
X54807997Y-60508774D01*
X54815368Y-60505855D01*
X54815370Y-60505855D01*
X54849112Y-60492496D01*
X54860342Y-60488651D01*
X54895183Y-60478529D01*
X54895184Y-60478529D01*
X54902793Y-60476318D01*
X54909612Y-60472285D01*
X54909617Y-60472283D01*
X54920228Y-60466007D01*
X54937976Y-60457312D01*
X54956817Y-60449852D01*
X54992587Y-60423864D01*
X55002507Y-60417348D01*
X55033735Y-60398880D01*
X55033738Y-60398878D01*
X55040562Y-60394842D01*
X55054883Y-60380521D01*
X55069917Y-60367680D01*
X55086307Y-60355772D01*
X55114498Y-60321695D01*
X55122488Y-60312916D01*
X57293198Y-58142206D01*
X57355510Y-58108180D01*
X57426325Y-58113245D01*
X57457503Y-58130210D01*
X57581609Y-58222548D01*
X57586360Y-58224964D01*
X57586364Y-58224966D01*
X57678331Y-58271724D01*
X57789388Y-58328188D01*
X58011995Y-58397310D01*
X58017284Y-58398011D01*
X58237781Y-58427236D01*
X58237785Y-58427236D01*
X58243065Y-58427936D01*
X58248394Y-58427736D01*
X58248395Y-58427736D01*
X58343124Y-58424179D01*
X58475993Y-58419191D01*
X58704117Y-58371326D01*
X58709076Y-58369368D01*
X58709078Y-58369367D01*
X58832884Y-58320473D01*
X58920914Y-58285708D01*
X59112175Y-58169649D01*
X59115626Y-58167555D01*
X59115629Y-58167553D01*
X59120187Y-58164787D01*
X59185421Y-58108180D01*
X59292204Y-58015518D01*
X59292206Y-58015516D01*
X59296237Y-58012018D01*
X59338341Y-57960669D01*
X59440646Y-57835900D01*
X59440650Y-57835894D01*
X59444030Y-57831772D01*
X59559340Y-57629200D01*
X59569250Y-57601901D01*
X59637051Y-57415112D01*
X59637052Y-57415108D01*
X59638871Y-57410097D01*
X59639821Y-57404845D01*
X59679610Y-57184809D01*
X59679611Y-57184802D01*
X59680348Y-57180725D01*
X59681297Y-57160610D01*
X59681430Y-57157786D01*
X59681430Y-57157779D01*
X59681500Y-57156298D01*
X59681500Y-56692473D01*
X59666759Y-56518743D01*
X59665418Y-56513575D01*
X59609541Y-56298292D01*
X59609539Y-56298288D01*
X59608200Y-56293127D01*
X59546751Y-56156715D01*
X59514655Y-56085464D01*
X59514654Y-56085461D01*
X59512465Y-56080603D01*
X59382291Y-55887248D01*
X59347104Y-55850362D01*
X59276271Y-55776111D01*
X59221399Y-55718590D01*
X59216772Y-55715147D01*
X59038673Y-55582638D01*
X59038674Y-55582638D01*
X59034391Y-55579452D01*
X59029640Y-55577036D01*
X59029636Y-55577034D01*
X58901813Y-55512046D01*
X58826612Y-55473812D01*
X58604005Y-55404690D01*
X58598721Y-55403990D01*
X58598718Y-55403989D01*
X58465159Y-55386287D01*
X58400257Y-55357507D01*
X58361218Y-55298208D01*
X58360435Y-55227216D01*
X58392620Y-55172284D01*
X58430159Y-55134745D01*
X64249795Y-55134745D01*
X64249871Y-55135815D01*
X64253055Y-55140648D01*
X64533342Y-55355720D01*
X64538972Y-55359575D01*
X64843929Y-55544992D01*
X64849931Y-55548210D01*
X65173139Y-55699611D01*
X65179444Y-55702159D01*
X65517117Y-55817771D01*
X65523668Y-55819624D01*
X65871838Y-55898087D01*
X65878557Y-55899224D01*
X66233174Y-55939628D01*
X66239964Y-55940031D01*
X66596865Y-55941899D01*
X66603666Y-55941567D01*
X66958686Y-55904880D01*
X66965414Y-55903814D01*
X67314402Y-55828997D01*
X67320950Y-55827218D01*
X67659820Y-55715147D01*
X67666162Y-55712661D01*
X67990921Y-55564660D01*
X67996975Y-55561495D01*
X68303839Y-55379293D01*
X68309520Y-55375490D01*
X68594918Y-55161207D01*
X68600145Y-55156821D01*
X68612988Y-55144803D01*
X68621057Y-55131123D01*
X68621029Y-55130398D01*
X68615887Y-55122097D01*
X66448812Y-52955022D01*
X66434868Y-52947408D01*
X66433035Y-52947539D01*
X66426420Y-52951790D01*
X64257409Y-55120801D01*
X64249795Y-55134745D01*
X58430159Y-55134745D01*
X59922247Y-53642657D01*
X59930537Y-53635113D01*
X59937018Y-53631000D01*
X59983659Y-53581332D01*
X59986413Y-53578491D01*
X60006134Y-53558770D01*
X60008612Y-53555575D01*
X60016318Y-53546553D01*
X60033107Y-53528675D01*
X60046586Y-53514321D01*
X60056346Y-53496568D01*
X60067199Y-53480045D01*
X60068356Y-53478553D01*
X60079613Y-53464041D01*
X60097176Y-53423457D01*
X60102383Y-53412827D01*
X60123695Y-53374060D01*
X60125666Y-53366383D01*
X60125668Y-53366378D01*
X60128732Y-53354442D01*
X60135138Y-53335730D01*
X60140034Y-53324417D01*
X60143181Y-53317145D01*
X60144964Y-53305892D01*
X60150097Y-53273481D01*
X60152504Y-53261860D01*
X60161528Y-53226711D01*
X60161528Y-53226710D01*
X60163500Y-53219030D01*
X60163500Y-53198769D01*
X60165051Y-53179058D01*
X60166979Y-53166885D01*
X60168219Y-53159057D01*
X60164059Y-53115046D01*
X60163500Y-53103189D01*
X60163500Y-52574657D01*
X63073260Y-52574657D01*
X63091318Y-52931127D01*
X63092028Y-52937883D01*
X63148478Y-53290305D01*
X63149917Y-53296960D01*
X63244094Y-53641215D01*
X63246243Y-53647676D01*
X63377053Y-53979756D01*
X63379884Y-53985939D01*
X63545792Y-54301949D01*
X63549275Y-54307791D01*
X63748340Y-54604031D01*
X63752442Y-54609475D01*
X63876942Y-54757322D01*
X63889680Y-54765764D01*
X63900124Y-54759666D01*
X66063978Y-52595812D01*
X66071592Y-52581868D01*
X66071461Y-52580035D01*
X66067210Y-52573420D01*
X63901527Y-50407737D01*
X63887990Y-50400345D01*
X63878289Y-50407132D01*
X63766649Y-50537847D01*
X63762515Y-50543255D01*
X63561394Y-50838086D01*
X63557859Y-50843923D01*
X63389754Y-51158757D01*
X63386878Y-51164926D01*
X63253754Y-51496081D01*
X63251561Y-51502521D01*
X63154979Y-51846121D01*
X63153496Y-51852756D01*
X63094589Y-52204773D01*
X63093830Y-52211545D01*
X63073284Y-52567862D01*
X63073260Y-52574657D01*
X60163500Y-52574657D01*
X60163500Y-50034492D01*
X64250580Y-50034492D01*
X64250615Y-50035333D01*
X64255667Y-50043457D01*
X66423188Y-52210978D01*
X66437132Y-52218592D01*
X66438965Y-52218461D01*
X66445580Y-52214210D01*
X68614166Y-50045624D01*
X68621780Y-50031680D01*
X68621712Y-50030723D01*
X68616771Y-50023251D01*
X68612870Y-50019931D01*
X68328958Y-49803649D01*
X68323332Y-49799825D01*
X68017722Y-49615469D01*
X68011710Y-49612272D01*
X67687966Y-49461995D01*
X67681666Y-49459475D01*
X67343595Y-49345045D01*
X67337017Y-49343209D01*
X66988592Y-49265965D01*
X66981857Y-49264850D01*
X66627106Y-49225685D01*
X66620324Y-49225306D01*
X66263395Y-49224683D01*
X66256622Y-49225038D01*
X65901714Y-49262966D01*
X65895005Y-49264053D01*
X65546289Y-49340086D01*
X65539714Y-49341897D01*
X65201250Y-49455145D01*
X65194928Y-49457648D01*
X64870680Y-49606785D01*
X64864637Y-49609971D01*
X64558404Y-49793248D01*
X64552744Y-49797066D01*
X64268094Y-50012346D01*
X64262891Y-50016742D01*
X64258601Y-50020785D01*
X64250580Y-50034492D01*
X60163500Y-50034492D01*
X60163500Y-34986906D01*
X60183502Y-34918785D01*
X60237158Y-34872292D01*
X60263303Y-34863659D01*
X60284615Y-34859129D01*
X60405688Y-34833394D01*
X60411719Y-34830709D01*
X60574122Y-34758403D01*
X60574124Y-34758402D01*
X60580152Y-34755718D01*
X60585515Y-34751822D01*
X60660155Y-34697592D01*
X60734653Y-34643466D01*
X60739075Y-34638555D01*
X60858021Y-34506452D01*
X60858022Y-34506451D01*
X60862440Y-34501544D01*
X60924611Y-34393861D01*
X60954623Y-34341879D01*
X60954624Y-34341878D01*
X60957927Y-34336156D01*
X61016942Y-34154528D01*
X61019228Y-34132784D01*
X61036214Y-33971165D01*
X61036904Y-33964600D01*
X61025358Y-33854749D01*
X61017632Y-33781235D01*
X61017632Y-33781233D01*
X61016942Y-33774672D01*
X60957927Y-33593044D01*
X60862440Y-33427656D01*
X60789263Y-33346385D01*
X60758547Y-33282379D01*
X60756900Y-33262076D01*
X60756900Y-30816767D01*
X60757427Y-30805584D01*
X60759102Y-30798091D01*
X60758213Y-30769787D01*
X60756962Y-30730001D01*
X60756900Y-30726043D01*
X60756900Y-30698144D01*
X60756396Y-30694153D01*
X60755463Y-30682311D01*
X60755410Y-30680603D01*
X60754074Y-30638111D01*
X60751862Y-30630497D01*
X60751861Y-30630492D01*
X60748423Y-30618659D01*
X60744412Y-30599295D01*
X60742867Y-30587064D01*
X60741874Y-30579203D01*
X60738957Y-30571836D01*
X60738956Y-30571831D01*
X60725598Y-30538092D01*
X60721754Y-30526865D01*
X60711630Y-30492022D01*
X60709418Y-30484407D01*
X60699107Y-30466972D01*
X60690412Y-30449224D01*
X60682952Y-30430383D01*
X60656964Y-30394613D01*
X60650448Y-30384693D01*
X60631980Y-30353465D01*
X60631978Y-30353462D01*
X60627942Y-30346638D01*
X60613621Y-30332317D01*
X60600780Y-30317283D01*
X60588872Y-30300893D01*
X60554795Y-30272702D01*
X60546016Y-30264712D01*
X59508049Y-29226745D01*
X64249795Y-29226745D01*
X64249871Y-29227815D01*
X64253055Y-29232648D01*
X64533342Y-29447720D01*
X64538972Y-29451575D01*
X64843929Y-29636992D01*
X64849931Y-29640210D01*
X65173139Y-29791611D01*
X65179444Y-29794159D01*
X65517117Y-29909771D01*
X65523668Y-29911624D01*
X65871838Y-29990087D01*
X65878557Y-29991224D01*
X66233174Y-30031628D01*
X66239964Y-30032031D01*
X66596865Y-30033899D01*
X66603666Y-30033567D01*
X66958686Y-29996880D01*
X66965414Y-29995814D01*
X67314402Y-29920997D01*
X67320950Y-29919218D01*
X67659820Y-29807147D01*
X67666162Y-29804661D01*
X67990921Y-29656660D01*
X67996975Y-29653495D01*
X68303839Y-29471293D01*
X68309520Y-29467490D01*
X68594918Y-29253207D01*
X68600145Y-29248821D01*
X68612988Y-29236803D01*
X68621057Y-29223123D01*
X68621029Y-29222398D01*
X68615887Y-29214097D01*
X66448812Y-27047022D01*
X66434868Y-27039408D01*
X66433035Y-27039539D01*
X66426420Y-27043790D01*
X64257409Y-29212801D01*
X64249795Y-29226745D01*
X59508049Y-29226745D01*
X57687853Y-27406549D01*
X57653827Y-27344237D01*
X57658892Y-27273422D01*
X57701439Y-27216586D01*
X57740740Y-27196768D01*
X57784429Y-27183661D01*
X57784434Y-27183659D01*
X57789384Y-27182174D01*
X57989994Y-27083896D01*
X58171860Y-26954173D01*
X58181981Y-26944088D01*
X58326435Y-26800137D01*
X58330096Y-26796489D01*
X58339854Y-26782910D01*
X58423389Y-26666657D01*
X63073260Y-26666657D01*
X63091318Y-27023127D01*
X63092028Y-27029883D01*
X63148478Y-27382305D01*
X63149917Y-27388960D01*
X63244094Y-27733215D01*
X63246243Y-27739676D01*
X63377053Y-28071756D01*
X63379884Y-28077939D01*
X63545792Y-28393949D01*
X63549275Y-28399791D01*
X63748340Y-28696031D01*
X63752442Y-28701475D01*
X63876942Y-28849322D01*
X63889680Y-28857764D01*
X63900124Y-28851666D01*
X66063978Y-26687812D01*
X66071592Y-26673868D01*
X66071461Y-26672035D01*
X66067210Y-26665420D01*
X63901527Y-24499737D01*
X63887990Y-24492345D01*
X63878289Y-24499132D01*
X63766649Y-24629847D01*
X63762515Y-24635255D01*
X63561394Y-24930086D01*
X63557859Y-24935923D01*
X63389754Y-25250757D01*
X63386878Y-25256926D01*
X63253754Y-25588081D01*
X63251561Y-25594521D01*
X63154979Y-25938121D01*
X63153496Y-25944756D01*
X63094589Y-26296773D01*
X63093830Y-26303545D01*
X63073284Y-26659862D01*
X63073260Y-26666657D01*
X58423389Y-26666657D01*
X58457435Y-26619277D01*
X58460453Y-26615077D01*
X58495998Y-26543158D01*
X58557136Y-26419453D01*
X58557137Y-26419451D01*
X58559430Y-26414811D01*
X58624370Y-26201069D01*
X58653529Y-25979590D01*
X58655156Y-25913000D01*
X58636852Y-25690361D01*
X58582431Y-25473702D01*
X58493354Y-25268840D01*
X58429181Y-25169643D01*
X58374822Y-25085617D01*
X58374820Y-25085614D01*
X58372014Y-25081277D01*
X58221670Y-24916051D01*
X58217619Y-24912852D01*
X58217615Y-24912848D01*
X58050414Y-24780800D01*
X58050410Y-24780798D01*
X58046359Y-24777598D01*
X57850789Y-24669638D01*
X57845920Y-24667914D01*
X57845916Y-24667912D01*
X57645087Y-24596795D01*
X57645083Y-24596794D01*
X57640212Y-24595069D01*
X57635119Y-24594162D01*
X57635116Y-24594161D01*
X57425373Y-24556800D01*
X57425367Y-24556799D01*
X57420284Y-24555894D01*
X57346452Y-24554992D01*
X57202081Y-24553228D01*
X57202079Y-24553228D01*
X57196911Y-24553165D01*
X56976091Y-24586955D01*
X56763756Y-24656357D01*
X56733443Y-24672137D01*
X56574173Y-24755048D01*
X56565607Y-24759507D01*
X56561474Y-24762610D01*
X56561471Y-24762612D01*
X56391413Y-24890295D01*
X56386965Y-24893635D01*
X56232629Y-25055138D01*
X56125201Y-25212621D01*
X56070293Y-25257621D01*
X55999768Y-25265792D01*
X55936021Y-25234538D01*
X55915324Y-25210054D01*
X55834822Y-25085617D01*
X55834820Y-25085614D01*
X55832014Y-25081277D01*
X55681670Y-24916051D01*
X55677619Y-24912852D01*
X55677615Y-24912848D01*
X55510414Y-24780800D01*
X55510410Y-24780798D01*
X55506359Y-24777598D01*
X55310789Y-24669638D01*
X55305920Y-24667914D01*
X55305916Y-24667912D01*
X55105087Y-24596795D01*
X55105083Y-24596794D01*
X55100212Y-24595069D01*
X55095119Y-24594162D01*
X55095116Y-24594161D01*
X54885373Y-24556800D01*
X54885367Y-24556799D01*
X54880284Y-24555894D01*
X54806452Y-24554992D01*
X54662081Y-24553228D01*
X54662079Y-24553228D01*
X54656911Y-24553165D01*
X54436091Y-24586955D01*
X54223756Y-24656357D01*
X54205077Y-24666081D01*
X54135420Y-24679792D01*
X54069405Y-24653667D01*
X54027994Y-24595998D01*
X54020900Y-24554316D01*
X54020900Y-24311563D01*
X54021427Y-24300379D01*
X54023101Y-24292891D01*
X54020962Y-24224832D01*
X54020900Y-24220875D01*
X54020900Y-24192944D01*
X54020394Y-24188938D01*
X54019461Y-24177092D01*
X54019282Y-24171374D01*
X54018073Y-24132910D01*
X54016209Y-24126492D01*
X64250580Y-24126492D01*
X64250615Y-24127333D01*
X64255667Y-24135457D01*
X66423188Y-26302978D01*
X66437132Y-26310592D01*
X66438965Y-26310461D01*
X66445580Y-26306210D01*
X68614166Y-24137624D01*
X68621780Y-24123680D01*
X68621712Y-24122723D01*
X68616771Y-24115251D01*
X68612870Y-24111931D01*
X68328958Y-23895649D01*
X68323332Y-23891825D01*
X68017722Y-23707469D01*
X68011710Y-23704272D01*
X67687966Y-23553995D01*
X67681666Y-23551475D01*
X67343595Y-23437045D01*
X67337017Y-23435209D01*
X66988592Y-23357965D01*
X66981857Y-23356850D01*
X66627106Y-23317685D01*
X66620324Y-23317306D01*
X66263395Y-23316683D01*
X66256622Y-23317038D01*
X65901714Y-23354966D01*
X65895005Y-23356053D01*
X65546289Y-23432086D01*
X65539714Y-23433897D01*
X65201250Y-23547145D01*
X65194928Y-23549648D01*
X64870680Y-23698785D01*
X64864637Y-23701971D01*
X64558404Y-23885248D01*
X64552744Y-23889066D01*
X64268094Y-24104346D01*
X64262891Y-24108742D01*
X64258601Y-24112785D01*
X64250580Y-24126492D01*
X54016209Y-24126492D01*
X54012422Y-24113458D01*
X54008414Y-24094106D01*
X54006868Y-24081868D01*
X54006867Y-24081866D01*
X54005874Y-24074003D01*
X53989594Y-24032886D01*
X53985759Y-24021685D01*
X53973418Y-23979206D01*
X53969385Y-23972387D01*
X53969383Y-23972382D01*
X53963107Y-23961771D01*
X53954410Y-23944021D01*
X53946952Y-23925183D01*
X53920971Y-23889423D01*
X53914453Y-23879501D01*
X53895978Y-23848260D01*
X53895974Y-23848255D01*
X53891942Y-23841437D01*
X53877618Y-23827113D01*
X53864776Y-23812078D01*
X53852872Y-23795693D01*
X53818806Y-23767511D01*
X53810027Y-23759522D01*
X50477813Y-20427308D01*
X50443787Y-20364996D01*
X50443788Y-20311429D01*
X50444000Y-20310454D01*
X50444000Y-19073115D01*
X50439525Y-19057876D01*
X50438135Y-19056671D01*
X50430452Y-19055000D01*
X49343116Y-19055000D01*
X49327877Y-19059475D01*
X49326672Y-19060865D01*
X49325001Y-19068548D01*
X49325001Y-19860669D01*
X49325554Y-19870877D01*
X49324172Y-19870952D01*
X49312632Y-19935363D01*
X49264317Y-19987383D01*
X49199891Y-20005100D01*
X45975143Y-20005100D01*
X45907022Y-19985098D01*
X45869351Y-19947540D01*
X45861474Y-19935363D01*
X45783447Y-19814752D01*
X45770731Y-19795096D01*
X45770729Y-19795093D01*
X45767923Y-19790756D01*
X45614668Y-19622331D01*
X45435963Y-19481199D01*
X45429335Y-19477540D01*
X45428651Y-19476850D01*
X45427131Y-19475840D01*
X45427339Y-19475526D01*
X45379363Y-19427114D01*
X45364585Y-19357672D01*
X45389696Y-19291265D01*
X45417054Y-19264650D01*
X45559689Y-19162910D01*
X45559691Y-19162908D01*
X45563893Y-19159911D01*
X45725193Y-18999173D01*
X45858073Y-18814250D01*
X45927884Y-18673000D01*
X45956673Y-18614749D01*
X45956674Y-18614747D01*
X45958967Y-18610107D01*
X46007834Y-18449267D01*
X46023662Y-18397171D01*
X46023662Y-18397170D01*
X46025164Y-18392227D01*
X46037700Y-18297011D01*
X46054450Y-18169782D01*
X46054451Y-18169775D01*
X46054887Y-18166460D01*
X46056546Y-18098581D01*
X46046564Y-17977166D01*
X46038311Y-17876783D01*
X46038310Y-17876777D01*
X46037887Y-17871632D01*
X45990254Y-17681995D01*
X45993058Y-17611054D01*
X46033771Y-17552891D01*
X46099467Y-17525972D01*
X46112458Y-17525300D01*
X49209073Y-17525300D01*
X49277194Y-17545302D01*
X49323687Y-17598958D01*
X49333791Y-17669232D01*
X49331656Y-17680445D01*
X49330895Y-17683646D01*
X49325369Y-17734514D01*
X49325000Y-17741328D01*
X49325000Y-18528885D01*
X49329475Y-18544124D01*
X49330865Y-18545329D01*
X49338548Y-18547000D01*
X50826000Y-18547000D01*
X50894121Y-18567002D01*
X50940614Y-18620658D01*
X50952000Y-18673000D01*
X50952000Y-20305884D01*
X50956475Y-20321123D01*
X50957865Y-20322328D01*
X50965548Y-20323999D01*
X51607669Y-20323999D01*
X51614490Y-20323629D01*
X51665352Y-20318105D01*
X51680604Y-20314479D01*
X51801054Y-20269324D01*
X51816649Y-20260786D01*
X51918724Y-20184285D01*
X51931285Y-20171724D01*
X52007786Y-20069649D01*
X52016324Y-20054054D01*
X52051798Y-19959428D01*
X52094440Y-19902664D01*
X52161001Y-19877964D01*
X52230350Y-19893172D01*
X52260950Y-19916687D01*
X52320916Y-19979548D01*
X52320921Y-19979553D01*
X52324601Y-19983410D01*
X52511609Y-20122548D01*
X52516360Y-20124964D01*
X52516364Y-20124966D01*
X52578083Y-20156345D01*
X52719388Y-20228188D01*
X52941995Y-20297310D01*
X52947284Y-20298011D01*
X53167781Y-20327236D01*
X53167785Y-20327236D01*
X53173065Y-20327936D01*
X53178394Y-20327736D01*
X53178395Y-20327736D01*
X53287784Y-20323629D01*
X53405993Y-20319191D01*
X53634117Y-20271326D01*
X53639076Y-20269368D01*
X53639078Y-20269367D01*
X53749471Y-20225770D01*
X53850914Y-20185708D01*
X54027757Y-20078398D01*
X54045626Y-20067555D01*
X54045629Y-20067553D01*
X54050187Y-20064787D01*
X54073099Y-20044905D01*
X54222204Y-19915518D01*
X54222206Y-19915516D01*
X54226237Y-19912018D01*
X54268341Y-19860669D01*
X54370646Y-19735900D01*
X54370650Y-19735894D01*
X54374030Y-19731772D01*
X54398945Y-19688002D01*
X54450027Y-19638696D01*
X54519657Y-19624834D01*
X54585728Y-19650817D01*
X54612965Y-19679965D01*
X54703709Y-19814752D01*
X54864601Y-19983410D01*
X55051609Y-20122548D01*
X55056360Y-20124964D01*
X55056364Y-20124966D01*
X55118083Y-20156345D01*
X55259388Y-20228188D01*
X55481995Y-20297310D01*
X55487284Y-20298011D01*
X55707781Y-20327236D01*
X55707785Y-20327236D01*
X55713065Y-20327936D01*
X55718394Y-20327736D01*
X55718395Y-20327736D01*
X55827784Y-20323629D01*
X55945993Y-20319191D01*
X56174117Y-20271326D01*
X56179076Y-20269368D01*
X56179078Y-20269367D01*
X56289471Y-20225770D01*
X56390914Y-20185708D01*
X56567757Y-20078398D01*
X56585626Y-20067555D01*
X56585629Y-20067553D01*
X56590187Y-20064787D01*
X56613099Y-20044905D01*
X56762204Y-19915518D01*
X56762206Y-19915516D01*
X56766237Y-19912018D01*
X56808341Y-19860669D01*
X56910646Y-19735900D01*
X56910650Y-19735894D01*
X56914030Y-19731772D01*
X56938945Y-19688002D01*
X56990027Y-19638696D01*
X57059657Y-19624834D01*
X57125728Y-19650817D01*
X57152965Y-19679965D01*
X57243709Y-19814752D01*
X57404601Y-19983410D01*
X57591609Y-20122548D01*
X57596360Y-20124964D01*
X57596364Y-20124966D01*
X57658083Y-20156345D01*
X57799388Y-20228188D01*
X58021995Y-20297310D01*
X58027284Y-20298011D01*
X58247781Y-20327236D01*
X58247785Y-20327236D01*
X58253065Y-20327936D01*
X58258394Y-20327736D01*
X58258395Y-20327736D01*
X58367784Y-20323629D01*
X58485993Y-20319191D01*
X58714117Y-20271326D01*
X58719076Y-20269368D01*
X58719078Y-20269367D01*
X58829471Y-20225770D01*
X58930914Y-20185708D01*
X59107757Y-20078398D01*
X59125626Y-20067555D01*
X59125629Y-20067553D01*
X59130187Y-20064787D01*
X59153099Y-20044905D01*
X59302204Y-19915518D01*
X59302206Y-19915516D01*
X59306237Y-19912018D01*
X59348341Y-19860669D01*
X59450646Y-19735900D01*
X59450650Y-19735894D01*
X59454030Y-19731772D01*
X59569340Y-19529200D01*
X59572947Y-19519265D01*
X59647051Y-19315112D01*
X59647052Y-19315108D01*
X59648871Y-19310097D01*
X59649821Y-19304845D01*
X59689610Y-19084809D01*
X59689611Y-19084802D01*
X59690348Y-19080725D01*
X59691500Y-19056298D01*
X59691500Y-18592473D01*
X59676759Y-18418743D01*
X59669877Y-18392227D01*
X59619541Y-18198292D01*
X59619539Y-18198288D01*
X59618200Y-18193127D01*
X59580473Y-18109375D01*
X59524655Y-17985464D01*
X59524654Y-17985461D01*
X59522465Y-17980603D01*
X59392291Y-17787248D01*
X59348486Y-17741328D01*
X59273627Y-17662856D01*
X59231399Y-17618590D01*
X59044391Y-17479452D01*
X59039640Y-17477036D01*
X59039636Y-17477034D01*
X58916311Y-17414333D01*
X58836612Y-17373812D01*
X58614005Y-17304690D01*
X58606379Y-17303679D01*
X58388219Y-17274764D01*
X58388215Y-17274764D01*
X58382935Y-17274064D01*
X58377606Y-17274264D01*
X58377605Y-17274264D01*
X58282876Y-17277821D01*
X58150007Y-17282809D01*
X57921883Y-17330674D01*
X57916924Y-17332632D01*
X57916922Y-17332633D01*
X57861772Y-17354413D01*
X57705086Y-17416292D01*
X57698918Y-17420035D01*
X57510374Y-17534445D01*
X57510371Y-17534447D01*
X57505813Y-17537213D01*
X57501785Y-17540708D01*
X57501784Y-17540709D01*
X57337065Y-17683646D01*
X57329763Y-17689982D01*
X57326376Y-17694113D01*
X57185354Y-17866100D01*
X57185350Y-17866106D01*
X57181970Y-17870228D01*
X57165143Y-17899790D01*
X57157055Y-17913998D01*
X57105973Y-17963304D01*
X57036343Y-17977166D01*
X56970272Y-17951183D01*
X56943033Y-17922033D01*
X56937715Y-17914133D01*
X56864712Y-17805698D01*
X56855271Y-17791674D01*
X56855269Y-17791672D01*
X56852291Y-17787248D01*
X56808486Y-17741328D01*
X56733627Y-17662856D01*
X56691399Y-17618590D01*
X56582224Y-17537362D01*
X56539512Y-17480653D01*
X56534239Y-17409853D01*
X56560354Y-17355958D01*
X56655855Y-17240518D01*
X56659783Y-17235770D01*
X56663876Y-17228201D01*
X56755584Y-17058590D01*
X56755586Y-17058585D01*
X56758514Y-17053170D01*
X56819898Y-16854871D01*
X56821429Y-16840303D01*
X56840952Y-16654554D01*
X56840952Y-16654552D01*
X56841596Y-16648425D01*
X56828047Y-16499547D01*
X56823341Y-16447836D01*
X56823340Y-16447833D01*
X56822782Y-16441697D01*
X56820930Y-16435402D01*
X56772480Y-16270786D01*
X56764173Y-16242560D01*
X56668001Y-16058600D01*
X56537929Y-15896823D01*
X56525371Y-15886285D01*
X56383629Y-15767350D01*
X56378911Y-15763391D01*
X56373519Y-15760427D01*
X56373515Y-15760424D01*
X56202402Y-15666354D01*
X56197005Y-15663387D01*
X55999139Y-15600621D01*
X55993022Y-15599935D01*
X55993018Y-15599934D01*
X55916402Y-15591341D01*
X55837587Y-15582500D01*
X55725763Y-15582500D01*
X55722707Y-15582800D01*
X55722700Y-15582800D01*
X55577534Y-15597034D01*
X55577531Y-15597035D01*
X55571408Y-15597635D01*
X55439454Y-15637474D01*
X55378593Y-15655848D01*
X55378590Y-15655849D01*
X55372685Y-15657632D01*
X55367240Y-15660527D01*
X55367238Y-15660528D01*
X55194847Y-15752191D01*
X55194845Y-15752192D01*
X55189401Y-15755087D01*
X55144236Y-15791923D01*
X55033311Y-15882390D01*
X55033308Y-15882393D01*
X55028536Y-15886285D01*
X54896217Y-16046230D01*
X54893288Y-16051647D01*
X54893286Y-16051650D01*
X54800416Y-16223410D01*
X54800414Y-16223415D01*
X54797486Y-16228830D01*
X54736102Y-16427129D01*
X54735458Y-16433254D01*
X54735458Y-16433255D01*
X54730043Y-16484782D01*
X54714404Y-16633575D01*
X54733218Y-16840303D01*
X54734956Y-16846209D01*
X54734957Y-16846213D01*
X54759856Y-16930813D01*
X54791827Y-17039440D01*
X54887999Y-17223400D01*
X54891859Y-17228200D01*
X54891859Y-17228201D01*
X54993336Y-17354413D01*
X55020432Y-17420035D01*
X55007749Y-17489890D01*
X54969592Y-17534920D01*
X54965813Y-17537213D01*
X54961782Y-17540711D01*
X54933909Y-17564898D01*
X54869349Y-17594438D01*
X54799068Y-17584384D01*
X54762233Y-17558828D01*
X53702952Y-16499547D01*
X53695412Y-16491261D01*
X53691300Y-16484782D01*
X53641648Y-16438156D01*
X53638807Y-16435402D01*
X53619070Y-16415665D01*
X53615873Y-16413185D01*
X53606851Y-16405480D01*
X53593416Y-16392864D01*
X53574621Y-16375214D01*
X53567675Y-16371395D01*
X53567672Y-16371393D01*
X53556866Y-16365452D01*
X53540347Y-16354601D01*
X53539883Y-16354241D01*
X53524341Y-16342186D01*
X53517072Y-16339041D01*
X53517068Y-16339038D01*
X53483763Y-16324626D01*
X53473113Y-16319409D01*
X53434360Y-16298105D01*
X53414737Y-16293067D01*
X53396034Y-16286663D01*
X53384720Y-16281767D01*
X53384719Y-16281767D01*
X53377445Y-16278619D01*
X53369622Y-16277380D01*
X53369612Y-16277377D01*
X53333776Y-16271701D01*
X53322156Y-16269295D01*
X53287011Y-16260272D01*
X53287010Y-16260272D01*
X53279330Y-16258300D01*
X53259076Y-16258300D01*
X53239365Y-16256749D01*
X53236834Y-16256348D01*
X53219357Y-16253580D01*
X53211465Y-16254326D01*
X53175339Y-16257741D01*
X53163481Y-16258300D01*
X28989863Y-16258300D01*
X28978679Y-16257773D01*
X28971191Y-16256099D01*
X28963268Y-16256348D01*
X28903133Y-16258238D01*
X28899175Y-16258300D01*
X28871244Y-16258300D01*
X28867329Y-16258795D01*
X28867325Y-16258795D01*
X28867267Y-16258803D01*
X28867238Y-16258806D01*
X28855396Y-16259739D01*
X28811210Y-16261127D01*
X28793844Y-16266172D01*
X28791758Y-16266778D01*
X28772406Y-16270786D01*
X28760168Y-16272332D01*
X28760166Y-16272333D01*
X28752303Y-16273326D01*
X28711186Y-16289606D01*
X28699985Y-16293441D01*
X28657506Y-16305782D01*
X28650687Y-16309815D01*
X28650682Y-16309817D01*
X28640071Y-16316093D01*
X28622321Y-16324790D01*
X28603483Y-16332248D01*
X28597067Y-16336909D01*
X28597066Y-16336910D01*
X28567725Y-16358228D01*
X28557801Y-16364747D01*
X28526560Y-16383222D01*
X28526555Y-16383226D01*
X28519737Y-16387258D01*
X28505413Y-16401582D01*
X28490381Y-16414421D01*
X28473993Y-16426328D01*
X28456200Y-16447836D01*
X28445812Y-16460393D01*
X28437822Y-16469173D01*
X27331147Y-17575848D01*
X27322861Y-17583388D01*
X27316382Y-17587500D01*
X27310957Y-17593277D01*
X27269757Y-17637151D01*
X27267002Y-17639993D01*
X27247265Y-17659730D01*
X27244785Y-17662927D01*
X27237082Y-17671947D01*
X27206814Y-17704179D01*
X27202995Y-17711125D01*
X27202993Y-17711128D01*
X27197052Y-17721934D01*
X27186201Y-17738453D01*
X27173786Y-17754459D01*
X27170641Y-17761728D01*
X27170638Y-17761732D01*
X27156226Y-17795037D01*
X27151009Y-17805687D01*
X27129705Y-17844440D01*
X27127734Y-17852115D01*
X27127734Y-17852116D01*
X27124667Y-17864062D01*
X27118263Y-17882766D01*
X27110219Y-17901355D01*
X27108980Y-17909178D01*
X27108977Y-17909188D01*
X27103301Y-17945024D01*
X27100895Y-17956644D01*
X27089900Y-17999470D01*
X27089900Y-18019724D01*
X27088349Y-18039434D01*
X27085180Y-18059443D01*
X27085926Y-18067335D01*
X27089341Y-18103461D01*
X27089900Y-18115319D01*
X27089900Y-31556233D01*
X27089373Y-31567416D01*
X27087698Y-31574909D01*
X27087947Y-31582835D01*
X27087947Y-31582836D01*
X27089838Y-31642986D01*
X27089900Y-31646945D01*
X27089900Y-31674856D01*
X27090397Y-31678790D01*
X27090397Y-31678791D01*
X27090405Y-31678856D01*
X27091338Y-31690693D01*
X27092727Y-31734889D01*
X27098378Y-31754339D01*
X27102387Y-31773700D01*
X27104926Y-31793797D01*
X27107845Y-31801168D01*
X27107845Y-31801170D01*
X27121204Y-31834912D01*
X27125049Y-31846142D01*
X27137382Y-31888593D01*
X27141415Y-31895412D01*
X27141417Y-31895417D01*
X27147693Y-31906028D01*
X27156388Y-31923776D01*
X27163848Y-31942617D01*
X27168510Y-31949033D01*
X27168510Y-31949034D01*
X27189836Y-31978387D01*
X27196352Y-31988307D01*
X27218858Y-32026362D01*
X27233179Y-32040683D01*
X27246019Y-32055716D01*
X27257928Y-32072107D01*
X27264034Y-32077158D01*
X27292005Y-32100298D01*
X27300784Y-32108288D01*
X28055405Y-32862909D01*
X28089431Y-32925221D01*
X28087727Y-32985676D01*
X28063448Y-33073222D01*
X28063445Y-33073235D01*
X28062067Y-33078206D01*
X28037869Y-33304631D01*
X28038166Y-33309783D01*
X28038166Y-33309787D01*
X28042389Y-33383016D01*
X28050977Y-33531968D01*
X28052112Y-33537005D01*
X28052113Y-33537011D01*
X28099901Y-33749063D01*
X28101039Y-33754112D01*
X28102983Y-33758898D01*
X28102984Y-33758903D01*
X28183844Y-33958035D01*
X28186711Y-33965096D01*
X28235355Y-34044476D01*
X28289471Y-34132784D01*
X28305692Y-34159255D01*
X28454786Y-34331374D01*
X28629989Y-34476830D01*
X28634441Y-34479432D01*
X28634446Y-34479435D01*
X28667733Y-34498886D01*
X28716456Y-34550525D01*
X28729527Y-34620308D01*
X28702795Y-34686080D01*
X28679813Y-34708435D01*
X28657890Y-34724895D01*
X28649436Y-34736221D01*
X28656180Y-34748551D01*
X29414188Y-35506559D01*
X29428132Y-35514173D01*
X29429965Y-35514042D01*
X29436580Y-35509791D01*
X30199115Y-34747256D01*
X30206136Y-34734400D01*
X30198607Y-34724067D01*
X30191161Y-34719120D01*
X30188880Y-34717861D01*
X30188137Y-34717111D01*
X30186853Y-34716258D01*
X30187029Y-34715993D01*
X30138908Y-34667430D01*
X30124134Y-34597987D01*
X30149249Y-34531581D01*
X30176602Y-34504972D01*
X30323893Y-34399911D01*
X30485193Y-34239173D01*
X30618073Y-34054250D01*
X30638394Y-34013135D01*
X30716673Y-33854749D01*
X30716674Y-33854747D01*
X30718967Y-33850107D01*
X30779146Y-33652035D01*
X30783662Y-33637171D01*
X30783662Y-33637170D01*
X30785164Y-33632227D01*
X30786229Y-33624135D01*
X30814450Y-33409782D01*
X30814451Y-33409775D01*
X30814887Y-33406460D01*
X30816546Y-33338581D01*
X30807381Y-33227110D01*
X30798311Y-33116783D01*
X30798310Y-33116777D01*
X30797887Y-33111632D01*
X30742413Y-32890778D01*
X30737006Y-32878343D01*
X30728185Y-32807897D01*
X30758851Y-32743865D01*
X30819268Y-32706577D01*
X30852555Y-32702100D01*
X43240672Y-32702100D01*
X43308793Y-32722102D01*
X43355286Y-32775758D01*
X43365390Y-32846032D01*
X43362092Y-32861762D01*
X43302067Y-33078206D01*
X43277869Y-33304631D01*
X43278166Y-33309783D01*
X43278166Y-33309787D01*
X43282389Y-33383016D01*
X43290977Y-33531968D01*
X43292112Y-33537005D01*
X43292113Y-33537011D01*
X43339901Y-33749063D01*
X43341039Y-33754112D01*
X43342983Y-33758898D01*
X43342984Y-33758903D01*
X43423844Y-33958035D01*
X43426711Y-33965096D01*
X43475355Y-34044476D01*
X43529471Y-34132784D01*
X43545692Y-34159255D01*
X43694786Y-34331374D01*
X43869989Y-34476830D01*
X43874440Y-34479431D01*
X43874450Y-34479438D01*
X43907266Y-34498614D01*
X43955989Y-34550253D01*
X43969059Y-34620036D01*
X43942326Y-34685808D01*
X43919353Y-34708156D01*
X43744444Y-34839481D01*
X43740872Y-34843219D01*
X43622962Y-34966605D01*
X43587120Y-35004111D01*
X43584206Y-35008383D01*
X43584205Y-35008384D01*
X43575515Y-35021123D01*
X43458797Y-35192226D01*
X43362921Y-35398773D01*
X43361539Y-35403755D01*
X43361539Y-35403756D01*
X43355257Y-35426408D01*
X43302067Y-35618206D01*
X43277869Y-35844631D01*
X43278166Y-35849783D01*
X43278166Y-35849787D01*
X43280565Y-35891393D01*
X43290977Y-36071968D01*
X43292112Y-36077005D01*
X43292113Y-36077011D01*
X43331234Y-36250603D01*
X43341039Y-36294112D01*
X43342983Y-36298898D01*
X43342984Y-36298903D01*
X43418246Y-36484250D01*
X43426711Y-36505096D01*
X43545692Y-36699255D01*
X43694786Y-36871374D01*
X43869989Y-37016830D01*
X43874442Y-37019432D01*
X43874446Y-37019435D01*
X43971071Y-37075898D01*
X44019794Y-37127537D01*
X44033500Y-37184686D01*
X44033500Y-42389633D01*
X44032973Y-42400816D01*
X44031298Y-42408309D01*
X44031547Y-42416235D01*
X44031547Y-42416236D01*
X44033438Y-42476386D01*
X44033500Y-42480345D01*
X44033500Y-42508256D01*
X44033997Y-42512190D01*
X44033997Y-42512191D01*
X44034005Y-42512256D01*
X44034938Y-42524093D01*
X44036327Y-42568289D01*
X44041978Y-42587739D01*
X44045987Y-42607100D01*
X44048526Y-42627197D01*
X44051445Y-42634568D01*
X44051445Y-42634570D01*
X44064804Y-42668312D01*
X44068649Y-42679542D01*
X44078771Y-42714383D01*
X44080982Y-42721993D01*
X44085015Y-42728812D01*
X44085017Y-42728817D01*
X44091293Y-42739428D01*
X44099988Y-42757176D01*
X44107448Y-42776017D01*
X44112110Y-42782433D01*
X44112110Y-42782434D01*
X44133436Y-42811787D01*
X44139952Y-42821707D01*
X44156307Y-42849361D01*
X44162458Y-42859762D01*
X44176779Y-42874083D01*
X44189619Y-42889116D01*
X44201528Y-42905507D01*
X44207634Y-42910558D01*
X44235605Y-42933698D01*
X44244384Y-42941688D01*
X44665724Y-43363028D01*
X44699750Y-43425340D01*
X44694685Y-43496155D01*
X44652138Y-43552991D01*
X44622911Y-43569315D01*
X44603541Y-43576965D01*
X44550744Y-43597815D01*
X44550742Y-43597816D01*
X44545779Y-43599776D01*
X44541220Y-43602543D01*
X44541217Y-43602544D01*
X44406618Y-43684221D01*
X44348683Y-43719377D01*
X44344653Y-43722874D01*
X44180528Y-43865294D01*
X44174555Y-43870477D01*
X44171168Y-43874608D01*
X44031760Y-44044627D01*
X44031756Y-44044633D01*
X44028376Y-44048755D01*
X44010448Y-44080250D01*
X43959368Y-44129555D01*
X43889738Y-44143417D01*
X43823667Y-44117434D01*
X43796427Y-44088284D01*
X43717539Y-43971108D01*
X43714559Y-43966681D01*
X43555424Y-43799865D01*
X43370458Y-43662246D01*
X43365706Y-43659830D01*
X43365698Y-43659825D01*
X43349190Y-43651432D01*
X43297533Y-43602728D01*
X43280545Y-43547029D01*
X43279723Y-43533964D01*
X43279723Y-43533963D01*
X43279225Y-43526050D01*
X43276679Y-43518213D01*
X43271506Y-43495069D01*
X43271468Y-43494765D01*
X43271467Y-43494760D01*
X43270474Y-43486903D01*
X43267558Y-43479538D01*
X43267557Y-43479534D01*
X43249801Y-43434689D01*
X43247129Y-43427270D01*
X43229764Y-43373825D01*
X43225514Y-43367128D01*
X43225350Y-43366869D01*
X43214585Y-43345742D01*
X43214471Y-43345454D01*
X43214468Y-43345449D01*
X43211552Y-43338083D01*
X43206896Y-43331675D01*
X43206893Y-43331669D01*
X43178542Y-43292648D01*
X43174092Y-43286101D01*
X43144000Y-43238682D01*
X43137993Y-43233041D01*
X43122312Y-43215254D01*
X43122134Y-43215009D01*
X43122132Y-43215007D01*
X43117472Y-43208593D01*
X43101514Y-43195391D01*
X43074204Y-43172797D01*
X43068270Y-43167566D01*
X43033102Y-43134542D01*
X43033099Y-43134540D01*
X43027321Y-43129114D01*
X43020097Y-43125142D01*
X43000494Y-43111819D01*
X43000254Y-43111620D01*
X43000247Y-43111616D01*
X42994144Y-43106567D01*
X42951461Y-43086482D01*
X42943324Y-43082653D01*
X42936292Y-43079071D01*
X42887060Y-43052005D01*
X42879385Y-43050035D01*
X42879379Y-43050032D01*
X42879081Y-43049956D01*
X42856772Y-43041924D01*
X42856497Y-43041794D01*
X42856489Y-43041791D01*
X42849318Y-43038417D01*
X42794151Y-43027894D01*
X42786442Y-43026171D01*
X42744528Y-43015409D01*
X42739707Y-43014171D01*
X42739706Y-43014171D01*
X42732030Y-43012200D01*
X42723793Y-43012200D01*
X42700184Y-43009968D01*
X42699889Y-43009912D01*
X42692094Y-43008425D01*
X42686869Y-43008754D01*
X42621267Y-42984926D01*
X42606811Y-42972507D01*
X37005099Y-37370794D01*
X36971073Y-37308482D01*
X36976138Y-37237667D01*
X37018685Y-37180831D01*
X37085205Y-37156020D01*
X37098815Y-37155784D01*
X37104850Y-37156005D01*
X37115133Y-37155539D01*
X37330670Y-37127928D01*
X37340748Y-37125786D01*
X37548877Y-37063344D01*
X37558475Y-37059583D01*
X37753615Y-36963985D01*
X37762454Y-36958716D01*
X37815104Y-36921161D01*
X37823504Y-36910462D01*
X37816515Y-36897306D01*
X36688922Y-35769713D01*
X37411408Y-35769713D01*
X37411539Y-35771546D01*
X37415790Y-35778161D01*
X38176320Y-36538691D01*
X38188330Y-36545250D01*
X38200071Y-36536281D01*
X38215245Y-36515163D01*
X38271239Y-36471515D01*
X38341942Y-36465068D01*
X38404907Y-36497870D01*
X38425000Y-36522852D01*
X38465692Y-36589255D01*
X38614786Y-36761374D01*
X38789989Y-36906830D01*
X38794441Y-36909432D01*
X38794446Y-36909435D01*
X38978742Y-37017129D01*
X38986597Y-37021719D01*
X39199329Y-37102953D01*
X39204395Y-37103984D01*
X39204396Y-37103984D01*
X39245659Y-37112379D01*
X39422472Y-37148352D01*
X39550288Y-37153039D01*
X39644870Y-37156508D01*
X39644875Y-37156508D01*
X39650034Y-37156697D01*
X39655154Y-37156041D01*
X39655156Y-37156041D01*
X39730054Y-37146446D01*
X39875903Y-37127762D01*
X39880852Y-37126277D01*
X39880858Y-37126276D01*
X40010020Y-37087525D01*
X40094013Y-37062326D01*
X40298507Y-36962145D01*
X40302711Y-36959147D01*
X40302715Y-36959144D01*
X40389408Y-36897306D01*
X40483893Y-36829911D01*
X40645193Y-36669173D01*
X40778073Y-36484250D01*
X40787554Y-36465068D01*
X40876673Y-36284749D01*
X40876674Y-36284747D01*
X40878967Y-36280107D01*
X40940691Y-36076951D01*
X40943662Y-36067171D01*
X40943662Y-36067170D01*
X40945164Y-36062227D01*
X40949138Y-36032042D01*
X40974450Y-35839782D01*
X40974451Y-35839775D01*
X40974887Y-35836460D01*
X40975386Y-35816033D01*
X40976464Y-35771946D01*
X40976464Y-35771941D01*
X40976546Y-35768581D01*
X40966525Y-35646695D01*
X40958311Y-35546783D01*
X40958310Y-35546777D01*
X40957887Y-35541632D01*
X40923255Y-35403756D01*
X40903672Y-35325789D01*
X40903671Y-35325785D01*
X40902413Y-35320778D01*
X40900354Y-35316042D01*
X40813672Y-35116687D01*
X40813670Y-35116684D01*
X40811612Y-35111950D01*
X40687923Y-34920756D01*
X40534668Y-34752331D01*
X40355963Y-34611199D01*
X40156607Y-34501148D01*
X40040598Y-34460067D01*
X39946829Y-34426861D01*
X39946825Y-34426860D01*
X39941954Y-34425135D01*
X39936861Y-34424228D01*
X39936858Y-34424227D01*
X39722857Y-34386108D01*
X39722851Y-34386107D01*
X39717768Y-34385202D01*
X39630698Y-34384138D01*
X39495239Y-34382483D01*
X39495237Y-34382483D01*
X39490070Y-34382420D01*
X39264976Y-34416864D01*
X39048529Y-34487610D01*
X39043937Y-34490000D01*
X39043938Y-34490000D01*
X38872906Y-34579034D01*
X38846544Y-34592757D01*
X38842411Y-34595860D01*
X38842408Y-34595862D01*
X38670552Y-34724895D01*
X38664444Y-34729481D01*
X38643080Y-34751837D01*
X38527199Y-34873100D01*
X38507120Y-34894111D01*
X38420477Y-35021126D01*
X38365568Y-35066126D01*
X38295044Y-35074297D01*
X38231296Y-35043043D01*
X38210599Y-35018559D01*
X38199083Y-35000759D01*
X38188398Y-34991556D01*
X38178831Y-34995960D01*
X37419022Y-35755769D01*
X37411408Y-35769713D01*
X36688922Y-35769713D01*
X35917922Y-34998713D01*
X35906386Y-34992413D01*
X35894101Y-35002038D01*
X35881078Y-35021129D01*
X35826167Y-35066132D01*
X35755642Y-35074303D01*
X35691895Y-35043049D01*
X35671200Y-35018568D01*
X35607923Y-34920756D01*
X35454668Y-34752331D01*
X35294984Y-34626221D01*
X36269436Y-34626221D01*
X36276180Y-34638551D01*
X37034188Y-35396559D01*
X37048132Y-35404173D01*
X37049965Y-35404042D01*
X37056580Y-35399791D01*
X37819115Y-34637256D01*
X37826136Y-34624400D01*
X37818607Y-34614067D01*
X37811156Y-34609117D01*
X37620932Y-34504107D01*
X37611523Y-34499879D01*
X37406697Y-34427346D01*
X37396734Y-34424714D01*
X37182810Y-34386608D01*
X37172557Y-34385639D01*
X36955274Y-34382984D01*
X36944991Y-34383704D01*
X36730205Y-34416571D01*
X36720177Y-34418960D01*
X36513638Y-34486467D01*
X36504141Y-34490459D01*
X36311400Y-34590792D01*
X36302672Y-34596289D01*
X36277889Y-34614896D01*
X36269436Y-34626221D01*
X35294984Y-34626221D01*
X35275963Y-34611199D01*
X35076607Y-34501148D01*
X34960598Y-34460067D01*
X34866829Y-34426861D01*
X34866825Y-34426860D01*
X34861954Y-34425135D01*
X34856861Y-34424228D01*
X34856858Y-34424227D01*
X34642857Y-34386108D01*
X34642851Y-34386107D01*
X34637768Y-34385202D01*
X34550698Y-34384138D01*
X34415239Y-34382483D01*
X34415237Y-34382483D01*
X34410070Y-34382420D01*
X34184976Y-34416864D01*
X33968529Y-34487610D01*
X33963937Y-34490000D01*
X33963938Y-34490000D01*
X33792906Y-34579034D01*
X33766544Y-34592757D01*
X33762411Y-34595860D01*
X33762408Y-34595862D01*
X33590552Y-34724895D01*
X33584444Y-34729481D01*
X33563080Y-34751837D01*
X33447199Y-34873100D01*
X33427120Y-34894111D01*
X33424211Y-34898376D01*
X33424205Y-34898384D01*
X33381582Y-34960868D01*
X33298797Y-35082226D01*
X33202921Y-35288773D01*
X33201539Y-35293755D01*
X33201539Y-35293756D01*
X33177320Y-35381089D01*
X33142067Y-35508206D01*
X33117869Y-35734631D01*
X33118166Y-35739783D01*
X33118166Y-35739787D01*
X33121202Y-35792439D01*
X33130977Y-35961968D01*
X33132112Y-35967005D01*
X33132113Y-35967011D01*
X33179452Y-36177072D01*
X33181039Y-36184112D01*
X33182983Y-36188898D01*
X33182984Y-36188903D01*
X33227588Y-36298748D01*
X33266711Y-36395096D01*
X33385692Y-36589255D01*
X33534786Y-36761374D01*
X33709989Y-36906830D01*
X33714441Y-36909432D01*
X33714446Y-36909435D01*
X33898742Y-37017129D01*
X33906597Y-37021719D01*
X34119329Y-37102953D01*
X34124395Y-37103984D01*
X34124396Y-37103984D01*
X34165659Y-37112379D01*
X34342472Y-37148352D01*
X34470288Y-37153039D01*
X34564870Y-37156508D01*
X34564875Y-37156508D01*
X34570034Y-37156697D01*
X34575154Y-37156041D01*
X34575156Y-37156041D01*
X34650054Y-37146446D01*
X34795903Y-37127762D01*
X34857937Y-37109151D01*
X34928931Y-37108734D01*
X34983238Y-37140742D01*
X37802601Y-39960105D01*
X37836627Y-40022417D01*
X37831562Y-40093232D01*
X37789015Y-40150068D01*
X37722495Y-40174879D01*
X37713506Y-40175200D01*
X30692895Y-40175200D01*
X30624774Y-40155198D01*
X30578281Y-40101542D01*
X30568177Y-40031268D01*
X30597671Y-39966688D01*
X30603800Y-39960105D01*
X31986304Y-38577601D01*
X32048616Y-38543575D01*
X32087959Y-38541420D01*
X32093513Y-38542600D01*
X32284487Y-38542600D01*
X32290939Y-38541228D01*
X32290944Y-38541228D01*
X32377888Y-38522747D01*
X32471288Y-38502894D01*
X32509415Y-38485919D01*
X32639722Y-38427903D01*
X32639724Y-38427902D01*
X32645752Y-38425218D01*
X32800253Y-38312966D01*
X32804675Y-38308055D01*
X32923621Y-38175952D01*
X32923622Y-38175951D01*
X32928040Y-38171044D01*
X33023527Y-38005656D01*
X33082542Y-37824028D01*
X33095938Y-37696577D01*
X33101814Y-37640665D01*
X33102504Y-37634100D01*
X33089349Y-37508935D01*
X33083232Y-37450735D01*
X33083232Y-37450733D01*
X33082542Y-37444172D01*
X33023527Y-37262544D01*
X32928040Y-37097156D01*
X32907569Y-37074420D01*
X32804675Y-36960145D01*
X32804674Y-36960144D01*
X32800253Y-36955234D01*
X32679453Y-36867467D01*
X32651094Y-36846863D01*
X32651093Y-36846862D01*
X32645752Y-36842982D01*
X32639724Y-36840298D01*
X32639722Y-36840297D01*
X32477319Y-36767991D01*
X32477318Y-36767991D01*
X32471288Y-36765306D01*
X32377887Y-36745453D01*
X32290944Y-36726972D01*
X32290939Y-36726972D01*
X32284487Y-36725600D01*
X32093513Y-36725600D01*
X32087061Y-36726972D01*
X32087056Y-36726972D01*
X32000113Y-36745453D01*
X31906712Y-36765306D01*
X31900682Y-36767991D01*
X31900681Y-36767991D01*
X31738278Y-36840297D01*
X31738276Y-36840298D01*
X31732248Y-36842982D01*
X31726907Y-36846862D01*
X31726906Y-36846863D01*
X31698547Y-36867467D01*
X31577747Y-36955234D01*
X31573326Y-36960144D01*
X31573325Y-36960145D01*
X31470432Y-37074420D01*
X31449960Y-37097156D01*
X31354473Y-37262544D01*
X31350438Y-37274963D01*
X31299545Y-37431595D01*
X31295458Y-37444172D01*
X31294985Y-37448671D01*
X31261199Y-37510897D01*
X25629745Y-43142350D01*
X25566846Y-43176502D01*
X25544076Y-43181342D01*
X25497070Y-43191333D01*
X25497067Y-43191334D01*
X25490612Y-43192706D01*
X25484582Y-43195391D01*
X25484581Y-43195391D01*
X25322178Y-43267697D01*
X25322176Y-43267698D01*
X25316148Y-43270382D01*
X25310807Y-43274262D01*
X25310806Y-43274263D01*
X25260743Y-43310636D01*
X25161647Y-43382634D01*
X25157226Y-43387544D01*
X25157225Y-43387545D01*
X25042381Y-43515093D01*
X25033860Y-43524556D01*
X24998353Y-43586056D01*
X24944916Y-43678612D01*
X24938373Y-43689944D01*
X24879358Y-43871572D01*
X24878668Y-43878133D01*
X24878668Y-43878135D01*
X24871606Y-43945329D01*
X24859396Y-44061500D01*
X24879358Y-44251428D01*
X24880114Y-44253753D01*
X24874831Y-44323005D01*
X24832015Y-44379639D01*
X24765378Y-44404134D01*
X24696076Y-44388714D01*
X24667890Y-44367509D01*
X21703770Y-41403389D01*
X21691384Y-41388977D01*
X21682851Y-41377382D01*
X21682846Y-41377377D01*
X21678508Y-41371482D01*
X21672930Y-41366743D01*
X21672927Y-41366740D01*
X21638232Y-41337265D01*
X21630716Y-41330335D01*
X21625021Y-41324640D01*
X21622152Y-41322370D01*
X21622145Y-41322364D01*
X21607322Y-41310637D01*
X21566310Y-41252684D01*
X21559500Y-41211823D01*
X21559500Y-38793866D01*
X21552745Y-38731684D01*
X21501615Y-38595295D01*
X21414261Y-38478739D01*
X21297705Y-38391385D01*
X21161316Y-38340255D01*
X21099134Y-38333500D01*
X18402866Y-38333500D01*
X18340684Y-38340255D01*
X18204295Y-38391385D01*
X18087739Y-38478739D01*
X18000385Y-38595295D01*
X17949255Y-38731684D01*
X17942500Y-38793866D01*
X17942500Y-41490134D01*
X17949255Y-41552316D01*
X18000385Y-41688705D01*
X18087739Y-41805261D01*
X18204295Y-41892615D01*
X18340684Y-41943745D01*
X18402866Y-41950500D01*
X18881958Y-41950500D01*
X18950079Y-41970502D01*
X18996572Y-42024158D01*
X19004817Y-42053697D01*
X19005286Y-42053586D01*
X19006970Y-42060711D01*
X19007818Y-42067981D01*
X19011058Y-42076907D01*
X19016799Y-42098558D01*
X19018406Y-42107914D01*
X19021270Y-42114645D01*
X19043670Y-42167288D01*
X19046152Y-42173589D01*
X19068167Y-42234237D01*
X19072181Y-42240359D01*
X19073373Y-42242178D01*
X19083933Y-42261915D01*
X19084787Y-42263923D01*
X19084794Y-42263935D01*
X19087657Y-42270664D01*
X19091993Y-42276556D01*
X19091996Y-42276561D01*
X19125900Y-42322632D01*
X19129790Y-42328228D01*
X19165144Y-42382152D01*
X19170461Y-42387189D01*
X19172039Y-42388684D01*
X19186861Y-42405466D01*
X19192492Y-42413118D01*
X19198065Y-42417853D01*
X19198072Y-42417860D01*
X19241649Y-42454881D01*
X19246723Y-42459433D01*
X19264619Y-42476386D01*
X19293547Y-42503790D01*
X19299874Y-42507465D01*
X19299883Y-42507472D01*
X19301768Y-42508567D01*
X19320047Y-42521485D01*
X19321706Y-42522894D01*
X19321709Y-42522896D01*
X19327285Y-42527633D01*
X19333799Y-42530959D01*
X19333803Y-42530962D01*
X19384736Y-42556970D01*
X19390719Y-42560232D01*
X19440159Y-42588949D01*
X19440161Y-42588950D01*
X19446490Y-42592626D01*
X19453494Y-42594747D01*
X19453498Y-42594749D01*
X19455575Y-42595378D01*
X19476351Y-42603751D01*
X19484808Y-42608069D01*
X19547495Y-42623408D01*
X19554012Y-42625191D01*
X19615767Y-42643895D01*
X19625017Y-42644469D01*
X19625246Y-42644483D01*
X19647383Y-42647851D01*
X19651154Y-42648774D01*
X19651166Y-42648776D01*
X19656610Y-42650108D01*
X19664461Y-42650595D01*
X19665825Y-42650680D01*
X19665835Y-42650680D01*
X19667764Y-42650800D01*
X19723165Y-42650800D01*
X19730966Y-42651042D01*
X19792298Y-42654847D01*
X19805260Y-42652620D01*
X19826596Y-42650800D01*
X20753629Y-42650800D01*
X20821750Y-42670802D01*
X20842724Y-42687705D01*
X25689930Y-47534911D01*
X25702316Y-47549323D01*
X25710849Y-47560918D01*
X25710854Y-47560923D01*
X25715192Y-47566818D01*
X25720770Y-47571557D01*
X25720773Y-47571560D01*
X25755468Y-47601035D01*
X25762984Y-47607965D01*
X25768679Y-47613660D01*
X25771561Y-47615940D01*
X25790951Y-47631281D01*
X25794355Y-47634072D01*
X25844403Y-47676591D01*
X25849985Y-47681333D01*
X25856501Y-47684661D01*
X25861550Y-47688028D01*
X25866679Y-47691195D01*
X25872416Y-47695734D01*
X25938575Y-47726655D01*
X25942469Y-47728558D01*
X26007508Y-47761769D01*
X26014616Y-47763508D01*
X26020259Y-47765607D01*
X26026022Y-47767524D01*
X26032650Y-47770622D01*
X26039812Y-47772112D01*
X26039813Y-47772112D01*
X26104112Y-47785486D01*
X26108354Y-47786446D01*
X26119450Y-47789161D01*
X26180861Y-47824779D01*
X26213270Y-47887947D01*
X26215500Y-47911549D01*
X26215500Y-47944134D01*
X26222255Y-48006316D01*
X26273385Y-48142705D01*
X26360739Y-48259261D01*
X26367919Y-48264642D01*
X26367920Y-48264643D01*
X26460161Y-48333774D01*
X26502676Y-48390633D01*
X26507702Y-48461452D01*
X26473642Y-48523745D01*
X26411311Y-48557735D01*
X26384596Y-48560600D01*
X20070271Y-48560600D01*
X20002150Y-48540598D01*
X19981176Y-48523695D01*
X19143070Y-47685589D01*
X19130684Y-47671177D01*
X19122151Y-47659582D01*
X19122146Y-47659577D01*
X19117808Y-47653682D01*
X19112230Y-47648943D01*
X19112227Y-47648940D01*
X19077532Y-47619465D01*
X19070016Y-47612535D01*
X19064321Y-47606840D01*
X19046369Y-47592637D01*
X19042049Y-47589219D01*
X19038645Y-47586428D01*
X18988597Y-47543909D01*
X18988595Y-47543908D01*
X18983015Y-47539167D01*
X18976499Y-47535839D01*
X18971450Y-47532472D01*
X18966321Y-47529305D01*
X18960584Y-47524766D01*
X18894425Y-47493845D01*
X18890525Y-47491939D01*
X18825492Y-47458731D01*
X18818384Y-47456992D01*
X18812741Y-47454893D01*
X18806978Y-47452976D01*
X18800350Y-47449878D01*
X18728883Y-47435013D01*
X18724646Y-47434054D01*
X18713550Y-47431339D01*
X18652139Y-47395721D01*
X18619730Y-47332553D01*
X18617500Y-47308951D01*
X18617500Y-47171366D01*
X18610745Y-47109184D01*
X18559615Y-46972795D01*
X18472261Y-46856239D01*
X18355705Y-46768885D01*
X18219316Y-46717755D01*
X18157134Y-46711000D01*
X16150866Y-46711000D01*
X16088684Y-46717755D01*
X15952295Y-46768885D01*
X15835739Y-46856239D01*
X15748385Y-46972795D01*
X15697255Y-47109184D01*
X15690500Y-47171366D01*
X15690500Y-49177634D01*
X15697255Y-49239816D01*
X15748385Y-49376205D01*
X15835739Y-49492761D01*
X15952295Y-49580115D01*
X15960704Y-49583267D01*
X15960705Y-49583268D01*
X15973493Y-49588062D01*
X16030258Y-49630703D01*
X16054958Y-49697264D01*
X16039751Y-49766613D01*
X16020356Y-49793097D01*
X16016712Y-49796910D01*
X16010225Y-49804921D01*
X15880481Y-49995117D01*
X15875393Y-50004073D01*
X15778456Y-50212906D01*
X15774897Y-50222579D01*
X15713368Y-50444448D01*
X15711440Y-50454555D01*
X15686972Y-50683501D01*
X15686721Y-50693789D01*
X15699975Y-50923639D01*
X15701411Y-50933860D01*
X15752026Y-51158454D01*
X15755105Y-51168282D01*
X15841728Y-51381608D01*
X15846371Y-51390799D01*
X15944100Y-51550279D01*
X15954556Y-51559739D01*
X15963334Y-51555955D01*
X17064905Y-50454385D01*
X17127217Y-50420359D01*
X17198033Y-50425424D01*
X17243095Y-50454385D01*
X18339714Y-51551003D01*
X18351725Y-51557562D01*
X18363463Y-51548595D01*
X18409316Y-51484783D01*
X18414627Y-51475944D01*
X18516631Y-51269554D01*
X18520429Y-51259961D01*
X18587358Y-51039672D01*
X18589535Y-51029602D01*
X18619824Y-50799534D01*
X18620343Y-50792859D01*
X18621932Y-50727864D01*
X18621738Y-50721146D01*
X18602726Y-50489896D01*
X18601041Y-50479716D01*
X18544953Y-50256421D01*
X18541633Y-50246670D01*
X18449826Y-50035526D01*
X18444959Y-50026451D01*
X18319902Y-49833141D01*
X18313611Y-49824972D01*
X18283316Y-49791679D01*
X18252264Y-49727833D01*
X18260658Y-49657335D01*
X18305835Y-49602566D01*
X18332280Y-49588897D01*
X18347295Y-49583268D01*
X18347296Y-49583267D01*
X18355705Y-49580115D01*
X18472261Y-49492761D01*
X18527596Y-49418928D01*
X18584455Y-49376413D01*
X18655274Y-49371387D01*
X18717517Y-49405398D01*
X19120130Y-49808011D01*
X19132516Y-49822423D01*
X19141049Y-49834018D01*
X19141054Y-49834023D01*
X19145392Y-49839918D01*
X19150970Y-49844657D01*
X19150973Y-49844660D01*
X19185668Y-49874135D01*
X19193184Y-49881065D01*
X19198879Y-49886760D01*
X19201761Y-49889040D01*
X19221151Y-49904381D01*
X19224555Y-49907172D01*
X19274603Y-49949691D01*
X19280185Y-49954433D01*
X19286701Y-49957761D01*
X19291750Y-49961128D01*
X19296879Y-49964295D01*
X19302616Y-49968834D01*
X19368775Y-49999755D01*
X19372669Y-50001658D01*
X19437708Y-50034869D01*
X19444817Y-50036608D01*
X19450451Y-50038704D01*
X19456221Y-50040623D01*
X19462850Y-50043722D01*
X19470013Y-50045212D01*
X19470016Y-50045213D01*
X19519007Y-50055403D01*
X19534335Y-50058591D01*
X19538601Y-50059557D01*
X19609510Y-50076908D01*
X19615112Y-50077256D01*
X19615115Y-50077256D01*
X19620664Y-50077600D01*
X19620662Y-50077635D01*
X19624634Y-50077875D01*
X19628855Y-50078252D01*
X19636015Y-50079741D01*
X19713442Y-50077646D01*
X19716850Y-50077600D01*
X30837429Y-50077600D01*
X30905550Y-50097602D01*
X30926524Y-50114505D01*
X32029315Y-51217296D01*
X32063341Y-51279608D01*
X32058276Y-51350423D01*
X32015729Y-51407259D01*
X31998402Y-51418154D01*
X31927607Y-51455007D01*
X31923474Y-51458110D01*
X31923471Y-51458112D01*
X31753100Y-51586030D01*
X31748965Y-51589135D01*
X31745393Y-51592873D01*
X31614580Y-51729761D01*
X31594629Y-51750638D01*
X31564363Y-51795007D01*
X31509455Y-51840007D01*
X31460277Y-51850000D01*
X31309939Y-51850000D01*
X31241818Y-51829998D01*
X31204147Y-51792441D01*
X31203426Y-51791325D01*
X31194014Y-51776777D01*
X31043670Y-51611551D01*
X31039619Y-51608352D01*
X31039615Y-51608348D01*
X30872414Y-51476300D01*
X30872410Y-51476298D01*
X30868359Y-51473098D01*
X30672789Y-51365138D01*
X30667920Y-51363414D01*
X30667916Y-51363412D01*
X30467087Y-51292295D01*
X30467083Y-51292294D01*
X30462212Y-51290569D01*
X30457119Y-51289662D01*
X30457116Y-51289661D01*
X30247373Y-51252300D01*
X30247367Y-51252299D01*
X30242284Y-51251394D01*
X30168452Y-51250492D01*
X30024081Y-51248728D01*
X30024079Y-51248728D01*
X30018911Y-51248665D01*
X29798091Y-51282455D01*
X29585756Y-51351857D01*
X29387607Y-51455007D01*
X29383474Y-51458110D01*
X29383471Y-51458112D01*
X29213100Y-51586030D01*
X29208965Y-51589135D01*
X29205393Y-51592873D01*
X29074580Y-51729761D01*
X29054629Y-51750638D01*
X29024363Y-51795007D01*
X28969455Y-51840007D01*
X28920277Y-51850000D01*
X28769939Y-51850000D01*
X28701818Y-51829998D01*
X28664147Y-51792441D01*
X28663426Y-51791325D01*
X28654014Y-51776777D01*
X28503670Y-51611551D01*
X28499619Y-51608352D01*
X28499615Y-51608348D01*
X28332414Y-51476300D01*
X28332410Y-51476298D01*
X28328359Y-51473098D01*
X28132789Y-51365138D01*
X28127920Y-51363414D01*
X28127916Y-51363412D01*
X27927087Y-51292295D01*
X27927083Y-51292294D01*
X27922212Y-51290569D01*
X27917119Y-51289662D01*
X27917116Y-51289661D01*
X27707373Y-51252300D01*
X27707367Y-51252299D01*
X27702284Y-51251394D01*
X27628452Y-51250492D01*
X27484081Y-51248728D01*
X27484079Y-51248728D01*
X27478911Y-51248665D01*
X27258091Y-51282455D01*
X27045756Y-51351857D01*
X26847607Y-51455007D01*
X26843474Y-51458110D01*
X26843471Y-51458112D01*
X26673100Y-51586030D01*
X26668965Y-51589135D01*
X26665393Y-51592873D01*
X26534580Y-51729761D01*
X26514629Y-51750638D01*
X26511720Y-51754903D01*
X26511714Y-51754911D01*
X26463042Y-51826261D01*
X26388743Y-51935180D01*
X26369861Y-51975858D01*
X26305863Y-52113731D01*
X26294688Y-52137805D01*
X26234989Y-52353070D01*
X26211251Y-52575195D01*
X26211548Y-52580348D01*
X26211548Y-52580351D01*
X26222335Y-52767424D01*
X26224110Y-52798215D01*
X26225247Y-52803261D01*
X26225248Y-52803267D01*
X26241128Y-52873730D01*
X26273222Y-53016139D01*
X26357266Y-53223116D01*
X26369927Y-53243777D01*
X26467634Y-53403220D01*
X26473987Y-53413588D01*
X26620250Y-53582438D01*
X26624230Y-53585742D01*
X26628981Y-53589687D01*
X26668616Y-53648590D01*
X26670113Y-53719571D01*
X26632997Y-53780093D01*
X26592725Y-53804612D01*
X26552374Y-53819739D01*
X26477295Y-53847885D01*
X26360739Y-53935239D01*
X26273385Y-54051795D01*
X26222255Y-54188184D01*
X26215500Y-54250366D01*
X26215500Y-56046634D01*
X26222255Y-56108816D01*
X26273385Y-56245205D01*
X26360739Y-56361761D01*
X26374551Y-56372113D01*
X26417068Y-56428969D01*
X26422096Y-56499787D01*
X26388084Y-56562035D01*
X25766689Y-57183430D01*
X25752277Y-57195816D01*
X25740682Y-57204349D01*
X25740677Y-57204354D01*
X25734782Y-57208692D01*
X25730043Y-57214270D01*
X25730040Y-57214273D01*
X25700565Y-57248968D01*
X25693635Y-57256484D01*
X25687940Y-57262179D01*
X25685660Y-57265061D01*
X25670319Y-57284451D01*
X25667528Y-57287855D01*
X25625009Y-57337903D01*
X25620267Y-57343485D01*
X25616939Y-57350001D01*
X25613572Y-57355050D01*
X25610405Y-57360179D01*
X25605866Y-57365916D01*
X25574945Y-57432075D01*
X25573042Y-57435969D01*
X25539831Y-57501008D01*
X25538092Y-57508116D01*
X25535993Y-57513759D01*
X25534076Y-57519522D01*
X25530978Y-57526150D01*
X25529488Y-57533312D01*
X25529488Y-57533313D01*
X25516114Y-57597612D01*
X25515144Y-57601896D01*
X25497792Y-57672810D01*
X25497100Y-57683964D01*
X25497064Y-57683962D01*
X25496825Y-57687955D01*
X25496451Y-57692147D01*
X25494960Y-57699315D01*
X25495158Y-57706632D01*
X25497054Y-57776721D01*
X25497100Y-57780128D01*
X25497100Y-61865530D01*
X25495667Y-61884480D01*
X25492401Y-61905949D01*
X25492994Y-61913241D01*
X25492994Y-61913244D01*
X25496685Y-61958618D01*
X25497100Y-61968833D01*
X25497100Y-61976893D01*
X25497525Y-61980537D01*
X25500389Y-62005107D01*
X25500822Y-62009482D01*
X25505147Y-62062649D01*
X25506740Y-62082237D01*
X25508996Y-62089201D01*
X25510187Y-62095160D01*
X25511571Y-62101015D01*
X25512418Y-62108281D01*
X25537335Y-62176927D01*
X25538752Y-62181055D01*
X25554616Y-62230023D01*
X25561249Y-62250499D01*
X25565045Y-62256754D01*
X25567551Y-62262228D01*
X25570270Y-62267658D01*
X25572767Y-62274537D01*
X25576780Y-62280657D01*
X25576780Y-62280658D01*
X25612786Y-62335576D01*
X25615123Y-62339280D01*
X25653005Y-62401707D01*
X25656721Y-62405915D01*
X25656722Y-62405916D01*
X25660403Y-62410084D01*
X25660376Y-62410108D01*
X25663029Y-62413100D01*
X25665732Y-62416333D01*
X25669744Y-62422452D01*
X25713361Y-62463771D01*
X25725983Y-62475728D01*
X25728425Y-62478106D01*
X26178595Y-62928276D01*
X26212621Y-62990588D01*
X26215500Y-63017371D01*
X26215500Y-64149134D01*
X26222255Y-64211316D01*
X26273385Y-64347705D01*
X26360739Y-64464261D01*
X26477295Y-64551615D01*
X26613684Y-64602745D01*
X26675866Y-64609500D01*
X28472134Y-64609500D01*
X28534316Y-64602745D01*
X28670705Y-64551615D01*
X28787261Y-64464261D01*
X28874615Y-64347705D01*
X28895433Y-64292173D01*
X28918598Y-64230382D01*
X28961240Y-64173618D01*
X29027802Y-64148918D01*
X29097150Y-64164126D01*
X29131817Y-64192114D01*
X29160250Y-64224938D01*
X29332126Y-64367632D01*
X29525000Y-64480338D01*
X29733692Y-64560030D01*
X29738760Y-64561061D01*
X29738763Y-64561062D01*
X29846017Y-64582883D01*
X29952597Y-64604567D01*
X29957772Y-64604757D01*
X29957774Y-64604757D01*
X30170673Y-64612564D01*
X30170677Y-64612564D01*
X30175837Y-64612753D01*
X30180957Y-64612097D01*
X30180959Y-64612097D01*
X30392288Y-64585025D01*
X30392289Y-64585025D01*
X30397416Y-64584368D01*
X30402366Y-64582883D01*
X30606429Y-64521661D01*
X30606434Y-64521659D01*
X30611384Y-64520174D01*
X30811994Y-64421896D01*
X30993860Y-64292173D01*
X31001412Y-64284648D01*
X31122355Y-64164126D01*
X31152096Y-64134489D01*
X31211354Y-64052023D01*
X31282453Y-63953077D01*
X31283776Y-63954028D01*
X31330645Y-63910857D01*
X31400580Y-63898625D01*
X31466026Y-63926144D01*
X31493875Y-63957994D01*
X31553987Y-64056088D01*
X31700250Y-64224938D01*
X31872126Y-64367632D01*
X32065000Y-64480338D01*
X32273692Y-64560030D01*
X32278760Y-64561061D01*
X32278763Y-64561062D01*
X32386017Y-64582883D01*
X32492597Y-64604567D01*
X32497772Y-64604757D01*
X32497774Y-64604757D01*
X32710673Y-64612564D01*
X32710677Y-64612564D01*
X32715837Y-64612753D01*
X32720957Y-64612097D01*
X32720959Y-64612097D01*
X32932288Y-64585025D01*
X32932289Y-64585025D01*
X32937416Y-64584368D01*
X32942366Y-64582883D01*
X33146429Y-64521661D01*
X33146434Y-64521659D01*
X33151384Y-64520174D01*
X33351994Y-64421896D01*
X33533860Y-64292173D01*
X33541412Y-64284648D01*
X33639571Y-64186831D01*
X33701943Y-64152915D01*
X33772750Y-64158104D01*
X33817606Y-64186987D01*
X34698024Y-65067405D01*
X34732050Y-65129717D01*
X34726985Y-65200532D01*
X34684438Y-65257368D01*
X34617918Y-65282179D01*
X34608929Y-65282500D01*
X18291532Y-65282500D01*
X18223411Y-65262498D01*
X18176918Y-65208842D01*
X18166814Y-65138568D01*
X18196308Y-65073988D01*
X18256034Y-65035604D01*
X18265120Y-65033299D01*
X18546402Y-64972997D01*
X18552950Y-64971218D01*
X18891820Y-64859147D01*
X18898162Y-64856661D01*
X19222921Y-64708660D01*
X19228975Y-64705495D01*
X19535839Y-64523293D01*
X19541520Y-64519490D01*
X19826918Y-64305207D01*
X19832145Y-64300821D01*
X19844988Y-64288803D01*
X19853057Y-64275123D01*
X19853029Y-64274398D01*
X19847887Y-64266097D01*
X17680812Y-62099022D01*
X17666868Y-62091408D01*
X17665035Y-62091539D01*
X17658420Y-62095790D01*
X15489409Y-64264801D01*
X15481795Y-64278745D01*
X15481871Y-64279815D01*
X15485055Y-64284648D01*
X15765342Y-64499720D01*
X15770972Y-64503575D01*
X16075929Y-64688992D01*
X16081931Y-64692210D01*
X16405139Y-64843611D01*
X16411444Y-64846159D01*
X16749117Y-64961771D01*
X16755668Y-64963624D01*
X17066100Y-65033583D01*
X17128156Y-65068071D01*
X17161716Y-65130636D01*
X17156123Y-65201412D01*
X17113154Y-65257929D01*
X17046450Y-65282243D01*
X17038399Y-65282500D01*
X14238500Y-65282500D01*
X14170379Y-65262498D01*
X14123886Y-65208842D01*
X14112500Y-65156500D01*
X14112500Y-62344579D01*
X14132502Y-62276458D01*
X14186158Y-62229965D01*
X14256432Y-62219861D01*
X14321012Y-62249355D01*
X14359396Y-62309081D01*
X14362914Y-62324651D01*
X14380478Y-62434305D01*
X14381917Y-62440960D01*
X14476094Y-62785215D01*
X14478243Y-62791676D01*
X14609053Y-63123756D01*
X14611884Y-63129939D01*
X14777792Y-63445949D01*
X14781275Y-63451791D01*
X14980340Y-63748031D01*
X14984442Y-63753475D01*
X15108942Y-63901322D01*
X15121680Y-63909764D01*
X15132124Y-63903666D01*
X17295978Y-61739812D01*
X17302356Y-61728132D01*
X18032408Y-61728132D01*
X18032539Y-61729965D01*
X18036790Y-61736580D01*
X20202463Y-63902253D01*
X20216060Y-63909678D01*
X20225669Y-63902981D01*
X20330197Y-63781457D01*
X20334346Y-63776069D01*
X20536503Y-63481929D01*
X20540050Y-63476118D01*
X20709250Y-63161879D01*
X20712157Y-63155701D01*
X20846435Y-62825016D01*
X20848649Y-62818586D01*
X20946427Y-62475331D01*
X20947934Y-62468701D01*
X21008073Y-62116873D01*
X21008853Y-62110133D01*
X21030740Y-61752275D01*
X21030856Y-61748673D01*
X21030926Y-61728820D01*
X21030834Y-61725193D01*
X21011446Y-61367208D01*
X21010711Y-61360442D01*
X20953034Y-61008233D01*
X20951567Y-61001561D01*
X20856194Y-60657655D01*
X20854020Y-60651192D01*
X20722053Y-60319575D01*
X20719197Y-60313395D01*
X20552194Y-59997981D01*
X20548682Y-59992137D01*
X20348588Y-59696598D01*
X20344467Y-59691170D01*
X20227041Y-59552704D01*
X20214215Y-59544267D01*
X20203890Y-59550320D01*
X18040022Y-61714188D01*
X18032408Y-61728132D01*
X17302356Y-61728132D01*
X17303592Y-61725868D01*
X17303461Y-61724035D01*
X17299210Y-61717420D01*
X15133527Y-59551737D01*
X15119990Y-59544345D01*
X15110289Y-59551132D01*
X14998649Y-59681847D01*
X14994515Y-59687255D01*
X14793394Y-59982086D01*
X14789859Y-59987923D01*
X14621754Y-60302757D01*
X14618878Y-60308926D01*
X14485754Y-60640081D01*
X14483561Y-60646521D01*
X14386979Y-60990121D01*
X14385496Y-60996757D01*
X14362772Y-61132551D01*
X14331801Y-61196436D01*
X14271208Y-61233436D01*
X14200230Y-61231803D01*
X14141403Y-61192055D01*
X14113403Y-61126813D01*
X14112500Y-61111755D01*
X14112500Y-59178492D01*
X15482580Y-59178492D01*
X15482615Y-59179333D01*
X15487667Y-59187457D01*
X17655188Y-61354978D01*
X17669132Y-61362592D01*
X17670965Y-61362461D01*
X17677580Y-61358210D01*
X19846166Y-59189624D01*
X19853780Y-59175680D01*
X19853712Y-59174723D01*
X19848771Y-59167251D01*
X19844870Y-59163931D01*
X19560958Y-58947649D01*
X19555332Y-58943825D01*
X19249722Y-58759469D01*
X19243710Y-58756272D01*
X18919966Y-58605995D01*
X18913666Y-58603475D01*
X18575595Y-58489045D01*
X18569017Y-58487209D01*
X18220592Y-58409965D01*
X18213857Y-58408850D01*
X17859106Y-58369685D01*
X17852324Y-58369306D01*
X17495395Y-58368683D01*
X17488622Y-58369038D01*
X17133714Y-58406966D01*
X17127005Y-58408053D01*
X16778289Y-58484086D01*
X16771714Y-58485897D01*
X16433250Y-58599145D01*
X16426928Y-58601648D01*
X16102680Y-58750785D01*
X16096637Y-58753971D01*
X15790404Y-58937248D01*
X15784744Y-58941066D01*
X15500094Y-59156346D01*
X15494891Y-59160742D01*
X15490601Y-59164785D01*
X15482580Y-59178492D01*
X14112500Y-59178492D01*
X14112500Y-53238621D01*
X15685922Y-53238621D01*
X15686219Y-53243773D01*
X15686219Y-53243777D01*
X15695413Y-53403220D01*
X15699775Y-53478878D01*
X15700912Y-53483924D01*
X15700913Y-53483930D01*
X15723858Y-53585740D01*
X15752683Y-53713646D01*
X15807191Y-53847885D01*
X15840202Y-53929180D01*
X15843223Y-53936621D01*
X15925046Y-54070143D01*
X15959294Y-54126030D01*
X15968966Y-54141814D01*
X16002724Y-54180785D01*
X16107679Y-54301949D01*
X16126533Y-54323715D01*
X16130502Y-54327010D01*
X16130505Y-54327013D01*
X16207152Y-54390646D01*
X16311694Y-54477438D01*
X16519475Y-54598855D01*
X16744297Y-54684707D01*
X16749363Y-54685738D01*
X16749364Y-54685738D01*
X16805742Y-54697208D01*
X16980122Y-54732686D01*
X17116224Y-54737676D01*
X17215452Y-54741315D01*
X17215456Y-54741315D01*
X17220616Y-54741504D01*
X17225736Y-54740848D01*
X17225738Y-54740848D01*
X17454194Y-54711582D01*
X17454195Y-54711582D01*
X17459322Y-54710925D01*
X17542515Y-54685966D01*
X17684874Y-54643256D01*
X17689827Y-54641770D01*
X17694466Y-54639497D01*
X17694472Y-54639495D01*
X17901308Y-54538167D01*
X17901311Y-54538165D01*
X17905943Y-54535896D01*
X18101865Y-54396147D01*
X18272331Y-54226274D01*
X18281464Y-54213564D01*
X18409746Y-54035043D01*
X18409750Y-54035037D01*
X18412764Y-54030842D01*
X18487168Y-53880297D01*
X18517098Y-53819739D01*
X18517099Y-53819737D01*
X18519392Y-53815097D01*
X18589351Y-53584834D01*
X18592414Y-53561572D01*
X18620326Y-53349558D01*
X18620326Y-53349554D01*
X18620763Y-53346237D01*
X18621665Y-53309318D01*
X18622434Y-53277865D01*
X18622434Y-53277861D01*
X18622516Y-53274500D01*
X18602797Y-53034653D01*
X18544170Y-52801248D01*
X18448208Y-52580552D01*
X18444743Y-52575195D01*
X18342855Y-52417700D01*
X18317490Y-52378492D01*
X18312528Y-52373038D01*
X18231246Y-52283711D01*
X18155526Y-52200495D01*
X18151475Y-52197296D01*
X18151471Y-52197292D01*
X18015481Y-52089895D01*
X17974418Y-52031978D01*
X17971186Y-51961055D01*
X17987773Y-51926964D01*
X17987979Y-51924783D01*
X17979943Y-51909654D01*
X17166811Y-51096521D01*
X17152868Y-51088908D01*
X17151034Y-51089039D01*
X17144420Y-51093290D01*
X16324081Y-51913630D01*
X16316470Y-51927568D01*
X16316782Y-51931928D01*
X16336517Y-51989223D01*
X16319676Y-52058194D01*
X16286304Y-52095791D01*
X16197843Y-52162210D01*
X16179014Y-52176347D01*
X16145920Y-52210978D01*
X16017711Y-52345141D01*
X16012749Y-52350333D01*
X15877133Y-52549138D01*
X15775808Y-52767424D01*
X15774426Y-52772406D01*
X15774426Y-52772407D01*
X15768702Y-52793047D01*
X15711495Y-52999328D01*
X15685922Y-53238621D01*
X14112500Y-53238621D01*
X14112500Y-37022661D01*
X28647750Y-37022661D01*
X28653031Y-37029715D01*
X28822353Y-37128659D01*
X28831640Y-37133109D01*
X29034638Y-37210626D01*
X29044540Y-37213503D01*
X29257456Y-37256821D01*
X29267708Y-37258044D01*
X29484847Y-37266006D01*
X29495133Y-37265539D01*
X29710670Y-37237928D01*
X29720748Y-37235786D01*
X29928877Y-37173344D01*
X29938475Y-37169583D01*
X30133615Y-37073985D01*
X30142454Y-37068716D01*
X30195104Y-37031161D01*
X30203504Y-37020462D01*
X30196515Y-37007306D01*
X29439812Y-36250603D01*
X29425868Y-36242989D01*
X29424035Y-36243120D01*
X29417420Y-36247371D01*
X28654510Y-37010281D01*
X28647750Y-37022661D01*
X14112500Y-37022661D01*
X14112500Y-36506906D01*
X18670839Y-36506906D01*
X18679553Y-36518427D01*
X18786452Y-36596809D01*
X18794351Y-36601745D01*
X19023905Y-36722519D01*
X19032454Y-36726236D01*
X19277327Y-36811749D01*
X19286336Y-36814163D01*
X19541166Y-36862544D01*
X19550423Y-36863598D01*
X19809607Y-36873783D01*
X19818921Y-36873457D01*
X20076753Y-36845220D01*
X20085930Y-36843519D01*
X20336758Y-36777481D01*
X20345574Y-36774445D01*
X20583880Y-36672062D01*
X20592167Y-36667748D01*
X20812718Y-36531266D01*
X20820268Y-36525780D01*
X20825559Y-36521301D01*
X20833997Y-36508497D01*
X20827935Y-36498145D01*
X19763812Y-35434022D01*
X19749868Y-35426408D01*
X19748035Y-35426539D01*
X19741420Y-35430790D01*
X18677497Y-36494713D01*
X18670839Y-36506906D01*
X14112500Y-36506906D01*
X14112500Y-35019211D01*
X17938775Y-35019211D01*
X17951220Y-35278288D01*
X17952356Y-35287543D01*
X18002961Y-35541945D01*
X18005449Y-35550917D01*
X18093095Y-35795033D01*
X18096895Y-35803568D01*
X18219658Y-36032042D01*
X18224666Y-36039904D01*
X18294720Y-36133716D01*
X18305979Y-36142165D01*
X18318397Y-36135393D01*
X19378978Y-35074812D01*
X19385356Y-35063132D01*
X20115408Y-35063132D01*
X20115539Y-35064965D01*
X20119790Y-35071580D01*
X21187094Y-36138884D01*
X21199474Y-36145644D01*
X21207815Y-36139400D01*
X21341832Y-35931048D01*
X21346275Y-35922864D01*
X21379188Y-35849800D01*
X28038668Y-35849800D01*
X28051176Y-36066731D01*
X28052612Y-36076951D01*
X28100382Y-36288920D01*
X28103461Y-36298748D01*
X28185215Y-36500083D01*
X28189858Y-36509274D01*
X28274334Y-36647127D01*
X28284790Y-36656587D01*
X28293568Y-36652803D01*
X29054978Y-35891393D01*
X29061356Y-35879713D01*
X29791408Y-35879713D01*
X29791539Y-35881546D01*
X29795790Y-35888161D01*
X30556320Y-36648691D01*
X30568330Y-36655250D01*
X30580069Y-36646282D01*
X30614625Y-36598192D01*
X30619936Y-36589353D01*
X30716206Y-36394564D01*
X30720005Y-36384968D01*
X30783170Y-36177072D01*
X30785349Y-36166991D01*
X30813949Y-35949756D01*
X30814468Y-35943083D01*
X30815962Y-35881946D01*
X30815768Y-35875227D01*
X30797816Y-35656875D01*
X30796131Y-35646695D01*
X30743196Y-35435952D01*
X30739876Y-35426201D01*
X30653229Y-35226924D01*
X30648362Y-35217849D01*
X30579083Y-35110759D01*
X30568398Y-35101556D01*
X30558831Y-35105960D01*
X29799022Y-35865769D01*
X29791408Y-35879713D01*
X29061356Y-35879713D01*
X29062592Y-35877449D01*
X29062461Y-35875616D01*
X29058210Y-35869001D01*
X28297922Y-35108713D01*
X28286386Y-35102413D01*
X28274104Y-35112036D01*
X28222143Y-35188208D01*
X28217058Y-35197159D01*
X28125571Y-35394252D01*
X28122008Y-35403939D01*
X28063942Y-35613317D01*
X28062011Y-35623437D01*
X28038920Y-35839511D01*
X28038668Y-35849800D01*
X21379188Y-35849800D01*
X21452807Y-35686370D01*
X21455997Y-35677605D01*
X21526402Y-35427972D01*
X21528262Y-35418830D01*
X21561187Y-35160019D01*
X21561668Y-35153733D01*
X21563987Y-35065160D01*
X21563836Y-35058851D01*
X21544501Y-34798663D01*
X21543125Y-34789457D01*
X21485878Y-34536467D01*
X21483154Y-34527556D01*
X21389143Y-34285806D01*
X21385132Y-34277397D01*
X21256422Y-34052202D01*
X21251211Y-34044476D01*
X21207996Y-33989658D01*
X21196071Y-33981187D01*
X21184537Y-33987673D01*
X20123022Y-35049188D01*
X20115408Y-35063132D01*
X19385356Y-35063132D01*
X19386592Y-35060868D01*
X19386461Y-35059035D01*
X19382210Y-35052420D01*
X18316816Y-33987026D01*
X18303507Y-33979758D01*
X18293472Y-33986878D01*
X18277937Y-34005556D01*
X18272531Y-34013135D01*
X18137965Y-34234891D01*
X18133736Y-34243192D01*
X18033432Y-34482389D01*
X18030471Y-34491239D01*
X17966628Y-34742625D01*
X17965006Y-34751822D01*
X17939020Y-35009885D01*
X17938775Y-35019211D01*
X14112500Y-35019211D01*
X14112500Y-33614689D01*
X18668102Y-33614689D01*
X18672675Y-33624465D01*
X19738188Y-34689978D01*
X19752132Y-34697592D01*
X19753965Y-34697461D01*
X19760580Y-34693210D01*
X20825349Y-33628441D01*
X20831733Y-33616751D01*
X20822321Y-33604641D01*
X20675045Y-33502471D01*
X20667010Y-33497738D01*
X20434376Y-33383016D01*
X20425743Y-33379528D01*
X20178703Y-33300450D01*
X20169643Y-33298274D01*
X19913630Y-33256580D01*
X19904343Y-33255768D01*
X19644992Y-33252373D01*
X19635681Y-33252943D01*
X19378682Y-33287919D01*
X19369546Y-33289860D01*
X19120543Y-33362439D01*
X19111800Y-33365707D01*
X18876252Y-33474296D01*
X18868097Y-33478816D01*
X18677240Y-33603947D01*
X18668102Y-33614689D01*
X14112500Y-33614689D01*
X14112500Y-30314134D01*
X17942500Y-30314134D01*
X17949255Y-30376316D01*
X18000385Y-30512705D01*
X18087739Y-30629261D01*
X18204295Y-30716615D01*
X18340684Y-30767745D01*
X18402866Y-30774500D01*
X21099134Y-30774500D01*
X21161316Y-30767745D01*
X21297705Y-30716615D01*
X21414261Y-30629261D01*
X21501615Y-30512705D01*
X21552745Y-30376316D01*
X21559500Y-30314134D01*
X21559500Y-27617866D01*
X21552745Y-27555684D01*
X21501615Y-27419295D01*
X21414261Y-27302739D01*
X21297705Y-27215385D01*
X21161316Y-27164255D01*
X21099134Y-27157500D01*
X18402866Y-27157500D01*
X18340684Y-27164255D01*
X18204295Y-27215385D01*
X18087739Y-27302739D01*
X18000385Y-27419295D01*
X17949255Y-27555684D01*
X17942500Y-27617866D01*
X17942500Y-30314134D01*
X14112500Y-30314134D01*
X14112500Y-25330906D01*
X18670839Y-25330906D01*
X18679553Y-25342427D01*
X18786452Y-25420809D01*
X18794351Y-25425745D01*
X19023905Y-25546519D01*
X19032454Y-25550236D01*
X19277327Y-25635749D01*
X19286336Y-25638163D01*
X19541166Y-25686544D01*
X19550423Y-25687598D01*
X19809607Y-25697783D01*
X19818921Y-25697457D01*
X20076753Y-25669220D01*
X20085930Y-25667519D01*
X20336758Y-25601481D01*
X20345574Y-25598445D01*
X20583880Y-25496062D01*
X20592167Y-25491748D01*
X20812718Y-25355266D01*
X20820268Y-25349780D01*
X20825559Y-25345301D01*
X20833997Y-25332497D01*
X20827935Y-25322145D01*
X19763812Y-24258022D01*
X19749868Y-24250408D01*
X19748035Y-24250539D01*
X19741420Y-24254790D01*
X18677497Y-25318713D01*
X18670839Y-25330906D01*
X14112500Y-25330906D01*
X14112500Y-23843211D01*
X17938775Y-23843211D01*
X17951220Y-24102288D01*
X17952356Y-24111543D01*
X18002961Y-24365945D01*
X18005449Y-24374917D01*
X18093095Y-24619033D01*
X18096895Y-24627568D01*
X18219658Y-24856042D01*
X18224666Y-24863904D01*
X18294720Y-24957716D01*
X18305979Y-24966165D01*
X18318397Y-24959393D01*
X19378978Y-23898812D01*
X19385356Y-23887132D01*
X20115408Y-23887132D01*
X20115539Y-23888965D01*
X20119790Y-23895580D01*
X21187094Y-24962884D01*
X21199474Y-24969644D01*
X21207815Y-24963400D01*
X21341832Y-24755048D01*
X21346275Y-24746864D01*
X21452807Y-24510370D01*
X21455997Y-24501605D01*
X21526402Y-24251972D01*
X21528262Y-24242830D01*
X21561187Y-23984019D01*
X21561668Y-23977733D01*
X21563987Y-23889160D01*
X21563836Y-23882851D01*
X21544501Y-23622663D01*
X21543125Y-23613457D01*
X21485878Y-23360467D01*
X21483154Y-23351556D01*
X21389143Y-23109806D01*
X21385132Y-23101397D01*
X21256422Y-22876202D01*
X21251211Y-22868476D01*
X21207996Y-22813658D01*
X21196071Y-22805187D01*
X21184537Y-22811673D01*
X20123022Y-23873188D01*
X20115408Y-23887132D01*
X19385356Y-23887132D01*
X19386592Y-23884868D01*
X19386461Y-23883035D01*
X19382210Y-23876420D01*
X18316816Y-22811026D01*
X18303507Y-22803758D01*
X18293472Y-22810878D01*
X18277937Y-22829556D01*
X18272531Y-22837135D01*
X18137965Y-23058891D01*
X18133736Y-23067192D01*
X18033432Y-23306389D01*
X18030471Y-23315239D01*
X17966628Y-23566625D01*
X17965006Y-23575822D01*
X17939020Y-23833885D01*
X17938775Y-23843211D01*
X14112500Y-23843211D01*
X14112500Y-22438689D01*
X18668102Y-22438689D01*
X18672675Y-22448465D01*
X19738188Y-23513978D01*
X19752132Y-23521592D01*
X19753965Y-23521461D01*
X19760580Y-23517210D01*
X20825349Y-22452441D01*
X20831733Y-22440751D01*
X20822321Y-22428641D01*
X20675045Y-22326471D01*
X20667010Y-22321738D01*
X20434376Y-22207016D01*
X20425743Y-22203528D01*
X20178703Y-22124450D01*
X20169643Y-22122274D01*
X19913630Y-22080580D01*
X19904343Y-22079768D01*
X19644992Y-22076373D01*
X19635681Y-22076943D01*
X19378682Y-22111919D01*
X19369546Y-22113860D01*
X19120543Y-22186439D01*
X19111800Y-22189707D01*
X18876252Y-22298296D01*
X18868097Y-22302816D01*
X18677240Y-22427947D01*
X18668102Y-22438689D01*
X14112500Y-22438689D01*
X14112500Y-20082745D01*
X15481795Y-20082745D01*
X15481871Y-20083815D01*
X15485055Y-20088648D01*
X15765342Y-20303720D01*
X15770972Y-20307575D01*
X16075929Y-20492992D01*
X16081931Y-20496210D01*
X16405139Y-20647611D01*
X16411444Y-20650159D01*
X16749117Y-20765771D01*
X16755668Y-20767624D01*
X17103838Y-20846087D01*
X17110557Y-20847224D01*
X17465174Y-20887628D01*
X17471964Y-20888031D01*
X17828865Y-20889899D01*
X17835666Y-20889567D01*
X18190686Y-20852880D01*
X18197414Y-20851814D01*
X18546402Y-20776997D01*
X18552950Y-20775218D01*
X18891820Y-20663147D01*
X18898162Y-20660661D01*
X19222921Y-20512660D01*
X19228975Y-20509495D01*
X19535839Y-20327293D01*
X19541520Y-20323490D01*
X19826918Y-20109207D01*
X19832145Y-20104821D01*
X19844988Y-20092803D01*
X19853057Y-20079123D01*
X19853029Y-20078398D01*
X19847887Y-20070097D01*
X17680812Y-17903022D01*
X17666868Y-17895408D01*
X17665035Y-17895539D01*
X17658420Y-17899790D01*
X15489409Y-20068801D01*
X15481795Y-20082745D01*
X14112500Y-20082745D01*
X14112500Y-18148579D01*
X14132502Y-18080458D01*
X14186158Y-18033965D01*
X14256432Y-18023861D01*
X14321012Y-18053355D01*
X14359396Y-18113081D01*
X14362914Y-18128651D01*
X14380478Y-18238305D01*
X14381917Y-18244960D01*
X14476094Y-18589215D01*
X14478243Y-18595676D01*
X14609053Y-18927756D01*
X14611884Y-18933939D01*
X14777792Y-19249949D01*
X14781275Y-19255791D01*
X14980340Y-19552031D01*
X14984442Y-19557475D01*
X15108942Y-19705322D01*
X15121680Y-19713764D01*
X15132124Y-19707666D01*
X17295978Y-17543812D01*
X17302356Y-17532132D01*
X18032408Y-17532132D01*
X18032539Y-17533965D01*
X18036790Y-17540580D01*
X20202463Y-19706253D01*
X20216060Y-19713678D01*
X20225669Y-19706981D01*
X20330197Y-19585457D01*
X20334346Y-19580069D01*
X20536503Y-19285929D01*
X20540050Y-19280118D01*
X20709250Y-18965879D01*
X20712157Y-18959701D01*
X20846435Y-18629016D01*
X20848649Y-18622586D01*
X20946427Y-18279331D01*
X20947934Y-18272701D01*
X21008073Y-17920873D01*
X21008853Y-17914133D01*
X21030740Y-17556275D01*
X21030856Y-17552673D01*
X21030926Y-17532820D01*
X21030834Y-17529193D01*
X21011446Y-17171208D01*
X21010711Y-17164442D01*
X20953034Y-16812233D01*
X20951567Y-16805561D01*
X20856194Y-16461655D01*
X20854020Y-16455192D01*
X20722053Y-16123575D01*
X20719197Y-16117395D01*
X20552194Y-15801981D01*
X20548682Y-15796137D01*
X20348588Y-15500598D01*
X20344467Y-15495170D01*
X20227041Y-15356704D01*
X20214215Y-15348267D01*
X20203890Y-15354320D01*
X18040022Y-17518188D01*
X18032408Y-17532132D01*
X17302356Y-17532132D01*
X17303592Y-17529868D01*
X17303461Y-17528035D01*
X17299210Y-17521420D01*
X15133527Y-15355737D01*
X15119990Y-15348345D01*
X15110289Y-15355132D01*
X14998649Y-15485847D01*
X14994515Y-15491255D01*
X14793394Y-15786086D01*
X14789859Y-15791923D01*
X14621754Y-16106757D01*
X14618878Y-16112926D01*
X14485754Y-16444081D01*
X14483561Y-16450521D01*
X14386979Y-16794121D01*
X14385496Y-16800757D01*
X14362772Y-16936551D01*
X14331801Y-17000436D01*
X14271208Y-17037436D01*
X14200230Y-17035803D01*
X14141403Y-16996055D01*
X14113403Y-16930813D01*
X14112500Y-16915755D01*
X14112500Y-14609500D01*
X14132502Y-14541379D01*
X14186158Y-14494886D01*
X14238500Y-14483500D01*
X15765184Y-14483500D01*
X15833305Y-14503502D01*
G37*
%TD.AperFunction*%
%TA.AperFunction,Conductor*%
G36*
X58864736Y-51203490D02*
G01*
X58894995Y-51267715D01*
X58896500Y-51287129D01*
X58896500Y-52824405D01*
X58876498Y-52892526D01*
X58859595Y-52913500D01*
X57037899Y-54735196D01*
X56975587Y-54769222D01*
X56904772Y-54764157D01*
X56847936Y-54721610D01*
X56823323Y-54657521D01*
X56813341Y-54547836D01*
X56813340Y-54547833D01*
X56812782Y-54541697D01*
X56810929Y-54535398D01*
X56755912Y-54348469D01*
X56754173Y-54342560D01*
X56658001Y-54158600D01*
X56652334Y-54151551D01*
X56573332Y-54053293D01*
X56527929Y-53996823D01*
X56518043Y-53988527D01*
X56373629Y-53867350D01*
X56368911Y-53863391D01*
X56363519Y-53860427D01*
X56363515Y-53860424D01*
X56192402Y-53766354D01*
X56187005Y-53763387D01*
X55989139Y-53700621D01*
X55983022Y-53699935D01*
X55983018Y-53699934D01*
X55906402Y-53691341D01*
X55827587Y-53682500D01*
X55715763Y-53682500D01*
X55712707Y-53682800D01*
X55712700Y-53682800D01*
X55567534Y-53697034D01*
X55567531Y-53697035D01*
X55561408Y-53697635D01*
X55429454Y-53737474D01*
X55368593Y-53755848D01*
X55368590Y-53755849D01*
X55362685Y-53757632D01*
X55357240Y-53760527D01*
X55357238Y-53760528D01*
X55184847Y-53852191D01*
X55184845Y-53852192D01*
X55179401Y-53855087D01*
X55124080Y-53900206D01*
X55023311Y-53982390D01*
X55023308Y-53982393D01*
X55018536Y-53986285D01*
X55014608Y-53991033D01*
X55014607Y-53991034D01*
X54923811Y-54100787D01*
X54886217Y-54146230D01*
X54883288Y-54151647D01*
X54883286Y-54151650D01*
X54790416Y-54323410D01*
X54790414Y-54323415D01*
X54787486Y-54328830D01*
X54726102Y-54527129D01*
X54725458Y-54533254D01*
X54725458Y-54533255D01*
X54705662Y-54721610D01*
X54704404Y-54733575D01*
X54723218Y-54940303D01*
X54724956Y-54946209D01*
X54724957Y-54946213D01*
X54768473Y-55094068D01*
X54781827Y-55139440D01*
X54877999Y-55323400D01*
X54881859Y-55328200D01*
X54881859Y-55328201D01*
X54983336Y-55454413D01*
X55010432Y-55520035D01*
X54997749Y-55589890D01*
X54959592Y-55634920D01*
X54955813Y-55637213D01*
X54943444Y-55647946D01*
X54827182Y-55748834D01*
X54779763Y-55789982D01*
X54776376Y-55794113D01*
X54635354Y-55966100D01*
X54635350Y-55966106D01*
X54631970Y-55970228D01*
X54629330Y-55974866D01*
X54607055Y-56013998D01*
X54555973Y-56063304D01*
X54486343Y-56077166D01*
X54420272Y-56051183D01*
X54393033Y-56022033D01*
X54305271Y-55891674D01*
X54305269Y-55891672D01*
X54302291Y-55887248D01*
X54267104Y-55850362D01*
X54196271Y-55776111D01*
X54141399Y-55718590D01*
X54136772Y-55715147D01*
X53958673Y-55582638D01*
X53958674Y-55582638D01*
X53954391Y-55579452D01*
X53949640Y-55577036D01*
X53949636Y-55577034D01*
X53821813Y-55512046D01*
X53746612Y-55473812D01*
X53524005Y-55404690D01*
X53516379Y-55403679D01*
X53298219Y-55374764D01*
X53298215Y-55374764D01*
X53292935Y-55374064D01*
X53287606Y-55374264D01*
X53287605Y-55374264D01*
X53192876Y-55377821D01*
X53060007Y-55382809D01*
X52831883Y-55430674D01*
X52826924Y-55432632D01*
X52826922Y-55432633D01*
X52805194Y-55441214D01*
X52615086Y-55516292D01*
X52515449Y-55576753D01*
X52420374Y-55634445D01*
X52420371Y-55634447D01*
X52415813Y-55637213D01*
X52411782Y-55640711D01*
X52411778Y-55640714D01*
X52240725Y-55789146D01*
X52176166Y-55818686D01*
X52105885Y-55808632D01*
X52052196Y-55762177D01*
X52040163Y-55738211D01*
X52006324Y-55647946D01*
X51997786Y-55632351D01*
X51921285Y-55530276D01*
X51908724Y-55517715D01*
X51806649Y-55441214D01*
X51791054Y-55432676D01*
X51670606Y-55387522D01*
X51655351Y-55383895D01*
X51604486Y-55378369D01*
X51597672Y-55378000D01*
X50960115Y-55378000D01*
X50944876Y-55382475D01*
X50943671Y-55383865D01*
X50942000Y-55391548D01*
X50942000Y-58405884D01*
X50946475Y-58421123D01*
X50947865Y-58422328D01*
X50955548Y-58423999D01*
X51597669Y-58423999D01*
X51604490Y-58423629D01*
X51655352Y-58418105D01*
X51670604Y-58414479D01*
X51791054Y-58369324D01*
X51806649Y-58360786D01*
X51908724Y-58284285D01*
X51921285Y-58271724D01*
X51997786Y-58169649D01*
X52006324Y-58154054D01*
X52041798Y-58059428D01*
X52084440Y-58002664D01*
X52151001Y-57977964D01*
X52220350Y-57993172D01*
X52250950Y-58016687D01*
X52310916Y-58079548D01*
X52310921Y-58079553D01*
X52314601Y-58083410D01*
X52501609Y-58222548D01*
X52506360Y-58224964D01*
X52506364Y-58224966D01*
X52598331Y-58271724D01*
X52709388Y-58328188D01*
X52931995Y-58397310D01*
X52937284Y-58398011D01*
X53157781Y-58427236D01*
X53157785Y-58427236D01*
X53163065Y-58427936D01*
X53168394Y-58427736D01*
X53168395Y-58427736D01*
X53263124Y-58424179D01*
X53395993Y-58419191D01*
X53624117Y-58371326D01*
X53629076Y-58369368D01*
X53629078Y-58369367D01*
X53752884Y-58320473D01*
X53840914Y-58285708D01*
X54032175Y-58169649D01*
X54035626Y-58167555D01*
X54035629Y-58167553D01*
X54040187Y-58164787D01*
X54105421Y-58108180D01*
X54212204Y-58015518D01*
X54212206Y-58015516D01*
X54216237Y-58012018D01*
X54258341Y-57960669D01*
X54360646Y-57835900D01*
X54360650Y-57835894D01*
X54364030Y-57831772D01*
X54388945Y-57788002D01*
X54440027Y-57738696D01*
X54509657Y-57724834D01*
X54575728Y-57750817D01*
X54602965Y-57779965D01*
X54693709Y-57914752D01*
X54854601Y-58083410D01*
X55041609Y-58222548D01*
X55046364Y-58224966D01*
X55046368Y-58224968D01*
X55115877Y-58260307D01*
X55138332Y-58271724D01*
X55138422Y-58271770D01*
X55190080Y-58320473D01*
X55207207Y-58389372D01*
X55184365Y-58456594D01*
X55170413Y-58473182D01*
X54423700Y-59219895D01*
X54361388Y-59253921D01*
X54334605Y-59256800D01*
X50590000Y-59256800D01*
X50521879Y-59236798D01*
X50502653Y-59220457D01*
X50502380Y-59220760D01*
X50497468Y-59216337D01*
X50493053Y-59211434D01*
X50445794Y-59177098D01*
X50343894Y-59103063D01*
X50343893Y-59103062D01*
X50338552Y-59099182D01*
X50332524Y-59096498D01*
X50332522Y-59096497D01*
X50170119Y-59024191D01*
X50170118Y-59024191D01*
X50164088Y-59021506D01*
X50070687Y-59001653D01*
X49983744Y-58983172D01*
X49983739Y-58983172D01*
X49977287Y-58981800D01*
X49786313Y-58981800D01*
X49779861Y-58983172D01*
X49779856Y-58983172D01*
X49692913Y-59001653D01*
X49599512Y-59021506D01*
X49593482Y-59024191D01*
X49593481Y-59024191D01*
X49431078Y-59096497D01*
X49431076Y-59096498D01*
X49425048Y-59099182D01*
X49419707Y-59103062D01*
X49419706Y-59103063D01*
X49396093Y-59120219D01*
X49270547Y-59211434D01*
X49266126Y-59216344D01*
X49266125Y-59216345D01*
X49198941Y-59290961D01*
X49142760Y-59353356D01*
X49047273Y-59518744D01*
X48988258Y-59700372D01*
X48987568Y-59706933D01*
X48987568Y-59706935D01*
X48981867Y-59761177D01*
X48968296Y-59890300D01*
X48968986Y-59896865D01*
X48980743Y-60008722D01*
X48988258Y-60080228D01*
X49047273Y-60261856D01*
X49142760Y-60427244D01*
X49147178Y-60432151D01*
X49147179Y-60432152D01*
X49228573Y-60522549D01*
X49270547Y-60569166D01*
X49274563Y-60572084D01*
X49311482Y-60632014D01*
X49310128Y-60702997D01*
X49270613Y-60761981D01*
X49205481Y-60790237D01*
X49189931Y-60791200D01*
X47379000Y-60791200D01*
X47310879Y-60771198D01*
X47291653Y-60754857D01*
X47291380Y-60755160D01*
X47286468Y-60750737D01*
X47282053Y-60745834D01*
X47127552Y-60633582D01*
X47121524Y-60630898D01*
X47121522Y-60630897D01*
X46959119Y-60558591D01*
X46959118Y-60558591D01*
X46953088Y-60555906D01*
X46859687Y-60536053D01*
X46772744Y-60517572D01*
X46772739Y-60517572D01*
X46766287Y-60516200D01*
X46575313Y-60516200D01*
X46568861Y-60517572D01*
X46568856Y-60517572D01*
X46525956Y-60526691D01*
X46455165Y-60521289D01*
X46398532Y-60478472D01*
X46384877Y-60455195D01*
X46345502Y-60367786D01*
X46345501Y-60367783D01*
X46343312Y-60362925D01*
X46214559Y-60171681D01*
X46055424Y-60004865D01*
X45870458Y-59867246D01*
X45865707Y-59864830D01*
X45865703Y-59864828D01*
X45774797Y-59818609D01*
X45723139Y-59769905D01*
X45706013Y-59701005D01*
X45728856Y-59633784D01*
X45742807Y-59617197D01*
X47399335Y-57960669D01*
X49315001Y-57960669D01*
X49315371Y-57967490D01*
X49320895Y-58018352D01*
X49324521Y-58033604D01*
X49369676Y-58154054D01*
X49378214Y-58169649D01*
X49454715Y-58271724D01*
X49467276Y-58284285D01*
X49569351Y-58360786D01*
X49584946Y-58369324D01*
X49705394Y-58414478D01*
X49720649Y-58418105D01*
X49771514Y-58423631D01*
X49778328Y-58424000D01*
X50415885Y-58424000D01*
X50431124Y-58419525D01*
X50432329Y-58418135D01*
X50434000Y-58410452D01*
X50434000Y-57173115D01*
X50429525Y-57157876D01*
X50428135Y-57156671D01*
X50420452Y-57155000D01*
X49333116Y-57155000D01*
X49317877Y-57159475D01*
X49316672Y-57160865D01*
X49315001Y-57168548D01*
X49315001Y-57960669D01*
X47399335Y-57960669D01*
X49099906Y-56260098D01*
X49162217Y-56226073D01*
X49233032Y-56231138D01*
X49289868Y-56273685D01*
X49314679Y-56340205D01*
X49315000Y-56349194D01*
X49315000Y-56628885D01*
X49319475Y-56644124D01*
X49320865Y-56645329D01*
X49328548Y-56647000D01*
X50415885Y-56647000D01*
X50431124Y-56642525D01*
X50432329Y-56641135D01*
X50434000Y-56633452D01*
X50434000Y-55396116D01*
X50429525Y-55380877D01*
X50428135Y-55379672D01*
X50420452Y-55378001D01*
X50286194Y-55378001D01*
X50218073Y-55357999D01*
X50171580Y-55304343D01*
X50161476Y-55234069D01*
X50190970Y-55169489D01*
X50197099Y-55162906D01*
X52286000Y-53074005D01*
X52348312Y-53039979D01*
X52375095Y-53037100D01*
X53060133Y-53037100D01*
X53071316Y-53037627D01*
X53078809Y-53039302D01*
X53086735Y-53039053D01*
X53086736Y-53039053D01*
X53146886Y-53037162D01*
X53150845Y-53037100D01*
X53178756Y-53037100D01*
X53182691Y-53036603D01*
X53182756Y-53036595D01*
X53194593Y-53035662D01*
X53226851Y-53034648D01*
X53230870Y-53034522D01*
X53238789Y-53034273D01*
X53258243Y-53028621D01*
X53277600Y-53024613D01*
X53289830Y-53023068D01*
X53289831Y-53023068D01*
X53297697Y-53022074D01*
X53305068Y-53019155D01*
X53305070Y-53019155D01*
X53338812Y-53005796D01*
X53350042Y-53001951D01*
X53384883Y-52991829D01*
X53384884Y-52991829D01*
X53392493Y-52989618D01*
X53399312Y-52985585D01*
X53399317Y-52985583D01*
X53409928Y-52979307D01*
X53427676Y-52970612D01*
X53446517Y-52963152D01*
X53482287Y-52937164D01*
X53492207Y-52930648D01*
X53523435Y-52912180D01*
X53523438Y-52912178D01*
X53530262Y-52908142D01*
X53544586Y-52893818D01*
X53559613Y-52880983D01*
X53576007Y-52869072D01*
X53604189Y-52835006D01*
X53612178Y-52826228D01*
X53779658Y-52658748D01*
X53787938Y-52651213D01*
X53794418Y-52647100D01*
X53841045Y-52597447D01*
X53843799Y-52594606D01*
X53863535Y-52574870D01*
X53866015Y-52571673D01*
X53873720Y-52562651D01*
X53884889Y-52550757D01*
X53903986Y-52530421D01*
X53907805Y-52523475D01*
X53907807Y-52523472D01*
X53913748Y-52512666D01*
X53924599Y-52496147D01*
X53932158Y-52486401D01*
X53937014Y-52480141D01*
X53940159Y-52472872D01*
X53940162Y-52472868D01*
X53954574Y-52439563D01*
X53959796Y-52428904D01*
X53970136Y-52410095D01*
X54020480Y-52360035D01*
X54089897Y-52345141D01*
X54144121Y-52362006D01*
X54163000Y-52373038D01*
X54167825Y-52374880D01*
X54167826Y-52374881D01*
X54188658Y-52382836D01*
X54371692Y-52452730D01*
X54376760Y-52453761D01*
X54376763Y-52453762D01*
X54435731Y-52465759D01*
X54590597Y-52497267D01*
X54595772Y-52497457D01*
X54595774Y-52497457D01*
X54808673Y-52505264D01*
X54808677Y-52505264D01*
X54813837Y-52505453D01*
X54818957Y-52504797D01*
X54818959Y-52504797D01*
X55030288Y-52477725D01*
X55030289Y-52477725D01*
X55035416Y-52477068D01*
X55040366Y-52475583D01*
X55244429Y-52414361D01*
X55244434Y-52414359D01*
X55249384Y-52412874D01*
X55449994Y-52314596D01*
X55631860Y-52184873D01*
X55654603Y-52162210D01*
X55727170Y-52089895D01*
X55790096Y-52027189D01*
X55878372Y-51904340D01*
X55920453Y-51845777D01*
X55921776Y-51846728D01*
X55968645Y-51803557D01*
X56038580Y-51791325D01*
X56104026Y-51818844D01*
X56131875Y-51850694D01*
X56143591Y-51869812D01*
X56191987Y-51948788D01*
X56338250Y-52117638D01*
X56510126Y-52260332D01*
X56703000Y-52373038D01*
X56707825Y-52374880D01*
X56707826Y-52374881D01*
X56728658Y-52382836D01*
X56911692Y-52452730D01*
X56916760Y-52453761D01*
X56916763Y-52453762D01*
X56975731Y-52465759D01*
X57130597Y-52497267D01*
X57135772Y-52497457D01*
X57135774Y-52497457D01*
X57348673Y-52505264D01*
X57348677Y-52505264D01*
X57353837Y-52505453D01*
X57358957Y-52504797D01*
X57358959Y-52504797D01*
X57570288Y-52477725D01*
X57570289Y-52477725D01*
X57575416Y-52477068D01*
X57580366Y-52475583D01*
X57784429Y-52414361D01*
X57784434Y-52414359D01*
X57789384Y-52412874D01*
X57989994Y-52314596D01*
X58171860Y-52184873D01*
X58194603Y-52162210D01*
X58267170Y-52089895D01*
X58330096Y-52027189D01*
X58418372Y-51904340D01*
X58457435Y-51849977D01*
X58460453Y-51845777D01*
X58468252Y-51829998D01*
X58557136Y-51650153D01*
X58557137Y-51650151D01*
X58559430Y-51645511D01*
X58602874Y-51502521D01*
X58622865Y-51436723D01*
X58622865Y-51436721D01*
X58624370Y-51431769D01*
X58645578Y-51270682D01*
X58674301Y-51205755D01*
X58733566Y-51166664D01*
X58804558Y-51165819D01*
X58864736Y-51203490D01*
G37*
%TD.AperFunction*%
%TA.AperFunction,Conductor*%
G36*
X47453750Y-49800502D02*
G01*
X47474724Y-49817405D01*
X49289930Y-51632611D01*
X49302316Y-51647023D01*
X49310849Y-51658618D01*
X49310854Y-51658623D01*
X49315192Y-51664518D01*
X49320770Y-51669257D01*
X49320773Y-51669260D01*
X49355468Y-51698735D01*
X49362984Y-51705665D01*
X49368679Y-51711360D01*
X49371561Y-51713640D01*
X49390951Y-51728981D01*
X49394355Y-51731772D01*
X49430322Y-51762328D01*
X49449985Y-51779033D01*
X49456501Y-51782361D01*
X49461550Y-51785728D01*
X49466679Y-51788895D01*
X49472416Y-51793434D01*
X49538575Y-51824355D01*
X49542469Y-51826258D01*
X49607508Y-51859469D01*
X49614616Y-51861208D01*
X49620259Y-51863307D01*
X49626022Y-51865224D01*
X49632650Y-51868322D01*
X49639812Y-51869812D01*
X49639813Y-51869812D01*
X49704112Y-51883186D01*
X49708396Y-51884156D01*
X49779310Y-51901508D01*
X49784912Y-51901856D01*
X49784915Y-51901856D01*
X49790464Y-51902200D01*
X49790462Y-51902236D01*
X49794455Y-51902475D01*
X49798647Y-51902849D01*
X49805815Y-51904340D01*
X49883220Y-51902246D01*
X49886628Y-51902200D01*
X50727500Y-51902200D01*
X50795621Y-51922202D01*
X50842114Y-51975858D01*
X50853500Y-52028200D01*
X50853500Y-52041834D01*
X50860255Y-52104016D01*
X50911385Y-52240405D01*
X50998739Y-52356961D01*
X51005919Y-52362342D01*
X51012269Y-52368692D01*
X51010847Y-52370114D01*
X51046426Y-52417700D01*
X51051449Y-52488518D01*
X51017439Y-52550757D01*
X47322990Y-56245205D01*
X43636930Y-59931265D01*
X43574618Y-59965291D01*
X43503803Y-59960226D01*
X43472625Y-59943261D01*
X43370458Y-59867246D01*
X43365707Y-59864830D01*
X43365703Y-59864828D01*
X43247588Y-59804776D01*
X43164949Y-59762760D01*
X43159855Y-59761178D01*
X43159852Y-59761177D01*
X42949871Y-59695976D01*
X42944773Y-59694393D01*
X42939484Y-59693692D01*
X42721511Y-59664802D01*
X42721506Y-59664802D01*
X42716226Y-59664102D01*
X42710897Y-59664302D01*
X42710895Y-59664302D01*
X42601034Y-59668426D01*
X42485842Y-59672751D01*
X42480623Y-59673846D01*
X42442490Y-59681847D01*
X42260209Y-59720093D01*
X42255250Y-59722051D01*
X42255248Y-59722052D01*
X42050744Y-59802815D01*
X42050742Y-59802816D01*
X42045779Y-59804776D01*
X42041220Y-59807543D01*
X42041217Y-59807544D01*
X41915659Y-59883735D01*
X41848683Y-59924377D01*
X41844653Y-59927874D01*
X41680572Y-60070256D01*
X41674555Y-60075477D01*
X41665512Y-60086506D01*
X41531760Y-60249627D01*
X41531756Y-60249633D01*
X41528376Y-60253755D01*
X41510448Y-60285250D01*
X41459368Y-60334555D01*
X41389738Y-60348417D01*
X41323667Y-60322434D01*
X41296427Y-60293284D01*
X41217539Y-60176108D01*
X41214559Y-60171681D01*
X41055424Y-60004865D01*
X40870458Y-59867246D01*
X40865707Y-59864830D01*
X40865703Y-59864828D01*
X40747588Y-59804776D01*
X40664949Y-59762760D01*
X40659855Y-59761178D01*
X40659852Y-59761177D01*
X40449871Y-59695976D01*
X40444773Y-59694393D01*
X40439484Y-59693692D01*
X40221511Y-59664802D01*
X40221506Y-59664802D01*
X40216226Y-59664102D01*
X40210897Y-59664302D01*
X40210895Y-59664302D01*
X40101034Y-59668426D01*
X39985842Y-59672751D01*
X39854697Y-59700268D01*
X39783922Y-59694681D01*
X39739729Y-59666048D01*
X39290270Y-59216589D01*
X39277884Y-59202177D01*
X39269351Y-59190582D01*
X39269346Y-59190577D01*
X39265008Y-59184682D01*
X39259430Y-59179943D01*
X39259427Y-59179940D01*
X39224732Y-59150465D01*
X39217216Y-59143535D01*
X39211521Y-59137840D01*
X39195236Y-59124956D01*
X39189249Y-59120219D01*
X39185845Y-59117428D01*
X39135797Y-59074909D01*
X39135795Y-59074908D01*
X39130215Y-59070167D01*
X39123699Y-59066839D01*
X39118650Y-59063472D01*
X39113521Y-59060305D01*
X39107784Y-59055766D01*
X39041625Y-59024845D01*
X39037725Y-59022939D01*
X38972692Y-58989731D01*
X38965584Y-58987992D01*
X38959941Y-58985893D01*
X38954178Y-58983976D01*
X38947550Y-58980878D01*
X38876083Y-58966013D01*
X38871799Y-58965043D01*
X38800890Y-58947692D01*
X38795288Y-58947344D01*
X38795285Y-58947344D01*
X38789736Y-58947000D01*
X38789738Y-58946964D01*
X38785745Y-58946725D01*
X38781553Y-58946351D01*
X38774385Y-58944860D01*
X38710620Y-58946585D01*
X38696979Y-58946954D01*
X38693572Y-58947000D01*
X35026870Y-58947000D01*
X35007920Y-58945567D01*
X34993685Y-58943401D01*
X34993681Y-58943401D01*
X34986451Y-58942301D01*
X34979159Y-58942894D01*
X34979156Y-58942894D01*
X34933782Y-58946585D01*
X34923567Y-58947000D01*
X34915507Y-58947000D01*
X34911873Y-58947424D01*
X34911867Y-58947424D01*
X34898842Y-58948943D01*
X34887280Y-58950291D01*
X34882932Y-58950721D01*
X34810164Y-58956640D01*
X34803203Y-58958895D01*
X34797263Y-58960082D01*
X34791388Y-58961471D01*
X34784119Y-58962318D01*
X34715470Y-58987236D01*
X34711342Y-58988653D01*
X34648864Y-59008893D01*
X34648862Y-59008894D01*
X34641901Y-59011149D01*
X34635646Y-59014945D01*
X34630172Y-59017451D01*
X34624742Y-59020170D01*
X34617863Y-59022667D01*
X34611743Y-59026680D01*
X34611742Y-59026680D01*
X34556824Y-59062686D01*
X34553120Y-59065023D01*
X34490693Y-59102905D01*
X34482316Y-59110303D01*
X34482292Y-59110276D01*
X34479300Y-59112929D01*
X34476067Y-59115632D01*
X34469948Y-59119644D01*
X34440751Y-59150465D01*
X34416672Y-59175883D01*
X34414294Y-59178325D01*
X33817561Y-59775058D01*
X33755249Y-59809084D01*
X33684434Y-59804019D01*
X33635274Y-59770763D01*
X33589168Y-59720093D01*
X33587148Y-59717873D01*
X33587145Y-59717870D01*
X33583670Y-59714051D01*
X33482035Y-59633784D01*
X33412414Y-59578800D01*
X33412410Y-59578798D01*
X33408359Y-59575598D01*
X33212789Y-59467638D01*
X33207920Y-59465914D01*
X33207916Y-59465912D01*
X33007087Y-59394795D01*
X33007083Y-59394794D01*
X33002212Y-59393069D01*
X32997119Y-59392162D01*
X32997116Y-59392161D01*
X32787373Y-59354800D01*
X32787367Y-59354799D01*
X32782284Y-59353894D01*
X32708452Y-59352992D01*
X32564081Y-59351228D01*
X32564079Y-59351228D01*
X32558911Y-59351165D01*
X32338091Y-59384955D01*
X32125756Y-59454357D01*
X32095443Y-59470137D01*
X31989997Y-59525029D01*
X31927607Y-59557507D01*
X31923474Y-59560610D01*
X31923471Y-59560612D01*
X31753100Y-59688530D01*
X31748965Y-59691635D01*
X31594629Y-59853138D01*
X31564363Y-59897507D01*
X31509455Y-59942507D01*
X31460277Y-59952500D01*
X31309939Y-59952500D01*
X31241818Y-59932498D01*
X31204147Y-59894941D01*
X31204125Y-59894906D01*
X31194014Y-59879277D01*
X31043670Y-59714051D01*
X31039619Y-59710852D01*
X31039615Y-59710848D01*
X30872414Y-59578800D01*
X30872410Y-59578798D01*
X30868359Y-59575598D01*
X30672789Y-59467638D01*
X30667920Y-59465914D01*
X30667916Y-59465912D01*
X30467087Y-59394795D01*
X30467083Y-59394794D01*
X30462212Y-59393069D01*
X30457119Y-59392162D01*
X30457116Y-59392161D01*
X30247373Y-59354800D01*
X30247367Y-59354799D01*
X30242284Y-59353894D01*
X30168452Y-59352992D01*
X30024081Y-59351228D01*
X30024079Y-59351228D01*
X30018911Y-59351165D01*
X29798091Y-59384955D01*
X29585756Y-59454357D01*
X29555443Y-59470137D01*
X29449997Y-59525029D01*
X29387607Y-59557507D01*
X29383474Y-59560610D01*
X29383471Y-59560612D01*
X29213100Y-59688530D01*
X29208965Y-59691635D01*
X29054629Y-59853138D01*
X29024363Y-59897507D01*
X28969455Y-59942507D01*
X28920277Y-59952500D01*
X28769939Y-59952500D01*
X28701818Y-59932498D01*
X28664147Y-59894941D01*
X28664125Y-59894906D01*
X28654014Y-59879277D01*
X28503670Y-59714051D01*
X28499619Y-59710852D01*
X28499615Y-59710848D01*
X28332414Y-59578800D01*
X28332410Y-59578798D01*
X28328359Y-59575598D01*
X28132789Y-59467638D01*
X28127920Y-59465914D01*
X28127916Y-59465912D01*
X27927087Y-59394795D01*
X27927083Y-59394794D01*
X27922212Y-59393069D01*
X27917119Y-59392162D01*
X27917116Y-59392161D01*
X27707373Y-59354800D01*
X27707367Y-59354799D01*
X27702284Y-59353894D01*
X27628452Y-59352992D01*
X27484081Y-59351228D01*
X27484079Y-59351228D01*
X27478911Y-59351165D01*
X27258091Y-59384955D01*
X27179245Y-59410726D01*
X27108281Y-59412877D01*
X27047420Y-59376321D01*
X27015983Y-59312664D01*
X27014100Y-59290961D01*
X27014100Y-58133571D01*
X27034102Y-58065450D01*
X27051005Y-58044476D01*
X28062911Y-57032570D01*
X28077323Y-57020184D01*
X28088918Y-57011651D01*
X28088923Y-57011646D01*
X28094818Y-57007308D01*
X28099557Y-57001730D01*
X28099560Y-57001727D01*
X28129035Y-56967032D01*
X28135965Y-56959516D01*
X28141660Y-56953821D01*
X28159281Y-56931549D01*
X28162072Y-56928145D01*
X28204591Y-56878097D01*
X28204592Y-56878095D01*
X28209333Y-56872515D01*
X28212661Y-56865999D01*
X28216028Y-56860950D01*
X28219195Y-56855821D01*
X28223734Y-56850084D01*
X28254655Y-56783925D01*
X28256561Y-56780025D01*
X28289769Y-56714992D01*
X28291508Y-56707884D01*
X28293607Y-56702241D01*
X28295524Y-56696478D01*
X28298622Y-56689850D01*
X28313487Y-56618383D01*
X28314446Y-56614146D01*
X28317161Y-56603050D01*
X28352779Y-56541639D01*
X28415947Y-56509230D01*
X28439549Y-56507000D01*
X28472134Y-56507000D01*
X28534316Y-56500245D01*
X28670705Y-56449115D01*
X28787261Y-56361761D01*
X28874615Y-56245205D01*
X28882097Y-56225247D01*
X28918598Y-56127882D01*
X28961240Y-56071118D01*
X29027802Y-56046418D01*
X29097150Y-56061626D01*
X29131817Y-56089614D01*
X29160250Y-56122438D01*
X29332126Y-56265132D01*
X29525000Y-56377838D01*
X29733692Y-56457530D01*
X29738760Y-56458561D01*
X29738763Y-56458562D01*
X29846379Y-56480457D01*
X29952597Y-56502067D01*
X29957772Y-56502257D01*
X29957774Y-56502257D01*
X30170673Y-56510064D01*
X30170677Y-56510064D01*
X30175837Y-56510253D01*
X30315908Y-56492309D01*
X30386017Y-56503493D01*
X30421012Y-56528193D01*
X30900730Y-57007911D01*
X30913116Y-57022323D01*
X30921649Y-57033918D01*
X30921654Y-57033923D01*
X30925992Y-57039818D01*
X30931570Y-57044557D01*
X30931573Y-57044560D01*
X30966268Y-57074035D01*
X30973784Y-57080965D01*
X30979480Y-57086661D01*
X30982341Y-57088924D01*
X30982346Y-57088929D01*
X31001766Y-57104293D01*
X31005167Y-57107082D01*
X31060785Y-57154333D01*
X31067298Y-57157659D01*
X31072337Y-57161020D01*
X31077479Y-57164196D01*
X31083216Y-57168734D01*
X31149375Y-57199655D01*
X31153269Y-57201558D01*
X31218308Y-57234769D01*
X31225417Y-57236508D01*
X31231051Y-57238604D01*
X31236821Y-57240523D01*
X31243450Y-57243622D01*
X31250613Y-57245112D01*
X31250616Y-57245113D01*
X31287876Y-57252863D01*
X31314935Y-57258491D01*
X31319201Y-57259457D01*
X31390110Y-57276808D01*
X31395712Y-57277156D01*
X31395715Y-57277156D01*
X31401264Y-57277500D01*
X31401262Y-57277535D01*
X31405234Y-57277775D01*
X31409455Y-57278152D01*
X31416615Y-57279641D01*
X31494042Y-57277546D01*
X31497450Y-57277500D01*
X33071730Y-57277500D01*
X33090680Y-57278933D01*
X33104915Y-57281099D01*
X33104919Y-57281099D01*
X33112149Y-57282199D01*
X33119441Y-57281606D01*
X33119444Y-57281606D01*
X33164818Y-57277915D01*
X33175033Y-57277500D01*
X33183093Y-57277500D01*
X33200480Y-57275473D01*
X33211307Y-57274211D01*
X33215682Y-57273778D01*
X33281139Y-57268454D01*
X33281142Y-57268453D01*
X33288437Y-57267860D01*
X33295401Y-57265604D01*
X33301360Y-57264413D01*
X33307215Y-57263029D01*
X33314481Y-57262182D01*
X33383127Y-57237265D01*
X33387255Y-57235848D01*
X33449736Y-57215607D01*
X33449738Y-57215606D01*
X33456699Y-57213351D01*
X33462954Y-57209555D01*
X33468428Y-57207049D01*
X33473858Y-57204330D01*
X33480737Y-57201833D01*
X33486858Y-57197820D01*
X33541776Y-57161814D01*
X33545482Y-57159475D01*
X33607907Y-57121595D01*
X33616284Y-57114197D01*
X33616308Y-57114224D01*
X33619300Y-57111571D01*
X33622533Y-57108868D01*
X33628652Y-57104856D01*
X33681928Y-57048617D01*
X33684306Y-57046175D01*
X34997841Y-55732640D01*
X35060153Y-55698614D01*
X35130968Y-55703679D01*
X35189705Y-55748834D01*
X35209054Y-55776111D01*
X35213385Y-55780257D01*
X35325150Y-55887248D01*
X35361850Y-55922381D01*
X35539548Y-56037120D01*
X35574443Y-56051183D01*
X35730168Y-56113942D01*
X35730171Y-56113943D01*
X35735737Y-56116186D01*
X35943337Y-56156728D01*
X35948899Y-56157000D01*
X36104846Y-56157000D01*
X36262566Y-56141952D01*
X36465534Y-56082408D01*
X36475712Y-56077166D01*
X36648249Y-55988304D01*
X36648252Y-55988302D01*
X36653580Y-55985558D01*
X36819920Y-55854896D01*
X36823852Y-55850365D01*
X36823855Y-55850362D01*
X36954621Y-55699667D01*
X36958552Y-55695137D01*
X36961552Y-55689951D01*
X36961555Y-55689947D01*
X37061467Y-55517242D01*
X37064473Y-55512046D01*
X37133861Y-55312229D01*
X37134722Y-55306292D01*
X37163352Y-55108836D01*
X37163352Y-55108833D01*
X37164213Y-55102896D01*
X37154433Y-54891601D01*
X37105129Y-54687020D01*
X37108614Y-54616110D01*
X37149883Y-54558340D01*
X37215834Y-54532053D01*
X37227622Y-54531500D01*
X37379885Y-54531500D01*
X37395124Y-54527025D01*
X37396329Y-54525635D01*
X37398000Y-54517952D01*
X37398000Y-54513384D01*
X37906000Y-54513384D01*
X37910475Y-54528623D01*
X37911865Y-54529828D01*
X37919548Y-54531499D01*
X38299095Y-54531499D01*
X38305614Y-54531162D01*
X38401206Y-54521243D01*
X38414600Y-54518351D01*
X38568784Y-54466912D01*
X38581962Y-54460739D01*
X38719807Y-54375437D01*
X38731208Y-54366401D01*
X38845739Y-54251671D01*
X38854753Y-54240257D01*
X38940723Y-54100787D01*
X38993495Y-54053293D01*
X39063566Y-54041869D01*
X39128690Y-54070143D01*
X39139149Y-54079926D01*
X39248576Y-54194635D01*
X39433542Y-54332254D01*
X39438293Y-54334670D01*
X39438297Y-54334672D01*
X39486480Y-54359169D01*
X39639051Y-54436740D01*
X39644145Y-54438322D01*
X39644148Y-54438323D01*
X39788907Y-54483272D01*
X39859227Y-54505107D01*
X39864516Y-54505808D01*
X40082489Y-54534698D01*
X40082494Y-54534698D01*
X40087774Y-54535398D01*
X40093103Y-54535198D01*
X40093105Y-54535198D01*
X40202966Y-54531073D01*
X40318158Y-54526749D01*
X40323468Y-54525635D01*
X40538572Y-54480502D01*
X40543791Y-54479407D01*
X40548750Y-54477449D01*
X40548752Y-54477448D01*
X40753256Y-54396685D01*
X40753258Y-54396684D01*
X40758221Y-54394724D01*
X40764942Y-54390646D01*
X40950757Y-54277890D01*
X40950756Y-54277890D01*
X40955317Y-54275123D01*
X41036944Y-54204291D01*
X41125412Y-54127523D01*
X41125414Y-54127521D01*
X41129445Y-54124023D01*
X41187440Y-54053293D01*
X41272240Y-53949873D01*
X41272244Y-53949867D01*
X41275624Y-53945745D01*
X41293552Y-53914250D01*
X41344632Y-53864945D01*
X41414262Y-53851083D01*
X41480333Y-53877066D01*
X41507573Y-53906216D01*
X41589441Y-54027819D01*
X41593120Y-54031676D01*
X41593122Y-54031678D01*
X41659049Y-54100787D01*
X41748576Y-54194635D01*
X41933542Y-54332254D01*
X41938293Y-54334670D01*
X41938297Y-54334672D01*
X41986480Y-54359169D01*
X42139051Y-54436740D01*
X42144145Y-54438322D01*
X42144148Y-54438323D01*
X42288907Y-54483272D01*
X42359227Y-54505107D01*
X42364516Y-54505808D01*
X42582489Y-54534698D01*
X42582494Y-54534698D01*
X42587774Y-54535398D01*
X42593103Y-54535198D01*
X42593105Y-54535198D01*
X42702966Y-54531073D01*
X42818158Y-54526749D01*
X42823468Y-54525635D01*
X43038572Y-54480502D01*
X43043791Y-54479407D01*
X43048750Y-54477449D01*
X43048752Y-54477448D01*
X43253256Y-54396685D01*
X43253258Y-54396684D01*
X43258221Y-54394724D01*
X43264942Y-54390646D01*
X43450757Y-54277890D01*
X43450756Y-54277890D01*
X43455317Y-54275123D01*
X43536944Y-54204291D01*
X43625412Y-54127523D01*
X43625414Y-54127521D01*
X43629445Y-54124023D01*
X43687440Y-54053293D01*
X43772240Y-53949873D01*
X43772244Y-53949867D01*
X43775624Y-53945745D01*
X43793552Y-53914250D01*
X43844632Y-53864945D01*
X43914262Y-53851083D01*
X43980333Y-53877066D01*
X44007573Y-53906216D01*
X44089441Y-54027819D01*
X44093120Y-54031676D01*
X44093122Y-54031678D01*
X44159049Y-54100787D01*
X44248576Y-54194635D01*
X44433542Y-54332254D01*
X44438293Y-54334670D01*
X44438297Y-54334672D01*
X44486480Y-54359169D01*
X44639051Y-54436740D01*
X44644145Y-54438322D01*
X44644148Y-54438323D01*
X44788907Y-54483272D01*
X44859227Y-54505107D01*
X44864516Y-54505808D01*
X45082489Y-54534698D01*
X45082494Y-54534698D01*
X45087774Y-54535398D01*
X45093103Y-54535198D01*
X45093105Y-54535198D01*
X45202966Y-54531073D01*
X45318158Y-54526749D01*
X45323468Y-54525635D01*
X45538572Y-54480502D01*
X45543791Y-54479407D01*
X45548750Y-54477449D01*
X45548752Y-54477448D01*
X45753256Y-54396685D01*
X45753258Y-54396684D01*
X45758221Y-54394724D01*
X45764942Y-54390646D01*
X45950757Y-54277890D01*
X45950756Y-54277890D01*
X45955317Y-54275123D01*
X46036944Y-54204291D01*
X46125412Y-54127523D01*
X46125414Y-54127521D01*
X46129445Y-54124023D01*
X46187440Y-54053293D01*
X46272240Y-53949873D01*
X46272244Y-53949867D01*
X46275624Y-53945745D01*
X46278740Y-53940272D01*
X46387032Y-53750029D01*
X46389675Y-53745386D01*
X46468337Y-53528675D01*
X46469287Y-53523423D01*
X46508623Y-53305892D01*
X46508624Y-53305885D01*
X46509361Y-53301808D01*
X46510500Y-53277656D01*
X46510500Y-52865610D01*
X46495920Y-52693780D01*
X46494582Y-52688625D01*
X46494581Y-52688619D01*
X46439343Y-52475797D01*
X46439342Y-52475793D01*
X46438001Y-52470628D01*
X46430404Y-52453762D01*
X46366361Y-52311592D01*
X46343312Y-52260425D01*
X46214559Y-52069181D01*
X46197542Y-52051342D01*
X46119446Y-51969477D01*
X46055424Y-51902365D01*
X45870458Y-51764746D01*
X45865707Y-51762330D01*
X45865703Y-51762328D01*
X45740624Y-51698735D01*
X45664949Y-51660260D01*
X45659855Y-51658678D01*
X45659852Y-51658677D01*
X45449871Y-51593476D01*
X45444773Y-51591893D01*
X45423964Y-51589135D01*
X45221511Y-51562302D01*
X45221506Y-51562302D01*
X45216226Y-51561602D01*
X45210897Y-51561802D01*
X45210895Y-51561802D01*
X45112368Y-51565501D01*
X44985842Y-51570251D01*
X44980623Y-51571346D01*
X44960849Y-51575495D01*
X44760209Y-51617593D01*
X44755250Y-51619551D01*
X44755248Y-51619552D01*
X44550744Y-51700315D01*
X44550742Y-51700316D01*
X44545779Y-51702276D01*
X44541220Y-51705043D01*
X44541217Y-51705044D01*
X44409252Y-51785123D01*
X44348683Y-51821877D01*
X44344653Y-51825374D01*
X44197934Y-51952690D01*
X44174555Y-51972977D01*
X44171168Y-51977108D01*
X44031760Y-52147127D01*
X44031756Y-52147133D01*
X44028376Y-52151255D01*
X44010448Y-52182750D01*
X43959368Y-52232055D01*
X43889738Y-52245917D01*
X43823667Y-52219934D01*
X43796427Y-52190784D01*
X43760759Y-52137805D01*
X43714559Y-52069181D01*
X43697542Y-52051342D01*
X43619446Y-51969477D01*
X43555424Y-51902365D01*
X43370458Y-51764746D01*
X43365707Y-51762330D01*
X43365703Y-51762328D01*
X43240624Y-51698735D01*
X43164949Y-51660260D01*
X43159855Y-51658678D01*
X43159852Y-51658677D01*
X42949871Y-51593476D01*
X42944773Y-51591893D01*
X42923964Y-51589135D01*
X42721511Y-51562302D01*
X42721506Y-51562302D01*
X42716226Y-51561602D01*
X42710897Y-51561802D01*
X42710895Y-51561802D01*
X42612368Y-51565501D01*
X42485842Y-51570251D01*
X42480623Y-51571346D01*
X42460849Y-51575495D01*
X42260209Y-51617593D01*
X42255250Y-51619551D01*
X42255248Y-51619552D01*
X42050744Y-51700315D01*
X42050742Y-51700316D01*
X42045779Y-51702276D01*
X42041220Y-51705043D01*
X42041217Y-51705044D01*
X41909252Y-51785123D01*
X41848683Y-51821877D01*
X41844653Y-51825374D01*
X41697934Y-51952690D01*
X41674555Y-51972977D01*
X41671168Y-51977108D01*
X41531760Y-52147127D01*
X41531756Y-52147133D01*
X41528376Y-52151255D01*
X41510448Y-52182750D01*
X41459368Y-52232055D01*
X41389738Y-52245917D01*
X41323667Y-52219934D01*
X41296427Y-52190784D01*
X41260759Y-52137805D01*
X41214559Y-52069181D01*
X41197542Y-52051342D01*
X41119446Y-51969477D01*
X41055424Y-51902365D01*
X40870458Y-51764746D01*
X40865707Y-51762330D01*
X40865703Y-51762328D01*
X40740624Y-51698735D01*
X40664949Y-51660260D01*
X40659855Y-51658678D01*
X40659852Y-51658677D01*
X40449871Y-51593476D01*
X40444773Y-51591893D01*
X40423964Y-51589135D01*
X40221511Y-51562302D01*
X40221506Y-51562302D01*
X40216226Y-51561602D01*
X40210897Y-51561802D01*
X40210895Y-51561802D01*
X40112368Y-51565501D01*
X39985842Y-51570251D01*
X39980623Y-51571346D01*
X39960849Y-51575495D01*
X39760209Y-51617593D01*
X39755250Y-51619551D01*
X39755248Y-51619552D01*
X39550744Y-51700315D01*
X39550742Y-51700316D01*
X39545779Y-51702276D01*
X39541220Y-51705043D01*
X39541217Y-51705044D01*
X39409252Y-51785123D01*
X39348683Y-51821877D01*
X39344653Y-51825374D01*
X39197934Y-51952690D01*
X39174555Y-51972977D01*
X39171168Y-51977108D01*
X39144994Y-52009029D01*
X39086334Y-52049024D01*
X39015364Y-52050955D01*
X38954616Y-52014210D01*
X38940416Y-51995441D01*
X38853937Y-51855693D01*
X38844901Y-51844292D01*
X38730171Y-51729761D01*
X38718760Y-51720749D01*
X38580757Y-51635684D01*
X38567576Y-51629537D01*
X38413290Y-51578362D01*
X38399914Y-51575495D01*
X38305562Y-51565828D01*
X38299145Y-51565500D01*
X37924115Y-51565500D01*
X37908876Y-51569975D01*
X37907671Y-51571365D01*
X37906000Y-51579048D01*
X37906000Y-54513384D01*
X37398000Y-54513384D01*
X37398000Y-53320615D01*
X37393525Y-53305376D01*
X37392135Y-53304171D01*
X37384452Y-53302500D01*
X36312116Y-53302500D01*
X36296877Y-53306975D01*
X36295672Y-53308365D01*
X36294001Y-53316048D01*
X36294001Y-53814566D01*
X36273999Y-53882687D01*
X36220343Y-53929180D01*
X36160754Y-53938410D01*
X36160663Y-53940272D01*
X36156643Y-53940075D01*
X36156626Y-53940075D01*
X36155101Y-53940000D01*
X35999154Y-53940000D01*
X35841434Y-53955048D01*
X35677267Y-54003209D01*
X35606273Y-54003192D01*
X35546556Y-53964794D01*
X35517078Y-53900206D01*
X35515800Y-53882304D01*
X35515800Y-52776385D01*
X36294000Y-52776385D01*
X36298475Y-52791624D01*
X36299865Y-52792829D01*
X36307548Y-52794500D01*
X37379885Y-52794500D01*
X37395124Y-52790025D01*
X37396329Y-52788635D01*
X37398000Y-52780952D01*
X37398000Y-51583616D01*
X37393525Y-51568377D01*
X37392135Y-51567172D01*
X37384452Y-51565501D01*
X37004905Y-51565501D01*
X36998386Y-51565838D01*
X36902794Y-51575757D01*
X36889400Y-51578649D01*
X36735216Y-51630088D01*
X36722038Y-51636261D01*
X36584193Y-51721563D01*
X36572792Y-51730599D01*
X36458261Y-51845329D01*
X36449249Y-51856740D01*
X36364184Y-51994743D01*
X36358037Y-52007924D01*
X36306862Y-52162210D01*
X36303995Y-52175586D01*
X36294328Y-52269938D01*
X36294000Y-52276355D01*
X36294000Y-52776385D01*
X35515800Y-52776385D01*
X35515800Y-51461071D01*
X35535802Y-51392950D01*
X35552705Y-51371976D01*
X37107276Y-49817405D01*
X37169588Y-49783379D01*
X37196371Y-49780500D01*
X47385629Y-49780500D01*
X47453750Y-49800502D01*
G37*
%TD.AperFunction*%
%TA.AperFunction,Conductor*%
G36*
X36236121Y-44255202D02*
G01*
X36282614Y-44308858D01*
X36294000Y-44361200D01*
X36294000Y-44673885D01*
X36298475Y-44689124D01*
X36299865Y-44690329D01*
X36307548Y-44692000D01*
X37780000Y-44692000D01*
X37848121Y-44712002D01*
X37894614Y-44765658D01*
X37906000Y-44818000D01*
X37906000Y-46410884D01*
X37910475Y-46426123D01*
X37911865Y-46427328D01*
X37919548Y-46428999D01*
X38299095Y-46428999D01*
X38305614Y-46428662D01*
X38401206Y-46418743D01*
X38414600Y-46415851D01*
X38568784Y-46364412D01*
X38581962Y-46358239D01*
X38719807Y-46272937D01*
X38731208Y-46263901D01*
X38845739Y-46149171D01*
X38854753Y-46137757D01*
X38940723Y-45998287D01*
X38993495Y-45950793D01*
X39063566Y-45939369D01*
X39128690Y-45967643D01*
X39139149Y-45977426D01*
X39248576Y-46092135D01*
X39433542Y-46229754D01*
X39438293Y-46232170D01*
X39438297Y-46232172D01*
X39500704Y-46263901D01*
X39639051Y-46334240D01*
X39644145Y-46335822D01*
X39644148Y-46335823D01*
X39820626Y-46390621D01*
X39859227Y-46402607D01*
X39864516Y-46403308D01*
X40082489Y-46432198D01*
X40082494Y-46432198D01*
X40087774Y-46432898D01*
X40093103Y-46432698D01*
X40093105Y-46432698D01*
X40202966Y-46428573D01*
X40318158Y-46424249D01*
X40323468Y-46423135D01*
X40538572Y-46378002D01*
X40543791Y-46376907D01*
X40548750Y-46374949D01*
X40548752Y-46374948D01*
X40753256Y-46294185D01*
X40753258Y-46294184D01*
X40758221Y-46292224D01*
X40857184Y-46232172D01*
X40950757Y-46175390D01*
X40950756Y-46175390D01*
X40955317Y-46172623D01*
X40961579Y-46167189D01*
X40962717Y-46166668D01*
X40963657Y-46165983D01*
X40963797Y-46166174D01*
X41026136Y-46137650D01*
X41096418Y-46147702D01*
X41133255Y-46173259D01*
X41616343Y-46656347D01*
X41623887Y-46664637D01*
X41628000Y-46671118D01*
X41633777Y-46676543D01*
X41677667Y-46717758D01*
X41680509Y-46720513D01*
X41700230Y-46740234D01*
X41703425Y-46742712D01*
X41712447Y-46750418D01*
X41744679Y-46780686D01*
X41751628Y-46784506D01*
X41762432Y-46790446D01*
X41778956Y-46801299D01*
X41794959Y-46813713D01*
X41835543Y-46831276D01*
X41846173Y-46836483D01*
X41884940Y-46857795D01*
X41892617Y-46859766D01*
X41892622Y-46859768D01*
X41904558Y-46862832D01*
X41923266Y-46869237D01*
X41941855Y-46877281D01*
X41949680Y-46878520D01*
X41949682Y-46878521D01*
X41985519Y-46884197D01*
X41997140Y-46886604D01*
X42028959Y-46894773D01*
X42039970Y-46897600D01*
X42060231Y-46897600D01*
X42079940Y-46899151D01*
X42099943Y-46902319D01*
X42107835Y-46901573D01*
X42113062Y-46901079D01*
X42143954Y-46898159D01*
X42155811Y-46897600D01*
X43094033Y-46897600D01*
X43105216Y-46898127D01*
X43112709Y-46899802D01*
X43120635Y-46899553D01*
X43120636Y-46899553D01*
X43180786Y-46897662D01*
X43184745Y-46897600D01*
X43212656Y-46897600D01*
X43216591Y-46897103D01*
X43216656Y-46897095D01*
X43228493Y-46896162D01*
X43260751Y-46895148D01*
X43264770Y-46895022D01*
X43272689Y-46894773D01*
X43292143Y-46889121D01*
X43311500Y-46885113D01*
X43323730Y-46883568D01*
X43323731Y-46883568D01*
X43331597Y-46882574D01*
X43338968Y-46879655D01*
X43338970Y-46879655D01*
X43372712Y-46866296D01*
X43383942Y-46862451D01*
X43418783Y-46852329D01*
X43418784Y-46852329D01*
X43426393Y-46850118D01*
X43433212Y-46846085D01*
X43433217Y-46846083D01*
X43443828Y-46839807D01*
X43461576Y-46831112D01*
X43480417Y-46823652D01*
X43500787Y-46808853D01*
X43516187Y-46797664D01*
X43526107Y-46791148D01*
X43557335Y-46772680D01*
X43557338Y-46772678D01*
X43564162Y-46768642D01*
X43578483Y-46754321D01*
X43593517Y-46741480D01*
X43595232Y-46740234D01*
X43609907Y-46729572D01*
X43638098Y-46695495D01*
X43646088Y-46686716D01*
X44167069Y-46165735D01*
X44229381Y-46131709D01*
X44300196Y-46136774D01*
X44331378Y-46153741D01*
X44433542Y-46229754D01*
X44438293Y-46232170D01*
X44438297Y-46232172D01*
X44500704Y-46263901D01*
X44639051Y-46334240D01*
X44644145Y-46335822D01*
X44644148Y-46335823D01*
X44820626Y-46390621D01*
X44859227Y-46402607D01*
X44864516Y-46403308D01*
X45082489Y-46432198D01*
X45082494Y-46432198D01*
X45087774Y-46432898D01*
X45093103Y-46432698D01*
X45093105Y-46432698D01*
X45202966Y-46428573D01*
X45318158Y-46424249D01*
X45323468Y-46423135D01*
X45538572Y-46378002D01*
X45543791Y-46376907D01*
X45548750Y-46374949D01*
X45548752Y-46374948D01*
X45753256Y-46294185D01*
X45753258Y-46294184D01*
X45758221Y-46292224D01*
X45857184Y-46232172D01*
X45950757Y-46175390D01*
X45950756Y-46175390D01*
X45955317Y-46172623D01*
X45995620Y-46137650D01*
X46125412Y-46025023D01*
X46125414Y-46025021D01*
X46129445Y-46021523D01*
X46187440Y-45950793D01*
X46272240Y-45847373D01*
X46272244Y-45847367D01*
X46275624Y-45843245D01*
X46278740Y-45837772D01*
X46387032Y-45647529D01*
X46389675Y-45642886D01*
X46466653Y-45430815D01*
X46466654Y-45430813D01*
X46468337Y-45426175D01*
X46469282Y-45426518D01*
X46503647Y-45370356D01*
X46567561Y-45339445D01*
X46638040Y-45347995D01*
X46677336Y-45374641D01*
X49360195Y-48057500D01*
X49394221Y-48119812D01*
X49397100Y-48146595D01*
X49397100Y-48152756D01*
X49397597Y-48156690D01*
X49397597Y-48156691D01*
X49397605Y-48156756D01*
X49398538Y-48168593D01*
X49399927Y-48212789D01*
X49405578Y-48232239D01*
X49409587Y-48251600D01*
X49412126Y-48271697D01*
X49415045Y-48279068D01*
X49415045Y-48279070D01*
X49428404Y-48312812D01*
X49432249Y-48324042D01*
X49437633Y-48342573D01*
X49444582Y-48366493D01*
X49448615Y-48373312D01*
X49448617Y-48373317D01*
X49454893Y-48383928D01*
X49463588Y-48401676D01*
X49471048Y-48420517D01*
X49475710Y-48426933D01*
X49475710Y-48426934D01*
X49497036Y-48456287D01*
X49503552Y-48466207D01*
X49520477Y-48494825D01*
X49526058Y-48504262D01*
X49540379Y-48518583D01*
X49553219Y-48533616D01*
X49565128Y-48550007D01*
X49571234Y-48555058D01*
X49599205Y-48578198D01*
X49607984Y-48586188D01*
X49951843Y-48930047D01*
X49959387Y-48938337D01*
X49963500Y-48944818D01*
X49969277Y-48950243D01*
X50013167Y-48991458D01*
X50016009Y-48994213D01*
X50035730Y-49013934D01*
X50038925Y-49016412D01*
X50047947Y-49024118D01*
X50080179Y-49054386D01*
X50087128Y-49058206D01*
X50097932Y-49064146D01*
X50114456Y-49074999D01*
X50130459Y-49087413D01*
X50171043Y-49104976D01*
X50181673Y-49110183D01*
X50220440Y-49131495D01*
X50228117Y-49133466D01*
X50228122Y-49133468D01*
X50240058Y-49136532D01*
X50258766Y-49142937D01*
X50277355Y-49150981D01*
X50285180Y-49152220D01*
X50285182Y-49152221D01*
X50321019Y-49157897D01*
X50332640Y-49160304D01*
X50367789Y-49169328D01*
X50375470Y-49171300D01*
X50395731Y-49171300D01*
X50415440Y-49172851D01*
X50435443Y-49176019D01*
X50443335Y-49175273D01*
X50448562Y-49174779D01*
X50479454Y-49171859D01*
X50491311Y-49171300D01*
X51515306Y-49171300D01*
X51583427Y-49191302D01*
X51604401Y-49208205D01*
X51966301Y-49570105D01*
X52000327Y-49632417D01*
X51995262Y-49703232D01*
X51952715Y-49760068D01*
X51886195Y-49784879D01*
X51877206Y-49785200D01*
X51313866Y-49785200D01*
X51251684Y-49791955D01*
X51115295Y-49843085D01*
X50998739Y-49930439D01*
X50911385Y-50046995D01*
X50860255Y-50183384D01*
X50853500Y-50245566D01*
X50853500Y-50259200D01*
X50833498Y-50327321D01*
X50779842Y-50373814D01*
X50727500Y-50385200D01*
X50240071Y-50385200D01*
X50171950Y-50365198D01*
X50150976Y-50348295D01*
X48335770Y-48533089D01*
X48323384Y-48518677D01*
X48314851Y-48507082D01*
X48314846Y-48507077D01*
X48310508Y-48501182D01*
X48304930Y-48496443D01*
X48304927Y-48496440D01*
X48270232Y-48466965D01*
X48262716Y-48460035D01*
X48257021Y-48454340D01*
X48246558Y-48446062D01*
X48234749Y-48436719D01*
X48231345Y-48433928D01*
X48181297Y-48391409D01*
X48181295Y-48391408D01*
X48175715Y-48386667D01*
X48169199Y-48383339D01*
X48164150Y-48379972D01*
X48159021Y-48376805D01*
X48153284Y-48372266D01*
X48087125Y-48341345D01*
X48083225Y-48339439D01*
X48018192Y-48306231D01*
X48011084Y-48304492D01*
X48005441Y-48302393D01*
X47999678Y-48300476D01*
X47993050Y-48297378D01*
X47985017Y-48295707D01*
X47921588Y-48282514D01*
X47917299Y-48281543D01*
X47916359Y-48281313D01*
X47846390Y-48264192D01*
X47840788Y-48263844D01*
X47840785Y-48263844D01*
X47835236Y-48263500D01*
X47835238Y-48263464D01*
X47831245Y-48263225D01*
X47827053Y-48262851D01*
X47819885Y-48261360D01*
X47756120Y-48263085D01*
X47742479Y-48263454D01*
X47739072Y-48263500D01*
X36897063Y-48263500D01*
X36878114Y-48262067D01*
X36877907Y-48262036D01*
X36856651Y-48258802D01*
X36849359Y-48259395D01*
X36849356Y-48259395D01*
X36803991Y-48263085D01*
X36793777Y-48263500D01*
X36785707Y-48263500D01*
X36782087Y-48263922D01*
X36782069Y-48263923D01*
X36757461Y-48266792D01*
X36753100Y-48267224D01*
X36727981Y-48269267D01*
X36687661Y-48272546D01*
X36687658Y-48272547D01*
X36680363Y-48273140D01*
X36673399Y-48275396D01*
X36667440Y-48276587D01*
X36661585Y-48277971D01*
X36654319Y-48278818D01*
X36585673Y-48303735D01*
X36581545Y-48305152D01*
X36519064Y-48325393D01*
X36519062Y-48325394D01*
X36512101Y-48327649D01*
X36505846Y-48331445D01*
X36500372Y-48333951D01*
X36494942Y-48336670D01*
X36488063Y-48339167D01*
X36427016Y-48379191D01*
X36423327Y-48381518D01*
X36414843Y-48386667D01*
X36365693Y-48416491D01*
X36365688Y-48416495D01*
X36360892Y-48419405D01*
X36352516Y-48426803D01*
X36352493Y-48426777D01*
X36349503Y-48429426D01*
X36346264Y-48432134D01*
X36340148Y-48436144D01*
X36335121Y-48441451D01*
X36335117Y-48441454D01*
X36286872Y-48492383D01*
X36284494Y-48494825D01*
X34549095Y-50230224D01*
X34486783Y-50264250D01*
X34415968Y-50259185D01*
X34370905Y-50230224D01*
X32748909Y-48608228D01*
X32714883Y-48545916D01*
X32719948Y-48475101D01*
X32762495Y-48418265D01*
X32821994Y-48394154D01*
X32932288Y-48380025D01*
X32932289Y-48380025D01*
X32937416Y-48379368D01*
X32961088Y-48372266D01*
X33146429Y-48316661D01*
X33146434Y-48316659D01*
X33151384Y-48315174D01*
X33351994Y-48216896D01*
X33533860Y-48087173D01*
X33566648Y-48054500D01*
X33677616Y-47943918D01*
X33692096Y-47929489D01*
X33728122Y-47879354D01*
X33816686Y-47756102D01*
X33822453Y-47748077D01*
X33832099Y-47728561D01*
X33919136Y-47552453D01*
X33919137Y-47552451D01*
X33921430Y-47547811D01*
X33986370Y-47334069D01*
X34015529Y-47112590D01*
X34015612Y-47109184D01*
X34017074Y-47049365D01*
X34017074Y-47049361D01*
X34017156Y-47046000D01*
X34004463Y-46891604D01*
X34939787Y-46891604D01*
X34949567Y-47102899D01*
X34950971Y-47108724D01*
X34950971Y-47108725D01*
X34966068Y-47171366D01*
X34999125Y-47308534D01*
X35001607Y-47313992D01*
X35001608Y-47313996D01*
X35045053Y-47409546D01*
X35086674Y-47501087D01*
X35164686Y-47611064D01*
X35199103Y-47659582D01*
X35209054Y-47673611D01*
X35361850Y-47819881D01*
X35539548Y-47934620D01*
X35599646Y-47958840D01*
X35730168Y-48011442D01*
X35730171Y-48011443D01*
X35735737Y-48013686D01*
X35943337Y-48054228D01*
X35948899Y-48054500D01*
X36104846Y-48054500D01*
X36262566Y-48039452D01*
X36465534Y-47979908D01*
X36549111Y-47936863D01*
X36648249Y-47885804D01*
X36648252Y-47885802D01*
X36653580Y-47883058D01*
X36819920Y-47752396D01*
X36823852Y-47747865D01*
X36823855Y-47747862D01*
X36954621Y-47597167D01*
X36958552Y-47592637D01*
X36961552Y-47587451D01*
X36961555Y-47587447D01*
X37061467Y-47414742D01*
X37064473Y-47409546D01*
X37133861Y-47209729D01*
X37138928Y-47174783D01*
X37163352Y-47006336D01*
X37163352Y-47006333D01*
X37164213Y-47000396D01*
X37154433Y-46789101D01*
X37105129Y-46584520D01*
X37108614Y-46513610D01*
X37149883Y-46455840D01*
X37215834Y-46429553D01*
X37227622Y-46429000D01*
X37379885Y-46429000D01*
X37395124Y-46424525D01*
X37396329Y-46423135D01*
X37398000Y-46415452D01*
X37398000Y-45218115D01*
X37393525Y-45202876D01*
X37392135Y-45201671D01*
X37384452Y-45200000D01*
X36312116Y-45200000D01*
X36296877Y-45204475D01*
X36295672Y-45205865D01*
X36294001Y-45213548D01*
X36294001Y-45712066D01*
X36273999Y-45780187D01*
X36220343Y-45826680D01*
X36160754Y-45835910D01*
X36160663Y-45837772D01*
X36156643Y-45837575D01*
X36156626Y-45837575D01*
X36155101Y-45837500D01*
X35999154Y-45837500D01*
X35841434Y-45852548D01*
X35638466Y-45912092D01*
X35633139Y-45914836D01*
X35633138Y-45914836D01*
X35455751Y-46006196D01*
X35455748Y-46006198D01*
X35450420Y-46008942D01*
X35284080Y-46139604D01*
X35280148Y-46144135D01*
X35280145Y-46144138D01*
X35203753Y-46232172D01*
X35145448Y-46299363D01*
X35142448Y-46304549D01*
X35142445Y-46304553D01*
X35070451Y-46429000D01*
X35039527Y-46482454D01*
X34970139Y-46682271D01*
X34969278Y-46688206D01*
X34969278Y-46688208D01*
X34941520Y-46879655D01*
X34939787Y-46891604D01*
X34004463Y-46891604D01*
X33998852Y-46823361D01*
X33944431Y-46606702D01*
X33855354Y-46401840D01*
X33784440Y-46292224D01*
X33736822Y-46218617D01*
X33736820Y-46218614D01*
X33734014Y-46214277D01*
X33583670Y-46049051D01*
X33579619Y-46045852D01*
X33579615Y-46045848D01*
X33412414Y-45913800D01*
X33412410Y-45913798D01*
X33408359Y-45910598D01*
X33367053Y-45887796D01*
X33317084Y-45837364D01*
X33302312Y-45767921D01*
X33327428Y-45701516D01*
X33354780Y-45674909D01*
X33423670Y-45625770D01*
X33533860Y-45547173D01*
X33561769Y-45519362D01*
X33654937Y-45426518D01*
X33692096Y-45389489D01*
X33705845Y-45370356D01*
X33744203Y-45316974D01*
X33800198Y-45273326D01*
X33846526Y-45264500D01*
X33887230Y-45264500D01*
X33906180Y-45265933D01*
X33920415Y-45268099D01*
X33920419Y-45268099D01*
X33927649Y-45269199D01*
X33934941Y-45268606D01*
X33934944Y-45268606D01*
X33980318Y-45264915D01*
X33990533Y-45264500D01*
X33998593Y-45264500D01*
X34011883Y-45262951D01*
X34026807Y-45261211D01*
X34031182Y-45260778D01*
X34096639Y-45255454D01*
X34096642Y-45255453D01*
X34103937Y-45254860D01*
X34110901Y-45252604D01*
X34116860Y-45251413D01*
X34122715Y-45250029D01*
X34129981Y-45249182D01*
X34198627Y-45224265D01*
X34202755Y-45222848D01*
X34265236Y-45202607D01*
X34265238Y-45202606D01*
X34272199Y-45200351D01*
X34278454Y-45196555D01*
X34283928Y-45194049D01*
X34289358Y-45191330D01*
X34296237Y-45188833D01*
X34302358Y-45184820D01*
X34357276Y-45148814D01*
X34360980Y-45146477D01*
X34423407Y-45108595D01*
X34431784Y-45101197D01*
X34431808Y-45101224D01*
X34434800Y-45098571D01*
X34438033Y-45095868D01*
X34444152Y-45091856D01*
X34497428Y-45035617D01*
X34499806Y-45033175D01*
X35260876Y-44272105D01*
X35323188Y-44238079D01*
X35349971Y-44235200D01*
X36168000Y-44235200D01*
X36236121Y-44255202D01*
G37*
%TD.AperFunction*%
%TA.AperFunction,Conductor*%
G36*
X46271029Y-35816033D02*
G01*
X52961440Y-42506444D01*
X52995466Y-42568756D01*
X52990401Y-42639571D01*
X52947854Y-42696407D01*
X52898219Y-42718854D01*
X52885659Y-42721489D01*
X52847104Y-42729578D01*
X52847098Y-42729580D01*
X52841883Y-42730674D01*
X52836924Y-42732632D01*
X52836922Y-42732633D01*
X52777860Y-42755958D01*
X52625086Y-42816292D01*
X52525450Y-42876752D01*
X52430374Y-42934445D01*
X52430371Y-42934447D01*
X52425813Y-42937213D01*
X52421781Y-42940712D01*
X52421778Y-42940714D01*
X52250725Y-43089146D01*
X52186166Y-43118686D01*
X52115885Y-43108632D01*
X52062196Y-43062177D01*
X52050163Y-43038211D01*
X52016324Y-42947946D01*
X52007786Y-42932351D01*
X51931285Y-42830276D01*
X51918724Y-42817715D01*
X51816649Y-42741214D01*
X51801054Y-42732676D01*
X51680606Y-42687522D01*
X51665351Y-42683895D01*
X51614486Y-42678369D01*
X51607672Y-42678000D01*
X50970115Y-42678000D01*
X50954876Y-42682475D01*
X50953671Y-42683865D01*
X50952000Y-42691548D01*
X50952000Y-45705884D01*
X50956475Y-45721123D01*
X50957865Y-45722328D01*
X50965548Y-45723999D01*
X51607669Y-45723999D01*
X51614490Y-45723629D01*
X51665352Y-45718105D01*
X51680604Y-45714479D01*
X51801054Y-45669324D01*
X51816649Y-45660786D01*
X51918724Y-45584285D01*
X51931285Y-45571724D01*
X52007786Y-45469649D01*
X52016324Y-45454054D01*
X52051798Y-45359428D01*
X52094440Y-45302664D01*
X52161001Y-45277964D01*
X52230350Y-45293172D01*
X52260950Y-45316687D01*
X52320916Y-45379548D01*
X52320921Y-45379553D01*
X52324601Y-45383410D01*
X52328878Y-45386593D01*
X52328879Y-45386593D01*
X52357894Y-45408181D01*
X52511609Y-45522548D01*
X52516360Y-45524964D01*
X52516364Y-45524966D01*
X52608331Y-45571724D01*
X52719388Y-45628188D01*
X52941995Y-45697310D01*
X52947284Y-45698011D01*
X53167781Y-45727236D01*
X53167785Y-45727236D01*
X53173065Y-45727936D01*
X53178394Y-45727736D01*
X53178395Y-45727736D01*
X53273124Y-45724179D01*
X53405993Y-45719191D01*
X53634117Y-45671326D01*
X53639076Y-45669368D01*
X53639078Y-45669367D01*
X53771498Y-45617071D01*
X53850914Y-45585708D01*
X54019774Y-45483242D01*
X54045626Y-45467555D01*
X54045629Y-45467553D01*
X54050187Y-45464787D01*
X54076208Y-45442207D01*
X54222204Y-45315518D01*
X54222206Y-45315516D01*
X54226237Y-45312018D01*
X54276488Y-45250733D01*
X54370646Y-45135900D01*
X54370650Y-45135894D01*
X54374030Y-45131772D01*
X54398945Y-45088002D01*
X54450027Y-45038696D01*
X54519657Y-45024834D01*
X54585728Y-45050817D01*
X54612965Y-45079965D01*
X54659317Y-45148814D01*
X54695714Y-45202876D01*
X54703709Y-45214752D01*
X54707388Y-45218609D01*
X54707390Y-45218611D01*
X54738033Y-45250733D01*
X54864601Y-45383410D01*
X54868878Y-45386593D01*
X54868879Y-45386593D01*
X54897894Y-45408181D01*
X55051609Y-45522548D01*
X55056360Y-45524964D01*
X55056364Y-45524966D01*
X55148423Y-45571771D01*
X55200081Y-45620475D01*
X55217207Y-45689375D01*
X55194365Y-45756596D01*
X55180413Y-45773182D01*
X53811500Y-47142095D01*
X53749188Y-47176121D01*
X53722405Y-47179000D01*
X51464100Y-47179000D01*
X51395979Y-47158998D01*
X51376753Y-47142657D01*
X51376480Y-47142960D01*
X51371568Y-47138537D01*
X51367153Y-47133634D01*
X51212652Y-47021382D01*
X51206624Y-47018698D01*
X51206622Y-47018697D01*
X51044219Y-46946391D01*
X51044218Y-46946391D01*
X51038188Y-46943706D01*
X50944787Y-46923853D01*
X50857844Y-46905372D01*
X50857839Y-46905372D01*
X50851387Y-46904000D01*
X50660413Y-46904000D01*
X50653961Y-46905372D01*
X50653956Y-46905372D01*
X50567012Y-46923853D01*
X50473612Y-46943706D01*
X50467582Y-46946391D01*
X50467581Y-46946391D01*
X50305178Y-47018697D01*
X50305176Y-47018698D01*
X50299148Y-47021382D01*
X50280603Y-47034855D01*
X50280063Y-47035248D01*
X50213195Y-47059105D01*
X50144043Y-47043023D01*
X50116909Y-47022405D01*
X48355174Y-45260669D01*
X49325001Y-45260669D01*
X49325371Y-45267490D01*
X49330895Y-45318352D01*
X49334521Y-45333604D01*
X49379676Y-45454054D01*
X49388214Y-45469649D01*
X49464715Y-45571724D01*
X49477276Y-45584285D01*
X49579351Y-45660786D01*
X49594946Y-45669324D01*
X49715394Y-45714478D01*
X49730649Y-45718105D01*
X49781514Y-45723631D01*
X49788328Y-45724000D01*
X50425885Y-45724000D01*
X50441124Y-45719525D01*
X50442329Y-45718135D01*
X50444000Y-45710452D01*
X50444000Y-44473115D01*
X50439525Y-44457876D01*
X50438135Y-44456671D01*
X50430452Y-44455000D01*
X49343116Y-44455000D01*
X49327877Y-44459475D01*
X49326672Y-44460865D01*
X49325001Y-44468548D01*
X49325001Y-45260669D01*
X48355174Y-45260669D01*
X47023390Y-43928885D01*
X49325000Y-43928885D01*
X49329475Y-43944124D01*
X49330865Y-43945329D01*
X49338548Y-43947000D01*
X50425885Y-43947000D01*
X50441124Y-43942525D01*
X50442329Y-43941135D01*
X50444000Y-43933452D01*
X50444000Y-42696116D01*
X50439525Y-42680877D01*
X50438135Y-42679672D01*
X50430452Y-42678001D01*
X49788331Y-42678001D01*
X49781510Y-42678371D01*
X49730648Y-42683895D01*
X49715396Y-42687521D01*
X49594946Y-42732676D01*
X49579351Y-42741214D01*
X49477276Y-42817715D01*
X49464715Y-42830276D01*
X49388214Y-42932351D01*
X49379676Y-42947946D01*
X49334522Y-43068394D01*
X49330895Y-43083649D01*
X49325369Y-43134514D01*
X49325000Y-43141328D01*
X49325000Y-43928885D01*
X47023390Y-43928885D01*
X45337405Y-42242900D01*
X45303379Y-42180588D01*
X45300500Y-42153805D01*
X45300500Y-37188941D01*
X45320502Y-37120820D01*
X45369495Y-37077193D01*
X45369421Y-37077069D01*
X45370064Y-37076686D01*
X45371072Y-37075788D01*
X45373864Y-37074420D01*
X45373868Y-37074418D01*
X45378507Y-37072145D01*
X45563893Y-36939911D01*
X45725193Y-36779173D01*
X45728591Y-36774445D01*
X45855055Y-36598450D01*
X45858073Y-36594250D01*
X45860494Y-36589353D01*
X45956673Y-36394749D01*
X45956674Y-36394747D01*
X45958967Y-36390107D01*
X46019289Y-36191564D01*
X46023662Y-36177171D01*
X46023662Y-36177170D01*
X46025164Y-36172227D01*
X46037700Y-36077011D01*
X46054450Y-35949782D01*
X46054451Y-35949775D01*
X46054887Y-35946460D01*
X46055972Y-35902050D01*
X46077631Y-35834439D01*
X46132407Y-35789270D01*
X46202906Y-35780886D01*
X46271029Y-35816033D01*
G37*
%TD.AperFunction*%
%TA.AperFunction,Conductor*%
G36*
X49279239Y-30236702D02*
G01*
X49325732Y-30290358D01*
X49335836Y-30360632D01*
X49333700Y-30371847D01*
X49330895Y-30383643D01*
X49325369Y-30434514D01*
X49325000Y-30441328D01*
X49325000Y-31228885D01*
X49329475Y-31244124D01*
X49330865Y-31245329D01*
X49338548Y-31247000D01*
X50826000Y-31247000D01*
X50894121Y-31267002D01*
X50940614Y-31320658D01*
X50952000Y-31373000D01*
X50952000Y-33005884D01*
X50956475Y-33021123D01*
X50957865Y-33022328D01*
X50965548Y-33023999D01*
X51607669Y-33023999D01*
X51614490Y-33023629D01*
X51665352Y-33018105D01*
X51680604Y-33014479D01*
X51801054Y-32969324D01*
X51816649Y-32960786D01*
X51918724Y-32884285D01*
X51931285Y-32871724D01*
X52007786Y-32769649D01*
X52016324Y-32754054D01*
X52051798Y-32659428D01*
X52094440Y-32602664D01*
X52161001Y-32577964D01*
X52230350Y-32593172D01*
X52260950Y-32616687D01*
X52320916Y-32679548D01*
X52320921Y-32679553D01*
X52324601Y-32683410D01*
X52328878Y-32686593D01*
X52328879Y-32686593D01*
X52357894Y-32708181D01*
X52511609Y-32822548D01*
X52516360Y-32824964D01*
X52516364Y-32824966D01*
X52582858Y-32858773D01*
X52719388Y-32928188D01*
X52941995Y-32997310D01*
X52947284Y-32998011D01*
X53167781Y-33027236D01*
X53167785Y-33027236D01*
X53173065Y-33027936D01*
X53178394Y-33027736D01*
X53178395Y-33027736D01*
X53273124Y-33024179D01*
X53405993Y-33019191D01*
X53634117Y-32971326D01*
X53639076Y-32969368D01*
X53639078Y-32969367D01*
X53777077Y-32914868D01*
X53850914Y-32885708D01*
X53960256Y-32819358D01*
X54045626Y-32767555D01*
X54045629Y-32767553D01*
X54050187Y-32764787D01*
X54062556Y-32754054D01*
X54222204Y-32615518D01*
X54222206Y-32615516D01*
X54226237Y-32612018D01*
X54268341Y-32560669D01*
X54370646Y-32435900D01*
X54370650Y-32435894D01*
X54374030Y-32431772D01*
X54398945Y-32388002D01*
X54450027Y-32338696D01*
X54519657Y-32324834D01*
X54585728Y-32350817D01*
X54612965Y-32379965D01*
X54703709Y-32514752D01*
X54864601Y-32683410D01*
X54868878Y-32686593D01*
X54868879Y-32686593D01*
X54897894Y-32708181D01*
X55051609Y-32822548D01*
X55056360Y-32824964D01*
X55056364Y-32824966D01*
X55148423Y-32871771D01*
X55200081Y-32920475D01*
X55217207Y-32989375D01*
X55194365Y-33056596D01*
X55180413Y-33073183D01*
X53837665Y-34415930D01*
X52503100Y-35750495D01*
X52440788Y-35784521D01*
X52414005Y-35787400D01*
X52184868Y-35787400D01*
X52173685Y-35786873D01*
X52166192Y-35785198D01*
X52158266Y-35785447D01*
X52158265Y-35785447D01*
X52098102Y-35787338D01*
X52094144Y-35787400D01*
X52066244Y-35787400D01*
X52062254Y-35787904D01*
X52050420Y-35788836D01*
X52006211Y-35790226D01*
X51998597Y-35792438D01*
X51998592Y-35792439D01*
X51986759Y-35795877D01*
X51967396Y-35799888D01*
X51947303Y-35802426D01*
X51939936Y-35805343D01*
X51939931Y-35805344D01*
X51906192Y-35818702D01*
X51894965Y-35822546D01*
X51852507Y-35834882D01*
X51845681Y-35838919D01*
X51835072Y-35845193D01*
X51817324Y-35853888D01*
X51798483Y-35861348D01*
X51792067Y-35866010D01*
X51792066Y-35866010D01*
X51762713Y-35887336D01*
X51752793Y-35893852D01*
X51721565Y-35912320D01*
X51721562Y-35912322D01*
X51714738Y-35916358D01*
X51700417Y-35930679D01*
X51685384Y-35943519D01*
X51668993Y-35955428D01*
X51663942Y-35961534D01*
X51640802Y-35989505D01*
X51632812Y-35998284D01*
X50514300Y-37116795D01*
X50451988Y-37150821D01*
X50425205Y-37153700D01*
X50369313Y-37153700D01*
X50362861Y-37155072D01*
X50362856Y-37155072D01*
X50282748Y-37172100D01*
X50182512Y-37193406D01*
X50176482Y-37196091D01*
X50176481Y-37196091D01*
X50014078Y-37268397D01*
X50014076Y-37268398D01*
X50008048Y-37271082D01*
X50002707Y-37274962D01*
X50002706Y-37274963D01*
X49937664Y-37322219D01*
X49853547Y-37383334D01*
X49849134Y-37388236D01*
X49849132Y-37388237D01*
X49836541Y-37402221D01*
X49776095Y-37439460D01*
X49705111Y-37438108D01*
X49653810Y-37407005D01*
X47302505Y-35055700D01*
X47268479Y-34993388D01*
X47265600Y-34966605D01*
X47265600Y-33654068D01*
X47266127Y-33642885D01*
X47267802Y-33635392D01*
X47267542Y-33627101D01*
X47265662Y-33567302D01*
X47265600Y-33563344D01*
X47265600Y-33535444D01*
X47265096Y-33531453D01*
X47264163Y-33519611D01*
X47263625Y-33502471D01*
X47262774Y-33475411D01*
X47257121Y-33455952D01*
X47253112Y-33436593D01*
X47251983Y-33427656D01*
X47250574Y-33416503D01*
X47247658Y-33409137D01*
X47247656Y-33409131D01*
X47234300Y-33375398D01*
X47230455Y-33364168D01*
X47220330Y-33329317D01*
X47220330Y-33329316D01*
X47218119Y-33321707D01*
X47207805Y-33304266D01*
X47199108Y-33286513D01*
X47194572Y-33275058D01*
X47191652Y-33267683D01*
X47165663Y-33231912D01*
X47159147Y-33221992D01*
X47140678Y-33190763D01*
X47136642Y-33183938D01*
X47122321Y-33169617D01*
X47109480Y-33154583D01*
X47102231Y-33144606D01*
X47097572Y-33138193D01*
X47063495Y-33110002D01*
X47054716Y-33102012D01*
X46513373Y-32560669D01*
X49325001Y-32560669D01*
X49325371Y-32567490D01*
X49330895Y-32618352D01*
X49334521Y-32633604D01*
X49379676Y-32754054D01*
X49388214Y-32769649D01*
X49464715Y-32871724D01*
X49477276Y-32884285D01*
X49579351Y-32960786D01*
X49594946Y-32969324D01*
X49715394Y-33014478D01*
X49730649Y-33018105D01*
X49781514Y-33023631D01*
X49788328Y-33024000D01*
X50425885Y-33024000D01*
X50441124Y-33019525D01*
X50442329Y-33018135D01*
X50444000Y-33010452D01*
X50444000Y-31773115D01*
X50439525Y-31757876D01*
X50438135Y-31756671D01*
X50430452Y-31755000D01*
X49343116Y-31755000D01*
X49327877Y-31759475D01*
X49326672Y-31760865D01*
X49325001Y-31768548D01*
X49325001Y-32560669D01*
X46513373Y-32560669D01*
X45770230Y-31817526D01*
X45736204Y-31755214D01*
X45741269Y-31684399D01*
X45757003Y-31654905D01*
X45855050Y-31518458D01*
X45855054Y-31518452D01*
X45858073Y-31514250D01*
X45897192Y-31435100D01*
X45956673Y-31314749D01*
X45956674Y-31314747D01*
X45958967Y-31310107D01*
X46025164Y-31092227D01*
X46037700Y-30997011D01*
X46054450Y-30869782D01*
X46054451Y-30869775D01*
X46054887Y-30866460D01*
X46056317Y-30807942D01*
X46056464Y-30801946D01*
X46056464Y-30801941D01*
X46056546Y-30798581D01*
X46045424Y-30663304D01*
X46038311Y-30576783D01*
X46038310Y-30576777D01*
X46037887Y-30571632D01*
X45988094Y-30373395D01*
X45990898Y-30302454D01*
X46031611Y-30244291D01*
X46097307Y-30217372D01*
X46110298Y-30216700D01*
X49211118Y-30216700D01*
X49279239Y-30236702D01*
G37*
%TD.AperFunction*%
%TA.AperFunction,Conductor*%
G36*
X29471032Y-20339505D02*
G01*
X29516095Y-20368466D01*
X30556320Y-21408691D01*
X30568330Y-21415250D01*
X30580069Y-21406282D01*
X30614625Y-21358192D01*
X30619936Y-21349353D01*
X30716206Y-21154564D01*
X30720005Y-21144968D01*
X30783170Y-20937072D01*
X30785349Y-20926991D01*
X30813949Y-20709756D01*
X30814468Y-20703083D01*
X30814946Y-20683524D01*
X30836606Y-20615912D01*
X30891382Y-20570745D01*
X30961882Y-20562361D01*
X31030003Y-20597508D01*
X32665048Y-22232553D01*
X32672588Y-22240839D01*
X32676700Y-22247318D01*
X32682477Y-22252743D01*
X32726351Y-22293943D01*
X32729193Y-22296698D01*
X32748930Y-22316435D01*
X32752127Y-22318915D01*
X32761147Y-22326618D01*
X32793379Y-22356886D01*
X32800325Y-22360705D01*
X32800328Y-22360707D01*
X32811134Y-22366648D01*
X32827653Y-22377499D01*
X32843659Y-22389914D01*
X32850928Y-22393059D01*
X32850932Y-22393062D01*
X32884237Y-22407474D01*
X32894887Y-22412691D01*
X32933640Y-22433995D01*
X32941315Y-22435966D01*
X32941316Y-22435966D01*
X32953262Y-22439033D01*
X32971966Y-22445437D01*
X32978964Y-22448465D01*
X32990555Y-22453481D01*
X32998378Y-22454720D01*
X32998388Y-22454723D01*
X33034224Y-22460399D01*
X33045844Y-22462805D01*
X33080989Y-22471828D01*
X33088670Y-22473800D01*
X33108924Y-22473800D01*
X33128634Y-22475351D01*
X33148643Y-22478520D01*
X33156535Y-22477774D01*
X33192661Y-22474359D01*
X33204519Y-22473800D01*
X43269949Y-22473800D01*
X43338070Y-22493802D01*
X43384563Y-22547458D01*
X43394667Y-22617732D01*
X43384237Y-22652850D01*
X43365097Y-22694083D01*
X43365093Y-22694094D01*
X43362921Y-22698773D01*
X43302067Y-22918206D01*
X43277869Y-23144631D01*
X43278166Y-23149783D01*
X43278166Y-23149787D01*
X43282983Y-23233321D01*
X43290977Y-23371968D01*
X43292112Y-23377005D01*
X43292113Y-23377011D01*
X43336917Y-23575822D01*
X43341039Y-23594112D01*
X43342983Y-23598900D01*
X43342986Y-23598909D01*
X43366573Y-23656995D01*
X43373670Y-23727636D01*
X43341449Y-23790900D01*
X43280139Y-23826700D01*
X43249831Y-23830400D01*
X30846312Y-23830400D01*
X30778191Y-23810398D01*
X30731698Y-23756742D01*
X30721594Y-23686468D01*
X30725753Y-23667772D01*
X30783662Y-23477171D01*
X30783662Y-23477170D01*
X30785164Y-23472227D01*
X30797700Y-23377011D01*
X30814450Y-23249782D01*
X30814451Y-23249775D01*
X30814887Y-23246460D01*
X30816546Y-23178581D01*
X30807388Y-23067192D01*
X30798311Y-22956783D01*
X30798310Y-22956777D01*
X30797887Y-22951632D01*
X30762570Y-22811026D01*
X30743672Y-22735789D01*
X30743671Y-22735785D01*
X30742413Y-22730778D01*
X30731817Y-22706409D01*
X30653672Y-22526687D01*
X30653670Y-22526684D01*
X30651612Y-22521950D01*
X30563053Y-22385058D01*
X30530731Y-22335096D01*
X30530729Y-22335093D01*
X30527923Y-22330756D01*
X30374668Y-22162331D01*
X30195963Y-22021199D01*
X30188849Y-22017272D01*
X30188006Y-22016421D01*
X30187131Y-22015840D01*
X30187251Y-22015659D01*
X30138876Y-21966842D01*
X30124100Y-21897400D01*
X30149214Y-21830994D01*
X30176568Y-21804383D01*
X30195103Y-21791162D01*
X30203504Y-21780462D01*
X30196515Y-21767306D01*
X29156885Y-20727676D01*
X29122859Y-20665364D01*
X29127924Y-20594549D01*
X29156885Y-20549486D01*
X29337905Y-20368466D01*
X29400217Y-20334440D01*
X29471032Y-20339505D01*
G37*
%TD.AperFunction*%
%TD*%
M02*
