M48
; DRILL file {KiCad (6.0.5-0)} date 2022 August 11, Thursday 13:14:41
; FORMAT={-:-/ absolute / inch / decimal}
; #@! TF.CreationDate,2022-08-11T13:14:41+02:00
; #@! TF.GenerationSoftware,Kicad,Pcbnew,(6.0.5-0)
; #@! TF.FileFunction,Plated,1,2,PTH
FMAT,2
INCH
; #@! TA.AperFunction,Plated,PTH,ViaDrill
T1C0.0157
; #@! TA.AperFunction,Plated,PTH,ComponentDrill
T2C0.0374
; #@! TA.AperFunction,Plated,PTH,ComponentDrill
T3C0.0394
; #@! TA.AperFunction,Plated,PTH,ComponentDrill
T4C0.0402
; #@! TA.AperFunction,Plated,PTH,ComponentDrill
T5C0.0430
; #@! TA.AperFunction,Plated,PTH,ComponentDrill
T6C0.0500
; #@! TA.AperFunction,Plated,PTH,ComponentDrill
T7C0.0512
; #@! TA.AperFunction,Plated,PTH,ComponentDrill
T8C0.1260
%
G90
G05
T1
X0.8456Y-1.8996
X0.9Y-1.78
X0.93Y-2.16
X1.0147Y-1.7347
X1.0629Y-0.89
X1.1766Y-1.6066
X1.2151Y-1.1456
X1.2673Y-1.4817
X1.43Y-2.41
X1.5Y-2.24
X1.52Y-1.998
X1.8374Y-2.4183
X1.86Y-1.83
X1.8827Y-1.7407
X1.9639Y-2.3579
X1.9673Y-0.8599
X1.9868Y-1.4985
X1.9899Y-1.0265
X1.9983Y-1.8824
X2.3335Y-2.3503
X2.3671Y-1.3372
T2
X1.4824Y-1.7695
X1.4824Y-2.0885
X1.4824Y-2.4075
X1.5808Y-1.7695
X1.5808Y-2.0885
X1.5808Y-2.4075
X1.6792Y-1.7695
X1.6792Y-2.0885
X1.6792Y-2.4075
X1.7776Y-1.7695
X1.7776Y-2.0885
X1.7776Y-2.4075
T3
X1.0856Y-1.7522
X1.0856Y-1.8522
X1.0856Y-2.0712
X1.0856Y-2.1712
X1.0856Y-2.3902
X1.0856Y-2.4902
X1.1856Y-1.7522
X1.1856Y-1.8522
X1.1856Y-2.0712
X1.1856Y-2.1712
X1.1856Y-2.3902
X1.1856Y-2.4902
X1.2856Y-1.7522
X1.2856Y-1.8522
X1.2856Y-2.0712
X1.2856Y-2.1712
X1.2856Y-2.3902
X1.2856Y-2.4902
X2.0556Y-1.0202
X2.0556Y-1.5169
X2.0556Y-2.0135
X2.0556Y-2.5102
X2.1556Y-1.0202
X2.1556Y-1.5169
X2.1556Y-2.0135
X2.1556Y-2.5102
X2.2556Y-1.0202
X2.2556Y-1.5169
X2.2556Y-2.0135
X2.2556Y-2.5102
T4
X1.9956Y-2.2402
X1.996Y-0.7402
X1.996Y-1.2402
X1.996Y-1.7402
X2.0956Y-2.2402
X2.096Y-0.7402
X2.096Y-1.2402
X2.096Y-1.7402
X2.1956Y-2.2402
X2.196Y-0.7402
X2.196Y-1.2402
X2.196Y-1.7402
X2.2956Y-2.2402
X2.296Y-0.7402
X2.296Y-1.2402
X2.296Y-1.7402
T5
X1.1585Y-0.7125
X1.1585Y-0.8125
X1.1585Y-0.9125
X1.1585Y-1.0125
X1.1585Y-1.1125
X1.1585Y-1.2125
X1.1585Y-1.3125
X1.1585Y-1.4125
X1.3585Y-1.4082
X1.4585Y-1.4082
X1.5585Y-1.4082
X1.7585Y-0.7125
X1.7585Y-0.8125
X1.7585Y-0.9125
X1.7585Y-1.0125
X1.7585Y-1.1125
X1.7585Y-1.2125
X1.7585Y-1.3125
X1.7585Y-1.4125
T6
X0.6754Y-1.8966
X0.6754Y-1.997
X0.6754Y-2.0974
T7
X0.7776Y-0.9404
X0.7776Y-1.1404
X0.7776Y-1.3804
X0.7776Y-1.5804
T8
X0.6956Y-0.6902
X0.6956Y-2.4302
X2.6156Y-1.0502
X2.6156Y-2.0702
T0
M30
