M48
; DRILL file {KiCad (6.0.5-0)} date 2022 September 01, Thursday 07:50:41
; FORMAT={-:-/ absolute / inch / decimal}
; #@! TF.CreationDate,2022-09-01T07:50:41+02:00
; #@! TF.GenerationSoftware,Kicad,Pcbnew,(6.0.5-0)
; #@! TF.FileFunction,Plated,1,2,PTH
FMAT,2
INCH
; #@! TA.AperFunction,Plated,PTH,ViaDrill
T1C0.0157
; #@! TA.AperFunction,Plated,PTH,ComponentDrill
T2C0.0374
; #@! TA.AperFunction,Plated,PTH,ComponentDrill
T3C0.0394
; #@! TA.AperFunction,Plated,PTH,ComponentDrill
T4C0.0402
; #@! TA.AperFunction,Plated,PTH,ComponentDrill
T5C0.0430
; #@! TA.AperFunction,Plated,PTH,ComponentDrill
T6C0.0500
; #@! TA.AperFunction,Plated,PTH,ComponentDrill
T7C0.0512
; #@! TA.AperFunction,Plated,PTH,ComponentDrill
T8C0.1260
%
G90
G05
T1
X0.7776Y-2.4749
X0.9744Y-1.4489
X1.1033Y-2.8305
X1.329Y-2.1459
X1.5782Y-2.2188
X1.7843Y-1.7656
X1.8215Y-0.9747
X1.85Y-0.6023
X1.873Y-2.3533
X1.88Y-1.4814
X1.8957Y-2.2984
X1.9085Y-1.74
X1.9629Y-1.6734
X2.0163Y-1.5345
X2.031Y-2.5793
X2.1202Y-2.07
X2.1407Y-1.508
X2.1904Y-2.2984
X2.2661Y-2.0518
X2.2692Y-2.669
X2.3877Y-1.83
X2.4051Y-1.6073
X2.5265Y-2.0245
X2.5265Y-2.601
X2.6184Y-0.8226
X2.641Y-0.75
X2.7873Y-2.0519
T2
X1.0952Y-1.8031
X1.0952Y-1.9016
X1.0952Y-2.0
X1.4142Y-1.8031
X1.4142Y-1.9016
X1.4142Y-2.0
X1.7331Y-1.8031
X1.7331Y-1.9016
X1.7331Y-2.0
T3
X1.0542Y-2.2219
X1.0542Y-2.3219
X1.0542Y-2.4219
X1.0542Y-2.6002
X1.0542Y-2.7002
X1.07Y-2.92
X1.1542Y-2.2219
X1.1542Y-2.3219
X1.1542Y-2.4219
X1.1542Y-2.6002
X1.1542Y-2.7002
X1.17Y-2.92
X1.27Y-2.92
X1.37Y-2.92
X1.3732Y-2.2219
X1.3732Y-2.3219
X1.3732Y-2.4219
X1.3732Y-2.6002
X1.3732Y-2.7002
X1.47Y-2.92
X1.4732Y-2.2219
X1.4732Y-2.3219
X1.4732Y-2.4219
X1.4732Y-2.6002
X1.4732Y-2.7002
X1.57Y-2.92
X1.6922Y-2.2219
X1.6922Y-2.3219
X1.6922Y-2.4219
X1.6922Y-2.6002
X1.6922Y-2.7002
X1.7922Y-2.2219
X1.7922Y-2.3219
X1.7922Y-2.4219
X1.7922Y-2.6002
X1.7922Y-2.7002
X1.875Y-2.92
X1.975Y-2.92
X2.075Y-2.92
X2.0944Y-1.0463
X2.0944Y-1.615
X2.0944Y-2.19
X2.0944Y-2.745
X2.175Y-2.92
X2.1944Y-1.0463
X2.1944Y-1.615
X2.1944Y-2.19
X2.1944Y-2.745
X2.275Y-2.92
X2.2944Y-1.0463
X2.2944Y-1.615
X2.2944Y-2.19
X2.2944Y-2.745
X2.375Y-2.92
T4
X1.9904Y-2.4382
X1.996Y-0.7402
X1.996Y-1.3082
X1.996Y-1.88
X2.0904Y-2.4382
X2.096Y-0.7402
X2.096Y-1.3082
X2.096Y-1.88
X2.1904Y-2.4382
X2.196Y-0.7402
X2.196Y-1.3082
X2.196Y-1.88
X2.2904Y-2.4382
X2.296Y-0.7402
X2.296Y-1.3082
X2.296Y-1.88
T5
X1.148Y-0.6489
X1.148Y-0.7489
X1.148Y-0.8489
X1.148Y-0.9489
X1.148Y-1.0489
X1.148Y-1.1489
X1.148Y-1.2489
X1.148Y-1.3489
X1.148Y-1.4489
X1.248Y-1.4489
X1.348Y-1.4489
X1.448Y-1.4489
X1.548Y-1.4489
X1.648Y-1.4489
X1.748Y-0.6489
X1.748Y-0.7489
X1.748Y-0.8489
X1.748Y-0.9489
X1.748Y-1.0489
X1.748Y-1.1489
X1.748Y-1.2489
X1.748Y-1.3489
X1.748Y-1.4489
T6
X0.6498Y-1.8964
X0.6498Y-1.9968
X0.6498Y-2.0972
T7
X0.7776Y-0.9404
X0.7776Y-1.1404
X0.7776Y-1.3804
X0.7776Y-1.5804
T8
X0.6956Y-0.6902
X0.6956Y-2.73
X2.6156Y-1.0502
X2.63Y-2.73
T0
M30
