%TF.GenerationSoftware,KiCad,Pcbnew,(6.0.5-0)*%
%TF.CreationDate,2022-08-11T13:14:41+02:00*%
%TF.ProjectId,tiny-fan,74696e79-2d66-4616-9e2e-6b696361645f,rev?*%
%TF.SameCoordinates,Original*%
%TF.FileFunction,Soldermask,Bot*%
%TF.FilePolarity,Negative*%
%FSLAX46Y46*%
G04 Gerber Fmt 4.6, Leading zero omitted, Abs format (unit mm)*
G04 Created by KiCad (PCBNEW (6.0.5-0)) date 2022-08-11 13:14:41*
%MOMM*%
%LPD*%
G01*
G04 APERTURE LIST*
G04 Aperture macros list*
%AMRoundRect*
0 Rectangle with rounded corners*
0 $1 Rounding radius*
0 $2 $3 $4 $5 $6 $7 $8 $9 X,Y pos of 4 corners*
0 Add a 4 corners polygon primitive as box body*
4,1,4,$2,$3,$4,$5,$6,$7,$8,$9,$2,$3,0*
0 Add four circle primitives for the rounded corners*
1,1,$1+$1,$2,$3*
1,1,$1+$1,$4,$5*
1,1,$1+$1,$6,$7*
1,1,$1+$1,$8,$9*
0 Add four rect primitives between the rounded corners*
20,1,$1+$1,$2,$3,$4,$5,0*
20,1,$1+$1,$4,$5,$6,$7,0*
20,1,$1+$1,$6,$7,$8,$9,0*
20,1,$1+$1,$8,$9,$2,$3,0*%
G04 Aperture macros list end*
%ADD10C,1.955800*%
%ADD11C,2.600000*%
%ADD12R,2.600000X2.600000*%
%ADD13C,5.700000*%
%ADD14R,1.700000X1.700000*%
%ADD15O,1.700000X1.700000*%
%ADD16RoundRect,0.250000X0.312500X0.625000X-0.312500X0.625000X-0.312500X-0.625000X0.312500X-0.625000X0*%
%ADD17RoundRect,0.250000X0.625000X-0.312500X0.625000X0.312500X-0.625000X0.312500X-0.625000X-0.312500X0*%
%ADD18RoundRect,0.250000X-0.625000X0.312500X-0.625000X-0.312500X0.625000X-0.312500X0.625000X0.312500X0*%
%ADD19RoundRect,0.150000X0.587500X0.150000X-0.587500X0.150000X-0.587500X-0.150000X0.587500X-0.150000X0*%
%ADD20C,1.200000*%
%ADD21RoundRect,0.250000X-0.600000X-0.725000X0.600000X-0.725000X0.600000X0.725000X-0.600000X0.725000X0*%
%ADD22O,1.700000X1.950000*%
%ADD23RoundRect,0.250000X0.650000X-0.325000X0.650000X0.325000X-0.650000X0.325000X-0.650000X-0.325000X0*%
%ADD24RoundRect,0.250000X-0.650000X0.325000X-0.650000X-0.325000X0.650000X-0.325000X0.650000X0.325000X0*%
%ADD25C,1.100000*%
%ADD26R,1.730000X2.030000*%
%ADD27O,1.730000X2.030000*%
%ADD28R,1.910000X1.910000*%
%ADD29C,1.910000*%
%ADD30RoundRect,0.150000X-0.587500X-0.150000X0.587500X-0.150000X0.587500X0.150000X-0.587500X0.150000X0*%
%ADD31C,0.800000*%
G04 APERTURE END LIST*
D10*
%TO.C,U2*%
X39587000Y-35768581D03*
X37047000Y-35768581D03*
X34507000Y-35768581D03*
X44667000Y-18098581D03*
X44667000Y-20638581D03*
X44667000Y-23178581D03*
X44667000Y-25718581D03*
X44667000Y-28258581D03*
X44667000Y-30798581D03*
X44667000Y-33338581D03*
X44667000Y-35878581D03*
X29427000Y-35878581D03*
X29427000Y-33338581D03*
X29427000Y-30798581D03*
X29427000Y-28258581D03*
X29427000Y-25718581D03*
X29427000Y-23178581D03*
X29427000Y-20638581D03*
X29427000Y-18098581D03*
%TD*%
D11*
%TO.C,5VIN1*%
X19751000Y-35062000D03*
D12*
X19751000Y-40142000D03*
%TD*%
D13*
%TO.C,REF4*%
X66436000Y-52583000D03*
%TD*%
%TO.C,REF3*%
X66436000Y-26675000D03*
%TD*%
%TO.C,REF2*%
X17668000Y-61727000D03*
%TD*%
%TO.C,REF1*%
X17668000Y-17531000D03*
%TD*%
D14*
%TO.C,AUX3PWR1*%
X27574000Y-63251000D03*
D15*
X27574000Y-60711000D03*
X30114000Y-63251000D03*
X30114000Y-60711000D03*
X32654000Y-63251000D03*
X32654000Y-60711000D03*
%TD*%
D14*
%TO.C,AUX2PWR1*%
X27574000Y-55148500D03*
D15*
X27574000Y-52608500D03*
X30114000Y-55148500D03*
X30114000Y-52608500D03*
X32654000Y-55148500D03*
X32654000Y-52608500D03*
%TD*%
D14*
%TO.C,AUX1PWR1*%
X27574000Y-47046000D03*
D15*
X27574000Y-44506000D03*
X30114000Y-47046000D03*
X30114000Y-44506000D03*
X32654000Y-47046000D03*
X32654000Y-44506000D03*
%TD*%
D16*
%TO.C,R14*%
X42225500Y-24384000D03*
X39300500Y-24384000D03*
%TD*%
D17*
%TO.C,R13*%
X36322000Y-41086500D03*
X36322000Y-38161500D03*
%TD*%
%TO.C,R12*%
X27178000Y-41086500D03*
X27178000Y-38161500D03*
%TD*%
D16*
%TO.C,R11*%
X39239000Y-30988000D03*
X42164000Y-30988000D03*
%TD*%
D18*
%TO.C,R10*%
X42926000Y-38161500D03*
X42926000Y-41086500D03*
%TD*%
D17*
%TO.C,R9*%
X33782000Y-41086500D03*
X33782000Y-38161500D03*
%TD*%
D19*
%TO.C,Q7*%
X41639000Y-26736000D03*
X41639000Y-28636000D03*
X39764000Y-27686000D03*
%TD*%
%TO.C,Q6*%
X40483000Y-38674000D03*
X40483000Y-40574000D03*
X38608000Y-39624000D03*
%TD*%
%TO.C,Q5*%
X31339000Y-38674000D03*
X31339000Y-40574000D03*
X29464000Y-39624000D03*
%TD*%
D20*
%TO.C,AUX3*%
X36052000Y-63151000D03*
D21*
X37652000Y-61151000D03*
D22*
X40152000Y-61151000D03*
X42652000Y-61151000D03*
X45152000Y-61151000D03*
%TD*%
%TO.C,AUX2*%
X45152000Y-53048500D03*
X42652000Y-53048500D03*
X40152000Y-53048500D03*
D21*
X37652000Y-53048500D03*
D20*
X36052000Y-55048500D03*
%TD*%
D22*
%TO.C,AUX1*%
X45152000Y-44946000D03*
X42652000Y-44946000D03*
X40152000Y-44946000D03*
D21*
X37652000Y-44946000D03*
D20*
X36052000Y-46946000D03*
%TD*%
D23*
%TO.C,C2*%
X21478000Y-54771000D03*
X21478000Y-51821000D03*
%TD*%
D24*
%TO.C,C1*%
X21478000Y-49437000D03*
X21478000Y-46487000D03*
%TD*%
D25*
%TO.C,FAN4*%
X55768000Y-54741000D03*
D26*
X50688000Y-56901000D03*
D27*
X53228000Y-56901000D03*
X55768000Y-56901000D03*
X58308000Y-56901000D03*
%TD*%
D25*
%TO.C,FAN3*%
X55778000Y-42041000D03*
D26*
X50698000Y-44201000D03*
D27*
X53238000Y-44201000D03*
X55778000Y-44201000D03*
X58318000Y-44201000D03*
%TD*%
D25*
%TO.C,FAN2*%
X55778000Y-29341000D03*
D26*
X50698000Y-31501000D03*
D27*
X53238000Y-31501000D03*
X55778000Y-31501000D03*
X58318000Y-31501000D03*
%TD*%
D25*
%TO.C,FAN1*%
X55778000Y-16641000D03*
D26*
X50698000Y-18801000D03*
D27*
X53238000Y-18801000D03*
X55778000Y-18801000D03*
X58318000Y-18801000D03*
%TD*%
D14*
%TO.C,FAN4PWR1*%
X52212000Y-63759000D03*
D15*
X54752000Y-63759000D03*
X57292000Y-63759000D03*
%TD*%
D14*
%TO.C,FAN3PWR1*%
X52212000Y-51143700D03*
D15*
X54752000Y-51143700D03*
X57292000Y-51143700D03*
%TD*%
D14*
%TO.C,FAN2PWR1*%
X52212000Y-38528300D03*
D15*
X54752000Y-38528300D03*
X57292000Y-38528300D03*
%TD*%
%TO.C,FAN1PWR1*%
X57292000Y-25913000D03*
X54752000Y-25913000D03*
D14*
X52212000Y-25913000D03*
%TD*%
D28*
%TO.C,U1*%
X17154000Y-48174500D03*
D29*
X17154000Y-50724500D03*
X17154000Y-53274500D03*
%TD*%
D30*
%TO.C,Q4*%
X45940500Y-64963000D03*
X45940500Y-63063000D03*
X47815500Y-64013000D03*
%TD*%
%TO.C,Q3*%
X47464500Y-53025000D03*
X47464500Y-51125000D03*
X49339500Y-52075000D03*
%TD*%
%TO.C,Q2*%
X47464500Y-40325000D03*
X47464500Y-38425000D03*
X49339500Y-39375000D03*
%TD*%
%TO.C,Q1*%
X47464500Y-27625000D03*
X47464500Y-25725000D03*
X49339500Y-26675000D03*
%TD*%
D16*
%TO.C,R8*%
X49733500Y-61727000D03*
X52658500Y-61727000D03*
%TD*%
%TO.C,R7*%
X52658500Y-49027000D03*
X49733500Y-49027000D03*
%TD*%
%TO.C,R6*%
X52658500Y-36327000D03*
X49733500Y-36327000D03*
%TD*%
%TO.C,R5*%
X59262500Y-61727000D03*
X56337500Y-61727000D03*
%TD*%
%TO.C,R4*%
X59262500Y-49027000D03*
X56337500Y-49027000D03*
%TD*%
%TO.C,R3*%
X52658500Y-23627000D03*
X49733500Y-23627000D03*
%TD*%
%TO.C,R2*%
X59262500Y-23627000D03*
X56337500Y-23627000D03*
%TD*%
%TO.C,R1*%
X59262500Y-36327000D03*
X56337500Y-36327000D03*
%TD*%
D11*
%TO.C,24VIN1*%
X19751000Y-23886000D03*
D12*
X19751000Y-28966000D03*
%TD*%
D31*
X47821200Y-44213409D03*
X47244000Y-46482000D03*
X38608000Y-50748400D03*
X38100000Y-56896000D03*
X36322000Y-61214000D03*
X23622000Y-54864000D03*
X22860000Y-45212000D03*
X26998900Y-22606000D03*
X49881800Y-59890300D03*
X50755900Y-47812500D03*
X50464800Y-38062200D03*
X25772900Y-44061500D03*
X32189000Y-37634100D03*
X29885100Y-40808700D03*
X49969100Y-21840300D03*
X30864200Y-29098600D03*
X50544300Y-26073700D03*
X60123400Y-33964600D03*
X46670800Y-61424700D03*
X59270200Y-59698700D03*
X21478000Y-48249700D03*
M02*
