%TF.GenerationSoftware,KiCad,Pcbnew,(6.0.5-0)*%
%TF.CreationDate,2022-08-11T13:14:41+02:00*%
%TF.ProjectId,tiny-fan,74696e79-2d66-4616-9e2e-6b696361645f,rev?*%
%TF.SameCoordinates,Original*%
%TF.FileFunction,Soldermask,Top*%
%TF.FilePolarity,Negative*%
%FSLAX46Y46*%
G04 Gerber Fmt 4.6, Leading zero omitted, Abs format (unit mm)*
G04 Created by KiCad (PCBNEW (6.0.5-0)) date 2022-08-11 13:14:41*
%MOMM*%
%LPD*%
G01*
G04 APERTURE LIST*
G04 Aperture macros list*
%AMRoundRect*
0 Rectangle with rounded corners*
0 $1 Rounding radius*
0 $2 $3 $4 $5 $6 $7 $8 $9 X,Y pos of 4 corners*
0 Add a 4 corners polygon primitive as box body*
4,1,4,$2,$3,$4,$5,$6,$7,$8,$9,$2,$3,0*
0 Add four circle primitives for the rounded corners*
1,1,$1+$1,$2,$3*
1,1,$1+$1,$4,$5*
1,1,$1+$1,$6,$7*
1,1,$1+$1,$8,$9*
0 Add four rect primitives between the rounded corners*
20,1,$1+$1,$2,$3,$4,$5,0*
20,1,$1+$1,$4,$5,$6,$7,0*
20,1,$1+$1,$6,$7,$8,$9,0*
20,1,$1+$1,$8,$9,$2,$3,0*%
G04 Aperture macros list end*
%ADD10C,1.955800*%
%ADD11C,2.600000*%
%ADD12R,2.600000X2.600000*%
%ADD13C,5.700000*%
%ADD14R,1.700000X1.700000*%
%ADD15O,1.700000X1.700000*%
%ADD16C,1.200000*%
%ADD17RoundRect,0.250000X-0.600000X-0.725000X0.600000X-0.725000X0.600000X0.725000X-0.600000X0.725000X0*%
%ADD18O,1.700000X1.950000*%
%ADD19C,1.100000*%
%ADD20R,1.730000X2.030000*%
%ADD21O,1.730000X2.030000*%
%ADD22R,1.910000X1.910000*%
%ADD23C,1.910000*%
%ADD24C,0.800000*%
G04 APERTURE END LIST*
D10*
%TO.C,U2*%
X39587000Y-35768581D03*
X37047000Y-35768581D03*
X34507000Y-35768581D03*
X44667000Y-18098581D03*
X44667000Y-20638581D03*
X44667000Y-23178581D03*
X44667000Y-25718581D03*
X44667000Y-28258581D03*
X44667000Y-30798581D03*
X44667000Y-33338581D03*
X44667000Y-35878581D03*
X29427000Y-35878581D03*
X29427000Y-33338581D03*
X29427000Y-30798581D03*
X29427000Y-28258581D03*
X29427000Y-25718581D03*
X29427000Y-23178581D03*
X29427000Y-20638581D03*
X29427000Y-18098581D03*
%TD*%
D11*
%TO.C,5VIN1*%
X19751000Y-35062000D03*
D12*
X19751000Y-40142000D03*
%TD*%
D13*
%TO.C,REF4*%
X66436000Y-52583000D03*
%TD*%
%TO.C,REF3*%
X66436000Y-26675000D03*
%TD*%
%TO.C,REF2*%
X17668000Y-61727000D03*
%TD*%
%TO.C,REF1*%
X17668000Y-17531000D03*
%TD*%
D14*
%TO.C,AUX3PWR1*%
X27574000Y-63251000D03*
D15*
X27574000Y-60711000D03*
X30114000Y-63251000D03*
X30114000Y-60711000D03*
X32654000Y-63251000D03*
X32654000Y-60711000D03*
%TD*%
D14*
%TO.C,AUX2PWR1*%
X27574000Y-55148500D03*
D15*
X27574000Y-52608500D03*
X30114000Y-55148500D03*
X30114000Y-52608500D03*
X32654000Y-55148500D03*
X32654000Y-52608500D03*
%TD*%
D14*
%TO.C,AUX1PWR1*%
X27574000Y-47046000D03*
D15*
X27574000Y-44506000D03*
X30114000Y-47046000D03*
X30114000Y-44506000D03*
X32654000Y-47046000D03*
X32654000Y-44506000D03*
%TD*%
D16*
%TO.C,AUX3*%
X36052000Y-63151000D03*
D17*
X37652000Y-61151000D03*
D18*
X40152000Y-61151000D03*
X42652000Y-61151000D03*
X45152000Y-61151000D03*
%TD*%
%TO.C,AUX2*%
X45152000Y-53048500D03*
X42652000Y-53048500D03*
X40152000Y-53048500D03*
D17*
X37652000Y-53048500D03*
D16*
X36052000Y-55048500D03*
%TD*%
D18*
%TO.C,AUX1*%
X45152000Y-44946000D03*
X42652000Y-44946000D03*
X40152000Y-44946000D03*
D17*
X37652000Y-44946000D03*
D16*
X36052000Y-46946000D03*
%TD*%
D19*
%TO.C,FAN4*%
X55768000Y-54741000D03*
D20*
X50688000Y-56901000D03*
D21*
X53228000Y-56901000D03*
X55768000Y-56901000D03*
X58308000Y-56901000D03*
%TD*%
D19*
%TO.C,FAN3*%
X55778000Y-42041000D03*
D20*
X50698000Y-44201000D03*
D21*
X53238000Y-44201000D03*
X55778000Y-44201000D03*
X58318000Y-44201000D03*
%TD*%
D19*
%TO.C,FAN2*%
X55778000Y-29341000D03*
D20*
X50698000Y-31501000D03*
D21*
X53238000Y-31501000D03*
X55778000Y-31501000D03*
X58318000Y-31501000D03*
%TD*%
D19*
%TO.C,FAN1*%
X55778000Y-16641000D03*
D20*
X50698000Y-18801000D03*
D21*
X53238000Y-18801000D03*
X55778000Y-18801000D03*
X58318000Y-18801000D03*
%TD*%
D14*
%TO.C,FAN4PWR1*%
X52212000Y-63759000D03*
D15*
X54752000Y-63759000D03*
X57292000Y-63759000D03*
%TD*%
D14*
%TO.C,FAN3PWR1*%
X52212000Y-51143700D03*
D15*
X54752000Y-51143700D03*
X57292000Y-51143700D03*
%TD*%
D14*
%TO.C,FAN2PWR1*%
X52212000Y-38528300D03*
D15*
X54752000Y-38528300D03*
X57292000Y-38528300D03*
%TD*%
%TO.C,FAN1PWR1*%
X57292000Y-25913000D03*
X54752000Y-25913000D03*
D14*
X52212000Y-25913000D03*
%TD*%
D22*
%TO.C,U1*%
X17154000Y-48174500D03*
D23*
X17154000Y-50724500D03*
X17154000Y-53274500D03*
%TD*%
D11*
%TO.C,24VIN1*%
X19751000Y-23886000D03*
D12*
X19751000Y-28966000D03*
%TD*%
D24*
X47821200Y-44213409D03*
X47244000Y-46482000D03*
X38608000Y-50748400D03*
X38100000Y-56896000D03*
X36322000Y-61214000D03*
X23622000Y-54864000D03*
X22860000Y-45212000D03*
X26998900Y-22606000D03*
X49881800Y-59890300D03*
X50755900Y-47812500D03*
X50464800Y-38062200D03*
X25772900Y-44061500D03*
X32189000Y-37634100D03*
X29885100Y-40808700D03*
X49969100Y-21840300D03*
X30864200Y-29098600D03*
X50544300Y-26073700D03*
X60123400Y-33964600D03*
X46670800Y-61424700D03*
X59270200Y-59698700D03*
X21478000Y-48249700D03*
M02*
