%TF.GenerationSoftware,KiCad,Pcbnew,(6.0.5-0)*%
%TF.CreationDate,2022-08-11T13:14:41+02:00*%
%TF.ProjectId,tiny-fan,74696e79-2d66-4616-9e2e-6b696361645f,rev?*%
%TF.SameCoordinates,Original*%
%TF.FileFunction,Copper,L2,Bot*%
%TF.FilePolarity,Positive*%
%FSLAX46Y46*%
G04 Gerber Fmt 4.6, Leading zero omitted, Abs format (unit mm)*
G04 Created by KiCad (PCBNEW (6.0.5-0)) date 2022-08-11 13:14:41*
%MOMM*%
%LPD*%
G01*
G04 APERTURE LIST*
G04 Aperture macros list*
%AMRoundRect*
0 Rectangle with rounded corners*
0 $1 Rounding radius*
0 $2 $3 $4 $5 $6 $7 $8 $9 X,Y pos of 4 corners*
0 Add a 4 corners polygon primitive as box body*
4,1,4,$2,$3,$4,$5,$6,$7,$8,$9,$2,$3,0*
0 Add four circle primitives for the rounded corners*
1,1,$1+$1,$2,$3*
1,1,$1+$1,$4,$5*
1,1,$1+$1,$6,$7*
1,1,$1+$1,$8,$9*
0 Add four rect primitives between the rounded corners*
20,1,$1+$1,$2,$3,$4,$5,0*
20,1,$1+$1,$4,$5,$6,$7,0*
20,1,$1+$1,$6,$7,$8,$9,0*
20,1,$1+$1,$8,$9,$2,$3,0*%
G04 Aperture macros list end*
%TA.AperFunction,ComponentPad*%
%ADD10C,1.752600*%
%TD*%
%TA.AperFunction,ComponentPad*%
%ADD11C,2.600000*%
%TD*%
%TA.AperFunction,ComponentPad*%
%ADD12R,2.600000X2.600000*%
%TD*%
%TA.AperFunction,ComponentPad*%
%ADD13C,5.700000*%
%TD*%
%TA.AperFunction,ComponentPad*%
%ADD14R,1.700000X1.700000*%
%TD*%
%TA.AperFunction,ComponentPad*%
%ADD15O,1.700000X1.700000*%
%TD*%
%TA.AperFunction,SMDPad,CuDef*%
%ADD16RoundRect,0.250000X0.312500X0.625000X-0.312500X0.625000X-0.312500X-0.625000X0.312500X-0.625000X0*%
%TD*%
%TA.AperFunction,SMDPad,CuDef*%
%ADD17RoundRect,0.250000X0.625000X-0.312500X0.625000X0.312500X-0.625000X0.312500X-0.625000X-0.312500X0*%
%TD*%
%TA.AperFunction,SMDPad,CuDef*%
%ADD18RoundRect,0.250000X-0.625000X0.312500X-0.625000X-0.312500X0.625000X-0.312500X0.625000X0.312500X0*%
%TD*%
%TA.AperFunction,SMDPad,CuDef*%
%ADD19RoundRect,0.150000X0.587500X0.150000X-0.587500X0.150000X-0.587500X-0.150000X0.587500X-0.150000X0*%
%TD*%
%TA.AperFunction,ComponentPad*%
%ADD20RoundRect,0.250000X-0.600000X-0.725000X0.600000X-0.725000X0.600000X0.725000X-0.600000X0.725000X0*%
%TD*%
%TA.AperFunction,ComponentPad*%
%ADD21O,1.700000X1.950000*%
%TD*%
%TA.AperFunction,SMDPad,CuDef*%
%ADD22RoundRect,0.250000X0.650000X-0.325000X0.650000X0.325000X-0.650000X0.325000X-0.650000X-0.325000X0*%
%TD*%
%TA.AperFunction,SMDPad,CuDef*%
%ADD23RoundRect,0.250000X-0.650000X0.325000X-0.650000X-0.325000X0.650000X-0.325000X0.650000X0.325000X0*%
%TD*%
%TA.AperFunction,ComponentPad*%
%ADD24R,1.730000X2.030000*%
%TD*%
%TA.AperFunction,ComponentPad*%
%ADD25O,1.730000X2.030000*%
%TD*%
%TA.AperFunction,ComponentPad*%
%ADD26R,1.910000X1.910000*%
%TD*%
%TA.AperFunction,ComponentPad*%
%ADD27C,1.910000*%
%TD*%
%TA.AperFunction,SMDPad,CuDef*%
%ADD28RoundRect,0.150000X-0.587500X-0.150000X0.587500X-0.150000X0.587500X0.150000X-0.587500X0.150000X0*%
%TD*%
%TA.AperFunction,ViaPad*%
%ADD29C,0.800000*%
%TD*%
%TA.AperFunction,Conductor*%
%ADD30C,0.500000*%
%TD*%
%TA.AperFunction,Conductor*%
%ADD31C,0.250000*%
%TD*%
G04 APERTURE END LIST*
D10*
%TO.P,U2,19,DIO*%
%TO.N,AUX2RPM*%
X39587000Y-35768581D03*
%TO.P,U2,18,GND*%
%TO.N,GND*%
X37047000Y-35768581D03*
%TO.P,U2,17,CLK*%
%TO.N,AUX1RPM*%
X34507000Y-35768581D03*
%TO.P,U2,16,GP0*%
%TO.N,FAN1PWM*%
X44667000Y-18098581D03*
%TO.P,U2,15,GP1*%
%TO.N,FAN2PWM*%
X44667000Y-20638581D03*
%TO.P,U2,14,GP2*%
%TO.N,FAN3PWM*%
X44667000Y-23178581D03*
%TO.P,U2,13,GP3*%
%TO.N,FAN4PWM*%
X44667000Y-25718581D03*
%TO.P,U2,12,GP4*%
%TO.N,AUX1PWM*%
X44667000Y-28258581D03*
%TO.P,U2,11,GP5*%
%TO.N,AUX2PWM*%
X44667000Y-30798581D03*
%TO.P,U2,10,GP6*%
%TO.N,AUX3PWM*%
X44667000Y-33338581D03*
%TO.P,U2,9,GP7*%
%TO.N,AUX3RPM*%
X44667000Y-35878581D03*
%TO.P,U2,8,GND*%
%TO.N,GND*%
X29427000Y-35878581D03*
%TO.P,U2,7,GP26*%
%TO.N,FAN1RPM*%
X29427000Y-33338581D03*
%TO.P,U2,6,GP27*%
%TO.N,FAN2RPM*%
X29427000Y-30798581D03*
%TO.P,U2,5,GP28*%
%TO.N,FAN3RPM*%
X29427000Y-28258581D03*
%TO.P,U2,4,GP29*%
%TO.N,FAN4RPM*%
X29427000Y-25718581D03*
%TO.P,U2,3,3V3*%
%TO.N,+3V3*%
X29427000Y-23178581D03*
%TO.P,U2,2,GND*%
%TO.N,GND*%
X29427000Y-20638581D03*
%TO.P,U2,1,VBUS*%
%TO.N,+5VA*%
X29427000Y-18098581D03*
%TD*%
D11*
%TO.P,5VIN1,2,Pin_2*%
%TO.N,GND*%
X19751000Y-35062000D03*
D12*
%TO.P,5VIN1,1,Pin_1*%
%TO.N,+5V*%
X19751000Y-40142000D03*
%TD*%
D13*
%TO.P,REF4,1*%
%TO.N,GND*%
X66436000Y-52583000D03*
%TD*%
%TO.P,REF3,1*%
%TO.N,GND*%
X66436000Y-26675000D03*
%TD*%
%TO.P,REF2,1*%
%TO.N,GND*%
X17668000Y-61727000D03*
%TD*%
%TO.P,REF1,1*%
%TO.N,GND*%
X17668000Y-17531000D03*
%TD*%
D14*
%TO.P,AUX3PWR1,1,Pin_1*%
%TO.N,+5V*%
X27574000Y-63251000D03*
D15*
%TO.P,AUX3PWR1,2,Pin_2*%
%TO.N,AUX3PWR*%
X27574000Y-60711000D03*
%TO.P,AUX3PWR1,3,Pin_3*%
%TO.N,+12V*%
X30114000Y-63251000D03*
%TO.P,AUX3PWR1,4,Pin_4*%
%TO.N,AUX3PWR*%
X30114000Y-60711000D03*
%TO.P,AUX3PWR1,5,Pin_5*%
%TO.N,+24V*%
X32654000Y-63251000D03*
%TO.P,AUX3PWR1,6,Pin_6*%
%TO.N,AUX3PWR*%
X32654000Y-60711000D03*
%TD*%
D14*
%TO.P,AUX2PWR1,1,Pin_1*%
%TO.N,+5V*%
X27574000Y-55148500D03*
D15*
%TO.P,AUX2PWR1,2,Pin_2*%
%TO.N,AUX2PWR*%
X27574000Y-52608500D03*
%TO.P,AUX2PWR1,3,Pin_3*%
%TO.N,+12V*%
X30114000Y-55148500D03*
%TO.P,AUX2PWR1,4,Pin_4*%
%TO.N,AUX2PWR*%
X30114000Y-52608500D03*
%TO.P,AUX2PWR1,5,Pin_5*%
%TO.N,+24V*%
X32654000Y-55148500D03*
%TO.P,AUX2PWR1,6,Pin_6*%
%TO.N,AUX2PWR*%
X32654000Y-52608500D03*
%TD*%
D14*
%TO.P,AUX1PWR1,1,Pin_1*%
%TO.N,+5V*%
X27574000Y-47046000D03*
D15*
%TO.P,AUX1PWR1,2,Pin_2*%
%TO.N,AUX1PWR*%
X27574000Y-44506000D03*
%TO.P,AUX1PWR1,3,Pin_3*%
%TO.N,+12V*%
X30114000Y-47046000D03*
%TO.P,AUX1PWR1,4,Pin_4*%
%TO.N,AUX1PWR*%
X30114000Y-44506000D03*
%TO.P,AUX1PWR1,5,Pin_5*%
%TO.N,+24V*%
X32654000Y-47046000D03*
%TO.P,AUX1PWR1,6,Pin_6*%
%TO.N,AUX1PWR*%
X32654000Y-44506000D03*
%TD*%
D16*
%TO.P,R14,1*%
%TO.N,+5VA*%
X42225500Y-24384000D03*
%TO.P,R14,2*%
%TO.N,Net-(AUX3-Pad4)*%
X39300500Y-24384000D03*
%TD*%
D17*
%TO.P,R13,1*%
%TO.N,+5VA*%
X36322000Y-41086500D03*
%TO.P,R13,2*%
%TO.N,Net-(AUX2-Pad4)*%
X36322000Y-38161500D03*
%TD*%
%TO.P,R12,1*%
%TO.N,+5VA*%
X27178000Y-41086500D03*
%TO.P,R12,2*%
%TO.N,Net-(AUX1-Pad4)*%
X27178000Y-38161500D03*
%TD*%
D16*
%TO.P,R11,2*%
%TO.N,+3V3*%
X39239000Y-30988000D03*
%TO.P,R11,1*%
%TO.N,AUX3PWM*%
X42164000Y-30988000D03*
%TD*%
D18*
%TO.P,R10,1*%
%TO.N,AUX2PWM*%
X42926000Y-38161500D03*
%TO.P,R10,2*%
%TO.N,+3V3*%
X42926000Y-41086500D03*
%TD*%
D17*
%TO.P,R9,1*%
%TO.N,AUX1PWM*%
X33782000Y-41086500D03*
%TO.P,R9,2*%
%TO.N,+3V3*%
X33782000Y-38161500D03*
%TD*%
D19*
%TO.P,Q7,1,G*%
%TO.N,+3V3*%
X41639000Y-26736000D03*
%TO.P,Q7,2,S*%
%TO.N,AUX3PWM*%
X41639000Y-28636000D03*
%TO.P,Q7,3,D*%
%TO.N,Net-(AUX3-Pad4)*%
X39764000Y-27686000D03*
%TD*%
%TO.P,Q6,1,G*%
%TO.N,+3V3*%
X40483000Y-38674000D03*
%TO.P,Q6,2,S*%
%TO.N,AUX2PWM*%
X40483000Y-40574000D03*
%TO.P,Q6,3,D*%
%TO.N,Net-(AUX2-Pad4)*%
X38608000Y-39624000D03*
%TD*%
%TO.P,Q5,1,G*%
%TO.N,+3V3*%
X31339000Y-38674000D03*
%TO.P,Q5,2,S*%
%TO.N,AUX1PWM*%
X31339000Y-40574000D03*
%TO.P,Q5,3,D*%
%TO.N,Net-(AUX1-Pad4)*%
X29464000Y-39624000D03*
%TD*%
D20*
%TO.P,AUX3,1,Pin_1*%
%TO.N,GND*%
X37652000Y-61151000D03*
D21*
%TO.P,AUX3,2,Pin_2*%
%TO.N,AUX3PWR*%
X40152000Y-61151000D03*
%TO.P,AUX3,3,Pin_3*%
%TO.N,AUX3RPM*%
X42652000Y-61151000D03*
%TO.P,AUX3,4,Pin_4*%
%TO.N,Net-(AUX3-Pad4)*%
X45152000Y-61151000D03*
%TD*%
%TO.P,AUX2,4,Pin_4*%
%TO.N,Net-(AUX2-Pad4)*%
X45152000Y-53048500D03*
%TO.P,AUX2,3,Pin_3*%
%TO.N,AUX2RPM*%
X42652000Y-53048500D03*
%TO.P,AUX2,2,Pin_2*%
%TO.N,AUX2PWR*%
X40152000Y-53048500D03*
D20*
%TO.P,AUX2,1,Pin_1*%
%TO.N,GND*%
X37652000Y-53048500D03*
%TD*%
D21*
%TO.P,AUX1,4,Pin_4*%
%TO.N,Net-(AUX1-Pad4)*%
X45152000Y-44946000D03*
%TO.P,AUX1,3,Pin_3*%
%TO.N,AUX1RPM*%
X42652000Y-44946000D03*
%TO.P,AUX1,2,Pin_2*%
%TO.N,AUX1PWR*%
X40152000Y-44946000D03*
D20*
%TO.P,AUX1,1,Pin_1*%
%TO.N,GND*%
X37652000Y-44946000D03*
%TD*%
D22*
%TO.P,C2,1*%
%TO.N,+12V*%
X21478000Y-54771000D03*
%TO.P,C2,2*%
%TO.N,GND*%
X21478000Y-51821000D03*
%TD*%
D23*
%TO.P,C1,2*%
%TO.N,GND*%
X21478000Y-49437000D03*
%TO.P,C1,1*%
%TO.N,+24V*%
X21478000Y-46487000D03*
%TD*%
D24*
%TO.P,FAN4,1,Pin_1*%
%TO.N,GND*%
X50688000Y-56901000D03*
D25*
%TO.P,FAN4,2,Pin_2*%
%TO.N,FAN4PWR*%
X53228000Y-56901000D03*
%TO.P,FAN4,3,Pin_3*%
%TO.N,FAN4RPM*%
X55768000Y-56901000D03*
%TO.P,FAN4,4,Pin_4*%
%TO.N,Net-(FAN4-Pad4)*%
X58308000Y-56901000D03*
%TD*%
D24*
%TO.P,FAN3,1,Pin_1*%
%TO.N,GND*%
X50698000Y-44201000D03*
D25*
%TO.P,FAN3,2,Pin_2*%
%TO.N,FAN3PWR*%
X53238000Y-44201000D03*
%TO.P,FAN3,3,Pin_3*%
%TO.N,FAN3RPM*%
X55778000Y-44201000D03*
%TO.P,FAN3,4,Pin_4*%
%TO.N,Net-(FAN3-Pad4)*%
X58318000Y-44201000D03*
%TD*%
D24*
%TO.P,FAN2,1,Pin_1*%
%TO.N,GND*%
X50698000Y-31501000D03*
D25*
%TO.P,FAN2,2,Pin_2*%
%TO.N,FAN2PWR*%
X53238000Y-31501000D03*
%TO.P,FAN2,3,Pin_3*%
%TO.N,FAN2RPM*%
X55778000Y-31501000D03*
%TO.P,FAN2,4,Pin_4*%
%TO.N,Net-(FAN2-Pad4)*%
X58318000Y-31501000D03*
%TD*%
D24*
%TO.P,FAN1,1,Pin_1*%
%TO.N,GND*%
X50698000Y-18801000D03*
D25*
%TO.P,FAN1,2,Pin_2*%
%TO.N,FAN1PWR*%
X53238000Y-18801000D03*
%TO.P,FAN1,3,Pin_3*%
%TO.N,FAN1RPM*%
X55778000Y-18801000D03*
%TO.P,FAN1,4,Pin_4*%
%TO.N,Net-(FAN1-Pad4)*%
X58318000Y-18801000D03*
%TD*%
D14*
%TO.P,FAN4PWR1,1,Pin_1*%
%TO.N,+12V*%
X52212000Y-63759000D03*
D15*
%TO.P,FAN4PWR1,2,Pin_2*%
%TO.N,FAN4PWR*%
X54752000Y-63759000D03*
%TO.P,FAN4PWR1,3,Pin_3*%
%TO.N,+24V*%
X57292000Y-63759000D03*
%TD*%
D14*
%TO.P,FAN3PWR1,1,Pin_1*%
%TO.N,+12V*%
X52212000Y-51143700D03*
D15*
%TO.P,FAN3PWR1,2,Pin_2*%
%TO.N,FAN3PWR*%
X54752000Y-51143700D03*
%TO.P,FAN3PWR1,3,Pin_3*%
%TO.N,+24V*%
X57292000Y-51143700D03*
%TD*%
D14*
%TO.P,FAN2PWR1,1,Pin_1*%
%TO.N,+12V*%
X52212000Y-38528300D03*
D15*
%TO.P,FAN2PWR1,2,Pin_2*%
%TO.N,FAN2PWR*%
X54752000Y-38528300D03*
%TO.P,FAN2PWR1,3,Pin_3*%
%TO.N,+24V*%
X57292000Y-38528300D03*
%TD*%
%TO.P,FAN1PWR1,3,Pin_3*%
%TO.N,+24V*%
X57292000Y-25913000D03*
%TO.P,FAN1PWR1,2,Pin_2*%
%TO.N,FAN1PWR*%
X54752000Y-25913000D03*
D14*
%TO.P,FAN1PWR1,1,Pin_1*%
%TO.N,+12V*%
X52212000Y-25913000D03*
%TD*%
D26*
%TO.P,U1,1,IN*%
%TO.N,+24V*%
X17154000Y-48174500D03*
D27*
%TO.P,U1,2,GND*%
%TO.N,GND*%
X17154000Y-50724500D03*
%TO.P,U1,3,OUT*%
%TO.N,+12V*%
X17154000Y-53274500D03*
%TD*%
D28*
%TO.P,Q4,1,G*%
%TO.N,+3V3*%
X45940500Y-64963000D03*
%TO.P,Q4,2,S*%
%TO.N,FAN4PWM*%
X45940500Y-63063000D03*
%TO.P,Q4,3,D*%
%TO.N,Net-(FAN4-Pad4)*%
X47815500Y-64013000D03*
%TD*%
%TO.P,Q3,1,G*%
%TO.N,+3V3*%
X47464500Y-53025000D03*
%TO.P,Q3,2,S*%
%TO.N,FAN3PWM*%
X47464500Y-51125000D03*
%TO.P,Q3,3,D*%
%TO.N,Net-(FAN3-Pad4)*%
X49339500Y-52075000D03*
%TD*%
%TO.P,Q2,1,G*%
%TO.N,+3V3*%
X47464500Y-40325000D03*
%TO.P,Q2,2,S*%
%TO.N,FAN2PWM*%
X47464500Y-38425000D03*
%TO.P,Q2,3,D*%
%TO.N,Net-(FAN2-Pad4)*%
X49339500Y-39375000D03*
%TD*%
%TO.P,Q1,1,G*%
%TO.N,+3V3*%
X47464500Y-27625000D03*
%TO.P,Q1,2,S*%
%TO.N,FAN1PWM*%
X47464500Y-25725000D03*
%TO.P,Q1,3,D*%
%TO.N,Net-(FAN1-Pad4)*%
X49339500Y-26675000D03*
%TD*%
D16*
%TO.P,R8,2*%
%TO.N,Net-(FAN4-Pad4)*%
X49733500Y-61727000D03*
%TO.P,R8,1*%
%TO.N,+5VA*%
X52658500Y-61727000D03*
%TD*%
%TO.P,R7,1*%
%TO.N,+5VA*%
X52658500Y-49027000D03*
%TO.P,R7,2*%
%TO.N,Net-(FAN3-Pad4)*%
X49733500Y-49027000D03*
%TD*%
%TO.P,R6,1*%
%TO.N,+5VA*%
X52658500Y-36327000D03*
%TO.P,R6,2*%
%TO.N,Net-(FAN2-Pad4)*%
X49733500Y-36327000D03*
%TD*%
%TO.P,R5,1*%
%TO.N,FAN4PWM*%
X59262500Y-61727000D03*
%TO.P,R5,2*%
%TO.N,+3V3*%
X56337500Y-61727000D03*
%TD*%
%TO.P,R4,1*%
%TO.N,FAN3PWM*%
X59262500Y-49027000D03*
%TO.P,R4,2*%
%TO.N,+3V3*%
X56337500Y-49027000D03*
%TD*%
%TO.P,R3,1*%
%TO.N,+5VA*%
X52658500Y-23627000D03*
%TO.P,R3,2*%
%TO.N,Net-(FAN1-Pad4)*%
X49733500Y-23627000D03*
%TD*%
%TO.P,R2,1*%
%TO.N,FAN1PWM*%
X59262500Y-23627000D03*
%TO.P,R2,2*%
%TO.N,+3V3*%
X56337500Y-23627000D03*
%TD*%
%TO.P,R1,1*%
%TO.N,FAN2PWM*%
X59262500Y-36327000D03*
%TO.P,R1,2*%
%TO.N,+3V3*%
X56337500Y-36327000D03*
%TD*%
D11*
%TO.P,24VIN1,2,Pin_2*%
%TO.N,GND*%
X19751000Y-23886000D03*
D12*
%TO.P,24VIN1,1,Pin_1*%
%TO.N,+24V*%
X19751000Y-28966000D03*
%TD*%
D29*
%TO.N,GND*%
X47821200Y-44213409D03*
X47244000Y-46482000D03*
X38608000Y-50748400D03*
X38100000Y-56896000D03*
X36322000Y-61214000D03*
X23622000Y-54864000D03*
X22860000Y-45212000D03*
X26998900Y-22606000D03*
%TO.N,Net-(FAN4-Pad4)*%
X49881800Y-59890300D03*
%TO.N,Net-(FAN3-Pad4)*%
X50755900Y-47812500D03*
%TO.N,Net-(FAN2-Pad4)*%
X50464800Y-38062200D03*
%TO.N,Net-(AUX3-Pad4)*%
X25772900Y-44061500D03*
X32189000Y-37634100D03*
%TO.N,Net-(AUX1-Pad4)*%
X29885100Y-40808700D03*
%TO.N,+5VA*%
X49969100Y-21840300D03*
%TO.N,AUX1PWM*%
X30864200Y-29098600D03*
%TO.N,FAN2PWM*%
X50544300Y-26073700D03*
X60123400Y-33964600D03*
%TO.N,FAN4PWM*%
X46670800Y-61424700D03*
X59270200Y-59698700D03*
%TO.N,GND*%
X21478000Y-48249700D03*
%TD*%
D30*
%TO.N,GND*%
X47244000Y-44790609D02*
X47821200Y-44213409D01*
X47244000Y-46482000D02*
X47244000Y-44790609D01*
X38608000Y-50748400D02*
X38608000Y-45902000D01*
X38608000Y-45902000D02*
X37652000Y-44946000D01*
X36322000Y-61214000D02*
X36322000Y-58674000D01*
X36322000Y-58674000D02*
X38100000Y-56896000D01*
X21478000Y-52720000D02*
X23622000Y-54864000D01*
X21478000Y-51821000D02*
X21478000Y-52720000D01*
X17154000Y-50724500D02*
X20381500Y-50724500D01*
X20381500Y-50724500D02*
X21478000Y-51821000D01*
X22860000Y-45212000D02*
X22860000Y-48055000D01*
X22860000Y-48055000D02*
X21478000Y-49437000D01*
X19751000Y-23886000D02*
X17018000Y-26619000D01*
X17018000Y-32329000D02*
X19751000Y-35062000D01*
X17018000Y-26619000D02*
X17018000Y-32329000D01*
X27459581Y-22606000D02*
X29427000Y-20638581D01*
X26998900Y-22606000D02*
X27459581Y-22606000D01*
D31*
%TO.N,Net-(FAN4-Pad4)*%
X49733500Y-62095000D02*
X49733500Y-61727000D01*
X47815500Y-64013000D02*
X49733500Y-62095000D01*
X49733500Y-60038600D02*
X49881800Y-59890300D01*
X49733500Y-61727000D02*
X49733500Y-60038600D01*
%TO.N,Net-(FAN3-Pad4)*%
X49733500Y-51681000D02*
X49733500Y-49027000D01*
X49339500Y-52075000D02*
X49733500Y-51681000D01*
X49733500Y-48834900D02*
X49733500Y-49027000D01*
X50755900Y-47812500D02*
X49733500Y-48834900D01*
%TO.N,Net-(FAN2-Pad4)*%
X49733500Y-37330900D02*
X50464800Y-38062200D01*
X49733500Y-36327000D02*
X49733500Y-37330900D01*
X50464800Y-38249700D02*
X50464800Y-38062200D01*
X49339500Y-39375000D02*
X50464800Y-38249700D01*
%TO.N,Net-(FAN1-Pad4)*%
X49733500Y-26281000D02*
X49733500Y-23627000D01*
X49339500Y-26675000D02*
X49733500Y-26281000D01*
X49196000Y-23089500D02*
X49733500Y-23627000D01*
X49196000Y-21522800D02*
X49196000Y-23089500D01*
X49732300Y-20986500D02*
X49196000Y-21522800D01*
X50866600Y-20986500D02*
X49732300Y-20986500D01*
X51888400Y-19964700D02*
X50866600Y-20986500D01*
X51888400Y-18307500D02*
X51888400Y-19964700D01*
X54478900Y-15717000D02*
X51888400Y-18307500D01*
X56129800Y-15717000D02*
X54478900Y-15717000D01*
X58318000Y-17905200D02*
X56129800Y-15717000D01*
X58318000Y-18801000D02*
X58318000Y-17905200D01*
%TO.N,Net-(AUX3-Pad4)*%
X39300500Y-27222500D02*
X39764000Y-27686000D01*
X39300500Y-24384000D02*
X39300500Y-27222500D01*
X32189000Y-35261000D02*
X39764000Y-27686000D01*
X32189000Y-37634100D02*
X32189000Y-35261000D01*
X25772900Y-44377000D02*
X25772900Y-44061500D01*
X27266500Y-45870600D02*
X25772900Y-44377000D01*
X28577000Y-45870600D02*
X27266500Y-45870600D01*
X28938600Y-46232200D02*
X28577000Y-45870600D01*
X28938600Y-49106500D02*
X28938600Y-46232200D01*
X31478600Y-51646500D02*
X28938600Y-49106500D01*
X31478600Y-53201500D02*
X31478600Y-51646500D01*
X32155600Y-53878500D02*
X31478600Y-53201500D01*
X33284200Y-53878500D02*
X32155600Y-53878500D01*
X35387000Y-55981300D02*
X33284200Y-53878500D01*
X39321200Y-55981300D02*
X35387000Y-55981300D01*
X43976700Y-60636800D02*
X39321200Y-55981300D01*
X43976700Y-61151000D02*
X43976700Y-60636800D01*
X45152000Y-61151000D02*
X43976700Y-61151000D01*
%TO.N,Net-(AUX2-Pad4)*%
X37145500Y-38161500D02*
X36322000Y-38161500D01*
X38608000Y-39624000D02*
X37145500Y-38161500D01*
X38608000Y-40763900D02*
X38608000Y-39624000D01*
X40628000Y-42783900D02*
X38608000Y-40763900D01*
X42318400Y-42783900D02*
X40628000Y-42783900D01*
X43976700Y-44442200D02*
X42318400Y-42783900D01*
X43976700Y-53048500D02*
X43976700Y-44442200D01*
X45152000Y-53048500D02*
X43976700Y-53048500D01*
%TO.N,Net-(AUX1-Pad4)*%
X28640500Y-39624000D02*
X27178000Y-38161500D01*
X29464000Y-39624000D02*
X28640500Y-39624000D01*
X29885100Y-40045100D02*
X29464000Y-39624000D01*
X29885100Y-40808700D02*
X29885100Y-40045100D01*
%TO.N,+5VA*%
X51986500Y-35655000D02*
X52658500Y-36327000D01*
X51986500Y-29360400D02*
X51986500Y-35655000D01*
X53387400Y-27959500D02*
X51986500Y-29360400D01*
X53387400Y-24355900D02*
X53387400Y-27959500D01*
X52658500Y-23627000D02*
X53387400Y-24355900D01*
X35433100Y-41975400D02*
X36322000Y-41086500D01*
X28066900Y-41975400D02*
X35433100Y-41975400D01*
X27178000Y-41086500D02*
X28066900Y-41975400D01*
X35940100Y-18098600D02*
X29427000Y-18098600D01*
X42225500Y-24384000D02*
X35940100Y-18098600D01*
X25969100Y-39877600D02*
X27178000Y-41086500D01*
X25969100Y-21556500D02*
X25969100Y-39877600D01*
X29427000Y-18098600D02*
X25969100Y-21556500D01*
X53387400Y-37055900D02*
X52658500Y-36327000D01*
X53387400Y-39523000D02*
X53387400Y-37055900D01*
X51984700Y-40925700D02*
X53387400Y-39523000D01*
X51984700Y-47025000D02*
X51984700Y-40925700D01*
X52658500Y-47698800D02*
X51984700Y-47025000D01*
X52658500Y-49027000D02*
X52658500Y-47698800D01*
X53387400Y-49755900D02*
X52658500Y-49027000D01*
X53387400Y-53939800D02*
X53387400Y-49755900D01*
X52030000Y-55297200D02*
X53387400Y-53939800D01*
X52030000Y-58979200D02*
X52030000Y-55297200D01*
X52658500Y-59607700D02*
X52030000Y-58979200D01*
X52658500Y-61727000D02*
X52658500Y-59607700D01*
X50871800Y-21840300D02*
X49969100Y-21840300D01*
X52658500Y-23627000D02*
X50871800Y-21840300D01*
%TO.N,AUX3PWM*%
X42164000Y-29161000D02*
X42164000Y-30988000D01*
X41639000Y-28636000D02*
X42164000Y-29161000D01*
X42316400Y-30988000D02*
X44667000Y-33338600D01*
X42164000Y-30988000D02*
X42316400Y-30988000D01*
%TO.N,AUX2PWM*%
X40513500Y-40574000D02*
X42926000Y-38161500D01*
X40483000Y-40574000D02*
X40513500Y-40574000D01*
X42926000Y-35833200D02*
X42926000Y-38161500D01*
X44150600Y-34608600D02*
X42926000Y-35833200D01*
X45169500Y-34608600D02*
X44150600Y-34608600D01*
X45919300Y-33858800D02*
X45169500Y-34608600D01*
X45919300Y-32050900D02*
X45919300Y-33858800D01*
X44667000Y-30798600D02*
X45919300Y-32050900D01*
%TO.N,AUX1PWM*%
X33269500Y-40574000D02*
X31339000Y-40574000D01*
X33782000Y-41086500D02*
X33269500Y-40574000D01*
X30864100Y-29098600D02*
X30864200Y-29098600D01*
X30864100Y-36141000D02*
X30864100Y-29098600D01*
X30270800Y-36734300D02*
X30864100Y-36141000D01*
X30270800Y-39018300D02*
X30270800Y-36734300D01*
X31339000Y-40086500D02*
X30270800Y-39018300D01*
X31339000Y-40574000D02*
X31339000Y-40086500D01*
%TO.N,AUX2RPM*%
X38131300Y-37224300D02*
X39587000Y-35768600D01*
X35505400Y-37224300D02*
X38131300Y-37224300D01*
X35117100Y-37612600D02*
X35505400Y-37224300D01*
X35117100Y-38709000D02*
X35117100Y-37612600D01*
X36167900Y-39759800D02*
X35117100Y-38709000D01*
X36809900Y-39759800D02*
X36167900Y-39759800D01*
X41476700Y-44426600D02*
X36809900Y-39759800D01*
X41476700Y-53048500D02*
X41476700Y-44426600D01*
X42652000Y-53048500D02*
X41476700Y-53048500D01*
D30*
%TO.N,AUX2PWR*%
X34964900Y-51597900D02*
X33954300Y-52608500D01*
X38701400Y-51597900D02*
X34964900Y-51597900D01*
X40152000Y-53048500D02*
X38701400Y-51597900D01*
X32654000Y-52608500D02*
X33954300Y-52608500D01*
%TO.N,FAN4PWR*%
X54752000Y-58425000D02*
X53228000Y-56901000D01*
X54752000Y-63759000D02*
X54752000Y-58425000D01*
%TO.N,FAN3PWR*%
X54752000Y-45715000D02*
X53238000Y-44201000D01*
X54752000Y-51143700D02*
X54752000Y-45715000D01*
%TO.N,FAN2PWR*%
X54752000Y-33015000D02*
X53238000Y-31501000D01*
X54752000Y-38528300D02*
X54752000Y-33015000D01*
%TO.N,FAN1PWR*%
X54752000Y-20315000D02*
X53238000Y-18801000D01*
X54752000Y-25913000D02*
X54752000Y-20315000D01*
%TO.N,+12V*%
X52212000Y-25913000D02*
X52212000Y-27213300D01*
X49365900Y-30059400D02*
X52212000Y-27213300D01*
X49365900Y-32720800D02*
X49365900Y-30059400D01*
X51315100Y-34670000D02*
X49365900Y-32720800D01*
X51315100Y-38528300D02*
X51315100Y-34670000D01*
X52212000Y-38528300D02*
X51315100Y-38528300D01*
X30114000Y-55148500D02*
X30114000Y-56448800D01*
X19981500Y-53274500D02*
X21478000Y-54771000D01*
X17154000Y-53274500D02*
X19981500Y-53274500D01*
X26553700Y-59846600D02*
X21478000Y-54771000D01*
X29951500Y-56448800D02*
X26553700Y-59846600D01*
X30114000Y-56448800D02*
X29951500Y-56448800D01*
X28813600Y-64551400D02*
X30114000Y-63251000D01*
X26520500Y-64551400D02*
X28813600Y-64551400D01*
X26273600Y-64304500D02*
X26520500Y-64551400D01*
X26273600Y-60126700D02*
X26273600Y-64304500D01*
X26553700Y-59846600D02*
X26273600Y-60126700D01*
X51315100Y-40239900D02*
X51315100Y-38528300D01*
X49365900Y-42189100D02*
X51315100Y-40239900D01*
X49365900Y-45420800D02*
X49365900Y-42189100D01*
X49870000Y-45924900D02*
X49365900Y-45420800D01*
X50070900Y-45924900D02*
X49870000Y-45924900D01*
X51606200Y-47460200D02*
X50070900Y-45924900D01*
X51606200Y-51143700D02*
X51606200Y-47460200D01*
X52212000Y-51143700D02*
X51606200Y-51143700D01*
X51506400Y-63053400D02*
X52212000Y-63759000D01*
X51506400Y-60261300D02*
X51506400Y-63053400D01*
X49365900Y-58120800D02*
X51506400Y-60261300D01*
X49365900Y-54338200D02*
X49365900Y-58120800D01*
X51606200Y-52097900D02*
X49365900Y-54338200D01*
X51606200Y-51143700D02*
X51606200Y-52097900D01*
%TO.N,+24V*%
X57292000Y-25913000D02*
X57292000Y-27213300D01*
X19751000Y-28966000D02*
X19751000Y-30716300D01*
X33186200Y-43193000D02*
X21501300Y-43193000D01*
X33971800Y-43978600D02*
X33186200Y-43193000D01*
X33971800Y-45728200D02*
X33971800Y-43978600D01*
X32654000Y-47046000D02*
X33971800Y-45728200D01*
X21501300Y-32466600D02*
X19751000Y-30716300D01*
X21501300Y-43193000D02*
X21501300Y-32466600D01*
X33962900Y-61942100D02*
X32654000Y-63251000D01*
X33962900Y-57757700D02*
X33962900Y-61942100D01*
X32654000Y-56448800D02*
X33962900Y-57757700D01*
X32654000Y-55148500D02*
X32654000Y-56448800D01*
X17154000Y-48174500D02*
X18559300Y-48174500D01*
X21478000Y-43216300D02*
X21501300Y-43193000D01*
X21478000Y-46487000D02*
X21478000Y-43216300D01*
X20246800Y-46487000D02*
X21478000Y-46487000D01*
X18559300Y-48174500D02*
X20246800Y-46487000D01*
X57655100Y-38165200D02*
X57292000Y-38528300D01*
X58158600Y-38165200D02*
X57655100Y-38165200D01*
X58158600Y-33701300D02*
X58158600Y-38165200D01*
X59664400Y-32195500D02*
X58158600Y-33701300D01*
X59664400Y-29585700D02*
X59664400Y-32195500D01*
X57292000Y-27213300D02*
X59664400Y-29585700D01*
X57800000Y-50635700D02*
X57292000Y-51143700D01*
X57800000Y-48378200D02*
X57800000Y-50635700D01*
X59648200Y-46530000D02*
X57800000Y-48378200D01*
X59648200Y-39654800D02*
X59648200Y-46530000D01*
X58158600Y-38165200D02*
X59648200Y-39654800D01*
X59636400Y-54788400D02*
X57292000Y-52444000D01*
X59636400Y-58124000D02*
X59636400Y-54788400D01*
X57808800Y-59951600D02*
X59636400Y-58124000D01*
X57808800Y-63242200D02*
X57808800Y-59951600D01*
X57292000Y-63759000D02*
X57808800Y-63242200D01*
X57292000Y-51143700D02*
X57292000Y-52444000D01*
D31*
%TO.N,FAN1PWM*%
X46615900Y-20047500D02*
X47088700Y-20047500D01*
X44667000Y-18098600D02*
X46615900Y-20047500D01*
X47464500Y-20423300D02*
X47088700Y-20047500D01*
X47464500Y-25725000D02*
X47464500Y-20423300D01*
X59508400Y-23381100D02*
X59262500Y-23627000D01*
X59508400Y-18127900D02*
X59508400Y-23381100D01*
X56601800Y-15221300D02*
X59508400Y-18127900D01*
X51914900Y-15221300D02*
X56601800Y-15221300D01*
X47088700Y-20047500D02*
X51914900Y-15221300D01*
%TO.N,FAN2PWM*%
X50544300Y-27772800D02*
X50544300Y-26073700D01*
X47464500Y-30852600D02*
X50544300Y-27772800D01*
X47464500Y-38425000D02*
X47464500Y-30852600D01*
X59262500Y-34825500D02*
X59262500Y-36327000D01*
X60123400Y-33964600D02*
X59262500Y-34825500D01*
%TO.N,FAN3PWM*%
X48545700Y-50043800D02*
X47464500Y-51125000D01*
X48545700Y-39993700D02*
X48545700Y-50043800D01*
X47813500Y-39261500D02*
X48545700Y-39993700D01*
X46865000Y-39261500D02*
X47813500Y-39261500D01*
X46401000Y-38797500D02*
X46865000Y-39261500D01*
X46401000Y-31050500D02*
X46401000Y-38797500D01*
X48566800Y-28884700D02*
X46401000Y-31050500D01*
X48566800Y-27314800D02*
X48566800Y-28884700D01*
X47619500Y-26367500D02*
X48566800Y-27314800D01*
X46659600Y-26367500D02*
X47619500Y-26367500D01*
X46005300Y-25713200D02*
X46659600Y-26367500D01*
X46005300Y-24516900D02*
X46005300Y-25713200D01*
X44667000Y-23178600D02*
X46005300Y-24516900D01*
X43412300Y-21923900D02*
X44667000Y-23178600D01*
X43412300Y-17595600D02*
X43412300Y-21923900D01*
X46236900Y-14771000D02*
X43412300Y-17595600D01*
X56788400Y-14771000D02*
X46236900Y-14771000D01*
X60848700Y-18831300D02*
X56788400Y-14771000D01*
X60848700Y-47440800D02*
X60848700Y-18831300D01*
X59262500Y-49027000D02*
X60848700Y-47440800D01*
%TO.N,FAN4PWM*%
X46670800Y-62332700D02*
X46670800Y-61424700D01*
X45940500Y-63063000D02*
X46670800Y-62332700D01*
X59262500Y-59706400D02*
X59270200Y-59698700D01*
X59262500Y-61727000D02*
X59262500Y-59706400D01*
X44667000Y-24878000D02*
X44667000Y-25718600D01*
X42948600Y-23159600D02*
X44667000Y-24878000D01*
X42948600Y-17349300D02*
X42948600Y-23159600D01*
X45977200Y-14320700D02*
X42948600Y-17349300D01*
X56975000Y-14320700D02*
X45977200Y-14320700D01*
X61299000Y-18644700D02*
X56975000Y-14320700D01*
X61299000Y-57669900D02*
X61299000Y-18644700D01*
X59270200Y-59698700D02*
X61299000Y-57669900D01*
%TO.N,+3V3*%
X57048000Y-35616500D02*
X56337500Y-36327000D01*
X57048000Y-29134900D02*
X57048000Y-35616500D01*
X56108200Y-28195100D02*
X57048000Y-29134900D01*
X56108200Y-23856300D02*
X56108200Y-28195100D01*
X56337500Y-23627000D02*
X56108200Y-23856300D01*
X33269500Y-38674000D02*
X33782000Y-38161500D01*
X31339000Y-38674000D02*
X33269500Y-38674000D01*
X35777000Y-34450000D02*
X39239000Y-30988000D01*
X35777000Y-36242700D02*
X35777000Y-34450000D01*
X33858200Y-38161500D02*
X35777000Y-36242700D01*
X33782000Y-38161500D02*
X33858200Y-38161500D01*
X45940500Y-64963000D02*
X46224500Y-64679000D01*
X40483000Y-39161500D02*
X40483000Y-38674000D01*
X39393600Y-40250900D02*
X40483000Y-39161500D01*
X39393600Y-40910700D02*
X39393600Y-40250900D01*
X39721700Y-41238800D02*
X39393600Y-40910700D01*
X42773700Y-41238800D02*
X39721700Y-41238800D01*
X42926000Y-41086500D02*
X42773700Y-41238800D01*
X31589500Y-25341100D02*
X29427000Y-23178600D01*
X31589500Y-29399100D02*
X31589500Y-25341100D01*
X31339000Y-29649600D02*
X31589500Y-29399100D01*
X31339000Y-38674000D02*
X31339000Y-29649600D01*
X56100900Y-36563600D02*
X56337500Y-36327000D01*
X56100900Y-40177600D02*
X56100900Y-36563600D01*
X57048000Y-41124700D02*
X56100900Y-40177600D01*
X57048000Y-48316500D02*
X57048000Y-41124700D01*
X56337500Y-49027000D02*
X57048000Y-48316500D01*
X43687500Y-40325000D02*
X42926000Y-41086500D01*
X47464500Y-40325000D02*
X43687500Y-40325000D01*
X47464500Y-62949600D02*
X47464500Y-53025000D01*
X46224500Y-64189600D02*
X47464500Y-62949600D01*
X46224500Y-64679000D02*
X46224500Y-64189600D01*
X46398500Y-41391000D02*
X47464500Y-40325000D01*
X46398500Y-51959000D02*
X46398500Y-41391000D01*
X47464500Y-53025000D02*
X46398500Y-51959000D01*
X46886800Y-27047300D02*
X41739500Y-27047300D01*
X47464500Y-27625000D02*
X46886800Y-27047300D01*
X41739500Y-26836500D02*
X41639000Y-26736000D01*
X41739500Y-27047300D02*
X41739500Y-26836500D01*
X40019900Y-30988000D02*
X39239000Y-30988000D01*
X40879000Y-31847100D02*
X40019900Y-30988000D01*
X40879000Y-38278000D02*
X40879000Y-31847100D01*
X40483000Y-38674000D02*
X40879000Y-38278000D01*
X41739500Y-27123000D02*
X41739500Y-27047300D01*
X40019900Y-28842600D02*
X41739500Y-27123000D01*
X40019900Y-30988000D02*
X40019900Y-28842600D01*
X56022000Y-62042500D02*
X56337500Y-61727000D01*
X56022000Y-64211400D02*
X56022000Y-62042500D01*
X55292300Y-64941100D02*
X56022000Y-64211400D01*
X46486600Y-64941100D02*
X55292300Y-64941100D01*
X46224500Y-64679000D02*
X46486600Y-64941100D01*
X56100900Y-49263600D02*
X56337500Y-49027000D01*
X56100900Y-52836500D02*
X56100900Y-49263600D01*
X57038000Y-53773600D02*
X56100900Y-52836500D01*
X57038000Y-61026500D02*
X57038000Y-53773600D01*
X56337500Y-61727000D02*
X57038000Y-61026500D01*
D30*
%TO.N,+5V*%
X26273700Y-49646600D02*
X27574000Y-48346300D01*
X26273700Y-53848200D02*
X26273700Y-49646600D01*
X27574000Y-55148500D02*
X26273700Y-53848200D01*
X27574000Y-47046000D02*
X27574000Y-48346300D01*
%TO.N,GND*%
X21478000Y-51821000D02*
X21478000Y-49437000D01*
X21478000Y-48249700D02*
X21478000Y-49437000D01*
%TD*%
%TA.AperFunction,Conductor*%
%TO.N,GND*%
G36*
X34097915Y-55594370D02*
G01*
X34124434Y-55614638D01*
X34883343Y-56373547D01*
X34890887Y-56381837D01*
X34895000Y-56388318D01*
X34900777Y-56393743D01*
X34944667Y-56434958D01*
X34947509Y-56437713D01*
X34967230Y-56457434D01*
X34970425Y-56459912D01*
X34979447Y-56467618D01*
X35011679Y-56497886D01*
X35018628Y-56501706D01*
X35029432Y-56507646D01*
X35045956Y-56518499D01*
X35061959Y-56530913D01*
X35102543Y-56548476D01*
X35113173Y-56553683D01*
X35151940Y-56574995D01*
X35159617Y-56576966D01*
X35159622Y-56576968D01*
X35171558Y-56580032D01*
X35190266Y-56586437D01*
X35208855Y-56594481D01*
X35216683Y-56595721D01*
X35216690Y-56595723D01*
X35252524Y-56601399D01*
X35264144Y-56603805D01*
X35299289Y-56612828D01*
X35306970Y-56614800D01*
X35327224Y-56614800D01*
X35346934Y-56616351D01*
X35366943Y-56619520D01*
X35374835Y-56618774D01*
X35410961Y-56615359D01*
X35422819Y-56614800D01*
X39006606Y-56614800D01*
X39074727Y-56634802D01*
X39095701Y-56651705D01*
X42058586Y-59614590D01*
X42092612Y-59676902D01*
X42087547Y-59747717D01*
X42045000Y-59804553D01*
X42034856Y-59811404D01*
X41853248Y-59921606D01*
X41853243Y-59921610D01*
X41848683Y-59924377D01*
X41844653Y-59927874D01*
X41680572Y-60070256D01*
X41674555Y-60075477D01*
X41665512Y-60086506D01*
X41531760Y-60249627D01*
X41531756Y-60249633D01*
X41528376Y-60253755D01*
X41510448Y-60285250D01*
X41459368Y-60334555D01*
X41389738Y-60348417D01*
X41323667Y-60322434D01*
X41296427Y-60293284D01*
X41267035Y-60249627D01*
X41214559Y-60171681D01*
X41182354Y-60137921D01*
X41126725Y-60079608D01*
X41055424Y-60004865D01*
X40870458Y-59867246D01*
X40865707Y-59864830D01*
X40865703Y-59864828D01*
X40743731Y-59802815D01*
X40664949Y-59762760D01*
X40659855Y-59761178D01*
X40659852Y-59761177D01*
X40449871Y-59695976D01*
X40444773Y-59694393D01*
X40423964Y-59691635D01*
X40221511Y-59664802D01*
X40221506Y-59664802D01*
X40216226Y-59664102D01*
X40210897Y-59664302D01*
X40210895Y-59664302D01*
X40112368Y-59668001D01*
X39985842Y-59672751D01*
X39980623Y-59673846D01*
X39976996Y-59674607D01*
X39760209Y-59720093D01*
X39755250Y-59722051D01*
X39755248Y-59722052D01*
X39550744Y-59802815D01*
X39550742Y-59802816D01*
X39545779Y-59804776D01*
X39541220Y-59807543D01*
X39541217Y-59807544D01*
X39423005Y-59879277D01*
X39348683Y-59924377D01*
X39344653Y-59927874D01*
X39180572Y-60070256D01*
X39174555Y-60075477D01*
X39165512Y-60086506D01*
X39144994Y-60111529D01*
X39086334Y-60151524D01*
X39015364Y-60153455D01*
X38954616Y-60116710D01*
X38940416Y-60097941D01*
X38853937Y-59958193D01*
X38844901Y-59946792D01*
X38730171Y-59832261D01*
X38718760Y-59823249D01*
X38580757Y-59738184D01*
X38567576Y-59732037D01*
X38413290Y-59680862D01*
X38399914Y-59677995D01*
X38305562Y-59668328D01*
X38299145Y-59668000D01*
X37924115Y-59668000D01*
X37908876Y-59672475D01*
X37907671Y-59673865D01*
X37906000Y-59681548D01*
X37906000Y-62615884D01*
X37910475Y-62631123D01*
X37911865Y-62632328D01*
X37919548Y-62633999D01*
X38299095Y-62633999D01*
X38305614Y-62633662D01*
X38401206Y-62623743D01*
X38414600Y-62620851D01*
X38568784Y-62569412D01*
X38581962Y-62563239D01*
X38719807Y-62477937D01*
X38731208Y-62468901D01*
X38845739Y-62354171D01*
X38854753Y-62342757D01*
X38940723Y-62203287D01*
X38993495Y-62155793D01*
X39063566Y-62144369D01*
X39128690Y-62172643D01*
X39139149Y-62182426D01*
X39248576Y-62297135D01*
X39433542Y-62434754D01*
X39438293Y-62437170D01*
X39438297Y-62437172D01*
X39469067Y-62452816D01*
X39639051Y-62539240D01*
X39644145Y-62540822D01*
X39644148Y-62540823D01*
X39782637Y-62583825D01*
X39859227Y-62607607D01*
X39864516Y-62608308D01*
X40082489Y-62637198D01*
X40082494Y-62637198D01*
X40087774Y-62637898D01*
X40093103Y-62637698D01*
X40093105Y-62637698D01*
X40202966Y-62633574D01*
X40318158Y-62629249D01*
X40323468Y-62628135D01*
X40538572Y-62583002D01*
X40543791Y-62581907D01*
X40548750Y-62579949D01*
X40548752Y-62579948D01*
X40753256Y-62499185D01*
X40753258Y-62499184D01*
X40758221Y-62497224D01*
X40794300Y-62475331D01*
X40950757Y-62380390D01*
X40950756Y-62380390D01*
X40955317Y-62377623D01*
X41036944Y-62306791D01*
X41125412Y-62230023D01*
X41125414Y-62230021D01*
X41129445Y-62226523D01*
X41187440Y-62155793D01*
X41272240Y-62052373D01*
X41272244Y-62052367D01*
X41275624Y-62048245D01*
X41293552Y-62016750D01*
X41344632Y-61967445D01*
X41414262Y-61953583D01*
X41480333Y-61979566D01*
X41507573Y-62008716D01*
X41589441Y-62130319D01*
X41593120Y-62134176D01*
X41593122Y-62134178D01*
X41639839Y-62183150D01*
X41748576Y-62297135D01*
X41933542Y-62434754D01*
X41938293Y-62437170D01*
X41938297Y-62437172D01*
X41969067Y-62452816D01*
X42139051Y-62539240D01*
X42144145Y-62540822D01*
X42144148Y-62540823D01*
X42282637Y-62583825D01*
X42359227Y-62607607D01*
X42364516Y-62608308D01*
X42582489Y-62637198D01*
X42582494Y-62637198D01*
X42587774Y-62637898D01*
X42593103Y-62637698D01*
X42593105Y-62637698D01*
X42702966Y-62633574D01*
X42818158Y-62629249D01*
X42823468Y-62628135D01*
X43038572Y-62583002D01*
X43043791Y-62581907D01*
X43048750Y-62579949D01*
X43048752Y-62579948D01*
X43253256Y-62499185D01*
X43253258Y-62499184D01*
X43258221Y-62497224D01*
X43294300Y-62475331D01*
X43450757Y-62380390D01*
X43450756Y-62380390D01*
X43455317Y-62377623D01*
X43536944Y-62306791D01*
X43625412Y-62230023D01*
X43625414Y-62230021D01*
X43629445Y-62226523D01*
X43687440Y-62155793D01*
X43772240Y-62052373D01*
X43772244Y-62052367D01*
X43775624Y-62048245D01*
X43793552Y-62016750D01*
X43844632Y-61967445D01*
X43914262Y-61953583D01*
X43980333Y-61979566D01*
X44007573Y-62008716D01*
X44089441Y-62130319D01*
X44093120Y-62134176D01*
X44093122Y-62134178D01*
X44139839Y-62183150D01*
X44248576Y-62297135D01*
X44433542Y-62434754D01*
X44438293Y-62437170D01*
X44438297Y-62437172D01*
X44469067Y-62452816D01*
X44639051Y-62539240D01*
X44646180Y-62541454D01*
X44646400Y-62541522D01*
X44647231Y-62542074D01*
X44649087Y-62542828D01*
X44648933Y-62543206D01*
X44705522Y-62580829D01*
X44734008Y-62645860D01*
X44730024Y-62697004D01*
X44703146Y-62789521D01*
X44697438Y-62809169D01*
X44696934Y-62815574D01*
X44696933Y-62815579D01*
X44694693Y-62844042D01*
X44694500Y-62846498D01*
X44694500Y-63279502D01*
X44694693Y-63281950D01*
X44694693Y-63281958D01*
X44696264Y-63301909D01*
X44697438Y-63316831D01*
X44743855Y-63476601D01*
X44747892Y-63483427D01*
X44824509Y-63612980D01*
X44824511Y-63612983D01*
X44828547Y-63619807D01*
X44946193Y-63737453D01*
X44953017Y-63741489D01*
X44953020Y-63741491D01*
X45046032Y-63796498D01*
X45089399Y-63822145D01*
X45097010Y-63824356D01*
X45097012Y-63824357D01*
X45149231Y-63839528D01*
X45249169Y-63868562D01*
X45255574Y-63869066D01*
X45255579Y-63869067D01*
X45284042Y-63871307D01*
X45284050Y-63871307D01*
X45286498Y-63871500D01*
X45485958Y-63871500D01*
X45554079Y-63891502D01*
X45600572Y-63945158D01*
X45610407Y-64017211D01*
X45605497Y-64048211D01*
X45575084Y-64112364D01*
X45514816Y-64149891D01*
X45481048Y-64154500D01*
X45286498Y-64154500D01*
X45284050Y-64154693D01*
X45284042Y-64154693D01*
X45255579Y-64156933D01*
X45255574Y-64156934D01*
X45249169Y-64157438D01*
X45166002Y-64181600D01*
X45097012Y-64201643D01*
X45097010Y-64201644D01*
X45089399Y-64203855D01*
X45082572Y-64207892D01*
X45082573Y-64207892D01*
X44953020Y-64284509D01*
X44953017Y-64284511D01*
X44946193Y-64288547D01*
X44828547Y-64406193D01*
X44824511Y-64413017D01*
X44824509Y-64413020D01*
X44783608Y-64482181D01*
X44743855Y-64549399D01*
X44741644Y-64557010D01*
X44741643Y-64557012D01*
X44734127Y-64582883D01*
X44697438Y-64709169D01*
X44694500Y-64746498D01*
X44694500Y-65156500D01*
X44674498Y-65224621D01*
X44620842Y-65271114D01*
X44568500Y-65282500D01*
X29459371Y-65282500D01*
X29391250Y-65262498D01*
X29344757Y-65208842D01*
X29334653Y-65138568D01*
X29364147Y-65073988D01*
X29370276Y-65067405D01*
X29805441Y-64632240D01*
X29867753Y-64598214D01*
X29919657Y-64597865D01*
X29952597Y-64604567D01*
X29957772Y-64604757D01*
X29957774Y-64604757D01*
X30170673Y-64612564D01*
X30170677Y-64612564D01*
X30175837Y-64612753D01*
X30180957Y-64612097D01*
X30180959Y-64612097D01*
X30392288Y-64585025D01*
X30392289Y-64585025D01*
X30397416Y-64584368D01*
X30402366Y-64582883D01*
X30606429Y-64521661D01*
X30606434Y-64521659D01*
X30611384Y-64520174D01*
X30811994Y-64421896D01*
X30993860Y-64292173D01*
X31001412Y-64284648D01*
X31127265Y-64159233D01*
X31152096Y-64134489D01*
X31188122Y-64084354D01*
X31282453Y-63953077D01*
X31283776Y-63954028D01*
X31330645Y-63910857D01*
X31400580Y-63898625D01*
X31466026Y-63926144D01*
X31493875Y-63957994D01*
X31553987Y-64056088D01*
X31700250Y-64224938D01*
X31791652Y-64300821D01*
X31853824Y-64352437D01*
X31872126Y-64367632D01*
X32065000Y-64480338D01*
X32273692Y-64560030D01*
X32278760Y-64561061D01*
X32278763Y-64561062D01*
X32386017Y-64582883D01*
X32492597Y-64604567D01*
X32497772Y-64604757D01*
X32497774Y-64604757D01*
X32710673Y-64612564D01*
X32710677Y-64612564D01*
X32715837Y-64612753D01*
X32720957Y-64612097D01*
X32720959Y-64612097D01*
X32932288Y-64585025D01*
X32932289Y-64585025D01*
X32937416Y-64584368D01*
X32942366Y-64582883D01*
X33146429Y-64521661D01*
X33146434Y-64521659D01*
X33151384Y-64520174D01*
X33351994Y-64421896D01*
X33533860Y-64292173D01*
X33541412Y-64284648D01*
X33667265Y-64159233D01*
X33692096Y-64134489D01*
X33728122Y-64084354D01*
X33818920Y-63957994D01*
X33822453Y-63953077D01*
X33843320Y-63910857D01*
X33919136Y-63757453D01*
X33919137Y-63757451D01*
X33921430Y-63752811D01*
X33986370Y-63539069D01*
X34015529Y-63317590D01*
X34015611Y-63314240D01*
X34017074Y-63254365D01*
X34017074Y-63254361D01*
X34017156Y-63251000D01*
X34004462Y-63096604D01*
X34939787Y-63096604D01*
X34949567Y-63307899D01*
X34950971Y-63313724D01*
X34950971Y-63313725D01*
X34981643Y-63440993D01*
X34999125Y-63513534D01*
X35001607Y-63518992D01*
X35001608Y-63518996D01*
X35044341Y-63612980D01*
X35086674Y-63706087D01*
X35209054Y-63878611D01*
X35361850Y-64024881D01*
X35539548Y-64139620D01*
X35545114Y-64141863D01*
X35730168Y-64216442D01*
X35730171Y-64216443D01*
X35735737Y-64218686D01*
X35943337Y-64259228D01*
X35948899Y-64259500D01*
X36104846Y-64259500D01*
X36262566Y-64244452D01*
X36465534Y-64184908D01*
X36515385Y-64159233D01*
X36648249Y-64090804D01*
X36648252Y-64090802D01*
X36653580Y-64088058D01*
X36819920Y-63957396D01*
X36823852Y-63952865D01*
X36823855Y-63952862D01*
X36954621Y-63802167D01*
X36958552Y-63797637D01*
X36961552Y-63792451D01*
X36961555Y-63792447D01*
X37061467Y-63619742D01*
X37064473Y-63614546D01*
X37133861Y-63414729D01*
X37136673Y-63395337D01*
X37163352Y-63211336D01*
X37163352Y-63211333D01*
X37164213Y-63205396D01*
X37154433Y-62994101D01*
X37105129Y-62789520D01*
X37108614Y-62718610D01*
X37149883Y-62660840D01*
X37215834Y-62634553D01*
X37227622Y-62634000D01*
X37379885Y-62634000D01*
X37395124Y-62629525D01*
X37396329Y-62628135D01*
X37398000Y-62620452D01*
X37398000Y-61423115D01*
X37393525Y-61407876D01*
X37392135Y-61406671D01*
X37384452Y-61405000D01*
X36312116Y-61405000D01*
X36296877Y-61409475D01*
X36295672Y-61410865D01*
X36294001Y-61418548D01*
X36294001Y-61917066D01*
X36273999Y-61985187D01*
X36220343Y-62031680D01*
X36160754Y-62040910D01*
X36160663Y-62042772D01*
X36156643Y-62042575D01*
X36156626Y-62042575D01*
X36155101Y-62042500D01*
X35999154Y-62042500D01*
X35841434Y-62057548D01*
X35638466Y-62117092D01*
X35633139Y-62119836D01*
X35633138Y-62119836D01*
X35455751Y-62211196D01*
X35455748Y-62211198D01*
X35450420Y-62213942D01*
X35284080Y-62344604D01*
X35280148Y-62349135D01*
X35280145Y-62349138D01*
X35203753Y-62437172D01*
X35145448Y-62504363D01*
X35142448Y-62509549D01*
X35142445Y-62509553D01*
X35070451Y-62634000D01*
X35039527Y-62687454D01*
X34970139Y-62887271D01*
X34969278Y-62893206D01*
X34969278Y-62893208D01*
X34940798Y-63089633D01*
X34939787Y-63096604D01*
X34004462Y-63096604D01*
X33999870Y-63040747D01*
X34014223Y-62971219D01*
X34036351Y-62941330D01*
X34451811Y-62525870D01*
X34466223Y-62513484D01*
X34477818Y-62504951D01*
X34477823Y-62504946D01*
X34483718Y-62500608D01*
X34488457Y-62495030D01*
X34488460Y-62495027D01*
X34517935Y-62460332D01*
X34524865Y-62452816D01*
X34530560Y-62447121D01*
X34540344Y-62434754D01*
X34548181Y-62424849D01*
X34550972Y-62421445D01*
X34593491Y-62371397D01*
X34593492Y-62371395D01*
X34598233Y-62365815D01*
X34601561Y-62359299D01*
X34604928Y-62354250D01*
X34608095Y-62349121D01*
X34612634Y-62343384D01*
X34643555Y-62277225D01*
X34645461Y-62273325D01*
X34655303Y-62254051D01*
X34678669Y-62208292D01*
X34680408Y-62201184D01*
X34682507Y-62195541D01*
X34684424Y-62189778D01*
X34687522Y-62183150D01*
X34689708Y-62172643D01*
X34701613Y-62115406D01*
X34702387Y-62111683D01*
X34703357Y-62107399D01*
X34705407Y-62099022D01*
X34720708Y-62036490D01*
X34721400Y-62025336D01*
X34721436Y-62025338D01*
X34721675Y-62021345D01*
X34722049Y-62017153D01*
X34723540Y-62009985D01*
X34721446Y-61932579D01*
X34721400Y-61929172D01*
X34721400Y-60878885D01*
X36294000Y-60878885D01*
X36298475Y-60894124D01*
X36299865Y-60895329D01*
X36307548Y-60897000D01*
X37379885Y-60897000D01*
X37395124Y-60892525D01*
X37396329Y-60891135D01*
X37398000Y-60883452D01*
X37398000Y-59686116D01*
X37393525Y-59670877D01*
X37392135Y-59669672D01*
X37384452Y-59668001D01*
X37004905Y-59668001D01*
X36998386Y-59668338D01*
X36902794Y-59678257D01*
X36889400Y-59681149D01*
X36735216Y-59732588D01*
X36722038Y-59738761D01*
X36584193Y-59824063D01*
X36572792Y-59833099D01*
X36458261Y-59947829D01*
X36449249Y-59959240D01*
X36364184Y-60097243D01*
X36358037Y-60110424D01*
X36306862Y-60264710D01*
X36303995Y-60278086D01*
X36294328Y-60372438D01*
X36294000Y-60378855D01*
X36294000Y-60878885D01*
X34721400Y-60878885D01*
X34721400Y-57824769D01*
X34722833Y-57805818D01*
X34724999Y-57791583D01*
X34724999Y-57791581D01*
X34726099Y-57784351D01*
X34721815Y-57731682D01*
X34721400Y-57721467D01*
X34721400Y-57713407D01*
X34718111Y-57685193D01*
X34717678Y-57680818D01*
X34712354Y-57615361D01*
X34712353Y-57615358D01*
X34711760Y-57608063D01*
X34709504Y-57601099D01*
X34708313Y-57595140D01*
X34706929Y-57589285D01*
X34706082Y-57582019D01*
X34681165Y-57513373D01*
X34679748Y-57509245D01*
X34659507Y-57446764D01*
X34659506Y-57446762D01*
X34657251Y-57439801D01*
X34653455Y-57433546D01*
X34650949Y-57428072D01*
X34648230Y-57422642D01*
X34645733Y-57415763D01*
X34624183Y-57382894D01*
X34605714Y-57354724D01*
X34603367Y-57351005D01*
X34565495Y-57288593D01*
X34558097Y-57280216D01*
X34558124Y-57280192D01*
X34555471Y-57277200D01*
X34552768Y-57273967D01*
X34548756Y-57267848D01*
X34492517Y-57214572D01*
X34490075Y-57212194D01*
X33589901Y-56312020D01*
X33555875Y-56249708D01*
X33560940Y-56178893D01*
X33590056Y-56133674D01*
X33688435Y-56035637D01*
X33692096Y-56031989D01*
X33757071Y-55941567D01*
X33819435Y-55854777D01*
X33822453Y-55850577D01*
X33825458Y-55844498D01*
X33921430Y-55650311D01*
X33923055Y-55651114D01*
X33961854Y-55601381D01*
X34028855Y-55577900D01*
X34097915Y-55594370D01*
G37*
%TD.AperFunction*%
%TA.AperFunction,Conductor*%
G36*
X15833305Y-14503502D02*
G01*
X15879798Y-14557158D01*
X15889902Y-14627432D01*
X15860408Y-14692012D01*
X15829891Y-14717616D01*
X15790397Y-14741253D01*
X15784744Y-14745066D01*
X15500094Y-14960346D01*
X15494891Y-14964742D01*
X15490601Y-14968785D01*
X15482580Y-14982492D01*
X15482615Y-14983333D01*
X15487667Y-14991457D01*
X17655188Y-17158978D01*
X17669132Y-17166592D01*
X17670965Y-17166461D01*
X17677580Y-17162210D01*
X19846166Y-14993624D01*
X19853780Y-14979680D01*
X19853712Y-14978723D01*
X19848771Y-14971251D01*
X19844870Y-14967931D01*
X19560958Y-14751649D01*
X19555333Y-14747825D01*
X19504879Y-14717390D01*
X19456881Y-14665076D01*
X19444786Y-14595118D01*
X19472433Y-14529725D01*
X19531044Y-14489661D01*
X19569962Y-14483500D01*
X44614305Y-14483500D01*
X44682426Y-14503502D01*
X44728919Y-14557158D01*
X44739023Y-14627432D01*
X44709529Y-14692012D01*
X44703400Y-14698595D01*
X42556347Y-16845648D01*
X42548061Y-16853188D01*
X42541582Y-16857300D01*
X42536157Y-16863077D01*
X42494957Y-16906951D01*
X42492202Y-16909793D01*
X42472465Y-16929530D01*
X42469985Y-16932727D01*
X42462282Y-16941747D01*
X42432014Y-16973979D01*
X42428195Y-16980925D01*
X42428193Y-16980928D01*
X42422252Y-16991734D01*
X42411401Y-17008253D01*
X42398986Y-17024259D01*
X42395841Y-17031528D01*
X42395838Y-17031532D01*
X42381426Y-17064837D01*
X42376209Y-17075487D01*
X42354905Y-17114240D01*
X42352934Y-17121915D01*
X42352934Y-17121916D01*
X42349867Y-17133862D01*
X42343463Y-17152566D01*
X42335419Y-17171155D01*
X42334180Y-17178978D01*
X42334177Y-17178988D01*
X42328501Y-17214824D01*
X42326095Y-17226444D01*
X42315100Y-17269270D01*
X42315100Y-17289524D01*
X42313549Y-17309234D01*
X42310380Y-17329243D01*
X42311126Y-17337135D01*
X42314541Y-17373261D01*
X42315100Y-17385119D01*
X42315100Y-22874500D01*
X42295098Y-22942621D01*
X42241442Y-22989114D01*
X42189100Y-23000500D01*
X41862600Y-23000500D01*
X41859356Y-23000837D01*
X41859348Y-23000837D01*
X41809300Y-23006030D01*
X41739479Y-22993165D01*
X41707202Y-22969798D01*
X39093231Y-20355826D01*
X36443752Y-17706347D01*
X36436212Y-17698061D01*
X36432100Y-17691582D01*
X36382448Y-17644956D01*
X36379607Y-17642202D01*
X36359870Y-17622465D01*
X36356673Y-17619985D01*
X36347651Y-17612280D01*
X36321200Y-17587441D01*
X36315421Y-17582014D01*
X36308475Y-17578195D01*
X36308472Y-17578193D01*
X36297666Y-17572252D01*
X36281147Y-17561401D01*
X36274538Y-17556275D01*
X36265141Y-17548986D01*
X36257872Y-17545841D01*
X36257868Y-17545838D01*
X36224563Y-17531426D01*
X36213913Y-17526209D01*
X36175160Y-17504905D01*
X36155537Y-17499867D01*
X36136834Y-17493463D01*
X36125520Y-17488567D01*
X36125519Y-17488567D01*
X36118245Y-17485419D01*
X36110422Y-17484180D01*
X36110412Y-17484177D01*
X36074576Y-17478501D01*
X36062956Y-17476095D01*
X36027811Y-17467072D01*
X36027810Y-17467072D01*
X36020130Y-17465100D01*
X35999876Y-17465100D01*
X35980165Y-17463549D01*
X35967986Y-17461620D01*
X35960157Y-17460380D01*
X35952265Y-17461126D01*
X35916139Y-17464541D01*
X35904281Y-17465100D01*
X30735143Y-17465100D01*
X30667022Y-17445098D01*
X30629351Y-17407540D01*
X30607532Y-17373812D01*
X30583804Y-17337135D01*
X30530731Y-17255096D01*
X30530729Y-17255093D01*
X30527923Y-17250756D01*
X30374668Y-17082331D01*
X30195963Y-16941199D01*
X29996607Y-16831148D01*
X29875532Y-16788273D01*
X29786829Y-16756861D01*
X29786825Y-16756860D01*
X29781954Y-16755135D01*
X29776861Y-16754228D01*
X29776858Y-16754227D01*
X29562857Y-16716108D01*
X29562851Y-16716107D01*
X29557768Y-16715202D01*
X29470698Y-16714138D01*
X29335239Y-16712483D01*
X29335237Y-16712483D01*
X29330070Y-16712420D01*
X29104976Y-16746864D01*
X28888529Y-16817610D01*
X28883937Y-16820000D01*
X28883938Y-16820000D01*
X28699995Y-16915755D01*
X28686544Y-16922757D01*
X28682411Y-16925860D01*
X28682408Y-16925862D01*
X28539006Y-17033531D01*
X28504444Y-17059481D01*
X28500872Y-17063219D01*
X28390241Y-17178988D01*
X28347120Y-17224111D01*
X28344206Y-17228383D01*
X28344205Y-17228384D01*
X28280745Y-17321414D01*
X28218797Y-17412226D01*
X28122921Y-17618773D01*
X28121539Y-17623755D01*
X28121539Y-17623756D01*
X28115359Y-17646042D01*
X28062067Y-17838206D01*
X28037869Y-18064631D01*
X28038166Y-18069783D01*
X28038166Y-18069787D01*
X28041364Y-18125247D01*
X28050977Y-18291968D01*
X28052112Y-18297005D01*
X28052113Y-18297011D01*
X28088454Y-18458268D01*
X28083918Y-18529119D01*
X28054632Y-18575063D01*
X25576847Y-21052848D01*
X25568561Y-21060388D01*
X25562082Y-21064500D01*
X25556657Y-21070277D01*
X25515457Y-21114151D01*
X25512702Y-21116993D01*
X25492965Y-21136730D01*
X25490485Y-21139927D01*
X25482782Y-21148947D01*
X25452514Y-21181179D01*
X25448695Y-21188125D01*
X25448693Y-21188128D01*
X25442752Y-21198934D01*
X25431901Y-21215453D01*
X25419486Y-21231459D01*
X25416341Y-21238728D01*
X25416338Y-21238732D01*
X25401926Y-21272037D01*
X25396709Y-21282687D01*
X25375405Y-21321440D01*
X25373434Y-21329115D01*
X25373434Y-21329116D01*
X25370367Y-21341062D01*
X25363963Y-21359766D01*
X25355919Y-21378355D01*
X25354680Y-21386178D01*
X25354677Y-21386188D01*
X25349001Y-21422024D01*
X25346595Y-21433644D01*
X25339052Y-21463024D01*
X25335600Y-21476470D01*
X25335600Y-21496724D01*
X25334049Y-21516434D01*
X25330880Y-21536443D01*
X25331626Y-21544335D01*
X25335041Y-21580461D01*
X25335600Y-21592319D01*
X25335600Y-39798833D01*
X25335073Y-39810016D01*
X25333398Y-39817509D01*
X25333647Y-39825435D01*
X25333647Y-39825436D01*
X25335538Y-39885586D01*
X25335600Y-39889545D01*
X25335600Y-39917456D01*
X25336097Y-39921390D01*
X25336097Y-39921391D01*
X25336105Y-39921456D01*
X25337038Y-39933293D01*
X25338000Y-39963905D01*
X25338160Y-39968981D01*
X25338427Y-39977489D01*
X25342169Y-39990368D01*
X25344078Y-39996939D01*
X25348087Y-40016300D01*
X25349250Y-40025502D01*
X25350626Y-40036397D01*
X25353545Y-40043768D01*
X25353545Y-40043770D01*
X25366904Y-40077512D01*
X25370749Y-40088742D01*
X25380871Y-40123583D01*
X25383082Y-40131193D01*
X25387115Y-40138012D01*
X25387117Y-40138017D01*
X25393393Y-40148628D01*
X25402088Y-40166376D01*
X25409548Y-40185217D01*
X25414210Y-40191633D01*
X25414210Y-40191634D01*
X25435536Y-40220987D01*
X25442052Y-40230907D01*
X25457640Y-40257264D01*
X25464558Y-40268962D01*
X25478879Y-40283283D01*
X25491719Y-40298316D01*
X25503628Y-40314707D01*
X25509734Y-40319758D01*
X25537705Y-40342898D01*
X25546484Y-40350888D01*
X25763735Y-40568139D01*
X25797761Y-40630451D01*
X25799984Y-40670077D01*
X25794500Y-40723600D01*
X25794500Y-41449400D01*
X25794837Y-41452646D01*
X25794837Y-41452650D01*
X25804091Y-41541834D01*
X25805474Y-41555166D01*
X25861450Y-41722946D01*
X25954522Y-41873348D01*
X26079697Y-41998305D01*
X26085927Y-42002145D01*
X26085928Y-42002146D01*
X26223090Y-42086694D01*
X26230262Y-42091115D01*
X26297736Y-42113495D01*
X26391611Y-42144632D01*
X26391613Y-42144632D01*
X26398139Y-42146797D01*
X26404975Y-42147497D01*
X26404978Y-42147498D01*
X26448031Y-42151909D01*
X26502600Y-42157500D01*
X27300906Y-42157500D01*
X27369027Y-42177502D01*
X27390001Y-42194405D01*
X27415001Y-42219405D01*
X27449027Y-42281717D01*
X27443962Y-42352532D01*
X27401415Y-42409368D01*
X27334895Y-42434179D01*
X27325906Y-42434500D01*
X22385800Y-42434500D01*
X22317679Y-42414498D01*
X22271186Y-42360842D01*
X22259800Y-42308500D01*
X22259800Y-32533670D01*
X22261233Y-32514720D01*
X22263399Y-32500485D01*
X22263399Y-32500481D01*
X22264499Y-32493251D01*
X22262477Y-32468384D01*
X22260215Y-32440582D01*
X22259800Y-32430367D01*
X22259800Y-32422307D01*
X22257915Y-32406142D01*
X22256511Y-32394093D01*
X22256078Y-32389718D01*
X22250754Y-32324261D01*
X22250753Y-32324258D01*
X22250160Y-32316963D01*
X22247904Y-32309999D01*
X22246713Y-32304040D01*
X22245329Y-32298185D01*
X22244482Y-32290919D01*
X22219565Y-32222273D01*
X22218148Y-32218145D01*
X22197907Y-32155664D01*
X22197906Y-32155662D01*
X22195651Y-32148701D01*
X22191855Y-32142446D01*
X22189349Y-32136972D01*
X22186630Y-32131542D01*
X22184133Y-32124663D01*
X22146887Y-32067854D01*
X22144114Y-32063624D01*
X22141767Y-32059905D01*
X22136800Y-32051719D01*
X22103895Y-31997493D01*
X22096497Y-31989116D01*
X22096524Y-31989092D01*
X22093871Y-31986100D01*
X22091168Y-31982867D01*
X22087156Y-31976748D01*
X22030917Y-31923472D01*
X22028475Y-31921094D01*
X21088782Y-30981401D01*
X21054756Y-30919089D01*
X21059821Y-30848274D01*
X21102368Y-30791438D01*
X21148730Y-30769724D01*
X21153466Y-30768598D01*
X21161316Y-30767745D01*
X21297705Y-30716615D01*
X21414261Y-30629261D01*
X21501615Y-30512705D01*
X21552745Y-30376316D01*
X21559500Y-30314134D01*
X21559500Y-27617866D01*
X21552745Y-27555684D01*
X21501615Y-27419295D01*
X21414261Y-27302739D01*
X21297705Y-27215385D01*
X21161316Y-27164255D01*
X21099134Y-27157500D01*
X18402866Y-27157500D01*
X18340684Y-27164255D01*
X18204295Y-27215385D01*
X18087739Y-27302739D01*
X18000385Y-27419295D01*
X17949255Y-27555684D01*
X17942500Y-27617866D01*
X17942500Y-30314134D01*
X17949255Y-30376316D01*
X18000385Y-30512705D01*
X18087739Y-30629261D01*
X18204295Y-30716615D01*
X18340684Y-30767745D01*
X18402866Y-30774500D01*
X18881420Y-30774500D01*
X18949541Y-30794502D01*
X18996034Y-30848158D01*
X19001795Y-30865972D01*
X19002117Y-30865868D01*
X19002402Y-30866746D01*
X19003140Y-30870131D01*
X19004979Y-30875817D01*
X19005588Y-30878867D01*
X19006971Y-30884719D01*
X19007818Y-30891981D01*
X19032735Y-30960627D01*
X19034152Y-30964755D01*
X19049035Y-31010695D01*
X19056649Y-31034199D01*
X19060445Y-31040454D01*
X19062951Y-31045928D01*
X19065670Y-31051358D01*
X19068167Y-31058237D01*
X19072180Y-31064357D01*
X19072180Y-31064358D01*
X19108186Y-31119276D01*
X19110523Y-31122980D01*
X19148405Y-31185407D01*
X19152121Y-31189615D01*
X19152122Y-31189616D01*
X19155803Y-31193784D01*
X19155776Y-31193808D01*
X19158429Y-31196800D01*
X19161132Y-31200033D01*
X19165144Y-31206152D01*
X19170456Y-31211184D01*
X19221383Y-31259428D01*
X19223825Y-31261806D01*
X20705895Y-32743876D01*
X20739921Y-32806188D01*
X20742800Y-32832971D01*
X20742800Y-33332490D01*
X20722798Y-33400611D01*
X20669142Y-33447104D01*
X20598868Y-33457208D01*
X20561072Y-33445496D01*
X20434376Y-33383016D01*
X20425743Y-33379528D01*
X20178703Y-33300450D01*
X20169643Y-33298274D01*
X19913630Y-33256580D01*
X19904343Y-33255768D01*
X19644992Y-33252373D01*
X19635681Y-33252943D01*
X19378682Y-33287919D01*
X19369546Y-33289860D01*
X19120543Y-33362439D01*
X19111800Y-33365707D01*
X18876252Y-33474296D01*
X18868097Y-33478816D01*
X18677240Y-33603947D01*
X18668102Y-33614689D01*
X18672675Y-33624465D01*
X20021115Y-34972905D01*
X20055141Y-35035217D01*
X20050076Y-35106032D01*
X20021115Y-35151095D01*
X18677497Y-36494713D01*
X18670839Y-36506906D01*
X18679553Y-36518427D01*
X18786452Y-36596809D01*
X18794351Y-36601745D01*
X19023905Y-36722519D01*
X19032454Y-36726236D01*
X19277327Y-36811749D01*
X19286336Y-36814163D01*
X19541166Y-36862544D01*
X19550423Y-36863598D01*
X19809607Y-36873783D01*
X19818921Y-36873457D01*
X20076753Y-36845220D01*
X20085930Y-36843519D01*
X20336758Y-36777481D01*
X20345574Y-36774445D01*
X20567063Y-36679287D01*
X20637547Y-36670775D01*
X20701445Y-36701721D01*
X20738468Y-36762299D01*
X20742800Y-36795055D01*
X20742800Y-38207500D01*
X20722798Y-38275621D01*
X20669142Y-38322114D01*
X20616800Y-38333500D01*
X18402866Y-38333500D01*
X18340684Y-38340255D01*
X18204295Y-38391385D01*
X18087739Y-38478739D01*
X18000385Y-38595295D01*
X17949255Y-38731684D01*
X17942500Y-38793866D01*
X17942500Y-41490134D01*
X17949255Y-41552316D01*
X18000385Y-41688705D01*
X18087739Y-41805261D01*
X18204295Y-41892615D01*
X18340684Y-41943745D01*
X18402866Y-41950500D01*
X20616800Y-41950500D01*
X20684921Y-41970502D01*
X20731414Y-42024158D01*
X20742800Y-42076500D01*
X20742800Y-43013139D01*
X20740160Y-43038796D01*
X20738514Y-43046710D01*
X20737544Y-43050996D01*
X20720192Y-43121910D01*
X20719500Y-43133064D01*
X20719464Y-43133062D01*
X20719225Y-43137055D01*
X20718851Y-43141247D01*
X20717360Y-43148415D01*
X20717558Y-43155732D01*
X20719454Y-43225821D01*
X20719500Y-43229228D01*
X20719500Y-45307781D01*
X20699498Y-45375902D01*
X20645842Y-45422395D01*
X20633382Y-45427303D01*
X20504054Y-45470450D01*
X20353652Y-45563522D01*
X20228695Y-45688697D01*
X20228693Y-45688701D01*
X20173227Y-45728024D01*
X20142479Y-45734454D01*
X20104461Y-45737546D01*
X20104458Y-45737547D01*
X20097163Y-45738140D01*
X20090199Y-45740396D01*
X20084240Y-45741587D01*
X20078385Y-45742971D01*
X20071119Y-45743818D01*
X20002473Y-45768735D01*
X19998345Y-45770152D01*
X19935864Y-45790393D01*
X19935862Y-45790394D01*
X19928901Y-45792649D01*
X19922646Y-45796445D01*
X19917172Y-45798951D01*
X19911742Y-45801670D01*
X19904863Y-45804167D01*
X19843816Y-45844191D01*
X19840127Y-45846518D01*
X19820811Y-45858240D01*
X19782493Y-45881491D01*
X19782488Y-45881495D01*
X19777692Y-45884405D01*
X19769316Y-45891803D01*
X19769293Y-45891777D01*
X19766303Y-45894426D01*
X19763064Y-45897134D01*
X19756948Y-45901144D01*
X19751921Y-45906451D01*
X19751917Y-45906454D01*
X19703672Y-45957383D01*
X19701294Y-45959825D01*
X18717517Y-46943602D01*
X18655205Y-46977628D01*
X18584390Y-46972563D01*
X18527596Y-46930072D01*
X18477643Y-46863420D01*
X18477642Y-46863419D01*
X18472261Y-46856239D01*
X18355705Y-46768885D01*
X18219316Y-46717755D01*
X18157134Y-46711000D01*
X16150866Y-46711000D01*
X16088684Y-46717755D01*
X15952295Y-46768885D01*
X15835739Y-46856239D01*
X15748385Y-46972795D01*
X15697255Y-47109184D01*
X15690500Y-47171366D01*
X15690500Y-49177634D01*
X15697255Y-49239816D01*
X15748385Y-49376205D01*
X15835739Y-49492761D01*
X15952295Y-49580115D01*
X15960704Y-49583267D01*
X15960705Y-49583268D01*
X15973493Y-49588062D01*
X16030258Y-49630703D01*
X16054958Y-49697264D01*
X16039751Y-49766613D01*
X16020356Y-49793097D01*
X16016712Y-49796910D01*
X16010225Y-49804921D01*
X15880481Y-49995117D01*
X15875393Y-50004073D01*
X15778456Y-50212906D01*
X15774897Y-50222579D01*
X15713368Y-50444448D01*
X15711440Y-50454555D01*
X15686972Y-50683501D01*
X15686721Y-50693789D01*
X15699975Y-50923639D01*
X15701411Y-50933860D01*
X15752026Y-51158454D01*
X15755105Y-51168282D01*
X15841728Y-51381608D01*
X15846371Y-51390799D01*
X15944100Y-51550279D01*
X15954556Y-51559739D01*
X15963334Y-51555955D01*
X17064905Y-50454385D01*
X17127217Y-50420359D01*
X17198033Y-50425424D01*
X17243095Y-50454385D01*
X18339714Y-51551003D01*
X18351725Y-51557562D01*
X18363083Y-51548885D01*
X20070000Y-51548885D01*
X20074475Y-51564124D01*
X20075865Y-51565329D01*
X20083548Y-51567000D01*
X22867884Y-51567000D01*
X22883123Y-51562525D01*
X22884328Y-51561135D01*
X22885999Y-51553452D01*
X22885999Y-51448905D01*
X22885662Y-51442386D01*
X22875743Y-51346794D01*
X22872851Y-51333400D01*
X22821412Y-51179216D01*
X22815239Y-51166038D01*
X22729937Y-51028193D01*
X22720901Y-51016792D01*
X22606171Y-50902261D01*
X22594760Y-50893249D01*
X22456757Y-50808184D01*
X22443576Y-50802037D01*
X22282759Y-50748696D01*
X22283715Y-50745814D01*
X22233049Y-50718317D01*
X22198864Y-50656093D01*
X22203746Y-50585264D01*
X22246147Y-50528319D01*
X22284627Y-50510722D01*
X22284063Y-50509032D01*
X22444784Y-50455412D01*
X22457962Y-50449239D01*
X22595807Y-50363937D01*
X22607208Y-50354901D01*
X22721739Y-50240171D01*
X22730751Y-50228760D01*
X22815816Y-50090757D01*
X22821963Y-50077576D01*
X22873138Y-49923290D01*
X22876005Y-49909914D01*
X22885672Y-49815562D01*
X22886000Y-49809146D01*
X22886000Y-49709115D01*
X22881525Y-49693876D01*
X22880135Y-49692671D01*
X22872452Y-49691000D01*
X20088116Y-49691000D01*
X20072877Y-49695475D01*
X20071672Y-49696865D01*
X20070001Y-49704548D01*
X20070001Y-49809095D01*
X20070338Y-49815614D01*
X20080257Y-49911206D01*
X20083149Y-49924600D01*
X20134588Y-50078784D01*
X20140761Y-50091962D01*
X20226063Y-50229807D01*
X20235099Y-50241208D01*
X20349829Y-50355739D01*
X20361240Y-50364751D01*
X20499243Y-50449816D01*
X20512424Y-50455963D01*
X20673241Y-50509304D01*
X20672285Y-50512186D01*
X20722951Y-50539683D01*
X20757136Y-50601907D01*
X20752254Y-50672736D01*
X20709853Y-50729681D01*
X20671373Y-50747278D01*
X20671937Y-50748968D01*
X20511216Y-50802588D01*
X20498038Y-50808761D01*
X20360193Y-50894063D01*
X20348792Y-50903099D01*
X20234261Y-51017829D01*
X20225249Y-51029240D01*
X20140184Y-51167243D01*
X20134037Y-51180424D01*
X20082862Y-51334710D01*
X20079995Y-51348086D01*
X20070328Y-51442438D01*
X20070000Y-51448855D01*
X20070000Y-51548885D01*
X18363083Y-51548885D01*
X18363463Y-51548595D01*
X18409316Y-51484783D01*
X18414627Y-51475944D01*
X18516631Y-51269554D01*
X18520429Y-51259961D01*
X18587358Y-51039672D01*
X18589535Y-51029602D01*
X18619824Y-50799534D01*
X18620343Y-50792859D01*
X18621932Y-50727864D01*
X18621738Y-50721146D01*
X18602726Y-50489896D01*
X18601041Y-50479716D01*
X18544953Y-50256421D01*
X18541633Y-50246670D01*
X18449826Y-50035526D01*
X18444959Y-50026451D01*
X18319902Y-49833141D01*
X18313611Y-49824972D01*
X18283316Y-49791679D01*
X18252264Y-49727833D01*
X18260658Y-49657335D01*
X18305835Y-49602566D01*
X18332280Y-49588897D01*
X18347295Y-49583268D01*
X18347296Y-49583267D01*
X18355705Y-49580115D01*
X18472261Y-49492761D01*
X18559615Y-49376205D01*
X18610745Y-49239816D01*
X18617500Y-49177634D01*
X18617500Y-49164885D01*
X20070000Y-49164885D01*
X20074475Y-49180124D01*
X20075865Y-49181329D01*
X20083548Y-49183000D01*
X21205885Y-49183000D01*
X21221124Y-49178525D01*
X21222329Y-49177135D01*
X21224000Y-49169452D01*
X21224000Y-49164885D01*
X21732000Y-49164885D01*
X21736475Y-49180124D01*
X21737865Y-49181329D01*
X21745548Y-49183000D01*
X22867884Y-49183000D01*
X22883123Y-49178525D01*
X22884328Y-49177135D01*
X22885999Y-49169452D01*
X22885999Y-49064905D01*
X22885662Y-49058386D01*
X22875743Y-48962794D01*
X22872851Y-48949400D01*
X22821412Y-48795216D01*
X22815239Y-48782038D01*
X22729937Y-48644193D01*
X22720901Y-48632792D01*
X22606171Y-48518261D01*
X22594760Y-48509249D01*
X22456757Y-48424184D01*
X22443576Y-48418037D01*
X22289290Y-48366862D01*
X22275914Y-48363995D01*
X22181562Y-48354328D01*
X22175145Y-48354000D01*
X21750115Y-48354000D01*
X21734876Y-48358475D01*
X21733671Y-48359865D01*
X21732000Y-48367548D01*
X21732000Y-49164885D01*
X21224000Y-49164885D01*
X21224000Y-48372116D01*
X21219525Y-48356877D01*
X21218135Y-48355672D01*
X21210452Y-48354001D01*
X20780905Y-48354001D01*
X20774386Y-48354338D01*
X20678794Y-48364257D01*
X20665400Y-48367149D01*
X20511216Y-48418588D01*
X20498038Y-48424761D01*
X20360193Y-48510063D01*
X20348792Y-48519099D01*
X20234261Y-48633829D01*
X20225249Y-48645240D01*
X20140184Y-48783243D01*
X20134037Y-48796424D01*
X20082862Y-48950710D01*
X20079995Y-48964086D01*
X20070328Y-49058438D01*
X20070000Y-49064855D01*
X20070000Y-49164885D01*
X18617500Y-49164885D01*
X18617500Y-49044080D01*
X18637502Y-48975959D01*
X18691158Y-48929466D01*
X18708972Y-48923705D01*
X18708868Y-48923383D01*
X18709746Y-48923098D01*
X18713131Y-48922360D01*
X18718817Y-48920521D01*
X18721867Y-48919912D01*
X18727719Y-48918529D01*
X18734981Y-48917682D01*
X18803627Y-48892765D01*
X18807755Y-48891348D01*
X18870236Y-48871107D01*
X18870238Y-48871106D01*
X18877199Y-48868851D01*
X18883454Y-48865055D01*
X18888928Y-48862549D01*
X18894358Y-48859830D01*
X18901237Y-48857333D01*
X18947017Y-48827318D01*
X18962276Y-48817314D01*
X18965980Y-48814977D01*
X19028407Y-48777095D01*
X19036784Y-48769697D01*
X19036808Y-48769724D01*
X19039800Y-48767071D01*
X19043033Y-48764368D01*
X19049152Y-48760356D01*
X19102428Y-48704117D01*
X19104806Y-48701675D01*
X20309313Y-47497168D01*
X20371625Y-47463142D01*
X20442440Y-47468207D01*
X20464525Y-47479004D01*
X20505262Y-47504115D01*
X20512213Y-47506421D01*
X20512214Y-47506421D01*
X20666611Y-47557632D01*
X20666613Y-47557632D01*
X20673139Y-47559797D01*
X20679975Y-47560497D01*
X20679978Y-47560498D01*
X20723031Y-47564909D01*
X20777600Y-47570500D01*
X22178400Y-47570500D01*
X22181646Y-47570163D01*
X22181650Y-47570163D01*
X22277308Y-47560238D01*
X22277312Y-47560237D01*
X22284166Y-47559526D01*
X22290702Y-47557345D01*
X22290704Y-47557345D01*
X22422806Y-47513272D01*
X22451946Y-47503550D01*
X22602348Y-47410478D01*
X22727305Y-47285303D01*
X22731146Y-47279072D01*
X22816275Y-47140968D01*
X22816276Y-47140966D01*
X22820115Y-47134738D01*
X22875797Y-46966861D01*
X22886500Y-46862400D01*
X22886500Y-46111600D01*
X22884626Y-46093540D01*
X22876238Y-46012692D01*
X22876237Y-46012688D01*
X22875526Y-46005834D01*
X22867368Y-45981380D01*
X22821868Y-45845002D01*
X22819550Y-45838054D01*
X22726478Y-45687652D01*
X22601303Y-45562695D01*
X22595072Y-45558854D01*
X22456968Y-45473725D01*
X22456966Y-45473724D01*
X22450738Y-45469885D01*
X22344891Y-45434777D01*
X22322833Y-45427461D01*
X22264473Y-45387031D01*
X22237236Y-45321466D01*
X22236500Y-45307868D01*
X22236500Y-44077500D01*
X22256502Y-44009379D01*
X22310158Y-43962886D01*
X22362500Y-43951500D01*
X24734383Y-43951500D01*
X24802504Y-43971502D01*
X24848997Y-44025158D01*
X24859693Y-44064329D01*
X24870530Y-44167438D01*
X24879358Y-44251428D01*
X24938373Y-44433056D01*
X25033860Y-44598444D01*
X25038278Y-44603351D01*
X25038279Y-44603352D01*
X25118098Y-44692000D01*
X25161647Y-44740366D01*
X25316148Y-44852618D01*
X25322177Y-44855302D01*
X25322180Y-44855304D01*
X25360546Y-44872385D01*
X25398393Y-44898397D01*
X26271497Y-45771501D01*
X26305523Y-45833813D01*
X26300458Y-45904628D01*
X26283230Y-45936158D01*
X26273385Y-45949295D01*
X26222255Y-46085684D01*
X26215500Y-46147866D01*
X26215500Y-47944134D01*
X26222255Y-48006316D01*
X26273385Y-48142705D01*
X26360739Y-48259261D01*
X26374551Y-48269613D01*
X26417068Y-48326469D01*
X26422096Y-48397287D01*
X26388084Y-48459535D01*
X25784789Y-49062830D01*
X25770377Y-49075216D01*
X25758782Y-49083749D01*
X25758777Y-49083754D01*
X25752882Y-49088092D01*
X25748143Y-49093670D01*
X25748140Y-49093673D01*
X25718665Y-49128368D01*
X25711735Y-49135884D01*
X25706040Y-49141579D01*
X25703760Y-49144461D01*
X25688419Y-49163851D01*
X25685628Y-49167255D01*
X25645918Y-49213997D01*
X25638367Y-49222885D01*
X25635039Y-49229401D01*
X25631672Y-49234450D01*
X25628505Y-49239579D01*
X25623966Y-49245316D01*
X25593045Y-49311475D01*
X25591142Y-49315369D01*
X25557931Y-49380408D01*
X25556192Y-49387516D01*
X25554093Y-49393159D01*
X25552176Y-49398922D01*
X25549078Y-49405550D01*
X25547588Y-49412712D01*
X25547588Y-49412713D01*
X25534214Y-49477012D01*
X25533244Y-49481296D01*
X25515892Y-49552210D01*
X25515200Y-49563364D01*
X25515164Y-49563362D01*
X25514925Y-49567355D01*
X25514551Y-49571547D01*
X25513060Y-49578715D01*
X25513705Y-49602566D01*
X25515154Y-49656121D01*
X25515200Y-49659528D01*
X25515200Y-53781130D01*
X25513767Y-53800080D01*
X25510501Y-53821549D01*
X25511094Y-53828841D01*
X25511094Y-53828844D01*
X25514785Y-53874218D01*
X25515200Y-53884433D01*
X25515200Y-53892493D01*
X25515625Y-53896137D01*
X25518489Y-53920707D01*
X25518922Y-53925082D01*
X25524227Y-53990297D01*
X25524840Y-53997837D01*
X25527096Y-54004801D01*
X25528287Y-54010760D01*
X25529671Y-54016615D01*
X25530518Y-54023881D01*
X25555435Y-54092527D01*
X25556852Y-54096655D01*
X25571482Y-54141814D01*
X25579349Y-54166099D01*
X25583145Y-54172354D01*
X25585651Y-54177828D01*
X25588370Y-54183258D01*
X25590867Y-54190137D01*
X25594880Y-54196257D01*
X25594880Y-54196258D01*
X25630886Y-54251176D01*
X25633223Y-54254880D01*
X25671105Y-54317307D01*
X25674821Y-54321515D01*
X25674822Y-54321516D01*
X25678503Y-54325684D01*
X25678476Y-54325708D01*
X25681129Y-54328700D01*
X25683832Y-54331933D01*
X25687844Y-54338052D01*
X25710559Y-54359570D01*
X25744083Y-54391328D01*
X25746525Y-54393706D01*
X26178595Y-54825776D01*
X26212621Y-54888088D01*
X26215500Y-54914871D01*
X26215500Y-56046634D01*
X26222255Y-56108816D01*
X26273385Y-56245205D01*
X26360739Y-56361761D01*
X26477295Y-56449115D01*
X26613684Y-56500245D01*
X26675866Y-56507000D01*
X28472134Y-56507000D01*
X28507388Y-56503170D01*
X28577270Y-56515698D01*
X28629286Y-56564018D01*
X28646921Y-56632790D01*
X28624575Y-56700178D01*
X28610091Y-56717528D01*
X26642790Y-58684829D01*
X26580478Y-58718855D01*
X26509663Y-58713790D01*
X26464600Y-58684830D01*
X22923405Y-55143706D01*
X22889380Y-55081394D01*
X22886500Y-55054610D01*
X22886500Y-54395600D01*
X22885445Y-54385432D01*
X22876238Y-54296692D01*
X22876237Y-54296688D01*
X22875526Y-54289834D01*
X22869452Y-54271626D01*
X22824380Y-54136530D01*
X22819550Y-54122054D01*
X22726478Y-53971652D01*
X22601303Y-53846695D01*
X22595072Y-53842854D01*
X22456968Y-53757725D01*
X22456966Y-53757724D01*
X22450738Y-53753885D01*
X22364050Y-53725132D01*
X22289389Y-53700368D01*
X22289387Y-53700368D01*
X22282861Y-53698203D01*
X22276025Y-53697503D01*
X22276022Y-53697502D01*
X22232969Y-53693091D01*
X22178400Y-53687500D01*
X21519371Y-53687500D01*
X21451250Y-53667498D01*
X21430276Y-53650595D01*
X20898776Y-53119095D01*
X20864750Y-53056783D01*
X20869815Y-52985968D01*
X20912362Y-52929132D01*
X20978882Y-52904321D01*
X20987871Y-52904000D01*
X21205885Y-52904000D01*
X21221124Y-52899525D01*
X21222329Y-52898135D01*
X21224000Y-52890452D01*
X21224000Y-52885884D01*
X21732000Y-52885884D01*
X21736475Y-52901123D01*
X21737865Y-52902328D01*
X21745548Y-52903999D01*
X22175095Y-52903999D01*
X22181614Y-52903662D01*
X22277206Y-52893743D01*
X22290600Y-52890851D01*
X22444784Y-52839412D01*
X22457962Y-52833239D01*
X22595807Y-52747937D01*
X22607208Y-52738901D01*
X22721739Y-52624171D01*
X22730751Y-52612760D01*
X22815816Y-52474757D01*
X22821963Y-52461576D01*
X22873138Y-52307290D01*
X22876005Y-52293914D01*
X22885672Y-52199562D01*
X22886000Y-52193146D01*
X22886000Y-52093115D01*
X22881525Y-52077876D01*
X22880135Y-52076671D01*
X22872452Y-52075000D01*
X21750115Y-52075000D01*
X21734876Y-52079475D01*
X21733671Y-52080865D01*
X21732000Y-52088548D01*
X21732000Y-52885884D01*
X21224000Y-52885884D01*
X21224000Y-52093115D01*
X21219525Y-52077876D01*
X21218135Y-52076671D01*
X21210452Y-52075000D01*
X20088116Y-52075000D01*
X20072877Y-52079475D01*
X20071672Y-52080865D01*
X20070001Y-52088548D01*
X20070001Y-52193095D01*
X20070338Y-52199614D01*
X20080257Y-52295206D01*
X20083150Y-52308605D01*
X20096922Y-52349884D01*
X20099508Y-52420834D01*
X20063324Y-52481918D01*
X19999860Y-52513743D01*
X19980809Y-52515715D01*
X19974938Y-52515874D01*
X19971977Y-52515954D01*
X19968572Y-52516000D01*
X18475003Y-52516000D01*
X18406882Y-52495998D01*
X18369211Y-52458440D01*
X18320301Y-52382836D01*
X18320296Y-52382830D01*
X18317490Y-52378492D01*
X18312528Y-52373038D01*
X18236971Y-52290002D01*
X18155526Y-52200495D01*
X18151475Y-52197296D01*
X18151471Y-52197292D01*
X18015481Y-52089895D01*
X17974418Y-52031978D01*
X17971186Y-51961055D01*
X17987773Y-51926964D01*
X17987979Y-51924783D01*
X17979943Y-51909654D01*
X17166811Y-51096521D01*
X17152868Y-51088908D01*
X17151034Y-51089039D01*
X17144420Y-51093290D01*
X16324081Y-51913630D01*
X16316470Y-51927568D01*
X16316782Y-51931928D01*
X16336517Y-51989223D01*
X16319676Y-52058194D01*
X16286304Y-52095791D01*
X16202623Y-52158621D01*
X16179014Y-52176347D01*
X16012749Y-52350333D01*
X16009835Y-52354605D01*
X16009834Y-52354606D01*
X15971638Y-52410599D01*
X15877133Y-52549138D01*
X15775808Y-52767424D01*
X15774426Y-52772406D01*
X15774426Y-52772407D01*
X15768299Y-52794500D01*
X15711495Y-52999328D01*
X15685922Y-53238621D01*
X15686219Y-53243773D01*
X15686219Y-53243777D01*
X15693300Y-53366575D01*
X15699775Y-53478878D01*
X15700912Y-53483924D01*
X15700913Y-53483930D01*
X15709294Y-53521117D01*
X15752683Y-53713646D01*
X15811646Y-53858855D01*
X15840202Y-53929180D01*
X15843223Y-53936621D01*
X15934163Y-54085021D01*
X15959294Y-54126030D01*
X15968966Y-54141814D01*
X15997591Y-54174860D01*
X16122702Y-54319292D01*
X16126533Y-54323715D01*
X16130502Y-54327010D01*
X16130505Y-54327013D01*
X16232759Y-54411905D01*
X16311694Y-54477438D01*
X16519475Y-54598855D01*
X16744297Y-54684707D01*
X16749363Y-54685738D01*
X16749364Y-54685738D01*
X16805742Y-54697208D01*
X16980122Y-54732686D01*
X17116224Y-54737676D01*
X17215452Y-54741315D01*
X17215456Y-54741315D01*
X17220616Y-54741504D01*
X17225736Y-54740848D01*
X17225738Y-54740848D01*
X17454194Y-54711582D01*
X17454195Y-54711582D01*
X17459322Y-54710925D01*
X17542515Y-54685966D01*
X17684874Y-54643256D01*
X17689827Y-54641770D01*
X17694466Y-54639497D01*
X17694472Y-54639495D01*
X17901308Y-54538167D01*
X17901311Y-54538165D01*
X17905943Y-54535896D01*
X18101865Y-54396147D01*
X18272331Y-54226274D01*
X18373508Y-54085471D01*
X18429500Y-54041826D01*
X18475828Y-54033000D01*
X19615129Y-54033000D01*
X19683250Y-54053002D01*
X19704224Y-54069905D01*
X20032595Y-54398276D01*
X20066621Y-54460588D01*
X20069500Y-54487371D01*
X20069500Y-55146400D01*
X20069837Y-55149646D01*
X20069837Y-55149650D01*
X20079231Y-55240182D01*
X20080474Y-55252166D01*
X20082655Y-55258702D01*
X20082655Y-55258704D01*
X20123949Y-55382475D01*
X20136450Y-55419946D01*
X20229522Y-55570348D01*
X20354697Y-55695305D01*
X20360927Y-55699145D01*
X20360928Y-55699146D01*
X20386887Y-55715147D01*
X20505262Y-55788115D01*
X20523346Y-55794113D01*
X20666611Y-55841632D01*
X20666613Y-55841632D01*
X20673139Y-55843797D01*
X20679975Y-55844497D01*
X20679978Y-55844498D01*
X20723031Y-55848909D01*
X20777600Y-55854500D01*
X21436639Y-55854500D01*
X21504760Y-55874502D01*
X21525733Y-55891403D01*
X24763970Y-59129576D01*
X25495311Y-59860902D01*
X25529336Y-59923214D01*
X25528605Y-59979946D01*
X25515792Y-60032310D01*
X25515100Y-60043464D01*
X25515064Y-60043462D01*
X25514825Y-60047455D01*
X25514451Y-60051647D01*
X25512960Y-60058815D01*
X25513539Y-60080228D01*
X25515054Y-60136221D01*
X25515100Y-60139628D01*
X25515100Y-64237430D01*
X25513667Y-64256380D01*
X25512189Y-64266097D01*
X25510401Y-64277849D01*
X25510994Y-64285141D01*
X25510994Y-64285144D01*
X25514685Y-64330518D01*
X25515100Y-64340733D01*
X25515100Y-64348793D01*
X25515525Y-64352437D01*
X25518389Y-64377007D01*
X25518822Y-64381382D01*
X25522303Y-64424173D01*
X25524740Y-64454137D01*
X25526996Y-64461101D01*
X25528187Y-64467060D01*
X25529571Y-64472915D01*
X25530418Y-64480181D01*
X25555335Y-64548827D01*
X25556752Y-64552955D01*
X25575912Y-64612097D01*
X25579249Y-64622399D01*
X25583045Y-64628654D01*
X25585551Y-64634128D01*
X25588270Y-64639558D01*
X25590767Y-64646437D01*
X25594780Y-64652557D01*
X25594780Y-64652558D01*
X25630786Y-64707476D01*
X25633123Y-64711180D01*
X25671005Y-64773607D01*
X25674721Y-64777815D01*
X25674722Y-64777816D01*
X25678403Y-64781984D01*
X25678376Y-64782008D01*
X25681029Y-64785000D01*
X25683732Y-64788233D01*
X25687744Y-64794352D01*
X25700554Y-64806487D01*
X25743983Y-64847628D01*
X25746425Y-64850006D01*
X25936730Y-65040311D01*
X25949116Y-65054723D01*
X25957648Y-65066317D01*
X25957654Y-65066324D01*
X25961992Y-65072218D01*
X25962770Y-65072879D01*
X25993441Y-65134024D01*
X25985911Y-65204621D01*
X25941409Y-65259939D01*
X25869462Y-65282500D01*
X18291532Y-65282500D01*
X18223411Y-65262498D01*
X18176918Y-65208842D01*
X18166814Y-65138568D01*
X18196308Y-65073988D01*
X18256034Y-65035604D01*
X18265120Y-65033299D01*
X18546402Y-64972997D01*
X18552950Y-64971218D01*
X18891820Y-64859147D01*
X18898162Y-64856661D01*
X19222921Y-64708660D01*
X19228975Y-64705495D01*
X19535839Y-64523293D01*
X19541520Y-64519490D01*
X19826918Y-64305207D01*
X19832145Y-64300821D01*
X19844988Y-64288803D01*
X19853057Y-64275123D01*
X19853029Y-64274398D01*
X19847887Y-64266097D01*
X17680812Y-62099022D01*
X17666868Y-62091408D01*
X17665035Y-62091539D01*
X17658420Y-62095790D01*
X15489409Y-64264801D01*
X15481795Y-64278745D01*
X15481871Y-64279815D01*
X15485055Y-64284648D01*
X15765342Y-64499720D01*
X15770972Y-64503575D01*
X16075929Y-64688992D01*
X16081931Y-64692210D01*
X16405139Y-64843611D01*
X16411444Y-64846159D01*
X16749117Y-64961771D01*
X16755668Y-64963624D01*
X17066100Y-65033583D01*
X17128156Y-65068071D01*
X17161716Y-65130636D01*
X17156123Y-65201412D01*
X17113154Y-65257929D01*
X17046450Y-65282243D01*
X17038399Y-65282500D01*
X14238500Y-65282500D01*
X14170379Y-65262498D01*
X14123886Y-65208842D01*
X14112500Y-65156500D01*
X14112500Y-62344579D01*
X14132502Y-62276458D01*
X14186158Y-62229965D01*
X14256432Y-62219861D01*
X14321012Y-62249355D01*
X14359396Y-62309081D01*
X14362914Y-62324651D01*
X14380478Y-62434305D01*
X14381917Y-62440960D01*
X14476094Y-62785215D01*
X14478243Y-62791676D01*
X14609053Y-63123756D01*
X14611884Y-63129939D01*
X14777792Y-63445949D01*
X14781275Y-63451791D01*
X14980340Y-63748031D01*
X14984442Y-63753475D01*
X15108942Y-63901322D01*
X15121680Y-63909764D01*
X15132124Y-63903666D01*
X17295978Y-61739812D01*
X17302356Y-61728132D01*
X18032408Y-61728132D01*
X18032539Y-61729965D01*
X18036790Y-61736580D01*
X20202463Y-63902253D01*
X20216060Y-63909678D01*
X20225669Y-63902981D01*
X20330197Y-63781457D01*
X20334346Y-63776069D01*
X20536503Y-63481929D01*
X20540050Y-63476118D01*
X20709250Y-63161879D01*
X20712157Y-63155701D01*
X20846435Y-62825016D01*
X20848649Y-62818586D01*
X20946427Y-62475331D01*
X20947934Y-62468701D01*
X21008073Y-62116873D01*
X21008853Y-62110133D01*
X21030740Y-61752275D01*
X21030856Y-61748673D01*
X21030926Y-61728820D01*
X21030834Y-61725193D01*
X21011446Y-61367208D01*
X21010711Y-61360442D01*
X20953034Y-61008233D01*
X20951567Y-61001561D01*
X20856194Y-60657655D01*
X20854020Y-60651192D01*
X20722053Y-60319575D01*
X20719197Y-60313395D01*
X20552194Y-59997981D01*
X20548682Y-59992137D01*
X20348588Y-59696598D01*
X20344467Y-59691170D01*
X20227041Y-59552704D01*
X20214215Y-59544267D01*
X20203890Y-59550320D01*
X18040022Y-61714188D01*
X18032408Y-61728132D01*
X17302356Y-61728132D01*
X17303592Y-61725868D01*
X17303461Y-61724035D01*
X17299210Y-61717420D01*
X15133527Y-59551737D01*
X15119990Y-59544345D01*
X15110289Y-59551132D01*
X14998649Y-59681847D01*
X14994515Y-59687255D01*
X14793394Y-59982086D01*
X14789859Y-59987923D01*
X14621754Y-60302757D01*
X14618878Y-60308926D01*
X14485754Y-60640081D01*
X14483561Y-60646521D01*
X14386979Y-60990121D01*
X14385496Y-60996757D01*
X14362772Y-61132551D01*
X14331801Y-61196436D01*
X14271208Y-61233436D01*
X14200230Y-61231803D01*
X14141403Y-61192055D01*
X14113403Y-61126813D01*
X14112500Y-61111755D01*
X14112500Y-59178492D01*
X15482580Y-59178492D01*
X15482615Y-59179333D01*
X15487667Y-59187457D01*
X17655188Y-61354978D01*
X17669132Y-61362592D01*
X17670965Y-61362461D01*
X17677580Y-61358210D01*
X19846166Y-59189624D01*
X19853780Y-59175680D01*
X19853712Y-59174723D01*
X19848771Y-59167251D01*
X19844870Y-59163931D01*
X19560958Y-58947649D01*
X19555332Y-58943825D01*
X19249722Y-58759469D01*
X19243710Y-58756272D01*
X18919966Y-58605995D01*
X18913666Y-58603475D01*
X18575595Y-58489045D01*
X18569017Y-58487209D01*
X18220592Y-58409965D01*
X18213857Y-58408850D01*
X17859106Y-58369685D01*
X17852324Y-58369306D01*
X17495395Y-58368683D01*
X17488622Y-58369038D01*
X17133714Y-58406966D01*
X17127005Y-58408053D01*
X16778289Y-58484086D01*
X16771714Y-58485897D01*
X16433250Y-58599145D01*
X16426928Y-58601648D01*
X16102680Y-58750785D01*
X16096637Y-58753971D01*
X15790404Y-58937248D01*
X15784744Y-58941066D01*
X15500094Y-59156346D01*
X15494891Y-59160742D01*
X15490601Y-59164785D01*
X15482580Y-59178492D01*
X14112500Y-59178492D01*
X14112500Y-35019211D01*
X17938775Y-35019211D01*
X17951220Y-35278288D01*
X17952356Y-35287543D01*
X18002961Y-35541945D01*
X18005449Y-35550917D01*
X18093095Y-35795033D01*
X18096895Y-35803568D01*
X18219658Y-36032042D01*
X18224666Y-36039904D01*
X18294720Y-36133716D01*
X18305979Y-36142165D01*
X18318397Y-36135393D01*
X19378978Y-35074812D01*
X19386592Y-35060868D01*
X19386461Y-35059035D01*
X19382210Y-35052420D01*
X18316816Y-33987026D01*
X18303507Y-33979758D01*
X18293472Y-33986878D01*
X18277937Y-34005556D01*
X18272531Y-34013135D01*
X18137965Y-34234891D01*
X18133736Y-34243192D01*
X18033432Y-34482389D01*
X18030471Y-34491239D01*
X17966628Y-34742625D01*
X17965006Y-34751822D01*
X17939020Y-35009885D01*
X17938775Y-35019211D01*
X14112500Y-35019211D01*
X14112500Y-25330906D01*
X18670839Y-25330906D01*
X18679553Y-25342427D01*
X18786452Y-25420809D01*
X18794351Y-25425745D01*
X19023905Y-25546519D01*
X19032454Y-25550236D01*
X19277327Y-25635749D01*
X19286336Y-25638163D01*
X19541166Y-25686544D01*
X19550423Y-25687598D01*
X19809607Y-25697783D01*
X19818921Y-25697457D01*
X20076753Y-25669220D01*
X20085930Y-25667519D01*
X20336758Y-25601481D01*
X20345574Y-25598445D01*
X20583880Y-25496062D01*
X20592167Y-25491748D01*
X20812718Y-25355266D01*
X20820268Y-25349780D01*
X20825559Y-25345301D01*
X20833997Y-25332497D01*
X20827935Y-25322145D01*
X19763812Y-24258022D01*
X19749868Y-24250408D01*
X19748035Y-24250539D01*
X19741420Y-24254790D01*
X18677497Y-25318713D01*
X18670839Y-25330906D01*
X14112500Y-25330906D01*
X14112500Y-23843211D01*
X17938775Y-23843211D01*
X17951220Y-24102288D01*
X17952356Y-24111543D01*
X18002961Y-24365945D01*
X18005449Y-24374917D01*
X18093095Y-24619033D01*
X18096895Y-24627568D01*
X18219658Y-24856042D01*
X18224666Y-24863904D01*
X18294720Y-24957716D01*
X18305979Y-24966165D01*
X18318397Y-24959393D01*
X19378978Y-23898812D01*
X19385356Y-23887132D01*
X20115408Y-23887132D01*
X20115539Y-23888965D01*
X20119790Y-23895580D01*
X21187094Y-24962884D01*
X21199474Y-24969644D01*
X21207815Y-24963400D01*
X21341832Y-24755048D01*
X21346275Y-24746864D01*
X21452807Y-24510370D01*
X21455997Y-24501605D01*
X21526402Y-24251972D01*
X21528262Y-24242830D01*
X21561187Y-23984019D01*
X21561668Y-23977733D01*
X21563987Y-23889160D01*
X21563836Y-23882851D01*
X21544501Y-23622663D01*
X21543125Y-23613457D01*
X21485878Y-23360467D01*
X21483154Y-23351556D01*
X21389143Y-23109806D01*
X21385132Y-23101397D01*
X21256422Y-22876202D01*
X21251211Y-22868476D01*
X21207996Y-22813658D01*
X21196071Y-22805187D01*
X21184537Y-22811673D01*
X20123022Y-23873188D01*
X20115408Y-23887132D01*
X19385356Y-23887132D01*
X19386592Y-23884868D01*
X19386461Y-23883035D01*
X19382210Y-23876420D01*
X18316816Y-22811026D01*
X18303507Y-22803758D01*
X18293472Y-22810878D01*
X18277937Y-22829556D01*
X18272531Y-22837135D01*
X18137965Y-23058891D01*
X18133736Y-23067192D01*
X18033432Y-23306389D01*
X18030471Y-23315239D01*
X17966628Y-23566625D01*
X17965006Y-23575822D01*
X17939020Y-23833885D01*
X17938775Y-23843211D01*
X14112500Y-23843211D01*
X14112500Y-22438689D01*
X18668102Y-22438689D01*
X18672675Y-22448465D01*
X19738188Y-23513978D01*
X19752132Y-23521592D01*
X19753965Y-23521461D01*
X19760580Y-23517210D01*
X20825349Y-22452441D01*
X20831733Y-22440751D01*
X20822321Y-22428641D01*
X20675045Y-22326471D01*
X20667010Y-22321738D01*
X20434376Y-22207016D01*
X20425743Y-22203528D01*
X20178703Y-22124450D01*
X20169643Y-22122274D01*
X19913630Y-22080580D01*
X19904343Y-22079768D01*
X19644992Y-22076373D01*
X19635681Y-22076943D01*
X19378682Y-22111919D01*
X19369546Y-22113860D01*
X19120543Y-22186439D01*
X19111800Y-22189707D01*
X18876252Y-22298296D01*
X18868097Y-22302816D01*
X18677240Y-22427947D01*
X18668102Y-22438689D01*
X14112500Y-22438689D01*
X14112500Y-20082745D01*
X15481795Y-20082745D01*
X15481871Y-20083815D01*
X15485055Y-20088648D01*
X15765342Y-20303720D01*
X15770972Y-20307575D01*
X16075929Y-20492992D01*
X16081931Y-20496210D01*
X16405139Y-20647611D01*
X16411444Y-20650159D01*
X16749117Y-20765771D01*
X16755668Y-20767624D01*
X17103838Y-20846087D01*
X17110557Y-20847224D01*
X17465174Y-20887628D01*
X17471964Y-20888031D01*
X17828865Y-20889899D01*
X17835666Y-20889567D01*
X18190686Y-20852880D01*
X18197414Y-20851814D01*
X18546402Y-20776997D01*
X18552950Y-20775218D01*
X18891820Y-20663147D01*
X18898162Y-20660661D01*
X19222921Y-20512660D01*
X19228975Y-20509495D01*
X19535839Y-20327293D01*
X19541520Y-20323490D01*
X19826918Y-20109207D01*
X19832145Y-20104821D01*
X19844988Y-20092803D01*
X19853057Y-20079123D01*
X19853029Y-20078398D01*
X19847887Y-20070097D01*
X17680812Y-17903022D01*
X17666868Y-17895408D01*
X17665035Y-17895539D01*
X17658420Y-17899790D01*
X15489409Y-20068801D01*
X15481795Y-20082745D01*
X14112500Y-20082745D01*
X14112500Y-18148579D01*
X14132502Y-18080458D01*
X14186158Y-18033965D01*
X14256432Y-18023861D01*
X14321012Y-18053355D01*
X14359396Y-18113081D01*
X14362914Y-18128651D01*
X14380478Y-18238305D01*
X14381917Y-18244960D01*
X14476094Y-18589215D01*
X14478243Y-18595676D01*
X14609053Y-18927756D01*
X14611884Y-18933939D01*
X14777792Y-19249949D01*
X14781275Y-19255791D01*
X14980340Y-19552031D01*
X14984442Y-19557475D01*
X15108942Y-19705322D01*
X15121680Y-19713764D01*
X15132124Y-19707666D01*
X17295978Y-17543812D01*
X17302356Y-17532132D01*
X18032408Y-17532132D01*
X18032539Y-17533965D01*
X18036790Y-17540580D01*
X20202463Y-19706253D01*
X20216060Y-19713678D01*
X20225669Y-19706981D01*
X20330197Y-19585457D01*
X20334346Y-19580069D01*
X20536503Y-19285929D01*
X20540050Y-19280118D01*
X20709250Y-18965879D01*
X20712157Y-18959701D01*
X20846435Y-18629016D01*
X20848649Y-18622586D01*
X20946427Y-18279331D01*
X20947934Y-18272701D01*
X21008073Y-17920873D01*
X21008853Y-17914133D01*
X21030740Y-17556275D01*
X21030856Y-17552673D01*
X21030926Y-17532820D01*
X21030834Y-17529193D01*
X21011446Y-17171208D01*
X21010711Y-17164442D01*
X20953034Y-16812233D01*
X20951567Y-16805561D01*
X20856194Y-16461655D01*
X20854020Y-16455192D01*
X20722053Y-16123575D01*
X20719197Y-16117395D01*
X20552194Y-15801981D01*
X20548682Y-15796137D01*
X20348588Y-15500598D01*
X20344467Y-15495170D01*
X20227041Y-15356704D01*
X20214215Y-15348267D01*
X20203890Y-15354320D01*
X18040022Y-17518188D01*
X18032408Y-17532132D01*
X17302356Y-17532132D01*
X17303592Y-17529868D01*
X17303461Y-17528035D01*
X17299210Y-17521420D01*
X15133527Y-15355737D01*
X15119990Y-15348345D01*
X15110289Y-15355132D01*
X14998649Y-15485847D01*
X14994515Y-15491255D01*
X14793394Y-15786086D01*
X14789859Y-15791923D01*
X14621754Y-16106757D01*
X14618878Y-16112926D01*
X14485754Y-16444081D01*
X14483561Y-16450521D01*
X14386979Y-16794121D01*
X14385496Y-16800757D01*
X14362772Y-16936551D01*
X14331801Y-17000436D01*
X14271208Y-17037436D01*
X14200230Y-17035803D01*
X14141403Y-16996055D01*
X14113403Y-16930813D01*
X14112500Y-16915755D01*
X14112500Y-14609500D01*
X14132502Y-14541379D01*
X14186158Y-14494886D01*
X14238500Y-14483500D01*
X15765184Y-14483500D01*
X15833305Y-14503502D01*
G37*
%TD.AperFunction*%
%TA.AperFunction,Conductor*%
G36*
X69425621Y-14503502D02*
G01*
X69472114Y-14557158D01*
X69483500Y-14609500D01*
X69483500Y-24775681D01*
X69463498Y-24843802D01*
X69409842Y-24890295D01*
X69339568Y-24900399D01*
X69274988Y-24870905D01*
X69253164Y-24846321D01*
X69116588Y-24644598D01*
X69112467Y-24639170D01*
X68995041Y-24500704D01*
X68982215Y-24492267D01*
X68971890Y-24498320D01*
X66808022Y-26662188D01*
X66800408Y-26676132D01*
X66800539Y-26677965D01*
X66804790Y-26684580D01*
X68970463Y-28850253D01*
X68984060Y-28857678D01*
X68993669Y-28850981D01*
X69098197Y-28729457D01*
X69102346Y-28724069D01*
X69253660Y-28503905D01*
X69308728Y-28459094D01*
X69379281Y-28451169D01*
X69442919Y-28482646D01*
X69479436Y-28543530D01*
X69483500Y-28575272D01*
X69483500Y-50683681D01*
X69463498Y-50751802D01*
X69409842Y-50798295D01*
X69339568Y-50808399D01*
X69274988Y-50778905D01*
X69253164Y-50754321D01*
X69116588Y-50552598D01*
X69112467Y-50547170D01*
X68995041Y-50408704D01*
X68982215Y-50400267D01*
X68971890Y-50406320D01*
X66808022Y-52570188D01*
X66800408Y-52584132D01*
X66800539Y-52585965D01*
X66804790Y-52592580D01*
X68970463Y-54758253D01*
X68984060Y-54765678D01*
X68993669Y-54758981D01*
X69098197Y-54637457D01*
X69102346Y-54632069D01*
X69253660Y-54411905D01*
X69308728Y-54367094D01*
X69379281Y-54359169D01*
X69442919Y-54390646D01*
X69479436Y-54451530D01*
X69483500Y-54483272D01*
X69483500Y-65156500D01*
X69463498Y-65224621D01*
X69409842Y-65271114D01*
X69357500Y-65282500D01*
X57800127Y-65282500D01*
X57732006Y-65262498D01*
X57685513Y-65208842D01*
X57675409Y-65138568D01*
X57704903Y-65073988D01*
X57763919Y-65035815D01*
X57784418Y-65029665D01*
X57784430Y-65029660D01*
X57789384Y-65028174D01*
X57989994Y-64929896D01*
X58171860Y-64800173D01*
X58177702Y-64794352D01*
X58263693Y-64708660D01*
X58330096Y-64642489D01*
X58349536Y-64615436D01*
X58457435Y-64465277D01*
X58460453Y-64461077D01*
X58479818Y-64421896D01*
X58557136Y-64265453D01*
X58557137Y-64265451D01*
X58559430Y-64260811D01*
X58624370Y-64047069D01*
X58653529Y-63825590D01*
X58654101Y-63802167D01*
X58655074Y-63762365D01*
X58655074Y-63762361D01*
X58655156Y-63759000D01*
X58636852Y-63536361D01*
X58582431Y-63319702D01*
X58578601Y-63310894D01*
X58568195Y-63264054D01*
X58567346Y-63232658D01*
X58567300Y-63229252D01*
X58567300Y-63198769D01*
X58587302Y-63130648D01*
X58640958Y-63084155D01*
X58711232Y-63074051D01*
X58732966Y-63079176D01*
X58788608Y-63097631D01*
X58788610Y-63097631D01*
X58795139Y-63099797D01*
X58801975Y-63100497D01*
X58801978Y-63100498D01*
X58845031Y-63104909D01*
X58899600Y-63110500D01*
X59625400Y-63110500D01*
X59628646Y-63110163D01*
X59628650Y-63110163D01*
X59724308Y-63100238D01*
X59724312Y-63100237D01*
X59731166Y-63099526D01*
X59737702Y-63097345D01*
X59737704Y-63097345D01*
X59891998Y-63045868D01*
X59898946Y-63043550D01*
X60049348Y-62950478D01*
X60174305Y-62825303D01*
X60178146Y-62819072D01*
X60263275Y-62680968D01*
X60263276Y-62680966D01*
X60267115Y-62674738D01*
X60297542Y-62583002D01*
X60320632Y-62513389D01*
X60320632Y-62513387D01*
X60322797Y-62506861D01*
X60323584Y-62499185D01*
X60331377Y-62423118D01*
X60333500Y-62402400D01*
X60333500Y-61051600D01*
X60333163Y-61048350D01*
X60323238Y-60952692D01*
X60323237Y-60952688D01*
X60322526Y-60945834D01*
X60314523Y-60921844D01*
X60268868Y-60785002D01*
X60266550Y-60778054D01*
X60173478Y-60627652D01*
X60048303Y-60502695D01*
X60029193Y-60490915D01*
X59997175Y-60471179D01*
X59949681Y-60418407D01*
X59938257Y-60348336D01*
X59969652Y-60279611D01*
X60009240Y-60235644D01*
X60104727Y-60070256D01*
X60163742Y-59888628D01*
X60165127Y-59875457D01*
X60181107Y-59723407D01*
X60208120Y-59657750D01*
X60217322Y-59647482D01*
X61691247Y-58173557D01*
X61699537Y-58166013D01*
X61706018Y-58161900D01*
X61752659Y-58112232D01*
X61755413Y-58109391D01*
X61775134Y-58089670D01*
X61777612Y-58086475D01*
X61785318Y-58077453D01*
X61810158Y-58051001D01*
X61815586Y-58045221D01*
X61825346Y-58027468D01*
X61836199Y-58010945D01*
X61843753Y-58001206D01*
X61848613Y-57994941D01*
X61866176Y-57954357D01*
X61871383Y-57943727D01*
X61892695Y-57904960D01*
X61894666Y-57897283D01*
X61894668Y-57897278D01*
X61897732Y-57885342D01*
X61904138Y-57866630D01*
X61909034Y-57855317D01*
X61912181Y-57848045D01*
X61918743Y-57806619D01*
X61919097Y-57804381D01*
X61921504Y-57792760D01*
X61930528Y-57757611D01*
X61930528Y-57757610D01*
X61932500Y-57749930D01*
X61932500Y-57729669D01*
X61934051Y-57709958D01*
X61935979Y-57697785D01*
X61937219Y-57689957D01*
X61933059Y-57645946D01*
X61932500Y-57634089D01*
X61932500Y-55134745D01*
X64249795Y-55134745D01*
X64249871Y-55135815D01*
X64253055Y-55140648D01*
X64533342Y-55355720D01*
X64538972Y-55359575D01*
X64843929Y-55544992D01*
X64849931Y-55548210D01*
X65173139Y-55699611D01*
X65179444Y-55702159D01*
X65517117Y-55817771D01*
X65523668Y-55819624D01*
X65871838Y-55898087D01*
X65878557Y-55899224D01*
X66233174Y-55939628D01*
X66239964Y-55940031D01*
X66596865Y-55941899D01*
X66603666Y-55941567D01*
X66958686Y-55904880D01*
X66965414Y-55903814D01*
X67314402Y-55828997D01*
X67320950Y-55827218D01*
X67659820Y-55715147D01*
X67666162Y-55712661D01*
X67990921Y-55564660D01*
X67996975Y-55561495D01*
X68303839Y-55379293D01*
X68309520Y-55375490D01*
X68594918Y-55161207D01*
X68600145Y-55156821D01*
X68612988Y-55144803D01*
X68621057Y-55131123D01*
X68621029Y-55130398D01*
X68615887Y-55122097D01*
X66448812Y-52955022D01*
X66434868Y-52947408D01*
X66433035Y-52947539D01*
X66426420Y-52951790D01*
X64257409Y-55120801D01*
X64249795Y-55134745D01*
X61932500Y-55134745D01*
X61932500Y-52574657D01*
X63073260Y-52574657D01*
X63091318Y-52931127D01*
X63092028Y-52937883D01*
X63148478Y-53290305D01*
X63149917Y-53296960D01*
X63244094Y-53641215D01*
X63246243Y-53647676D01*
X63377053Y-53979756D01*
X63379884Y-53985939D01*
X63545792Y-54301949D01*
X63549275Y-54307791D01*
X63748340Y-54604031D01*
X63752442Y-54609475D01*
X63876942Y-54757322D01*
X63889680Y-54765764D01*
X63900124Y-54759666D01*
X66063978Y-52595812D01*
X66071592Y-52581868D01*
X66071461Y-52580035D01*
X66067210Y-52573420D01*
X63901527Y-50407737D01*
X63887990Y-50400345D01*
X63878289Y-50407132D01*
X63766649Y-50537847D01*
X63762515Y-50543255D01*
X63561394Y-50838086D01*
X63557859Y-50843923D01*
X63389754Y-51158757D01*
X63386878Y-51164926D01*
X63253754Y-51496081D01*
X63251561Y-51502521D01*
X63154979Y-51846121D01*
X63153496Y-51852756D01*
X63094589Y-52204773D01*
X63093830Y-52211545D01*
X63073284Y-52567862D01*
X63073260Y-52574657D01*
X61932500Y-52574657D01*
X61932500Y-50034492D01*
X64250580Y-50034492D01*
X64250615Y-50035333D01*
X64255667Y-50043457D01*
X66423188Y-52210978D01*
X66437132Y-52218592D01*
X66438965Y-52218461D01*
X66445580Y-52214210D01*
X68614166Y-50045624D01*
X68621780Y-50031680D01*
X68621712Y-50030723D01*
X68616771Y-50023251D01*
X68612870Y-50019931D01*
X68328958Y-49803649D01*
X68323332Y-49799825D01*
X68017722Y-49615469D01*
X68011710Y-49612272D01*
X67687966Y-49461995D01*
X67681666Y-49459475D01*
X67343595Y-49345045D01*
X67337017Y-49343209D01*
X66988592Y-49265965D01*
X66981857Y-49264850D01*
X66627106Y-49225685D01*
X66620324Y-49225306D01*
X66263395Y-49224683D01*
X66256622Y-49225038D01*
X65901714Y-49262966D01*
X65895005Y-49264053D01*
X65546289Y-49340086D01*
X65539714Y-49341897D01*
X65201250Y-49455145D01*
X65194928Y-49457648D01*
X64870680Y-49606785D01*
X64864637Y-49609971D01*
X64558404Y-49793248D01*
X64552744Y-49797066D01*
X64268094Y-50012346D01*
X64262891Y-50016742D01*
X64258601Y-50020785D01*
X64250580Y-50034492D01*
X61932500Y-50034492D01*
X61932500Y-29226745D01*
X64249795Y-29226745D01*
X64249871Y-29227815D01*
X64253055Y-29232648D01*
X64533342Y-29447720D01*
X64538972Y-29451575D01*
X64843929Y-29636992D01*
X64849931Y-29640210D01*
X65173139Y-29791611D01*
X65179444Y-29794159D01*
X65517117Y-29909771D01*
X65523668Y-29911624D01*
X65871838Y-29990087D01*
X65878557Y-29991224D01*
X66233174Y-30031628D01*
X66239964Y-30032031D01*
X66596865Y-30033899D01*
X66603666Y-30033567D01*
X66958686Y-29996880D01*
X66965414Y-29995814D01*
X67314402Y-29920997D01*
X67320950Y-29919218D01*
X67659820Y-29807147D01*
X67666162Y-29804661D01*
X67990921Y-29656660D01*
X67996975Y-29653495D01*
X68303839Y-29471293D01*
X68309520Y-29467490D01*
X68594918Y-29253207D01*
X68600145Y-29248821D01*
X68612988Y-29236803D01*
X68621057Y-29223123D01*
X68621029Y-29222398D01*
X68615887Y-29214097D01*
X66448812Y-27047022D01*
X66434868Y-27039408D01*
X66433035Y-27039539D01*
X66426420Y-27043790D01*
X64257409Y-29212801D01*
X64249795Y-29226745D01*
X61932500Y-29226745D01*
X61932500Y-26666657D01*
X63073260Y-26666657D01*
X63091318Y-27023127D01*
X63092028Y-27029883D01*
X63148478Y-27382305D01*
X63149917Y-27388960D01*
X63244094Y-27733215D01*
X63246243Y-27739676D01*
X63377053Y-28071756D01*
X63379884Y-28077939D01*
X63545792Y-28393949D01*
X63549275Y-28399791D01*
X63748340Y-28696031D01*
X63752442Y-28701475D01*
X63876942Y-28849322D01*
X63889680Y-28857764D01*
X63900124Y-28851666D01*
X66063978Y-26687812D01*
X66071592Y-26673868D01*
X66071461Y-26672035D01*
X66067210Y-26665420D01*
X63901527Y-24499737D01*
X63887990Y-24492345D01*
X63878289Y-24499132D01*
X63766649Y-24629847D01*
X63762515Y-24635255D01*
X63561394Y-24930086D01*
X63557859Y-24935923D01*
X63389754Y-25250757D01*
X63386878Y-25256926D01*
X63253754Y-25588081D01*
X63251561Y-25594521D01*
X63154979Y-25938121D01*
X63153496Y-25944756D01*
X63094589Y-26296773D01*
X63093830Y-26303545D01*
X63073284Y-26659862D01*
X63073260Y-26666657D01*
X61932500Y-26666657D01*
X61932500Y-24126492D01*
X64250580Y-24126492D01*
X64250615Y-24127333D01*
X64255667Y-24135457D01*
X66423188Y-26302978D01*
X66437132Y-26310592D01*
X66438965Y-26310461D01*
X66445580Y-26306210D01*
X68614166Y-24137624D01*
X68621780Y-24123680D01*
X68621712Y-24122723D01*
X68616771Y-24115251D01*
X68612870Y-24111931D01*
X68328958Y-23895649D01*
X68323332Y-23891825D01*
X68017722Y-23707469D01*
X68011710Y-23704272D01*
X67687966Y-23553995D01*
X67681666Y-23551475D01*
X67343595Y-23437045D01*
X67337017Y-23435209D01*
X66988592Y-23357965D01*
X66981857Y-23356850D01*
X66627106Y-23317685D01*
X66620324Y-23317306D01*
X66263395Y-23316683D01*
X66256622Y-23317038D01*
X65901714Y-23354966D01*
X65895005Y-23356053D01*
X65546289Y-23432086D01*
X65539714Y-23433897D01*
X65201250Y-23547145D01*
X65194928Y-23549648D01*
X64870680Y-23698785D01*
X64864637Y-23701971D01*
X64558404Y-23885248D01*
X64552744Y-23889066D01*
X64268094Y-24104346D01*
X64262891Y-24108742D01*
X64258601Y-24112785D01*
X64250580Y-24126492D01*
X61932500Y-24126492D01*
X61932500Y-18723463D01*
X61933027Y-18712279D01*
X61934701Y-18704791D01*
X61932562Y-18636732D01*
X61932500Y-18632775D01*
X61932500Y-18604844D01*
X61931994Y-18600838D01*
X61931061Y-18588992D01*
X61930624Y-18575063D01*
X61929673Y-18544810D01*
X61924022Y-18525358D01*
X61920014Y-18506006D01*
X61918468Y-18493768D01*
X61918467Y-18493766D01*
X61917474Y-18485903D01*
X61901194Y-18444786D01*
X61897359Y-18433585D01*
X61885018Y-18391106D01*
X61880985Y-18384287D01*
X61880983Y-18384282D01*
X61874707Y-18373671D01*
X61866010Y-18355921D01*
X61858552Y-18337083D01*
X61832571Y-18301323D01*
X61826053Y-18291401D01*
X61807578Y-18260160D01*
X61807574Y-18260155D01*
X61803542Y-18253337D01*
X61789218Y-18239013D01*
X61776376Y-18223978D01*
X61764472Y-18207593D01*
X61730406Y-18179411D01*
X61721627Y-18171422D01*
X58248800Y-14698595D01*
X58214774Y-14636283D01*
X58219839Y-14565468D01*
X58262386Y-14508632D01*
X58328906Y-14483821D01*
X58337895Y-14483500D01*
X69357500Y-14483500D01*
X69425621Y-14503502D01*
G37*
%TD.AperFunction*%
%TA.AperFunction,Conductor*%
G36*
X36236121Y-52376402D02*
G01*
X36282614Y-52430058D01*
X36294000Y-52482400D01*
X36294000Y-52776385D01*
X36298475Y-52791624D01*
X36299865Y-52792829D01*
X36307548Y-52794500D01*
X37780000Y-52794500D01*
X37848121Y-52814502D01*
X37894614Y-52868158D01*
X37906000Y-52920500D01*
X37906000Y-54513384D01*
X37910475Y-54528623D01*
X37911865Y-54529828D01*
X37919548Y-54531499D01*
X38299095Y-54531499D01*
X38305614Y-54531162D01*
X38401206Y-54521243D01*
X38414600Y-54518351D01*
X38568784Y-54466912D01*
X38581962Y-54460739D01*
X38719807Y-54375437D01*
X38731208Y-54366401D01*
X38845739Y-54251671D01*
X38854753Y-54240257D01*
X38940723Y-54100787D01*
X38993495Y-54053293D01*
X39063566Y-54041869D01*
X39128690Y-54070143D01*
X39139149Y-54079926D01*
X39248576Y-54194635D01*
X39433542Y-54332254D01*
X39438293Y-54334670D01*
X39438297Y-54334672D01*
X39500704Y-54366401D01*
X39639051Y-54436740D01*
X39644145Y-54438322D01*
X39644148Y-54438323D01*
X39788907Y-54483272D01*
X39859227Y-54505107D01*
X39864516Y-54505808D01*
X40082489Y-54534698D01*
X40082494Y-54534698D01*
X40087774Y-54535398D01*
X40093103Y-54535198D01*
X40093105Y-54535198D01*
X40202966Y-54531073D01*
X40318158Y-54526749D01*
X40323468Y-54525635D01*
X40538572Y-54480502D01*
X40543791Y-54479407D01*
X40548750Y-54477449D01*
X40548752Y-54477448D01*
X40753256Y-54396685D01*
X40753258Y-54396684D01*
X40758221Y-54394724D01*
X40763818Y-54391328D01*
X40950757Y-54277890D01*
X40950756Y-54277890D01*
X40955317Y-54275123D01*
X41036944Y-54204291D01*
X41125412Y-54127523D01*
X41125414Y-54127521D01*
X41129445Y-54124023D01*
X41187679Y-54053002D01*
X41272240Y-53949873D01*
X41272244Y-53949867D01*
X41275624Y-53945745D01*
X41293552Y-53914250D01*
X41344632Y-53864945D01*
X41414262Y-53851083D01*
X41480333Y-53877066D01*
X41507573Y-53906216D01*
X41589441Y-54027819D01*
X41593120Y-54031676D01*
X41593122Y-54031678D01*
X41643759Y-54084759D01*
X41748576Y-54194635D01*
X41933542Y-54332254D01*
X41938293Y-54334670D01*
X41938297Y-54334672D01*
X42000704Y-54366401D01*
X42139051Y-54436740D01*
X42144145Y-54438322D01*
X42144148Y-54438323D01*
X42288907Y-54483272D01*
X42359227Y-54505107D01*
X42364516Y-54505808D01*
X42582489Y-54534698D01*
X42582494Y-54534698D01*
X42587774Y-54535398D01*
X42593103Y-54535198D01*
X42593105Y-54535198D01*
X42702966Y-54531073D01*
X42818158Y-54526749D01*
X42823468Y-54525635D01*
X43038572Y-54480502D01*
X43043791Y-54479407D01*
X43048750Y-54477449D01*
X43048752Y-54477448D01*
X43253256Y-54396685D01*
X43253258Y-54396684D01*
X43258221Y-54394724D01*
X43263818Y-54391328D01*
X43450757Y-54277890D01*
X43450756Y-54277890D01*
X43455317Y-54275123D01*
X43536944Y-54204291D01*
X43625412Y-54127523D01*
X43625414Y-54127521D01*
X43629445Y-54124023D01*
X43687679Y-54053002D01*
X43772240Y-53949873D01*
X43772244Y-53949867D01*
X43775624Y-53945745D01*
X43793552Y-53914250D01*
X43844632Y-53864945D01*
X43914262Y-53851083D01*
X43980333Y-53877066D01*
X44007573Y-53906216D01*
X44089441Y-54027819D01*
X44093120Y-54031676D01*
X44093122Y-54031678D01*
X44143759Y-54084759D01*
X44248576Y-54194635D01*
X44433542Y-54332254D01*
X44438293Y-54334670D01*
X44438297Y-54334672D01*
X44500704Y-54366401D01*
X44639051Y-54436740D01*
X44644145Y-54438322D01*
X44644148Y-54438323D01*
X44788907Y-54483272D01*
X44859227Y-54505107D01*
X44864516Y-54505808D01*
X45082489Y-54534698D01*
X45082494Y-54534698D01*
X45087774Y-54535398D01*
X45093103Y-54535198D01*
X45093105Y-54535198D01*
X45202966Y-54531073D01*
X45318158Y-54526749D01*
X45323468Y-54525635D01*
X45538572Y-54480502D01*
X45543791Y-54479407D01*
X45548750Y-54477449D01*
X45548752Y-54477448D01*
X45753256Y-54396685D01*
X45753258Y-54396684D01*
X45758221Y-54394724D01*
X45763818Y-54391328D01*
X45950757Y-54277890D01*
X45950756Y-54277890D01*
X45955317Y-54275123D01*
X46036944Y-54204291D01*
X46125412Y-54127523D01*
X46125414Y-54127521D01*
X46129445Y-54124023D01*
X46187679Y-54053002D01*
X46272240Y-53949873D01*
X46272244Y-53949867D01*
X46275624Y-53945745D01*
X46366141Y-53786729D01*
X46417223Y-53737423D01*
X46486853Y-53723561D01*
X46539782Y-53740608D01*
X46568507Y-53757596D01*
X46613399Y-53784145D01*
X46621009Y-53786356D01*
X46621014Y-53786358D01*
X46740152Y-53820970D01*
X46799988Y-53859183D01*
X46829666Y-53923679D01*
X46831000Y-53941967D01*
X46831000Y-60390200D01*
X46810998Y-60458321D01*
X46757342Y-60504814D01*
X46705000Y-60516200D01*
X46575313Y-60516200D01*
X46568861Y-60517572D01*
X46568856Y-60517572D01*
X46525956Y-60526691D01*
X46455165Y-60521289D01*
X46398532Y-60478472D01*
X46384877Y-60455195D01*
X46345502Y-60367786D01*
X46345501Y-60367783D01*
X46343312Y-60362925D01*
X46337623Y-60354474D01*
X46306958Y-60308926D01*
X46214559Y-60171681D01*
X46182354Y-60137921D01*
X46126725Y-60079608D01*
X46055424Y-60004865D01*
X45870458Y-59867246D01*
X45865707Y-59864830D01*
X45865703Y-59864828D01*
X45743731Y-59802815D01*
X45664949Y-59762760D01*
X45659855Y-59761178D01*
X45659852Y-59761177D01*
X45449871Y-59695976D01*
X45444773Y-59694393D01*
X45423964Y-59691635D01*
X45221511Y-59664802D01*
X45221506Y-59664802D01*
X45216226Y-59664102D01*
X45210897Y-59664302D01*
X45210895Y-59664302D01*
X45112368Y-59668001D01*
X44985842Y-59672751D01*
X44980623Y-59673846D01*
X44976996Y-59674607D01*
X44760209Y-59720093D01*
X44755250Y-59722051D01*
X44755248Y-59722052D01*
X44550744Y-59802815D01*
X44550742Y-59802816D01*
X44545779Y-59804776D01*
X44541220Y-59807543D01*
X44541217Y-59807544D01*
X44423005Y-59879277D01*
X44348683Y-59924377D01*
X44344653Y-59927874D01*
X44336425Y-59935014D01*
X44271866Y-59964554D01*
X44201585Y-59954500D01*
X44164749Y-59928944D01*
X39824852Y-55589047D01*
X39817312Y-55580761D01*
X39813200Y-55574282D01*
X39802379Y-55564120D01*
X39763549Y-55527657D01*
X39760707Y-55524902D01*
X39740970Y-55505165D01*
X39737773Y-55502685D01*
X39728751Y-55494980D01*
X39702300Y-55470141D01*
X39696521Y-55464714D01*
X39689575Y-55460895D01*
X39689572Y-55460893D01*
X39678766Y-55454952D01*
X39662247Y-55444101D01*
X39661339Y-55443397D01*
X39646241Y-55431686D01*
X39638972Y-55428541D01*
X39638968Y-55428538D01*
X39605663Y-55414126D01*
X39595013Y-55408909D01*
X39556260Y-55387605D01*
X39536637Y-55382567D01*
X39517934Y-55376163D01*
X39506620Y-55371267D01*
X39506619Y-55371267D01*
X39499345Y-55368119D01*
X39491522Y-55366880D01*
X39491512Y-55366877D01*
X39455676Y-55361201D01*
X39444056Y-55358795D01*
X39408911Y-55349772D01*
X39408910Y-55349772D01*
X39401230Y-55347800D01*
X39380976Y-55347800D01*
X39361265Y-55346249D01*
X39349086Y-55344320D01*
X39341257Y-55343080D01*
X39333365Y-55343826D01*
X39297239Y-55347241D01*
X39285381Y-55347800D01*
X37274290Y-55347800D01*
X37206169Y-55327798D01*
X37159676Y-55274142D01*
X37149594Y-55203720D01*
X37163352Y-55108836D01*
X37163352Y-55108833D01*
X37164213Y-55102896D01*
X37154433Y-54891601D01*
X37105129Y-54687020D01*
X37108614Y-54616110D01*
X37149883Y-54558340D01*
X37215834Y-54532053D01*
X37227622Y-54531500D01*
X37379885Y-54531500D01*
X37395124Y-54527025D01*
X37396329Y-54525635D01*
X37398000Y-54517952D01*
X37398000Y-53320615D01*
X37393525Y-53305376D01*
X37392135Y-53304171D01*
X37384452Y-53302500D01*
X36312116Y-53302500D01*
X36296877Y-53306975D01*
X36295672Y-53308365D01*
X36294001Y-53316048D01*
X36294001Y-53814566D01*
X36273999Y-53882687D01*
X36220343Y-53929180D01*
X36160754Y-53938410D01*
X36160663Y-53940272D01*
X36156643Y-53940075D01*
X36156626Y-53940075D01*
X36155101Y-53940000D01*
X35999154Y-53940000D01*
X35841434Y-53955048D01*
X35638466Y-54014592D01*
X35633139Y-54017336D01*
X35633138Y-54017336D01*
X35455751Y-54108696D01*
X35455748Y-54108698D01*
X35450420Y-54111442D01*
X35284080Y-54242104D01*
X35280148Y-54246635D01*
X35280145Y-54246638D01*
X35203753Y-54334672D01*
X35145448Y-54401863D01*
X35142448Y-54407049D01*
X35142445Y-54407053D01*
X35065618Y-54539854D01*
X35014193Y-54588803D01*
X34944467Y-54602178D01*
X34878579Y-54575734D01*
X34867459Y-54565854D01*
X33885034Y-53583429D01*
X33851008Y-53521117D01*
X33856073Y-53450302D01*
X33898620Y-53393466D01*
X33963916Y-53368749D01*
X33969924Y-53368260D01*
X33980320Y-53367415D01*
X33990533Y-53367000D01*
X33998593Y-53367000D01*
X34011883Y-53365451D01*
X34026807Y-53363711D01*
X34031182Y-53363278D01*
X34096639Y-53357954D01*
X34096642Y-53357953D01*
X34103937Y-53357360D01*
X34110901Y-53355104D01*
X34116860Y-53353913D01*
X34122715Y-53352529D01*
X34129981Y-53351682D01*
X34198627Y-53326765D01*
X34202755Y-53325348D01*
X34265236Y-53305107D01*
X34265238Y-53305106D01*
X34272199Y-53302851D01*
X34278454Y-53299055D01*
X34283928Y-53296549D01*
X34289358Y-53293830D01*
X34296237Y-53291333D01*
X34315306Y-53278831D01*
X34357276Y-53251314D01*
X34360980Y-53248977D01*
X34423407Y-53211095D01*
X34431784Y-53203697D01*
X34431808Y-53203724D01*
X34434800Y-53201071D01*
X34438033Y-53198368D01*
X34444152Y-53194356D01*
X34497428Y-53138117D01*
X34499806Y-53135675D01*
X35242176Y-52393305D01*
X35304488Y-52359279D01*
X35331271Y-52356400D01*
X36168000Y-52356400D01*
X36236121Y-52376402D01*
G37*
%TD.AperFunction*%
%TA.AperFunction,Conductor*%
G36*
X52696021Y-52522202D02*
G01*
X52742514Y-52575858D01*
X52753900Y-52628200D01*
X52753900Y-53625205D01*
X52733898Y-53693326D01*
X52716995Y-53714300D01*
X51637747Y-54793548D01*
X51629461Y-54801088D01*
X51622982Y-54805200D01*
X51617557Y-54810977D01*
X51576357Y-54854851D01*
X51573602Y-54857693D01*
X51553865Y-54877430D01*
X51551385Y-54880627D01*
X51543682Y-54889647D01*
X51513414Y-54921879D01*
X51509595Y-54928825D01*
X51509593Y-54928828D01*
X51503652Y-54939634D01*
X51492801Y-54956153D01*
X51480386Y-54972159D01*
X51477241Y-54979428D01*
X51477238Y-54979432D01*
X51462826Y-55012737D01*
X51457609Y-55023387D01*
X51436305Y-55062140D01*
X51434334Y-55069815D01*
X51434334Y-55069816D01*
X51431267Y-55081762D01*
X51424863Y-55100466D01*
X51423812Y-55102896D01*
X51416819Y-55119055D01*
X51415580Y-55126878D01*
X51415577Y-55126888D01*
X51409901Y-55162724D01*
X51407495Y-55174344D01*
X51396500Y-55217170D01*
X51396500Y-55237424D01*
X51394948Y-55257138D01*
X51392639Y-55271714D01*
X51362225Y-55335866D01*
X51301956Y-55373392D01*
X51268191Y-55378000D01*
X50960115Y-55378000D01*
X50944876Y-55382475D01*
X50943671Y-55383865D01*
X50942000Y-55391548D01*
X50942000Y-57029000D01*
X50921998Y-57097121D01*
X50868342Y-57143614D01*
X50816000Y-57155000D01*
X50560000Y-57155000D01*
X50491879Y-57134998D01*
X50445386Y-57081342D01*
X50434000Y-57029000D01*
X50434000Y-55396116D01*
X50429525Y-55380877D01*
X50428135Y-55379672D01*
X50420452Y-55378001D01*
X50250400Y-55378001D01*
X50182279Y-55357999D01*
X50135786Y-55304343D01*
X50124400Y-55252001D01*
X50124400Y-54704571D01*
X50144402Y-54636450D01*
X50161305Y-54615476D01*
X52095111Y-52681670D01*
X52109523Y-52669284D01*
X52121118Y-52660751D01*
X52121123Y-52660746D01*
X52127018Y-52656408D01*
X52131757Y-52650830D01*
X52131760Y-52650827D01*
X52161235Y-52616132D01*
X52168165Y-52608616D01*
X52173861Y-52602920D01*
X52176124Y-52600059D01*
X52176129Y-52600054D01*
X52191485Y-52580644D01*
X52194273Y-52577243D01*
X52214167Y-52553826D01*
X52220289Y-52546620D01*
X52279637Y-52507656D01*
X52316314Y-52502200D01*
X52627900Y-52502200D01*
X52696021Y-52522202D01*
G37*
%TD.AperFunction*%
%TA.AperFunction,Conductor*%
G36*
X37820893Y-41670475D02*
G01*
X37841030Y-41686835D01*
X39561821Y-43407626D01*
X39595847Y-43469938D01*
X39590782Y-43540753D01*
X39548235Y-43597589D01*
X39538092Y-43604440D01*
X39433903Y-43667664D01*
X39348683Y-43719377D01*
X39344653Y-43722874D01*
X39213986Y-43836261D01*
X39174555Y-43870477D01*
X39171168Y-43874608D01*
X39144994Y-43906529D01*
X39086334Y-43946524D01*
X39015364Y-43948455D01*
X38954616Y-43911710D01*
X38940416Y-43892941D01*
X38853937Y-43753193D01*
X38844901Y-43741792D01*
X38730171Y-43627261D01*
X38718760Y-43618249D01*
X38580757Y-43533184D01*
X38567576Y-43527037D01*
X38413290Y-43475862D01*
X38399914Y-43472995D01*
X38305562Y-43463328D01*
X38299145Y-43463000D01*
X37924115Y-43463000D01*
X37908876Y-43467475D01*
X37907671Y-43468865D01*
X37906000Y-43476548D01*
X37906000Y-46410884D01*
X37910475Y-46426123D01*
X37911865Y-46427328D01*
X37919548Y-46428999D01*
X38299095Y-46428999D01*
X38305614Y-46428662D01*
X38401206Y-46418743D01*
X38414600Y-46415851D01*
X38568784Y-46364412D01*
X38581962Y-46358239D01*
X38719807Y-46272937D01*
X38731208Y-46263901D01*
X38845739Y-46149171D01*
X38854753Y-46137757D01*
X38940723Y-45998287D01*
X38993495Y-45950793D01*
X39063566Y-45939369D01*
X39128690Y-45967643D01*
X39139149Y-45977426D01*
X39248576Y-46092135D01*
X39433542Y-46229754D01*
X39438293Y-46232170D01*
X39438297Y-46232172D01*
X39500704Y-46263901D01*
X39639051Y-46334240D01*
X39644145Y-46335822D01*
X39644148Y-46335823D01*
X39799287Y-46383995D01*
X39859227Y-46402607D01*
X39864516Y-46403308D01*
X40082489Y-46432198D01*
X40082494Y-46432198D01*
X40087774Y-46432898D01*
X40093103Y-46432698D01*
X40093105Y-46432698D01*
X40212409Y-46428219D01*
X40318158Y-46424249D01*
X40323468Y-46423135D01*
X40510009Y-46383995D01*
X40543791Y-46376907D01*
X40548747Y-46374950D01*
X40548753Y-46374948D01*
X40670918Y-46326702D01*
X40741624Y-46320284D01*
X40804576Y-46353111D01*
X40839786Y-46414762D01*
X40843200Y-46443894D01*
X40843200Y-51545972D01*
X40823198Y-51614093D01*
X40769542Y-51660586D01*
X40699268Y-51670690D01*
X40669800Y-51662716D01*
X40669699Y-51662675D01*
X40664949Y-51660260D01*
X40444773Y-51591893D01*
X40423964Y-51589135D01*
X40221511Y-51562302D01*
X40221506Y-51562302D01*
X40216226Y-51561602D01*
X40210897Y-51561802D01*
X40210895Y-51561802D01*
X40101034Y-51565927D01*
X39985842Y-51570251D01*
X39854697Y-51597768D01*
X39783922Y-51592181D01*
X39739729Y-51563548D01*
X39285170Y-51108989D01*
X39272784Y-51094577D01*
X39264251Y-51082982D01*
X39264246Y-51082977D01*
X39259908Y-51077082D01*
X39254330Y-51072343D01*
X39254327Y-51072340D01*
X39219632Y-51042865D01*
X39212116Y-51035935D01*
X39206421Y-51030240D01*
X39190734Y-51017829D01*
X39184149Y-51012619D01*
X39180745Y-51009828D01*
X39130697Y-50967309D01*
X39130695Y-50967308D01*
X39125115Y-50962567D01*
X39118599Y-50959239D01*
X39113550Y-50955872D01*
X39108421Y-50952705D01*
X39102684Y-50948166D01*
X39036525Y-50917245D01*
X39032625Y-50915339D01*
X38967592Y-50882131D01*
X38960484Y-50880392D01*
X38954841Y-50878293D01*
X38949078Y-50876376D01*
X38942450Y-50873278D01*
X38870983Y-50858413D01*
X38866699Y-50857443D01*
X38832358Y-50849040D01*
X38795790Y-50840092D01*
X38790188Y-50839744D01*
X38790185Y-50839744D01*
X38784636Y-50839400D01*
X38784638Y-50839364D01*
X38780645Y-50839125D01*
X38776453Y-50838751D01*
X38769285Y-50837260D01*
X38705520Y-50838985D01*
X38691879Y-50839354D01*
X38688472Y-50839400D01*
X35031969Y-50839400D01*
X35013021Y-50837967D01*
X35005680Y-50836850D01*
X34998783Y-50835801D01*
X34998781Y-50835801D01*
X34991551Y-50834701D01*
X34984259Y-50835294D01*
X34984256Y-50835294D01*
X34938882Y-50838985D01*
X34928667Y-50839400D01*
X34920607Y-50839400D01*
X34907317Y-50840949D01*
X34892393Y-50842689D01*
X34888018Y-50843122D01*
X34822561Y-50848446D01*
X34822558Y-50848447D01*
X34815263Y-50849040D01*
X34808299Y-50851296D01*
X34802340Y-50852487D01*
X34796485Y-50853871D01*
X34789219Y-50854718D01*
X34720573Y-50879635D01*
X34716445Y-50881052D01*
X34653964Y-50901293D01*
X34653962Y-50901294D01*
X34647001Y-50903549D01*
X34640746Y-50907345D01*
X34635272Y-50909851D01*
X34629842Y-50912570D01*
X34622963Y-50915067D01*
X34616843Y-50919080D01*
X34616842Y-50919080D01*
X34605949Y-50926222D01*
X34561916Y-50955091D01*
X34558227Y-50957418D01*
X34549743Y-50962567D01*
X34500593Y-50992391D01*
X34500588Y-50992395D01*
X34495792Y-50995305D01*
X34487416Y-51002703D01*
X34487393Y-51002677D01*
X34484403Y-51005326D01*
X34481164Y-51008034D01*
X34475048Y-51012044D01*
X34470021Y-51017351D01*
X34470017Y-51017354D01*
X34421772Y-51068283D01*
X34419394Y-51070725D01*
X33817561Y-51672558D01*
X33755249Y-51706584D01*
X33684434Y-51701519D01*
X33635274Y-51668263D01*
X33583670Y-51611551D01*
X33506087Y-51550279D01*
X33412414Y-51476300D01*
X33412410Y-51476298D01*
X33408359Y-51473098D01*
X33212789Y-51365138D01*
X33207920Y-51363414D01*
X33207916Y-51363412D01*
X33007087Y-51292295D01*
X33007083Y-51292294D01*
X33002212Y-51290569D01*
X32997119Y-51289662D01*
X32997116Y-51289661D01*
X32787373Y-51252300D01*
X32787367Y-51252299D01*
X32782284Y-51251394D01*
X32708452Y-51250492D01*
X32564081Y-51248728D01*
X32564079Y-51248728D01*
X32558911Y-51248665D01*
X32338091Y-51282455D01*
X32150299Y-51343835D01*
X32079336Y-51345986D01*
X32018475Y-51309430D01*
X32002702Y-51288210D01*
X31987178Y-51261960D01*
X31987174Y-51261955D01*
X31983142Y-51255137D01*
X31968818Y-51240813D01*
X31955976Y-51225778D01*
X31944072Y-51209393D01*
X31910006Y-51181211D01*
X31901227Y-51173222D01*
X29609005Y-48881000D01*
X29574979Y-48818688D01*
X29572100Y-48791905D01*
X29572100Y-48475458D01*
X29592102Y-48407337D01*
X29645758Y-48360844D01*
X29716032Y-48350740D01*
X29730833Y-48353938D01*
X29733692Y-48355030D01*
X29738758Y-48356061D01*
X29738759Y-48356061D01*
X29777756Y-48363995D01*
X29952597Y-48399567D01*
X29957772Y-48399757D01*
X29957774Y-48399757D01*
X30170673Y-48407564D01*
X30170677Y-48407564D01*
X30175837Y-48407753D01*
X30180957Y-48407097D01*
X30180959Y-48407097D01*
X30392288Y-48380025D01*
X30392289Y-48380025D01*
X30397416Y-48379368D01*
X30438144Y-48367149D01*
X30606429Y-48316661D01*
X30606434Y-48316659D01*
X30611384Y-48315174D01*
X30811994Y-48216896D01*
X30993860Y-48087173D01*
X31026648Y-48054500D01*
X31137400Y-47944134D01*
X31152096Y-47929489D01*
X31188122Y-47879354D01*
X31282453Y-47748077D01*
X31283776Y-47749028D01*
X31330645Y-47705857D01*
X31400580Y-47693625D01*
X31466026Y-47721144D01*
X31493875Y-47752994D01*
X31553987Y-47851088D01*
X31700250Y-48019938D01*
X31872126Y-48162632D01*
X32065000Y-48275338D01*
X32069825Y-48277180D01*
X32069826Y-48277181D01*
X32142612Y-48304975D01*
X32273692Y-48355030D01*
X32278760Y-48356061D01*
X32278763Y-48356062D01*
X32386017Y-48377883D01*
X32492597Y-48399567D01*
X32497772Y-48399757D01*
X32497774Y-48399757D01*
X32710673Y-48407564D01*
X32710677Y-48407564D01*
X32715837Y-48407753D01*
X32720957Y-48407097D01*
X32720959Y-48407097D01*
X32932288Y-48380025D01*
X32932289Y-48380025D01*
X32937416Y-48379368D01*
X32978144Y-48367149D01*
X33146429Y-48316661D01*
X33146434Y-48316659D01*
X33151384Y-48315174D01*
X33351994Y-48216896D01*
X33533860Y-48087173D01*
X33566648Y-48054500D01*
X33677400Y-47944134D01*
X33692096Y-47929489D01*
X33728122Y-47879354D01*
X33818920Y-47752994D01*
X33822453Y-47748077D01*
X33832686Y-47727373D01*
X33919136Y-47552453D01*
X33919137Y-47552451D01*
X33921430Y-47547811D01*
X33986370Y-47334069D01*
X34015529Y-47112590D01*
X34015612Y-47109184D01*
X34017074Y-47049365D01*
X34017074Y-47049361D01*
X34017156Y-47046000D01*
X34004462Y-46891604D01*
X34939787Y-46891604D01*
X34949567Y-47102899D01*
X34950971Y-47108724D01*
X34950971Y-47108725D01*
X34997509Y-47301827D01*
X34999125Y-47308534D01*
X35001607Y-47313992D01*
X35001608Y-47313996D01*
X35043120Y-47405296D01*
X35086674Y-47501087D01*
X35156065Y-47598910D01*
X35191625Y-47649040D01*
X35209054Y-47673611D01*
X35361850Y-47819881D01*
X35539548Y-47934620D01*
X35599646Y-47958840D01*
X35730168Y-48011442D01*
X35730171Y-48011443D01*
X35735737Y-48013686D01*
X35943337Y-48054228D01*
X35948899Y-48054500D01*
X36104846Y-48054500D01*
X36262566Y-48039452D01*
X36465534Y-47979908D01*
X36549111Y-47936863D01*
X36648249Y-47885804D01*
X36648252Y-47885802D01*
X36653580Y-47883058D01*
X36819920Y-47752396D01*
X36823852Y-47747865D01*
X36823855Y-47747862D01*
X36954621Y-47597167D01*
X36958552Y-47592637D01*
X36961552Y-47587451D01*
X36961555Y-47587447D01*
X37061467Y-47414742D01*
X37064473Y-47409546D01*
X37133861Y-47209729D01*
X37135948Y-47195338D01*
X37163352Y-47006336D01*
X37163352Y-47006333D01*
X37164213Y-47000396D01*
X37154433Y-46789101D01*
X37105129Y-46584520D01*
X37108614Y-46513610D01*
X37149883Y-46455840D01*
X37215834Y-46429553D01*
X37227622Y-46429000D01*
X37379885Y-46429000D01*
X37395124Y-46424525D01*
X37396329Y-46423135D01*
X37398000Y-46415452D01*
X37398000Y-45218115D01*
X37393525Y-45202876D01*
X37392135Y-45201671D01*
X37384452Y-45200000D01*
X36312116Y-45200000D01*
X36296877Y-45204475D01*
X36295672Y-45205865D01*
X36294001Y-45213548D01*
X36294001Y-45712066D01*
X36273999Y-45780187D01*
X36220343Y-45826680D01*
X36160754Y-45835910D01*
X36160663Y-45837772D01*
X36156643Y-45837575D01*
X36156626Y-45837575D01*
X36155101Y-45837500D01*
X35999154Y-45837500D01*
X35841434Y-45852548D01*
X35638466Y-45912092D01*
X35633139Y-45914836D01*
X35633138Y-45914836D01*
X35455751Y-46006196D01*
X35455748Y-46006198D01*
X35450420Y-46008942D01*
X35284080Y-46139604D01*
X35280148Y-46144135D01*
X35280145Y-46144138D01*
X35194759Y-46242537D01*
X35145448Y-46299363D01*
X35142448Y-46304549D01*
X35142445Y-46304553D01*
X35060822Y-46445645D01*
X35039527Y-46482454D01*
X34970139Y-46682271D01*
X34969278Y-46688206D01*
X34969278Y-46688208D01*
X34943558Y-46865598D01*
X34939787Y-46891604D01*
X34004462Y-46891604D01*
X33999870Y-46835747D01*
X34014223Y-46766219D01*
X34036351Y-46736330D01*
X34460711Y-46311970D01*
X34475123Y-46299584D01*
X34486718Y-46291051D01*
X34486723Y-46291046D01*
X34492618Y-46286708D01*
X34497357Y-46281130D01*
X34497360Y-46281127D01*
X34526835Y-46246432D01*
X34533765Y-46238916D01*
X34539461Y-46233220D01*
X34541724Y-46230359D01*
X34541729Y-46230354D01*
X34557085Y-46210944D01*
X34559874Y-46207542D01*
X34602396Y-46157491D01*
X34602397Y-46157490D01*
X34607133Y-46151915D01*
X34610461Y-46145398D01*
X34613827Y-46140350D01*
X34616990Y-46135228D01*
X34621535Y-46129484D01*
X34652464Y-46063305D01*
X34654363Y-46059421D01*
X34687569Y-45994392D01*
X34689310Y-45987277D01*
X34691413Y-45981622D01*
X34693322Y-45975883D01*
X34696422Y-45969250D01*
X34711291Y-45897765D01*
X34712261Y-45893482D01*
X34712672Y-45891803D01*
X34729608Y-45822590D01*
X34730300Y-45811436D01*
X34730335Y-45811438D01*
X34730575Y-45807466D01*
X34730952Y-45803245D01*
X34732441Y-45796085D01*
X34730346Y-45718658D01*
X34730300Y-45715250D01*
X34730300Y-44673885D01*
X36294000Y-44673885D01*
X36298475Y-44689124D01*
X36299865Y-44690329D01*
X36307548Y-44692000D01*
X37379885Y-44692000D01*
X37395124Y-44687525D01*
X37396329Y-44686135D01*
X37398000Y-44678452D01*
X37398000Y-43481116D01*
X37393525Y-43465877D01*
X37392135Y-43464672D01*
X37384452Y-43463001D01*
X37004905Y-43463001D01*
X36998386Y-43463338D01*
X36902794Y-43473257D01*
X36889400Y-43476149D01*
X36735216Y-43527588D01*
X36722038Y-43533761D01*
X36584193Y-43619063D01*
X36572792Y-43628099D01*
X36458261Y-43742829D01*
X36449249Y-43754240D01*
X36364184Y-43892243D01*
X36358037Y-43905424D01*
X36306862Y-44059710D01*
X36303995Y-44073086D01*
X36294328Y-44167438D01*
X36294000Y-44173855D01*
X36294000Y-44673885D01*
X34730300Y-44673885D01*
X34730300Y-44045669D01*
X34731733Y-44026718D01*
X34731971Y-44025158D01*
X34734999Y-44005251D01*
X34730715Y-43952582D01*
X34730300Y-43942367D01*
X34730300Y-43934307D01*
X34727011Y-43906093D01*
X34726578Y-43901718D01*
X34721254Y-43836261D01*
X34721253Y-43836258D01*
X34720660Y-43828963D01*
X34718404Y-43821999D01*
X34717213Y-43816040D01*
X34715829Y-43810185D01*
X34714982Y-43802919D01*
X34690065Y-43734273D01*
X34688648Y-43730145D01*
X34668407Y-43667664D01*
X34668406Y-43667662D01*
X34666151Y-43660701D01*
X34662355Y-43654446D01*
X34659849Y-43648972D01*
X34657130Y-43643542D01*
X34654633Y-43636663D01*
X34636252Y-43608628D01*
X34614614Y-43575624D01*
X34612267Y-43571905D01*
X34611222Y-43570183D01*
X34574395Y-43509493D01*
X34566997Y-43501116D01*
X34567024Y-43501092D01*
X34564371Y-43498100D01*
X34561668Y-43494867D01*
X34557656Y-43488748D01*
X34501417Y-43435472D01*
X34498975Y-43433094D01*
X33889876Y-42823995D01*
X33855850Y-42761683D01*
X33860915Y-42690868D01*
X33903462Y-42634032D01*
X33969982Y-42609221D01*
X33978971Y-42608900D01*
X35354333Y-42608900D01*
X35365516Y-42609427D01*
X35373009Y-42611102D01*
X35380935Y-42610853D01*
X35380936Y-42610853D01*
X35441086Y-42608962D01*
X35445045Y-42608900D01*
X35472956Y-42608900D01*
X35476891Y-42608403D01*
X35476956Y-42608395D01*
X35488793Y-42607462D01*
X35521051Y-42606448D01*
X35525070Y-42606322D01*
X35532989Y-42606073D01*
X35552443Y-42600421D01*
X35571800Y-42596413D01*
X35584030Y-42594868D01*
X35584031Y-42594868D01*
X35591897Y-42593874D01*
X35599268Y-42590955D01*
X35599270Y-42590955D01*
X35633012Y-42577596D01*
X35644242Y-42573751D01*
X35679083Y-42563629D01*
X35679084Y-42563629D01*
X35686693Y-42561418D01*
X35693512Y-42557385D01*
X35693517Y-42557383D01*
X35704128Y-42551107D01*
X35721876Y-42542412D01*
X35740717Y-42534952D01*
X35776487Y-42508964D01*
X35786407Y-42502448D01*
X35817635Y-42483980D01*
X35817638Y-42483978D01*
X35824462Y-42479942D01*
X35838783Y-42465621D01*
X35853817Y-42452780D01*
X35863794Y-42445531D01*
X35870207Y-42440872D01*
X35898398Y-42406795D01*
X35906388Y-42398016D01*
X36109999Y-42194405D01*
X36172311Y-42160379D01*
X36199094Y-42157500D01*
X36997400Y-42157500D01*
X37000646Y-42157163D01*
X37000650Y-42157163D01*
X37096308Y-42147238D01*
X37096312Y-42147237D01*
X37103166Y-42146526D01*
X37109702Y-42144345D01*
X37109704Y-42144345D01*
X37241806Y-42100272D01*
X37270946Y-42090550D01*
X37421348Y-41997478D01*
X37546305Y-41872303D01*
X37574151Y-41827129D01*
X37635273Y-41727972D01*
X37635275Y-41727967D01*
X37639115Y-41721738D01*
X37639444Y-41720745D01*
X37684655Y-41669396D01*
X37752932Y-41649934D01*
X37820893Y-41670475D01*
G37*
%TD.AperFunction*%
%TA.AperFunction,Conductor*%
G36*
X47854321Y-41153502D02*
G01*
X47900814Y-41207158D01*
X47912200Y-41259500D01*
X47912200Y-49729205D01*
X47892198Y-49797326D01*
X47875295Y-49818301D01*
X47413999Y-50279596D01*
X47351687Y-50313621D01*
X47324904Y-50316500D01*
X47158000Y-50316500D01*
X47089879Y-50296498D01*
X47043386Y-50242842D01*
X47032000Y-50190500D01*
X47032000Y-41705594D01*
X47052002Y-41637473D01*
X47068905Y-41616499D01*
X47514999Y-41170405D01*
X47577311Y-41136379D01*
X47604094Y-41133500D01*
X47786200Y-41133500D01*
X47854321Y-41153502D01*
G37*
%TD.AperFunction*%
%TA.AperFunction,Conductor*%
G36*
X51269232Y-41462615D02*
G01*
X51326068Y-41505162D01*
X51350879Y-41571682D01*
X51351200Y-41580671D01*
X51351200Y-42552000D01*
X51331198Y-42620121D01*
X51277542Y-42666614D01*
X51225200Y-42678000D01*
X50970115Y-42678000D01*
X50954876Y-42682475D01*
X50953671Y-42683865D01*
X50952000Y-42691548D01*
X50952000Y-44329000D01*
X50931998Y-44397121D01*
X50878342Y-44443614D01*
X50826000Y-44455000D01*
X50570000Y-44455000D01*
X50501879Y-44434998D01*
X50455386Y-44381342D01*
X50444000Y-44329000D01*
X50444000Y-42696116D01*
X50439525Y-42680877D01*
X50438135Y-42679672D01*
X50430452Y-42678001D01*
X50253870Y-42678001D01*
X50185749Y-42657999D01*
X50139256Y-42604343D01*
X50129152Y-42534069D01*
X50158646Y-42469489D01*
X50164775Y-42462906D01*
X51136105Y-41491576D01*
X51198417Y-41457550D01*
X51269232Y-41462615D01*
G37*
%TD.AperFunction*%
%TA.AperFunction,Conductor*%
G36*
X35693627Y-18752102D02*
G01*
X35714601Y-18769005D01*
X39731000Y-22785405D01*
X39765026Y-22847717D01*
X39759961Y-22918533D01*
X39717414Y-22975368D01*
X39650894Y-23000179D01*
X39641905Y-23000500D01*
X38937600Y-23000500D01*
X38934354Y-23000837D01*
X38934350Y-23000837D01*
X38838692Y-23010762D01*
X38838688Y-23010763D01*
X38831834Y-23011474D01*
X38825298Y-23013655D01*
X38825296Y-23013655D01*
X38807603Y-23019558D01*
X38664054Y-23067450D01*
X38513652Y-23160522D01*
X38388695Y-23285697D01*
X38384855Y-23291927D01*
X38384854Y-23291928D01*
X38311011Y-23411724D01*
X38295885Y-23436262D01*
X38240203Y-23604139D01*
X38229500Y-23708600D01*
X38229500Y-25059400D01*
X38229837Y-25062646D01*
X38229837Y-25062650D01*
X38237987Y-25141192D01*
X38240474Y-25165166D01*
X38242655Y-25171702D01*
X38242655Y-25171704D01*
X38271088Y-25256926D01*
X38296450Y-25332946D01*
X38389522Y-25483348D01*
X38514697Y-25608305D01*
X38591471Y-25655629D01*
X38607116Y-25665273D01*
X38654609Y-25718045D01*
X38667000Y-25772533D01*
X38667000Y-27069440D01*
X38649453Y-27133579D01*
X38631816Y-27163402D01*
X38567355Y-27272399D01*
X38565144Y-27280010D01*
X38565143Y-27280012D01*
X38549972Y-27332231D01*
X38520938Y-27432169D01*
X38518000Y-27469498D01*
X38518000Y-27902502D01*
X38518193Y-27904950D01*
X38518193Y-27904958D01*
X38520135Y-27929625D01*
X38520938Y-27939831D01*
X38522732Y-27946006D01*
X38523890Y-27952345D01*
X38521118Y-27952851D01*
X38520965Y-28011558D01*
X38489257Y-28064839D01*
X32187595Y-34366500D01*
X32125283Y-34400526D01*
X32054468Y-34395461D01*
X31997632Y-34352914D01*
X31972821Y-34286394D01*
X31972500Y-34277405D01*
X31972500Y-29966563D01*
X31992502Y-29898442D01*
X32006650Y-29880310D01*
X32043158Y-29841433D01*
X32045913Y-29838591D01*
X32065634Y-29818870D01*
X32068112Y-29815675D01*
X32075818Y-29806653D01*
X32100658Y-29780201D01*
X32106086Y-29774421D01*
X32115846Y-29756668D01*
X32126699Y-29740145D01*
X32134253Y-29730406D01*
X32139113Y-29724141D01*
X32156676Y-29683557D01*
X32161883Y-29672927D01*
X32183195Y-29634160D01*
X32185166Y-29626483D01*
X32185168Y-29626478D01*
X32188232Y-29614542D01*
X32194638Y-29595830D01*
X32195814Y-29593114D01*
X32202681Y-29577245D01*
X32207532Y-29546621D01*
X32209597Y-29533581D01*
X32212004Y-29521960D01*
X32221028Y-29486811D01*
X32221028Y-29486810D01*
X32223000Y-29479130D01*
X32223000Y-29458869D01*
X32224551Y-29439158D01*
X32226479Y-29426985D01*
X32227719Y-29419157D01*
X32223559Y-29375146D01*
X32223000Y-29363289D01*
X32223000Y-25419867D01*
X32223527Y-25408684D01*
X32225202Y-25401191D01*
X32223062Y-25333100D01*
X32223000Y-25329143D01*
X32223000Y-25301244D01*
X32222496Y-25297253D01*
X32221563Y-25285411D01*
X32221043Y-25268840D01*
X32220174Y-25241211D01*
X32217962Y-25233597D01*
X32217961Y-25233592D01*
X32214523Y-25221759D01*
X32210512Y-25202395D01*
X32208967Y-25190164D01*
X32207974Y-25182303D01*
X32205057Y-25174936D01*
X32205056Y-25174931D01*
X32191698Y-25141192D01*
X32187854Y-25129965D01*
X32177730Y-25095122D01*
X32175518Y-25087507D01*
X32165207Y-25070072D01*
X32156512Y-25052324D01*
X32149052Y-25033483D01*
X32124899Y-25000238D01*
X32123064Y-24997713D01*
X32116548Y-24987793D01*
X32098080Y-24956565D01*
X32098078Y-24956562D01*
X32094042Y-24949738D01*
X32079721Y-24935417D01*
X32066880Y-24920383D01*
X32054972Y-24903993D01*
X32020895Y-24875802D01*
X32012116Y-24867812D01*
X30799296Y-23654992D01*
X30765270Y-23592680D01*
X30767833Y-23529270D01*
X30785164Y-23472227D01*
X30809232Y-23289412D01*
X30814450Y-23249782D01*
X30814451Y-23249775D01*
X30814887Y-23246460D01*
X30815574Y-23218361D01*
X30816464Y-23181946D01*
X30816464Y-23181941D01*
X30816546Y-23178581D01*
X30807219Y-23065132D01*
X30798311Y-22956783D01*
X30798310Y-22956777D01*
X30797887Y-22951632D01*
X30770001Y-22840611D01*
X30743672Y-22735789D01*
X30743671Y-22735785D01*
X30742413Y-22730778D01*
X30740354Y-22726042D01*
X30653672Y-22526687D01*
X30653670Y-22526684D01*
X30651612Y-22521950D01*
X30527923Y-22330756D01*
X30374668Y-22162331D01*
X30195963Y-22021199D01*
X30188849Y-22017272D01*
X30188006Y-22016421D01*
X30187131Y-22015840D01*
X30187251Y-22015659D01*
X30138876Y-21966842D01*
X30124100Y-21897400D01*
X30149214Y-21830994D01*
X30176568Y-21804383D01*
X30195103Y-21791162D01*
X30203504Y-21780462D01*
X30196515Y-21767306D01*
X29439812Y-21010603D01*
X29425868Y-21002989D01*
X29424035Y-21003120D01*
X29417420Y-21007371D01*
X28654510Y-21770281D01*
X28647750Y-21782661D01*
X28653031Y-21789715D01*
X28667698Y-21798286D01*
X28716422Y-21849924D01*
X28729493Y-21919707D01*
X28702762Y-21985479D01*
X28679781Y-22007834D01*
X28524463Y-22124450D01*
X28504444Y-22139481D01*
X28500872Y-22143219D01*
X28392653Y-22256464D01*
X28347120Y-22304111D01*
X28344206Y-22308383D01*
X28344205Y-22308384D01*
X28282491Y-22398854D01*
X28218797Y-22492226D01*
X28122921Y-22698773D01*
X28062067Y-22918206D01*
X28037869Y-23144631D01*
X28038166Y-23149783D01*
X28038166Y-23149787D01*
X28040450Y-23189389D01*
X28050977Y-23371968D01*
X28052112Y-23377005D01*
X28052113Y-23377011D01*
X28096917Y-23575822D01*
X28101039Y-23594112D01*
X28102983Y-23598898D01*
X28102984Y-23598903D01*
X28184767Y-23800309D01*
X28186711Y-23805096D01*
X28305692Y-23999255D01*
X28454786Y-24171374D01*
X28629989Y-24316830D01*
X28634440Y-24319431D01*
X28634450Y-24319438D01*
X28667266Y-24338614D01*
X28715989Y-24390253D01*
X28729059Y-24460036D01*
X28702326Y-24525808D01*
X28679353Y-24548156D01*
X28504444Y-24679481D01*
X28460656Y-24725303D01*
X28364121Y-24826321D01*
X28347120Y-24844111D01*
X28344206Y-24848383D01*
X28344205Y-24848384D01*
X28295091Y-24920383D01*
X28218797Y-25032226D01*
X28122921Y-25238773D01*
X28121539Y-25243755D01*
X28121539Y-25243756D01*
X28114583Y-25268840D01*
X28062067Y-25458206D01*
X28037869Y-25684631D01*
X28038166Y-25689783D01*
X28038166Y-25689787D01*
X28041090Y-25740500D01*
X28050977Y-25911968D01*
X28052112Y-25917005D01*
X28052113Y-25917011D01*
X28066964Y-25982908D01*
X28101039Y-26134112D01*
X28102983Y-26138898D01*
X28102984Y-26138903D01*
X28180586Y-26330012D01*
X28186711Y-26345096D01*
X28305692Y-26539255D01*
X28454786Y-26711374D01*
X28629989Y-26856830D01*
X28634440Y-26859431D01*
X28634450Y-26859438D01*
X28667266Y-26878614D01*
X28715989Y-26930253D01*
X28729059Y-27000036D01*
X28702326Y-27065808D01*
X28679353Y-27088156D01*
X28504444Y-27219481D01*
X28347120Y-27384111D01*
X28344206Y-27388383D01*
X28344205Y-27388384D01*
X28290548Y-27467042D01*
X28218797Y-27572226D01*
X28122921Y-27778773D01*
X28062067Y-27998206D01*
X28037869Y-28224631D01*
X28038166Y-28229783D01*
X28038166Y-28229787D01*
X28040904Y-28277268D01*
X28050977Y-28451968D01*
X28052112Y-28457005D01*
X28052113Y-28457011D01*
X28089362Y-28622296D01*
X28101039Y-28674112D01*
X28102983Y-28678898D01*
X28102984Y-28678903D01*
X28184767Y-28880309D01*
X28186711Y-28885096D01*
X28189410Y-28889500D01*
X28291701Y-29056423D01*
X28305692Y-29079255D01*
X28454786Y-29251374D01*
X28589589Y-29363289D01*
X28621046Y-29389405D01*
X28629989Y-29396830D01*
X28634440Y-29399431D01*
X28634450Y-29399438D01*
X28667266Y-29418614D01*
X28715989Y-29470253D01*
X28729059Y-29540036D01*
X28702326Y-29605808D01*
X28679353Y-29628156D01*
X28504444Y-29759481D01*
X28494880Y-29769489D01*
X28360824Y-29909771D01*
X28347120Y-29924111D01*
X28344206Y-29928383D01*
X28344205Y-29928384D01*
X28310359Y-29978001D01*
X28218797Y-30112226D01*
X28122921Y-30318773D01*
X28062067Y-30538206D01*
X28037869Y-30764631D01*
X28038166Y-30769783D01*
X28038166Y-30769787D01*
X28039432Y-30791738D01*
X28050977Y-30991968D01*
X28052112Y-30997005D01*
X28052113Y-30997011D01*
X28097264Y-31197362D01*
X28101039Y-31214112D01*
X28102983Y-31218898D01*
X28102984Y-31218903D01*
X28184767Y-31420309D01*
X28186711Y-31425096D01*
X28305692Y-31619255D01*
X28454786Y-31791374D01*
X28629989Y-31936830D01*
X28634440Y-31939431D01*
X28634450Y-31939438D01*
X28667266Y-31958614D01*
X28715989Y-32010253D01*
X28729059Y-32080036D01*
X28702326Y-32145808D01*
X28679353Y-32168156D01*
X28504444Y-32299481D01*
X28347120Y-32464111D01*
X28218797Y-32652226D01*
X28122921Y-32858773D01*
X28121539Y-32863755D01*
X28121539Y-32863756D01*
X28104493Y-32925221D01*
X28062067Y-33078206D01*
X28037869Y-33304631D01*
X28038166Y-33309783D01*
X28038166Y-33309787D01*
X28042187Y-33379528D01*
X28050977Y-33531968D01*
X28052112Y-33537005D01*
X28052113Y-33537011D01*
X28071822Y-33624465D01*
X28101039Y-33754112D01*
X28102983Y-33758898D01*
X28102984Y-33758903D01*
X28184767Y-33960309D01*
X28186711Y-33965096D01*
X28305692Y-34159255D01*
X28454786Y-34331374D01*
X28559695Y-34418471D01*
X28619138Y-34467821D01*
X28629989Y-34476830D01*
X28634441Y-34479432D01*
X28634446Y-34479435D01*
X28667733Y-34498886D01*
X28716456Y-34550525D01*
X28729527Y-34620308D01*
X28702795Y-34686080D01*
X28679813Y-34708435D01*
X28657890Y-34724895D01*
X28649436Y-34736221D01*
X28656180Y-34748551D01*
X29697115Y-35789486D01*
X29731141Y-35851798D01*
X29726076Y-35922613D01*
X29697115Y-35967676D01*
X28654510Y-37010281D01*
X28647750Y-37022661D01*
X28653031Y-37029715D01*
X28822353Y-37128659D01*
X28831640Y-37133109D01*
X29034638Y-37210626D01*
X29044540Y-37213503D01*
X29257456Y-37256821D01*
X29267708Y-37258044D01*
X29484847Y-37266006D01*
X29495145Y-37265538D01*
X29495296Y-37265519D01*
X29495357Y-37265529D01*
X29500309Y-37265304D01*
X29500355Y-37266326D01*
X29565405Y-37276706D01*
X29618337Y-37324022D01*
X29637300Y-37390498D01*
X29637300Y-38689500D01*
X29617298Y-38757621D01*
X29563642Y-38804114D01*
X29511300Y-38815500D01*
X28809998Y-38815500D01*
X28807553Y-38815692D01*
X28807539Y-38815693D01*
X28791800Y-38816932D01*
X28722320Y-38802335D01*
X28692820Y-38780415D01*
X28592265Y-38679860D01*
X28558239Y-38617548D01*
X28556016Y-38577922D01*
X28559236Y-38546498D01*
X28561500Y-38524400D01*
X28561500Y-37798600D01*
X28560743Y-37791306D01*
X28551238Y-37699692D01*
X28551237Y-37699688D01*
X28550526Y-37692834D01*
X28547468Y-37683666D01*
X28496868Y-37532002D01*
X28494550Y-37525054D01*
X28401478Y-37374652D01*
X28276303Y-37249695D01*
X28256944Y-37237762D01*
X28131968Y-37160725D01*
X28131966Y-37160724D01*
X28125738Y-37156885D01*
X28017970Y-37121140D01*
X27964389Y-37103368D01*
X27964387Y-37103368D01*
X27957861Y-37101203D01*
X27951025Y-37100503D01*
X27951022Y-37100502D01*
X27907969Y-37096091D01*
X27853400Y-37090500D01*
X26728600Y-37090500D01*
X26660479Y-37070498D01*
X26613986Y-37016842D01*
X26602600Y-36964500D01*
X26602600Y-35849800D01*
X28038668Y-35849800D01*
X28051176Y-36066731D01*
X28052612Y-36076951D01*
X28100382Y-36288920D01*
X28103461Y-36298748D01*
X28185215Y-36500083D01*
X28189858Y-36509274D01*
X28274334Y-36647127D01*
X28284790Y-36656587D01*
X28293568Y-36652803D01*
X29054978Y-35891393D01*
X29062592Y-35877449D01*
X29062461Y-35875616D01*
X29058210Y-35869001D01*
X28297922Y-35108713D01*
X28286386Y-35102413D01*
X28274104Y-35112036D01*
X28222143Y-35188208D01*
X28217058Y-35197159D01*
X28125571Y-35394252D01*
X28122008Y-35403939D01*
X28063942Y-35613317D01*
X28062011Y-35623437D01*
X28038920Y-35839511D01*
X28038668Y-35849800D01*
X26602600Y-35849800D01*
X26602600Y-21871094D01*
X26622602Y-21802973D01*
X26639505Y-21781999D01*
X27827585Y-20593919D01*
X27889897Y-20559893D01*
X27960712Y-20564958D01*
X28017548Y-20607505D01*
X28042471Y-20675761D01*
X28051176Y-20826730D01*
X28052612Y-20836951D01*
X28100382Y-21048920D01*
X28103461Y-21058748D01*
X28185215Y-21260083D01*
X28189858Y-21269274D01*
X28274334Y-21407127D01*
X28284790Y-21416587D01*
X28293568Y-21412803D01*
X29066658Y-20639713D01*
X29791408Y-20639713D01*
X29791539Y-20641546D01*
X29795790Y-20648161D01*
X30556320Y-21408691D01*
X30568330Y-21415250D01*
X30580069Y-21406282D01*
X30614625Y-21358192D01*
X30619936Y-21349353D01*
X30716206Y-21154564D01*
X30720005Y-21144968D01*
X30783170Y-20937072D01*
X30785349Y-20926991D01*
X30813949Y-20709756D01*
X30814468Y-20703083D01*
X30815962Y-20641946D01*
X30815768Y-20635227D01*
X30797816Y-20416875D01*
X30796131Y-20406695D01*
X30743196Y-20195952D01*
X30739876Y-20186201D01*
X30653229Y-19986924D01*
X30648362Y-19977849D01*
X30579083Y-19870759D01*
X30568398Y-19861556D01*
X30558831Y-19865960D01*
X29799022Y-20625769D01*
X29791408Y-20639713D01*
X29066658Y-20639713D01*
X30199115Y-19507256D01*
X30206136Y-19494400D01*
X30198607Y-19484067D01*
X30191161Y-19479120D01*
X30188880Y-19477861D01*
X30188137Y-19477111D01*
X30186853Y-19476258D01*
X30187029Y-19475993D01*
X30138908Y-19427430D01*
X30124134Y-19357987D01*
X30149249Y-19291581D01*
X30176602Y-19264972D01*
X30323893Y-19159911D01*
X30485193Y-18999173D01*
X30618073Y-18814250D01*
X30623992Y-18802274D01*
X30672103Y-18750068D01*
X30736949Y-18732100D01*
X35625506Y-18732100D01*
X35693627Y-18752102D01*
G37*
%TD.AperFunction*%
%TA.AperFunction,Conductor*%
G36*
X40163427Y-32177914D02*
G01*
X40220301Y-32220410D01*
X40245171Y-32286908D01*
X40245500Y-32296009D01*
X40245500Y-34354340D01*
X40225498Y-34422461D01*
X40171842Y-34468954D01*
X40101568Y-34479058D01*
X40077440Y-34473113D01*
X39946829Y-34426861D01*
X39946825Y-34426860D01*
X39941954Y-34425135D01*
X39936861Y-34424228D01*
X39936858Y-34424227D01*
X39722857Y-34386108D01*
X39722851Y-34386107D01*
X39717768Y-34385202D01*
X39630698Y-34384138D01*
X39495239Y-34382483D01*
X39495237Y-34382483D01*
X39490070Y-34382420D01*
X39264976Y-34416864D01*
X39048529Y-34487610D01*
X38846544Y-34592757D01*
X38842411Y-34595860D01*
X38842408Y-34595862D01*
X38679266Y-34718352D01*
X38664444Y-34729481D01*
X38598025Y-34798985D01*
X38527199Y-34873100D01*
X38507120Y-34894111D01*
X38420477Y-35021126D01*
X38365568Y-35066126D01*
X38295044Y-35074297D01*
X38231296Y-35043043D01*
X38210599Y-35018559D01*
X38199083Y-35000759D01*
X38188398Y-34991556D01*
X38178831Y-34995960D01*
X37136095Y-36038696D01*
X37073783Y-36072722D01*
X37002968Y-36067657D01*
X36957905Y-36038696D01*
X36776885Y-35857676D01*
X36742859Y-35795364D01*
X36747924Y-35724549D01*
X36776885Y-35679486D01*
X37819115Y-34637256D01*
X37826136Y-34624400D01*
X37818607Y-34614067D01*
X37811156Y-34609117D01*
X37620932Y-34504107D01*
X37611523Y-34499879D01*
X37406697Y-34427346D01*
X37396734Y-34424714D01*
X37182810Y-34386608D01*
X37172558Y-34385639D01*
X37041508Y-34384038D01*
X36973637Y-34363205D01*
X36927803Y-34308985D01*
X36918558Y-34238593D01*
X36948838Y-34174378D01*
X36953952Y-34168952D01*
X38720639Y-32402265D01*
X38782951Y-32368239D01*
X38822577Y-32366016D01*
X38876100Y-32371500D01*
X39601900Y-32371500D01*
X39605146Y-32371163D01*
X39605150Y-32371163D01*
X39700808Y-32361238D01*
X39700812Y-32361237D01*
X39707666Y-32360526D01*
X39714202Y-32358345D01*
X39714204Y-32358345D01*
X39868498Y-32306868D01*
X39875446Y-32304550D01*
X40025848Y-32211478D01*
X40031021Y-32206296D01*
X40036758Y-32201749D01*
X40037711Y-32202951D01*
X40092607Y-32172912D01*
X40163427Y-32177914D01*
G37*
%TD.AperFunction*%
%TD*%
M02*
