%TF.GenerationSoftware,KiCad,Pcbnew,(6.0.5-0)*%
%TF.CreationDate,2022-09-01T07:50:41+02:00*%
%TF.ProjectId,tiny-fan,74696e79-2d66-4616-9e2e-6b696361645f,rev?*%
%TF.SameCoordinates,Original*%
%TF.FileFunction,Copper,L1,Top*%
%TF.FilePolarity,Positive*%
%FSLAX46Y46*%
G04 Gerber Fmt 4.6, Leading zero omitted, Abs format (unit mm)*
G04 Created by KiCad (PCBNEW (6.0.5-0)) date 2022-09-01 07:50:41*
%MOMM*%
%LPD*%
G01*
G04 APERTURE LIST*
G04 Aperture macros list*
%AMRoundRect*
0 Rectangle with rounded corners*
0 $1 Rounding radius*
0 $2 $3 $4 $5 $6 $7 $8 $9 X,Y pos of 4 corners*
0 Add a 4 corners polygon primitive as box body*
4,1,4,$2,$3,$4,$5,$6,$7,$8,$9,$2,$3,0*
0 Add four circle primitives for the rounded corners*
1,1,$1+$1,$2,$3*
1,1,$1+$1,$4,$5*
1,1,$1+$1,$6,$7*
1,1,$1+$1,$8,$9*
0 Add four rect primitives between the rounded corners*
20,1,$1+$1,$2,$3,$4,$5,0*
20,1,$1+$1,$4,$5,$6,$7,0*
20,1,$1+$1,$6,$7,$8,$9,0*
20,1,$1+$1,$8,$9,$2,$3,0*%
G04 Aperture macros list end*
%TA.AperFunction,ComponentPad*%
%ADD10R,1.700000X1.700000*%
%TD*%
%TA.AperFunction,ComponentPad*%
%ADD11O,1.700000X1.700000*%
%TD*%
%TA.AperFunction,ComponentPad*%
%ADD12R,1.730000X2.030000*%
%TD*%
%TA.AperFunction,ComponentPad*%
%ADD13O,1.730000X2.030000*%
%TD*%
%TA.AperFunction,ComponentPad*%
%ADD14C,5.700000*%
%TD*%
%TA.AperFunction,ComponentPad*%
%ADD15RoundRect,0.250000X0.725000X-0.600000X0.725000X0.600000X-0.725000X0.600000X-0.725000X-0.600000X0*%
%TD*%
%TA.AperFunction,ComponentPad*%
%ADD16O,1.950000X1.700000*%
%TD*%
%TA.AperFunction,ComponentPad*%
%ADD17R,1.910000X1.910000*%
%TD*%
%TA.AperFunction,ComponentPad*%
%ADD18C,1.910000*%
%TD*%
%TA.AperFunction,ComponentPad*%
%ADD19R,2.600000X2.600000*%
%TD*%
%TA.AperFunction,ComponentPad*%
%ADD20C,2.600000*%
%TD*%
%TA.AperFunction,ComponentPad*%
%ADD21C,1.752600*%
%TD*%
%TA.AperFunction,ViaPad*%
%ADD22C,0.800000*%
%TD*%
%TA.AperFunction,Conductor*%
%ADD23C,0.500000*%
%TD*%
%TA.AperFunction,Conductor*%
%ADD24C,0.250000*%
%TD*%
G04 APERTURE END LIST*
D10*
%TO.P,J5,1,Pin_1*%
%TO.N,GND*%
X47625000Y-74168000D03*
D11*
%TO.P,J5,2,Pin_2*%
X50165000Y-74168000D03*
%TO.P,J5,3,Pin_3*%
X52705000Y-74168000D03*
%TO.P,J5,4,Pin_4*%
X55245000Y-74168000D03*
%TO.P,J5,5,Pin_5*%
X57785000Y-74168000D03*
%TO.P,J5,6,Pin_6*%
X60325000Y-74168000D03*
%TD*%
D10*
%TO.P,J4,1,Pin_1*%
%TO.N,AAUX1*%
X27178000Y-74168000D03*
D11*
%TO.P,J4,2,Pin_2*%
%TO.N,AUX4*%
X29718000Y-74168000D03*
%TO.P,J4,3,Pin_3*%
%TO.N,AUX5*%
X32258000Y-74168000D03*
%TO.P,J4,4,Pin_4*%
%TO.N,AUX6*%
X34798000Y-74168000D03*
%TO.P,J4,5,Pin_5*%
%TO.N,AUX7*%
X37338000Y-74168000D03*
%TO.P,J4,6,Pin_6*%
%TO.N,AUX8*%
X39878000Y-74168000D03*
%TD*%
D12*
%TO.P,FAN1,1,Pin_1*%
%TO.N,GND*%
X50698000Y-18801000D03*
D13*
%TO.P,FAN1,2,Pin_2*%
%TO.N,FAN1PWR*%
X53238000Y-18801000D03*
%TO.P,FAN1,3,Pin_3*%
%TO.N,FAN1RPM*%
X55778000Y-18801000D03*
%TO.P,FAN1,4,Pin_4*%
%TO.N,Net-(FAN1-Pad4)*%
X58318000Y-18801000D03*
%TD*%
D12*
%TO.P,FAN2,1,Pin_1*%
%TO.N,GND*%
X50698000Y-33228000D03*
D13*
%TO.P,FAN2,2,Pin_2*%
%TO.N,FAN2PWR*%
X53238000Y-33228000D03*
%TO.P,FAN2,3,Pin_3*%
%TO.N,FAN2RPM*%
X55778000Y-33228000D03*
%TO.P,FAN2,4,Pin_4*%
%TO.N,Net-(FAN2-Pad4)*%
X58318000Y-33228000D03*
%TD*%
D10*
%TO.P,J3,1,Pin_1*%
%TO.N,GND*%
X45522000Y-68585000D03*
D11*
%TO.P,J3,2,Pin_2*%
%TO.N,AUX3GND*%
X42982000Y-68585000D03*
%TO.P,J3,3,Pin_3*%
%TO.N,AUX3MPWR*%
X45522000Y-66045000D03*
%TO.P,J3,4,Pin_4*%
%TO.N,AUX3GND*%
X42982000Y-66045000D03*
%TD*%
D14*
%TO.P,REF2,1*%
%TO.N,GND*%
X17668000Y-69342000D03*
%TD*%
%TO.P,REF1,1*%
%TO.N,GND*%
X17668000Y-17531000D03*
%TD*%
D10*
%TO.P,J2,1,Pin_1*%
%TO.N,GND*%
X37419500Y-68585000D03*
D11*
%TO.P,J2,2,Pin_2*%
%TO.N,AUX2GND*%
X34879500Y-68585000D03*
%TO.P,J2,3,Pin_3*%
%TO.N,AUX2MPWR*%
X37419500Y-66045000D03*
%TO.P,J2,4,Pin_4*%
%TO.N,AUX2GND*%
X34879500Y-66045000D03*
%TD*%
D14*
%TO.P,REF4,1*%
%TO.N,GND*%
X66802000Y-69342000D03*
%TD*%
D15*
%TO.P,AUX1,1,Pin_1*%
%TO.N,AUX1GND*%
X27817000Y-50800000D03*
D16*
%TO.P,AUX1,2,Pin_2*%
%TO.N,AUX1PWR*%
X27817000Y-48300000D03*
%TO.P,AUX1,3,Pin_3*%
%TO.N,AUX1DATA*%
X27817000Y-45800000D03*
%TD*%
D10*
%TO.P,FAN3PWR1,1,Pin_1*%
%TO.N,+12V*%
X53198000Y-55626000D03*
D11*
%TO.P,FAN3PWR1,2,Pin_2*%
%TO.N,FAN3PWR*%
X55738000Y-55626000D03*
%TO.P,FAN3PWR1,3,Pin_3*%
%TO.N,+24V*%
X58278000Y-55626000D03*
%TD*%
D14*
%TO.P,REF3,1*%
%TO.N,GND*%
X66436000Y-26675000D03*
%TD*%
D12*
%TO.P,FAN3,1,Pin_1*%
%TO.N,GND*%
X50698000Y-47752000D03*
D13*
%TO.P,FAN3,2,Pin_2*%
%TO.N,FAN3PWR*%
X53238000Y-47752000D03*
%TO.P,FAN3,3,Pin_3*%
%TO.N,FAN3RPM*%
X55778000Y-47752000D03*
%TO.P,FAN3,4,Pin_4*%
%TO.N,Net-(FAN3-Pad4)*%
X58318000Y-47752000D03*
%TD*%
D10*
%TO.P,J1,1,Pin_1*%
%TO.N,GND*%
X29317000Y-68585000D03*
D11*
%TO.P,J1,2,Pin_2*%
%TO.N,AUX1GND*%
X26777000Y-68585000D03*
%TO.P,J1,3,Pin_3*%
%TO.N,AUX1MPWR*%
X29317000Y-66045000D03*
%TO.P,J1,4,Pin_4*%
%TO.N,AUX1GND*%
X26777000Y-66045000D03*
%TD*%
D15*
%TO.P,AUX3,1,Pin_1*%
%TO.N,AUX3GND*%
X44022000Y-50800000D03*
D16*
%TO.P,AUX3,2,Pin_2*%
%TO.N,AUX3PWR*%
X44022000Y-48300000D03*
%TO.P,AUX3,3,Pin_3*%
%TO.N,AUX3DATA*%
X44022000Y-45800000D03*
%TD*%
D17*
%TO.P,U1,1,IN*%
%TO.N,+24V*%
X16504000Y-48169500D03*
D18*
%TO.P,U1,2,GND*%
%TO.N,GND*%
X16504000Y-50719500D03*
%TO.P,U1,3,OUT*%
%TO.N,+12V*%
X16504000Y-53269500D03*
%TD*%
D10*
%TO.P,AUX2PWR1,1,Pin_1*%
%TO.N,+5V*%
X37419500Y-61517500D03*
D11*
%TO.P,AUX2PWR1,2,Pin_2*%
%TO.N,AUX2PWR*%
X34879500Y-61517500D03*
%TO.P,AUX2PWR1,3,Pin_3*%
%TO.N,+12V*%
X37419500Y-58977500D03*
%TO.P,AUX2PWR1,4,Pin_4*%
%TO.N,AUX2PWR*%
X34879500Y-58977500D03*
%TO.P,AUX2PWR1,5,Pin_5*%
%TO.N,+24V*%
X37419500Y-56437500D03*
%TO.P,AUX2PWR1,6,Pin_6*%
%TO.N,AUX2PWR*%
X34879500Y-56437500D03*
%TD*%
D10*
%TO.P,AUX1PWR1,1,Pin_1*%
%TO.N,+5V*%
X29317000Y-61517500D03*
D11*
%TO.P,AUX1PWR1,2,Pin_2*%
%TO.N,AUX1PWR*%
X26777000Y-61517500D03*
%TO.P,AUX1PWR1,3,Pin_3*%
%TO.N,+12V*%
X29317000Y-58977500D03*
%TO.P,AUX1PWR1,4,Pin_4*%
%TO.N,AUX1PWR*%
X26777000Y-58977500D03*
%TO.P,AUX1PWR1,5,Pin_5*%
%TO.N,+24V*%
X29317000Y-56437500D03*
%TO.P,AUX1PWR1,6,Pin_6*%
%TO.N,AUX1PWR*%
X26777000Y-56437500D03*
%TD*%
D15*
%TO.P,AUX2,1,Pin_1*%
%TO.N,AUX2GND*%
X35919500Y-50800000D03*
D16*
%TO.P,AUX2,2,Pin_2*%
%TO.N,AUX2PWR*%
X35919500Y-48300000D03*
%TO.P,AUX2,3,Pin_3*%
%TO.N,AUX2DATA*%
X35919500Y-45800000D03*
%TD*%
D19*
%TO.P,5VIN1,1,Pin_1*%
%TO.N,+5V*%
X19751000Y-40142000D03*
D20*
%TO.P,5VIN1,2,Pin_2*%
%TO.N,GND*%
X19751000Y-35062000D03*
%TD*%
D21*
%TO.P,U2,0,GP0*%
%TO.N,FAN1PWM*%
X44398000Y-16482781D03*
%TO.P,U2,1,GP1*%
%TO.N,FAN2PWM*%
X44398000Y-19022781D03*
%TO.P,U2,2,GP2*%
%TO.N,FAN3PWM*%
X44398000Y-21562781D03*
%TO.P,U2,3,GP3*%
%TO.N,FAN4PWM*%
X44398000Y-24102781D03*
%TO.P,U2,4,GP4*%
%TO.N,AUX1PWM*%
X44398000Y-26642781D03*
%TO.P,U2,5,GP5*%
%TO.N,AUX2PWM*%
X44398000Y-29182781D03*
%TO.P,U2,6,GP6*%
%TO.N,AUX3PWM*%
X44398000Y-31722781D03*
%TO.P,U2,7,GP7*%
%TO.N,FAN1RPM*%
X44398000Y-34262781D03*
%TO.P,U2,8,GP8*%
%TO.N,FAN2RPM*%
X44398000Y-36802781D03*
%TO.P,U2,9,GP9*%
%TO.N,FAN3RPM*%
X41858000Y-36802781D03*
%TO.P,U2,10,GP10*%
%TO.N,FAN4RPM*%
X39318000Y-36802781D03*
%TO.P,U2,11,GP11*%
%TO.N,AUX4*%
X36778000Y-36802781D03*
%TO.P,U2,12,GP12*%
%TO.N,AUX5*%
X34238000Y-36802781D03*
%TO.P,U2,13,GP13*%
%TO.N,AUX6*%
X31698000Y-36802781D03*
%TO.P,U2,14,GP14*%
%TO.N,AUX7*%
X29158000Y-36802781D03*
%TO.P,U2,15,GP15*%
%TO.N,AUX8*%
X29158000Y-34262781D03*
%TO.P,U2,26,GP26*%
%TO.N,AUX1DATA*%
X29158000Y-31722781D03*
%TO.P,U2,27,GP27*%
%TO.N,AUX2DATA*%
X29158000Y-29182781D03*
%TO.P,U2,28,GP28*%
%TO.N,AUX3DATA*%
X29158000Y-26642781D03*
%TO.P,U2,29,GP29*%
%TO.N,AAUX1*%
X29158000Y-24102781D03*
%TO.P,U2,30,3V3*%
%TO.N,+3V3*%
X29158000Y-21562781D03*
%TO.P,U2,31,GND*%
%TO.N,GND*%
X29158000Y-19022781D03*
%TO.P,U2,32,VBUS*%
%TO.N,+5VA*%
X29158000Y-16482781D03*
%TD*%
D10*
%TO.P,AUX3PWR1,1,Pin_1*%
%TO.N,+5V*%
X45522000Y-61517500D03*
D11*
%TO.P,AUX3PWR1,2,Pin_2*%
%TO.N,AUX3PWR*%
X42982000Y-61517500D03*
%TO.P,AUX3PWR1,3,Pin_3*%
%TO.N,+12V*%
X45522000Y-58977500D03*
%TO.P,AUX3PWR1,4,Pin_4*%
%TO.N,AUX3PWR*%
X42982000Y-58977500D03*
%TO.P,AUX3PWR1,5,Pin_5*%
%TO.N,+24V*%
X45522000Y-56437500D03*
%TO.P,AUX3PWR1,6,Pin_6*%
%TO.N,AUX3PWR*%
X42982000Y-56437500D03*
%TD*%
D10*
%TO.P,FAN2PWR1,1,Pin_1*%
%TO.N,+12V*%
X53198000Y-41021000D03*
D11*
%TO.P,FAN2PWR1,2,Pin_2*%
%TO.N,FAN2PWR*%
X55738000Y-41021000D03*
%TO.P,FAN2PWR1,3,Pin_3*%
%TO.N,+24V*%
X58278000Y-41021000D03*
%TD*%
D12*
%TO.P,FAN4,1,Pin_1*%
%TO.N,GND*%
X50556000Y-61930000D03*
D13*
%TO.P,FAN4,2,Pin_2*%
%TO.N,FAN4PWR*%
X53096000Y-61930000D03*
%TO.P,FAN4,3,Pin_3*%
%TO.N,FAN4RPM*%
X55636000Y-61930000D03*
%TO.P,FAN4,4,Pin_4*%
%TO.N,Net-(FAN4-Pad4)*%
X58176000Y-61930000D03*
%TD*%
D19*
%TO.P,24VIN1,1,Pin_1*%
%TO.N,+24V*%
X19751000Y-28966000D03*
D20*
%TO.P,24VIN1,2,Pin_2*%
%TO.N,GND*%
X19751000Y-23886000D03*
%TD*%
D10*
%TO.P,FAN1PWR1,1,Pin_1*%
%TO.N,+12V*%
X53198000Y-26575000D03*
D11*
%TO.P,FAN1PWR1,2,Pin_2*%
%TO.N,FAN1PWR*%
X55738000Y-26575000D03*
%TO.P,FAN1PWR1,3,Pin_3*%
%TO.N,+24V*%
X58278000Y-26575000D03*
%TD*%
D10*
%TO.P,FAN4PWR1,1,Pin_1*%
%TO.N,+12V*%
X53198000Y-69723000D03*
D11*
%TO.P,FAN4PWR1,2,Pin_2*%
%TO.N,FAN4PWR*%
X55738000Y-69723000D03*
%TO.P,FAN4PWR1,3,Pin_3*%
%TO.N,+24V*%
X58278000Y-69723000D03*
%TD*%
D22*
%TO.N,+5V*%
X19751000Y-62861500D03*
%TO.N,GND*%
X66506500Y-20894600D03*
%TO.N,+3V3*%
X64173500Y-66066500D03*
X64173500Y-51422300D03*
%TO.N,FAN4RPM*%
X45320200Y-44845700D03*
X55636000Y-58380000D03*
X48149700Y-58380000D03*
%TO.N,FAN4PWM*%
X57637700Y-67791800D03*
%TO.N,FAN3PWM*%
X48476500Y-44195800D03*
%TO.N,FAN2PWM*%
X47751200Y-37626700D03*
%TO.N,AUX2PWR*%
X33755400Y-54505300D03*
%TO.N,AUX2PWM*%
X49857000Y-42503200D03*
%TO.N,AUX3PWM*%
X46990900Y-15299600D03*
X67081200Y-19050000D03*
X70797700Y-52117100D03*
%TO.N,+5VA*%
X51586300Y-65514100D03*
X46265100Y-24757600D03*
X53852800Y-52578000D03*
X51214900Y-38975200D03*
X54373300Y-38302900D03*
%TO.N,Net-(FAN3-Pad4)*%
X57559900Y-52116700D03*
%TO.N,AUX1MPWR*%
X61088700Y-40824300D03*
%TO.N,AUX2GND*%
X40085500Y-56357700D03*
%TO.N,AUX3GND*%
X47573600Y-59775000D03*
%TO.N,AUX2MPWR*%
X60647900Y-46482000D03*
%TO.N,AUX7*%
X24748900Y-36802800D03*
X28022800Y-71893900D03*
%TD*%
D23*
%TO.N,+5V*%
X37419500Y-61517500D02*
X38719800Y-61517500D01*
X45522000Y-61517500D02*
X44221700Y-62817800D01*
X19751000Y-40142000D02*
X19751000Y-62861500D01*
X44221700Y-62817800D02*
X40020100Y-62817800D01*
X40020100Y-62817800D02*
X38719800Y-61517500D01*
%TO.N,GND*%
X17909400Y-49314100D02*
X17909400Y-36903600D01*
X19751000Y-23886000D02*
X17668000Y-21803000D01*
X17668000Y-69342000D02*
X17932900Y-69077100D01*
X66436000Y-20965100D02*
X66506500Y-20894600D01*
X16504000Y-50719500D02*
X17909400Y-49314100D01*
X66436000Y-26675000D02*
X66436000Y-20965100D01*
X17932900Y-69077100D02*
X17932900Y-52148400D01*
X17668000Y-21803000D02*
X17668000Y-17531000D01*
X17909400Y-36903600D02*
X19751000Y-35062000D01*
X19751000Y-35062000D02*
X21519800Y-33293200D01*
X21519800Y-25654800D02*
X19751000Y-23886000D01*
X21519800Y-33293200D02*
X21519800Y-25654800D01*
X17932900Y-52148400D02*
X16504000Y-50719500D01*
D24*
%TO.N,+3V3*%
X64173500Y-51422300D02*
X64173500Y-66066500D01*
%TO.N,FAN4RPM*%
X45320200Y-44845700D02*
X48149700Y-47675200D01*
X48149700Y-47675200D02*
X48149700Y-58380000D01*
X55636000Y-61930000D02*
X55636000Y-58380000D01*
%TO.N,FAN1RPM*%
X54587700Y-18280200D02*
X50874900Y-14567400D01*
X42247200Y-21970600D02*
X42247200Y-32112000D01*
X42247200Y-32112000D02*
X44398000Y-34262800D01*
X55778000Y-18801000D02*
X54587700Y-18801000D01*
X44884800Y-20292800D02*
X43925000Y-20292800D01*
X45773300Y-15478700D02*
X45773300Y-19404300D01*
X45773300Y-19404300D02*
X44884800Y-20292800D01*
X54587700Y-18801000D02*
X54587700Y-18280200D01*
X50874900Y-14567400D02*
X46684600Y-14567400D01*
X46684600Y-14567400D02*
X45773300Y-15478700D01*
X43925000Y-20292800D02*
X42247200Y-21970600D01*
%TO.N,FAN4PWM*%
X56985500Y-67139600D02*
X56985500Y-52568000D01*
X56834600Y-51816300D02*
X56985500Y-51665400D01*
X56985500Y-51665400D02*
X56985500Y-30275700D01*
X56985500Y-52568000D02*
X56834600Y-52417100D01*
X57637700Y-67791800D02*
X56985500Y-67139600D01*
X56985500Y-30275700D02*
X54373400Y-27663600D01*
X54373400Y-25521300D02*
X52884400Y-24032300D01*
X44468500Y-24032300D02*
X44398000Y-24102800D01*
X56834600Y-52417100D02*
X56834600Y-51816300D01*
X52884400Y-24032300D02*
X44468500Y-24032300D01*
X54373400Y-27663600D02*
X54373400Y-25521300D01*
%TO.N,FAN3PWM*%
X45599600Y-33760900D02*
X45599600Y-34449300D01*
X44398000Y-21562800D02*
X42697500Y-23263300D01*
X45599600Y-34449300D02*
X48476500Y-37326200D01*
X43973000Y-33061100D02*
X44899800Y-33061100D01*
X48476500Y-37326200D02*
X48476500Y-44195800D01*
X44899800Y-33061100D02*
X45599600Y-33760900D01*
X42697500Y-23263300D02*
X42697500Y-31785600D01*
X42697500Y-31785600D02*
X43973000Y-33061100D01*
%TO.N,FAN2PWM*%
X44003600Y-35601100D02*
X41783200Y-33380700D01*
X41783200Y-21637600D02*
X44398000Y-19022800D01*
X45725600Y-35601100D02*
X44003600Y-35601100D01*
X47751200Y-37626700D02*
X45725600Y-35601100D01*
X41783200Y-33380700D02*
X41783200Y-21637600D01*
D23*
%TO.N,+24V*%
X59670800Y-41763600D02*
X59670800Y-52932900D01*
X58278000Y-27875300D02*
X59670800Y-29268100D01*
X58278000Y-26575000D02*
X58278000Y-27875300D01*
X59670800Y-38327900D02*
X58278000Y-39720700D01*
X29317000Y-56437500D02*
X30617300Y-56437500D01*
X58278000Y-41021000D02*
X58278000Y-40370800D01*
X59518500Y-58166800D02*
X58278000Y-56926300D01*
X58278000Y-68422700D02*
X59518500Y-67182200D01*
X58278000Y-69723000D02*
X58278000Y-68422700D01*
X34326200Y-55137100D02*
X36119100Y-55137100D01*
X59670800Y-52932900D02*
X58278000Y-54325700D01*
X59518500Y-67182200D02*
X59518500Y-58166800D01*
X58278000Y-40370800D02*
X59670800Y-41763600D01*
X30617300Y-56437500D02*
X33025800Y-56437500D01*
X33025800Y-56437500D02*
X34326200Y-55137100D01*
X16504000Y-33963300D02*
X16504000Y-48169500D01*
X58278000Y-55626000D02*
X58278000Y-56926300D01*
X58278000Y-55626000D02*
X58278000Y-54325700D01*
X59670800Y-29268100D02*
X59670800Y-38327900D01*
X58278000Y-40370800D02*
X58278000Y-39720700D01*
X36119100Y-55137100D02*
X37419500Y-56437500D01*
X19751000Y-28966000D02*
X19751000Y-30716300D01*
X19751000Y-30716300D02*
X16504000Y-33963300D01*
%TO.N,+12V*%
X46871700Y-43995400D02*
X47922400Y-45046100D01*
X30617300Y-59140000D02*
X34995500Y-63518200D01*
X43835600Y-43995400D02*
X46871700Y-43995400D01*
X53198000Y-26575000D02*
X53198000Y-27875300D01*
X48940600Y-45046100D02*
X48940600Y-50068300D01*
X47559300Y-61014800D02*
X45522000Y-58977500D01*
X47559300Y-61014800D02*
X49000000Y-59574100D01*
X53198000Y-27875300D02*
X49328200Y-31745100D01*
X30617300Y-58977500D02*
X30617300Y-59140000D01*
X53198000Y-55626000D02*
X53198000Y-54325700D01*
X48940600Y-50068300D02*
X53198000Y-54325700D01*
X47559300Y-61014800D02*
X47559300Y-63518200D01*
X49000000Y-59574100D02*
X49000000Y-58523700D01*
X47559300Y-63518200D02*
X52463800Y-68422700D01*
X41175700Y-56521600D02*
X41175700Y-46655300D01*
X38719800Y-58977500D02*
X41175700Y-56521600D01*
X53198000Y-39720700D02*
X50715200Y-42203500D01*
X34995500Y-63518200D02*
X47559300Y-63518200D01*
X41175700Y-46655300D02*
X43835600Y-43995400D01*
X49328200Y-31745100D02*
X49328200Y-35850900D01*
X47922400Y-45046100D02*
X48940600Y-45046100D01*
X53198000Y-41021000D02*
X53198000Y-39720700D01*
X50715200Y-43271500D02*
X48940600Y-45046100D01*
X53198000Y-69723000D02*
X53198000Y-68422700D01*
X52463800Y-68422700D02*
X53198000Y-68422700D01*
X50715200Y-42203500D02*
X50715200Y-43271500D01*
X49328200Y-35850900D02*
X53198000Y-39720700D01*
X37419500Y-58977500D02*
X38719800Y-58977500D01*
X29317000Y-58977500D02*
X30617300Y-58977500D01*
X49000000Y-58523700D02*
X53198000Y-54325700D01*
%TO.N,FAN1PWR*%
X53238000Y-22774700D02*
X55738000Y-25274700D01*
X55738000Y-26575000D02*
X55738000Y-25274700D01*
X53238000Y-18801000D02*
X53238000Y-22774700D01*
%TO.N,FAN2PWR*%
X55738000Y-35728000D02*
X53238000Y-33228000D01*
X55738000Y-41021000D02*
X55738000Y-35728000D01*
%TO.N,FAN3PWR*%
X55738000Y-55626000D02*
X55738000Y-50252000D01*
X55738000Y-50252000D02*
X53238000Y-47752000D01*
%TO.N,FAN4PWR*%
X55738000Y-69723000D02*
X55738000Y-68422700D01*
X55738000Y-68422700D02*
X53096000Y-65780700D01*
X53096000Y-65780700D02*
X53096000Y-61930000D01*
%TO.N,AUX1PWR*%
X26777000Y-54217500D02*
X29259000Y-51735500D01*
X26777000Y-56437500D02*
X26777000Y-54217500D01*
X29259000Y-51735500D02*
X29259000Y-49742000D01*
X29259000Y-49742000D02*
X27817000Y-48300000D01*
X26777000Y-61517500D02*
X26777000Y-58977500D01*
X26777000Y-58977500D02*
X26777000Y-56437500D01*
%TO.N,AUX2PWR*%
X33755400Y-50464100D02*
X35919500Y-48300000D01*
X34879500Y-58977500D02*
X34879500Y-61517500D01*
X33755400Y-54505300D02*
X33755400Y-50464100D01*
X34879500Y-56437500D02*
X34879500Y-58977500D01*
%TO.N,AUX3PWR*%
X42982000Y-56437500D02*
X42982000Y-55137200D01*
X42562300Y-54717500D02*
X42562300Y-49759700D01*
X42982000Y-55137200D02*
X42562300Y-54717500D01*
X42982000Y-58977500D02*
X42982000Y-56437500D01*
X42982000Y-61517500D02*
X42982000Y-58977500D01*
X42562300Y-49759700D02*
X44022000Y-48300000D01*
D24*
%TO.N,AUX1DATA*%
X27817000Y-45800000D02*
X27817000Y-44624700D01*
X27432600Y-44240300D02*
X27817000Y-44624700D01*
X27432600Y-33448200D02*
X27432600Y-44240300D01*
X29158000Y-31722800D02*
X27432600Y-33448200D01*
%TO.N,AUX2DATA*%
X35919500Y-45800000D02*
X35919500Y-44624700D01*
X29158000Y-29182800D02*
X30866700Y-29182800D01*
X37981500Y-42562700D02*
X35919500Y-44624700D01*
X30866700Y-29182800D02*
X37981500Y-36297600D01*
X37981500Y-36297600D02*
X37981500Y-42562700D01*
%TO.N,AUX2PWM*%
X46050000Y-34262800D02*
X46050000Y-30834800D01*
X46050000Y-30834800D02*
X44398000Y-29182800D01*
X49857000Y-38069800D02*
X46050000Y-34262800D01*
X49857000Y-42503200D02*
X49857000Y-38069800D01*
%TO.N,AUX3PWM*%
X43889500Y-22832800D02*
X44843200Y-22832800D01*
X43147800Y-30472600D02*
X43147800Y-23574500D01*
X46990900Y-20685100D02*
X46990900Y-15299600D01*
X70797700Y-22766500D02*
X70797700Y-52117100D01*
X44398000Y-31722800D02*
X43147800Y-30472600D01*
X43147800Y-23574500D02*
X43889500Y-22832800D01*
X67081200Y-19050000D02*
X70797700Y-22766500D01*
X44843200Y-22832800D02*
X46990900Y-20685100D01*
%TO.N,+5VA*%
X51746400Y-65354000D02*
X51746400Y-61395800D01*
X53852800Y-52578000D02*
X52003600Y-50728800D01*
X54373300Y-43771700D02*
X54373300Y-38302900D01*
X54373400Y-53098600D02*
X53852800Y-52578000D01*
X51214900Y-38790800D02*
X48055900Y-35631800D01*
X48055900Y-35631800D02*
X48055900Y-26548400D01*
X51586300Y-65514100D02*
X51746400Y-65354000D01*
X51746400Y-61395800D02*
X54373400Y-58768800D01*
X54373400Y-58768800D02*
X54373400Y-53098600D01*
X52003600Y-46141400D02*
X54373300Y-43771700D01*
X51214900Y-38975200D02*
X51214900Y-38790800D01*
X52003600Y-50728800D02*
X52003600Y-46141400D01*
X48055900Y-26548400D02*
X46265100Y-24757600D01*
D23*
%TO.N,AUX1GND*%
X26777000Y-68585000D02*
X26777000Y-66045000D01*
X25473300Y-63441000D02*
X25473300Y-53143700D01*
X26777000Y-64744700D02*
X25473300Y-63441000D01*
X26777000Y-66045000D02*
X26777000Y-64744700D01*
X25473300Y-53143700D02*
X27817000Y-50800000D01*
D24*
%TO.N,Net-(FAN3-Pad4)*%
X58318000Y-49092300D02*
X57559900Y-49850400D01*
X57559900Y-49850400D02*
X57559900Y-52116700D01*
X58318000Y-47752000D02*
X58318000Y-49092300D01*
D23*
%TO.N,AUX1MPWR*%
X61513200Y-69350100D02*
X61513200Y-41248800D01*
X29317000Y-66045000D02*
X30617300Y-66045000D01*
X59127200Y-71736100D02*
X61513200Y-69350100D01*
X61513200Y-41248800D02*
X61088700Y-40824300D01*
X30617300Y-66045000D02*
X30617300Y-66207500D01*
X36145900Y-71736100D02*
X59127200Y-71736100D01*
X30617300Y-66207500D02*
X36145900Y-71736100D01*
%TO.N,AUX2GND*%
X34879500Y-66045000D02*
X34879500Y-68585000D01*
X35919500Y-52191700D02*
X40085500Y-56357700D01*
X35919500Y-50800000D02*
X35919500Y-52191700D01*
%TO.N,AUX3GND*%
X47299400Y-54077400D02*
X47299400Y-59500800D01*
X44022000Y-50800000D02*
X47299400Y-54077400D01*
X47299400Y-59500800D02*
X47573600Y-59775000D01*
X42982000Y-66045000D02*
X42982000Y-68585000D01*
%TO.N,AUX2MPWR*%
X60647900Y-69212200D02*
X60647900Y-46482000D01*
X37419500Y-66045000D02*
X38719800Y-66045000D01*
X58836700Y-71023400D02*
X60647900Y-69212200D01*
X38719800Y-66207500D02*
X43535700Y-71023400D01*
X43535700Y-71023400D02*
X58836700Y-71023400D01*
X38719800Y-66045000D02*
X38719800Y-66207500D01*
D24*
%TO.N,AAUX1*%
X23457000Y-69271700D02*
X27178000Y-72992700D01*
X27178000Y-74168000D02*
X27178000Y-72992700D01*
X23457000Y-29803800D02*
X23457000Y-69271700D01*
X29158000Y-24102800D02*
X23457000Y-29803800D01*
%TO.N,AUX4*%
X28184500Y-72992700D02*
X28542700Y-73350900D01*
X30490500Y-30515300D02*
X28644000Y-30515300D01*
X23914100Y-68841800D02*
X28065000Y-72992700D01*
X36778000Y-36802800D02*
X30490500Y-30515300D01*
X29718000Y-74168000D02*
X28542700Y-74168000D01*
X28644000Y-30515300D02*
X23914100Y-35245200D01*
X28542700Y-73350900D02*
X28542700Y-74168000D01*
X28065000Y-72992700D02*
X28184500Y-72992700D01*
X23914100Y-35245200D02*
X23914100Y-68841800D01*
%TO.N,AUX5*%
X28107900Y-69567900D02*
X28107900Y-54059800D01*
X31532700Y-72992700D02*
X28107900Y-69567900D01*
X34238000Y-47929700D02*
X34238000Y-36802800D01*
X32258000Y-74168000D02*
X32258000Y-72992700D01*
X28107900Y-54059800D02*
X34238000Y-47929700D01*
X32258000Y-72992700D02*
X31532700Y-72992700D01*
%TO.N,AUX7*%
X24411100Y-68622400D02*
X24411100Y-37140600D01*
X27682600Y-71893900D02*
X24411100Y-68622400D01*
X24411100Y-37140600D02*
X24748900Y-36802800D01*
X28022800Y-71893900D02*
X27682600Y-71893900D01*
%TO.N,AUX8*%
X39878000Y-74168000D02*
X38702700Y-74168000D01*
X37889900Y-75348100D02*
X31754700Y-75348100D01*
X27929500Y-39252800D02*
X27929500Y-35491300D01*
X27419300Y-70150900D02*
X26603300Y-70150900D01*
X29117400Y-46357700D02*
X29117400Y-40440700D01*
X24864700Y-68412300D02*
X24864700Y-49456400D01*
X28425100Y-47050000D02*
X29117400Y-46357700D01*
X26603300Y-70150900D02*
X24864700Y-68412300D01*
X30988000Y-74581400D02*
X30988000Y-73719600D01*
X38702700Y-74168000D02*
X38702700Y-74535300D01*
X29117400Y-40440700D02*
X27929500Y-39252800D01*
X38702700Y-74535300D02*
X37889900Y-75348100D01*
X24864700Y-49456400D02*
X27271100Y-47050000D01*
X30988000Y-73719600D02*
X27419300Y-70150900D01*
X27271100Y-47050000D02*
X28425100Y-47050000D01*
X27929500Y-35491300D02*
X29158000Y-34262800D01*
X31754700Y-75348100D02*
X30988000Y-74581400D01*
%TD*%
%TA.AperFunction,Conductor*%
%TO.N,GND*%
G36*
X16302547Y-14249502D02*
G01*
X16349040Y-14303158D01*
X16359144Y-14373432D01*
X16329650Y-14438012D01*
X16287077Y-14469972D01*
X16102680Y-14554785D01*
X16096637Y-14557971D01*
X15790404Y-14741248D01*
X15784744Y-14745066D01*
X15500094Y-14960346D01*
X15494891Y-14964742D01*
X15490601Y-14968785D01*
X15482580Y-14982492D01*
X15482615Y-14983333D01*
X15487667Y-14991457D01*
X17655188Y-17158978D01*
X17669132Y-17166592D01*
X17670965Y-17166461D01*
X17677580Y-17162210D01*
X19846166Y-14993624D01*
X19853780Y-14979680D01*
X19853712Y-14978723D01*
X19848771Y-14971251D01*
X19844870Y-14967931D01*
X19560958Y-14751649D01*
X19555332Y-14747825D01*
X19249722Y-14563469D01*
X19243695Y-14560264D01*
X19048779Y-14469787D01*
X18995412Y-14422963D01*
X18975832Y-14354720D01*
X18996256Y-14286725D01*
X19050198Y-14240565D01*
X19101830Y-14229500D01*
X46181614Y-14229500D01*
X46249735Y-14249502D01*
X46296228Y-14303158D01*
X46306332Y-14373432D01*
X46276838Y-14438012D01*
X46270710Y-14444595D01*
X45543082Y-15172224D01*
X45524339Y-15187361D01*
X45523110Y-15188479D01*
X45514360Y-15194129D01*
X45507913Y-15202307D01*
X45507911Y-15202309D01*
X45493571Y-15220500D01*
X45489625Y-15224941D01*
X45489698Y-15225003D01*
X45486339Y-15228967D01*
X45482662Y-15232644D01*
X45471408Y-15248392D01*
X45467902Y-15253062D01*
X45436144Y-15293347D01*
X45433112Y-15301981D01*
X45427786Y-15309434D01*
X45415171Y-15351617D01*
X45413099Y-15358544D01*
X45411264Y-15364192D01*
X45400079Y-15396043D01*
X45394282Y-15412551D01*
X45393800Y-15418116D01*
X45393800Y-15420824D01*
X45393686Y-15423458D01*
X45393657Y-15423556D01*
X45393493Y-15423549D01*
X45393449Y-15424253D01*
X45391587Y-15430478D01*
X45391996Y-15440883D01*
X45393703Y-15484335D01*
X45393800Y-15489282D01*
X45393800Y-15575197D01*
X45373798Y-15643318D01*
X45320142Y-15689811D01*
X45249868Y-15699915D01*
X45182271Y-15667722D01*
X45093577Y-15585734D01*
X45093575Y-15585732D01*
X45089336Y-15581814D01*
X44913572Y-15470915D01*
X44908212Y-15468777D01*
X44908209Y-15468775D01*
X44725904Y-15396043D01*
X44720540Y-15393903D01*
X44714880Y-15392777D01*
X44714876Y-15392776D01*
X44522374Y-15354485D01*
X44522371Y-15354485D01*
X44516707Y-15353358D01*
X44510932Y-15353282D01*
X44510928Y-15353282D01*
X44407127Y-15351924D01*
X44308898Y-15350638D01*
X44303201Y-15351617D01*
X44303200Y-15351617D01*
X44109771Y-15384854D01*
X44104074Y-15385833D01*
X43909093Y-15457765D01*
X43904132Y-15460717D01*
X43904131Y-15460717D01*
X43761976Y-15545291D01*
X43730485Y-15564026D01*
X43574233Y-15701055D01*
X43570662Y-15705585D01*
X43466011Y-15838335D01*
X43445569Y-15864265D01*
X43442878Y-15869381D01*
X43442876Y-15869383D01*
X43351494Y-16043072D01*
X43348802Y-16048189D01*
X43287173Y-16246667D01*
X43262745Y-16453053D01*
X43276338Y-16660435D01*
X43327495Y-16861867D01*
X43414503Y-17050603D01*
X43417834Y-17055316D01*
X43417835Y-17055318D01*
X43499739Y-17171208D01*
X43534450Y-17220323D01*
X43683316Y-17365342D01*
X43688112Y-17368547D01*
X43688115Y-17368549D01*
X43730037Y-17396560D01*
X43856118Y-17480804D01*
X43861421Y-17483082D01*
X43861424Y-17483084D01*
X43861436Y-17483089D01*
X44047067Y-17562843D01*
X44249769Y-17608709D01*
X44255543Y-17608936D01*
X44255544Y-17608936D01*
X44291010Y-17610330D01*
X44457435Y-17616869D01*
X44578836Y-17599266D01*
X44657389Y-17587877D01*
X44657393Y-17587876D01*
X44663111Y-17587047D01*
X44668583Y-17585189D01*
X44668585Y-17585189D01*
X44854444Y-17522098D01*
X44854446Y-17522097D01*
X44859908Y-17520243D01*
X45041236Y-17418695D01*
X45187231Y-17297273D01*
X45252395Y-17269092D01*
X45322450Y-17280616D01*
X45375154Y-17328185D01*
X45393800Y-17394147D01*
X45393800Y-18115197D01*
X45373798Y-18183318D01*
X45320142Y-18229811D01*
X45249868Y-18239915D01*
X45182271Y-18207722D01*
X45093577Y-18125734D01*
X45093575Y-18125732D01*
X45089336Y-18121814D01*
X44913572Y-18010915D01*
X44908212Y-18008777D01*
X44908209Y-18008775D01*
X44725904Y-17936043D01*
X44720540Y-17933903D01*
X44714880Y-17932777D01*
X44714876Y-17932776D01*
X44522374Y-17894485D01*
X44522371Y-17894485D01*
X44516707Y-17893358D01*
X44510932Y-17893282D01*
X44510928Y-17893282D01*
X44407127Y-17891924D01*
X44308898Y-17890638D01*
X44303201Y-17891617D01*
X44303200Y-17891617D01*
X44109771Y-17924854D01*
X44104074Y-17925833D01*
X43909093Y-17997765D01*
X43904132Y-18000717D01*
X43904131Y-18000717D01*
X43767785Y-18081835D01*
X43730485Y-18104026D01*
X43574233Y-18241055D01*
X43567055Y-18250160D01*
X43450711Y-18397743D01*
X43445569Y-18404265D01*
X43442878Y-18409381D01*
X43442876Y-18409383D01*
X43369873Y-18548139D01*
X43348802Y-18588189D01*
X43287173Y-18786667D01*
X43262745Y-18993053D01*
X43276338Y-19200435D01*
X43327495Y-19401867D01*
X43339558Y-19428034D01*
X43349913Y-19498269D01*
X43320651Y-19562955D01*
X43314227Y-19569879D01*
X41552984Y-21331122D01*
X41534236Y-21346264D01*
X41533011Y-21347379D01*
X41524260Y-21353029D01*
X41517813Y-21361207D01*
X41517811Y-21361209D01*
X41503471Y-21379400D01*
X41499525Y-21383841D01*
X41499598Y-21383903D01*
X41496239Y-21387867D01*
X41492562Y-21391544D01*
X41481308Y-21407292D01*
X41477802Y-21411962D01*
X41446044Y-21452247D01*
X41443012Y-21460881D01*
X41437686Y-21468334D01*
X41434701Y-21478315D01*
X41422999Y-21517444D01*
X41421164Y-21523092D01*
X41406810Y-21563967D01*
X41404182Y-21571451D01*
X41403700Y-21577016D01*
X41403700Y-21579724D01*
X41403586Y-21582358D01*
X41403557Y-21582456D01*
X41403393Y-21582449D01*
X41403349Y-21583153D01*
X41401487Y-21589378D01*
X41402777Y-21622216D01*
X41403603Y-21643235D01*
X41403700Y-21648182D01*
X41403700Y-33326780D01*
X41401151Y-33350728D01*
X41401072Y-33352393D01*
X41398880Y-33362576D01*
X41400104Y-33372917D01*
X41402827Y-33395923D01*
X41403177Y-33401854D01*
X41403272Y-33401846D01*
X41403700Y-33407024D01*
X41403700Y-33412224D01*
X41404554Y-33417353D01*
X41404554Y-33417356D01*
X41406869Y-33431265D01*
X41407706Y-33437143D01*
X41409682Y-33453835D01*
X41413730Y-33488041D01*
X41417693Y-33496293D01*
X41419196Y-33505326D01*
X41424143Y-33514495D01*
X41424144Y-33514497D01*
X41443534Y-33550432D01*
X41446231Y-33555725D01*
X41464985Y-33594782D01*
X41464988Y-33594786D01*
X41468419Y-33601932D01*
X41472014Y-33606208D01*
X41473937Y-33608131D01*
X41475709Y-33610063D01*
X41475752Y-33610142D01*
X41475628Y-33610255D01*
X41476104Y-33610795D01*
X41479190Y-33616514D01*
X41486835Y-33623581D01*
X41518786Y-33653116D01*
X41522352Y-33656546D01*
X43645666Y-35779860D01*
X43679692Y-35842172D01*
X43674627Y-35912987D01*
X43639649Y-35963686D01*
X43620363Y-35980600D01*
X43574233Y-36021055D01*
X43549000Y-36053063D01*
X43480938Y-36139400D01*
X43445569Y-36184265D01*
X43442878Y-36189381D01*
X43442876Y-36189383D01*
X43402322Y-36266464D01*
X43348802Y-36368189D01*
X43287173Y-36566667D01*
X43262745Y-36773053D01*
X43276338Y-36980435D01*
X43327495Y-37181867D01*
X43414503Y-37370603D01*
X43417834Y-37375316D01*
X43417835Y-37375318D01*
X43518377Y-37517580D01*
X43534450Y-37540323D01*
X43538586Y-37544352D01*
X43647697Y-37650643D01*
X43683316Y-37685342D01*
X43688112Y-37688547D01*
X43688115Y-37688549D01*
X43798925Y-37762589D01*
X43856118Y-37800804D01*
X43861421Y-37803082D01*
X43861424Y-37803084D01*
X43935432Y-37834881D01*
X44047067Y-37882843D01*
X44249769Y-37928709D01*
X44255543Y-37928936D01*
X44255544Y-37928936D01*
X44291010Y-37930330D01*
X44457435Y-37936869D01*
X44581467Y-37918885D01*
X44657389Y-37907877D01*
X44657393Y-37907876D01*
X44663111Y-37907047D01*
X44668583Y-37905189D01*
X44668585Y-37905189D01*
X44854444Y-37842098D01*
X44854446Y-37842097D01*
X44859908Y-37840243D01*
X45041236Y-37738695D01*
X45201022Y-37605803D01*
X45333914Y-37446017D01*
X45435462Y-37264689D01*
X45440765Y-37249069D01*
X45500408Y-37073366D01*
X45500408Y-37073364D01*
X45502266Y-37067892D01*
X45532088Y-36862216D01*
X45533644Y-36802781D01*
X45514628Y-36595826D01*
X45492799Y-36518427D01*
X45459783Y-36401362D01*
X45459782Y-36401360D01*
X45458215Y-36395803D01*
X45447319Y-36373707D01*
X45368851Y-36214590D01*
X45366296Y-36209409D01*
X45362841Y-36204782D01*
X45362840Y-36204780D01*
X45345821Y-36181990D01*
X45321089Y-36115441D01*
X45336262Y-36046084D01*
X45386523Y-35995941D01*
X45446778Y-35980600D01*
X45516216Y-35980600D01*
X45584337Y-36000602D01*
X45605311Y-36017505D01*
X47061449Y-37473643D01*
X47095475Y-37535955D01*
X47097276Y-37579182D01*
X47091929Y-37619796D01*
X47098721Y-37681315D01*
X47108133Y-37766564D01*
X47109313Y-37777253D01*
X47111923Y-37784384D01*
X47111923Y-37784386D01*
X47150594Y-37890059D01*
X47163753Y-37926019D01*
X47167989Y-37932322D01*
X47167989Y-37932323D01*
X47207650Y-37991344D01*
X47252108Y-38057505D01*
X47257727Y-38062618D01*
X47257728Y-38062619D01*
X47341601Y-38138937D01*
X47369276Y-38164119D01*
X47508493Y-38239708D01*
X47661722Y-38279907D01*
X47745677Y-38281226D01*
X47812519Y-38282276D01*
X47812522Y-38282276D01*
X47820116Y-38282395D01*
X47827520Y-38280699D01*
X47827522Y-38280699D01*
X47942871Y-38254281D01*
X48013738Y-38258570D01*
X48071036Y-38300493D01*
X48096573Y-38366737D01*
X48097000Y-38377101D01*
X48097000Y-43600987D01*
X48076998Y-43669108D01*
X48053830Y-43695935D01*
X47986539Y-43754638D01*
X47895450Y-43884244D01*
X47875994Y-43934147D01*
X47847307Y-44007723D01*
X47803926Y-44063925D01*
X47737047Y-44087751D01*
X47667903Y-44071637D01*
X47640819Y-44051048D01*
X47278377Y-43688606D01*
X47270835Y-43679166D01*
X47270455Y-43679489D01*
X47264637Y-43672653D01*
X47259847Y-43665061D01*
X47219840Y-43629728D01*
X47214154Y-43624383D01*
X47202820Y-43613049D01*
X47194545Y-43606847D01*
X47186700Y-43600460D01*
X47158257Y-43575340D01*
X47151530Y-43569399D01*
X47143408Y-43565586D01*
X47140607Y-43563746D01*
X47126612Y-43555337D01*
X47123649Y-43553715D01*
X47116464Y-43548330D01*
X47108054Y-43545177D01*
X47108052Y-43545176D01*
X47072518Y-43531854D01*
X47063202Y-43527929D01*
X47020718Y-43507983D01*
X47011844Y-43506601D01*
X47008617Y-43505615D01*
X46992834Y-43501475D01*
X46989556Y-43500754D01*
X46981148Y-43497602D01*
X46967391Y-43496580D01*
X46934343Y-43494124D01*
X46924296Y-43492970D01*
X46915814Y-43491649D01*
X46915811Y-43491649D01*
X46911003Y-43490900D01*
X46895638Y-43490900D01*
X46886301Y-43490554D01*
X46870219Y-43489359D01*
X46837033Y-43486893D01*
X46828258Y-43488766D01*
X46819562Y-43489359D01*
X46804962Y-43490900D01*
X43906230Y-43490900D01*
X43894222Y-43489558D01*
X43894182Y-43490054D01*
X43885231Y-43489334D01*
X43876477Y-43487353D01*
X43846030Y-43489242D01*
X43823207Y-43490658D01*
X43815405Y-43490900D01*
X43799374Y-43490900D01*
X43789141Y-43492365D01*
X43779089Y-43493395D01*
X43749685Y-43495220D01*
X43741201Y-43495746D01*
X43741200Y-43495746D01*
X43732242Y-43496302D01*
X43723799Y-43499350D01*
X43720520Y-43500029D01*
X43704655Y-43503984D01*
X43701431Y-43504927D01*
X43692548Y-43506199D01*
X43684379Y-43509913D01*
X43684373Y-43509915D01*
X43649821Y-43525625D01*
X43640453Y-43529439D01*
X43596316Y-43545372D01*
X43589066Y-43550669D01*
X43586099Y-43552246D01*
X43571986Y-43560493D01*
X43569163Y-43562298D01*
X43560995Y-43566012D01*
X43554198Y-43571869D01*
X43554196Y-43571870D01*
X43525447Y-43596643D01*
X43517536Y-43602925D01*
X43506656Y-43610873D01*
X43495794Y-43621735D01*
X43488948Y-43628093D01*
X43451518Y-43660344D01*
X43446634Y-43667879D01*
X43440901Y-43674451D01*
X43431674Y-43685855D01*
X40868906Y-46248623D01*
X40859466Y-46256165D01*
X40859789Y-46256545D01*
X40852953Y-46262363D01*
X40845361Y-46267153D01*
X40839419Y-46273881D01*
X40810029Y-46307159D01*
X40804683Y-46312846D01*
X40793349Y-46324180D01*
X40790664Y-46327763D01*
X40790662Y-46327765D01*
X40787147Y-46332455D01*
X40780762Y-46340298D01*
X40749699Y-46375470D01*
X40745886Y-46383592D01*
X40744046Y-46386393D01*
X40735637Y-46400388D01*
X40734015Y-46403351D01*
X40728630Y-46410536D01*
X40725477Y-46418946D01*
X40725476Y-46418948D01*
X40712154Y-46454482D01*
X40708230Y-46463795D01*
X40688283Y-46506282D01*
X40686901Y-46515156D01*
X40685915Y-46518383D01*
X40681775Y-46534166D01*
X40681054Y-46537444D01*
X40677902Y-46545852D01*
X40677237Y-46554803D01*
X40674424Y-46592657D01*
X40673270Y-46602704D01*
X40672124Y-46610066D01*
X40671200Y-46615997D01*
X40671200Y-46631362D01*
X40670854Y-46640699D01*
X40667193Y-46689967D01*
X40669066Y-46698742D01*
X40669659Y-46707438D01*
X40671200Y-46722038D01*
X40671200Y-55721960D01*
X40651198Y-55790081D01*
X40597542Y-55836574D01*
X40527268Y-55846678D01*
X40473294Y-55825427D01*
X40467442Y-55821360D01*
X40461775Y-55816311D01*
X40321774Y-55742184D01*
X40314411Y-55740335D01*
X40314407Y-55740333D01*
X40170832Y-55704270D01*
X40112432Y-55671161D01*
X36560866Y-52119595D01*
X36526840Y-52057283D01*
X36531905Y-51986468D01*
X36574452Y-51929632D01*
X36640972Y-51904821D01*
X36649961Y-51904500D01*
X36692256Y-51904500D01*
X36695653Y-51904131D01*
X36746097Y-51898651D01*
X36746098Y-51898651D01*
X36753948Y-51897798D01*
X36761341Y-51895026D01*
X36761343Y-51895026D01*
X36831917Y-51868569D01*
X36889264Y-51847071D01*
X36896443Y-51841691D01*
X36896446Y-51841689D01*
X36985691Y-51774803D01*
X37004904Y-51760404D01*
X37049550Y-51700833D01*
X37086189Y-51651946D01*
X37086191Y-51651943D01*
X37091571Y-51644764D01*
X37142298Y-51509448D01*
X37149000Y-51447756D01*
X37149000Y-50152244D01*
X37145058Y-50115959D01*
X37143151Y-50098403D01*
X37143151Y-50098402D01*
X37142298Y-50090552D01*
X37139348Y-50082681D01*
X37125204Y-50044954D01*
X37091571Y-49955236D01*
X37086191Y-49948057D01*
X37086189Y-49948054D01*
X37010285Y-49846776D01*
X37004904Y-49839596D01*
X36968915Y-49812624D01*
X36896446Y-49758311D01*
X36896443Y-49758309D01*
X36889264Y-49752929D01*
X36789650Y-49715586D01*
X36761343Y-49704974D01*
X36761341Y-49704974D01*
X36753948Y-49702202D01*
X36746098Y-49701349D01*
X36746097Y-49701349D01*
X36695653Y-49695869D01*
X36695652Y-49695869D01*
X36692256Y-49695500D01*
X35541662Y-49695500D01*
X35473541Y-49675498D01*
X35427048Y-49621842D01*
X35416944Y-49551568D01*
X35446438Y-49486988D01*
X35452567Y-49480405D01*
X35507050Y-49425922D01*
X35569362Y-49391896D01*
X35620294Y-49391353D01*
X35645585Y-49396292D01*
X35681783Y-49403361D01*
X35681786Y-49403361D01*
X35686229Y-49404229D01*
X35691770Y-49404500D01*
X36097159Y-49404500D01*
X36254306Y-49389507D01*
X36274319Y-49383636D01*
X36450778Y-49331868D01*
X36456542Y-49330177D01*
X36542643Y-49285832D01*
X36638579Y-49236422D01*
X36638582Y-49236420D01*
X36643910Y-49233676D01*
X36719908Y-49173979D01*
X36804932Y-49107192D01*
X36804936Y-49107188D01*
X36809649Y-49103486D01*
X36826388Y-49084196D01*
X36943850Y-48948835D01*
X36943854Y-48948830D01*
X36947781Y-48944304D01*
X37053319Y-48761874D01*
X37122457Y-48562778D01*
X37128652Y-48520055D01*
X37151838Y-48360140D01*
X37151838Y-48360137D01*
X37152699Y-48354200D01*
X37142955Y-48143667D01*
X37137013Y-48119009D01*
X37094982Y-47944607D01*
X37094981Y-47944605D01*
X37093576Y-47938774D01*
X37085760Y-47921582D01*
X37028428Y-47795489D01*
X37006343Y-47746916D01*
X36884404Y-47575014D01*
X36732160Y-47429272D01*
X36626713Y-47361186D01*
X36560140Y-47318200D01*
X36560137Y-47318199D01*
X36555103Y-47314948D01*
X36359622Y-47236166D01*
X36224666Y-47209811D01*
X36157217Y-47196639D01*
X36157214Y-47196639D01*
X36152771Y-47195771D01*
X36147230Y-47195500D01*
X35741841Y-47195500D01*
X35584694Y-47210493D01*
X35382458Y-47269823D01*
X35377119Y-47272573D01*
X35200421Y-47363578D01*
X35200418Y-47363580D01*
X35195090Y-47366324D01*
X35150792Y-47401121D01*
X35034068Y-47492808D01*
X35034064Y-47492812D01*
X35029351Y-47496514D01*
X35025420Y-47501044D01*
X35025419Y-47501045D01*
X34895150Y-47651165D01*
X34895146Y-47651170D01*
X34891219Y-47655696D01*
X34888215Y-47660889D01*
X34852564Y-47722514D01*
X34801139Y-47771462D01*
X34731414Y-47784838D01*
X34665526Y-47758394D01*
X34624394Y-47700526D01*
X34617500Y-47659419D01*
X34617500Y-46445175D01*
X34637502Y-46377054D01*
X34691158Y-46330561D01*
X34761432Y-46320457D01*
X34826012Y-46349951D01*
X34846270Y-46372275D01*
X34935563Y-46498155D01*
X34954596Y-46524986D01*
X35106840Y-46670728D01*
X35127111Y-46683817D01*
X35278860Y-46781800D01*
X35278863Y-46781801D01*
X35283897Y-46785052D01*
X35479378Y-46863834D01*
X35594635Y-46886342D01*
X35681783Y-46903361D01*
X35681786Y-46903361D01*
X35686229Y-46904229D01*
X35691770Y-46904500D01*
X36097159Y-46904500D01*
X36254306Y-46889507D01*
X36265095Y-46886342D01*
X36450778Y-46831868D01*
X36456542Y-46830177D01*
X36539849Y-46787271D01*
X36638579Y-46736422D01*
X36638582Y-46736420D01*
X36643910Y-46733676D01*
X36719908Y-46673979D01*
X36804932Y-46607192D01*
X36804936Y-46607188D01*
X36809649Y-46603486D01*
X36813581Y-46598955D01*
X36943850Y-46448835D01*
X36943854Y-46448830D01*
X36947781Y-46444304D01*
X37053319Y-46261874D01*
X37122457Y-46062778D01*
X37130793Y-46005290D01*
X37151838Y-45860140D01*
X37151838Y-45860137D01*
X37152699Y-45854200D01*
X37142955Y-45643667D01*
X37138278Y-45624258D01*
X37094982Y-45444607D01*
X37094981Y-45444605D01*
X37093576Y-45438774D01*
X37090105Y-45431138D01*
X37008823Y-45252371D01*
X37006343Y-45246916D01*
X36884404Y-45075014D01*
X36758649Y-44954630D01*
X36736490Y-44933417D01*
X36732160Y-44929272D01*
X36634671Y-44866324D01*
X36560140Y-44818200D01*
X36560137Y-44818199D01*
X36555103Y-44814948D01*
X36549545Y-44812708D01*
X36549543Y-44812707D01*
X36525737Y-44803113D01*
X36470031Y-44759096D01*
X36446966Y-44691951D01*
X36463864Y-44622994D01*
X36483742Y-44597152D01*
X38211716Y-42869178D01*
X38230464Y-42854036D01*
X38231689Y-42852921D01*
X38240440Y-42847271D01*
X38246887Y-42839093D01*
X38246889Y-42839091D01*
X38261229Y-42820900D01*
X38265178Y-42816456D01*
X38265104Y-42816394D01*
X38268457Y-42812437D01*
X38272138Y-42808756D01*
X38283365Y-42793046D01*
X38286921Y-42788309D01*
X38312208Y-42756232D01*
X38318656Y-42748053D01*
X38321689Y-42739416D01*
X38327013Y-42731966D01*
X38341702Y-42682851D01*
X38343534Y-42677214D01*
X38357890Y-42636333D01*
X38357890Y-42636332D01*
X38360518Y-42628849D01*
X38361000Y-42623284D01*
X38361000Y-42620576D01*
X38361114Y-42617942D01*
X38361143Y-42617844D01*
X38361307Y-42617851D01*
X38361351Y-42617147D01*
X38363213Y-42610922D01*
X38361097Y-42557065D01*
X38361000Y-42552118D01*
X38361000Y-37747936D01*
X38381002Y-37679815D01*
X38434658Y-37633322D01*
X38504932Y-37623218D01*
X38569512Y-37652712D01*
X38574921Y-37657682D01*
X38599176Y-37681310D01*
X38599182Y-37681315D01*
X38603316Y-37685342D01*
X38608112Y-37688547D01*
X38608115Y-37688549D01*
X38718925Y-37762589D01*
X38776118Y-37800804D01*
X38781421Y-37803082D01*
X38781424Y-37803084D01*
X38855432Y-37834881D01*
X38967067Y-37882843D01*
X39169769Y-37928709D01*
X39175543Y-37928936D01*
X39175544Y-37928936D01*
X39211010Y-37930330D01*
X39377435Y-37936869D01*
X39501467Y-37918885D01*
X39577389Y-37907877D01*
X39577393Y-37907876D01*
X39583111Y-37907047D01*
X39588583Y-37905189D01*
X39588585Y-37905189D01*
X39774444Y-37842098D01*
X39774446Y-37842097D01*
X39779908Y-37840243D01*
X39961236Y-37738695D01*
X40121022Y-37605803D01*
X40253914Y-37446017D01*
X40355462Y-37264689D01*
X40360765Y-37249069D01*
X40420408Y-37073366D01*
X40420408Y-37073364D01*
X40422266Y-37067892D01*
X40452088Y-36862216D01*
X40453644Y-36802781D01*
X40450912Y-36773053D01*
X40722745Y-36773053D01*
X40736338Y-36980435D01*
X40787495Y-37181867D01*
X40874503Y-37370603D01*
X40877834Y-37375316D01*
X40877835Y-37375318D01*
X40978377Y-37517580D01*
X40994450Y-37540323D01*
X40998586Y-37544352D01*
X41107697Y-37650643D01*
X41143316Y-37685342D01*
X41148112Y-37688547D01*
X41148115Y-37688549D01*
X41258925Y-37762589D01*
X41316118Y-37800804D01*
X41321421Y-37803082D01*
X41321424Y-37803084D01*
X41395432Y-37834881D01*
X41507067Y-37882843D01*
X41709769Y-37928709D01*
X41715543Y-37928936D01*
X41715544Y-37928936D01*
X41751010Y-37930330D01*
X41917435Y-37936869D01*
X42041467Y-37918885D01*
X42117389Y-37907877D01*
X42117393Y-37907876D01*
X42123111Y-37907047D01*
X42128583Y-37905189D01*
X42128585Y-37905189D01*
X42314444Y-37842098D01*
X42314446Y-37842097D01*
X42319908Y-37840243D01*
X42501236Y-37738695D01*
X42661022Y-37605803D01*
X42793914Y-37446017D01*
X42895462Y-37264689D01*
X42900765Y-37249069D01*
X42960408Y-37073366D01*
X42960408Y-37073364D01*
X42962266Y-37067892D01*
X42992088Y-36862216D01*
X42993644Y-36802781D01*
X42974628Y-36595826D01*
X42952799Y-36518427D01*
X42919783Y-36401362D01*
X42919782Y-36401360D01*
X42918215Y-36395803D01*
X42907319Y-36373707D01*
X42828851Y-36214590D01*
X42826296Y-36209409D01*
X42822840Y-36204780D01*
X42705401Y-36047511D01*
X42705400Y-36047510D01*
X42701948Y-36042887D01*
X42549336Y-35901814D01*
X42373572Y-35790915D01*
X42368212Y-35788777D01*
X42368209Y-35788775D01*
X42185904Y-35716043D01*
X42180540Y-35713903D01*
X42174880Y-35712777D01*
X42174876Y-35712776D01*
X41982374Y-35674485D01*
X41982371Y-35674485D01*
X41976707Y-35673358D01*
X41970932Y-35673282D01*
X41970928Y-35673282D01*
X41867127Y-35671924D01*
X41768898Y-35670638D01*
X41763201Y-35671617D01*
X41763200Y-35671617D01*
X41569771Y-35704854D01*
X41564074Y-35705833D01*
X41369093Y-35777765D01*
X41364132Y-35780717D01*
X41364131Y-35780717D01*
X41230802Y-35860040D01*
X41190485Y-35884026D01*
X41034233Y-36021055D01*
X41009000Y-36053063D01*
X40940938Y-36139400D01*
X40905569Y-36184265D01*
X40902878Y-36189381D01*
X40902876Y-36189383D01*
X40862322Y-36266464D01*
X40808802Y-36368189D01*
X40747173Y-36566667D01*
X40722745Y-36773053D01*
X40450912Y-36773053D01*
X40434628Y-36595826D01*
X40412799Y-36518427D01*
X40379783Y-36401362D01*
X40379782Y-36401360D01*
X40378215Y-36395803D01*
X40367319Y-36373707D01*
X40288851Y-36214590D01*
X40286296Y-36209409D01*
X40282840Y-36204780D01*
X40165401Y-36047511D01*
X40165400Y-36047510D01*
X40161948Y-36042887D01*
X40009336Y-35901814D01*
X39833572Y-35790915D01*
X39828212Y-35788777D01*
X39828209Y-35788775D01*
X39645904Y-35716043D01*
X39640540Y-35713903D01*
X39634880Y-35712777D01*
X39634876Y-35712776D01*
X39442374Y-35674485D01*
X39442371Y-35674485D01*
X39436707Y-35673358D01*
X39430932Y-35673282D01*
X39430928Y-35673282D01*
X39327127Y-35671924D01*
X39228898Y-35670638D01*
X39223201Y-35671617D01*
X39223200Y-35671617D01*
X39029771Y-35704854D01*
X39024074Y-35705833D01*
X38829093Y-35777765D01*
X38824132Y-35780717D01*
X38824131Y-35780717D01*
X38690802Y-35860040D01*
X38650485Y-35884026D01*
X38494233Y-36021055D01*
X38471765Y-36049556D01*
X38413885Y-36090669D01*
X38342965Y-36093963D01*
X38286163Y-36061079D01*
X38285510Y-36061786D01*
X38282369Y-36058882D01*
X38282368Y-36058881D01*
X38245913Y-36025183D01*
X38242348Y-36021754D01*
X31173178Y-28952584D01*
X31158036Y-28933836D01*
X31156921Y-28932611D01*
X31151271Y-28923860D01*
X31143093Y-28917413D01*
X31143091Y-28917411D01*
X31124900Y-28903071D01*
X31120459Y-28899125D01*
X31120397Y-28899198D01*
X31116433Y-28895839D01*
X31112756Y-28892162D01*
X31097008Y-28880908D01*
X31092338Y-28877402D01*
X31052053Y-28845644D01*
X31043419Y-28842612D01*
X31035966Y-28837286D01*
X30986850Y-28822597D01*
X30981208Y-28820764D01*
X30940333Y-28806410D01*
X30940332Y-28806410D01*
X30932849Y-28803782D01*
X30927284Y-28803300D01*
X30924576Y-28803300D01*
X30921942Y-28803186D01*
X30921844Y-28803157D01*
X30921851Y-28802993D01*
X30921147Y-28802949D01*
X30914922Y-28801087D01*
X30861065Y-28803203D01*
X30856118Y-28803300D01*
X30310127Y-28803300D01*
X30242006Y-28783298D01*
X30197121Y-28733028D01*
X30128851Y-28594590D01*
X30126296Y-28589409D01*
X30030102Y-28460589D01*
X30005401Y-28427511D01*
X30005400Y-28427510D01*
X30001948Y-28422887D01*
X29849336Y-28281814D01*
X29816460Y-28261071D01*
X29678452Y-28173994D01*
X29673572Y-28170915D01*
X29668212Y-28168777D01*
X29668209Y-28168775D01*
X29485904Y-28096043D01*
X29480540Y-28093903D01*
X29474880Y-28092777D01*
X29474876Y-28092776D01*
X29282374Y-28054485D01*
X29282371Y-28054485D01*
X29276707Y-28053358D01*
X29270932Y-28053282D01*
X29270928Y-28053282D01*
X29167127Y-28051924D01*
X29068898Y-28050638D01*
X29063201Y-28051617D01*
X29063200Y-28051617D01*
X28869771Y-28084854D01*
X28864074Y-28085833D01*
X28669093Y-28157765D01*
X28664132Y-28160717D01*
X28664131Y-28160717D01*
X28502774Y-28256715D01*
X28490485Y-28264026D01*
X28334233Y-28401055D01*
X28205569Y-28564265D01*
X28202878Y-28569381D01*
X28202876Y-28569383D01*
X28111494Y-28743072D01*
X28108802Y-28748189D01*
X28047173Y-28946667D01*
X28022745Y-29153053D01*
X28036338Y-29360435D01*
X28087495Y-29561867D01*
X28174503Y-29750603D01*
X28177834Y-29755316D01*
X28177835Y-29755318D01*
X28286993Y-29909771D01*
X28294450Y-29920323D01*
X28298586Y-29924352D01*
X28408653Y-30031575D01*
X28443490Y-30093437D01*
X28439353Y-30164313D01*
X28406446Y-30209681D01*
X28408186Y-30211290D01*
X28371584Y-30250886D01*
X28368154Y-30254452D01*
X24051595Y-34571011D01*
X23989283Y-34605037D01*
X23918468Y-34599972D01*
X23861632Y-34557425D01*
X23836821Y-34490905D01*
X23836500Y-34481916D01*
X23836500Y-30013184D01*
X23856502Y-29945063D01*
X23873405Y-29924089D01*
X27184441Y-26613053D01*
X28022745Y-26613053D01*
X28036338Y-26820435D01*
X28087495Y-27021867D01*
X28174503Y-27210603D01*
X28177834Y-27215316D01*
X28177835Y-27215318D01*
X28276492Y-27354913D01*
X28294450Y-27380323D01*
X28298586Y-27384352D01*
X28409944Y-27492832D01*
X28443316Y-27525342D01*
X28448112Y-27528547D01*
X28448115Y-27528549D01*
X28538144Y-27588704D01*
X28616118Y-27640804D01*
X28621421Y-27643082D01*
X28621424Y-27643084D01*
X28671816Y-27664734D01*
X28807067Y-27722843D01*
X29009769Y-27768709D01*
X29015543Y-27768936D01*
X29015544Y-27768936D01*
X29051010Y-27770330D01*
X29217435Y-27776869D01*
X29338836Y-27759266D01*
X29417389Y-27747877D01*
X29417393Y-27747876D01*
X29423111Y-27747047D01*
X29428583Y-27745189D01*
X29428585Y-27745189D01*
X29614444Y-27682098D01*
X29614446Y-27682097D01*
X29619908Y-27680243D01*
X29801236Y-27578695D01*
X29961022Y-27445803D01*
X30093914Y-27286017D01*
X30195462Y-27104689D01*
X30215038Y-27047022D01*
X30260408Y-26913366D01*
X30260408Y-26913364D01*
X30262266Y-26907892D01*
X30273817Y-26828231D01*
X30291555Y-26705890D01*
X30292088Y-26702216D01*
X30293644Y-26642781D01*
X30280057Y-26494915D01*
X30275157Y-26441580D01*
X30275156Y-26441577D01*
X30274628Y-26435826D01*
X30271229Y-26423774D01*
X30219783Y-26241362D01*
X30219782Y-26241360D01*
X30218215Y-26235803D01*
X30207319Y-26213707D01*
X30128851Y-26054590D01*
X30126296Y-26049409D01*
X30085987Y-25995428D01*
X30005401Y-25887511D01*
X30005400Y-25887510D01*
X30001948Y-25882887D01*
X29849336Y-25741814D01*
X29763409Y-25687598D01*
X29678452Y-25633994D01*
X29673572Y-25630915D01*
X29668212Y-25628777D01*
X29668209Y-25628775D01*
X29485904Y-25556043D01*
X29480540Y-25553903D01*
X29474880Y-25552777D01*
X29474876Y-25552776D01*
X29282374Y-25514485D01*
X29282371Y-25514485D01*
X29276707Y-25513358D01*
X29270932Y-25513282D01*
X29270928Y-25513282D01*
X29167127Y-25511924D01*
X29068898Y-25510638D01*
X29063201Y-25511617D01*
X29063200Y-25511617D01*
X28869771Y-25544854D01*
X28864074Y-25545833D01*
X28669093Y-25617765D01*
X28664132Y-25620717D01*
X28664131Y-25620717D01*
X28530982Y-25699933D01*
X28490485Y-25724026D01*
X28334233Y-25861055D01*
X28330662Y-25865585D01*
X28251240Y-25966332D01*
X28205569Y-26024265D01*
X28202878Y-26029381D01*
X28202876Y-26029383D01*
X28127680Y-26172307D01*
X28108802Y-26208189D01*
X28047173Y-26406667D01*
X28022745Y-26613053D01*
X27184441Y-26613053D01*
X28612097Y-25185397D01*
X28674409Y-25151371D01*
X28750931Y-25158725D01*
X28801761Y-25180564D01*
X28801767Y-25180566D01*
X28807067Y-25182843D01*
X29009769Y-25228709D01*
X29015543Y-25228936D01*
X29015544Y-25228936D01*
X29051010Y-25230330D01*
X29217435Y-25236869D01*
X29346322Y-25218181D01*
X29417389Y-25207877D01*
X29417393Y-25207876D01*
X29423111Y-25207047D01*
X29428583Y-25205189D01*
X29428585Y-25205189D01*
X29614444Y-25142098D01*
X29614446Y-25142097D01*
X29619908Y-25140243D01*
X29801236Y-25038695D01*
X29961022Y-24905803D01*
X30093914Y-24746017D01*
X30195462Y-24564689D01*
X30217511Y-24499737D01*
X30260408Y-24373366D01*
X30260408Y-24373364D01*
X30262266Y-24367892D01*
X30292088Y-24162216D01*
X30293644Y-24102781D01*
X30274628Y-23895826D01*
X30272748Y-23889160D01*
X30219783Y-23701362D01*
X30219782Y-23701360D01*
X30218215Y-23695803D01*
X30215272Y-23689834D01*
X30128851Y-23514590D01*
X30128850Y-23514589D01*
X30126296Y-23509409D01*
X30069909Y-23433897D01*
X30005401Y-23347511D01*
X30005400Y-23347510D01*
X30001948Y-23342887D01*
X29849336Y-23201814D01*
X29757684Y-23143986D01*
X29678452Y-23093994D01*
X29673572Y-23090915D01*
X29668212Y-23088777D01*
X29668209Y-23088775D01*
X29485904Y-23016043D01*
X29480540Y-23013903D01*
X29474880Y-23012777D01*
X29474876Y-23012776D01*
X29282374Y-22974485D01*
X29282371Y-22974485D01*
X29276707Y-22973358D01*
X29270932Y-22973282D01*
X29270928Y-22973282D01*
X29167127Y-22971924D01*
X29068898Y-22970638D01*
X29063201Y-22971617D01*
X29063200Y-22971617D01*
X28869771Y-23004854D01*
X28864074Y-23005833D01*
X28669093Y-23077765D01*
X28664132Y-23080717D01*
X28664131Y-23080717D01*
X28499562Y-23178626D01*
X28490485Y-23184026D01*
X28334233Y-23321055D01*
X28330662Y-23325585D01*
X28244242Y-23435209D01*
X28205569Y-23484265D01*
X28202878Y-23489381D01*
X28202876Y-23489383D01*
X28116861Y-23652871D01*
X28108802Y-23668189D01*
X28047173Y-23866667D01*
X28022745Y-24073053D01*
X28036338Y-24280435D01*
X28087495Y-24481867D01*
X28099558Y-24508034D01*
X28109913Y-24578269D01*
X28080651Y-24642955D01*
X28074227Y-24649879D01*
X23226784Y-29497322D01*
X23208036Y-29512464D01*
X23206811Y-29513579D01*
X23198060Y-29519229D01*
X23191613Y-29527407D01*
X23191611Y-29527409D01*
X23177271Y-29545600D01*
X23173325Y-29550041D01*
X23173398Y-29550103D01*
X23170039Y-29554067D01*
X23166362Y-29557744D01*
X23155108Y-29573492D01*
X23151602Y-29578162D01*
X23119844Y-29618447D01*
X23116812Y-29627081D01*
X23111486Y-29634534D01*
X23108501Y-29644515D01*
X23096799Y-29683644D01*
X23094964Y-29689292D01*
X23077982Y-29737651D01*
X23077500Y-29743216D01*
X23077500Y-29745924D01*
X23077386Y-29748558D01*
X23077357Y-29748656D01*
X23077193Y-29748649D01*
X23077149Y-29749353D01*
X23075287Y-29755578D01*
X23075696Y-29765983D01*
X23077403Y-29809435D01*
X23077500Y-29814382D01*
X23077500Y-69217780D01*
X23074951Y-69241728D01*
X23074872Y-69243393D01*
X23072680Y-69253576D01*
X23073904Y-69263917D01*
X23076627Y-69286923D01*
X23076977Y-69292854D01*
X23077072Y-69292846D01*
X23077500Y-69298024D01*
X23077500Y-69303224D01*
X23078354Y-69308353D01*
X23078354Y-69308356D01*
X23080669Y-69322265D01*
X23081506Y-69328143D01*
X23083362Y-69343820D01*
X23087530Y-69379041D01*
X23091493Y-69387293D01*
X23092996Y-69396326D01*
X23097943Y-69405495D01*
X23097944Y-69405497D01*
X23117334Y-69441432D01*
X23120031Y-69446725D01*
X23138785Y-69485782D01*
X23138788Y-69485786D01*
X23142219Y-69492932D01*
X23145814Y-69497208D01*
X23147737Y-69499131D01*
X23149509Y-69501063D01*
X23149552Y-69501142D01*
X23149428Y-69501255D01*
X23149904Y-69501795D01*
X23152990Y-69507514D01*
X23160635Y-69514581D01*
X23192586Y-69544116D01*
X23196152Y-69547546D01*
X26497012Y-72848406D01*
X26531038Y-72910718D01*
X26525973Y-72981533D01*
X26483426Y-73038369D01*
X26416906Y-73063180D01*
X26407917Y-73063501D01*
X26302934Y-73063501D01*
X26267182Y-73070612D01*
X26240874Y-73075844D01*
X26240872Y-73075845D01*
X26228699Y-73078266D01*
X26218379Y-73085161D01*
X26218378Y-73085162D01*
X26164043Y-73121468D01*
X26144516Y-73134516D01*
X26088266Y-73218699D01*
X26073500Y-73292933D01*
X26073501Y-75043066D01*
X26088266Y-75117301D01*
X26095161Y-75127620D01*
X26095162Y-75127622D01*
X26135516Y-75188015D01*
X26144516Y-75201484D01*
X26228699Y-75257734D01*
X26302933Y-75272500D01*
X27177858Y-75272500D01*
X28053066Y-75272499D01*
X28088818Y-75265388D01*
X28115126Y-75260156D01*
X28115128Y-75260155D01*
X28127301Y-75257734D01*
X28137621Y-75250839D01*
X28137622Y-75250838D01*
X28201168Y-75208377D01*
X28211484Y-75201484D01*
X28267734Y-75117301D01*
X28282500Y-75043067D01*
X28282500Y-74659091D01*
X28302502Y-74590970D01*
X28356158Y-74544477D01*
X28426432Y-74534373D01*
X28438044Y-74536692D01*
X28447017Y-74540659D01*
X28457394Y-74541558D01*
X28465090Y-74543534D01*
X28469070Y-74544391D01*
X28476551Y-74547018D01*
X28482116Y-74547500D01*
X28520554Y-74547500D01*
X28531427Y-74547970D01*
X28572887Y-74551561D01*
X28582997Y-74549050D01*
X28586512Y-74548773D01*
X28655992Y-74563369D01*
X28706552Y-74613212D01*
X28710824Y-74621634D01*
X28757377Y-74722616D01*
X28760710Y-74727332D01*
X28864384Y-74874028D01*
X28874533Y-74888389D01*
X28878675Y-74892424D01*
X28935637Y-74947913D01*
X29019938Y-75030035D01*
X29188720Y-75142812D01*
X29194023Y-75145090D01*
X29194026Y-75145092D01*
X29369921Y-75220662D01*
X29375228Y-75222942D01*
X29448244Y-75239464D01*
X29567579Y-75266467D01*
X29567584Y-75266468D01*
X29573216Y-75267742D01*
X29578987Y-75267969D01*
X29578989Y-75267969D01*
X29638756Y-75270317D01*
X29776053Y-75275712D01*
X29883348Y-75260155D01*
X29971231Y-75247413D01*
X29971236Y-75247412D01*
X29976945Y-75246584D01*
X29982409Y-75244729D01*
X29982414Y-75244728D01*
X30163693Y-75183192D01*
X30163698Y-75183190D01*
X30169165Y-75181334D01*
X30346276Y-75082147D01*
X30361495Y-75069490D01*
X30482801Y-74968600D01*
X30502345Y-74952345D01*
X30506031Y-74947913D01*
X30506036Y-74947908D01*
X30559289Y-74883878D01*
X30618226Y-74844294D01*
X30689208Y-74842857D01*
X30745258Y-74875352D01*
X31346311Y-75476405D01*
X31380337Y-75538717D01*
X31375272Y-75609532D01*
X31332725Y-75666368D01*
X31266205Y-75691179D01*
X31257216Y-75691500D01*
X14095814Y-75691500D01*
X14027693Y-75671498D01*
X13981200Y-75617842D01*
X13969814Y-75565728D01*
X13963178Y-71893745D01*
X15481795Y-71893745D01*
X15481871Y-71894815D01*
X15485055Y-71899648D01*
X15765342Y-72114720D01*
X15770972Y-72118575D01*
X16075929Y-72303992D01*
X16081931Y-72307210D01*
X16405139Y-72458611D01*
X16411444Y-72461159D01*
X16749117Y-72576771D01*
X16755668Y-72578624D01*
X17103838Y-72657087D01*
X17110557Y-72658224D01*
X17465174Y-72698628D01*
X17471964Y-72699031D01*
X17828865Y-72700899D01*
X17835666Y-72700567D01*
X18190686Y-72663880D01*
X18197414Y-72662814D01*
X18546402Y-72587997D01*
X18552950Y-72586218D01*
X18891820Y-72474147D01*
X18898162Y-72471661D01*
X19222921Y-72323660D01*
X19228975Y-72320495D01*
X19535839Y-72138293D01*
X19541520Y-72134490D01*
X19826918Y-71920207D01*
X19832145Y-71915821D01*
X19844988Y-71903803D01*
X19853057Y-71890123D01*
X19853029Y-71889398D01*
X19847887Y-71881097D01*
X17680812Y-69714022D01*
X17666868Y-69706408D01*
X17665035Y-69706539D01*
X17658420Y-69710790D01*
X15489409Y-71879801D01*
X15481795Y-71893745D01*
X13963178Y-71893745D01*
X13958551Y-69333657D01*
X14305260Y-69333657D01*
X14323318Y-69690127D01*
X14324028Y-69696883D01*
X14380478Y-70049305D01*
X14381917Y-70055960D01*
X14476094Y-70400215D01*
X14478243Y-70406676D01*
X14609053Y-70738756D01*
X14611884Y-70744939D01*
X14777792Y-71060949D01*
X14781275Y-71066791D01*
X14980340Y-71363031D01*
X14984442Y-71368475D01*
X15108942Y-71516322D01*
X15121680Y-71524764D01*
X15132124Y-71518666D01*
X17295978Y-69354812D01*
X17302356Y-69343132D01*
X18032408Y-69343132D01*
X18032539Y-69344965D01*
X18036790Y-69351580D01*
X20202463Y-71517253D01*
X20216060Y-71524678D01*
X20225669Y-71517981D01*
X20330197Y-71396457D01*
X20334346Y-71391069D01*
X20536503Y-71096929D01*
X20540050Y-71091118D01*
X20709250Y-70776879D01*
X20712157Y-70770701D01*
X20846435Y-70440016D01*
X20848649Y-70433586D01*
X20946427Y-70090331D01*
X20947934Y-70083701D01*
X21008073Y-69731873D01*
X21008853Y-69725133D01*
X21030740Y-69367275D01*
X21030856Y-69363673D01*
X21030926Y-69343820D01*
X21030834Y-69340193D01*
X21011446Y-68982208D01*
X21010711Y-68975442D01*
X20953034Y-68623233D01*
X20951567Y-68616561D01*
X20856194Y-68272655D01*
X20854020Y-68266192D01*
X20722053Y-67934575D01*
X20719197Y-67928395D01*
X20552194Y-67612981D01*
X20548682Y-67607137D01*
X20348588Y-67311598D01*
X20344467Y-67306170D01*
X20227041Y-67167704D01*
X20214215Y-67159267D01*
X20203890Y-67165320D01*
X18040022Y-69329188D01*
X18032408Y-69343132D01*
X17302356Y-69343132D01*
X17303592Y-69340868D01*
X17303461Y-69339035D01*
X17299210Y-69332420D01*
X15133527Y-67166737D01*
X15119990Y-67159345D01*
X15110289Y-67166132D01*
X14998649Y-67296847D01*
X14994515Y-67302255D01*
X14793394Y-67597086D01*
X14789859Y-67602923D01*
X14621754Y-67917757D01*
X14618878Y-67923926D01*
X14485754Y-68255081D01*
X14483561Y-68261521D01*
X14386979Y-68605121D01*
X14385496Y-68611756D01*
X14326589Y-68963773D01*
X14325830Y-68970545D01*
X14305284Y-69326862D01*
X14305260Y-69333657D01*
X13958551Y-69333657D01*
X13953960Y-66793492D01*
X15482580Y-66793492D01*
X15482615Y-66794333D01*
X15487667Y-66802457D01*
X17655188Y-68969978D01*
X17669132Y-68977592D01*
X17670965Y-68977461D01*
X17677580Y-68973210D01*
X19846166Y-66804624D01*
X19853780Y-66790680D01*
X19853712Y-66789723D01*
X19848771Y-66782251D01*
X19844870Y-66778931D01*
X19560958Y-66562649D01*
X19555332Y-66558825D01*
X19249722Y-66374469D01*
X19243710Y-66371272D01*
X18919966Y-66220995D01*
X18913666Y-66218475D01*
X18575595Y-66104045D01*
X18569017Y-66102209D01*
X18220592Y-66024965D01*
X18213857Y-66023850D01*
X17859106Y-65984685D01*
X17852324Y-65984306D01*
X17495395Y-65983683D01*
X17488622Y-65984038D01*
X17133714Y-66021966D01*
X17127005Y-66023053D01*
X16778289Y-66099086D01*
X16771714Y-66100897D01*
X16433250Y-66214145D01*
X16426928Y-66216648D01*
X16102680Y-66365785D01*
X16096637Y-66368971D01*
X15790404Y-66552248D01*
X15784744Y-66556066D01*
X15500094Y-66771346D01*
X15494891Y-66775742D01*
X15490601Y-66779785D01*
X15482580Y-66793492D01*
X13953960Y-66793492D01*
X13929518Y-53269500D01*
X15289880Y-53269500D01*
X15308325Y-53480330D01*
X15340031Y-53598660D01*
X15355197Y-53655257D01*
X15363100Y-53684753D01*
X15365422Y-53689734D01*
X15365423Y-53689735D01*
X15450215Y-53871573D01*
X15450218Y-53871578D01*
X15452541Y-53876560D01*
X15512779Y-53962588D01*
X15565021Y-54037197D01*
X15573930Y-54049921D01*
X15723579Y-54199570D01*
X15728087Y-54202727D01*
X15728090Y-54202729D01*
X15768895Y-54231301D01*
X15896940Y-54320959D01*
X15901922Y-54323282D01*
X15901927Y-54323285D01*
X16083765Y-54408077D01*
X16088747Y-54410400D01*
X16094055Y-54411822D01*
X16094057Y-54411823D01*
X16105149Y-54414795D01*
X16293170Y-54465175D01*
X16504000Y-54483620D01*
X16714830Y-54465175D01*
X16902851Y-54414795D01*
X16913943Y-54411823D01*
X16913945Y-54411822D01*
X16919253Y-54410400D01*
X16924235Y-54408077D01*
X17106073Y-54323285D01*
X17106078Y-54323282D01*
X17111060Y-54320959D01*
X17239105Y-54231301D01*
X17279910Y-54202729D01*
X17279913Y-54202727D01*
X17284421Y-54199570D01*
X17434070Y-54049921D01*
X17442980Y-54037197D01*
X17495221Y-53962588D01*
X17555459Y-53876560D01*
X17557782Y-53871578D01*
X17557785Y-53871573D01*
X17642577Y-53689735D01*
X17642578Y-53689734D01*
X17644900Y-53684753D01*
X17652804Y-53655257D01*
X17667969Y-53598660D01*
X17699675Y-53480330D01*
X17718120Y-53269500D01*
X17699675Y-53058670D01*
X17656153Y-52896245D01*
X17646323Y-52859557D01*
X17646322Y-52859555D01*
X17644900Y-52854247D01*
X17611039Y-52781631D01*
X17557785Y-52667427D01*
X17557782Y-52667422D01*
X17555459Y-52662440D01*
X17482342Y-52558019D01*
X17437229Y-52493590D01*
X17437227Y-52493587D01*
X17434070Y-52489079D01*
X17284421Y-52339430D01*
X17279913Y-52336273D01*
X17279910Y-52336271D01*
X17145839Y-52242393D01*
X17101511Y-52186936D01*
X17094202Y-52116316D01*
X17126233Y-52052956D01*
X17162678Y-52026028D01*
X17251044Y-51982738D01*
X17259901Y-51977459D01*
X17328529Y-51928506D01*
X17336930Y-51917806D01*
X17329943Y-51904654D01*
X16516811Y-51091521D01*
X16502868Y-51083908D01*
X16501034Y-51084039D01*
X16494420Y-51088290D01*
X15674081Y-51908630D01*
X15666822Y-51921923D01*
X15670381Y-51926935D01*
X15850715Y-52032314D01*
X15899439Y-52083953D01*
X15912510Y-52153736D01*
X15885779Y-52219507D01*
X15859416Y-52244315D01*
X15728090Y-52336271D01*
X15728087Y-52336273D01*
X15723579Y-52339430D01*
X15573930Y-52489079D01*
X15570773Y-52493587D01*
X15570771Y-52493590D01*
X15525658Y-52558019D01*
X15452541Y-52662440D01*
X15450218Y-52667422D01*
X15450215Y-52667427D01*
X15396961Y-52781631D01*
X15363100Y-52854247D01*
X15361678Y-52859555D01*
X15361677Y-52859557D01*
X15351847Y-52896245D01*
X15308325Y-53058670D01*
X15289880Y-53269500D01*
X13929518Y-53269500D01*
X13924854Y-50688789D01*
X15036721Y-50688789D01*
X15049975Y-50918639D01*
X15051411Y-50928860D01*
X15102026Y-51153454D01*
X15105105Y-51163282D01*
X15191728Y-51376608D01*
X15196371Y-51385799D01*
X15294100Y-51545279D01*
X15304556Y-51554739D01*
X15313334Y-51550955D01*
X16131979Y-50732311D01*
X16138356Y-50720632D01*
X16868408Y-50720632D01*
X16868539Y-50722466D01*
X16872790Y-50729080D01*
X17689718Y-51546007D01*
X17701724Y-51552563D01*
X17713463Y-51543595D01*
X17759316Y-51479783D01*
X17764627Y-51470944D01*
X17866631Y-51264554D01*
X17870429Y-51254961D01*
X17937358Y-51034672D01*
X17939535Y-51024602D01*
X17969824Y-50794534D01*
X17970343Y-50787859D01*
X17971932Y-50722864D01*
X17971738Y-50716146D01*
X17952726Y-50484896D01*
X17951041Y-50474716D01*
X17894953Y-50251421D01*
X17891633Y-50241670D01*
X17799826Y-50030526D01*
X17794960Y-50021451D01*
X17713001Y-49894763D01*
X17702315Y-49885559D01*
X17692748Y-49889963D01*
X16876021Y-50706689D01*
X16868408Y-50720632D01*
X16138356Y-50720632D01*
X16139592Y-50718368D01*
X16139461Y-50716534D01*
X16135210Y-50709920D01*
X15318281Y-49892992D01*
X15306749Y-49886695D01*
X15294467Y-49896318D01*
X15230481Y-49990117D01*
X15225393Y-49999073D01*
X15128456Y-50207906D01*
X15124897Y-50217579D01*
X15063368Y-50439448D01*
X15061440Y-50449555D01*
X15036972Y-50678501D01*
X15036721Y-50688789D01*
X13924854Y-50688789D01*
X13918529Y-47189433D01*
X15294500Y-47189433D01*
X15294501Y-49149566D01*
X15297886Y-49166583D01*
X15306444Y-49209612D01*
X15309266Y-49223801D01*
X15316161Y-49234120D01*
X15316162Y-49234122D01*
X15344787Y-49276961D01*
X15365516Y-49307984D01*
X15449699Y-49364234D01*
X15523933Y-49379000D01*
X15544082Y-49379000D01*
X15612203Y-49399002D01*
X15658696Y-49452658D01*
X15669774Y-49513808D01*
X15669383Y-49519389D01*
X15676968Y-49533257D01*
X16491189Y-50347479D01*
X16505132Y-50355092D01*
X16506966Y-50354961D01*
X16513580Y-50350710D01*
X17332154Y-49532135D01*
X17339765Y-49518197D01*
X17339464Y-49513987D01*
X17354556Y-49444613D01*
X17404758Y-49394411D01*
X17465143Y-49378999D01*
X17484066Y-49378999D01*
X17521503Y-49371553D01*
X17546126Y-49366656D01*
X17546128Y-49366655D01*
X17558301Y-49364234D01*
X17568621Y-49357339D01*
X17568622Y-49357338D01*
X17632168Y-49314877D01*
X17642484Y-49307984D01*
X17698734Y-49223801D01*
X17713500Y-49149567D01*
X17713499Y-47189434D01*
X17698734Y-47115199D01*
X17642484Y-47031016D01*
X17558301Y-46974766D01*
X17484067Y-46960000D01*
X17134500Y-46960000D01*
X17066379Y-46939998D01*
X17019886Y-46886342D01*
X17008500Y-46834000D01*
X17008500Y-38816933D01*
X18196500Y-38816933D01*
X18196501Y-41467066D01*
X18200863Y-41488995D01*
X18207888Y-41524316D01*
X18211266Y-41541301D01*
X18218161Y-41551620D01*
X18218162Y-41551622D01*
X18235668Y-41577821D01*
X18267516Y-41625484D01*
X18351699Y-41681734D01*
X18425933Y-41696500D01*
X19120500Y-41696500D01*
X19188621Y-41716502D01*
X19235114Y-41770158D01*
X19246500Y-41822500D01*
X19246500Y-62401176D01*
X19223587Y-62473626D01*
X19169950Y-62549944D01*
X19151961Y-62596084D01*
X19116300Y-62687550D01*
X19112406Y-62697537D01*
X19111414Y-62705070D01*
X19111414Y-62705071D01*
X19095818Y-62823540D01*
X19091729Y-62854596D01*
X19099147Y-62921789D01*
X19108038Y-63002314D01*
X19109113Y-63012053D01*
X19111723Y-63019184D01*
X19111723Y-63019186D01*
X19149579Y-63122632D01*
X19163553Y-63160819D01*
X19167789Y-63167122D01*
X19167789Y-63167123D01*
X19246208Y-63283822D01*
X19251908Y-63292305D01*
X19257527Y-63297418D01*
X19257528Y-63297419D01*
X19359039Y-63389786D01*
X19369076Y-63398919D01*
X19508293Y-63474508D01*
X19661522Y-63514707D01*
X19745477Y-63516026D01*
X19812319Y-63517076D01*
X19812322Y-63517076D01*
X19819916Y-63517195D01*
X19974332Y-63481829D01*
X20067673Y-63434884D01*
X20109072Y-63414063D01*
X20109075Y-63414061D01*
X20115855Y-63410651D01*
X20121626Y-63405722D01*
X20121629Y-63405720D01*
X20230536Y-63312704D01*
X20230536Y-63312703D01*
X20236314Y-63307769D01*
X20328755Y-63179124D01*
X20387842Y-63032141D01*
X20402596Y-62928471D01*
X20409581Y-62879391D01*
X20409581Y-62879388D01*
X20410162Y-62875307D01*
X20410307Y-62861500D01*
X20391276Y-62704233D01*
X20335280Y-62556046D01*
X20277660Y-62472208D01*
X20255500Y-62400841D01*
X20255500Y-41822499D01*
X20275502Y-41754378D01*
X20329158Y-41707885D01*
X20381500Y-41696499D01*
X21076066Y-41696499D01*
X21111818Y-41689388D01*
X21138126Y-41684156D01*
X21138128Y-41684155D01*
X21150301Y-41681734D01*
X21160621Y-41674839D01*
X21160622Y-41674838D01*
X21224168Y-41632377D01*
X21234484Y-41625484D01*
X21290734Y-41541301D01*
X21305500Y-41467067D01*
X21305499Y-38816934D01*
X21290734Y-38742699D01*
X21280512Y-38727400D01*
X21241377Y-38668832D01*
X21234484Y-38658516D01*
X21150301Y-38602266D01*
X21076067Y-38587500D01*
X19751215Y-38587500D01*
X18425934Y-38587501D01*
X18390182Y-38594612D01*
X18363874Y-38599844D01*
X18363872Y-38599845D01*
X18351699Y-38602266D01*
X18341379Y-38609161D01*
X18341378Y-38609162D01*
X18324374Y-38620524D01*
X18267516Y-38658516D01*
X18211266Y-38742699D01*
X18196500Y-38816933D01*
X17008500Y-38816933D01*
X17008500Y-36506906D01*
X18670839Y-36506906D01*
X18679553Y-36518427D01*
X18786452Y-36596809D01*
X18794351Y-36601745D01*
X19023905Y-36722519D01*
X19032454Y-36726236D01*
X19277327Y-36811749D01*
X19286336Y-36814163D01*
X19541166Y-36862544D01*
X19550423Y-36863598D01*
X19809607Y-36873783D01*
X19818921Y-36873457D01*
X20076753Y-36845220D01*
X20085930Y-36843519D01*
X20336758Y-36777481D01*
X20345574Y-36774445D01*
X20583880Y-36672062D01*
X20592167Y-36667748D01*
X20812718Y-36531266D01*
X20820268Y-36525780D01*
X20825559Y-36521301D01*
X20833997Y-36508497D01*
X20827935Y-36498145D01*
X19763812Y-35434022D01*
X19749868Y-35426408D01*
X19748035Y-35426539D01*
X19741420Y-35430790D01*
X18677497Y-36494713D01*
X18670839Y-36506906D01*
X17008500Y-36506906D01*
X17008500Y-35019211D01*
X17938775Y-35019211D01*
X17951220Y-35278288D01*
X17952356Y-35287543D01*
X18002961Y-35541945D01*
X18005449Y-35550917D01*
X18093095Y-35795033D01*
X18096895Y-35803568D01*
X18219658Y-36032042D01*
X18224666Y-36039904D01*
X18294720Y-36133716D01*
X18305979Y-36142165D01*
X18318397Y-36135393D01*
X19378978Y-35074812D01*
X19385356Y-35063132D01*
X20115408Y-35063132D01*
X20115539Y-35064965D01*
X20119790Y-35071580D01*
X21187094Y-36138884D01*
X21199474Y-36145644D01*
X21207815Y-36139400D01*
X21341832Y-35931048D01*
X21346275Y-35922864D01*
X21452807Y-35686370D01*
X21455997Y-35677605D01*
X21526402Y-35427972D01*
X21528262Y-35418830D01*
X21561187Y-35160019D01*
X21561668Y-35153733D01*
X21563987Y-35065160D01*
X21563836Y-35058851D01*
X21544501Y-34798663D01*
X21543125Y-34789457D01*
X21485878Y-34536467D01*
X21483154Y-34527556D01*
X21389143Y-34285806D01*
X21385132Y-34277397D01*
X21256422Y-34052202D01*
X21251211Y-34044476D01*
X21207996Y-33989658D01*
X21196071Y-33981187D01*
X21184537Y-33987673D01*
X20123022Y-35049188D01*
X20115408Y-35063132D01*
X19385356Y-35063132D01*
X19386592Y-35060868D01*
X19386461Y-35059035D01*
X19382210Y-35052420D01*
X18316816Y-33987026D01*
X18303507Y-33979758D01*
X18293472Y-33986878D01*
X18277937Y-34005556D01*
X18272531Y-34013135D01*
X18137965Y-34234891D01*
X18133736Y-34243192D01*
X18033432Y-34482389D01*
X18030471Y-34491239D01*
X17966628Y-34742625D01*
X17965006Y-34751822D01*
X17939020Y-35009885D01*
X17938775Y-35019211D01*
X17008500Y-35019211D01*
X17008500Y-34224461D01*
X17028502Y-34156340D01*
X17045405Y-34135366D01*
X17566082Y-33614689D01*
X18668102Y-33614689D01*
X18672675Y-33624465D01*
X19738188Y-34689978D01*
X19752132Y-34697592D01*
X19753965Y-34697461D01*
X19760580Y-34693210D01*
X20825349Y-33628441D01*
X20831733Y-33616751D01*
X20822321Y-33604641D01*
X20675045Y-33502471D01*
X20667010Y-33497738D01*
X20434376Y-33383016D01*
X20425743Y-33379528D01*
X20178703Y-33300450D01*
X20169643Y-33298274D01*
X19913630Y-33256580D01*
X19904343Y-33255768D01*
X19644992Y-33252373D01*
X19635681Y-33252943D01*
X19378682Y-33287919D01*
X19369546Y-33289860D01*
X19120543Y-33362439D01*
X19111800Y-33365707D01*
X18876252Y-33474296D01*
X18868097Y-33478816D01*
X18677240Y-33603947D01*
X18668102Y-33614689D01*
X17566082Y-33614689D01*
X20057794Y-31122977D01*
X20067234Y-31115435D01*
X20066911Y-31115055D01*
X20073747Y-31109237D01*
X20081339Y-31104447D01*
X20116672Y-31064440D01*
X20122017Y-31058754D01*
X20133351Y-31047420D01*
X20136038Y-31043834D01*
X20136043Y-31043829D01*
X20139557Y-31039141D01*
X20145938Y-31031303D01*
X20171060Y-31002857D01*
X20177001Y-30996130D01*
X20180815Y-30988007D01*
X20182661Y-30985196D01*
X20191072Y-30971197D01*
X20192686Y-30968248D01*
X20198070Y-30961065D01*
X20214542Y-30917126D01*
X20218469Y-30907806D01*
X20234602Y-30873444D01*
X20234602Y-30873443D01*
X20238417Y-30865318D01*
X20239798Y-30856447D01*
X20240783Y-30853225D01*
X20244920Y-30837454D01*
X20245644Y-30834160D01*
X20248798Y-30825748D01*
X20249698Y-30813646D01*
X20252276Y-30778950D01*
X20253426Y-30768926D01*
X20255500Y-30755603D01*
X20255500Y-30740238D01*
X20255846Y-30730901D01*
X20258842Y-30690582D01*
X20259507Y-30681634D01*
X20257634Y-30672859D01*
X20257041Y-30664163D01*
X20255500Y-30649563D01*
X20255500Y-30646499D01*
X20275502Y-30578378D01*
X20329158Y-30531885D01*
X20381500Y-30520499D01*
X21076066Y-30520499D01*
X21111818Y-30513388D01*
X21138126Y-30508156D01*
X21138128Y-30508155D01*
X21150301Y-30505734D01*
X21160621Y-30498839D01*
X21160622Y-30498838D01*
X21224168Y-30456377D01*
X21234484Y-30449484D01*
X21290734Y-30365301D01*
X21305500Y-30291067D01*
X21305499Y-27640934D01*
X21295037Y-27588334D01*
X21293156Y-27578874D01*
X21293155Y-27578872D01*
X21290734Y-27566699D01*
X21280953Y-27552060D01*
X21241377Y-27492832D01*
X21234484Y-27482516D01*
X21150301Y-27426266D01*
X21076067Y-27411500D01*
X19751215Y-27411500D01*
X18425934Y-27411501D01*
X18399790Y-27416701D01*
X18363874Y-27423844D01*
X18363872Y-27423845D01*
X18351699Y-27426266D01*
X18341379Y-27433161D01*
X18341378Y-27433162D01*
X18322460Y-27445803D01*
X18267516Y-27482516D01*
X18211266Y-27566699D01*
X18196500Y-27640933D01*
X18196501Y-30291066D01*
X18211266Y-30365301D01*
X18267516Y-30449484D01*
X18351699Y-30505734D01*
X18425933Y-30520500D01*
X18929140Y-30520500D01*
X18997261Y-30540502D01*
X19043754Y-30594158D01*
X19053858Y-30664432D01*
X19024364Y-30729012D01*
X19018236Y-30735594D01*
X17606026Y-32147803D01*
X16197206Y-33556623D01*
X16187766Y-33564165D01*
X16188089Y-33564545D01*
X16181253Y-33570363D01*
X16173661Y-33575153D01*
X16167719Y-33581881D01*
X16138329Y-33615159D01*
X16132983Y-33620846D01*
X16121649Y-33632180D01*
X16118964Y-33635763D01*
X16118962Y-33635765D01*
X16115447Y-33640455D01*
X16109062Y-33648298D01*
X16077999Y-33683470D01*
X16074186Y-33691592D01*
X16072346Y-33694393D01*
X16063937Y-33708388D01*
X16062315Y-33711351D01*
X16056930Y-33718536D01*
X16053777Y-33726946D01*
X16053776Y-33726948D01*
X16040454Y-33762482D01*
X16036530Y-33771795D01*
X16016583Y-33814282D01*
X16015201Y-33823156D01*
X16014215Y-33826383D01*
X16010075Y-33842166D01*
X16009354Y-33845444D01*
X16006202Y-33853852D01*
X16005537Y-33862803D01*
X16002724Y-33900657D01*
X16001570Y-33910704D01*
X15999500Y-33923997D01*
X15999500Y-33939362D01*
X15999154Y-33948699D01*
X15995493Y-33997967D01*
X15997366Y-34006742D01*
X15997959Y-34015438D01*
X15999500Y-34030038D01*
X15999500Y-46834001D01*
X15979498Y-46902122D01*
X15925842Y-46948615D01*
X15873500Y-46960001D01*
X15523934Y-46960001D01*
X15488182Y-46967112D01*
X15461874Y-46972344D01*
X15461872Y-46972345D01*
X15449699Y-46974766D01*
X15439379Y-46981661D01*
X15439378Y-46981662D01*
X15420240Y-46994450D01*
X15365516Y-47031016D01*
X15309266Y-47115199D01*
X15294500Y-47189433D01*
X13918529Y-47189433D01*
X13888339Y-30485084D01*
X13879024Y-25330906D01*
X18670839Y-25330906D01*
X18679553Y-25342427D01*
X18786452Y-25420809D01*
X18794351Y-25425745D01*
X19023905Y-25546519D01*
X19032454Y-25550236D01*
X19277327Y-25635749D01*
X19286336Y-25638163D01*
X19541166Y-25686544D01*
X19550423Y-25687598D01*
X19809607Y-25697783D01*
X19818921Y-25697457D01*
X20076753Y-25669220D01*
X20085930Y-25667519D01*
X20336758Y-25601481D01*
X20345574Y-25598445D01*
X20583880Y-25496062D01*
X20592167Y-25491748D01*
X20812718Y-25355266D01*
X20820268Y-25349780D01*
X20825559Y-25345301D01*
X20833997Y-25332497D01*
X20827935Y-25322145D01*
X19763812Y-24258022D01*
X19749868Y-24250408D01*
X19748035Y-24250539D01*
X19741420Y-24254790D01*
X18677497Y-25318713D01*
X18670839Y-25330906D01*
X13879024Y-25330906D01*
X13876335Y-23843211D01*
X17938775Y-23843211D01*
X17951220Y-24102288D01*
X17952356Y-24111543D01*
X18002961Y-24365945D01*
X18005449Y-24374917D01*
X18093095Y-24619033D01*
X18096895Y-24627568D01*
X18219658Y-24856042D01*
X18224666Y-24863904D01*
X18294720Y-24957716D01*
X18305979Y-24966165D01*
X18318397Y-24959393D01*
X19378978Y-23898812D01*
X19385356Y-23887132D01*
X20115408Y-23887132D01*
X20115539Y-23888965D01*
X20119790Y-23895580D01*
X21187094Y-24962884D01*
X21199474Y-24969644D01*
X21207815Y-24963400D01*
X21341832Y-24755048D01*
X21346275Y-24746864D01*
X21452807Y-24510370D01*
X21455997Y-24501605D01*
X21526402Y-24251972D01*
X21528262Y-24242830D01*
X21561187Y-23984019D01*
X21561668Y-23977733D01*
X21563987Y-23889160D01*
X21563836Y-23882851D01*
X21544501Y-23622663D01*
X21543125Y-23613457D01*
X21485878Y-23360467D01*
X21483154Y-23351556D01*
X21389143Y-23109806D01*
X21385132Y-23101397D01*
X21256422Y-22876202D01*
X21251211Y-22868476D01*
X21207996Y-22813658D01*
X21196071Y-22805187D01*
X21184537Y-22811673D01*
X20123022Y-23873188D01*
X20115408Y-23887132D01*
X19385356Y-23887132D01*
X19386592Y-23884868D01*
X19386461Y-23883035D01*
X19382210Y-23876420D01*
X18316816Y-22811026D01*
X18303507Y-22803758D01*
X18293472Y-22810878D01*
X18277937Y-22829556D01*
X18272531Y-22837135D01*
X18137965Y-23058891D01*
X18133736Y-23067192D01*
X18033432Y-23306389D01*
X18030471Y-23315239D01*
X17966628Y-23566625D01*
X17965006Y-23575822D01*
X17939020Y-23833885D01*
X17938775Y-23843211D01*
X13876335Y-23843211D01*
X13873797Y-22438689D01*
X18668102Y-22438689D01*
X18672675Y-22448465D01*
X19738188Y-23513978D01*
X19752132Y-23521592D01*
X19753965Y-23521461D01*
X19760580Y-23517210D01*
X20825349Y-22452441D01*
X20831733Y-22440751D01*
X20822321Y-22428641D01*
X20675045Y-22326471D01*
X20667010Y-22321738D01*
X20434376Y-22207016D01*
X20425743Y-22203528D01*
X20178703Y-22124450D01*
X20169643Y-22122274D01*
X19913630Y-22080580D01*
X19904343Y-22079768D01*
X19644992Y-22076373D01*
X19635681Y-22076943D01*
X19378682Y-22111919D01*
X19369546Y-22113860D01*
X19120543Y-22186439D01*
X19111800Y-22189707D01*
X18876252Y-22298296D01*
X18868097Y-22302816D01*
X18677240Y-22427947D01*
X18668102Y-22438689D01*
X13873797Y-22438689D01*
X13872160Y-21533053D01*
X28022745Y-21533053D01*
X28036338Y-21740435D01*
X28087495Y-21941867D01*
X28174503Y-22130603D01*
X28177834Y-22135316D01*
X28177835Y-22135318D01*
X28228507Y-22207016D01*
X28294450Y-22300323D01*
X28298586Y-22304352D01*
X28436487Y-22438689D01*
X28443316Y-22445342D01*
X28448112Y-22448547D01*
X28448115Y-22448549D01*
X28560466Y-22523619D01*
X28616118Y-22560804D01*
X28621421Y-22563082D01*
X28621424Y-22563084D01*
X28634554Y-22568725D01*
X28807067Y-22642843D01*
X29009769Y-22688709D01*
X29015543Y-22688936D01*
X29015544Y-22688936D01*
X29051010Y-22690330D01*
X29217435Y-22696869D01*
X29338836Y-22679266D01*
X29417389Y-22667877D01*
X29417393Y-22667876D01*
X29423111Y-22667047D01*
X29428583Y-22665189D01*
X29428585Y-22665189D01*
X29614444Y-22602098D01*
X29614446Y-22602097D01*
X29619908Y-22600243D01*
X29801236Y-22498695D01*
X29961022Y-22365803D01*
X30093914Y-22206017D01*
X30195462Y-22024689D01*
X30221796Y-21947114D01*
X30260408Y-21833366D01*
X30260408Y-21833364D01*
X30262266Y-21827892D01*
X30292088Y-21622216D01*
X30293644Y-21562781D01*
X30279951Y-21413752D01*
X30275157Y-21361580D01*
X30275156Y-21361577D01*
X30274628Y-21355826D01*
X30271931Y-21346264D01*
X30219783Y-21161362D01*
X30219782Y-21161360D01*
X30218215Y-21155803D01*
X30207319Y-21133707D01*
X30128851Y-20974590D01*
X30126296Y-20969409D01*
X30045953Y-20861816D01*
X30005401Y-20807511D01*
X30005400Y-20807510D01*
X30001948Y-20802887D01*
X29863079Y-20674518D01*
X29853577Y-20665734D01*
X29853575Y-20665732D01*
X29849336Y-20661814D01*
X29816462Y-20641072D01*
X29678452Y-20553994D01*
X29673572Y-20550915D01*
X29667663Y-20548558D01*
X29667444Y-20548385D01*
X29663062Y-20546153D01*
X29663501Y-20545292D01*
X29611804Y-20504740D01*
X29588501Y-20437677D01*
X29605155Y-20368661D01*
X29656477Y-20319605D01*
X29668368Y-20314217D01*
X29669469Y-20313786D01*
X29864615Y-20218185D01*
X29873454Y-20212916D01*
X29926104Y-20175361D01*
X29934504Y-20164662D01*
X29927515Y-20151506D01*
X29170812Y-19394803D01*
X29156868Y-19387189D01*
X29155035Y-19387320D01*
X29148420Y-19391571D01*
X28385510Y-20154481D01*
X28378750Y-20166861D01*
X28384031Y-20173915D01*
X28553353Y-20272859D01*
X28562639Y-20277309D01*
X28651071Y-20311077D01*
X28707574Y-20354064D01*
X28731867Y-20420775D01*
X28716237Y-20490030D01*
X28667781Y-20535559D01*
X28669093Y-20537765D01*
X28504191Y-20635872D01*
X28490485Y-20644026D01*
X28334233Y-20781055D01*
X28330662Y-20785585D01*
X28209831Y-20938859D01*
X28205569Y-20944265D01*
X28202878Y-20949381D01*
X28202876Y-20949383D01*
X28111494Y-21123072D01*
X28108802Y-21128189D01*
X28047173Y-21326667D01*
X28022745Y-21533053D01*
X13872160Y-21533053D01*
X13869539Y-20082745D01*
X15481795Y-20082745D01*
X15481871Y-20083815D01*
X15485055Y-20088648D01*
X15765342Y-20303720D01*
X15770972Y-20307575D01*
X16075929Y-20492992D01*
X16081931Y-20496210D01*
X16405139Y-20647611D01*
X16411444Y-20650159D01*
X16749117Y-20765771D01*
X16755668Y-20767624D01*
X17103838Y-20846087D01*
X17110557Y-20847224D01*
X17465174Y-20887628D01*
X17471964Y-20888031D01*
X17828865Y-20889899D01*
X17835666Y-20889567D01*
X18190686Y-20852880D01*
X18197414Y-20851814D01*
X18546402Y-20776997D01*
X18552950Y-20775218D01*
X18891820Y-20663147D01*
X18898162Y-20660661D01*
X19222921Y-20512660D01*
X19228975Y-20509495D01*
X19535839Y-20327293D01*
X19541520Y-20323490D01*
X19826918Y-20109207D01*
X19832145Y-20104821D01*
X19844988Y-20092803D01*
X19853057Y-20079123D01*
X19853029Y-20078398D01*
X19847887Y-20070097D01*
X17680812Y-17903022D01*
X17666868Y-17895408D01*
X17665035Y-17895539D01*
X17658420Y-17899790D01*
X15489409Y-20068801D01*
X15481795Y-20082745D01*
X13869539Y-20082745D01*
X13864912Y-17522657D01*
X14305260Y-17522657D01*
X14323318Y-17879127D01*
X14324028Y-17885883D01*
X14380478Y-18238305D01*
X14381917Y-18244960D01*
X14476094Y-18589215D01*
X14478243Y-18595676D01*
X14609053Y-18927756D01*
X14611884Y-18933939D01*
X14777792Y-19249949D01*
X14781275Y-19255791D01*
X14980340Y-19552031D01*
X14984442Y-19557475D01*
X15108942Y-19705322D01*
X15121680Y-19713764D01*
X15132124Y-19707666D01*
X17295978Y-17543812D01*
X17302356Y-17532132D01*
X18032408Y-17532132D01*
X18032539Y-17533965D01*
X18036790Y-17540580D01*
X20202463Y-19706253D01*
X20216060Y-19713678D01*
X20225669Y-19706981D01*
X20330197Y-19585457D01*
X20334346Y-19580069D01*
X20536503Y-19285929D01*
X20540050Y-19280118D01*
X20694108Y-18994000D01*
X27769668Y-18994000D01*
X27782176Y-19210931D01*
X27783612Y-19221151D01*
X27831382Y-19433120D01*
X27834461Y-19442948D01*
X27916215Y-19644283D01*
X27920858Y-19653474D01*
X28005334Y-19791327D01*
X28015790Y-19800787D01*
X28024568Y-19797003D01*
X28785978Y-19035593D01*
X28792356Y-19023913D01*
X29522408Y-19023913D01*
X29522539Y-19025746D01*
X29526790Y-19032361D01*
X30287320Y-19792891D01*
X30299330Y-19799450D01*
X30311069Y-19790482D01*
X30345625Y-19742392D01*
X30350936Y-19733553D01*
X30447206Y-19538764D01*
X30451005Y-19529168D01*
X30514170Y-19321272D01*
X30516349Y-19311191D01*
X30544949Y-19093956D01*
X30545468Y-19087283D01*
X30546962Y-19026146D01*
X30546768Y-19019427D01*
X30528816Y-18801075D01*
X30527131Y-18790895D01*
X30474196Y-18580152D01*
X30470876Y-18570401D01*
X30384229Y-18371124D01*
X30379362Y-18362049D01*
X30310083Y-18254959D01*
X30299398Y-18245756D01*
X30289831Y-18250160D01*
X29530022Y-19009969D01*
X29522408Y-19023913D01*
X28792356Y-19023913D01*
X28793592Y-19021649D01*
X28793461Y-19019816D01*
X28789210Y-19013201D01*
X28028922Y-18252913D01*
X28017386Y-18246613D01*
X28005104Y-18256236D01*
X27953143Y-18332408D01*
X27948058Y-18341359D01*
X27856571Y-18538452D01*
X27853008Y-18548139D01*
X27794942Y-18757517D01*
X27793011Y-18767637D01*
X27769920Y-18983711D01*
X27769668Y-18994000D01*
X20694108Y-18994000D01*
X20709250Y-18965879D01*
X20712157Y-18959701D01*
X20846435Y-18629016D01*
X20848649Y-18622586D01*
X20946427Y-18279331D01*
X20947934Y-18272701D01*
X21008073Y-17920873D01*
X21008853Y-17914133D01*
X21030740Y-17556275D01*
X21030856Y-17552673D01*
X21030926Y-17532820D01*
X21030834Y-17529193D01*
X21011446Y-17171208D01*
X21010711Y-17164442D01*
X20953034Y-16812233D01*
X20951567Y-16805561D01*
X20856194Y-16461655D01*
X20854020Y-16455192D01*
X20853169Y-16453053D01*
X28022745Y-16453053D01*
X28036338Y-16660435D01*
X28087495Y-16861867D01*
X28174503Y-17050603D01*
X28177834Y-17055316D01*
X28177835Y-17055318D01*
X28259739Y-17171208D01*
X28294450Y-17220323D01*
X28443316Y-17365342D01*
X28448112Y-17368547D01*
X28448115Y-17368549D01*
X28490037Y-17396560D01*
X28616118Y-17480804D01*
X28621420Y-17483082D01*
X28621433Y-17483089D01*
X28656538Y-17498171D01*
X28711231Y-17543439D01*
X28732768Y-17611090D01*
X28714311Y-17679645D01*
X28661720Y-17727339D01*
X28645944Y-17733703D01*
X28624641Y-17740666D01*
X28615141Y-17744659D01*
X28422400Y-17844992D01*
X28413672Y-17850489D01*
X28388889Y-17869096D01*
X28380436Y-17880421D01*
X28387180Y-17892751D01*
X29145188Y-18650759D01*
X29159132Y-18658373D01*
X29160965Y-18658242D01*
X29167580Y-18653991D01*
X29930115Y-17891456D01*
X29937136Y-17878600D01*
X29929607Y-17868267D01*
X29922156Y-17863317D01*
X29731932Y-17758307D01*
X29722523Y-17754079D01*
X29666000Y-17734063D01*
X29608463Y-17692469D01*
X29582547Y-17626372D01*
X29596481Y-17556756D01*
X29646493Y-17505355D01*
X29735324Y-17455607D01*
X29801236Y-17418695D01*
X29961022Y-17285803D01*
X30093914Y-17126017D01*
X30195462Y-16944689D01*
X30221796Y-16867114D01*
X30260408Y-16753366D01*
X30260408Y-16753364D01*
X30262266Y-16747892D01*
X30292088Y-16542216D01*
X30293644Y-16482781D01*
X30274628Y-16275826D01*
X30218215Y-16075803D01*
X30207319Y-16053707D01*
X30128851Y-15894590D01*
X30126296Y-15889409D01*
X30087175Y-15837019D01*
X30005401Y-15727511D01*
X30005400Y-15727510D01*
X30001948Y-15722887D01*
X29887642Y-15617224D01*
X29853577Y-15585734D01*
X29853575Y-15585732D01*
X29849336Y-15581814D01*
X29673572Y-15470915D01*
X29668212Y-15468777D01*
X29668209Y-15468775D01*
X29485904Y-15396043D01*
X29480540Y-15393903D01*
X29474880Y-15392777D01*
X29474876Y-15392776D01*
X29282374Y-15354485D01*
X29282371Y-15354485D01*
X29276707Y-15353358D01*
X29270932Y-15353282D01*
X29270928Y-15353282D01*
X29167127Y-15351924D01*
X29068898Y-15350638D01*
X29063201Y-15351617D01*
X29063200Y-15351617D01*
X28869771Y-15384854D01*
X28864074Y-15385833D01*
X28669093Y-15457765D01*
X28664132Y-15460717D01*
X28664131Y-15460717D01*
X28521976Y-15545291D01*
X28490485Y-15564026D01*
X28334233Y-15701055D01*
X28330662Y-15705585D01*
X28226011Y-15838335D01*
X28205569Y-15864265D01*
X28202878Y-15869381D01*
X28202876Y-15869383D01*
X28111494Y-16043072D01*
X28108802Y-16048189D01*
X28047173Y-16246667D01*
X28022745Y-16453053D01*
X20853169Y-16453053D01*
X20722053Y-16123575D01*
X20719197Y-16117395D01*
X20552194Y-15801981D01*
X20548682Y-15796137D01*
X20348588Y-15500598D01*
X20344467Y-15495170D01*
X20227041Y-15356704D01*
X20214215Y-15348267D01*
X20203890Y-15354320D01*
X18040022Y-17518188D01*
X18032408Y-17532132D01*
X17302356Y-17532132D01*
X17303592Y-17529868D01*
X17303461Y-17528035D01*
X17299210Y-17521420D01*
X15133527Y-15355737D01*
X15119990Y-15348345D01*
X15110289Y-15355132D01*
X14998649Y-15485847D01*
X14994515Y-15491255D01*
X14793394Y-15786086D01*
X14789859Y-15791923D01*
X14621754Y-16106757D01*
X14618878Y-16112926D01*
X14485754Y-16444081D01*
X14483561Y-16450521D01*
X14386979Y-16794121D01*
X14385496Y-16800756D01*
X14326589Y-17152773D01*
X14325830Y-17159545D01*
X14305284Y-17515862D01*
X14305260Y-17522657D01*
X13864912Y-17522657D01*
X13859188Y-14355728D01*
X13879067Y-14287571D01*
X13932639Y-14240981D01*
X13985188Y-14229500D01*
X16234426Y-14229500D01*
X16302547Y-14249502D01*
G37*
%TD.AperFunction*%
%TA.AperFunction,Conductor*%
G36*
X73093621Y-14249502D02*
G01*
X73140114Y-14303158D01*
X73151500Y-14355500D01*
X73151500Y-75565500D01*
X73131498Y-75633621D01*
X73077842Y-75680114D01*
X73025500Y-75691500D01*
X60831387Y-75691500D01*
X60763266Y-75671498D01*
X60716773Y-75617842D01*
X60706669Y-75547568D01*
X60736163Y-75482988D01*
X60795180Y-75444814D01*
X60817252Y-75438192D01*
X60826842Y-75434433D01*
X61018095Y-75340739D01*
X61026945Y-75335464D01*
X61200328Y-75211792D01*
X61208200Y-75205139D01*
X61359052Y-75054812D01*
X61365730Y-75046965D01*
X61490003Y-74874020D01*
X61495313Y-74865183D01*
X61589670Y-74674267D01*
X61593469Y-74664672D01*
X61655377Y-74460910D01*
X61657555Y-74450837D01*
X61658986Y-74439962D01*
X61656775Y-74425778D01*
X61643617Y-74422000D01*
X46285116Y-74422000D01*
X46269877Y-74426475D01*
X46268672Y-74427865D01*
X46267001Y-74435548D01*
X46267001Y-75062669D01*
X46267371Y-75069490D01*
X46272895Y-75120352D01*
X46276521Y-75135604D01*
X46321676Y-75256054D01*
X46330214Y-75271649D01*
X46406715Y-75373724D01*
X46419272Y-75386281D01*
X46523871Y-75464673D01*
X46566386Y-75521533D01*
X46571412Y-75592351D01*
X46537352Y-75654645D01*
X46475021Y-75688635D01*
X46448306Y-75691500D01*
X38387384Y-75691500D01*
X38319263Y-75671498D01*
X38272770Y-75617842D01*
X38262666Y-75547568D01*
X38292160Y-75482988D01*
X38298289Y-75476405D01*
X38871512Y-74903182D01*
X38933824Y-74869156D01*
X39004639Y-74874221D01*
X39048527Y-74902022D01*
X39179938Y-75030035D01*
X39348720Y-75142812D01*
X39354023Y-75145090D01*
X39354026Y-75145092D01*
X39529921Y-75220662D01*
X39535228Y-75222942D01*
X39608244Y-75239464D01*
X39727579Y-75266467D01*
X39727584Y-75266468D01*
X39733216Y-75267742D01*
X39738987Y-75267969D01*
X39738989Y-75267969D01*
X39798756Y-75270317D01*
X39936053Y-75275712D01*
X40043348Y-75260155D01*
X40131231Y-75247413D01*
X40131236Y-75247412D01*
X40136945Y-75246584D01*
X40142409Y-75244729D01*
X40142414Y-75244728D01*
X40323693Y-75183192D01*
X40323698Y-75183190D01*
X40329165Y-75181334D01*
X40506276Y-75082147D01*
X40521495Y-75069490D01*
X40642801Y-74968600D01*
X40662345Y-74952345D01*
X40703234Y-74903182D01*
X40788453Y-74800718D01*
X40788455Y-74800715D01*
X40792147Y-74796276D01*
X40891334Y-74619165D01*
X40893190Y-74613698D01*
X40893192Y-74613693D01*
X40954728Y-74432414D01*
X40954729Y-74432409D01*
X40956584Y-74426945D01*
X40957412Y-74421236D01*
X40957413Y-74421231D01*
X40985179Y-74229727D01*
X40985712Y-74226053D01*
X40987232Y-74168000D01*
X40968658Y-73965859D01*
X40967090Y-73960299D01*
X40948923Y-73895885D01*
X46267000Y-73895885D01*
X46271475Y-73911124D01*
X46272865Y-73912329D01*
X46280548Y-73914000D01*
X47352885Y-73914000D01*
X47368124Y-73909525D01*
X47369329Y-73908135D01*
X47371000Y-73900452D01*
X47371000Y-73895885D01*
X47879000Y-73895885D01*
X47883475Y-73911124D01*
X47884865Y-73912329D01*
X47892548Y-73914000D01*
X49892885Y-73914000D01*
X49908124Y-73909525D01*
X49909329Y-73908135D01*
X49911000Y-73900452D01*
X49911000Y-73895885D01*
X50419000Y-73895885D01*
X50423475Y-73911124D01*
X50424865Y-73912329D01*
X50432548Y-73914000D01*
X52432885Y-73914000D01*
X52448124Y-73909525D01*
X52449329Y-73908135D01*
X52451000Y-73900452D01*
X52451000Y-73895885D01*
X52959000Y-73895885D01*
X52963475Y-73911124D01*
X52964865Y-73912329D01*
X52972548Y-73914000D01*
X54972885Y-73914000D01*
X54988124Y-73909525D01*
X54989329Y-73908135D01*
X54991000Y-73900452D01*
X54991000Y-73895885D01*
X55499000Y-73895885D01*
X55503475Y-73911124D01*
X55504865Y-73912329D01*
X55512548Y-73914000D01*
X57512885Y-73914000D01*
X57528124Y-73909525D01*
X57529329Y-73908135D01*
X57531000Y-73900452D01*
X57531000Y-73895885D01*
X58039000Y-73895885D01*
X58043475Y-73911124D01*
X58044865Y-73912329D01*
X58052548Y-73914000D01*
X60052885Y-73914000D01*
X60068124Y-73909525D01*
X60069329Y-73908135D01*
X60071000Y-73900452D01*
X60071000Y-73895885D01*
X60579000Y-73895885D01*
X60583475Y-73911124D01*
X60584865Y-73912329D01*
X60592548Y-73914000D01*
X61643344Y-73914000D01*
X61656875Y-73910027D01*
X61658180Y-73900947D01*
X61616214Y-73733875D01*
X61612894Y-73724124D01*
X61527972Y-73528814D01*
X61523105Y-73519739D01*
X61407426Y-73340926D01*
X61401136Y-73332757D01*
X61257806Y-73175240D01*
X61250273Y-73168215D01*
X61083139Y-73036222D01*
X61074552Y-73030517D01*
X60888117Y-72927599D01*
X60878705Y-72923369D01*
X60677959Y-72852280D01*
X60667988Y-72849646D01*
X60596837Y-72836972D01*
X60583540Y-72838432D01*
X60579000Y-72852989D01*
X60579000Y-73895885D01*
X60071000Y-73895885D01*
X60071000Y-72851102D01*
X60067082Y-72837758D01*
X60052806Y-72835771D01*
X60014324Y-72841660D01*
X60004288Y-72844051D01*
X59801868Y-72910212D01*
X59792359Y-72914209D01*
X59603463Y-73012542D01*
X59594738Y-73018036D01*
X59424433Y-73145905D01*
X59416726Y-73152748D01*
X59269590Y-73306717D01*
X59263104Y-73314727D01*
X59158193Y-73468521D01*
X59103282Y-73513524D01*
X59032757Y-73521695D01*
X58969010Y-73490441D01*
X58948313Y-73465957D01*
X58867427Y-73340926D01*
X58861136Y-73332757D01*
X58717806Y-73175240D01*
X58710273Y-73168215D01*
X58543139Y-73036222D01*
X58534552Y-73030517D01*
X58348117Y-72927599D01*
X58338705Y-72923369D01*
X58137959Y-72852280D01*
X58127988Y-72849646D01*
X58056837Y-72836972D01*
X58043540Y-72838432D01*
X58039000Y-72852989D01*
X58039000Y-73895885D01*
X57531000Y-73895885D01*
X57531000Y-72851102D01*
X57527082Y-72837758D01*
X57512806Y-72835771D01*
X57474324Y-72841660D01*
X57464288Y-72844051D01*
X57261868Y-72910212D01*
X57252359Y-72914209D01*
X57063463Y-73012542D01*
X57054738Y-73018036D01*
X56884433Y-73145905D01*
X56876726Y-73152748D01*
X56729590Y-73306717D01*
X56723104Y-73314727D01*
X56618193Y-73468521D01*
X56563282Y-73513524D01*
X56492757Y-73521695D01*
X56429010Y-73490441D01*
X56408313Y-73465957D01*
X56327427Y-73340926D01*
X56321136Y-73332757D01*
X56177806Y-73175240D01*
X56170273Y-73168215D01*
X56003139Y-73036222D01*
X55994552Y-73030517D01*
X55808117Y-72927599D01*
X55798705Y-72923369D01*
X55597959Y-72852280D01*
X55587988Y-72849646D01*
X55516837Y-72836972D01*
X55503540Y-72838432D01*
X55499000Y-72852989D01*
X55499000Y-73895885D01*
X54991000Y-73895885D01*
X54991000Y-72851102D01*
X54987082Y-72837758D01*
X54972806Y-72835771D01*
X54934324Y-72841660D01*
X54924288Y-72844051D01*
X54721868Y-72910212D01*
X54712359Y-72914209D01*
X54523463Y-73012542D01*
X54514738Y-73018036D01*
X54344433Y-73145905D01*
X54336726Y-73152748D01*
X54189590Y-73306717D01*
X54183104Y-73314727D01*
X54078193Y-73468521D01*
X54023282Y-73513524D01*
X53952757Y-73521695D01*
X53889010Y-73490441D01*
X53868313Y-73465957D01*
X53787427Y-73340926D01*
X53781136Y-73332757D01*
X53637806Y-73175240D01*
X53630273Y-73168215D01*
X53463139Y-73036222D01*
X53454552Y-73030517D01*
X53268117Y-72927599D01*
X53258705Y-72923369D01*
X53057959Y-72852280D01*
X53047988Y-72849646D01*
X52976837Y-72836972D01*
X52963540Y-72838432D01*
X52959000Y-72852989D01*
X52959000Y-73895885D01*
X52451000Y-73895885D01*
X52451000Y-72851102D01*
X52447082Y-72837758D01*
X52432806Y-72835771D01*
X52394324Y-72841660D01*
X52384288Y-72844051D01*
X52181868Y-72910212D01*
X52172359Y-72914209D01*
X51983463Y-73012542D01*
X51974738Y-73018036D01*
X51804433Y-73145905D01*
X51796726Y-73152748D01*
X51649590Y-73306717D01*
X51643104Y-73314727D01*
X51538193Y-73468521D01*
X51483282Y-73513524D01*
X51412757Y-73521695D01*
X51349010Y-73490441D01*
X51328313Y-73465957D01*
X51247427Y-73340926D01*
X51241136Y-73332757D01*
X51097806Y-73175240D01*
X51090273Y-73168215D01*
X50923139Y-73036222D01*
X50914552Y-73030517D01*
X50728117Y-72927599D01*
X50718705Y-72923369D01*
X50517959Y-72852280D01*
X50507988Y-72849646D01*
X50436837Y-72836972D01*
X50423540Y-72838432D01*
X50419000Y-72852989D01*
X50419000Y-73895885D01*
X49911000Y-73895885D01*
X49911000Y-72851102D01*
X49907082Y-72837758D01*
X49892806Y-72835771D01*
X49854324Y-72841660D01*
X49844288Y-72844051D01*
X49641868Y-72910212D01*
X49632359Y-72914209D01*
X49443463Y-73012542D01*
X49434738Y-73018036D01*
X49264433Y-73145905D01*
X49256726Y-73152748D01*
X49179094Y-73233985D01*
X49117570Y-73269415D01*
X49046657Y-73265958D01*
X48988871Y-73224712D01*
X48970018Y-73191164D01*
X48928324Y-73079946D01*
X48919786Y-73064351D01*
X48843285Y-72962276D01*
X48830724Y-72949715D01*
X48728649Y-72873214D01*
X48713054Y-72864676D01*
X48592606Y-72819522D01*
X48577351Y-72815895D01*
X48526486Y-72810369D01*
X48519672Y-72810000D01*
X47897115Y-72810000D01*
X47881876Y-72814475D01*
X47880671Y-72815865D01*
X47879000Y-72823548D01*
X47879000Y-73895885D01*
X47371000Y-73895885D01*
X47371000Y-72828116D01*
X47366525Y-72812877D01*
X47365135Y-72811672D01*
X47357452Y-72810001D01*
X46730331Y-72810001D01*
X46723510Y-72810371D01*
X46672648Y-72815895D01*
X46657396Y-72819521D01*
X46536946Y-72864676D01*
X46521351Y-72873214D01*
X46419276Y-72949715D01*
X46406715Y-72962276D01*
X46330214Y-73064351D01*
X46321676Y-73079946D01*
X46276522Y-73200394D01*
X46272895Y-73215649D01*
X46267369Y-73266514D01*
X46267000Y-73273328D01*
X46267000Y-73895885D01*
X40948923Y-73895885D01*
X40915125Y-73776046D01*
X40915124Y-73776044D01*
X40913557Y-73770487D01*
X40910354Y-73763990D01*
X40826331Y-73593609D01*
X40823776Y-73588428D01*
X40702320Y-73425779D01*
X40565302Y-73299120D01*
X40557503Y-73291911D01*
X40553258Y-73287987D01*
X40548375Y-73284906D01*
X40548371Y-73284903D01*
X40386464Y-73182748D01*
X40381581Y-73179667D01*
X40193039Y-73104446D01*
X40187379Y-73103320D01*
X40187375Y-73103319D01*
X39999613Y-73065971D01*
X39999610Y-73065971D01*
X39993946Y-73064844D01*
X39988171Y-73064768D01*
X39988167Y-73064768D01*
X39886793Y-73063441D01*
X39790971Y-73062187D01*
X39785274Y-73063166D01*
X39785273Y-73063166D01*
X39690181Y-73079506D01*
X39590910Y-73096564D01*
X39400463Y-73166824D01*
X39226010Y-73270612D01*
X39221670Y-73274418D01*
X39221666Y-73274421D01*
X39107796Y-73374283D01*
X39073392Y-73404455D01*
X38947720Y-73563869D01*
X38945031Y-73568980D01*
X38945029Y-73568983D01*
X38864960Y-73721168D01*
X38815540Y-73772141D01*
X38753452Y-73788500D01*
X38724846Y-73788500D01*
X38713974Y-73788030D01*
X38701504Y-73786950D01*
X38672513Y-73784439D01*
X38658057Y-73788030D01*
X38630481Y-73794880D01*
X38620794Y-73796886D01*
X38578074Y-73803996D01*
X38568910Y-73808941D01*
X38564401Y-73810484D01*
X38560004Y-73812387D01*
X38549899Y-73814897D01*
X38541153Y-73820544D01*
X38533398Y-73823900D01*
X38462936Y-73832596D01*
X38398958Y-73801817D01*
X38370353Y-73763990D01*
X38286331Y-73593609D01*
X38283776Y-73588428D01*
X38162320Y-73425779D01*
X38025302Y-73299120D01*
X38017503Y-73291911D01*
X38013258Y-73287987D01*
X38008375Y-73284906D01*
X38008371Y-73284903D01*
X37846464Y-73182748D01*
X37841581Y-73179667D01*
X37653039Y-73104446D01*
X37647379Y-73103320D01*
X37647375Y-73103319D01*
X37459613Y-73065971D01*
X37459610Y-73065971D01*
X37453946Y-73064844D01*
X37448171Y-73064768D01*
X37448167Y-73064768D01*
X37346793Y-73063441D01*
X37250971Y-73062187D01*
X37245274Y-73063166D01*
X37245273Y-73063166D01*
X37150181Y-73079506D01*
X37050910Y-73096564D01*
X36860463Y-73166824D01*
X36686010Y-73270612D01*
X36681670Y-73274418D01*
X36681666Y-73274421D01*
X36567796Y-73374283D01*
X36533392Y-73404455D01*
X36407720Y-73563869D01*
X36405031Y-73568980D01*
X36405029Y-73568983D01*
X36392073Y-73593609D01*
X36313203Y-73743515D01*
X36253007Y-73937378D01*
X36229148Y-74138964D01*
X36242424Y-74341522D01*
X36243845Y-74347118D01*
X36243846Y-74347123D01*
X36265508Y-74432414D01*
X36292392Y-74538269D01*
X36294809Y-74543512D01*
X36330824Y-74621634D01*
X36377377Y-74722616D01*
X36380710Y-74727332D01*
X36410780Y-74769880D01*
X36433761Y-74837054D01*
X36416777Y-74905989D01*
X36365220Y-74954799D01*
X36307883Y-74968600D01*
X35830617Y-74968600D01*
X35762496Y-74948598D01*
X35716003Y-74894942D01*
X35705899Y-74824668D01*
X35720683Y-74781034D01*
X35808510Y-74624208D01*
X35808511Y-74624206D01*
X35811334Y-74619165D01*
X35813190Y-74613698D01*
X35813192Y-74613693D01*
X35874728Y-74432414D01*
X35874729Y-74432409D01*
X35876584Y-74426945D01*
X35877412Y-74421236D01*
X35877413Y-74421231D01*
X35905179Y-74229727D01*
X35905712Y-74226053D01*
X35907232Y-74168000D01*
X35888658Y-73965859D01*
X35887090Y-73960299D01*
X35835125Y-73776046D01*
X35835124Y-73776044D01*
X35833557Y-73770487D01*
X35830354Y-73763990D01*
X35746331Y-73593609D01*
X35743776Y-73588428D01*
X35622320Y-73425779D01*
X35485302Y-73299120D01*
X35477503Y-73291911D01*
X35473258Y-73287987D01*
X35468375Y-73284906D01*
X35468371Y-73284903D01*
X35306464Y-73182748D01*
X35301581Y-73179667D01*
X35113039Y-73104446D01*
X35107379Y-73103320D01*
X35107375Y-73103319D01*
X34919613Y-73065971D01*
X34919610Y-73065971D01*
X34913946Y-73064844D01*
X34908171Y-73064768D01*
X34908167Y-73064768D01*
X34806793Y-73063441D01*
X34710971Y-73062187D01*
X34705274Y-73063166D01*
X34705273Y-73063166D01*
X34610181Y-73079506D01*
X34510910Y-73096564D01*
X34320463Y-73166824D01*
X34146010Y-73270612D01*
X34141670Y-73274418D01*
X34141666Y-73274421D01*
X34027796Y-73374283D01*
X33993392Y-73404455D01*
X33867720Y-73563869D01*
X33865031Y-73568980D01*
X33865029Y-73568983D01*
X33852073Y-73593609D01*
X33773203Y-73743515D01*
X33713007Y-73937378D01*
X33689148Y-74138964D01*
X33702424Y-74341522D01*
X33703845Y-74347118D01*
X33703846Y-74347123D01*
X33725508Y-74432414D01*
X33752392Y-74538269D01*
X33754809Y-74543512D01*
X33790824Y-74621634D01*
X33837377Y-74722616D01*
X33840710Y-74727332D01*
X33870780Y-74769880D01*
X33893761Y-74837054D01*
X33876777Y-74905989D01*
X33825220Y-74954799D01*
X33767883Y-74968600D01*
X33290617Y-74968600D01*
X33222496Y-74948598D01*
X33176003Y-74894942D01*
X33165899Y-74824668D01*
X33180683Y-74781034D01*
X33268510Y-74624208D01*
X33268511Y-74624206D01*
X33271334Y-74619165D01*
X33273190Y-74613698D01*
X33273192Y-74613693D01*
X33334728Y-74432414D01*
X33334729Y-74432409D01*
X33336584Y-74426945D01*
X33337412Y-74421236D01*
X33337413Y-74421231D01*
X33365179Y-74229727D01*
X33365712Y-74226053D01*
X33367232Y-74168000D01*
X33348658Y-73965859D01*
X33347090Y-73960299D01*
X33295125Y-73776046D01*
X33295124Y-73776044D01*
X33293557Y-73770487D01*
X33290354Y-73763990D01*
X33206331Y-73593609D01*
X33203776Y-73588428D01*
X33082320Y-73425779D01*
X32945302Y-73299120D01*
X32937503Y-73291911D01*
X32933258Y-73287987D01*
X32928375Y-73284906D01*
X32928371Y-73284903D01*
X32766464Y-73182748D01*
X32761581Y-73179667D01*
X32716810Y-73161805D01*
X32660951Y-73117985D01*
X32637500Y-73044775D01*
X32637500Y-73014846D01*
X32637970Y-73003974D01*
X32640662Y-72972891D01*
X32641561Y-72962513D01*
X32631120Y-72920479D01*
X32629114Y-72910792D01*
X32629102Y-72910718D01*
X32622004Y-72868074D01*
X32617058Y-72858907D01*
X32615515Y-72854400D01*
X32613614Y-72850007D01*
X32611103Y-72839899D01*
X32587605Y-72803507D01*
X32582585Y-72795019D01*
X32562010Y-72756886D01*
X32554359Y-72749814D01*
X32551434Y-72746043D01*
X32548222Y-72742513D01*
X32542571Y-72733760D01*
X32508541Y-72706933D01*
X32501047Y-72700533D01*
X32469235Y-72671126D01*
X32459705Y-72666913D01*
X32455708Y-72664288D01*
X32451531Y-72661992D01*
X32443353Y-72655544D01*
X32402485Y-72641192D01*
X32393287Y-72637550D01*
X32363209Y-72624252D01*
X32363207Y-72624251D01*
X32353683Y-72620041D01*
X32343306Y-72619142D01*
X32335610Y-72617166D01*
X32331630Y-72616309D01*
X32324149Y-72613682D01*
X32318584Y-72613200D01*
X32280146Y-72613200D01*
X32269274Y-72612730D01*
X32249149Y-72610987D01*
X32227813Y-72609139D01*
X32217705Y-72611650D01*
X32207322Y-72612467D01*
X32207272Y-72611827D01*
X32196048Y-72613200D01*
X31742084Y-72613200D01*
X31673963Y-72593198D01*
X31652989Y-72576295D01*
X29099905Y-70023211D01*
X29065879Y-69960899D01*
X29063000Y-69934116D01*
X29063000Y-69924884D01*
X29571000Y-69924884D01*
X29575475Y-69940123D01*
X29576865Y-69941328D01*
X29584548Y-69942999D01*
X30211669Y-69942999D01*
X30218490Y-69942629D01*
X30269352Y-69937105D01*
X30284604Y-69933479D01*
X30405054Y-69888324D01*
X30420649Y-69879786D01*
X30522724Y-69803285D01*
X30535285Y-69790724D01*
X30611786Y-69688649D01*
X30620324Y-69673054D01*
X30665478Y-69552606D01*
X30669105Y-69537351D01*
X30674631Y-69486486D01*
X30675000Y-69479672D01*
X30675000Y-68857115D01*
X30670525Y-68841876D01*
X30669135Y-68840671D01*
X30661452Y-68839000D01*
X29589115Y-68839000D01*
X29573876Y-68843475D01*
X29572671Y-68844865D01*
X29571000Y-68852548D01*
X29571000Y-69924884D01*
X29063000Y-69924884D01*
X29063000Y-68457000D01*
X29083002Y-68388879D01*
X29136658Y-68342386D01*
X29189000Y-68331000D01*
X30656884Y-68331000D01*
X30672123Y-68326525D01*
X30673328Y-68325135D01*
X30674999Y-68317452D01*
X30674999Y-67690331D01*
X30674629Y-67683510D01*
X30669105Y-67632648D01*
X30665479Y-67617396D01*
X30620324Y-67496946D01*
X30611786Y-67481351D01*
X30535285Y-67379276D01*
X30522724Y-67366715D01*
X30420649Y-67290214D01*
X30405054Y-67281676D01*
X30284606Y-67236522D01*
X30269351Y-67232895D01*
X30218486Y-67227369D01*
X30211672Y-67227000D01*
X29949846Y-67227000D01*
X29881725Y-67206998D01*
X29835232Y-67153342D01*
X29825128Y-67083068D01*
X29854622Y-67018488D01*
X29888275Y-66991069D01*
X29945276Y-66959147D01*
X30007934Y-66907035D01*
X30072696Y-66853172D01*
X30101345Y-66829345D01*
X30105031Y-66824913D01*
X30105036Y-66824908D01*
X30205703Y-66703869D01*
X30264640Y-66664285D01*
X30335622Y-66662849D01*
X30391672Y-66695343D01*
X35739223Y-72042894D01*
X35746765Y-72052334D01*
X35747145Y-72052011D01*
X35752963Y-72058847D01*
X35757753Y-72066439D01*
X35764481Y-72072381D01*
X35797759Y-72101771D01*
X35803446Y-72107117D01*
X35814780Y-72118451D01*
X35818363Y-72121136D01*
X35818365Y-72121138D01*
X35823055Y-72124653D01*
X35830898Y-72131038D01*
X35866070Y-72162101D01*
X35874192Y-72165914D01*
X35876993Y-72167754D01*
X35890988Y-72176163D01*
X35893951Y-72177785D01*
X35901136Y-72183170D01*
X35909546Y-72186323D01*
X35909548Y-72186324D01*
X35945082Y-72199646D01*
X35954395Y-72203570D01*
X35996882Y-72223517D01*
X36005756Y-72224899D01*
X36008983Y-72225885D01*
X36024766Y-72230025D01*
X36028044Y-72230746D01*
X36036452Y-72233898D01*
X36050209Y-72234920D01*
X36083257Y-72237376D01*
X36093304Y-72238530D01*
X36101786Y-72239851D01*
X36101789Y-72239851D01*
X36106597Y-72240600D01*
X36121962Y-72240600D01*
X36131300Y-72240946D01*
X36180567Y-72244607D01*
X36189342Y-72242734D01*
X36198038Y-72242141D01*
X36212638Y-72240600D01*
X59056576Y-72240600D01*
X59068581Y-72241941D01*
X59068621Y-72241445D01*
X59077568Y-72242165D01*
X59086324Y-72244146D01*
X59139582Y-72240842D01*
X59147384Y-72240600D01*
X59163426Y-72240600D01*
X59167857Y-72239965D01*
X59167862Y-72239965D01*
X59171887Y-72239388D01*
X59173657Y-72239135D01*
X59183714Y-72238104D01*
X59206176Y-72236711D01*
X59221600Y-72235754D01*
X59221602Y-72235754D01*
X59230559Y-72235198D01*
X59238999Y-72232151D01*
X59242289Y-72231470D01*
X59258138Y-72227518D01*
X59261368Y-72226573D01*
X59270252Y-72225301D01*
X59286974Y-72217698D01*
X59312963Y-72205882D01*
X59322328Y-72202070D01*
X59358037Y-72189178D01*
X59358040Y-72189176D01*
X59366484Y-72186128D01*
X59373733Y-72180832D01*
X59376690Y-72179260D01*
X59390814Y-72171007D01*
X59393637Y-72169202D01*
X59401805Y-72165488D01*
X59408602Y-72159631D01*
X59408604Y-72159630D01*
X59437353Y-72134857D01*
X59445264Y-72128575D01*
X59456144Y-72120627D01*
X59467006Y-72109765D01*
X59473853Y-72103407D01*
X59504482Y-72077015D01*
X59511282Y-72071156D01*
X59516166Y-72063621D01*
X59521899Y-72057049D01*
X59531126Y-72045645D01*
X59683026Y-71893745D01*
X64615795Y-71893745D01*
X64615871Y-71894815D01*
X64619055Y-71899648D01*
X64899342Y-72114720D01*
X64904972Y-72118575D01*
X65209929Y-72303992D01*
X65215931Y-72307210D01*
X65539139Y-72458611D01*
X65545444Y-72461159D01*
X65883117Y-72576771D01*
X65889668Y-72578624D01*
X66237838Y-72657087D01*
X66244557Y-72658224D01*
X66599174Y-72698628D01*
X66605964Y-72699031D01*
X66962865Y-72700899D01*
X66969666Y-72700567D01*
X67324686Y-72663880D01*
X67331414Y-72662814D01*
X67680402Y-72587997D01*
X67686950Y-72586218D01*
X68025820Y-72474147D01*
X68032162Y-72471661D01*
X68356921Y-72323660D01*
X68362975Y-72320495D01*
X68669839Y-72138293D01*
X68675520Y-72134490D01*
X68960918Y-71920207D01*
X68966145Y-71915821D01*
X68978988Y-71903803D01*
X68987057Y-71890123D01*
X68987029Y-71889398D01*
X68981887Y-71881097D01*
X66814812Y-69714022D01*
X66800868Y-69706408D01*
X66799035Y-69706539D01*
X66792420Y-69710790D01*
X64623409Y-71879801D01*
X64615795Y-71893745D01*
X59683026Y-71893745D01*
X61819992Y-69756778D01*
X61829435Y-69749233D01*
X61829112Y-69748854D01*
X61835945Y-69743038D01*
X61843539Y-69738247D01*
X61849483Y-69731517D01*
X61849485Y-69731515D01*
X61878878Y-69698234D01*
X61884224Y-69692546D01*
X61895551Y-69681219D01*
X61900031Y-69675241D01*
X61901750Y-69672948D01*
X61908137Y-69665103D01*
X61939201Y-69629930D01*
X61943016Y-69621803D01*
X61944869Y-69618983D01*
X61953267Y-69605006D01*
X61954886Y-69602049D01*
X61960271Y-69594864D01*
X61969818Y-69569399D01*
X61976751Y-69550907D01*
X61980676Y-69541591D01*
X61987708Y-69526613D01*
X62000617Y-69499118D01*
X62001998Y-69490246D01*
X62002986Y-69487016D01*
X62007124Y-69471245D01*
X62007847Y-69467956D01*
X62010999Y-69459548D01*
X62014477Y-69412741D01*
X62015631Y-69402693D01*
X62016950Y-69394220D01*
X62016950Y-69394219D01*
X62017700Y-69389403D01*
X62017700Y-69374051D01*
X62018046Y-69364714D01*
X62019022Y-69351580D01*
X62020354Y-69333657D01*
X63439260Y-69333657D01*
X63457318Y-69690127D01*
X63458028Y-69696883D01*
X63514478Y-70049305D01*
X63515917Y-70055960D01*
X63610094Y-70400215D01*
X63612243Y-70406676D01*
X63743053Y-70738756D01*
X63745884Y-70744939D01*
X63911792Y-71060949D01*
X63915275Y-71066791D01*
X64114340Y-71363031D01*
X64118442Y-71368475D01*
X64242942Y-71516322D01*
X64255680Y-71524764D01*
X64266124Y-71518666D01*
X66429978Y-69354812D01*
X66436356Y-69343132D01*
X67166408Y-69343132D01*
X67166539Y-69344965D01*
X67170790Y-69351580D01*
X69336463Y-71517253D01*
X69350060Y-71524678D01*
X69359669Y-71517981D01*
X69464197Y-71396457D01*
X69468346Y-71391069D01*
X69670503Y-71096929D01*
X69674050Y-71091118D01*
X69843250Y-70776879D01*
X69846157Y-70770701D01*
X69980435Y-70440016D01*
X69982649Y-70433586D01*
X70080427Y-70090331D01*
X70081934Y-70083701D01*
X70142073Y-69731873D01*
X70142853Y-69725133D01*
X70164740Y-69367275D01*
X70164856Y-69363673D01*
X70164926Y-69343820D01*
X70164834Y-69340193D01*
X70145446Y-68982208D01*
X70144711Y-68975442D01*
X70087034Y-68623233D01*
X70085567Y-68616561D01*
X69990194Y-68272655D01*
X69988020Y-68266192D01*
X69856053Y-67934575D01*
X69853197Y-67928395D01*
X69686194Y-67612981D01*
X69682682Y-67607137D01*
X69482588Y-67311598D01*
X69478467Y-67306170D01*
X69361041Y-67167704D01*
X69348215Y-67159267D01*
X69337890Y-67165320D01*
X67174022Y-69329188D01*
X67166408Y-69343132D01*
X66436356Y-69343132D01*
X66437592Y-69340868D01*
X66437461Y-69339035D01*
X66433210Y-69332420D01*
X64267527Y-67166737D01*
X64253990Y-67159345D01*
X64244289Y-67166132D01*
X64132649Y-67296847D01*
X64128515Y-67302255D01*
X63927394Y-67597086D01*
X63923859Y-67602923D01*
X63755754Y-67917757D01*
X63752878Y-67923926D01*
X63619754Y-68255081D01*
X63617561Y-68261521D01*
X63520979Y-68605121D01*
X63519496Y-68611756D01*
X63460589Y-68963773D01*
X63459830Y-68970545D01*
X63439284Y-69326862D01*
X63439260Y-69333657D01*
X62020354Y-69333657D01*
X62021708Y-69315433D01*
X62019834Y-69306656D01*
X62019242Y-69297967D01*
X62017700Y-69283358D01*
X62017700Y-66059596D01*
X63514229Y-66059596D01*
X63521683Y-66127108D01*
X63526995Y-66175222D01*
X63531613Y-66217053D01*
X63534223Y-66224184D01*
X63534223Y-66224186D01*
X63563411Y-66303945D01*
X63586053Y-66365819D01*
X63590289Y-66372122D01*
X63590289Y-66372123D01*
X63591866Y-66374469D01*
X63674408Y-66497305D01*
X63680027Y-66502418D01*
X63680028Y-66502419D01*
X63778018Y-66591582D01*
X63791576Y-66603919D01*
X63930793Y-66679508D01*
X64084022Y-66719707D01*
X64167977Y-66721026D01*
X64234819Y-66722076D01*
X64234822Y-66722076D01*
X64242416Y-66722195D01*
X64396832Y-66686829D01*
X64433337Y-66668469D01*
X64503182Y-66655732D01*
X64568825Y-66682777D01*
X64609427Y-66741018D01*
X64615840Y-66775779D01*
X64616615Y-66794333D01*
X64621667Y-66802457D01*
X66789188Y-68969978D01*
X66803132Y-68977592D01*
X66804965Y-68977461D01*
X66811580Y-68973210D01*
X68980166Y-66804624D01*
X68987780Y-66790680D01*
X68987712Y-66789723D01*
X68982771Y-66782251D01*
X68978870Y-66778931D01*
X68694958Y-66562649D01*
X68689332Y-66558825D01*
X68383722Y-66374469D01*
X68377710Y-66371272D01*
X68053966Y-66220995D01*
X68047666Y-66218475D01*
X67709595Y-66104045D01*
X67703017Y-66102209D01*
X67354592Y-66024965D01*
X67347857Y-66023850D01*
X66993106Y-65984685D01*
X66986324Y-65984306D01*
X66629395Y-65983683D01*
X66622622Y-65984038D01*
X66267714Y-66021966D01*
X66261005Y-66023053D01*
X65912289Y-66099086D01*
X65905714Y-66100897D01*
X65567250Y-66214145D01*
X65560928Y-66216648D01*
X65236680Y-66365785D01*
X65230637Y-66368971D01*
X64926358Y-66551079D01*
X64857634Y-66568899D01*
X64790186Y-66546735D01*
X64745428Y-66491624D01*
X64737570Y-66421064D01*
X64749934Y-66385962D01*
X64751255Y-66384124D01*
X64756422Y-66371272D01*
X64807506Y-66244195D01*
X64810342Y-66237141D01*
X64825967Y-66127353D01*
X64832081Y-66084391D01*
X64832081Y-66084388D01*
X64832662Y-66080307D01*
X64832807Y-66066500D01*
X64830654Y-66048704D01*
X64824622Y-65998860D01*
X64813776Y-65909233D01*
X64757780Y-65761046D01*
X64725901Y-65714661D01*
X64672355Y-65636751D01*
X64672354Y-65636749D01*
X64668053Y-65630492D01*
X64655154Y-65618999D01*
X64611098Y-65579747D01*
X64595181Y-65565565D01*
X64557626Y-65505316D01*
X64553000Y-65471489D01*
X64553000Y-52017030D01*
X64573002Y-51948909D01*
X64597169Y-51921219D01*
X64653036Y-51873504D01*
X64658814Y-51868569D01*
X64751255Y-51739924D01*
X64810342Y-51592941D01*
X64831004Y-51447756D01*
X64832081Y-51440191D01*
X64832081Y-51440188D01*
X64832662Y-51436107D01*
X64832807Y-51422300D01*
X64813776Y-51265033D01*
X64757780Y-51116846D01*
X64738154Y-51088290D01*
X64672355Y-50992551D01*
X64672354Y-50992549D01*
X64668053Y-50986292D01*
X64549775Y-50880911D01*
X64542389Y-50877000D01*
X64471550Y-50839493D01*
X64409774Y-50806784D01*
X64256133Y-50768192D01*
X64248534Y-50768152D01*
X64248533Y-50768152D01*
X64182681Y-50767807D01*
X64097721Y-50767362D01*
X64090341Y-50769134D01*
X64090339Y-50769134D01*
X63951063Y-50802571D01*
X63951060Y-50802572D01*
X63943684Y-50804343D01*
X63802914Y-50877000D01*
X63683539Y-50981138D01*
X63592450Y-51110744D01*
X63534906Y-51258337D01*
X63533914Y-51265870D01*
X63533914Y-51265871D01*
X63530656Y-51290622D01*
X63514229Y-51415396D01*
X63517802Y-51447756D01*
X63530475Y-51562541D01*
X63531613Y-51572853D01*
X63534223Y-51579984D01*
X63534223Y-51579986D01*
X63573513Y-51687351D01*
X63586053Y-51721619D01*
X63590289Y-51727922D01*
X63590289Y-51727923D01*
X63612300Y-51760678D01*
X63674408Y-51853105D01*
X63680027Y-51858218D01*
X63680028Y-51858219D01*
X63752799Y-51924435D01*
X63789722Y-51985075D01*
X63794000Y-52017629D01*
X63794000Y-65471687D01*
X63773998Y-65539808D01*
X63750830Y-65566635D01*
X63683539Y-65625338D01*
X63592450Y-65754944D01*
X63572433Y-65806285D01*
X63538324Y-65893771D01*
X63534906Y-65902537D01*
X63533914Y-65910070D01*
X63533914Y-65910071D01*
X63515663Y-66048704D01*
X63514229Y-66059596D01*
X62017700Y-66059596D01*
X62017700Y-41319430D01*
X62019042Y-41307422D01*
X62018546Y-41307382D01*
X62019266Y-41298431D01*
X62021247Y-41289677D01*
X62017942Y-41236407D01*
X62017700Y-41228605D01*
X62017700Y-41212574D01*
X62016235Y-41202341D01*
X62015204Y-41192281D01*
X62012854Y-41154401D01*
X62012854Y-41154400D01*
X62012298Y-41145442D01*
X62009250Y-41136999D01*
X62008571Y-41133720D01*
X62004616Y-41117855D01*
X62003673Y-41114631D01*
X62002401Y-41105748D01*
X61998687Y-41097579D01*
X61998685Y-41097573D01*
X61982975Y-41063021D01*
X61979161Y-41053652D01*
X61966277Y-41017963D01*
X61963228Y-41009516D01*
X61957931Y-41002266D01*
X61956354Y-40999299D01*
X61948107Y-40985186D01*
X61946302Y-40982363D01*
X61942588Y-40974195D01*
X61936650Y-40967303D01*
X61911957Y-40938647D01*
X61905675Y-40930736D01*
X61897727Y-40919856D01*
X61886865Y-40908994D01*
X61880507Y-40902147D01*
X61854115Y-40871518D01*
X61848256Y-40864718D01*
X61840721Y-40859834D01*
X61834149Y-40854101D01*
X61822745Y-40844874D01*
X61771315Y-40793444D01*
X61737289Y-40731132D01*
X61735326Y-40719509D01*
X61728976Y-40667033D01*
X61672980Y-40518846D01*
X61616592Y-40436801D01*
X61587555Y-40394551D01*
X61587554Y-40394549D01*
X61583253Y-40388292D01*
X61464975Y-40282911D01*
X61457589Y-40279000D01*
X61407849Y-40252664D01*
X61324974Y-40208784D01*
X61171333Y-40170192D01*
X61163734Y-40170152D01*
X61163733Y-40170152D01*
X61097881Y-40169807D01*
X61012921Y-40169362D01*
X61005541Y-40171134D01*
X61005539Y-40171134D01*
X60866263Y-40204571D01*
X60866260Y-40204572D01*
X60858884Y-40206343D01*
X60718114Y-40279000D01*
X60598739Y-40383138D01*
X60507650Y-40512744D01*
X60450106Y-40660337D01*
X60449114Y-40667870D01*
X60449114Y-40667871D01*
X60436633Y-40762679D01*
X60429429Y-40817396D01*
X60433501Y-40854278D01*
X60442816Y-40938647D01*
X60446813Y-40974853D01*
X60449423Y-40981984D01*
X60449423Y-40981986D01*
X60491722Y-41097573D01*
X60501253Y-41123619D01*
X60505489Y-41129922D01*
X60505489Y-41129923D01*
X60508041Y-41133720D01*
X60589608Y-41255105D01*
X60706776Y-41361719D01*
X60845993Y-41437308D01*
X60853335Y-41439234D01*
X60853337Y-41439235D01*
X60914673Y-41455326D01*
X60975489Y-41491960D01*
X61006844Y-41555657D01*
X61008700Y-41577202D01*
X61008700Y-45736199D01*
X60988698Y-45804320D01*
X60935042Y-45850813D01*
X60864768Y-45860917D01*
X60852005Y-45858403D01*
X60737904Y-45829743D01*
X60737900Y-45829743D01*
X60730533Y-45827892D01*
X60722934Y-45827852D01*
X60722933Y-45827852D01*
X60657081Y-45827507D01*
X60572121Y-45827062D01*
X60564741Y-45828834D01*
X60564739Y-45828834D01*
X60425463Y-45862271D01*
X60425460Y-45862272D01*
X60418084Y-45864043D01*
X60411339Y-45867524D01*
X60411340Y-45867524D01*
X60359090Y-45894492D01*
X60289383Y-45907961D01*
X60223459Y-45881606D01*
X60182249Y-45823793D01*
X60175300Y-45782526D01*
X60175300Y-41834230D01*
X60176642Y-41822222D01*
X60176146Y-41822182D01*
X60176866Y-41813231D01*
X60178847Y-41804477D01*
X60175701Y-41753765D01*
X60175542Y-41751207D01*
X60175300Y-41743405D01*
X60175300Y-41727374D01*
X60173835Y-41717141D01*
X60172804Y-41707081D01*
X60170454Y-41669201D01*
X60170454Y-41669200D01*
X60169898Y-41660242D01*
X60166850Y-41651799D01*
X60166171Y-41648520D01*
X60162216Y-41632655D01*
X60161273Y-41629431D01*
X60160001Y-41620548D01*
X60156287Y-41612379D01*
X60156285Y-41612373D01*
X60140575Y-41577821D01*
X60136761Y-41568452D01*
X60130685Y-41551620D01*
X60120828Y-41524316D01*
X60115531Y-41517066D01*
X60113954Y-41514099D01*
X60105707Y-41499986D01*
X60103902Y-41497163D01*
X60100188Y-41488995D01*
X60069553Y-41453442D01*
X60063275Y-41445536D01*
X60055327Y-41434656D01*
X60044465Y-41423794D01*
X60038107Y-41416947D01*
X60011715Y-41386318D01*
X60005856Y-41379518D01*
X59998321Y-41374634D01*
X59991749Y-41368901D01*
X59980345Y-41359674D01*
X59364068Y-40743397D01*
X59331894Y-40688504D01*
X59315125Y-40629046D01*
X59315124Y-40629044D01*
X59313557Y-40623487D01*
X59262437Y-40519824D01*
X59226331Y-40446609D01*
X59223776Y-40441428D01*
X59102320Y-40278779D01*
X59020269Y-40202932D01*
X58957503Y-40144911D01*
X58953258Y-40140987D01*
X58852361Y-40077326D01*
X58805423Y-40024059D01*
X58794735Y-39953872D01*
X58823689Y-39889047D01*
X58830502Y-39881669D01*
X59977592Y-38734578D01*
X59987035Y-38727033D01*
X59986712Y-38726654D01*
X59993545Y-38720838D01*
X60001139Y-38716047D01*
X60007083Y-38709317D01*
X60007085Y-38709315D01*
X60036478Y-38676034D01*
X60041824Y-38670346D01*
X60053151Y-38659019D01*
X60059350Y-38650748D01*
X60065737Y-38642903D01*
X60080049Y-38626698D01*
X60096801Y-38607730D01*
X60100616Y-38599603D01*
X60102469Y-38596783D01*
X60110878Y-38582787D01*
X60112488Y-38579846D01*
X60117871Y-38572664D01*
X60134344Y-38528722D01*
X60138271Y-38519401D01*
X60141939Y-38511590D01*
X60158217Y-38476918D01*
X60159598Y-38468047D01*
X60160583Y-38464825D01*
X60164723Y-38449042D01*
X60165445Y-38445758D01*
X60168598Y-38437348D01*
X60172076Y-38390543D01*
X60173230Y-38380495D01*
X60174551Y-38372014D01*
X60174551Y-38372013D01*
X60175300Y-38367203D01*
X60175300Y-38351834D01*
X60175647Y-38342496D01*
X60178643Y-38302184D01*
X60178643Y-38302183D01*
X60179308Y-38293233D01*
X60177435Y-38284458D01*
X60176843Y-38275774D01*
X60175300Y-38261158D01*
X60175300Y-29338730D01*
X60176642Y-29326722D01*
X60176146Y-29326682D01*
X60176866Y-29317731D01*
X60178847Y-29308977D01*
X60175542Y-29255707D01*
X60175300Y-29247905D01*
X60175300Y-29231874D01*
X60174566Y-29226745D01*
X64249795Y-29226745D01*
X64249871Y-29227815D01*
X64253055Y-29232648D01*
X64533342Y-29447720D01*
X64538972Y-29451575D01*
X64843929Y-29636992D01*
X64849931Y-29640210D01*
X65173139Y-29791611D01*
X65179444Y-29794159D01*
X65517117Y-29909771D01*
X65523668Y-29911624D01*
X65871838Y-29990087D01*
X65878557Y-29991224D01*
X66233174Y-30031628D01*
X66239964Y-30032031D01*
X66596865Y-30033899D01*
X66603666Y-30033567D01*
X66958686Y-29996880D01*
X66965414Y-29995814D01*
X67314402Y-29920997D01*
X67320950Y-29919218D01*
X67659820Y-29807147D01*
X67666162Y-29804661D01*
X67990921Y-29656660D01*
X67996975Y-29653495D01*
X68303839Y-29471293D01*
X68309520Y-29467490D01*
X68594918Y-29253207D01*
X68600145Y-29248821D01*
X68612988Y-29236803D01*
X68621057Y-29223123D01*
X68621029Y-29222398D01*
X68615887Y-29214097D01*
X66448812Y-27047022D01*
X66434868Y-27039408D01*
X66433035Y-27039539D01*
X66426420Y-27043790D01*
X64257409Y-29212801D01*
X64249795Y-29226745D01*
X60174566Y-29226745D01*
X60173835Y-29221641D01*
X60172804Y-29211581D01*
X60170454Y-29173701D01*
X60170454Y-29173700D01*
X60169898Y-29164742D01*
X60166850Y-29156299D01*
X60166171Y-29153020D01*
X60162216Y-29137155D01*
X60161273Y-29133931D01*
X60160001Y-29125048D01*
X60156287Y-29116879D01*
X60156285Y-29116873D01*
X60140575Y-29082321D01*
X60136761Y-29072952D01*
X60123877Y-29037263D01*
X60120828Y-29028816D01*
X60115531Y-29021566D01*
X60113954Y-29018599D01*
X60105707Y-29004486D01*
X60103902Y-29001663D01*
X60100188Y-28993495D01*
X60089922Y-28981580D01*
X60069557Y-28957947D01*
X60063275Y-28950036D01*
X60055327Y-28939156D01*
X60044465Y-28928294D01*
X60038107Y-28921447D01*
X60011715Y-28890818D01*
X60005856Y-28884018D01*
X59998321Y-28879134D01*
X59991749Y-28873401D01*
X59980345Y-28864174D01*
X58831056Y-27714885D01*
X58797030Y-27652573D01*
X58802095Y-27581758D01*
X58844642Y-27524922D01*
X58858579Y-27515859D01*
X58906276Y-27489147D01*
X58915352Y-27481599D01*
X59057913Y-27363031D01*
X59062345Y-27359345D01*
X59123332Y-27286017D01*
X59188453Y-27207718D01*
X59188455Y-27207715D01*
X59192147Y-27203276D01*
X59263133Y-27076521D01*
X59288510Y-27031208D01*
X59288511Y-27031206D01*
X59291334Y-27026165D01*
X59293190Y-27020698D01*
X59293192Y-27020693D01*
X59354728Y-26839414D01*
X59354729Y-26839409D01*
X59356584Y-26833945D01*
X59357412Y-26828236D01*
X59357413Y-26828231D01*
X59376222Y-26698507D01*
X59380840Y-26666657D01*
X63073260Y-26666657D01*
X63091318Y-27023127D01*
X63092028Y-27029883D01*
X63148478Y-27382305D01*
X63149917Y-27388960D01*
X63244094Y-27733215D01*
X63246243Y-27739676D01*
X63377053Y-28071756D01*
X63379884Y-28077939D01*
X63545792Y-28393949D01*
X63549275Y-28399791D01*
X63748340Y-28696031D01*
X63752442Y-28701475D01*
X63876942Y-28849322D01*
X63889680Y-28857764D01*
X63900124Y-28851666D01*
X66063978Y-26687812D01*
X66070356Y-26676132D01*
X66800408Y-26676132D01*
X66800539Y-26677965D01*
X66804790Y-26684580D01*
X68970463Y-28850253D01*
X68984060Y-28857678D01*
X68993669Y-28850981D01*
X69098197Y-28729457D01*
X69102346Y-28724069D01*
X69304503Y-28429929D01*
X69308050Y-28424118D01*
X69477250Y-28109879D01*
X69480157Y-28103701D01*
X69614435Y-27773016D01*
X69616649Y-27766586D01*
X69714427Y-27423331D01*
X69715934Y-27416701D01*
X69776073Y-27064873D01*
X69776853Y-27058133D01*
X69798740Y-26700275D01*
X69798856Y-26696673D01*
X69798926Y-26676820D01*
X69798834Y-26673193D01*
X69779446Y-26315208D01*
X69778711Y-26308442D01*
X69721034Y-25956233D01*
X69719567Y-25949561D01*
X69624194Y-25605655D01*
X69622020Y-25599192D01*
X69490053Y-25267575D01*
X69487197Y-25261395D01*
X69320194Y-24945981D01*
X69316682Y-24940137D01*
X69116588Y-24644598D01*
X69112467Y-24639170D01*
X68995041Y-24500704D01*
X68982215Y-24492267D01*
X68971890Y-24498320D01*
X66808022Y-26662188D01*
X66800408Y-26676132D01*
X66070356Y-26676132D01*
X66071592Y-26673868D01*
X66071461Y-26672035D01*
X66067210Y-26665420D01*
X63901527Y-24499737D01*
X63887990Y-24492345D01*
X63878289Y-24499132D01*
X63766649Y-24629847D01*
X63762515Y-24635255D01*
X63561394Y-24930086D01*
X63557859Y-24935923D01*
X63389754Y-25250757D01*
X63386878Y-25256926D01*
X63253754Y-25588081D01*
X63251561Y-25594521D01*
X63154979Y-25938121D01*
X63153496Y-25944756D01*
X63094589Y-26296773D01*
X63093830Y-26303545D01*
X63073284Y-26659862D01*
X63073260Y-26666657D01*
X59380840Y-26666657D01*
X59385712Y-26633053D01*
X59387232Y-26575000D01*
X59373374Y-26424185D01*
X59369187Y-26378613D01*
X59369186Y-26378610D01*
X59368658Y-26372859D01*
X59367090Y-26367299D01*
X59315125Y-26183046D01*
X59315124Y-26183044D01*
X59313557Y-26177487D01*
X59302978Y-26156033D01*
X59226331Y-26000609D01*
X59223776Y-25995428D01*
X59102320Y-25832779D01*
X58984672Y-25724026D01*
X58957503Y-25698911D01*
X58953258Y-25694987D01*
X58948375Y-25691906D01*
X58948371Y-25691903D01*
X58794029Y-25594521D01*
X58781581Y-25586667D01*
X58593039Y-25511446D01*
X58587379Y-25510320D01*
X58587375Y-25510319D01*
X58399613Y-25472971D01*
X58399610Y-25472971D01*
X58393946Y-25471844D01*
X58388171Y-25471768D01*
X58388167Y-25471768D01*
X58286793Y-25470441D01*
X58190971Y-25469187D01*
X58185274Y-25470166D01*
X58185273Y-25470166D01*
X57996607Y-25502585D01*
X57990910Y-25503564D01*
X57800463Y-25573824D01*
X57626010Y-25677612D01*
X57621670Y-25681418D01*
X57621666Y-25681421D01*
X57560883Y-25734727D01*
X57473392Y-25811455D01*
X57347720Y-25970869D01*
X57345031Y-25975980D01*
X57345029Y-25975983D01*
X57332073Y-26000609D01*
X57253203Y-26150515D01*
X57193007Y-26344378D01*
X57169148Y-26545964D01*
X57182424Y-26748522D01*
X57183845Y-26754118D01*
X57183846Y-26754123D01*
X57230971Y-26939674D01*
X57232392Y-26945269D01*
X57234809Y-26950512D01*
X57308206Y-27109722D01*
X57317377Y-27129616D01*
X57320710Y-27134332D01*
X57427910Y-27286017D01*
X57434533Y-27295389D01*
X57579938Y-27437035D01*
X57584742Y-27440245D01*
X57717502Y-27528953D01*
X57763030Y-27583430D01*
X57773500Y-27633718D01*
X57773500Y-27804676D01*
X57772159Y-27816681D01*
X57772655Y-27816721D01*
X57771935Y-27825668D01*
X57769954Y-27834424D01*
X57772638Y-27877682D01*
X57773258Y-27887682D01*
X57773500Y-27895484D01*
X57773500Y-27911526D01*
X57774135Y-27915957D01*
X57774135Y-27915962D01*
X57774965Y-27921753D01*
X57775996Y-27931814D01*
X57778902Y-27978659D01*
X57781949Y-27987099D01*
X57782630Y-27990389D01*
X57786582Y-28006238D01*
X57787527Y-28009468D01*
X57788799Y-28018352D01*
X57792514Y-28026523D01*
X57808218Y-28061063D01*
X57812030Y-28070428D01*
X57824922Y-28106137D01*
X57824924Y-28106140D01*
X57827972Y-28114584D01*
X57833268Y-28121833D01*
X57834840Y-28124790D01*
X57843093Y-28138914D01*
X57844898Y-28141737D01*
X57848612Y-28149905D01*
X57854469Y-28156702D01*
X57854470Y-28156704D01*
X57879243Y-28185453D01*
X57885525Y-28193364D01*
X57893473Y-28204244D01*
X57904335Y-28215106D01*
X57910693Y-28221952D01*
X57942944Y-28259382D01*
X57950479Y-28264266D01*
X57957051Y-28269999D01*
X57968455Y-28279226D01*
X58562631Y-28873401D01*
X59129395Y-29440165D01*
X59163420Y-29502477D01*
X59166300Y-29529260D01*
X59166300Y-32057775D01*
X59146298Y-32125896D01*
X59092642Y-32172389D01*
X59022368Y-32182493D01*
X58971301Y-32162026D01*
X58971054Y-32162452D01*
X58945733Y-32147803D01*
X58791342Y-32058486D01*
X58786146Y-32055480D01*
X58664601Y-32013273D01*
X58590011Y-31987371D01*
X58590009Y-31987371D01*
X58584346Y-31985404D01*
X58578411Y-31984543D01*
X58578409Y-31984543D01*
X58378876Y-31955612D01*
X58378873Y-31955612D01*
X58372936Y-31954751D01*
X58159544Y-31964627D01*
X58153720Y-31966031D01*
X58153717Y-31966031D01*
X57995331Y-32004203D01*
X57951869Y-32014677D01*
X57946419Y-32017155D01*
X57946416Y-32017156D01*
X57762861Y-32100614D01*
X57762859Y-32100615D01*
X57757405Y-32103095D01*
X57752514Y-32106565D01*
X57752513Y-32106565D01*
X57730357Y-32122281D01*
X57583168Y-32226689D01*
X57579020Y-32231022D01*
X57574481Y-32234940D01*
X57572915Y-32233126D01*
X57520447Y-32263271D01*
X57449538Y-32259743D01*
X57391793Y-32218439D01*
X57365546Y-32152472D01*
X57365000Y-32140760D01*
X57365000Y-30329620D01*
X57367549Y-30305673D01*
X57367628Y-30304007D01*
X57369820Y-30293824D01*
X57368596Y-30283482D01*
X57368596Y-30283479D01*
X57365874Y-30260487D01*
X57365523Y-30254546D01*
X57365428Y-30254554D01*
X57365000Y-30249374D01*
X57365000Y-30244176D01*
X57361829Y-30225124D01*
X57360992Y-30219247D01*
X57356193Y-30178697D01*
X57356192Y-30178695D01*
X57354969Y-30168359D01*
X57351008Y-30160110D01*
X57349504Y-30151074D01*
X57341263Y-30135800D01*
X57325152Y-30105940D01*
X57322457Y-30100651D01*
X57303712Y-30061615D01*
X57300280Y-30054468D01*
X57296686Y-30050192D01*
X57294746Y-30048252D01*
X57292993Y-30046341D01*
X57292944Y-30046251D01*
X57293067Y-30046139D01*
X57292595Y-30045604D01*
X57289510Y-30039886D01*
X57281013Y-30032031D01*
X57249914Y-30003284D01*
X57246348Y-29999854D01*
X54861220Y-27614726D01*
X54827194Y-27552414D01*
X54832259Y-27481599D01*
X54874806Y-27424763D01*
X54941326Y-27399952D01*
X55010700Y-27415043D01*
X55030860Y-27429930D01*
X55031313Y-27429370D01*
X55035798Y-27433002D01*
X55039938Y-27437035D01*
X55208720Y-27549812D01*
X55214023Y-27552090D01*
X55214026Y-27552092D01*
X55361327Y-27615377D01*
X55395228Y-27629942D01*
X55468244Y-27646464D01*
X55587579Y-27673467D01*
X55587584Y-27673468D01*
X55593216Y-27674742D01*
X55598987Y-27674969D01*
X55598989Y-27674969D01*
X55658756Y-27677317D01*
X55796053Y-27682712D01*
X55903348Y-27667155D01*
X55991231Y-27654413D01*
X55991236Y-27654412D01*
X55996945Y-27653584D01*
X56002409Y-27651729D01*
X56002414Y-27651728D01*
X56183693Y-27590192D01*
X56183698Y-27590190D01*
X56189165Y-27588334D01*
X56200908Y-27581758D01*
X56271523Y-27542211D01*
X56366276Y-27489147D01*
X56375352Y-27481599D01*
X56517913Y-27363031D01*
X56522345Y-27359345D01*
X56583332Y-27286017D01*
X56648453Y-27207718D01*
X56648455Y-27207715D01*
X56652147Y-27203276D01*
X56723133Y-27076521D01*
X56748510Y-27031208D01*
X56748511Y-27031206D01*
X56751334Y-27026165D01*
X56753190Y-27020698D01*
X56753192Y-27020693D01*
X56814728Y-26839414D01*
X56814729Y-26839409D01*
X56816584Y-26833945D01*
X56817412Y-26828236D01*
X56817413Y-26828231D01*
X56836222Y-26698507D01*
X56845712Y-26633053D01*
X56847232Y-26575000D01*
X56833374Y-26424185D01*
X56829187Y-26378613D01*
X56829186Y-26378610D01*
X56828658Y-26372859D01*
X56827090Y-26367299D01*
X56775125Y-26183046D01*
X56775124Y-26183044D01*
X56773557Y-26177487D01*
X56762978Y-26156033D01*
X56686331Y-26000609D01*
X56683776Y-25995428D01*
X56562320Y-25832779D01*
X56444672Y-25724026D01*
X56417503Y-25698911D01*
X56413258Y-25694987D01*
X56408375Y-25691906D01*
X56408371Y-25691903D01*
X56303389Y-25625665D01*
X56301265Y-25624325D01*
X56254326Y-25571058D01*
X56242500Y-25517763D01*
X56242500Y-25345324D01*
X56243841Y-25333319D01*
X56243345Y-25333279D01*
X56244065Y-25324332D01*
X56246046Y-25315576D01*
X56242742Y-25262319D01*
X56242500Y-25254517D01*
X56242500Y-25238474D01*
X56241102Y-25228709D01*
X56241034Y-25228236D01*
X56240004Y-25218181D01*
X56237654Y-25180301D01*
X56237654Y-25180299D01*
X56237098Y-25171342D01*
X56234051Y-25162901D01*
X56233372Y-25159623D01*
X56229416Y-25143755D01*
X56228473Y-25140531D01*
X56227201Y-25131648D01*
X56223487Y-25123479D01*
X56223485Y-25123473D01*
X56207775Y-25088921D01*
X56203961Y-25079552D01*
X56198066Y-25063223D01*
X56188028Y-25035416D01*
X56182731Y-25028166D01*
X56181154Y-25025199D01*
X56172907Y-25011086D01*
X56171102Y-25008263D01*
X56167388Y-25000095D01*
X56136753Y-24964542D01*
X56130475Y-24956636D01*
X56122527Y-24945756D01*
X56111665Y-24934894D01*
X56105307Y-24928047D01*
X56094311Y-24915286D01*
X56073056Y-24890618D01*
X56065521Y-24885734D01*
X56058949Y-24880001D01*
X56047545Y-24870774D01*
X55303263Y-24126492D01*
X64250580Y-24126492D01*
X64250615Y-24127333D01*
X64255667Y-24135457D01*
X66423188Y-26302978D01*
X66437132Y-26310592D01*
X66438965Y-26310461D01*
X66445580Y-26306210D01*
X68614166Y-24137624D01*
X68621780Y-24123680D01*
X68621712Y-24122723D01*
X68616771Y-24115251D01*
X68612870Y-24111931D01*
X68328958Y-23895649D01*
X68323332Y-23891825D01*
X68017722Y-23707469D01*
X68011710Y-23704272D01*
X67687966Y-23553995D01*
X67681666Y-23551475D01*
X67343595Y-23437045D01*
X67337017Y-23435209D01*
X66988592Y-23357965D01*
X66981857Y-23356850D01*
X66627106Y-23317685D01*
X66620324Y-23317306D01*
X66263395Y-23316683D01*
X66256622Y-23317038D01*
X65901714Y-23354966D01*
X65895005Y-23356053D01*
X65546289Y-23432086D01*
X65539714Y-23433897D01*
X65201250Y-23547145D01*
X65194928Y-23549648D01*
X64870680Y-23698785D01*
X64864637Y-23701971D01*
X64558404Y-23885248D01*
X64552744Y-23889066D01*
X64268094Y-24104346D01*
X64262891Y-24108742D01*
X64258601Y-24112785D01*
X64250580Y-24126492D01*
X55303263Y-24126492D01*
X53779405Y-22602634D01*
X53745379Y-22540322D01*
X53742500Y-22513539D01*
X53742500Y-20030397D01*
X53762502Y-19962276D01*
X53799448Y-19927107D01*
X53798595Y-19925905D01*
X53967940Y-19805781D01*
X53972832Y-19802311D01*
X54030192Y-19742392D01*
X54116403Y-19652335D01*
X54116407Y-19652330D01*
X54120553Y-19647999D01*
X54129171Y-19634653D01*
X54233177Y-19473575D01*
X54236430Y-19468537D01*
X54316281Y-19270401D01*
X54317431Y-19264511D01*
X54319134Y-19258763D01*
X54320308Y-19259111D01*
X54350069Y-19201722D01*
X54411639Y-19166372D01*
X54471758Y-19169380D01*
X54472406Y-19166858D01*
X54482491Y-19169447D01*
X54492017Y-19173659D01*
X54502395Y-19174558D01*
X54510090Y-19176534D01*
X54514070Y-19177391D01*
X54521551Y-19180018D01*
X54527116Y-19180500D01*
X54565554Y-19180500D01*
X54576425Y-19180970D01*
X54584622Y-19181680D01*
X54595653Y-19182635D01*
X54661793Y-19208439D01*
X54705686Y-19272695D01*
X54733832Y-19368637D01*
X54780847Y-19459922D01*
X54825600Y-19546814D01*
X54831644Y-19558550D01*
X54849294Y-19581019D01*
X54959896Y-19721824D01*
X54959900Y-19721829D01*
X54963602Y-19726541D01*
X54968132Y-19730472D01*
X54968133Y-19730473D01*
X55037288Y-19790482D01*
X55124946Y-19866548D01*
X55309854Y-19973520D01*
X55419844Y-20011715D01*
X55505989Y-20041629D01*
X55505991Y-20041629D01*
X55511654Y-20043596D01*
X55517589Y-20044457D01*
X55517591Y-20044457D01*
X55717124Y-20073388D01*
X55717127Y-20073388D01*
X55723064Y-20074249D01*
X55936456Y-20064373D01*
X55942280Y-20062969D01*
X55942283Y-20062969D01*
X56138305Y-20015727D01*
X56138304Y-20015727D01*
X56144131Y-20014323D01*
X56149581Y-20011845D01*
X56149584Y-20011844D01*
X56333139Y-19928386D01*
X56333141Y-19928385D01*
X56338595Y-19925905D01*
X56512832Y-19802311D01*
X56570192Y-19742392D01*
X56656403Y-19652335D01*
X56656407Y-19652330D01*
X56660553Y-19647999D01*
X56669171Y-19634653D01*
X56773177Y-19473575D01*
X56776430Y-19468537D01*
X56856281Y-19270401D01*
X56885150Y-19122574D01*
X56896357Y-19065187D01*
X56896357Y-19065184D01*
X56897225Y-19060741D01*
X56897500Y-19055118D01*
X56897500Y-19004371D01*
X57198500Y-19004371D01*
X57213697Y-19163655D01*
X57273832Y-19368637D01*
X57320847Y-19459922D01*
X57365600Y-19546814D01*
X57371644Y-19558550D01*
X57389294Y-19581019D01*
X57499896Y-19721824D01*
X57499900Y-19721829D01*
X57503602Y-19726541D01*
X57508132Y-19730472D01*
X57508133Y-19730473D01*
X57577288Y-19790482D01*
X57664946Y-19866548D01*
X57849854Y-19973520D01*
X57959844Y-20011715D01*
X58045989Y-20041629D01*
X58045991Y-20041629D01*
X58051654Y-20043596D01*
X58057589Y-20044457D01*
X58057591Y-20044457D01*
X58257124Y-20073388D01*
X58257127Y-20073388D01*
X58263064Y-20074249D01*
X58476456Y-20064373D01*
X58482280Y-20062969D01*
X58482283Y-20062969D01*
X58678305Y-20015727D01*
X58678304Y-20015727D01*
X58684131Y-20014323D01*
X58689581Y-20011845D01*
X58689584Y-20011844D01*
X58873139Y-19928386D01*
X58873141Y-19928385D01*
X58878595Y-19925905D01*
X59052832Y-19802311D01*
X59110192Y-19742392D01*
X59196403Y-19652335D01*
X59196407Y-19652330D01*
X59200553Y-19647999D01*
X59209171Y-19634653D01*
X59313177Y-19473575D01*
X59316430Y-19468537D01*
X59396281Y-19270401D01*
X59425150Y-19122574D01*
X59436357Y-19065187D01*
X59436357Y-19065184D01*
X59437225Y-19060741D01*
X59437500Y-19055118D01*
X59437500Y-19043096D01*
X66421929Y-19043096D01*
X66427544Y-19093956D01*
X66437335Y-19182635D01*
X66439313Y-19200553D01*
X66441923Y-19207684D01*
X66441923Y-19207686D01*
X66470556Y-19285929D01*
X66493753Y-19349319D01*
X66497989Y-19355622D01*
X66497989Y-19355623D01*
X66577250Y-19473575D01*
X66582108Y-19480805D01*
X66587727Y-19485918D01*
X66587728Y-19485919D01*
X66684437Y-19573917D01*
X66699276Y-19587419D01*
X66838493Y-19663008D01*
X66991722Y-19703207D01*
X67088338Y-19704725D01*
X67149972Y-19705693D01*
X67217770Y-19726762D01*
X67237088Y-19742582D01*
X70381295Y-22886789D01*
X70415321Y-22949101D01*
X70418200Y-22975884D01*
X70418200Y-51522287D01*
X70398198Y-51590408D01*
X70375030Y-51617235D01*
X70307739Y-51675938D01*
X70216650Y-51805544D01*
X70199231Y-51850221D01*
X70167627Y-51931283D01*
X70159106Y-51953137D01*
X70158114Y-51960670D01*
X70158114Y-51960671D01*
X70141884Y-52083953D01*
X70138429Y-52110196D01*
X70142915Y-52150824D01*
X70153668Y-52248223D01*
X70155813Y-52267653D01*
X70158423Y-52274784D01*
X70158423Y-52274786D01*
X70203870Y-52398976D01*
X70210253Y-52416419D01*
X70214489Y-52422722D01*
X70214489Y-52422723D01*
X70281623Y-52522628D01*
X70298608Y-52547905D01*
X70304227Y-52553018D01*
X70304228Y-52553019D01*
X70410160Y-52649409D01*
X70415776Y-52654519D01*
X70554993Y-52730108D01*
X70708222Y-52770307D01*
X70792177Y-52771626D01*
X70859019Y-52772676D01*
X70859022Y-52772676D01*
X70866616Y-52772795D01*
X71021032Y-52737429D01*
X71112991Y-52691179D01*
X71155772Y-52669663D01*
X71155775Y-52669661D01*
X71162555Y-52666251D01*
X71168326Y-52661322D01*
X71168329Y-52661320D01*
X71277236Y-52568304D01*
X71277236Y-52568303D01*
X71283014Y-52563369D01*
X71375455Y-52434724D01*
X71434542Y-52287741D01*
X71448888Y-52186936D01*
X71456281Y-52134991D01*
X71456281Y-52134988D01*
X71456862Y-52130907D01*
X71457007Y-52117100D01*
X71456462Y-52112592D01*
X71447267Y-52036611D01*
X71437976Y-51959833D01*
X71381980Y-51811646D01*
X71373514Y-51799328D01*
X71296555Y-51687351D01*
X71296554Y-51687349D01*
X71292253Y-51681092D01*
X71219381Y-51616165D01*
X71181826Y-51555916D01*
X71177200Y-51522089D01*
X71177200Y-22820425D01*
X71179750Y-22796467D01*
X71179828Y-22794808D01*
X71182021Y-22784624D01*
X71180797Y-22774282D01*
X71180797Y-22774279D01*
X71178074Y-22751279D01*
X71177724Y-22745348D01*
X71177628Y-22745356D01*
X71177200Y-22740180D01*
X71177200Y-22734976D01*
X71174027Y-22715912D01*
X71173196Y-22710066D01*
X71168394Y-22669501D01*
X71167170Y-22659159D01*
X71163207Y-22650907D01*
X71161704Y-22641874D01*
X71137365Y-22596766D01*
X71134669Y-22591475D01*
X71115915Y-22552419D01*
X71115914Y-22552418D01*
X71112481Y-22545268D01*
X71108887Y-22540993D01*
X71106962Y-22539068D01*
X71105191Y-22537138D01*
X71105145Y-22537053D01*
X71105268Y-22536941D01*
X71104796Y-22536406D01*
X71101710Y-22530686D01*
X71062113Y-22494083D01*
X71058548Y-22490654D01*
X67771343Y-19203449D01*
X67737317Y-19141137D01*
X67735695Y-19096601D01*
X67739781Y-19067892D01*
X67739781Y-19067886D01*
X67740362Y-19063807D01*
X67740441Y-19056330D01*
X67740464Y-19054134D01*
X67740464Y-19054128D01*
X67740507Y-19050000D01*
X67738373Y-19032361D01*
X67734623Y-19001378D01*
X67721476Y-18892733D01*
X67665480Y-18744546D01*
X67606165Y-18658242D01*
X67580055Y-18620251D01*
X67580054Y-18620249D01*
X67575753Y-18613992D01*
X67557388Y-18597629D01*
X67539460Y-18581656D01*
X67457475Y-18508611D01*
X67450089Y-18504700D01*
X67324188Y-18438039D01*
X67324189Y-18438039D01*
X67317474Y-18434484D01*
X67163833Y-18395892D01*
X67156234Y-18395852D01*
X67156233Y-18395852D01*
X67090381Y-18395507D01*
X67005421Y-18395062D01*
X66998041Y-18396834D01*
X66998039Y-18396834D01*
X66858763Y-18430271D01*
X66858760Y-18430272D01*
X66851384Y-18432043D01*
X66710614Y-18504700D01*
X66591239Y-18608838D01*
X66500150Y-18738444D01*
X66442606Y-18886037D01*
X66441614Y-18893570D01*
X66441614Y-18893571D01*
X66424753Y-19021649D01*
X66421929Y-19043096D01*
X59437500Y-19043096D01*
X59437500Y-18597629D01*
X59422303Y-18438345D01*
X59362168Y-18233363D01*
X59295555Y-18104026D01*
X59267102Y-18048781D01*
X59267100Y-18048778D01*
X59264356Y-18043450D01*
X59222577Y-17990263D01*
X59136104Y-17880176D01*
X59136100Y-17880171D01*
X59132398Y-17875459D01*
X59125066Y-17869096D01*
X58977825Y-17741328D01*
X58971054Y-17735452D01*
X58786146Y-17628480D01*
X58600798Y-17564117D01*
X58590011Y-17560371D01*
X58590009Y-17560371D01*
X58584346Y-17558404D01*
X58578411Y-17557543D01*
X58578409Y-17557543D01*
X58378876Y-17528612D01*
X58378873Y-17528612D01*
X58372936Y-17527751D01*
X58159544Y-17537627D01*
X58153720Y-17539031D01*
X58153717Y-17539031D01*
X57995331Y-17577203D01*
X57951869Y-17587677D01*
X57946419Y-17590155D01*
X57946416Y-17590156D01*
X57762861Y-17673614D01*
X57762859Y-17673615D01*
X57757405Y-17676095D01*
X57583168Y-17799689D01*
X57579020Y-17804022D01*
X57439597Y-17949665D01*
X57439593Y-17949670D01*
X57435447Y-17954001D01*
X57432195Y-17959037D01*
X57432193Y-17959040D01*
X57340485Y-18101072D01*
X57319570Y-18133463D01*
X57239719Y-18331599D01*
X57226802Y-18397743D01*
X57200300Y-18533452D01*
X57198775Y-18541259D01*
X57198500Y-18546882D01*
X57198500Y-19004371D01*
X56897500Y-19004371D01*
X56897500Y-18597629D01*
X56882303Y-18438345D01*
X56822168Y-18233363D01*
X56755555Y-18104026D01*
X56727102Y-18048781D01*
X56727100Y-18048778D01*
X56724356Y-18043450D01*
X56682577Y-17990263D01*
X56596104Y-17880176D01*
X56596100Y-17880171D01*
X56592398Y-17875459D01*
X56585066Y-17869096D01*
X56437825Y-17741328D01*
X56431054Y-17735452D01*
X56246146Y-17628480D01*
X56060798Y-17564117D01*
X56050011Y-17560371D01*
X56050009Y-17560371D01*
X56044346Y-17558404D01*
X56038411Y-17557543D01*
X56038409Y-17557543D01*
X55838876Y-17528612D01*
X55838873Y-17528612D01*
X55832936Y-17527751D01*
X55619544Y-17537627D01*
X55613720Y-17539031D01*
X55613717Y-17539031D01*
X55455331Y-17577203D01*
X55411869Y-17587677D01*
X55406419Y-17590155D01*
X55406416Y-17590156D01*
X55222861Y-17673614D01*
X55222859Y-17673615D01*
X55217405Y-17676095D01*
X55043168Y-17799689D01*
X54951412Y-17895539D01*
X54936934Y-17910663D01*
X54875378Y-17946039D01*
X54804469Y-17942520D01*
X54756821Y-17912627D01*
X51288789Y-14444595D01*
X51254763Y-14382283D01*
X51259828Y-14311468D01*
X51302375Y-14254632D01*
X51368895Y-14229821D01*
X51377884Y-14229500D01*
X73025500Y-14229500D01*
X73093621Y-14249502D01*
G37*
%TD.AperFunction*%
%TA.AperFunction,Conductor*%
G36*
X38494172Y-66695343D02*
G01*
X42815334Y-71016505D01*
X42849360Y-71078817D01*
X42844295Y-71149632D01*
X42801748Y-71206468D01*
X42735228Y-71231279D01*
X42726239Y-71231600D01*
X36407061Y-71231600D01*
X36338940Y-71211598D01*
X36317966Y-71194695D01*
X35009103Y-69885832D01*
X34975077Y-69823520D01*
X34980142Y-69752705D01*
X35022689Y-69695869D01*
X35080118Y-69672041D01*
X35132731Y-69664413D01*
X35132736Y-69664412D01*
X35138445Y-69663584D01*
X35143909Y-69661729D01*
X35143914Y-69661728D01*
X35325193Y-69600192D01*
X35325198Y-69600190D01*
X35330665Y-69598334D01*
X35336862Y-69594864D01*
X35421353Y-69547546D01*
X35507776Y-69499147D01*
X35522549Y-69486861D01*
X35642265Y-69387293D01*
X35663845Y-69369345D01*
X35724299Y-69296657D01*
X35789953Y-69217718D01*
X35789955Y-69217715D01*
X35793647Y-69213276D01*
X35796469Y-69208236D01*
X35796473Y-69208231D01*
X35825567Y-69156279D01*
X35876304Y-69106617D01*
X35945835Y-69092270D01*
X36012086Y-69117791D01*
X36054022Y-69175080D01*
X36061501Y-69217845D01*
X36061501Y-69479669D01*
X36061871Y-69486490D01*
X36067395Y-69537352D01*
X36071021Y-69552604D01*
X36116176Y-69673054D01*
X36124714Y-69688649D01*
X36201215Y-69790724D01*
X36213776Y-69803285D01*
X36315851Y-69879786D01*
X36331446Y-69888324D01*
X36451894Y-69933478D01*
X36467149Y-69937105D01*
X36518014Y-69942631D01*
X36524828Y-69943000D01*
X37147385Y-69943000D01*
X37162624Y-69938525D01*
X37163829Y-69937135D01*
X37165500Y-69929452D01*
X37165500Y-69924884D01*
X37673500Y-69924884D01*
X37677975Y-69940123D01*
X37679365Y-69941328D01*
X37687048Y-69942999D01*
X38314169Y-69942999D01*
X38320990Y-69942629D01*
X38371852Y-69937105D01*
X38387104Y-69933479D01*
X38507554Y-69888324D01*
X38523149Y-69879786D01*
X38625224Y-69803285D01*
X38637785Y-69790724D01*
X38714286Y-69688649D01*
X38722824Y-69673054D01*
X38767978Y-69552606D01*
X38771605Y-69537351D01*
X38777131Y-69486486D01*
X38777500Y-69479672D01*
X38777500Y-68857115D01*
X38773025Y-68841876D01*
X38771635Y-68840671D01*
X38763952Y-68839000D01*
X37691615Y-68839000D01*
X37676376Y-68843475D01*
X37675171Y-68844865D01*
X37673500Y-68852548D01*
X37673500Y-69924884D01*
X37165500Y-69924884D01*
X37165500Y-68457000D01*
X37185502Y-68388879D01*
X37239158Y-68342386D01*
X37291500Y-68331000D01*
X38759384Y-68331000D01*
X38774623Y-68326525D01*
X38775828Y-68325135D01*
X38777499Y-68317452D01*
X38777499Y-67690331D01*
X38777129Y-67683510D01*
X38771605Y-67632648D01*
X38767979Y-67617396D01*
X38722824Y-67496946D01*
X38714286Y-67481351D01*
X38637785Y-67379276D01*
X38625224Y-67366715D01*
X38523149Y-67290214D01*
X38507554Y-67281676D01*
X38387106Y-67236522D01*
X38371851Y-67232895D01*
X38320986Y-67227369D01*
X38314172Y-67227000D01*
X38052346Y-67227000D01*
X37984225Y-67206998D01*
X37937732Y-67153342D01*
X37927628Y-67083068D01*
X37957122Y-67018488D01*
X37990775Y-66991069D01*
X38047776Y-66959147D01*
X38110434Y-66907035D01*
X38175196Y-66853172D01*
X38203845Y-66829345D01*
X38207531Y-66824913D01*
X38207536Y-66824908D01*
X38308203Y-66703869D01*
X38367140Y-66664285D01*
X38438122Y-66662849D01*
X38494172Y-66695343D01*
G37*
%TD.AperFunction*%
%TA.AperFunction,Conductor*%
G36*
X52011533Y-56329804D02*
G01*
X52068369Y-56372351D01*
X52093180Y-56438871D01*
X52093501Y-56447860D01*
X52093501Y-56501066D01*
X52108266Y-56575301D01*
X52115161Y-56585621D01*
X52115162Y-56585622D01*
X52153472Y-56642955D01*
X52164516Y-56659484D01*
X52248699Y-56715734D01*
X52322933Y-56730500D01*
X52401142Y-56730500D01*
X53867900Y-56730499D01*
X53936021Y-56750501D01*
X53982514Y-56804157D01*
X53993900Y-56856499D01*
X53993900Y-58559416D01*
X53973898Y-58627537D01*
X53956995Y-58648511D01*
X52002123Y-60603383D01*
X51939811Y-60637409D01*
X51868996Y-60632344D01*
X51812203Y-60589854D01*
X51789287Y-60559278D01*
X51776724Y-60546715D01*
X51674649Y-60470214D01*
X51659054Y-60461676D01*
X51538606Y-60416522D01*
X51523351Y-60412895D01*
X51472486Y-60407369D01*
X51465672Y-60407000D01*
X50828115Y-60407000D01*
X50812876Y-60411475D01*
X50811671Y-60412865D01*
X50810000Y-60420548D01*
X50810000Y-63434884D01*
X50814475Y-63450123D01*
X50815865Y-63451328D01*
X50823548Y-63452999D01*
X51240900Y-63452999D01*
X51309021Y-63473001D01*
X51355514Y-63526657D01*
X51366900Y-63578999D01*
X51366900Y-64814007D01*
X51346898Y-64882128D01*
X51298691Y-64925972D01*
X51215714Y-64968800D01*
X51096339Y-65072938D01*
X51005250Y-65202544D01*
X50947706Y-65350137D01*
X50946714Y-65357670D01*
X50946714Y-65357671D01*
X50931704Y-65471687D01*
X50927029Y-65507196D01*
X50933784Y-65568377D01*
X50943462Y-65656035D01*
X50944413Y-65664653D01*
X50947023Y-65671784D01*
X50947023Y-65671786D01*
X50991411Y-65793082D01*
X50998853Y-65813419D01*
X51003089Y-65819722D01*
X51003089Y-65819723D01*
X51063801Y-65910071D01*
X51087208Y-65944905D01*
X51092827Y-65950018D01*
X51092828Y-65950019D01*
X51182018Y-66031175D01*
X51204376Y-66051519D01*
X51343593Y-66127108D01*
X51496822Y-66167307D01*
X51580777Y-66168626D01*
X51647619Y-66169676D01*
X51647622Y-66169676D01*
X51655216Y-66169795D01*
X51809632Y-66134429D01*
X51896274Y-66090853D01*
X51944372Y-66066663D01*
X51944375Y-66066661D01*
X51951155Y-66063251D01*
X51956926Y-66058322D01*
X51956929Y-66058320D01*
X52065836Y-65965304D01*
X52065836Y-65965303D01*
X52071614Y-65960369D01*
X52164055Y-65831724D01*
X52223142Y-65684741D01*
X52232498Y-65618999D01*
X52244881Y-65531991D01*
X52244881Y-65531988D01*
X52245462Y-65527907D01*
X52245607Y-65514100D01*
X52226576Y-65356833D01*
X52170580Y-65208646D01*
X52148060Y-65175879D01*
X52125900Y-65104512D01*
X52125900Y-62996592D01*
X52145902Y-62928471D01*
X52199558Y-62881978D01*
X52269832Y-62871874D01*
X52334480Y-62901426D01*
X52442946Y-62995548D01*
X52528596Y-63045098D01*
X52577544Y-63096522D01*
X52591500Y-63154161D01*
X52591500Y-65710076D01*
X52590159Y-65722081D01*
X52590655Y-65722121D01*
X52589935Y-65731068D01*
X52587954Y-65739824D01*
X52588510Y-65748784D01*
X52591258Y-65793082D01*
X52591500Y-65800884D01*
X52591500Y-65816926D01*
X52592135Y-65821357D01*
X52592135Y-65821362D01*
X52592965Y-65827153D01*
X52593996Y-65837214D01*
X52596902Y-65884059D01*
X52599949Y-65892499D01*
X52600630Y-65895789D01*
X52604582Y-65911638D01*
X52605527Y-65914868D01*
X52606799Y-65923752D01*
X52610514Y-65931923D01*
X52626218Y-65966463D01*
X52630030Y-65975828D01*
X52642922Y-66011537D01*
X52642924Y-66011540D01*
X52645972Y-66019984D01*
X52651268Y-66027233D01*
X52652840Y-66030190D01*
X52661093Y-66044314D01*
X52662898Y-66047137D01*
X52666612Y-66055305D01*
X52672469Y-66062102D01*
X52672470Y-66062104D01*
X52684601Y-66076182D01*
X52688156Y-66080307D01*
X52697243Y-66090853D01*
X52703525Y-66098764D01*
X52711473Y-66109644D01*
X52722335Y-66120506D01*
X52728693Y-66127352D01*
X52760944Y-66164782D01*
X52768479Y-66169666D01*
X52775051Y-66175399D01*
X52786455Y-66184626D01*
X55185531Y-68583702D01*
X55219557Y-68646014D01*
X55214492Y-68716829D01*
X55171945Y-68773665D01*
X55160868Y-68781077D01*
X55086010Y-68825612D01*
X55081670Y-68829418D01*
X55081666Y-68829421D01*
X54942989Y-68951039D01*
X54933392Y-68959455D01*
X54807720Y-69118869D01*
X54805031Y-69123980D01*
X54805029Y-69123983D01*
X54778146Y-69175080D01*
X54713203Y-69298515D01*
X54683486Y-69394220D01*
X54654837Y-69486486D01*
X54653007Y-69492378D01*
X54629148Y-69693964D01*
X54642424Y-69896522D01*
X54643845Y-69902118D01*
X54643846Y-69902123D01*
X54689962Y-70083701D01*
X54692392Y-70093269D01*
X54694809Y-70098512D01*
X54732010Y-70179208D01*
X54777377Y-70277616D01*
X54780710Y-70282332D01*
X54807458Y-70320180D01*
X54830439Y-70387355D01*
X54813454Y-70456290D01*
X54761897Y-70505099D01*
X54704561Y-70518900D01*
X54428500Y-70518900D01*
X54360379Y-70498898D01*
X54313886Y-70445242D01*
X54302500Y-70392900D01*
X54302499Y-68854123D01*
X54302499Y-68847934D01*
X54287734Y-68773699D01*
X54275124Y-68754826D01*
X54238377Y-68699832D01*
X54231484Y-68689516D01*
X54178015Y-68653789D01*
X54157620Y-68640161D01*
X54147301Y-68633266D01*
X54073067Y-68618500D01*
X53828500Y-68618500D01*
X53760379Y-68598498D01*
X53713886Y-68544842D01*
X53702500Y-68492500D01*
X53702500Y-68431302D01*
X53702502Y-68430533D01*
X53702681Y-68401185D01*
X53702972Y-68353527D01*
X53700506Y-68344897D01*
X53700505Y-68344893D01*
X53694928Y-68325380D01*
X53691350Y-68308619D01*
X53691206Y-68307611D01*
X53687201Y-68279648D01*
X53676692Y-68256535D01*
X53670242Y-68239006D01*
X53665727Y-68223207D01*
X53665726Y-68223206D01*
X53663261Y-68214579D01*
X53647641Y-68189823D01*
X53639503Y-68174740D01*
X53631105Y-68156271D01*
X53627388Y-68148095D01*
X53621524Y-68141289D01*
X53610809Y-68128853D01*
X53599701Y-68113842D01*
X53590939Y-68099955D01*
X53590937Y-68099953D01*
X53586147Y-68092361D01*
X53564204Y-68072982D01*
X53552163Y-68060793D01*
X53533056Y-68038618D01*
X53511744Y-68024804D01*
X53496872Y-68013516D01*
X53484558Y-68002641D01*
X53477830Y-67996699D01*
X53463487Y-67989965D01*
X53451335Y-67984259D01*
X53436356Y-67975938D01*
X53419326Y-67964900D01*
X53419318Y-67964896D01*
X53411790Y-67960017D01*
X53387449Y-67952737D01*
X53370013Y-67946079D01*
X53347018Y-67935283D01*
X53338152Y-67933903D01*
X53338150Y-67933902D01*
X53318103Y-67930781D01*
X53301385Y-67926998D01*
X53281938Y-67921182D01*
X53281936Y-67921182D01*
X53273337Y-67918610D01*
X53264365Y-67918555D01*
X53264363Y-67918555D01*
X53254086Y-67918493D01*
X53239154Y-67918402D01*
X53238392Y-67918370D01*
X53237303Y-67918200D01*
X53206602Y-67918200D01*
X53205833Y-67918198D01*
X53128827Y-67917728D01*
X53127492Y-67918110D01*
X53126164Y-67918200D01*
X52724960Y-67918200D01*
X52656839Y-67898198D01*
X52635865Y-67881295D01*
X48100705Y-63346134D01*
X48066679Y-63283822D01*
X48063800Y-63257039D01*
X48063800Y-62989669D01*
X49183001Y-62989669D01*
X49183371Y-62996490D01*
X49188895Y-63047352D01*
X49192521Y-63062604D01*
X49237676Y-63183054D01*
X49246214Y-63198649D01*
X49322715Y-63300724D01*
X49335276Y-63313285D01*
X49437351Y-63389786D01*
X49452946Y-63398324D01*
X49573394Y-63443478D01*
X49588649Y-63447105D01*
X49639514Y-63452631D01*
X49646328Y-63453000D01*
X50283885Y-63453000D01*
X50299124Y-63448525D01*
X50300329Y-63447135D01*
X50302000Y-63439452D01*
X50302000Y-62202115D01*
X50297525Y-62186876D01*
X50296135Y-62185671D01*
X50288452Y-62184000D01*
X49201116Y-62184000D01*
X49185877Y-62188475D01*
X49184672Y-62189865D01*
X49183001Y-62197548D01*
X49183001Y-62989669D01*
X48063800Y-62989669D01*
X48063800Y-61657885D01*
X49183000Y-61657885D01*
X49187475Y-61673124D01*
X49188865Y-61674329D01*
X49196548Y-61676000D01*
X50283885Y-61676000D01*
X50299124Y-61671525D01*
X50300329Y-61670135D01*
X50302000Y-61662452D01*
X50302000Y-60425116D01*
X50297525Y-60409877D01*
X50296135Y-60408672D01*
X50288452Y-60407001D01*
X49646331Y-60407001D01*
X49639510Y-60407371D01*
X49588648Y-60412895D01*
X49573396Y-60416521D01*
X49452946Y-60461676D01*
X49437351Y-60470214D01*
X49335276Y-60546715D01*
X49322715Y-60559276D01*
X49246214Y-60661351D01*
X49237676Y-60676946D01*
X49192522Y-60797394D01*
X49188895Y-60812649D01*
X49183369Y-60863514D01*
X49183000Y-60870328D01*
X49183000Y-61657885D01*
X48063800Y-61657885D01*
X48063800Y-61275961D01*
X48083802Y-61207840D01*
X48100705Y-61186866D01*
X49306794Y-59980777D01*
X49316234Y-59973235D01*
X49315911Y-59972855D01*
X49322747Y-59967037D01*
X49330339Y-59962247D01*
X49365672Y-59922240D01*
X49371017Y-59916554D01*
X49382351Y-59905220D01*
X49385038Y-59901634D01*
X49385043Y-59901629D01*
X49388557Y-59896941D01*
X49394938Y-59889103D01*
X49420060Y-59860657D01*
X49426001Y-59853930D01*
X49429815Y-59845807D01*
X49431661Y-59842996D01*
X49440072Y-59828997D01*
X49441686Y-59826048D01*
X49447070Y-59818865D01*
X49463542Y-59774926D01*
X49467469Y-59765606D01*
X49483602Y-59731244D01*
X49483602Y-59731243D01*
X49487417Y-59723118D01*
X49488798Y-59714247D01*
X49489783Y-59711025D01*
X49493920Y-59695254D01*
X49494644Y-59691960D01*
X49497798Y-59683548D01*
X49501276Y-59636750D01*
X49502426Y-59626726D01*
X49504500Y-59613403D01*
X49504500Y-59598038D01*
X49504846Y-59588701D01*
X49507842Y-59548382D01*
X49508507Y-59539434D01*
X49506634Y-59530659D01*
X49506041Y-59521963D01*
X49504500Y-59507363D01*
X49504500Y-58784861D01*
X49524502Y-58716740D01*
X49541405Y-58695766D01*
X51878406Y-56358765D01*
X51940718Y-56324739D01*
X52011533Y-56329804D01*
G37*
%TD.AperFunction*%
%TA.AperFunction,Conductor*%
G36*
X30391672Y-59627843D02*
G01*
X34588823Y-63824994D01*
X34596365Y-63834434D01*
X34596745Y-63834111D01*
X34602563Y-63840947D01*
X34607353Y-63848539D01*
X34614081Y-63854481D01*
X34647359Y-63883871D01*
X34653046Y-63889217D01*
X34664380Y-63900551D01*
X34667966Y-63903238D01*
X34667971Y-63903243D01*
X34672659Y-63906757D01*
X34680497Y-63913138D01*
X34715670Y-63944201D01*
X34723795Y-63948016D01*
X34726616Y-63949869D01*
X34740612Y-63958277D01*
X34743550Y-63959886D01*
X34750736Y-63965271D01*
X34759141Y-63968422D01*
X34759143Y-63968423D01*
X34794678Y-63981744D01*
X34803992Y-63985668D01*
X34846482Y-64005617D01*
X34855353Y-64006998D01*
X34858575Y-64007983D01*
X34874366Y-64012125D01*
X34877644Y-64012846D01*
X34886052Y-64015998D01*
X34899809Y-64017020D01*
X34932857Y-64019476D01*
X34942904Y-64020630D01*
X34951386Y-64021951D01*
X34951389Y-64021951D01*
X34956197Y-64022700D01*
X34971562Y-64022700D01*
X34980900Y-64023046D01*
X35030167Y-64026707D01*
X35038942Y-64024834D01*
X35047638Y-64024241D01*
X35062238Y-64022700D01*
X47298139Y-64022700D01*
X47366260Y-64042702D01*
X47387234Y-64059605D01*
X52057123Y-68729494D01*
X52064677Y-68738949D01*
X52065057Y-68738626D01*
X52066226Y-68740000D01*
X52067121Y-68742008D01*
X52074594Y-68751361D01*
X52075657Y-68753046D01*
X52072836Y-68754826D01*
X52095135Y-68804844D01*
X52094172Y-68835589D01*
X52095314Y-68835702D01*
X52094707Y-68841863D01*
X52093500Y-68847933D01*
X52093501Y-69681219D01*
X52093501Y-70392900D01*
X52073499Y-70461021D01*
X52019843Y-70507514D01*
X51967501Y-70518900D01*
X43796861Y-70518900D01*
X43728740Y-70498898D01*
X43707766Y-70481995D01*
X43111603Y-69885832D01*
X43077577Y-69823520D01*
X43082642Y-69752705D01*
X43125189Y-69695869D01*
X43182618Y-69672041D01*
X43235231Y-69664413D01*
X43235236Y-69664412D01*
X43240945Y-69663584D01*
X43246409Y-69661729D01*
X43246414Y-69661728D01*
X43427693Y-69600192D01*
X43427698Y-69600190D01*
X43433165Y-69598334D01*
X43439362Y-69594864D01*
X43523853Y-69547546D01*
X43610276Y-69499147D01*
X43625049Y-69486861D01*
X43744765Y-69387293D01*
X43766345Y-69369345D01*
X43826799Y-69296657D01*
X43892453Y-69217718D01*
X43892455Y-69217715D01*
X43896147Y-69213276D01*
X43898969Y-69208236D01*
X43898973Y-69208231D01*
X43928067Y-69156279D01*
X43978804Y-69106617D01*
X44048335Y-69092270D01*
X44114586Y-69117791D01*
X44156522Y-69175080D01*
X44164001Y-69217845D01*
X44164001Y-69479669D01*
X44164371Y-69486490D01*
X44169895Y-69537352D01*
X44173521Y-69552604D01*
X44218676Y-69673054D01*
X44227214Y-69688649D01*
X44303715Y-69790724D01*
X44316276Y-69803285D01*
X44418351Y-69879786D01*
X44433946Y-69888324D01*
X44554394Y-69933478D01*
X44569649Y-69937105D01*
X44620514Y-69942631D01*
X44627328Y-69943000D01*
X45249885Y-69943000D01*
X45265124Y-69938525D01*
X45266329Y-69937135D01*
X45268000Y-69929452D01*
X45268000Y-69924884D01*
X45776000Y-69924884D01*
X45780475Y-69940123D01*
X45781865Y-69941328D01*
X45789548Y-69942999D01*
X46416669Y-69942999D01*
X46423490Y-69942629D01*
X46474352Y-69937105D01*
X46489604Y-69933479D01*
X46610054Y-69888324D01*
X46625649Y-69879786D01*
X46727724Y-69803285D01*
X46740285Y-69790724D01*
X46816786Y-69688649D01*
X46825324Y-69673054D01*
X46870478Y-69552606D01*
X46874105Y-69537351D01*
X46879631Y-69486486D01*
X46880000Y-69479672D01*
X46880000Y-68857115D01*
X46875525Y-68841876D01*
X46874135Y-68840671D01*
X46866452Y-68839000D01*
X45794115Y-68839000D01*
X45778876Y-68843475D01*
X45777671Y-68844865D01*
X45776000Y-68852548D01*
X45776000Y-69924884D01*
X45268000Y-69924884D01*
X45268000Y-68457000D01*
X45288002Y-68388879D01*
X45341658Y-68342386D01*
X45394000Y-68331000D01*
X46861884Y-68331000D01*
X46877123Y-68326525D01*
X46878328Y-68325135D01*
X46879999Y-68317452D01*
X46879999Y-67690331D01*
X46879629Y-67683510D01*
X46874105Y-67632648D01*
X46870479Y-67617396D01*
X46825324Y-67496946D01*
X46816786Y-67481351D01*
X46740285Y-67379276D01*
X46727724Y-67366715D01*
X46625649Y-67290214D01*
X46610054Y-67281676D01*
X46489606Y-67236522D01*
X46474351Y-67232895D01*
X46423486Y-67227369D01*
X46416672Y-67227000D01*
X46154846Y-67227000D01*
X46086725Y-67206998D01*
X46040232Y-67153342D01*
X46030128Y-67083068D01*
X46059622Y-67018488D01*
X46093275Y-66991069D01*
X46150276Y-66959147D01*
X46212934Y-66907035D01*
X46277696Y-66853172D01*
X46306345Y-66829345D01*
X46338503Y-66790680D01*
X46432453Y-66677718D01*
X46432455Y-66677715D01*
X46436147Y-66673276D01*
X46535334Y-66496165D01*
X46537190Y-66490698D01*
X46537192Y-66490693D01*
X46598728Y-66309414D01*
X46598729Y-66309409D01*
X46600584Y-66303945D01*
X46601412Y-66298236D01*
X46601413Y-66298231D01*
X46625163Y-66134429D01*
X46629712Y-66103053D01*
X46631232Y-66045000D01*
X46618104Y-65902131D01*
X46613187Y-65848613D01*
X46613186Y-65848610D01*
X46612658Y-65842859D01*
X46611090Y-65837299D01*
X46559125Y-65653046D01*
X46559124Y-65653044D01*
X46557557Y-65647487D01*
X46546978Y-65626033D01*
X46470331Y-65470609D01*
X46467776Y-65465428D01*
X46346320Y-65302779D01*
X46197258Y-65164987D01*
X46192375Y-65161906D01*
X46192371Y-65161903D01*
X46043457Y-65067946D01*
X46025581Y-65056667D01*
X45837039Y-64981446D01*
X45831379Y-64980320D01*
X45831375Y-64980319D01*
X45643613Y-64942971D01*
X45643610Y-64942971D01*
X45637946Y-64941844D01*
X45632171Y-64941768D01*
X45632167Y-64941768D01*
X45530793Y-64940441D01*
X45434971Y-64939187D01*
X45429274Y-64940166D01*
X45429273Y-64940166D01*
X45240607Y-64972585D01*
X45234910Y-64973564D01*
X45044463Y-65043824D01*
X44870010Y-65147612D01*
X44865670Y-65151418D01*
X44865666Y-65151421D01*
X44745381Y-65256909D01*
X44717392Y-65281455D01*
X44591720Y-65440869D01*
X44589031Y-65445980D01*
X44589029Y-65445983D01*
X44556823Y-65507196D01*
X44497203Y-65620515D01*
X44437007Y-65814378D01*
X44413148Y-66015964D01*
X44426424Y-66218522D01*
X44427845Y-66224118D01*
X44427846Y-66224123D01*
X44463833Y-66365819D01*
X44476392Y-66415269D01*
X44478809Y-66420512D01*
X44514211Y-66497305D01*
X44561377Y-66599616D01*
X44564710Y-66604332D01*
X44647923Y-66722076D01*
X44678533Y-66765389D01*
X44682675Y-66769424D01*
X44739637Y-66824913D01*
X44823938Y-66907035D01*
X44828742Y-66910245D01*
X44957436Y-66996236D01*
X45002964Y-67050713D01*
X45011812Y-67121156D01*
X44981170Y-67185200D01*
X44920768Y-67222512D01*
X44887434Y-67227001D01*
X44627331Y-67227001D01*
X44620510Y-67227371D01*
X44569648Y-67232895D01*
X44554396Y-67236521D01*
X44433946Y-67281676D01*
X44418351Y-67290214D01*
X44316276Y-67366715D01*
X44303715Y-67379276D01*
X44227214Y-67481351D01*
X44218676Y-67496946D01*
X44173522Y-67617394D01*
X44169895Y-67632649D01*
X44164369Y-67683514D01*
X44164000Y-67690328D01*
X44164000Y-67945160D01*
X44143998Y-68013281D01*
X44090342Y-68059774D01*
X44020068Y-68069878D01*
X43955488Y-68040384D01*
X43930567Y-68010994D01*
X43930331Y-68010608D01*
X43927776Y-68005428D01*
X43806320Y-67842779D01*
X43657258Y-67704987D01*
X43652375Y-67701906D01*
X43652371Y-67701903D01*
X43545265Y-67634325D01*
X43498326Y-67581058D01*
X43486500Y-67527763D01*
X43486500Y-67102314D01*
X43506502Y-67034193D01*
X43550931Y-66992382D01*
X43610276Y-66959147D01*
X43672934Y-66907035D01*
X43737696Y-66853172D01*
X43766345Y-66829345D01*
X43798503Y-66790680D01*
X43892453Y-66677718D01*
X43892455Y-66677715D01*
X43896147Y-66673276D01*
X43995334Y-66496165D01*
X43997190Y-66490698D01*
X43997192Y-66490693D01*
X44058728Y-66309414D01*
X44058729Y-66309409D01*
X44060584Y-66303945D01*
X44061412Y-66298236D01*
X44061413Y-66298231D01*
X44085163Y-66134429D01*
X44089712Y-66103053D01*
X44091232Y-66045000D01*
X44078104Y-65902131D01*
X44073187Y-65848613D01*
X44073186Y-65848610D01*
X44072658Y-65842859D01*
X44071090Y-65837299D01*
X44019125Y-65653046D01*
X44019124Y-65653044D01*
X44017557Y-65647487D01*
X44006978Y-65626033D01*
X43930331Y-65470609D01*
X43927776Y-65465428D01*
X43806320Y-65302779D01*
X43657258Y-65164987D01*
X43652375Y-65161906D01*
X43652371Y-65161903D01*
X43503457Y-65067946D01*
X43485581Y-65056667D01*
X43297039Y-64981446D01*
X43291379Y-64980320D01*
X43291375Y-64980319D01*
X43103613Y-64942971D01*
X43103610Y-64942971D01*
X43097946Y-64941844D01*
X43092171Y-64941768D01*
X43092167Y-64941768D01*
X42990793Y-64940441D01*
X42894971Y-64939187D01*
X42889274Y-64940166D01*
X42889273Y-64940166D01*
X42700607Y-64972585D01*
X42694910Y-64973564D01*
X42504463Y-65043824D01*
X42330010Y-65147612D01*
X42325670Y-65151418D01*
X42325666Y-65151421D01*
X42205381Y-65256909D01*
X42177392Y-65281455D01*
X42051720Y-65440869D01*
X42049031Y-65445980D01*
X42049029Y-65445983D01*
X42016823Y-65507196D01*
X41957203Y-65620515D01*
X41897007Y-65814378D01*
X41873148Y-66015964D01*
X41886424Y-66218522D01*
X41887845Y-66224118D01*
X41887846Y-66224123D01*
X41923833Y-66365819D01*
X41936392Y-66415269D01*
X41938809Y-66420512D01*
X41974211Y-66497305D01*
X42021377Y-66599616D01*
X42024710Y-66604332D01*
X42107923Y-66722076D01*
X42138533Y-66765389D01*
X42142675Y-66769424D01*
X42199637Y-66824913D01*
X42283938Y-66907035D01*
X42288742Y-66910245D01*
X42421502Y-66998953D01*
X42467030Y-67053430D01*
X42477500Y-67103718D01*
X42477500Y-67528214D01*
X42457498Y-67596335D01*
X42415923Y-67636499D01*
X42334978Y-67684656D01*
X42334975Y-67684658D01*
X42330010Y-67687612D01*
X42325670Y-67691418D01*
X42325666Y-67691421D01*
X42210470Y-67792446D01*
X42177392Y-67821455D01*
X42051720Y-67980869D01*
X42049031Y-67985980D01*
X42049029Y-67985983D01*
X42020407Y-68040384D01*
X41957203Y-68160515D01*
X41897007Y-68354378D01*
X41896329Y-68360109D01*
X41896327Y-68360117D01*
X41894007Y-68379726D01*
X41866138Y-68445024D01*
X41807390Y-68484890D01*
X41736416Y-68486665D01*
X41679785Y-68454014D01*
X39256946Y-66031175D01*
X39226459Y-65975344D01*
X39224772Y-65975826D01*
X39216728Y-65947680D01*
X39213150Y-65930919D01*
X39213054Y-65930249D01*
X39209001Y-65901948D01*
X39198492Y-65878835D01*
X39192042Y-65861306D01*
X39187527Y-65845507D01*
X39187526Y-65845506D01*
X39185061Y-65836879D01*
X39169441Y-65812123D01*
X39161303Y-65797040D01*
X39152905Y-65778571D01*
X39149188Y-65770395D01*
X39143324Y-65763589D01*
X39132609Y-65751153D01*
X39121501Y-65736142D01*
X39112739Y-65722255D01*
X39112737Y-65722253D01*
X39107947Y-65714661D01*
X39086004Y-65695282D01*
X39073963Y-65683093D01*
X39054856Y-65660918D01*
X39040503Y-65651615D01*
X39033544Y-65647104D01*
X39018672Y-65635816D01*
X39006358Y-65624941D01*
X38999630Y-65618999D01*
X38977554Y-65608634D01*
X38973135Y-65606559D01*
X38958156Y-65598238D01*
X38941126Y-65587200D01*
X38941118Y-65587196D01*
X38933590Y-65582317D01*
X38909249Y-65575037D01*
X38891813Y-65568379D01*
X38868818Y-65557583D01*
X38859952Y-65556203D01*
X38859950Y-65556202D01*
X38839903Y-65553081D01*
X38823185Y-65549298D01*
X38803738Y-65543482D01*
X38803736Y-65543482D01*
X38795137Y-65540910D01*
X38786165Y-65540855D01*
X38786163Y-65540855D01*
X38775886Y-65540793D01*
X38760954Y-65540702D01*
X38760192Y-65540670D01*
X38759103Y-65540500D01*
X38728402Y-65540500D01*
X38727633Y-65540498D01*
X38650627Y-65540028D01*
X38649292Y-65540410D01*
X38647964Y-65540500D01*
X38480649Y-65540500D01*
X38412528Y-65520498D01*
X38371839Y-65474927D01*
X38370849Y-65475534D01*
X38367830Y-65470608D01*
X38365276Y-65465428D01*
X38243820Y-65302779D01*
X38094758Y-65164987D01*
X38089875Y-65161906D01*
X38089871Y-65161903D01*
X37940957Y-65067946D01*
X37923081Y-65056667D01*
X37734539Y-64981446D01*
X37728879Y-64980320D01*
X37728875Y-64980319D01*
X37541113Y-64942971D01*
X37541110Y-64942971D01*
X37535446Y-64941844D01*
X37529671Y-64941768D01*
X37529667Y-64941768D01*
X37428293Y-64940441D01*
X37332471Y-64939187D01*
X37326774Y-64940166D01*
X37326773Y-64940166D01*
X37138107Y-64972585D01*
X37132410Y-64973564D01*
X36941963Y-65043824D01*
X36767510Y-65147612D01*
X36763170Y-65151418D01*
X36763166Y-65151421D01*
X36642881Y-65256909D01*
X36614892Y-65281455D01*
X36489220Y-65440869D01*
X36486531Y-65445980D01*
X36486529Y-65445983D01*
X36454323Y-65507196D01*
X36394703Y-65620515D01*
X36334507Y-65814378D01*
X36310648Y-66015964D01*
X36323924Y-66218522D01*
X36325345Y-66224118D01*
X36325346Y-66224123D01*
X36361333Y-66365819D01*
X36373892Y-66415269D01*
X36376309Y-66420512D01*
X36411711Y-66497305D01*
X36458877Y-66599616D01*
X36462210Y-66604332D01*
X36545423Y-66722076D01*
X36576033Y-66765389D01*
X36580175Y-66769424D01*
X36637137Y-66824913D01*
X36721438Y-66907035D01*
X36726242Y-66910245D01*
X36854936Y-66996236D01*
X36900464Y-67050713D01*
X36909312Y-67121156D01*
X36878670Y-67185200D01*
X36818268Y-67222512D01*
X36784934Y-67227001D01*
X36524831Y-67227001D01*
X36518010Y-67227371D01*
X36467148Y-67232895D01*
X36451896Y-67236521D01*
X36331446Y-67281676D01*
X36315851Y-67290214D01*
X36213776Y-67366715D01*
X36201215Y-67379276D01*
X36124714Y-67481351D01*
X36116176Y-67496946D01*
X36071022Y-67617394D01*
X36067395Y-67632649D01*
X36061869Y-67683514D01*
X36061500Y-67690328D01*
X36061500Y-67945160D01*
X36041498Y-68013281D01*
X35987842Y-68059774D01*
X35917568Y-68069878D01*
X35852988Y-68040384D01*
X35828067Y-68010994D01*
X35827831Y-68010608D01*
X35825276Y-68005428D01*
X35703820Y-67842779D01*
X35554758Y-67704987D01*
X35549875Y-67701906D01*
X35549871Y-67701903D01*
X35442765Y-67634325D01*
X35395826Y-67581058D01*
X35384000Y-67527763D01*
X35384000Y-67102314D01*
X35404002Y-67034193D01*
X35448431Y-66992382D01*
X35507776Y-66959147D01*
X35570434Y-66907035D01*
X35635196Y-66853172D01*
X35663845Y-66829345D01*
X35696003Y-66790680D01*
X35789953Y-66677718D01*
X35789955Y-66677715D01*
X35793647Y-66673276D01*
X35892834Y-66496165D01*
X35894690Y-66490698D01*
X35894692Y-66490693D01*
X35956228Y-66309414D01*
X35956229Y-66309409D01*
X35958084Y-66303945D01*
X35958912Y-66298236D01*
X35958913Y-66298231D01*
X35982663Y-66134429D01*
X35987212Y-66103053D01*
X35988732Y-66045000D01*
X35975604Y-65902131D01*
X35970687Y-65848613D01*
X35970686Y-65848610D01*
X35970158Y-65842859D01*
X35968590Y-65837299D01*
X35916625Y-65653046D01*
X35916624Y-65653044D01*
X35915057Y-65647487D01*
X35904478Y-65626033D01*
X35827831Y-65470609D01*
X35825276Y-65465428D01*
X35703820Y-65302779D01*
X35554758Y-65164987D01*
X35549875Y-65161906D01*
X35549871Y-65161903D01*
X35400957Y-65067946D01*
X35383081Y-65056667D01*
X35194539Y-64981446D01*
X35188879Y-64980320D01*
X35188875Y-64980319D01*
X35001113Y-64942971D01*
X35001110Y-64942971D01*
X34995446Y-64941844D01*
X34989671Y-64941768D01*
X34989667Y-64941768D01*
X34888293Y-64940441D01*
X34792471Y-64939187D01*
X34786774Y-64940166D01*
X34786773Y-64940166D01*
X34598107Y-64972585D01*
X34592410Y-64973564D01*
X34401963Y-65043824D01*
X34227510Y-65147612D01*
X34223170Y-65151418D01*
X34223166Y-65151421D01*
X34102881Y-65256909D01*
X34074892Y-65281455D01*
X33949220Y-65440869D01*
X33946531Y-65445980D01*
X33946529Y-65445983D01*
X33914323Y-65507196D01*
X33854703Y-65620515D01*
X33794507Y-65814378D01*
X33770648Y-66015964D01*
X33783924Y-66218522D01*
X33785345Y-66224118D01*
X33785346Y-66224123D01*
X33821333Y-66365819D01*
X33833892Y-66415269D01*
X33836309Y-66420512D01*
X33871711Y-66497305D01*
X33918877Y-66599616D01*
X33922210Y-66604332D01*
X34005423Y-66722076D01*
X34036033Y-66765389D01*
X34040175Y-66769424D01*
X34097137Y-66824913D01*
X34181438Y-66907035D01*
X34186242Y-66910245D01*
X34319002Y-66998953D01*
X34364530Y-67053430D01*
X34375000Y-67103718D01*
X34375000Y-67528214D01*
X34354998Y-67596335D01*
X34313423Y-67636499D01*
X34232478Y-67684656D01*
X34232475Y-67684658D01*
X34227510Y-67687612D01*
X34223170Y-67691418D01*
X34223166Y-67691421D01*
X34107970Y-67792446D01*
X34074892Y-67821455D01*
X33949220Y-67980869D01*
X33946531Y-67985980D01*
X33946529Y-67985983D01*
X33917907Y-68040384D01*
X33854703Y-68160515D01*
X33794507Y-68354378D01*
X33793829Y-68360109D01*
X33793827Y-68360117D01*
X33791507Y-68379726D01*
X33763638Y-68445024D01*
X33704890Y-68484890D01*
X33633916Y-68486665D01*
X33577285Y-68454014D01*
X31154446Y-66031175D01*
X31123959Y-65975344D01*
X31122272Y-65975826D01*
X31114228Y-65947680D01*
X31110650Y-65930919D01*
X31110554Y-65930249D01*
X31106501Y-65901948D01*
X31095992Y-65878835D01*
X31089542Y-65861306D01*
X31085027Y-65845507D01*
X31085026Y-65845506D01*
X31082561Y-65836879D01*
X31066941Y-65812123D01*
X31058803Y-65797040D01*
X31050405Y-65778571D01*
X31046688Y-65770395D01*
X31040824Y-65763589D01*
X31030109Y-65751153D01*
X31019001Y-65736142D01*
X31010239Y-65722255D01*
X31010237Y-65722253D01*
X31005447Y-65714661D01*
X30983504Y-65695282D01*
X30971463Y-65683093D01*
X30952356Y-65660918D01*
X30938003Y-65651615D01*
X30931044Y-65647104D01*
X30916172Y-65635816D01*
X30903858Y-65624941D01*
X30897130Y-65618999D01*
X30875054Y-65608634D01*
X30870635Y-65606559D01*
X30855656Y-65598238D01*
X30838626Y-65587200D01*
X30838618Y-65587196D01*
X30831090Y-65582317D01*
X30806749Y-65575037D01*
X30789313Y-65568379D01*
X30766318Y-65557583D01*
X30757452Y-65556203D01*
X30757450Y-65556202D01*
X30737403Y-65553081D01*
X30720685Y-65549298D01*
X30701238Y-65543482D01*
X30701236Y-65543482D01*
X30692637Y-65540910D01*
X30683665Y-65540855D01*
X30683663Y-65540855D01*
X30673386Y-65540793D01*
X30658454Y-65540702D01*
X30657692Y-65540670D01*
X30656603Y-65540500D01*
X30625902Y-65540500D01*
X30625133Y-65540498D01*
X30548127Y-65540028D01*
X30546792Y-65540410D01*
X30545464Y-65540500D01*
X30378149Y-65540500D01*
X30310028Y-65520498D01*
X30269339Y-65474927D01*
X30268349Y-65475534D01*
X30265330Y-65470608D01*
X30262776Y-65465428D01*
X30141320Y-65302779D01*
X29992258Y-65164987D01*
X29987375Y-65161906D01*
X29987371Y-65161903D01*
X29838457Y-65067946D01*
X29820581Y-65056667D01*
X29632039Y-64981446D01*
X29626379Y-64980320D01*
X29626375Y-64980319D01*
X29438613Y-64942971D01*
X29438610Y-64942971D01*
X29432946Y-64941844D01*
X29427171Y-64941768D01*
X29427167Y-64941768D01*
X29325793Y-64940441D01*
X29229971Y-64939187D01*
X29224274Y-64940166D01*
X29224273Y-64940166D01*
X29035607Y-64972585D01*
X29029910Y-64973564D01*
X28839463Y-65043824D01*
X28834502Y-65046776D01*
X28834501Y-65046776D01*
X28677823Y-65139989D01*
X28609052Y-65157629D01*
X28541662Y-65135288D01*
X28497048Y-65080060D01*
X28487400Y-65031704D01*
X28487400Y-62748000D01*
X28507402Y-62679879D01*
X28561058Y-62633386D01*
X28613400Y-62622000D01*
X30112255Y-62621999D01*
X30192066Y-62621999D01*
X30227818Y-62614888D01*
X30254126Y-62609656D01*
X30254128Y-62609655D01*
X30266301Y-62607234D01*
X30276621Y-62600339D01*
X30276622Y-62600338D01*
X30340168Y-62557877D01*
X30350484Y-62550984D01*
X30406734Y-62466801D01*
X30421500Y-62392567D01*
X30421499Y-60642434D01*
X30411011Y-60589703D01*
X30409156Y-60580374D01*
X30409155Y-60580372D01*
X30406734Y-60568199D01*
X30380432Y-60528835D01*
X30357377Y-60494332D01*
X30350484Y-60484016D01*
X30266301Y-60427766D01*
X30192067Y-60413000D01*
X30112280Y-60413000D01*
X28613400Y-60413001D01*
X28545279Y-60392999D01*
X28498786Y-60339343D01*
X28487400Y-60287001D01*
X28487400Y-59987374D01*
X28507402Y-59919253D01*
X28561058Y-59872760D01*
X28631332Y-59862656D01*
X28683402Y-59882609D01*
X28738244Y-59919253D01*
X28787720Y-59952312D01*
X28793023Y-59954590D01*
X28793026Y-59954592D01*
X28966631Y-60029178D01*
X28974228Y-60032442D01*
X29047244Y-60048964D01*
X29166579Y-60075967D01*
X29166584Y-60075968D01*
X29172216Y-60077242D01*
X29177987Y-60077469D01*
X29177989Y-60077469D01*
X29237756Y-60079817D01*
X29375053Y-60085212D01*
X29475499Y-60070648D01*
X29570231Y-60056913D01*
X29570236Y-60056912D01*
X29575945Y-60056084D01*
X29581409Y-60054229D01*
X29581414Y-60054228D01*
X29762693Y-59992692D01*
X29762698Y-59992690D01*
X29768165Y-59990834D01*
X29774344Y-59987374D01*
X29859712Y-59939565D01*
X29945276Y-59891647D01*
X29955712Y-59882968D01*
X30072696Y-59785672D01*
X30101345Y-59761845D01*
X30105031Y-59757413D01*
X30105036Y-59757408D01*
X30205703Y-59636369D01*
X30264640Y-59596785D01*
X30335622Y-59595349D01*
X30391672Y-59627843D01*
G37*
%TD.AperFunction*%
%TA.AperFunction,Conductor*%
G36*
X52011533Y-41724804D02*
G01*
X52068369Y-41767351D01*
X52093180Y-41833871D01*
X52093501Y-41842860D01*
X52093501Y-41896066D01*
X52095790Y-41907573D01*
X52102694Y-41942284D01*
X52108266Y-41970301D01*
X52115161Y-41980621D01*
X52115162Y-41980622D01*
X52155516Y-42041015D01*
X52164516Y-42054484D01*
X52248699Y-42110734D01*
X52322933Y-42125500D01*
X52401138Y-42125500D01*
X53867800Y-42125499D01*
X53935921Y-42145501D01*
X53982414Y-42199157D01*
X53993800Y-42251499D01*
X53993800Y-43562316D01*
X53973798Y-43630437D01*
X53956895Y-43651411D01*
X51773384Y-45834922D01*
X51754636Y-45850064D01*
X51753411Y-45851179D01*
X51744660Y-45856829D01*
X51738213Y-45865007D01*
X51738211Y-45865009D01*
X51723871Y-45883200D01*
X51719925Y-45887641D01*
X51719998Y-45887703D01*
X51716639Y-45891667D01*
X51712962Y-45895344D01*
X51701708Y-45911092D01*
X51698202Y-45915762D01*
X51666444Y-45956047D01*
X51663412Y-45964681D01*
X51658086Y-45972134D01*
X51655101Y-45982115D01*
X51643399Y-46021244D01*
X51641564Y-46026892D01*
X51624582Y-46075251D01*
X51624100Y-46080816D01*
X51624100Y-46083524D01*
X51623986Y-46086158D01*
X51623957Y-46086256D01*
X51623793Y-46086249D01*
X51623749Y-46086953D01*
X51621887Y-46093178D01*
X51622296Y-46103583D01*
X51620990Y-46113919D01*
X51618177Y-46113564D01*
X51604773Y-46166897D01*
X51552988Y-46215465D01*
X51496176Y-46229000D01*
X50970115Y-46229000D01*
X50954876Y-46233475D01*
X50953671Y-46234865D01*
X50952000Y-46242548D01*
X50952000Y-49256884D01*
X50956475Y-49272123D01*
X50957865Y-49273328D01*
X50965548Y-49274999D01*
X51498100Y-49274999D01*
X51566221Y-49295001D01*
X51612714Y-49348657D01*
X51624100Y-49400999D01*
X51624100Y-50674880D01*
X51621551Y-50698828D01*
X51621472Y-50700493D01*
X51619280Y-50710676D01*
X51620723Y-50722864D01*
X51623227Y-50744023D01*
X51623577Y-50749954D01*
X51623672Y-50749946D01*
X51624100Y-50755124D01*
X51624100Y-50760324D01*
X51624954Y-50765453D01*
X51624954Y-50765456D01*
X51627269Y-50779365D01*
X51628106Y-50785243D01*
X51630779Y-50807824D01*
X51634130Y-50836141D01*
X51638093Y-50844393D01*
X51639596Y-50853426D01*
X51644543Y-50862595D01*
X51644544Y-50862597D01*
X51663934Y-50898532D01*
X51666631Y-50903825D01*
X51685385Y-50942882D01*
X51685388Y-50942886D01*
X51688819Y-50950032D01*
X51692414Y-50954308D01*
X51694337Y-50956231D01*
X51696109Y-50958163D01*
X51696152Y-50958242D01*
X51696028Y-50958355D01*
X51696504Y-50958895D01*
X51699590Y-50964614D01*
X51707235Y-50971681D01*
X51739186Y-51001216D01*
X51742752Y-51004646D01*
X53163049Y-52424943D01*
X53197075Y-52487255D01*
X53198876Y-52530482D01*
X53193529Y-52571096D01*
X53196267Y-52595892D01*
X53206787Y-52691179D01*
X53210913Y-52728553D01*
X53213523Y-52735684D01*
X53213523Y-52735686D01*
X53262371Y-52869169D01*
X53265353Y-52877319D01*
X53269589Y-52883622D01*
X53269589Y-52883623D01*
X53341918Y-52991259D01*
X53353708Y-53008805D01*
X53470876Y-53115419D01*
X53610093Y-53191008D01*
X53763322Y-53231207D01*
X53831635Y-53232280D01*
X53869879Y-53232881D01*
X53937677Y-53253950D01*
X53983322Y-53308330D01*
X53993900Y-53358865D01*
X53993900Y-54395500D01*
X53973898Y-54463621D01*
X53920242Y-54510114D01*
X53867900Y-54521500D01*
X53828687Y-54521500D01*
X53760566Y-54501498D01*
X53714073Y-54447842D01*
X53704953Y-54384409D01*
X53703345Y-54384280D01*
X53704065Y-54375332D01*
X53706046Y-54366577D01*
X53704234Y-54337370D01*
X53704338Y-54320232D01*
X53704967Y-54311777D01*
X53706508Y-54291033D01*
X53701203Y-54266185D01*
X53698670Y-54247688D01*
X53697654Y-54231301D01*
X53697654Y-54231299D01*
X53697098Y-54222342D01*
X53694051Y-54213901D01*
X53693372Y-54210623D01*
X53689414Y-54194747D01*
X53688473Y-54191529D01*
X53687201Y-54182648D01*
X53683488Y-54174480D01*
X53681122Y-54166390D01*
X53678213Y-54158484D01*
X53676339Y-54149706D01*
X53664276Y-54127348D01*
X53656653Y-54110308D01*
X53651076Y-54094858D01*
X53651075Y-54094856D01*
X53648028Y-54086416D01*
X53642734Y-54079170D01*
X53641160Y-54076209D01*
X53632917Y-54062103D01*
X53631104Y-54059268D01*
X53627388Y-54051095D01*
X53621527Y-54044293D01*
X53616989Y-54037197D01*
X53611982Y-54030430D01*
X53607717Y-54022526D01*
X53588286Y-54002855D01*
X53583701Y-53998214D01*
X53583176Y-53997643D01*
X53582527Y-53996756D01*
X53571665Y-53985894D01*
X53565307Y-53979047D01*
X53538915Y-53948418D01*
X53533056Y-53941618D01*
X53525523Y-53936735D01*
X53519158Y-53931183D01*
X53516846Y-53929428D01*
X53508907Y-53922502D01*
X53506157Y-53919718D01*
X53504943Y-53919044D01*
X53503936Y-53918165D01*
X49482005Y-49896234D01*
X49447979Y-49833922D01*
X49445100Y-49807139D01*
X49445100Y-49345948D01*
X49465102Y-49277827D01*
X49518758Y-49231334D01*
X49589032Y-49221230D01*
X49615329Y-49227966D01*
X49715391Y-49265478D01*
X49730649Y-49269105D01*
X49781514Y-49274631D01*
X49788328Y-49275000D01*
X50425885Y-49275000D01*
X50441124Y-49270525D01*
X50442329Y-49269135D01*
X50444000Y-49261452D01*
X50444000Y-46247116D01*
X50439525Y-46231877D01*
X50438135Y-46230672D01*
X50430452Y-46229001D01*
X49788331Y-46229001D01*
X49781510Y-46229371D01*
X49730648Y-46234895D01*
X49715394Y-46238522D01*
X49615329Y-46276034D01*
X49544522Y-46281217D01*
X49482153Y-46247296D01*
X49448024Y-46185041D01*
X49445100Y-46158052D01*
X49445100Y-45307261D01*
X49465102Y-45239140D01*
X49482005Y-45218166D01*
X51021994Y-43678177D01*
X51031434Y-43670635D01*
X51031111Y-43670255D01*
X51037947Y-43664437D01*
X51045539Y-43659647D01*
X51080872Y-43619640D01*
X51086217Y-43613954D01*
X51097551Y-43602620D01*
X51100238Y-43599034D01*
X51100243Y-43599029D01*
X51103757Y-43594341D01*
X51110138Y-43586503D01*
X51135260Y-43558057D01*
X51141201Y-43551330D01*
X51145015Y-43543207D01*
X51146861Y-43540396D01*
X51155272Y-43526397D01*
X51156886Y-43523448D01*
X51162270Y-43516265D01*
X51178742Y-43472326D01*
X51182669Y-43463006D01*
X51198802Y-43428644D01*
X51198802Y-43428643D01*
X51202617Y-43420518D01*
X51203998Y-43411647D01*
X51204983Y-43408425D01*
X51209120Y-43392654D01*
X51209844Y-43389360D01*
X51212998Y-43380948D01*
X51216476Y-43334150D01*
X51217626Y-43324126D01*
X51219700Y-43310803D01*
X51219700Y-43295438D01*
X51220046Y-43286101D01*
X51223042Y-43245782D01*
X51223707Y-43236834D01*
X51221834Y-43228059D01*
X51221241Y-43219363D01*
X51219700Y-43204763D01*
X51219700Y-42464661D01*
X51239702Y-42396540D01*
X51256605Y-42375566D01*
X51878406Y-41753765D01*
X51940718Y-41719739D01*
X52011533Y-41724804D01*
G37*
%TD.AperFunction*%
%TA.AperFunction,Conductor*%
G36*
X53952659Y-27699501D02*
G01*
X53999152Y-27753157D01*
X54003515Y-27767431D01*
X54003930Y-27770941D01*
X54007893Y-27779193D01*
X54009396Y-27788226D01*
X54014343Y-27797395D01*
X54014344Y-27797397D01*
X54033734Y-27833332D01*
X54036431Y-27838625D01*
X54055185Y-27877682D01*
X54055188Y-27877686D01*
X54058619Y-27884832D01*
X54062214Y-27889108D01*
X54064137Y-27891031D01*
X54065909Y-27892963D01*
X54065952Y-27893042D01*
X54065828Y-27893155D01*
X54066304Y-27893695D01*
X54069390Y-27899414D01*
X54077035Y-27906481D01*
X54108986Y-27936016D01*
X54112552Y-27939446D01*
X56569095Y-30395989D01*
X56603121Y-30458301D01*
X56606000Y-30485084D01*
X56606000Y-32045203D01*
X56585998Y-32113324D01*
X56532342Y-32159817D01*
X56462068Y-32169921D01*
X56416907Y-32154268D01*
X56246146Y-32055480D01*
X56124601Y-32013273D01*
X56050011Y-31987371D01*
X56050009Y-31987371D01*
X56044346Y-31985404D01*
X56038411Y-31984543D01*
X56038409Y-31984543D01*
X55838876Y-31955612D01*
X55838873Y-31955612D01*
X55832936Y-31954751D01*
X55619544Y-31964627D01*
X55613720Y-31966031D01*
X55613717Y-31966031D01*
X55455331Y-32004203D01*
X55411869Y-32014677D01*
X55406419Y-32017155D01*
X55406416Y-32017156D01*
X55222861Y-32100614D01*
X55222859Y-32100615D01*
X55217405Y-32103095D01*
X55212514Y-32106565D01*
X55212513Y-32106565D01*
X55190357Y-32122281D01*
X55043168Y-32226689D01*
X55039020Y-32231022D01*
X54899597Y-32376665D01*
X54899593Y-32376670D01*
X54895447Y-32381001D01*
X54892195Y-32386037D01*
X54892193Y-32386040D01*
X54804815Y-32521365D01*
X54779570Y-32560463D01*
X54699719Y-32758599D01*
X54658775Y-32968259D01*
X54658500Y-32973882D01*
X54658500Y-33431371D01*
X54673697Y-33590655D01*
X54683357Y-33623581D01*
X54684079Y-33626043D01*
X54684062Y-33697040D01*
X54645664Y-33756757D01*
X54581076Y-33786235D01*
X54510804Y-33776114D01*
X54474079Y-33750608D01*
X54380792Y-33657321D01*
X54346766Y-33595009D01*
X54346223Y-33544078D01*
X54357225Y-33487741D01*
X54357500Y-33482118D01*
X54357500Y-33024629D01*
X54342303Y-32865345D01*
X54282168Y-32660363D01*
X54194479Y-32490104D01*
X54187102Y-32475781D01*
X54187100Y-32475778D01*
X54184356Y-32470450D01*
X54142577Y-32417263D01*
X54056104Y-32307176D01*
X54056100Y-32307171D01*
X54052398Y-32302459D01*
X53891054Y-32162452D01*
X53706146Y-32055480D01*
X53584601Y-32013273D01*
X53510011Y-31987371D01*
X53510009Y-31987371D01*
X53504346Y-31985404D01*
X53498411Y-31984543D01*
X53498409Y-31984543D01*
X53298876Y-31955612D01*
X53298873Y-31955612D01*
X53292936Y-31954751D01*
X53079544Y-31964627D01*
X53073720Y-31966031D01*
X53073717Y-31966031D01*
X52915331Y-32004203D01*
X52871869Y-32014677D01*
X52866419Y-32017155D01*
X52866416Y-32017156D01*
X52682861Y-32100614D01*
X52682859Y-32100615D01*
X52677405Y-32103095D01*
X52672514Y-32106565D01*
X52672513Y-32106565D01*
X52650357Y-32122281D01*
X52503168Y-32226689D01*
X52499020Y-32231022D01*
X52359597Y-32376665D01*
X52359593Y-32376670D01*
X52355447Y-32381001D01*
X52352195Y-32386037D01*
X52352193Y-32386040D01*
X52302851Y-32462458D01*
X52249096Y-32508835D01*
X52178800Y-32518789D01*
X52114283Y-32489158D01*
X52076027Y-32429349D01*
X52070999Y-32394110D01*
X52070999Y-32168331D01*
X52070629Y-32161510D01*
X52065105Y-32110648D01*
X52061479Y-32095396D01*
X52016324Y-31974946D01*
X52007786Y-31959351D01*
X51931285Y-31857276D01*
X51918724Y-31844715D01*
X51816649Y-31768214D01*
X51801054Y-31759676D01*
X51680606Y-31714522D01*
X51665351Y-31710895D01*
X51614486Y-31705369D01*
X51607672Y-31705000D01*
X50970115Y-31705000D01*
X50954876Y-31709475D01*
X50953671Y-31710865D01*
X50952000Y-31718548D01*
X50952000Y-34732884D01*
X50956475Y-34748123D01*
X50957865Y-34749328D01*
X50965548Y-34750999D01*
X51607669Y-34750999D01*
X51614490Y-34750629D01*
X51665352Y-34745105D01*
X51680604Y-34741479D01*
X51801054Y-34696324D01*
X51816649Y-34687786D01*
X51918724Y-34611285D01*
X51931285Y-34598724D01*
X52007786Y-34496649D01*
X52016324Y-34481054D01*
X52061478Y-34360606D01*
X52065105Y-34345351D01*
X52070631Y-34294486D01*
X52071000Y-34287672D01*
X52071000Y-34069038D01*
X52091002Y-34000917D01*
X52144658Y-33954424D01*
X52214932Y-33944320D01*
X52279512Y-33973814D01*
X52296086Y-33991205D01*
X52419896Y-34148824D01*
X52419900Y-34148829D01*
X52423602Y-34153541D01*
X52428132Y-34157472D01*
X52428133Y-34157473D01*
X52471168Y-34194817D01*
X52584946Y-34293548D01*
X52769854Y-34400520D01*
X52871077Y-34435670D01*
X52965989Y-34468629D01*
X52965991Y-34468629D01*
X52971654Y-34470596D01*
X52977589Y-34471457D01*
X52977591Y-34471457D01*
X53177124Y-34500388D01*
X53177127Y-34500388D01*
X53183064Y-34501249D01*
X53396456Y-34491373D01*
X53402280Y-34489969D01*
X53402283Y-34489969D01*
X53598298Y-34442729D01*
X53598300Y-34442728D01*
X53604131Y-34441323D01*
X53609589Y-34438841D01*
X53609593Y-34438840D01*
X53616565Y-34435670D01*
X53686856Y-34425686D01*
X53751387Y-34455289D01*
X53757807Y-34461278D01*
X55196595Y-35900066D01*
X55230621Y-35962378D01*
X55233500Y-35989161D01*
X55233500Y-38037735D01*
X55213498Y-38105856D01*
X55159842Y-38152349D01*
X55089568Y-38162453D01*
X55024988Y-38132959D01*
X54989634Y-38082273D01*
X54960264Y-38004549D01*
X54957580Y-37997446D01*
X54883775Y-37890059D01*
X54872155Y-37873151D01*
X54872154Y-37873149D01*
X54867853Y-37866892D01*
X54749575Y-37761511D01*
X54742189Y-37757600D01*
X54616288Y-37690939D01*
X54616289Y-37690939D01*
X54609574Y-37687384D01*
X54455933Y-37648792D01*
X54448334Y-37648752D01*
X54448333Y-37648752D01*
X54382481Y-37648407D01*
X54297521Y-37647962D01*
X54290141Y-37649734D01*
X54290139Y-37649734D01*
X54150863Y-37683171D01*
X54150860Y-37683172D01*
X54143484Y-37684943D01*
X54002714Y-37757600D01*
X53883339Y-37861738D01*
X53792250Y-37991344D01*
X53789490Y-37998424D01*
X53742507Y-38118929D01*
X53734706Y-38138937D01*
X53733714Y-38146470D01*
X53733714Y-38146471D01*
X53715820Y-38282395D01*
X53714029Y-38295996D01*
X53714863Y-38303546D01*
X53728647Y-38428396D01*
X53731413Y-38453453D01*
X53734023Y-38460584D01*
X53734023Y-38460586D01*
X53781059Y-38589118D01*
X53785853Y-38602219D01*
X53790089Y-38608522D01*
X53790089Y-38608523D01*
X53869930Y-38727338D01*
X53874208Y-38733705D01*
X53879827Y-38738818D01*
X53879828Y-38738819D01*
X53952599Y-38805035D01*
X53989522Y-38865675D01*
X53993800Y-38898229D01*
X53993800Y-39790500D01*
X53973798Y-39858621D01*
X53920142Y-39905114D01*
X53867800Y-39916500D01*
X53828688Y-39916500D01*
X53760567Y-39896498D01*
X53714074Y-39842842D01*
X53704954Y-39779411D01*
X53703346Y-39779282D01*
X53704066Y-39770331D01*
X53706047Y-39761577D01*
X53704234Y-39732357D01*
X53704339Y-39715219D01*
X53705843Y-39694988D01*
X53705842Y-39694978D01*
X53706507Y-39686034D01*
X53701204Y-39661194D01*
X53698671Y-39642695D01*
X53697654Y-39626301D01*
X53697654Y-39626300D01*
X53697098Y-39617342D01*
X53694050Y-39608899D01*
X53693371Y-39605620D01*
X53689418Y-39589763D01*
X53688474Y-39586534D01*
X53687201Y-39577648D01*
X53683485Y-39569474D01*
X53681122Y-39561394D01*
X53678213Y-39553486D01*
X53676338Y-39544706D01*
X53672075Y-39536805D01*
X53664278Y-39522354D01*
X53656654Y-39505309D01*
X53651079Y-39489866D01*
X53651077Y-39489863D01*
X53648028Y-39481416D01*
X53642731Y-39474166D01*
X53641154Y-39471199D01*
X53632914Y-39457099D01*
X53631105Y-39454271D01*
X53627388Y-39446095D01*
X53621526Y-39439293D01*
X53616988Y-39432196D01*
X53611978Y-39425425D01*
X53607716Y-39417526D01*
X53583701Y-39393216D01*
X53583178Y-39392647D01*
X53582527Y-39391756D01*
X53571665Y-39380894D01*
X53565307Y-39374047D01*
X53538915Y-39343418D01*
X53533056Y-39336618D01*
X53525521Y-39331734D01*
X53519185Y-39326207D01*
X53516864Y-39324445D01*
X53508908Y-39317504D01*
X53506156Y-39314718D01*
X53504942Y-39314044D01*
X53503945Y-39313174D01*
X49869605Y-35678834D01*
X49835579Y-35616522D01*
X49832700Y-35589739D01*
X49832700Y-34877000D01*
X49852702Y-34808879D01*
X49906358Y-34762386D01*
X49958700Y-34751000D01*
X50425885Y-34751000D01*
X50441124Y-34746525D01*
X50442329Y-34745135D01*
X50444000Y-34737452D01*
X50444000Y-31723116D01*
X50439525Y-31707877D01*
X50438135Y-31706672D01*
X50430452Y-31705001D01*
X50385960Y-31705001D01*
X50317839Y-31684999D01*
X50271346Y-31631343D01*
X50261242Y-31561069D01*
X50290736Y-31496489D01*
X50296865Y-31489906D01*
X53504792Y-28281978D01*
X53514235Y-28274433D01*
X53513912Y-28274054D01*
X53520745Y-28268238D01*
X53528339Y-28263447D01*
X53534283Y-28256717D01*
X53534285Y-28256715D01*
X53563678Y-28223434D01*
X53569024Y-28217746D01*
X53580351Y-28206419D01*
X53586550Y-28198148D01*
X53592937Y-28190303D01*
X53593833Y-28189289D01*
X53624001Y-28155130D01*
X53627816Y-28147003D01*
X53629669Y-28144183D01*
X53638078Y-28130187D01*
X53639688Y-28127246D01*
X53645071Y-28120064D01*
X53657904Y-28085833D01*
X53661544Y-28076122D01*
X53665471Y-28066801D01*
X53681602Y-28032444D01*
X53681602Y-28032443D01*
X53685417Y-28024318D01*
X53686798Y-28015447D01*
X53687783Y-28012225D01*
X53691923Y-27996442D01*
X53692645Y-27993158D01*
X53695798Y-27984748D01*
X53699276Y-27937943D01*
X53700430Y-27927895D01*
X53701751Y-27919414D01*
X53701751Y-27919413D01*
X53702500Y-27914603D01*
X53702500Y-27899234D01*
X53702847Y-27889896D01*
X53705843Y-27849584D01*
X53705843Y-27849583D01*
X53706508Y-27840633D01*
X53704635Y-27831858D01*
X53704043Y-27823174D01*
X53702500Y-27808558D01*
X53702500Y-27805499D01*
X53722502Y-27737378D01*
X53776158Y-27690885D01*
X53828500Y-27679499D01*
X53884538Y-27679499D01*
X53952659Y-27699501D01*
G37*
%TD.AperFunction*%
%TA.AperFunction,Conductor*%
G36*
X50733637Y-14966902D02*
G01*
X50754611Y-14983805D01*
X53105054Y-17334248D01*
X53139080Y-17396560D01*
X53134015Y-17467375D01*
X53091468Y-17524211D01*
X53045480Y-17545836D01*
X52900510Y-17580774D01*
X52871869Y-17587677D01*
X52866419Y-17590155D01*
X52866416Y-17590156D01*
X52682861Y-17673614D01*
X52682859Y-17673615D01*
X52677405Y-17676095D01*
X52503168Y-17799689D01*
X52499020Y-17804022D01*
X52359597Y-17949665D01*
X52359593Y-17949670D01*
X52355447Y-17954001D01*
X52352195Y-17959037D01*
X52352193Y-17959040D01*
X52302851Y-18035458D01*
X52249096Y-18081835D01*
X52178800Y-18091789D01*
X52114283Y-18062158D01*
X52076027Y-18002349D01*
X52070999Y-17967110D01*
X52070999Y-17741331D01*
X52070629Y-17734510D01*
X52065105Y-17683648D01*
X52061479Y-17668396D01*
X52016324Y-17547946D01*
X52007786Y-17532351D01*
X51931285Y-17430276D01*
X51918724Y-17417715D01*
X51816649Y-17341214D01*
X51801054Y-17332676D01*
X51680606Y-17287522D01*
X51665351Y-17283895D01*
X51614486Y-17278369D01*
X51607672Y-17278000D01*
X50970115Y-17278000D01*
X50954876Y-17282475D01*
X50953671Y-17283865D01*
X50952000Y-17291548D01*
X50952000Y-20305884D01*
X50956475Y-20321123D01*
X50957865Y-20322328D01*
X50965548Y-20323999D01*
X51607669Y-20323999D01*
X51614490Y-20323629D01*
X51665352Y-20318105D01*
X51680604Y-20314479D01*
X51801054Y-20269324D01*
X51816649Y-20260786D01*
X51918724Y-20184285D01*
X51931285Y-20171724D01*
X52007786Y-20069649D01*
X52016324Y-20054054D01*
X52061478Y-19933606D01*
X52065105Y-19918351D01*
X52070631Y-19867486D01*
X52071000Y-19860672D01*
X52071000Y-19642038D01*
X52091002Y-19573917D01*
X52144658Y-19527424D01*
X52214932Y-19517320D01*
X52279512Y-19546814D01*
X52296086Y-19564205D01*
X52419896Y-19721824D01*
X52419900Y-19721829D01*
X52423602Y-19726541D01*
X52428132Y-19730472D01*
X52428133Y-19730473D01*
X52497288Y-19790482D01*
X52584946Y-19866548D01*
X52670596Y-19916098D01*
X52719544Y-19967522D01*
X52733500Y-20025161D01*
X52733500Y-22704076D01*
X52732159Y-22716081D01*
X52732655Y-22716121D01*
X52731935Y-22725068D01*
X52729954Y-22733824D01*
X52731037Y-22751279D01*
X52733258Y-22787082D01*
X52733500Y-22794884D01*
X52733500Y-22810926D01*
X52734135Y-22815357D01*
X52734135Y-22815362D01*
X52734965Y-22821153D01*
X52735996Y-22831214D01*
X52737389Y-22853676D01*
X52738308Y-22868476D01*
X52738902Y-22878059D01*
X52741949Y-22886499D01*
X52742630Y-22889789D01*
X52746582Y-22905638D01*
X52747527Y-22908868D01*
X52748799Y-22917752D01*
X52752514Y-22925923D01*
X52768218Y-22960463D01*
X52772030Y-22969828D01*
X52784922Y-23005537D01*
X52784924Y-23005540D01*
X52787972Y-23013984D01*
X52793268Y-23021233D01*
X52794840Y-23024190D01*
X52803093Y-23038314D01*
X52804898Y-23041137D01*
X52808612Y-23049305D01*
X52814469Y-23056102D01*
X52814470Y-23056104D01*
X52839243Y-23084853D01*
X52845525Y-23092764D01*
X52853473Y-23103644D01*
X52864335Y-23114506D01*
X52870693Y-23121352D01*
X52902944Y-23158782D01*
X52910479Y-23163666D01*
X52917051Y-23169399D01*
X52928455Y-23178626D01*
X53331692Y-23581863D01*
X53334505Y-23587015D01*
X53345438Y-23595609D01*
X55185531Y-25435702D01*
X55219557Y-25498014D01*
X55214492Y-25568829D01*
X55171945Y-25625665D01*
X55160868Y-25633077D01*
X55086010Y-25677612D01*
X55081667Y-25681421D01*
X55081660Y-25681426D01*
X54961978Y-25786385D01*
X54897574Y-25816263D01*
X54827241Y-25806577D01*
X54773310Y-25760405D01*
X54752900Y-25691654D01*
X54752900Y-25575220D01*
X54755449Y-25551272D01*
X54755528Y-25549607D01*
X54757720Y-25539424D01*
X54753773Y-25506077D01*
X54753423Y-25500146D01*
X54753328Y-25500154D01*
X54752900Y-25494976D01*
X54752900Y-25489776D01*
X54750103Y-25472971D01*
X54749731Y-25470735D01*
X54748894Y-25464857D01*
X54744094Y-25424299D01*
X54744094Y-25424298D01*
X54742870Y-25413959D01*
X54738907Y-25405707D01*
X54737404Y-25396674D01*
X54713065Y-25351566D01*
X54710369Y-25346275D01*
X54691615Y-25307218D01*
X54691612Y-25307214D01*
X54688181Y-25300068D01*
X54684586Y-25295792D01*
X54682663Y-25293869D01*
X54680891Y-25291937D01*
X54680848Y-25291858D01*
X54680972Y-25291745D01*
X54680496Y-25291205D01*
X54677410Y-25285486D01*
X54637813Y-25248883D01*
X54634248Y-25245454D01*
X53190878Y-23802084D01*
X53175736Y-23783336D01*
X53174622Y-23782111D01*
X53168971Y-23773360D01*
X53142592Y-23752565D01*
X53138159Y-23748625D01*
X53138097Y-23748698D01*
X53134133Y-23745339D01*
X53130456Y-23741662D01*
X53114708Y-23730408D01*
X53110038Y-23726902D01*
X53069753Y-23695144D01*
X53061119Y-23692112D01*
X53053666Y-23686786D01*
X53004550Y-23672097D01*
X52998908Y-23670264D01*
X52958033Y-23655910D01*
X52958032Y-23655910D01*
X52950549Y-23653282D01*
X52944984Y-23652800D01*
X52942276Y-23652800D01*
X52939642Y-23652686D01*
X52939544Y-23652657D01*
X52939551Y-23652493D01*
X52938847Y-23652449D01*
X52932622Y-23650587D01*
X52878765Y-23652703D01*
X52873818Y-23652800D01*
X45515360Y-23652800D01*
X45447239Y-23632798D01*
X45402354Y-23582528D01*
X45368851Y-23514589D01*
X45368848Y-23514585D01*
X45366296Y-23509409D01*
X45309909Y-23433897D01*
X45245401Y-23347511D01*
X45245400Y-23347510D01*
X45241948Y-23342887D01*
X45237710Y-23338969D01*
X45237706Y-23338965D01*
X45144798Y-23253081D01*
X45108353Y-23192153D01*
X45110634Y-23121193D01*
X45141232Y-23071462D01*
X46174426Y-22038269D01*
X47221119Y-20991576D01*
X47239861Y-20976439D01*
X47241090Y-20975321D01*
X47249840Y-20969671D01*
X47270629Y-20943300D01*
X47274576Y-20938859D01*
X47274503Y-20938797D01*
X47277863Y-20934832D01*
X47281538Y-20931157D01*
X47284555Y-20926935D01*
X47284560Y-20926929D01*
X47292762Y-20915450D01*
X47296328Y-20910700D01*
X47312988Y-20889567D01*
X47328056Y-20870453D01*
X47331089Y-20861816D01*
X47336413Y-20854366D01*
X47351102Y-20805251D01*
X47352934Y-20799614D01*
X47367290Y-20758733D01*
X47367290Y-20758732D01*
X47369918Y-20751249D01*
X47370400Y-20745684D01*
X47370400Y-20742976D01*
X47370514Y-20740342D01*
X47370543Y-20740244D01*
X47370707Y-20740251D01*
X47370751Y-20739547D01*
X47372613Y-20733322D01*
X47370497Y-20679465D01*
X47370400Y-20674518D01*
X47370400Y-19860669D01*
X49325001Y-19860669D01*
X49325371Y-19867490D01*
X49330895Y-19918352D01*
X49334521Y-19933604D01*
X49379676Y-20054054D01*
X49388214Y-20069649D01*
X49464715Y-20171724D01*
X49477276Y-20184285D01*
X49579351Y-20260786D01*
X49594946Y-20269324D01*
X49715394Y-20314478D01*
X49730649Y-20318105D01*
X49781514Y-20323631D01*
X49788328Y-20324000D01*
X50425885Y-20324000D01*
X50441124Y-20319525D01*
X50442329Y-20318135D01*
X50444000Y-20310452D01*
X50444000Y-19073115D01*
X50439525Y-19057876D01*
X50438135Y-19056671D01*
X50430452Y-19055000D01*
X49343116Y-19055000D01*
X49327877Y-19059475D01*
X49326672Y-19060865D01*
X49325001Y-19068548D01*
X49325001Y-19860669D01*
X47370400Y-19860669D01*
X47370400Y-18528885D01*
X49325000Y-18528885D01*
X49329475Y-18544124D01*
X49330865Y-18545329D01*
X49338548Y-18547000D01*
X50425885Y-18547000D01*
X50441124Y-18542525D01*
X50442329Y-18541135D01*
X50444000Y-18533452D01*
X50444000Y-17296116D01*
X50439525Y-17280877D01*
X50438135Y-17279672D01*
X50430452Y-17278001D01*
X49788331Y-17278001D01*
X49781510Y-17278371D01*
X49730648Y-17283895D01*
X49715396Y-17287521D01*
X49594946Y-17332676D01*
X49579351Y-17341214D01*
X49477276Y-17417715D01*
X49464715Y-17430276D01*
X49388214Y-17532351D01*
X49379676Y-17547946D01*
X49334522Y-17668394D01*
X49330895Y-17683649D01*
X49325369Y-17734514D01*
X49325000Y-17741328D01*
X49325000Y-18528885D01*
X47370400Y-18528885D01*
X47370400Y-15894330D01*
X47390402Y-15826209D01*
X47414569Y-15798519D01*
X47470436Y-15750804D01*
X47476214Y-15745869D01*
X47568655Y-15617224D01*
X47627742Y-15470241D01*
X47639894Y-15384854D01*
X47649481Y-15317491D01*
X47649481Y-15317488D01*
X47650062Y-15313407D01*
X47650134Y-15306554D01*
X47650164Y-15303734D01*
X47650164Y-15303728D01*
X47650207Y-15299600D01*
X47631176Y-15142333D01*
X47621769Y-15117438D01*
X47616401Y-15046644D01*
X47650159Y-14984187D01*
X47712325Y-14949895D01*
X47739635Y-14946900D01*
X50665516Y-14946900D01*
X50733637Y-14966902D01*
G37*
%TD.AperFunction*%
%TD*%
M02*
