%TF.GenerationSoftware,KiCad,Pcbnew,(6.0.5-0)*%
%TF.CreationDate,2022-09-01T07:50:41+02:00*%
%TF.ProjectId,tiny-fan,74696e79-2d66-4616-9e2e-6b696361645f,rev?*%
%TF.SameCoordinates,Original*%
%TF.FileFunction,Legend,Bot*%
%TF.FilePolarity,Positive*%
%FSLAX46Y46*%
G04 Gerber Fmt 4.6, Leading zero omitted, Abs format (unit mm)*
G04 Created by KiCad (PCBNEW (6.0.5-0)) date 2022-09-01 07:50:41*
%MOMM*%
%LPD*%
G01*
G04 APERTURE LIST*
G04 Aperture macros list*
%AMRoundRect*
0 Rectangle with rounded corners*
0 $1 Rounding radius*
0 $2 $3 $4 $5 $6 $7 $8 $9 X,Y pos of 4 corners*
0 Add a 4 corners polygon primitive as box body*
4,1,4,$2,$3,$4,$5,$6,$7,$8,$9,$2,$3,0*
0 Add four circle primitives for the rounded corners*
1,1,$1+$1,$2,$3*
1,1,$1+$1,$4,$5*
1,1,$1+$1,$6,$7*
1,1,$1+$1,$8,$9*
0 Add four rect primitives between the rounded corners*
20,1,$1+$1,$2,$3,$4,$5,0*
20,1,$1+$1,$4,$5,$6,$7,0*
20,1,$1+$1,$6,$7,$8,$9,0*
20,1,$1+$1,$8,$9,$2,$3,0*%
G04 Aperture macros list end*
%ADD10C,0.150000*%
%ADD11C,0.120000*%
%ADD12R,1.700000X1.700000*%
%ADD13O,1.700000X1.700000*%
%ADD14R,1.730000X2.030000*%
%ADD15O,1.730000X2.030000*%
%ADD16C,5.700000*%
%ADD17RoundRect,0.250000X0.725000X-0.600000X0.725000X0.600000X-0.725000X0.600000X-0.725000X-0.600000X0*%
%ADD18O,1.950000X1.700000*%
%ADD19R,1.910000X1.910000*%
%ADD20C,1.910000*%
%ADD21R,2.600000X2.600000*%
%ADD22C,2.600000*%
%ADD23C,1.955800*%
%ADD24RoundRect,0.250000X0.312500X0.625000X-0.312500X0.625000X-0.312500X-0.625000X0.312500X-0.625000X0*%
%ADD25R,2.200000X1.200000*%
%ADD26R,6.400000X5.800000*%
%ADD27RoundRect,0.150000X-0.587500X-0.150000X0.587500X-0.150000X0.587500X0.150000X-0.587500X0.150000X0*%
%ADD28RoundRect,0.250000X-0.650000X0.325000X-0.650000X-0.325000X0.650000X-0.325000X0.650000X0.325000X0*%
%ADD29RoundRect,0.250000X0.650000X-0.325000X0.650000X0.325000X-0.650000X0.325000X-0.650000X-0.325000X0*%
%ADD30C,0.800000*%
G04 APERTURE END LIST*
D10*
%TO.C,R8*%
X51754476Y-65425380D02*
X52325904Y-65425380D01*
X52040190Y-65425380D02*
X52040190Y-64425380D01*
X52135428Y-64568238D01*
X52230666Y-64663476D01*
X52325904Y-64711095D01*
X51135428Y-64425380D02*
X51040190Y-64425380D01*
X50944952Y-64473000D01*
X50897333Y-64520619D01*
X50849714Y-64615857D01*
X50802095Y-64806333D01*
X50802095Y-65044428D01*
X50849714Y-65234904D01*
X50897333Y-65330142D01*
X50944952Y-65377761D01*
X51040190Y-65425380D01*
X51135428Y-65425380D01*
X51230666Y-65377761D01*
X51278285Y-65330142D01*
X51325904Y-65234904D01*
X51373523Y-65044428D01*
X51373523Y-64806333D01*
X51325904Y-64615857D01*
X51278285Y-64520619D01*
X51230666Y-64473000D01*
X51135428Y-64425380D01*
X50373523Y-65425380D02*
X50373523Y-64425380D01*
X49802095Y-65425380D02*
X50230666Y-64853952D01*
X49802095Y-64425380D02*
X50373523Y-64996809D01*
%TO.C,R17*%
X63666876Y-19502380D02*
X64238304Y-19502380D01*
X63952590Y-19502380D02*
X63952590Y-18502380D01*
X64047828Y-18645238D01*
X64143066Y-18740476D01*
X64238304Y-18788095D01*
X63047828Y-18502380D02*
X62952590Y-18502380D01*
X62857352Y-18550000D01*
X62809733Y-18597619D01*
X62762114Y-18692857D01*
X62714495Y-18883333D01*
X62714495Y-19121428D01*
X62762114Y-19311904D01*
X62809733Y-19407142D01*
X62857352Y-19454761D01*
X62952590Y-19502380D01*
X63047828Y-19502380D01*
X63143066Y-19454761D01*
X63190685Y-19407142D01*
X63238304Y-19311904D01*
X63285923Y-19121428D01*
X63285923Y-18883333D01*
X63238304Y-18692857D01*
X63190685Y-18597619D01*
X63143066Y-18550000D01*
X63047828Y-18502380D01*
X62285923Y-19502380D02*
X62285923Y-18502380D01*
X61714495Y-19502380D02*
X62143066Y-18930952D01*
X61714495Y-18502380D02*
X62285923Y-19073809D01*
%TO.C,Q8*%
X69651190Y-41623714D02*
X69460714Y-42290380D01*
X69270238Y-41814190D01*
X69079761Y-42290380D01*
X68889285Y-41623714D01*
X68555952Y-42242761D02*
X68460714Y-42290380D01*
X68270238Y-42290380D01*
X68175000Y-42242761D01*
X68127380Y-42147523D01*
X68127380Y-42099904D01*
X68175000Y-42004666D01*
X68270238Y-41957047D01*
X68413095Y-41957047D01*
X68508333Y-41909428D01*
X68555952Y-41814190D01*
X68555952Y-41766571D01*
X68508333Y-41671333D01*
X68413095Y-41623714D01*
X68270238Y-41623714D01*
X68175000Y-41671333D01*
X67841666Y-41623714D02*
X67460714Y-41623714D01*
X67698809Y-42290380D02*
X67698809Y-41433238D01*
X67651190Y-41338000D01*
X67555952Y-41290380D01*
X67460714Y-41290380D01*
X67222619Y-41290380D02*
X66603571Y-41290380D01*
X66936904Y-41671333D01*
X66794047Y-41671333D01*
X66698809Y-41718952D01*
X66651190Y-41766571D01*
X66603571Y-41861809D01*
X66603571Y-42099904D01*
X66651190Y-42195142D01*
X66698809Y-42242761D01*
X66794047Y-42290380D01*
X67079761Y-42290380D01*
X67175000Y-42242761D01*
X67222619Y-42195142D01*
X65984523Y-41290380D02*
X65889285Y-41290380D01*
X65794047Y-41338000D01*
X65746428Y-41385619D01*
X65698809Y-41480857D01*
X65651190Y-41671333D01*
X65651190Y-41909428D01*
X65698809Y-42099904D01*
X65746428Y-42195142D01*
X65794047Y-42242761D01*
X65889285Y-42290380D01*
X65984523Y-42290380D01*
X66079761Y-42242761D01*
X66127380Y-42195142D01*
X66175000Y-42099904D01*
X66222619Y-41909428D01*
X66222619Y-41671333D01*
X66175000Y-41480857D01*
X66127380Y-41385619D01*
X66079761Y-41338000D01*
X65984523Y-41290380D01*
X65079761Y-41718952D02*
X65175000Y-41671333D01*
X65222619Y-41623714D01*
X65270238Y-41528476D01*
X65270238Y-41480857D01*
X65222619Y-41385619D01*
X65175000Y-41338000D01*
X65079761Y-41290380D01*
X64889285Y-41290380D01*
X64794047Y-41338000D01*
X64746428Y-41385619D01*
X64698809Y-41480857D01*
X64698809Y-41528476D01*
X64746428Y-41623714D01*
X64794047Y-41671333D01*
X64889285Y-41718952D01*
X65079761Y-41718952D01*
X65175000Y-41766571D01*
X65222619Y-41814190D01*
X65270238Y-41909428D01*
X65270238Y-42099904D01*
X65222619Y-42195142D01*
X65175000Y-42242761D01*
X65079761Y-42290380D01*
X64889285Y-42290380D01*
X64794047Y-42242761D01*
X64746428Y-42195142D01*
X64698809Y-42099904D01*
X64698809Y-41909428D01*
X64746428Y-41814190D01*
X64794047Y-41766571D01*
X64889285Y-41718952D01*
X63794047Y-41290380D02*
X64270238Y-41290380D01*
X64317857Y-41766571D01*
X64270238Y-41718952D01*
X64175000Y-41671333D01*
X63936904Y-41671333D01*
X63841666Y-41718952D01*
X63794047Y-41766571D01*
X63746428Y-41861809D01*
X63746428Y-42099904D01*
X63794047Y-42195142D01*
X63841666Y-42242761D01*
X63936904Y-42290380D01*
X64175000Y-42290380D01*
X64270238Y-42242761D01*
X64317857Y-42195142D01*
%TO.C,Q10*%
X69651190Y-59911714D02*
X69460714Y-60578380D01*
X69270238Y-60102190D01*
X69079761Y-60578380D01*
X68889285Y-59911714D01*
X68555952Y-60530761D02*
X68460714Y-60578380D01*
X68270238Y-60578380D01*
X68175000Y-60530761D01*
X68127380Y-60435523D01*
X68127380Y-60387904D01*
X68175000Y-60292666D01*
X68270238Y-60245047D01*
X68413095Y-60245047D01*
X68508333Y-60197428D01*
X68555952Y-60102190D01*
X68555952Y-60054571D01*
X68508333Y-59959333D01*
X68413095Y-59911714D01*
X68270238Y-59911714D01*
X68175000Y-59959333D01*
X67841666Y-59911714D02*
X67460714Y-59911714D01*
X67698809Y-60578380D02*
X67698809Y-59721238D01*
X67651190Y-59626000D01*
X67555952Y-59578380D01*
X67460714Y-59578380D01*
X67222619Y-59578380D02*
X66603571Y-59578380D01*
X66936904Y-59959333D01*
X66794047Y-59959333D01*
X66698809Y-60006952D01*
X66651190Y-60054571D01*
X66603571Y-60149809D01*
X66603571Y-60387904D01*
X66651190Y-60483142D01*
X66698809Y-60530761D01*
X66794047Y-60578380D01*
X67079761Y-60578380D01*
X67175000Y-60530761D01*
X67222619Y-60483142D01*
X65984523Y-59578380D02*
X65889285Y-59578380D01*
X65794047Y-59626000D01*
X65746428Y-59673619D01*
X65698809Y-59768857D01*
X65651190Y-59959333D01*
X65651190Y-60197428D01*
X65698809Y-60387904D01*
X65746428Y-60483142D01*
X65794047Y-60530761D01*
X65889285Y-60578380D01*
X65984523Y-60578380D01*
X66079761Y-60530761D01*
X66127380Y-60483142D01*
X66175000Y-60387904D01*
X66222619Y-60197428D01*
X66222619Y-59959333D01*
X66175000Y-59768857D01*
X66127380Y-59673619D01*
X66079761Y-59626000D01*
X65984523Y-59578380D01*
X65079761Y-60006952D02*
X65175000Y-59959333D01*
X65222619Y-59911714D01*
X65270238Y-59816476D01*
X65270238Y-59768857D01*
X65222619Y-59673619D01*
X65175000Y-59626000D01*
X65079761Y-59578380D01*
X64889285Y-59578380D01*
X64794047Y-59626000D01*
X64746428Y-59673619D01*
X64698809Y-59768857D01*
X64698809Y-59816476D01*
X64746428Y-59911714D01*
X64794047Y-59959333D01*
X64889285Y-60006952D01*
X65079761Y-60006952D01*
X65175000Y-60054571D01*
X65222619Y-60102190D01*
X65270238Y-60197428D01*
X65270238Y-60387904D01*
X65222619Y-60483142D01*
X65175000Y-60530761D01*
X65079761Y-60578380D01*
X64889285Y-60578380D01*
X64794047Y-60530761D01*
X64746428Y-60483142D01*
X64698809Y-60387904D01*
X64698809Y-60197428D01*
X64746428Y-60102190D01*
X64794047Y-60054571D01*
X64889285Y-60006952D01*
X63794047Y-59578380D02*
X64270238Y-59578380D01*
X64317857Y-60054571D01*
X64270238Y-60006952D01*
X64175000Y-59959333D01*
X63936904Y-59959333D01*
X63841666Y-60006952D01*
X63794047Y-60054571D01*
X63746428Y-60149809D01*
X63746428Y-60387904D01*
X63794047Y-60483142D01*
X63841666Y-60530761D01*
X63936904Y-60578380D01*
X64175000Y-60578380D01*
X64270238Y-60530761D01*
X64317857Y-60483142D01*
%TO.C,Q9*%
X69651190Y-50767714D02*
X69460714Y-51434380D01*
X69270238Y-50958190D01*
X69079761Y-51434380D01*
X68889285Y-50767714D01*
X68555952Y-51386761D02*
X68460714Y-51434380D01*
X68270238Y-51434380D01*
X68175000Y-51386761D01*
X68127380Y-51291523D01*
X68127380Y-51243904D01*
X68175000Y-51148666D01*
X68270238Y-51101047D01*
X68413095Y-51101047D01*
X68508333Y-51053428D01*
X68555952Y-50958190D01*
X68555952Y-50910571D01*
X68508333Y-50815333D01*
X68413095Y-50767714D01*
X68270238Y-50767714D01*
X68175000Y-50815333D01*
X67841666Y-50767714D02*
X67460714Y-50767714D01*
X67698809Y-51434380D02*
X67698809Y-50577238D01*
X67651190Y-50482000D01*
X67555952Y-50434380D01*
X67460714Y-50434380D01*
X67222619Y-50434380D02*
X66603571Y-50434380D01*
X66936904Y-50815333D01*
X66794047Y-50815333D01*
X66698809Y-50862952D01*
X66651190Y-50910571D01*
X66603571Y-51005809D01*
X66603571Y-51243904D01*
X66651190Y-51339142D01*
X66698809Y-51386761D01*
X66794047Y-51434380D01*
X67079761Y-51434380D01*
X67175000Y-51386761D01*
X67222619Y-51339142D01*
X65984523Y-50434380D02*
X65889285Y-50434380D01*
X65794047Y-50482000D01*
X65746428Y-50529619D01*
X65698809Y-50624857D01*
X65651190Y-50815333D01*
X65651190Y-51053428D01*
X65698809Y-51243904D01*
X65746428Y-51339142D01*
X65794047Y-51386761D01*
X65889285Y-51434380D01*
X65984523Y-51434380D01*
X66079761Y-51386761D01*
X66127380Y-51339142D01*
X66175000Y-51243904D01*
X66222619Y-51053428D01*
X66222619Y-50815333D01*
X66175000Y-50624857D01*
X66127380Y-50529619D01*
X66079761Y-50482000D01*
X65984523Y-50434380D01*
X65079761Y-50862952D02*
X65175000Y-50815333D01*
X65222619Y-50767714D01*
X65270238Y-50672476D01*
X65270238Y-50624857D01*
X65222619Y-50529619D01*
X65175000Y-50482000D01*
X65079761Y-50434380D01*
X64889285Y-50434380D01*
X64794047Y-50482000D01*
X64746428Y-50529619D01*
X64698809Y-50624857D01*
X64698809Y-50672476D01*
X64746428Y-50767714D01*
X64794047Y-50815333D01*
X64889285Y-50862952D01*
X65079761Y-50862952D01*
X65175000Y-50910571D01*
X65222619Y-50958190D01*
X65270238Y-51053428D01*
X65270238Y-51243904D01*
X65222619Y-51339142D01*
X65175000Y-51386761D01*
X65079761Y-51434380D01*
X64889285Y-51434380D01*
X64794047Y-51386761D01*
X64746428Y-51339142D01*
X64698809Y-51243904D01*
X64698809Y-51053428D01*
X64746428Y-50958190D01*
X64794047Y-50910571D01*
X64889285Y-50862952D01*
X63794047Y-50434380D02*
X64270238Y-50434380D01*
X64317857Y-50910571D01*
X64270238Y-50862952D01*
X64175000Y-50815333D01*
X63936904Y-50815333D01*
X63841666Y-50862952D01*
X63794047Y-50910571D01*
X63746428Y-51005809D01*
X63746428Y-51243904D01*
X63794047Y-51339142D01*
X63841666Y-51386761D01*
X63936904Y-51434380D01*
X64175000Y-51434380D01*
X64270238Y-51386761D01*
X64317857Y-51339142D01*
%TO.C,R5*%
X58216476Y-65425380D02*
X58787904Y-65425380D01*
X58502190Y-65425380D02*
X58502190Y-64425380D01*
X58597428Y-64568238D01*
X58692666Y-64663476D01*
X58787904Y-64711095D01*
X57597428Y-64425380D02*
X57502190Y-64425380D01*
X57406952Y-64473000D01*
X57359333Y-64520619D01*
X57311714Y-64615857D01*
X57264095Y-64806333D01*
X57264095Y-65044428D01*
X57311714Y-65234904D01*
X57359333Y-65330142D01*
X57406952Y-65377761D01*
X57502190Y-65425380D01*
X57597428Y-65425380D01*
X57692666Y-65377761D01*
X57740285Y-65330142D01*
X57787904Y-65234904D01*
X57835523Y-65044428D01*
X57835523Y-64806333D01*
X57787904Y-64615857D01*
X57740285Y-64520619D01*
X57692666Y-64473000D01*
X57597428Y-64425380D01*
X56835523Y-65425380D02*
X56835523Y-64425380D01*
X56264095Y-65425380D02*
X56692666Y-64853952D01*
X56264095Y-64425380D02*
X56835523Y-64996809D01*
%TO.C,R1*%
X58348476Y-36977380D02*
X58919904Y-36977380D01*
X58634190Y-36977380D02*
X58634190Y-35977380D01*
X58729428Y-36120238D01*
X58824666Y-36215476D01*
X58919904Y-36263095D01*
X57729428Y-35977380D02*
X57634190Y-35977380D01*
X57538952Y-36025000D01*
X57491333Y-36072619D01*
X57443714Y-36167857D01*
X57396095Y-36358333D01*
X57396095Y-36596428D01*
X57443714Y-36786904D01*
X57491333Y-36882142D01*
X57538952Y-36929761D01*
X57634190Y-36977380D01*
X57729428Y-36977380D01*
X57824666Y-36929761D01*
X57872285Y-36882142D01*
X57919904Y-36786904D01*
X57967523Y-36596428D01*
X57967523Y-36358333D01*
X57919904Y-36167857D01*
X57872285Y-36072619D01*
X57824666Y-36025000D01*
X57729428Y-35977380D01*
X56967523Y-36977380D02*
X56967523Y-35977380D01*
X56396095Y-36977380D02*
X56824666Y-36405952D01*
X56396095Y-35977380D02*
X56967523Y-36548809D01*
%TO.C,R7*%
X51886476Y-51247380D02*
X52457904Y-51247380D01*
X52172190Y-51247380D02*
X52172190Y-50247380D01*
X52267428Y-50390238D01*
X52362666Y-50485476D01*
X52457904Y-50533095D01*
X51267428Y-50247380D02*
X51172190Y-50247380D01*
X51076952Y-50295000D01*
X51029333Y-50342619D01*
X50981714Y-50437857D01*
X50934095Y-50628333D01*
X50934095Y-50866428D01*
X50981714Y-51056904D01*
X51029333Y-51152142D01*
X51076952Y-51199761D01*
X51172190Y-51247380D01*
X51267428Y-51247380D01*
X51362666Y-51199761D01*
X51410285Y-51152142D01*
X51457904Y-51056904D01*
X51505523Y-50866428D01*
X51505523Y-50628333D01*
X51457904Y-50437857D01*
X51410285Y-50342619D01*
X51362666Y-50295000D01*
X51267428Y-50247380D01*
X50505523Y-51247380D02*
X50505523Y-50247380D01*
X49934095Y-51247380D02*
X50362666Y-50675952D01*
X49934095Y-50247380D02*
X50505523Y-50818809D01*
%TO.C,R4*%
X58490476Y-51247380D02*
X59061904Y-51247380D01*
X58776190Y-51247380D02*
X58776190Y-50247380D01*
X58871428Y-50390238D01*
X58966666Y-50485476D01*
X59061904Y-50533095D01*
X57871428Y-50247380D02*
X57776190Y-50247380D01*
X57680952Y-50295000D01*
X57633333Y-50342619D01*
X57585714Y-50437857D01*
X57538095Y-50628333D01*
X57538095Y-50866428D01*
X57585714Y-51056904D01*
X57633333Y-51152142D01*
X57680952Y-51199761D01*
X57776190Y-51247380D01*
X57871428Y-51247380D01*
X57966666Y-51199761D01*
X58014285Y-51152142D01*
X58061904Y-51056904D01*
X58109523Y-50866428D01*
X58109523Y-50628333D01*
X58061904Y-50437857D01*
X58014285Y-50342619D01*
X57966666Y-50295000D01*
X57871428Y-50247380D01*
X57109523Y-51247380D02*
X57109523Y-50247380D01*
X56538095Y-51247380D02*
X56966666Y-50675952D01*
X56538095Y-50247380D02*
X57109523Y-50818809D01*
%TO.C,R16*%
X63666876Y-22042380D02*
X64238304Y-22042380D01*
X63952590Y-22042380D02*
X63952590Y-21042380D01*
X64047828Y-21185238D01*
X64143066Y-21280476D01*
X64238304Y-21328095D01*
X63047828Y-21042380D02*
X62952590Y-21042380D01*
X62857352Y-21090000D01*
X62809733Y-21137619D01*
X62762114Y-21232857D01*
X62714495Y-21423333D01*
X62714495Y-21661428D01*
X62762114Y-21851904D01*
X62809733Y-21947142D01*
X62857352Y-21994761D01*
X62952590Y-22042380D01*
X63047828Y-22042380D01*
X63143066Y-21994761D01*
X63190685Y-21947142D01*
X63238304Y-21851904D01*
X63285923Y-21661428D01*
X63285923Y-21423333D01*
X63238304Y-21232857D01*
X63190685Y-21137619D01*
X63143066Y-21090000D01*
X63047828Y-21042380D01*
X62285923Y-22042380D02*
X62285923Y-21042380D01*
X61714495Y-22042380D02*
X62143066Y-21470952D01*
X61714495Y-21042380D02*
X62285923Y-21613809D01*
%TO.C,C1*%
X23130380Y-46885571D02*
X23130380Y-46314142D01*
X23130380Y-46599857D02*
X22130380Y-46599857D01*
X22273238Y-46504619D01*
X22368476Y-46409380D01*
X22416095Y-46314142D01*
X22130380Y-47504619D02*
X22130380Y-47599857D01*
X22178000Y-47695095D01*
X22225619Y-47742714D01*
X22320857Y-47790333D01*
X22511333Y-47837952D01*
X22749428Y-47837952D01*
X22939904Y-47790333D01*
X23035142Y-47742714D01*
X23082761Y-47695095D01*
X23130380Y-47599857D01*
X23130380Y-47504619D01*
X23082761Y-47409380D01*
X23035142Y-47361761D01*
X22939904Y-47314142D01*
X22749428Y-47266523D01*
X22511333Y-47266523D01*
X22320857Y-47314142D01*
X22225619Y-47361761D01*
X22178000Y-47409380D01*
X22130380Y-47504619D01*
X22463714Y-48266523D02*
X23463714Y-48266523D01*
X22511333Y-48266523D02*
X22463714Y-48361761D01*
X22463714Y-48552238D01*
X22511333Y-48647476D01*
X22558952Y-48695095D01*
X22654190Y-48742714D01*
X22939904Y-48742714D01*
X23035142Y-48695095D01*
X23082761Y-48647476D01*
X23130380Y-48552238D01*
X23130380Y-48361761D01*
X23082761Y-48266523D01*
X22606571Y-49504619D02*
X22606571Y-49171285D01*
X23130380Y-49171285D02*
X22130380Y-49171285D01*
X22130380Y-49647476D01*
%TO.C,R2*%
X58490476Y-22550380D02*
X59061904Y-22550380D01*
X58776190Y-22550380D02*
X58776190Y-21550380D01*
X58871428Y-21693238D01*
X58966666Y-21788476D01*
X59061904Y-21836095D01*
X57871428Y-21550380D02*
X57776190Y-21550380D01*
X57680952Y-21598000D01*
X57633333Y-21645619D01*
X57585714Y-21740857D01*
X57538095Y-21931333D01*
X57538095Y-22169428D01*
X57585714Y-22359904D01*
X57633333Y-22455142D01*
X57680952Y-22502761D01*
X57776190Y-22550380D01*
X57871428Y-22550380D01*
X57966666Y-22502761D01*
X58014285Y-22455142D01*
X58061904Y-22359904D01*
X58109523Y-22169428D01*
X58109523Y-21931333D01*
X58061904Y-21740857D01*
X58014285Y-21645619D01*
X57966666Y-21598000D01*
X57871428Y-21550380D01*
X57109523Y-22550380D02*
X57109523Y-21550380D01*
X56538095Y-22550380D02*
X56966666Y-21978952D01*
X56538095Y-21550380D02*
X57109523Y-22121809D01*
%TO.C,R15*%
X63666876Y-16962380D02*
X64238304Y-16962380D01*
X63952590Y-16962380D02*
X63952590Y-15962380D01*
X64047828Y-16105238D01*
X64143066Y-16200476D01*
X64238304Y-16248095D01*
X63047828Y-15962380D02*
X62952590Y-15962380D01*
X62857352Y-16010000D01*
X62809733Y-16057619D01*
X62762114Y-16152857D01*
X62714495Y-16343333D01*
X62714495Y-16581428D01*
X62762114Y-16771904D01*
X62809733Y-16867142D01*
X62857352Y-16914761D01*
X62952590Y-16962380D01*
X63047828Y-16962380D01*
X63143066Y-16914761D01*
X63190685Y-16867142D01*
X63238304Y-16771904D01*
X63285923Y-16581428D01*
X63285923Y-16343333D01*
X63238304Y-16152857D01*
X63190685Y-16057619D01*
X63143066Y-16010000D01*
X63047828Y-15962380D01*
X62285923Y-16962380D02*
X62285923Y-15962380D01*
X61714495Y-16962380D02*
X62143066Y-16390952D01*
X61714495Y-15962380D02*
X62285923Y-16533809D01*
%TO.C,C2*%
X23058380Y-52219571D02*
X23058380Y-51648142D01*
X23058380Y-51933857D02*
X22058380Y-51933857D01*
X22201238Y-51838619D01*
X22296476Y-51743380D01*
X22344095Y-51648142D01*
X22058380Y-52838619D02*
X22058380Y-52933857D01*
X22106000Y-53029095D01*
X22153619Y-53076714D01*
X22248857Y-53124333D01*
X22439333Y-53171952D01*
X22677428Y-53171952D01*
X22867904Y-53124333D01*
X22963142Y-53076714D01*
X23010761Y-53029095D01*
X23058380Y-52933857D01*
X23058380Y-52838619D01*
X23010761Y-52743380D01*
X22963142Y-52695761D01*
X22867904Y-52648142D01*
X22677428Y-52600523D01*
X22439333Y-52600523D01*
X22248857Y-52648142D01*
X22153619Y-52695761D01*
X22106000Y-52743380D01*
X22058380Y-52838619D01*
X22391714Y-53600523D02*
X23391714Y-53600523D01*
X22439333Y-53600523D02*
X22391714Y-53695761D01*
X22391714Y-53886238D01*
X22439333Y-53981476D01*
X22486952Y-54029095D01*
X22582190Y-54076714D01*
X22867904Y-54076714D01*
X22963142Y-54029095D01*
X23010761Y-53981476D01*
X23058380Y-53886238D01*
X23058380Y-53695761D01*
X23010761Y-53600523D01*
X22534571Y-54838619D02*
X22534571Y-54505285D01*
X23058380Y-54505285D02*
X22058380Y-54505285D01*
X22058380Y-54981476D01*
%TO.C,R6*%
X51998476Y-36723380D02*
X52569904Y-36723380D01*
X52284190Y-36723380D02*
X52284190Y-35723380D01*
X52379428Y-35866238D01*
X52474666Y-35961476D01*
X52569904Y-36009095D01*
X51379428Y-35723380D02*
X51284190Y-35723380D01*
X51188952Y-35771000D01*
X51141333Y-35818619D01*
X51093714Y-35913857D01*
X51046095Y-36104333D01*
X51046095Y-36342428D01*
X51093714Y-36532904D01*
X51141333Y-36628142D01*
X51188952Y-36675761D01*
X51284190Y-36723380D01*
X51379428Y-36723380D01*
X51474666Y-36675761D01*
X51522285Y-36628142D01*
X51569904Y-36532904D01*
X51617523Y-36342428D01*
X51617523Y-36104333D01*
X51569904Y-35913857D01*
X51522285Y-35818619D01*
X51474666Y-35771000D01*
X51379428Y-35723380D01*
X50617523Y-36723380D02*
X50617523Y-35723380D01*
X50046095Y-36723380D02*
X50474666Y-36151952D01*
X50046095Y-35723380D02*
X50617523Y-36294809D01*
%TO.C,R3*%
X51886476Y-22550380D02*
X52457904Y-22550380D01*
X52172190Y-22550380D02*
X52172190Y-21550380D01*
X52267428Y-21693238D01*
X52362666Y-21788476D01*
X52457904Y-21836095D01*
X51267428Y-21550380D02*
X51172190Y-21550380D01*
X51076952Y-21598000D01*
X51029333Y-21645619D01*
X50981714Y-21740857D01*
X50934095Y-21931333D01*
X50934095Y-22169428D01*
X50981714Y-22359904D01*
X51029333Y-22455142D01*
X51076952Y-22502761D01*
X51172190Y-22550380D01*
X51267428Y-22550380D01*
X51362666Y-22502761D01*
X51410285Y-22455142D01*
X51457904Y-22359904D01*
X51505523Y-22169428D01*
X51505523Y-21931333D01*
X51457904Y-21740857D01*
X51410285Y-21645619D01*
X51362666Y-21598000D01*
X51267428Y-21550380D01*
X50505523Y-22550380D02*
X50505523Y-21550380D01*
X49934095Y-22550380D02*
X50362666Y-21978952D01*
X49934095Y-21550380D02*
X50505523Y-22121809D01*
%TO.C,kibuzzard-631047F8*%
G36*
X43915392Y-42301800D02*
G01*
X43715195Y-42301800D01*
X43280392Y-40950470D01*
X43477461Y-40950470D01*
X43915392Y-42301800D01*
G37*
G36*
X34531155Y-42301800D02*
G01*
X34330958Y-42301800D01*
X33896155Y-40950470D01*
X34093224Y-40950470D01*
X34531155Y-42301800D01*
G37*
G36*
X43133372Y-42301800D02*
G01*
X42933175Y-42301800D01*
X42498372Y-40950470D01*
X42695441Y-40950470D01*
X43133372Y-42301800D01*
G37*
G36*
X29839037Y-42301800D02*
G01*
X29638840Y-42301800D01*
X29204037Y-40950470D01*
X29401106Y-40950470D01*
X29839037Y-42301800D01*
G37*
G36*
X37798434Y-41519780D02*
G01*
X37821699Y-41454286D01*
X37853957Y-41398567D01*
X37945453Y-41320365D01*
X38004496Y-41299837D01*
X38072141Y-41292994D01*
X38147214Y-41300032D01*
X38225416Y-41325839D01*
X38225416Y-40958290D01*
X38417793Y-40991135D01*
X38417793Y-42021837D01*
X38358360Y-42037477D01*
X38286414Y-42049989D01*
X38208994Y-42058201D01*
X38133138Y-42060938D01*
X38053372Y-42054095D01*
X37982990Y-42033567D01*
X37922384Y-42000527D01*
X37871944Y-41956147D01*
X37832060Y-41900819D01*
X37803126Y-41834934D01*
X37785530Y-41759665D01*
X37779665Y-41676184D01*
X37779933Y-41671492D01*
X37975170Y-41671492D01*
X37986118Y-41775696D01*
X38018963Y-41844318D01*
X38070577Y-41882442D01*
X38137830Y-41895149D01*
X38179277Y-41893585D01*
X38225416Y-41887329D01*
X38225416Y-41488499D01*
X38173021Y-41467385D01*
X38111242Y-41458782D01*
X38051222Y-41472468D01*
X38008797Y-41513524D01*
X37983577Y-41580387D01*
X37975170Y-41671492D01*
X37779933Y-41671492D01*
X37784357Y-41594072D01*
X37798434Y-41519780D01*
G37*
G36*
X45778276Y-39440233D02*
G01*
X45793556Y-39506710D01*
X45809232Y-39572789D01*
X45825504Y-39638274D01*
X45842570Y-39702964D01*
X45875907Y-39822821D01*
X45922739Y-39702964D01*
X45945162Y-39638075D01*
X45966395Y-39571996D01*
X45986437Y-39505321D01*
X46005289Y-39438646D01*
X46037832Y-39313233D01*
X46241032Y-39313233D01*
X46211664Y-39419645D01*
X46180707Y-39521394D01*
X46148164Y-39618480D01*
X46114032Y-39710902D01*
X46067466Y-39826525D01*
X46020899Y-39933152D01*
X45974332Y-40030783D01*
X46029895Y-40121271D01*
X46121970Y-40159371D01*
X46175151Y-40153814D01*
X46231507Y-40133971D01*
X46268020Y-40297483D01*
X46200551Y-40318121D01*
X46110857Y-40326058D01*
X46008464Y-40311771D01*
X45929089Y-40268114D01*
X45864001Y-40192708D01*
X45804470Y-40083171D01*
X45766171Y-39994668D01*
X45730651Y-39903783D01*
X45697512Y-39810716D01*
X45666357Y-39715664D01*
X45636790Y-39618430D01*
X45608414Y-39518814D01*
X45580037Y-39417016D01*
X45550470Y-39313233D01*
X45750495Y-39313233D01*
X45778276Y-39440233D01*
G37*
G36*
X48582485Y-40991135D02*
G01*
X48582485Y-42043733D01*
X48390109Y-42043733D01*
X48390109Y-41477551D01*
X48348661Y-41466603D01*
X48296266Y-41460346D01*
X48207116Y-41505704D01*
X48189520Y-41565528D01*
X48183655Y-41654287D01*
X48183655Y-42043733D01*
X47991278Y-42043733D01*
X47991278Y-41629263D01*
X47994798Y-41557512D01*
X48005355Y-41492409D01*
X48052276Y-41386055D01*
X48139862Y-41317237D01*
X48201251Y-41299055D01*
X48275934Y-41292994D01*
X48333803Y-41300032D01*
X48390109Y-41314891D01*
X48390109Y-40958290D01*
X48582485Y-40991135D01*
G37*
G36*
X39980269Y-40991135D02*
G01*
X39980269Y-42043733D01*
X39787892Y-42043733D01*
X39787892Y-41477551D01*
X39746445Y-41466603D01*
X39694049Y-41460346D01*
X39604899Y-41505704D01*
X39587304Y-41565528D01*
X39581439Y-41654287D01*
X39581439Y-42043733D01*
X39389062Y-42043733D01*
X39389062Y-41629263D01*
X39392581Y-41557512D01*
X39403138Y-41492409D01*
X39450059Y-41386055D01*
X39537645Y-41317237D01*
X39599034Y-41299055D01*
X39673717Y-41292994D01*
X39731586Y-41300032D01*
X39787892Y-41314891D01*
X39787892Y-40958290D01*
X39980269Y-40991135D01*
G37*
G36*
X26270681Y-41433758D02*
G01*
X26285735Y-41499252D01*
X26301180Y-41564355D01*
X26317211Y-41628872D01*
X26334025Y-41692606D01*
X26366870Y-41810691D01*
X26413009Y-41692606D01*
X26435101Y-41628676D01*
X26456020Y-41563573D01*
X26475766Y-41497883D01*
X26494339Y-41432194D01*
X26526402Y-41308635D01*
X26726599Y-41308635D01*
X26697664Y-41413474D01*
X26667165Y-41513719D01*
X26635102Y-41609370D01*
X26601476Y-41700427D01*
X26555597Y-41814341D01*
X26509719Y-41919392D01*
X26463840Y-42015580D01*
X26518581Y-42104731D01*
X26609296Y-42142268D01*
X26661691Y-42136794D01*
X26717214Y-42117243D01*
X26753187Y-42278339D01*
X26686716Y-42298672D01*
X26598347Y-42306492D01*
X26497467Y-42292415D01*
X26419265Y-42249404D01*
X26355139Y-42175113D01*
X26296488Y-42067194D01*
X26258755Y-41979999D01*
X26223760Y-41890457D01*
X26191111Y-41798766D01*
X26160416Y-41705119D01*
X26131286Y-41609321D01*
X26103329Y-41511178D01*
X26075372Y-41410884D01*
X26046242Y-41308635D01*
X26243310Y-41308635D01*
X26270681Y-41433758D01*
G37*
G36*
X33446103Y-41061712D02*
G01*
X33525478Y-41085759D01*
X33597033Y-41125838D01*
X33658421Y-41181947D01*
X33708862Y-41253698D01*
X33747572Y-41340697D01*
X33772205Y-41442556D01*
X33780416Y-41558881D01*
X33773378Y-41676379D01*
X33752264Y-41778629D01*
X33718246Y-41865433D01*
X33672498Y-41936596D01*
X33615606Y-41992120D01*
X33548157Y-42032003D01*
X33470932Y-42056050D01*
X33384714Y-42064066D01*
X33289113Y-42060156D01*
X33208760Y-42048425D01*
X33101623Y-42020273D01*
X33101623Y-41536984D01*
X33294000Y-41536984D01*
X33294000Y-41890457D01*
X33331537Y-41895149D01*
X33369074Y-41896713D01*
X33462525Y-41876185D01*
X33530170Y-41814601D01*
X33560582Y-41749694D01*
X33578829Y-41664454D01*
X33584911Y-41558881D01*
X33581588Y-41487131D01*
X33571617Y-41422028D01*
X33527824Y-41315673D01*
X33450404Y-41246073D01*
X33334665Y-41221048D01*
X33231439Y-41238253D01*
X33146980Y-41277354D01*
X33096931Y-41124078D01*
X33128994Y-41105310D01*
X33182953Y-41081849D01*
X33260373Y-41062298D01*
X33361254Y-41053696D01*
X33446103Y-41061712D01*
G37*
G36*
X48641332Y-39238621D02*
G01*
X48382570Y-39238621D01*
X48382570Y-40059358D01*
X48185720Y-40059358D01*
X48185720Y-39238621D01*
X47926957Y-39238621D01*
X47926957Y-39076696D01*
X48641332Y-39076696D01*
X48641332Y-39238621D01*
G37*
G36*
X41239018Y-39062408D02*
G01*
X41322164Y-39086221D01*
X41400546Y-39126702D01*
X41469007Y-39184646D01*
X41372170Y-39321171D01*
X41272157Y-39246558D01*
X41175320Y-39224333D01*
X41083245Y-39256877D01*
X41046732Y-39349746D01*
X41076101Y-39433883D01*
X41150714Y-39519608D01*
X41197545Y-39565050D01*
X41247551Y-39612477D01*
X41297557Y-39662880D01*
X41344389Y-39717252D01*
X41385664Y-39776188D01*
X41419001Y-39840283D01*
X41441028Y-39910133D01*
X41448370Y-39986333D01*
X41449164Y-40019671D01*
X41445195Y-40059358D01*
X40803845Y-40059358D01*
X40803845Y-39897433D01*
X41226120Y-39897433D01*
X41209451Y-39845046D01*
X41168970Y-39788689D01*
X41118170Y-39734714D01*
X41070545Y-39689471D01*
X40989582Y-39610096D01*
X40918145Y-39524371D01*
X40867345Y-39433089D01*
X40848295Y-39335458D01*
X40873695Y-39212427D01*
X40941957Y-39124321D01*
X41040382Y-39071933D01*
X41156270Y-39054471D01*
X41239018Y-39062408D01*
G37*
G36*
X29091426Y-41235125D02*
G01*
X28836488Y-41235125D01*
X28836488Y-42043733D01*
X28642547Y-42043733D01*
X28642547Y-41235125D01*
X28387609Y-41235125D01*
X28387609Y-41075593D01*
X29091426Y-41075593D01*
X29091426Y-41235125D01*
G37*
G36*
X41831396Y-41310372D02*
G01*
X41918461Y-41297339D01*
X42001008Y-41292994D01*
X42107710Y-41302900D01*
X42198424Y-41332617D01*
X42273150Y-41382145D01*
X42328761Y-41451831D01*
X42362127Y-41542024D01*
X42373249Y-41652723D01*
X42364994Y-41752301D01*
X42340230Y-41836237D01*
X42298957Y-41904534D01*
X42207265Y-41972569D01*
X42080774Y-41995248D01*
X42008046Y-41987428D01*
X41933754Y-41963967D01*
X41933754Y-41993684D01*
X41941574Y-42052335D01*
X41968163Y-42100039D01*
X42019776Y-42132101D01*
X42102670Y-42143832D01*
X42227793Y-42128973D01*
X42323200Y-42096911D01*
X42359173Y-42259571D01*
X42237960Y-42292415D01*
X42173247Y-42302973D01*
X42105798Y-42306492D01*
X41989277Y-42296934D01*
X41896217Y-42268260D01*
X41826617Y-42220470D01*
X41778393Y-42152695D01*
X41749458Y-42064066D01*
X41739813Y-41954583D01*
X41739813Y-41810691D01*
X41933754Y-41810691D01*
X41983021Y-41831024D01*
X42041673Y-41838844D01*
X42144899Y-41791141D01*
X42169533Y-41732685D01*
X42177744Y-41652723D01*
X42158976Y-41539765D01*
X42102670Y-41471990D01*
X42008828Y-41449398D01*
X41972855Y-41450962D01*
X41933754Y-41457218D01*
X41933754Y-41810691D01*
X41739813Y-41810691D01*
X41739813Y-41332095D01*
X41831396Y-41310372D01*
G37*
G36*
X45641744Y-41473206D02*
G01*
X45692141Y-41396221D01*
X45761480Y-41338873D01*
X45848544Y-41304464D01*
X45953335Y-41292994D01*
X46028996Y-41295731D01*
X46105829Y-41303943D01*
X46177188Y-41316455D01*
X46236426Y-41332095D01*
X46236426Y-42301800D01*
X46044049Y-42301800D01*
X46044049Y-42024965D01*
X45967020Y-42051944D01*
X45892338Y-42060938D01*
X45824693Y-42053899D01*
X45765650Y-42032785D01*
X45674936Y-41953801D01*
X45643264Y-41897887D01*
X45620195Y-41831806D01*
X45606118Y-41757318D01*
X45601788Y-41682440D01*
X45796931Y-41682440D01*
X45805142Y-41772568D01*
X45829776Y-41839626D01*
X45871614Y-41881269D01*
X45931439Y-41895149D01*
X45994000Y-41887329D01*
X46044049Y-41866997D01*
X46044049Y-41463475D01*
X46001820Y-41459564D01*
X45954899Y-41457218D01*
X45885299Y-41473054D01*
X45836032Y-41520562D01*
X45806706Y-41592703D01*
X45796931Y-41682440D01*
X45601788Y-41682440D01*
X45601426Y-41676184D01*
X45611506Y-41566527D01*
X45641744Y-41473206D01*
G37*
G36*
X47675343Y-41124078D02*
G01*
X47675343Y-41308635D01*
X47842695Y-41308635D01*
X47842695Y-41468167D01*
X47675343Y-41468167D01*
X47675343Y-41770026D01*
X47670650Y-41853507D01*
X47656574Y-41919392D01*
X47601833Y-42007760D01*
X47514246Y-42049989D01*
X47395379Y-42060938D01*
X47275730Y-42051553D01*
X47160774Y-42020273D01*
X47187362Y-41854484D01*
X47236629Y-41874817D01*
X47280423Y-41886547D01*
X47324216Y-41892021D01*
X47373483Y-41893585D01*
X47418840Y-41888893D01*
X47453249Y-41870125D01*
X47475145Y-41831024D01*
X47482966Y-41765334D01*
X47482966Y-41468167D01*
X47174850Y-41468167D01*
X47174850Y-41308635D01*
X47482966Y-41308635D01*
X47482966Y-41092797D01*
X47675343Y-41124078D01*
G37*
G36*
X46893323Y-41124078D02*
G01*
X46893323Y-41308635D01*
X47060675Y-41308635D01*
X47060675Y-41468167D01*
X46893323Y-41468167D01*
X46893323Y-41770026D01*
X46888631Y-41853507D01*
X46874554Y-41919392D01*
X46819813Y-42007760D01*
X46732227Y-42049989D01*
X46613360Y-42060938D01*
X46493711Y-42051553D01*
X46378754Y-42020273D01*
X46405343Y-41854484D01*
X46454610Y-41874817D01*
X46498403Y-41886547D01*
X46542196Y-41892021D01*
X46591463Y-41893585D01*
X46636820Y-41888893D01*
X46671229Y-41870125D01*
X46693126Y-41831024D01*
X46700946Y-41765334D01*
X46700946Y-41468167D01*
X46392830Y-41468167D01*
X46392830Y-41308635D01*
X46700946Y-41308635D01*
X46700946Y-41092797D01*
X46893323Y-41124078D01*
G37*
G36*
X40637165Y-41124078D02*
G01*
X40637165Y-41308635D01*
X40804517Y-41308635D01*
X40804517Y-41468167D01*
X40637165Y-41468167D01*
X40637165Y-41770026D01*
X40632473Y-41853507D01*
X40618397Y-41919392D01*
X40563655Y-42007760D01*
X40476069Y-42049989D01*
X40357202Y-42060938D01*
X40237553Y-42051553D01*
X40122596Y-42020273D01*
X40149185Y-41854484D01*
X40198452Y-41874817D01*
X40242245Y-41886547D01*
X40286038Y-41892021D01*
X40335306Y-41893585D01*
X40380663Y-41888893D01*
X40415072Y-41870125D01*
X40436968Y-41831024D01*
X40444788Y-41765334D01*
X40444788Y-41468167D01*
X40136673Y-41468167D01*
X40136673Y-41308635D01*
X40444788Y-41308635D01*
X40444788Y-41092797D01*
X40637165Y-41124078D01*
G37*
G36*
X32181968Y-41235125D02*
G01*
X31775318Y-41235125D01*
X31818720Y-41312349D01*
X31864468Y-41403259D01*
X31909630Y-41503944D01*
X31951272Y-41610494D01*
X31988223Y-41720564D01*
X32019308Y-41831806D01*
X32041596Y-41940702D01*
X32052153Y-42043733D01*
X31856648Y-42043733D01*
X31842376Y-41918415D01*
X31815201Y-41792705D01*
X31778837Y-41670514D01*
X31736999Y-41555753D01*
X31691055Y-41450571D01*
X31642375Y-41357120D01*
X31594280Y-41279309D01*
X31550096Y-41221048D01*
X31550096Y-41075593D01*
X32181968Y-41075593D01*
X32181968Y-41235125D01*
G37*
G36*
X45406007Y-40059358D02*
G01*
X45210745Y-40059358D01*
X45210745Y-39638671D01*
X44855145Y-39638671D01*
X44855145Y-39476746D01*
X45210745Y-39476746D01*
X45210745Y-39238621D01*
X44804345Y-39238621D01*
X44804345Y-39076696D01*
X45406007Y-39076696D01*
X45406007Y-40059358D01*
G37*
G36*
X25903914Y-42043733D02*
G01*
X25711537Y-42043733D01*
X25711537Y-41629263D01*
X25361192Y-41629263D01*
X25361192Y-41469731D01*
X25711537Y-41469731D01*
X25711537Y-41235125D01*
X25311143Y-41235125D01*
X25311143Y-41075593D01*
X25903914Y-41075593D01*
X25903914Y-42043733D01*
G37*
G36*
X41774403Y-39375543D02*
G01*
X41795239Y-39441821D01*
X41818654Y-39510282D01*
X41842864Y-39579139D01*
X41867668Y-39647204D01*
X41892870Y-39713283D01*
X41938907Y-39832346D01*
X41982564Y-39713283D01*
X42005384Y-39647204D01*
X42027807Y-39579139D01*
X42049437Y-39510282D01*
X42069876Y-39441821D01*
X42088331Y-39375543D01*
X42104007Y-39313233D01*
X42308795Y-39313233D01*
X42275011Y-39423713D01*
X42240334Y-39529729D01*
X42204764Y-39631279D01*
X42168301Y-39728364D01*
X42119353Y-39849455D01*
X42070934Y-39959787D01*
X42023045Y-40059358D01*
X41859532Y-40059358D01*
X41810849Y-39959787D01*
X41760049Y-39849455D01*
X41707132Y-39728364D01*
X41667544Y-39631279D01*
X41629742Y-39529729D01*
X41593725Y-39423713D01*
X41559495Y-39313233D01*
X41757932Y-39313233D01*
X41774403Y-39375543D01*
G37*
G36*
X35455503Y-41517434D02*
G01*
X35485806Y-41451353D01*
X35526666Y-41395439D01*
X35577107Y-41350473D01*
X35636149Y-41317237D01*
X35702816Y-41296709D01*
X35776131Y-41289866D01*
X35848468Y-41296709D01*
X35915330Y-41317237D01*
X35974959Y-41350473D01*
X36025595Y-41395439D01*
X36066651Y-41451353D01*
X36097541Y-41517434D01*
X36116896Y-41592312D01*
X36123347Y-41674620D01*
X36117091Y-41758100D01*
X36098323Y-41833370D01*
X36068020Y-41899646D01*
X36027159Y-41956147D01*
X35976719Y-42001895D01*
X35917676Y-42035913D01*
X35850618Y-42057028D01*
X35776131Y-42064066D01*
X35701643Y-42057028D01*
X35634585Y-42035913D01*
X35575738Y-42001895D01*
X35525884Y-41956147D01*
X35485610Y-41899646D01*
X35455503Y-41833370D01*
X35436734Y-41758100D01*
X35430595Y-41676184D01*
X35627547Y-41676184D01*
X35637127Y-41765334D01*
X35665866Y-41835716D01*
X35713374Y-41881464D01*
X35779259Y-41896713D01*
X35846708Y-41881464D01*
X35892652Y-41835716D01*
X35919045Y-41765334D01*
X35927843Y-41676184D01*
X35918263Y-41587229D01*
X35889524Y-41517434D01*
X35842016Y-41472272D01*
X35776131Y-41457218D01*
X35708681Y-41472272D01*
X35662738Y-41517434D01*
X35636345Y-41587229D01*
X35627547Y-41676184D01*
X35430595Y-41676184D01*
X35430478Y-41674620D01*
X35436734Y-41592312D01*
X35455503Y-41517434D01*
G37*
G36*
X29981365Y-41517434D02*
G01*
X30011668Y-41451353D01*
X30052528Y-41395439D01*
X30102969Y-41350473D01*
X30162011Y-41317237D01*
X30228678Y-41296709D01*
X30301993Y-41289866D01*
X30374330Y-41296709D01*
X30441192Y-41317237D01*
X30500821Y-41350473D01*
X30551457Y-41395439D01*
X30592513Y-41451353D01*
X30623403Y-41517434D01*
X30642758Y-41592312D01*
X30649210Y-41674620D01*
X30642953Y-41758100D01*
X30624185Y-41833370D01*
X30593882Y-41899646D01*
X30553021Y-41956147D01*
X30502581Y-42001895D01*
X30443538Y-42035913D01*
X30376480Y-42057028D01*
X30301993Y-42064066D01*
X30227505Y-42057028D01*
X30160447Y-42035913D01*
X30101600Y-42001895D01*
X30051746Y-41956147D01*
X30011472Y-41899646D01*
X29981365Y-41833370D01*
X29962596Y-41758100D01*
X29956457Y-41676184D01*
X30153409Y-41676184D01*
X30162989Y-41765334D01*
X30191728Y-41835716D01*
X30239236Y-41881464D01*
X30305121Y-41896713D01*
X30372570Y-41881464D01*
X30418514Y-41835716D01*
X30444907Y-41765334D01*
X30453705Y-41676184D01*
X30444125Y-41587229D01*
X30415386Y-41517434D01*
X30367878Y-41472272D01*
X30301993Y-41457218D01*
X30234544Y-41472272D01*
X30188600Y-41517434D01*
X30162207Y-41587229D01*
X30153409Y-41676184D01*
X29956457Y-41676184D01*
X29956340Y-41674620D01*
X29962596Y-41592312D01*
X29981365Y-41517434D01*
G37*
G36*
X47830120Y-39475158D02*
G01*
X47623745Y-39475158D01*
X47623745Y-39749796D01*
X47620570Y-39823218D01*
X47611045Y-39887908D01*
X47567389Y-39990302D01*
X47484839Y-40054596D01*
X47427093Y-40071264D01*
X47357045Y-40076821D01*
X47259414Y-40066502D01*
X47145907Y-40027608D01*
X47171307Y-39870446D01*
X47257032Y-39899814D01*
X47322120Y-39906958D01*
X47403876Y-39874414D01*
X47428482Y-39775196D01*
X47428482Y-39313233D01*
X47830120Y-39313233D01*
X47830120Y-39475158D01*
G37*
G36*
X36563038Y-41297491D02*
G01*
X36649647Y-41320365D01*
X36721788Y-41356338D01*
X36780244Y-41403259D01*
X36825210Y-41460151D01*
X36856882Y-41526036D01*
X36875650Y-41598764D01*
X36881907Y-41676184D01*
X36875846Y-41754777D01*
X36857664Y-41827896D01*
X36826579Y-41893585D01*
X36781808Y-41949891D01*
X36722961Y-41996030D01*
X36649647Y-42031221D01*
X36561083Y-42053508D01*
X36456488Y-42060938D01*
X36383369Y-42058396D01*
X36320416Y-42050771D01*
X36221882Y-42024965D01*
X36250035Y-41866997D01*
X36339967Y-41887329D01*
X36434591Y-41893585D01*
X36552090Y-41879118D01*
X36629314Y-41835716D01*
X36672130Y-41766898D01*
X36686402Y-41676184D01*
X36673889Y-41588598D01*
X36633224Y-41518998D01*
X36558932Y-41473641D01*
X36443976Y-41457218D01*
X36346223Y-41465821D01*
X36276623Y-41485371D01*
X36234394Y-41330531D01*
X36342313Y-41299250D01*
X36461180Y-41289866D01*
X36563038Y-41297491D01*
G37*
G36*
X35220897Y-41310199D02*
G01*
X35341328Y-41336787D01*
X35341328Y-42043733D01*
X35184924Y-42043733D01*
X35184924Y-41466603D01*
X35159117Y-41461911D01*
X35136439Y-41460346D01*
X35088735Y-41490063D01*
X35073877Y-41594854D01*
X35073877Y-41763770D01*
X34917473Y-41763770D01*
X34917473Y-41616750D01*
X34920601Y-41536984D01*
X34928421Y-41471295D01*
X34900269Y-41462693D01*
X34870552Y-41460346D01*
X34846309Y-41465039D01*
X34825977Y-41483807D01*
X34811900Y-41524472D01*
X34806426Y-41594854D01*
X34806426Y-42043733D01*
X34650022Y-42043733D01*
X34650022Y-41604238D01*
X34651977Y-41532488D01*
X34657843Y-41470513D01*
X34688341Y-41375888D01*
X34750121Y-41319583D01*
X34850219Y-41300814D01*
X34925293Y-41314109D01*
X34987855Y-41344608D01*
X35043378Y-41310981D01*
X35116106Y-41300814D01*
X35220897Y-41310199D01*
G37*
G36*
X31310798Y-41310199D02*
G01*
X31431229Y-41336787D01*
X31431229Y-42043733D01*
X31274825Y-42043733D01*
X31274825Y-41466603D01*
X31249019Y-41461911D01*
X31226340Y-41460346D01*
X31178637Y-41490063D01*
X31163778Y-41594854D01*
X31163778Y-41763770D01*
X31007375Y-41763770D01*
X31007375Y-41616750D01*
X31010503Y-41536984D01*
X31018323Y-41471295D01*
X30990170Y-41462693D01*
X30960453Y-41460346D01*
X30936211Y-41465039D01*
X30915878Y-41483807D01*
X30901802Y-41524472D01*
X30896328Y-41594854D01*
X30896328Y-42043733D01*
X30739924Y-42043733D01*
X30739924Y-41604238D01*
X30741879Y-41532488D01*
X30747744Y-41470513D01*
X30778243Y-41375888D01*
X30840022Y-41319583D01*
X30940121Y-41300814D01*
X31015195Y-41314109D01*
X31077756Y-41344608D01*
X31133280Y-41310981D01*
X31206008Y-41300814D01*
X31310798Y-41310199D01*
G37*
G36*
X28292202Y-41468167D02*
G01*
X28088877Y-41468167D01*
X28088877Y-41738746D01*
X28085749Y-41811082D01*
X28076365Y-41874817D01*
X28033354Y-41975697D01*
X27952024Y-42039041D01*
X27826118Y-42060938D01*
X27729930Y-42050771D01*
X27618101Y-42012452D01*
X27643126Y-41857613D01*
X27727584Y-41886547D01*
X27791710Y-41893585D01*
X27872258Y-41861523D01*
X27896500Y-41763770D01*
X27896500Y-41308635D01*
X28292202Y-41308635D01*
X28292202Y-41468167D01*
G37*
G36*
X41586537Y-41468167D02*
G01*
X41383212Y-41468167D01*
X41383212Y-41738746D01*
X41380084Y-41811082D01*
X41370700Y-41874817D01*
X41327689Y-41975697D01*
X41246359Y-42039041D01*
X41120453Y-42060938D01*
X41024265Y-42050771D01*
X40912436Y-42012452D01*
X40937461Y-41857613D01*
X41021919Y-41886547D01*
X41086044Y-41893585D01*
X41166593Y-41861523D01*
X41190835Y-41763770D01*
X41190835Y-41308635D01*
X41586537Y-41308635D01*
X41586537Y-41468167D01*
G37*
G36*
X32984320Y-41468167D02*
G01*
X32780995Y-41468167D01*
X32780995Y-41738746D01*
X32777867Y-41811082D01*
X32768483Y-41874817D01*
X32725472Y-41975697D01*
X32644142Y-42039041D01*
X32518237Y-42060938D01*
X32422048Y-42050771D01*
X32310219Y-42012452D01*
X32335244Y-41857613D01*
X32419702Y-41886547D01*
X32483828Y-41893585D01*
X32564376Y-41861523D01*
X32588618Y-41763770D01*
X32588618Y-41308635D01*
X32984320Y-41308635D01*
X32984320Y-41468167D01*
G37*
G36*
X44548757Y-39649783D02*
G01*
X44617020Y-39721221D01*
X44642420Y-39830758D01*
X44620195Y-39945852D01*
X44556695Y-40022052D01*
X44457476Y-40064121D01*
X44328095Y-40076821D01*
X44228479Y-40073646D01*
X44139182Y-40064121D01*
X44012182Y-40041896D01*
X44012182Y-39914896D01*
X44199507Y-39914896D01*
X44251895Y-39918864D01*
X44313807Y-39919658D01*
X44412232Y-39898227D01*
X44450332Y-39825996D01*
X44437632Y-39779958D01*
X44403501Y-39752971D01*
X44353495Y-39739477D01*
X44294757Y-39735508D01*
X44245545Y-39737889D01*
X44199507Y-39743446D01*
X44199507Y-39914896D01*
X44012182Y-39914896D01*
X44012182Y-39597396D01*
X44028057Y-39471189D01*
X44080445Y-39375939D01*
X44178076Y-39315614D01*
X44246934Y-39299541D01*
X44331270Y-39294183D01*
X44401517Y-39296763D01*
X44469382Y-39304502D01*
X44572570Y-39327521D01*
X44545582Y-39484683D01*
X44462239Y-39465633D01*
X44355082Y-39457696D01*
X44282057Y-39467022D01*
X44234432Y-39495002D01*
X44199507Y-39587871D01*
X44199507Y-39611683D01*
X44262610Y-39602158D01*
X44334445Y-39598983D01*
X44450332Y-39610889D01*
X44548757Y-39649783D01*
G37*
G36*
X25059333Y-41640211D02*
G01*
X25126586Y-41710593D01*
X25151611Y-41818512D01*
X25129714Y-41931904D01*
X25067153Y-42006978D01*
X24969400Y-42048425D01*
X24841931Y-42060938D01*
X24743788Y-42057810D01*
X24655810Y-42048425D01*
X24530687Y-42026529D01*
X24530687Y-41901406D01*
X24715244Y-41901406D01*
X24766857Y-41905316D01*
X24827855Y-41906098D01*
X24924825Y-41884983D01*
X24962362Y-41813819D01*
X24949850Y-41768462D01*
X24916223Y-41741874D01*
X24866956Y-41728579D01*
X24809086Y-41724669D01*
X24760601Y-41727015D01*
X24715244Y-41732489D01*
X24715244Y-41901406D01*
X24530687Y-41901406D01*
X24530687Y-41588598D01*
X24546328Y-41464257D01*
X24597941Y-41370414D01*
X24694129Y-41310981D01*
X24761970Y-41295145D01*
X24845059Y-41289866D01*
X24914268Y-41292408D01*
X24981131Y-41300032D01*
X25082793Y-41322711D01*
X25056205Y-41477551D01*
X24974093Y-41458782D01*
X24868520Y-41450962D01*
X24796574Y-41460151D01*
X24749653Y-41487717D01*
X24715244Y-41579213D01*
X24715244Y-41602674D01*
X24777415Y-41593290D01*
X24848187Y-41590162D01*
X24962362Y-41601892D01*
X25059333Y-41640211D01*
G37*
G36*
X45212371Y-41294363D02*
G01*
X45277670Y-41307853D01*
X45375423Y-41357902D01*
X45431728Y-41431412D01*
X45449714Y-41519780D01*
X45426254Y-41615968D01*
X45366820Y-41679312D01*
X45287054Y-41720759D01*
X45201032Y-41749694D01*
X45143945Y-41768462D01*
X45095460Y-41788013D01*
X45062615Y-41812255D01*
X45050884Y-41846664D01*
X45088421Y-41888111D01*
X45196340Y-41898278D01*
X45322245Y-41879509D01*
X45438766Y-41838844D01*
X45468483Y-41999940D01*
X45360564Y-42039041D01*
X45286272Y-42055463D01*
X45197904Y-42060938D01*
X45111491Y-42056637D01*
X45039936Y-42043733D01*
X44935927Y-41996812D01*
X44878840Y-41926430D01*
X44861636Y-41840408D01*
X44885096Y-41742656D01*
X44945312Y-41676966D01*
X45027424Y-41633955D01*
X45115010Y-41602674D01*
X45170533Y-41583124D01*
X45215891Y-41562009D01*
X45247171Y-41537766D01*
X45258902Y-41507268D01*
X45233095Y-41468949D01*
X45133778Y-41450962D01*
X45007091Y-41468949D01*
X44924197Y-41494755D01*
X44894480Y-41332095D01*
X45001617Y-41300814D01*
X45065938Y-41292603D01*
X45135343Y-41289866D01*
X45212371Y-41294363D01*
G37*
G36*
X46783759Y-39300533D02*
G01*
X46864126Y-39310058D01*
X46934968Y-39323155D01*
X46993507Y-39337046D01*
X46993507Y-40059358D01*
X46798245Y-40059358D01*
X46798245Y-39473571D01*
X46753001Y-39468808D01*
X46709345Y-39467221D01*
X46612507Y-39513258D01*
X46594648Y-39573980D01*
X46588695Y-39664071D01*
X46588695Y-40059358D01*
X46393432Y-40059358D01*
X46393432Y-39638671D01*
X46397004Y-39565844D01*
X46407720Y-39499764D01*
X46456139Y-39391814D01*
X46549007Y-39321964D01*
X46615285Y-39303510D01*
X46696645Y-39297358D01*
X46783759Y-39300533D01*
G37*
G36*
X43608759Y-39300533D02*
G01*
X43689126Y-39310058D01*
X43759968Y-39323155D01*
X43818507Y-39337046D01*
X43818507Y-40059358D01*
X43623245Y-40059358D01*
X43623245Y-39473571D01*
X43578001Y-39468808D01*
X43534345Y-39467221D01*
X43437507Y-39513258D01*
X43419648Y-39573980D01*
X43413695Y-39664071D01*
X43413695Y-40059358D01*
X43218432Y-40059358D01*
X43218432Y-39638671D01*
X43222004Y-39565844D01*
X43232720Y-39499764D01*
X43281139Y-39391814D01*
X43374007Y-39321964D01*
X43440285Y-39303510D01*
X43521645Y-39297358D01*
X43608759Y-39300533D01*
G37*
G36*
X38805675Y-41885765D02*
G01*
X38893261Y-41893585D01*
X38987886Y-41844318D01*
X39006068Y-41781952D01*
X39012128Y-41693388D01*
X39012128Y-41308635D01*
X39204505Y-41308635D01*
X39204505Y-41718413D01*
X39201377Y-41790359D01*
X39191993Y-41856048D01*
X39145854Y-41964749D01*
X39054357Y-42035913D01*
X38988277Y-42054681D01*
X38905774Y-42060938D01*
X38819947Y-42057419D01*
X38740767Y-42046861D01*
X38611734Y-42018709D01*
X38611734Y-41308635D01*
X38805675Y-41308635D01*
X38805675Y-41885765D01*
G37*
G36*
X27261305Y-41296122D02*
G01*
X27340484Y-41305507D01*
X27467953Y-41332095D01*
X27467953Y-42043733D01*
X27275577Y-42043733D01*
X27275577Y-41466603D01*
X27231001Y-41461911D01*
X27187990Y-41460346D01*
X27092584Y-41505704D01*
X27074988Y-41565528D01*
X27069123Y-41654287D01*
X27069123Y-42043733D01*
X26876746Y-42043733D01*
X26876746Y-41629263D01*
X26880266Y-41557512D01*
X26890823Y-41492409D01*
X26938526Y-41386055D01*
X27030022Y-41317237D01*
X27095321Y-41299055D01*
X27175478Y-41292994D01*
X27261305Y-41296122D01*
G37*
G36*
X24133226Y-41296122D02*
G01*
X24212405Y-41305507D01*
X24339875Y-41332095D01*
X24339875Y-42043733D01*
X24147498Y-42043733D01*
X24147498Y-41466603D01*
X24102923Y-41461911D01*
X24059911Y-41460346D01*
X23964505Y-41505704D01*
X23946910Y-41565528D01*
X23941044Y-41654287D01*
X23941044Y-42043733D01*
X23748668Y-42043733D01*
X23748668Y-41629263D01*
X23752187Y-41557512D01*
X23762744Y-41492409D01*
X23810447Y-41386055D01*
X23901944Y-41317237D01*
X23967242Y-41299055D01*
X24047399Y-41292994D01*
X24133226Y-41296122D01*
G37*
G36*
X37393347Y-41791923D02*
G01*
X37437923Y-41818512D01*
X37469203Y-41861523D01*
X37480934Y-41920174D01*
X37469203Y-41980390D01*
X37437923Y-42024183D01*
X37393347Y-42051553D01*
X37340170Y-42060938D01*
X37243200Y-42024965D01*
X37200971Y-41920174D01*
X37243200Y-41818512D01*
X37340170Y-41782539D01*
X37393347Y-41791923D01*
G37*
G36*
X44431525Y-41791923D02*
G01*
X44476100Y-41818512D01*
X44507381Y-41861523D01*
X44519111Y-41920174D01*
X44507381Y-41980390D01*
X44476100Y-42024183D01*
X44431525Y-42051553D01*
X44378347Y-42060938D01*
X44281377Y-42024965D01*
X44239148Y-41920174D01*
X44281377Y-41818512D01*
X44378347Y-41782539D01*
X44431525Y-41791923D01*
G37*
G36*
X44431525Y-41318019D02*
G01*
X44476100Y-41344608D01*
X44507381Y-41387619D01*
X44519111Y-41446270D01*
X44507381Y-41506486D01*
X44476100Y-41550279D01*
X44431525Y-41577649D01*
X44378347Y-41587034D01*
X44281377Y-41551061D01*
X44239148Y-41446270D01*
X44281377Y-41344608D01*
X44378347Y-41308635D01*
X44431525Y-41318019D01*
G37*
G36*
X47646764Y-39006846D02*
G01*
X47682482Y-39098921D01*
X47646764Y-39189408D01*
X47560245Y-39222746D01*
X47472932Y-39189408D01*
X47436420Y-39098921D01*
X47472932Y-39006846D01*
X47560245Y-38973508D01*
X47646764Y-39006846D01*
G37*
G36*
X32803674Y-41006775D02*
G01*
X32838865Y-41097489D01*
X32803674Y-41186640D01*
X32718434Y-41219484D01*
X32632411Y-41186640D01*
X32596439Y-41097489D01*
X32632411Y-41006775D01*
X32718434Y-40973930D01*
X32803674Y-41006775D01*
G37*
G36*
X28111556Y-41006775D02*
G01*
X28146746Y-41097489D01*
X28111556Y-41186640D01*
X28026315Y-41219484D01*
X27940293Y-41186640D01*
X27904320Y-41097489D01*
X27940293Y-41006775D01*
X28026315Y-40973930D01*
X28111556Y-41006775D01*
G37*
G36*
X41405891Y-41006775D02*
G01*
X41441081Y-41097489D01*
X41405891Y-41186640D01*
X41320650Y-41219484D01*
X41234628Y-41186640D01*
X41198655Y-41097489D01*
X41234628Y-41006775D01*
X41320650Y-40973930D01*
X41405891Y-41006775D01*
G37*
D11*
%TO.C,R8*%
X51791064Y-65846000D02*
X50336936Y-65846000D01*
X51791064Y-67666000D02*
X50336936Y-67666000D01*
%TO.C,R17*%
X67513464Y-19960000D02*
X66059336Y-19960000D01*
X67513464Y-18140000D02*
X66059336Y-18140000D01*
%TO.C,Q8*%
X69145000Y-33888000D02*
X69145000Y-34158000D01*
X67645000Y-33888000D02*
X69145000Y-33888000D01*
X67645000Y-40788000D02*
X69145000Y-40788000D01*
X69145000Y-34158000D02*
X71975000Y-34158000D01*
X69145000Y-40518000D02*
X70245000Y-40518000D01*
X69145000Y-40788000D02*
X69145000Y-40518000D01*
%TO.C,Q3*%
X49403000Y-57286000D02*
X50053000Y-57286000D01*
X49403000Y-54166000D02*
X50053000Y-54166000D01*
X49403000Y-57286000D02*
X47728000Y-57286000D01*
X49403000Y-54166000D02*
X48753000Y-54166000D01*
%TO.C,Q10*%
X69145000Y-58806000D02*
X70245000Y-58806000D01*
X69145000Y-52176000D02*
X69145000Y-52446000D01*
X67645000Y-52176000D02*
X69145000Y-52176000D01*
X69145000Y-52446000D02*
X71975000Y-52446000D01*
X69145000Y-59076000D02*
X69145000Y-58806000D01*
X67645000Y-59076000D02*
X69145000Y-59076000D01*
%TO.C,Q9*%
X69145000Y-49932000D02*
X69145000Y-49662000D01*
X69145000Y-43032000D02*
X69145000Y-43302000D01*
X69145000Y-43302000D02*
X71975000Y-43302000D01*
X67645000Y-43032000D02*
X69145000Y-43032000D01*
X69145000Y-49662000D02*
X70245000Y-49662000D01*
X67645000Y-49932000D02*
X69145000Y-49932000D01*
%TO.C,R5*%
X58395064Y-65846000D02*
X56940936Y-65846000D01*
X58395064Y-67666000D02*
X56940936Y-67666000D01*
%TO.C,R1*%
X58527064Y-38964000D02*
X57072936Y-38964000D01*
X58527064Y-37144000D02*
X57072936Y-37144000D01*
%TO.C,Q4*%
X49403000Y-68263000D02*
X48753000Y-68263000D01*
X49403000Y-71383000D02*
X50053000Y-71383000D01*
X49403000Y-71383000D02*
X47728000Y-71383000D01*
X49403000Y-68263000D02*
X50053000Y-68263000D01*
%TO.C,R7*%
X51923064Y-51668000D02*
X50468936Y-51668000D01*
X51923064Y-53488000D02*
X50468936Y-53488000D01*
%TO.C,Q1*%
X49403000Y-28235000D02*
X47728000Y-28235000D01*
X49403000Y-25115000D02*
X50053000Y-25115000D01*
X49403000Y-25115000D02*
X48753000Y-25115000D01*
X49403000Y-28235000D02*
X50053000Y-28235000D01*
%TO.C,R4*%
X58527064Y-51668000D02*
X57072936Y-51668000D01*
X58527064Y-53488000D02*
X57072936Y-53488000D01*
%TO.C,R16*%
X67513464Y-22500000D02*
X66059336Y-22500000D01*
X67513464Y-20680000D02*
X66059336Y-20680000D01*
%TO.C,C1*%
X19918000Y-47245748D02*
X19918000Y-48668252D01*
X21738000Y-47245748D02*
X21738000Y-48668252D01*
%TO.C,R2*%
X58527064Y-22717000D02*
X57072936Y-22717000D01*
X58527064Y-24537000D02*
X57072936Y-24537000D01*
%TO.C,R15*%
X67513464Y-17420000D02*
X66059336Y-17420000D01*
X67513464Y-15600000D02*
X66059336Y-15600000D01*
%TO.C,C2*%
X21738000Y-54002252D02*
X21738000Y-52579748D01*
X19918000Y-54002252D02*
X19918000Y-52579748D01*
%TO.C,R6*%
X51923064Y-37144000D02*
X50468936Y-37144000D01*
X51923064Y-38964000D02*
X50468936Y-38964000D01*
%TO.C,R3*%
X51923064Y-24537000D02*
X50468936Y-24537000D01*
X51923064Y-22717000D02*
X50468936Y-22717000D01*
%TO.C,Q2*%
X49403000Y-39561000D02*
X48753000Y-39561000D01*
X49403000Y-39561000D02*
X50053000Y-39561000D01*
X49403000Y-42681000D02*
X50053000Y-42681000D01*
X49403000Y-42681000D02*
X47728000Y-42681000D01*
%TD*%
%LPC*%
D12*
%TO.C,J5*%
X47625000Y-74168000D03*
D13*
X50165000Y-74168000D03*
X52705000Y-74168000D03*
X55245000Y-74168000D03*
X57785000Y-74168000D03*
X60325000Y-74168000D03*
%TD*%
D12*
%TO.C,J4*%
X27178000Y-74168000D03*
D13*
X29718000Y-74168000D03*
X32258000Y-74168000D03*
X34798000Y-74168000D03*
X37338000Y-74168000D03*
X39878000Y-74168000D03*
%TD*%
D14*
%TO.C,FAN1*%
X50698000Y-18801000D03*
D15*
X53238000Y-18801000D03*
X55778000Y-18801000D03*
X58318000Y-18801000D03*
%TD*%
D14*
%TO.C,FAN2*%
X50698000Y-33228000D03*
D15*
X53238000Y-33228000D03*
X55778000Y-33228000D03*
X58318000Y-33228000D03*
%TD*%
D12*
%TO.C,J3*%
X45522000Y-68585000D03*
D13*
X42982000Y-68585000D03*
X45522000Y-66045000D03*
X42982000Y-66045000D03*
%TD*%
D16*
%TO.C,REF2*%
X17668000Y-69342000D03*
%TD*%
%TO.C,REF1*%
X17668000Y-17531000D03*
%TD*%
D12*
%TO.C,J2*%
X37419500Y-68585000D03*
D13*
X34879500Y-68585000D03*
X37419500Y-66045000D03*
X34879500Y-66045000D03*
%TD*%
D16*
%TO.C,REF4*%
X66802000Y-69342000D03*
%TD*%
D17*
%TO.C,AUX1*%
X27817000Y-50800000D03*
D18*
X27817000Y-48300000D03*
X27817000Y-45800000D03*
%TD*%
D12*
%TO.C,FAN3PWR1*%
X53198000Y-55626000D03*
D13*
X55738000Y-55626000D03*
X58278000Y-55626000D03*
%TD*%
D16*
%TO.C,REF3*%
X66436000Y-26675000D03*
%TD*%
D14*
%TO.C,FAN3*%
X50698000Y-47752000D03*
D15*
X53238000Y-47752000D03*
X55778000Y-47752000D03*
X58318000Y-47752000D03*
%TD*%
D12*
%TO.C,J1*%
X29317000Y-68585000D03*
D13*
X26777000Y-68585000D03*
X29317000Y-66045000D03*
X26777000Y-66045000D03*
%TD*%
D17*
%TO.C,AUX3*%
X44022000Y-50800000D03*
D18*
X44022000Y-48300000D03*
X44022000Y-45800000D03*
%TD*%
D19*
%TO.C,U1*%
X16504000Y-48169500D03*
D20*
X16504000Y-50719500D03*
X16504000Y-53269500D03*
%TD*%
D12*
%TO.C,AUX2PWR1*%
X37419500Y-61517500D03*
D13*
X34879500Y-61517500D03*
X37419500Y-58977500D03*
X34879500Y-58977500D03*
X37419500Y-56437500D03*
X34879500Y-56437500D03*
%TD*%
D12*
%TO.C,AUX1PWR1*%
X29317000Y-61517500D03*
D13*
X26777000Y-61517500D03*
X29317000Y-58977500D03*
X26777000Y-58977500D03*
X29317000Y-56437500D03*
X26777000Y-56437500D03*
%TD*%
D17*
%TO.C,AUX2*%
X35919500Y-50800000D03*
D18*
X35919500Y-48300000D03*
X35919500Y-45800000D03*
%TD*%
D21*
%TO.C,5VIN1*%
X19751000Y-40142000D03*
D22*
X19751000Y-35062000D03*
%TD*%
D23*
%TO.C,U2*%
X44398000Y-16482781D03*
X44398000Y-19022781D03*
X44398000Y-21562781D03*
X44398000Y-24102781D03*
X44398000Y-26642781D03*
X44398000Y-29182781D03*
X44398000Y-31722781D03*
X44398000Y-34262781D03*
X44398000Y-36802781D03*
X41858000Y-36802781D03*
X39318000Y-36802781D03*
X36778000Y-36802781D03*
X34238000Y-36802781D03*
X31698000Y-36802781D03*
X29158000Y-36802781D03*
X29158000Y-34262781D03*
X29158000Y-31722781D03*
X29158000Y-29182781D03*
X29158000Y-26642781D03*
X29158000Y-24102781D03*
X29158000Y-21562781D03*
X29158000Y-19022781D03*
X29158000Y-16482781D03*
%TD*%
D12*
%TO.C,AUX3PWR1*%
X45522000Y-61517500D03*
D13*
X42982000Y-61517500D03*
X45522000Y-58977500D03*
X42982000Y-58977500D03*
X45522000Y-56437500D03*
X42982000Y-56437500D03*
%TD*%
D12*
%TO.C,FAN2PWR1*%
X53198000Y-41021000D03*
D13*
X55738000Y-41021000D03*
X58278000Y-41021000D03*
%TD*%
D14*
%TO.C,FAN4*%
X50556000Y-61930000D03*
D15*
X53096000Y-61930000D03*
X55636000Y-61930000D03*
X58176000Y-61930000D03*
%TD*%
D21*
%TO.C,24VIN1*%
X19751000Y-28966000D03*
D22*
X19751000Y-23886000D03*
%TD*%
D12*
%TO.C,FAN1PWR1*%
X53198000Y-26575000D03*
D13*
X55738000Y-26575000D03*
X58278000Y-26575000D03*
%TD*%
D12*
%TO.C,FAN4PWR1*%
X53198000Y-69723000D03*
D13*
X55738000Y-69723000D03*
X58278000Y-69723000D03*
%TD*%
D24*
%TO.C,R8*%
X52526500Y-66756000D03*
X49601500Y-66756000D03*
%TD*%
%TO.C,R17*%
X68248900Y-19050000D03*
X65323900Y-19050000D03*
%TD*%
D25*
%TO.C,Q8*%
X70875000Y-39618000D03*
D26*
X64575000Y-37338000D03*
D25*
X70875000Y-35058000D03*
%TD*%
D27*
%TO.C,Q3*%
X48465500Y-56676000D03*
X48465500Y-54776000D03*
X50340500Y-55726000D03*
%TD*%
D25*
%TO.C,Q10*%
X70875000Y-57906000D03*
D26*
X64575000Y-55626000D03*
D25*
X70875000Y-53346000D03*
%TD*%
%TO.C,Q9*%
X70875000Y-48762000D03*
D26*
X64575000Y-46482000D03*
D25*
X70875000Y-44202000D03*
%TD*%
D24*
%TO.C,R5*%
X59130500Y-66756000D03*
X56205500Y-66756000D03*
%TD*%
%TO.C,R1*%
X59262500Y-38054000D03*
X56337500Y-38054000D03*
%TD*%
D27*
%TO.C,Q4*%
X48465500Y-70773000D03*
X48465500Y-68873000D03*
X50340500Y-69823000D03*
%TD*%
D24*
%TO.C,R7*%
X52658500Y-52578000D03*
X49733500Y-52578000D03*
%TD*%
D27*
%TO.C,Q1*%
X48465500Y-27625000D03*
X48465500Y-25725000D03*
X50340500Y-26675000D03*
%TD*%
D24*
%TO.C,R4*%
X59262500Y-52578000D03*
X56337500Y-52578000D03*
%TD*%
%TO.C,R16*%
X68248900Y-21590000D03*
X65323900Y-21590000D03*
%TD*%
D28*
%TO.C,C1*%
X20828000Y-46482000D03*
X20828000Y-49432000D03*
%TD*%
D24*
%TO.C,R2*%
X59262500Y-23627000D03*
X56337500Y-23627000D03*
%TD*%
%TO.C,R15*%
X68248900Y-16510000D03*
X65323900Y-16510000D03*
%TD*%
D29*
%TO.C,C2*%
X20828000Y-54766000D03*
X20828000Y-51816000D03*
%TD*%
D24*
%TO.C,R6*%
X52658500Y-38054000D03*
X49733500Y-38054000D03*
%TD*%
%TO.C,R3*%
X52658500Y-23627000D03*
X49733500Y-23627000D03*
%TD*%
D27*
%TO.C,Q2*%
X48465500Y-42071000D03*
X48465500Y-40171000D03*
X50340500Y-41121000D03*
%TD*%
D30*
X19751000Y-62861500D03*
X66506500Y-20894600D03*
X64173500Y-66066500D03*
X64173500Y-51422300D03*
X45320200Y-44845700D03*
X55636000Y-58380000D03*
X48149700Y-58380000D03*
X57637700Y-67791800D03*
X48476500Y-44195800D03*
X47751200Y-37626700D03*
X33755400Y-54505300D03*
X49857000Y-42503200D03*
X46990900Y-15299600D03*
X67081200Y-19050000D03*
X70797700Y-52117100D03*
X51586300Y-65514100D03*
X46265100Y-24757600D03*
X53852800Y-52578000D03*
X51214900Y-38975200D03*
X54373300Y-38302900D03*
X57559900Y-52116700D03*
X61088700Y-40824300D03*
X40085500Y-56357700D03*
X47573600Y-59775000D03*
X60647900Y-46482000D03*
X24748900Y-36802800D03*
X28022800Y-71893900D03*
M02*
