%TF.GenerationSoftware,KiCad,Pcbnew,(6.0.5-0)*%
%TF.CreationDate,2022-09-01T07:50:41+02:00*%
%TF.ProjectId,tiny-fan,74696e79-2d66-4616-9e2e-6b696361645f,rev?*%
%TF.SameCoordinates,Original*%
%TF.FileFunction,Soldermask,Bot*%
%TF.FilePolarity,Negative*%
%FSLAX46Y46*%
G04 Gerber Fmt 4.6, Leading zero omitted, Abs format (unit mm)*
G04 Created by KiCad (PCBNEW (6.0.5-0)) date 2022-09-01 07:50:41*
%MOMM*%
%LPD*%
G01*
G04 APERTURE LIST*
G04 Aperture macros list*
%AMRoundRect*
0 Rectangle with rounded corners*
0 $1 Rounding radius*
0 $2 $3 $4 $5 $6 $7 $8 $9 X,Y pos of 4 corners*
0 Add a 4 corners polygon primitive as box body*
4,1,4,$2,$3,$4,$5,$6,$7,$8,$9,$2,$3,0*
0 Add four circle primitives for the rounded corners*
1,1,$1+$1,$2,$3*
1,1,$1+$1,$4,$5*
1,1,$1+$1,$6,$7*
1,1,$1+$1,$8,$9*
0 Add four rect primitives between the rounded corners*
20,1,$1+$1,$2,$3,$4,$5,0*
20,1,$1+$1,$4,$5,$6,$7,0*
20,1,$1+$1,$6,$7,$8,$9,0*
20,1,$1+$1,$8,$9,$2,$3,0*%
G04 Aperture macros list end*
%ADD10R,1.700000X1.700000*%
%ADD11O,1.700000X1.700000*%
%ADD12R,1.730000X2.030000*%
%ADD13O,1.730000X2.030000*%
%ADD14C,5.700000*%
%ADD15RoundRect,0.250000X0.725000X-0.600000X0.725000X0.600000X-0.725000X0.600000X-0.725000X-0.600000X0*%
%ADD16O,1.950000X1.700000*%
%ADD17R,1.910000X1.910000*%
%ADD18C,1.910000*%
%ADD19R,2.600000X2.600000*%
%ADD20C,2.600000*%
%ADD21C,1.955800*%
%ADD22RoundRect,0.250000X0.312500X0.625000X-0.312500X0.625000X-0.312500X-0.625000X0.312500X-0.625000X0*%
%ADD23R,2.200000X1.200000*%
%ADD24R,6.400000X5.800000*%
%ADD25RoundRect,0.150000X-0.587500X-0.150000X0.587500X-0.150000X0.587500X0.150000X-0.587500X0.150000X0*%
%ADD26RoundRect,0.250000X-0.650000X0.325000X-0.650000X-0.325000X0.650000X-0.325000X0.650000X0.325000X0*%
%ADD27RoundRect,0.250000X0.650000X-0.325000X0.650000X0.325000X-0.650000X0.325000X-0.650000X-0.325000X0*%
%ADD28C,0.800000*%
G04 APERTURE END LIST*
D10*
%TO.C,J5*%
X47625000Y-74168000D03*
D11*
X50165000Y-74168000D03*
X52705000Y-74168000D03*
X55245000Y-74168000D03*
X57785000Y-74168000D03*
X60325000Y-74168000D03*
%TD*%
D10*
%TO.C,J4*%
X27178000Y-74168000D03*
D11*
X29718000Y-74168000D03*
X32258000Y-74168000D03*
X34798000Y-74168000D03*
X37338000Y-74168000D03*
X39878000Y-74168000D03*
%TD*%
D12*
%TO.C,FAN1*%
X50698000Y-18801000D03*
D13*
X53238000Y-18801000D03*
X55778000Y-18801000D03*
X58318000Y-18801000D03*
%TD*%
D12*
%TO.C,FAN2*%
X50698000Y-33228000D03*
D13*
X53238000Y-33228000D03*
X55778000Y-33228000D03*
X58318000Y-33228000D03*
%TD*%
D10*
%TO.C,J3*%
X45522000Y-68585000D03*
D11*
X42982000Y-68585000D03*
X45522000Y-66045000D03*
X42982000Y-66045000D03*
%TD*%
D14*
%TO.C,REF2*%
X17668000Y-69342000D03*
%TD*%
%TO.C,REF1*%
X17668000Y-17531000D03*
%TD*%
D10*
%TO.C,J2*%
X37419500Y-68585000D03*
D11*
X34879500Y-68585000D03*
X37419500Y-66045000D03*
X34879500Y-66045000D03*
%TD*%
D14*
%TO.C,REF4*%
X66802000Y-69342000D03*
%TD*%
D15*
%TO.C,AUX1*%
X27817000Y-50800000D03*
D16*
X27817000Y-48300000D03*
X27817000Y-45800000D03*
%TD*%
D10*
%TO.C,FAN3PWR1*%
X53198000Y-55626000D03*
D11*
X55738000Y-55626000D03*
X58278000Y-55626000D03*
%TD*%
D14*
%TO.C,REF3*%
X66436000Y-26675000D03*
%TD*%
D12*
%TO.C,FAN3*%
X50698000Y-47752000D03*
D13*
X53238000Y-47752000D03*
X55778000Y-47752000D03*
X58318000Y-47752000D03*
%TD*%
D10*
%TO.C,J1*%
X29317000Y-68585000D03*
D11*
X26777000Y-68585000D03*
X29317000Y-66045000D03*
X26777000Y-66045000D03*
%TD*%
D15*
%TO.C,AUX3*%
X44022000Y-50800000D03*
D16*
X44022000Y-48300000D03*
X44022000Y-45800000D03*
%TD*%
D17*
%TO.C,U1*%
X16504000Y-48169500D03*
D18*
X16504000Y-50719500D03*
X16504000Y-53269500D03*
%TD*%
D10*
%TO.C,AUX2PWR1*%
X37419500Y-61517500D03*
D11*
X34879500Y-61517500D03*
X37419500Y-58977500D03*
X34879500Y-58977500D03*
X37419500Y-56437500D03*
X34879500Y-56437500D03*
%TD*%
D10*
%TO.C,AUX1PWR1*%
X29317000Y-61517500D03*
D11*
X26777000Y-61517500D03*
X29317000Y-58977500D03*
X26777000Y-58977500D03*
X29317000Y-56437500D03*
X26777000Y-56437500D03*
%TD*%
D15*
%TO.C,AUX2*%
X35919500Y-50800000D03*
D16*
X35919500Y-48300000D03*
X35919500Y-45800000D03*
%TD*%
D19*
%TO.C,5VIN1*%
X19751000Y-40142000D03*
D20*
X19751000Y-35062000D03*
%TD*%
D21*
%TO.C,U2*%
X44398000Y-16482781D03*
X44398000Y-19022781D03*
X44398000Y-21562781D03*
X44398000Y-24102781D03*
X44398000Y-26642781D03*
X44398000Y-29182781D03*
X44398000Y-31722781D03*
X44398000Y-34262781D03*
X44398000Y-36802781D03*
X41858000Y-36802781D03*
X39318000Y-36802781D03*
X36778000Y-36802781D03*
X34238000Y-36802781D03*
X31698000Y-36802781D03*
X29158000Y-36802781D03*
X29158000Y-34262781D03*
X29158000Y-31722781D03*
X29158000Y-29182781D03*
X29158000Y-26642781D03*
X29158000Y-24102781D03*
X29158000Y-21562781D03*
X29158000Y-19022781D03*
X29158000Y-16482781D03*
%TD*%
D10*
%TO.C,AUX3PWR1*%
X45522000Y-61517500D03*
D11*
X42982000Y-61517500D03*
X45522000Y-58977500D03*
X42982000Y-58977500D03*
X45522000Y-56437500D03*
X42982000Y-56437500D03*
%TD*%
D10*
%TO.C,FAN2PWR1*%
X53198000Y-41021000D03*
D11*
X55738000Y-41021000D03*
X58278000Y-41021000D03*
%TD*%
D12*
%TO.C,FAN4*%
X50556000Y-61930000D03*
D13*
X53096000Y-61930000D03*
X55636000Y-61930000D03*
X58176000Y-61930000D03*
%TD*%
D19*
%TO.C,24VIN1*%
X19751000Y-28966000D03*
D20*
X19751000Y-23886000D03*
%TD*%
D10*
%TO.C,FAN1PWR1*%
X53198000Y-26575000D03*
D11*
X55738000Y-26575000D03*
X58278000Y-26575000D03*
%TD*%
D10*
%TO.C,FAN4PWR1*%
X53198000Y-69723000D03*
D11*
X55738000Y-69723000D03*
X58278000Y-69723000D03*
%TD*%
D22*
%TO.C,R8*%
X52526500Y-66756000D03*
X49601500Y-66756000D03*
%TD*%
%TO.C,R17*%
X68248900Y-19050000D03*
X65323900Y-19050000D03*
%TD*%
D23*
%TO.C,Q8*%
X70875000Y-39618000D03*
D24*
X64575000Y-37338000D03*
D23*
X70875000Y-35058000D03*
%TD*%
D25*
%TO.C,Q3*%
X48465500Y-56676000D03*
X48465500Y-54776000D03*
X50340500Y-55726000D03*
%TD*%
D23*
%TO.C,Q10*%
X70875000Y-57906000D03*
D24*
X64575000Y-55626000D03*
D23*
X70875000Y-53346000D03*
%TD*%
%TO.C,Q9*%
X70875000Y-48762000D03*
D24*
X64575000Y-46482000D03*
D23*
X70875000Y-44202000D03*
%TD*%
D22*
%TO.C,R5*%
X59130500Y-66756000D03*
X56205500Y-66756000D03*
%TD*%
%TO.C,R1*%
X59262500Y-38054000D03*
X56337500Y-38054000D03*
%TD*%
D25*
%TO.C,Q4*%
X48465500Y-70773000D03*
X48465500Y-68873000D03*
X50340500Y-69823000D03*
%TD*%
D22*
%TO.C,R7*%
X52658500Y-52578000D03*
X49733500Y-52578000D03*
%TD*%
D25*
%TO.C,Q1*%
X48465500Y-27625000D03*
X48465500Y-25725000D03*
X50340500Y-26675000D03*
%TD*%
D22*
%TO.C,R4*%
X59262500Y-52578000D03*
X56337500Y-52578000D03*
%TD*%
%TO.C,R16*%
X68248900Y-21590000D03*
X65323900Y-21590000D03*
%TD*%
D26*
%TO.C,C1*%
X20828000Y-46482000D03*
X20828000Y-49432000D03*
%TD*%
D22*
%TO.C,R2*%
X59262500Y-23627000D03*
X56337500Y-23627000D03*
%TD*%
%TO.C,R15*%
X68248900Y-16510000D03*
X65323900Y-16510000D03*
%TD*%
D27*
%TO.C,C2*%
X20828000Y-54766000D03*
X20828000Y-51816000D03*
%TD*%
D22*
%TO.C,R6*%
X52658500Y-38054000D03*
X49733500Y-38054000D03*
%TD*%
%TO.C,R3*%
X52658500Y-23627000D03*
X49733500Y-23627000D03*
%TD*%
D25*
%TO.C,Q2*%
X48465500Y-42071000D03*
X48465500Y-40171000D03*
X50340500Y-41121000D03*
%TD*%
D28*
X19751000Y-62861500D03*
X66506500Y-20894600D03*
X64173500Y-66066500D03*
X64173500Y-51422300D03*
X45320200Y-44845700D03*
X55636000Y-58380000D03*
X48149700Y-58380000D03*
X57637700Y-67791800D03*
X48476500Y-44195800D03*
X47751200Y-37626700D03*
X33755400Y-54505300D03*
X49857000Y-42503200D03*
X46990900Y-15299600D03*
X67081200Y-19050000D03*
X70797700Y-52117100D03*
X51586300Y-65514100D03*
X46265100Y-24757600D03*
X53852800Y-52578000D03*
X51214900Y-38975200D03*
X54373300Y-38302900D03*
X57559900Y-52116700D03*
X61088700Y-40824300D03*
X40085500Y-56357700D03*
X47573600Y-59775000D03*
X60647900Y-46482000D03*
X24748900Y-36802800D03*
X28022800Y-71893900D03*
M02*
